  0
SECTION
  2
HEADER
  9
$ACADVER
  1
AC1032
  9
$ACADMAINTVER
 90
4
  9
$DWGCODEPAGE
  3
ANSI_1252
  9
$LASTSAVEDBY
  1
ezdxf
  9
$REQUIREDVERSIONS
160
0
  9
$INSBASE
 10
0.0
 20
0.0
 30
0.0
  9
$EXTMIN
 10
1e+20
 20
1e+20
 30
1e+20
  9
$EXTMAX
 10
-1e+20
 20
-1e+20
 30
-1e+20
  9
$LIMMIN
 10
0.0
 20
0.0
  9
$LIMMAX
 10
420.0
 20
297.0
  9
$ORTHOMODE
 70
0
  9
$REGENMODE
 70
1
  9
$FILLMODE
 70
1
  9
$QTEXTMODE
 70
0
  9
$MIRRTEXT
 70
1
  9
$LTSCALE
 40
1.0
  9
$ATTMODE
 70
1
  9
$TEXTSIZE
 40
2.5
  9
$TRACEWID
 40
1.0
  9
$TEXTSTYLE
  7
OpenSans
  9
$CLAYER
  8
0
  9
$CELTYPE
  6
ByLayer
  9
$CECOLOR
 62
256
  9
$CELTSCALE
 40
1.0
  9
$DISPSILH
 70
0
  9
$DIMSCALE
 40
1.0
  9
$DIMASZ
 40
0.175
  9
$DIMEXO
 40
0.125
  9
$DIMDLI
 40
3.75
  9
$DIMRND
 40
0.0
  9
$DIMDLE
 40
0.0
  9
$DIMEXE
 40
0.375
  9
$DIMTP
 40
0.0
  9
$DIMTM
 40
0.0
  9
$DIMTXT
 40
0.25
  9
$DIMCEN
 40
2.5
  9
$DIMTSZ
 40
0.0
  9
$DIMTOL
 70
0
  9
$DIMLIM
 70
0
  9
$DIMTIH
 70
0
  9
$DIMTOH
 70
0
  9
$DIMSE1
 70
0
  9
$DIMSE2
 70
0
  9
$DIMTAD
 70
1
  9
$DIMZIN
 70
12
  9
$DIMBLK
  1
ARCHTICK
  9
$DIMASO
 70
1
  9
$DIMSHO
 70
1
  9
$DIMPOST
  1

  9
$DIMAPOST
  1

  9
$DIMALT
 70
0
  9
$DIMALTD
 70
3
  9
$DIMALTF
 40
0.03937007874
  9
$DIMLFAC
 40
100.0
  9
$DIMTOFL
 70
1
  9
$DIMTVP
 40
0.0
  9
$DIMTIX
 70
0
  9
$DIMSOXD
 70
0
  9
$DIMSAH
 70
0
  9
$DIMBLK1
  1

  9
$DIMBLK2
  1

  9
$DIMSTYLE
  2
EZDXF
  9
$DIMCLRD
 70
0
  9
$DIMCLRE
 70
0
  9
$DIMCLRT
 70
0
  9
$DIMTFAC
 40
0.5
  9
$DIMGAP
 40
0.1
  9
$DIMJUST
 70
0
  9
$DIMSD1
 70
0
  9
$DIMSD2
 70
0
  9
$DIMTOLJ
 70
0
  9
$DIMTZIN
 70
8
  9
$DIMALTZ
 70
0
  9
$DIMALTTZ
 70
0
  9
$DIMUPT
 70
1
  9
$DIMDEC
 70
2
  9
$DIMTDEC
 70
2
  9
$DIMALTU
 70
2
  9
$DIMALTTD
 70
3
  9
$DIMTXSTY
  7
OpenSansCondensed-Light
  9
$DIMAUNIT
 70
0
  9
$DIMADEC
 70
2
  9
$DIMALTRND
 40
0.0
  9
$DIMAZIN
 70
3
  9
$DIMDSEP
 70
46
  9
$DIMATFIT
 70
3
  9
$DIMFRAC
 70
0
  9
$DIMLDRBLK
  1

  9
$DIMLUNIT
 70
2
  9
$DIMLWD
 70
-2
  9
$DIMLWE
 70
-2
  9
$DIMTMOVE
 70
2
  9
$DIMFXL
 40
1.0
  9
$DIMFXLON
 70
0
  9
$DIMJOGANG
 40
0.785398163397
  9
$DIMTFILL
 70
0
  9
$DIMTFILLCLR
 70
0
  9
$DIMARCSYM
 70
0
  9
$DIMLTYPE
  6

  9
$DIMLTEX1
  6

  9
$DIMLTEX2
  6

  9
$DIMTXTDIRECTION
 70
0
  9
$LUNITS
 70
2
  9
$LUPREC
 70
4
  9
$SKETCHINC
 40
1.0
  9
$FILLETRAD
 40
10.0
  9
$AUNITS
 70
0
  9
$AUPREC
 70
2
  9
$MENU
  1
.
  9
$ELEVATION
 40
0.0
  9
$PELEVATION
 40
0.0
  9
$THICKNESS
 40
0.0
  9
$LIMCHECK
 70
0
  9
$CHAMFERA
 40
0.0
  9
$CHAMFERB
 40
0.0
  9
$CHAMFERC
 40
0.0
  9
$CHAMFERD
 40
0.0
  9
$SKPOLY
 70
0
  9
$TDCREATE
 40
2461312.971076389
  9
$TDUCREATE
 40
2458532.153996898
  9
$TDUPDATE
 40
2461312.971076389
  9
$TDUUPDATE
 40
2458532.1544311
  9
$TDINDWG
 40
0.0
  9
$TDUSRTIMER
 40
0.0
  9
$USRTIMER
 70
1
  9
$ANGBASE
 50
0.0
  9
$ANGDIR
 70
0
  9
$PDMODE
 70
0
  9
$PDSIZE
 40
0.0
  9
$PLINEWID
 40
0.0
  9
$SPLFRAME
 70
0
  9
$SPLINETYPE
 70
6
  9
$SPLINESEGS
 70
8
  9
$HANDSEED
  5
DF
  9
$SURFTAB1
 70
6
  9
$SURFTAB2
 70
6
  9
$SURFTYPE
 70
6
  9
$SURFU
 70
6
  9
$SURFV
 70
6
  9
$UCSBASE
  2

  9
$UCSNAME
  2

  9
$UCSORG
 10
0.0
 20
0.0
 30
0.0
  9
$UCSXDIR
 10
1.0
 20
0.0
 30
0.0
  9
$UCSYDIR
 10
0.0
 20
1.0
 30
0.0
  9
$UCSORTHOREF
  2

  9
$UCSORTHOVIEW
 70
0
  9
$UCSORGTOP
 10
0.0
 20
0.0
 30
0.0
  9
$UCSORGBOTTOM
 10
0.0
 20
0.0
 30
0.0
  9
$UCSORGLEFT
 10
0.0
 20
0.0
 30
0.0
  9
$UCSORGRIGHT
 10
0.0
 20
0.0
 30
0.0
  9
$UCSORGFRONT
 10
0.0
 20
0.0
 30
0.0
  9
$UCSORGBACK
 10
0.0
 20
0.0
 30
0.0
  9
$PUCSBASE
  2

  9
$PUCSNAME
  2

  9
$PUCSORG
 10
0.0
 20
0.0
 30
0.0
  9
$PUCSXDIR
 10
1.0
 20
0.0
 30
0.0
  9
$PUCSYDIR
 10
0.0
 20
1.0
 30
0.0
  9
$PUCSORTHOREF
  2

  9
$PUCSORTHOVIEW
 70
0
  9
$PUCSORGTOP
 10
0.0
 20
0.0
 30
0.0
  9
$PUCSORGBOTTOM
 10
0.0
 20
0.0
 30
0.0
  9
$PUCSORGLEFT
 10
0.0
 20
0.0
 30
0.0
  9
$PUCSORGRIGHT
 10
0.0
 20
0.0
 30
0.0
  9
$PUCSORGFRONT
 10
0.0
 20
0.0
 30
0.0
  9
$PUCSORGBACK
 10
0.0
 20
0.0
 30
0.0
  9
$USERI1
 70
0
  9
$USERI2
 70
0
  9
$USERI3
 70
0
  9
$USERI4
 70
0
  9
$USERI5
 70
0
  9
$USERR1
 40
0.0
  9
$USERR2
 40
0.0
  9
$USERR3
 40
0.0
  9
$USERR4
 40
0.0
  9
$USERR5
 40
0.0
  9
$WORLDVIEW
 70
1
  9
$SHADEDGE
 70
3
  9
$SHADEDIF
 70
70
  9
$TILEMODE
 70
1
  9
$MAXACTVP
 70
64
  9
$PINSBASE
 10
0.0
 20
0.0
 30
0.0
  9
$PLIMCHECK
 70
0
  9
$PEXTMIN
 10
1e+20
 20
1e+20
 30
1e+20
  9
$PEXTMAX
 10
-1e+20
 20
-1e+20
 30
-1e+20
  9
$PLIMMIN
 10
0.0
 20
0.0
  9
$PLIMMAX
 10
420.0
 20
297.0
  9
$UNITMODE
 70
0
  9
$VISRETAIN
 70
1
  9
$PLINEGEN
 70
0
  9
$PSLTSCALE
 70
1
  9
$TREEDEPTH
 70
3020
  9
$CMLSTYLE
  2
Standard
  9
$CMLJUST
 70
0
  9
$CMLSCALE
 40
20.0
  9
$PROXYGRAPHICS
 70
1
  9
$MEASUREMENT
 70
1
  9
$CELWEIGHT
370
-1
  9
$ENDCAPS
280
0
  9
$JOINSTYLE
280
0
  9
$LWDISPLAY
290
0
  9
$INSUNITS
 70
21
  9
$HYPERLINKBASE
  1

  9
$STYLESHEET
  1

  9
$XEDIT
290
1
  9
$CEPSNTYPE
380
0
  9
$PSTYLEMODE
290
1
  9
$FINGERPRINTGUID
  2
{4E678414-83DF-4D52-8597-797554181D0D}
  9
$VERSIONGUID
  2
{619C29EC-B8D9-4980-9D20-D742C5E49E6F}
  9
$EXTNAMES
290
1
  9
$PSVPSCALE
 40
0.0
  9
$OLESTARTUP
290
0
  9
$SORTENTS
280
127
  9
$INDEXCTL
280
0
  9
$HIDETEXT
280
1
  9
$XCLIPFRAME
280
1
  9
$HALOGAP
280
0
  9
$OBSCOLOR
 70
257
  9
$OBSLTYPE
280
0
  9
$INTERSECTIONDISPLAY
280
0
  9
$INTERSECTIONCOLOR
 70
257
  9
$DIMASSOC
280
2
  9
$PROJECTNAME
  1

  9
$CAMERADISPLAY
290
0
  9
$LENSLENGTH
 40
50.0
  9
$CAMERAHEIGHT
 40
0.0
  9
$STEPSPERSEC
 40
24.0
  9
$STEPSIZE
 40
100.0
  9
$3DDWFPREC
 40
2.0
  9
$PSOLWIDTH
 40
0.005
  9
$PSOLHEIGHT
 40
0.08
  9
$LOFTANG1
 40
1.570796326795
  9
$LOFTANG2
 40
1.570796326795
  9
$LOFTMAG1
 40
0.0
  9
$LOFTMAG2
 40
0.0
  9
$LOFTPARAM
 70
7
  9
$LOFTNORMALS
280
1
  9
$LATITUDE
 40
37.795
  9
$LONGITUDE
 40
-122.394
  9
$NORTHDIRECTION
 40
0.0
  9
$TIMEZONE
 70
-8000
  9
$LIGHTGLYPHDISPLAY
280
1
  9
$TILEMODELIGHTSYNCH
280
1
  9
$CMATERIAL
347
20
  9
$SOLIDHIST
280
0
  9
$SHOWHIST
280
1
  9
$DWFFRAME
280
2
  9
$DGNFRAME
280
2
  9
$REALWORLDSCALE
290
1
  9
$INTERFERECOLOR
 62
256
  9
$CSHADOW
280
0
  9
$SHADOWPLANELOCATION
 40
0.0
  0
ENDSEC
  0
SECTION
  2
CLASSES
  0
CLASS
  1
ACDBDICTIONARYWDFLT
  2
AcDbDictionaryWithDefault
  3
ObjectDBX Classes
 90
0
 91
0
280
0
281
0
  0
CLASS
  1
SUN
  2
AcDbSun
  3
SCENEOE
 90
1153
 91
0
280
0
281
0
  0
CLASS
  1
VISUALSTYLE
  2
AcDbVisualStyle
  3
ObjectDBX Classes
 90
4095
 91
0
280
0
281
0
  0
CLASS
  1
MATERIAL
  2
AcDbMaterial
  3
ObjectDBX Classes
 90
1153
 91
0
280
0
281
0
  0
CLASS
  1
SCALE
  2
AcDbScale
  3
ObjectDBX Classes
 90
1153
 91
0
280
0
281
0
  0
CLASS
  1
TABLESTYLE
  2
AcDbTableStyle
  3
ObjectDBX Classes
 90
4095
 91
0
280
0
281
0
  0
CLASS
  1
MLEADERSTYLE
  2
AcDbMLeaderStyle
  3
ACDB_MLEADERSTYLE_CLASS
 90
4095
 91
0
280
0
281
0
  0
CLASS
  1
DICTIONARYVAR
  2
AcDbDictionaryVar
  3
ObjectDBX Classes
 90
0
 91
0
280
0
281
0
  0
CLASS
  1
CELLSTYLEMAP
  2
AcDbCellStyleMap
  3
ObjectDBX Classes
 90
1152
 91
0
280
0
281
0
  0
CLASS
  1
MENTALRAYRENDERSETTINGS
  2
AcDbMentalRayRenderSettings
  3
SCENEOE
 90
1024
 91
0
280
0
281
0
  0
CLASS
  1
ACDBDETAILVIEWSTYLE
  2
AcDbDetailViewStyle
  3
ObjectDBX Classes
 90
1025
 91
0
280
0
281
0
  0
CLASS
  1
ACDBSECTIONVIEWSTYLE
  2
AcDbSectionViewStyle
  3
ObjectDBX Classes
 90
1025
 91
0
280
0
281
0
  0
CLASS
  1
RASTERVARIABLES
  2
AcDbRasterVariables
  3
ISM
 90
0
 91
0
280
0
281
0
  0
CLASS
  1
ACDBPLACEHOLDER
  2
AcDbPlaceHolder
  3
ObjectDBX Classes
 90
0
 91
0
280
0
281
0
  0
CLASS
  1
LAYOUT
  2
AcDbLayout
  3
ObjectDBX Classes
 90
0
 91
0
280
0
281
0
  0
ENDSEC
  0
SECTION
  2
TABLES
  0
TABLE
  2
VPORT
  5
8
330
0
100
AcDbSymbolTable
 70
1
  0
VPORT
  5
23
330
8
100
AcDbSymbolTableRecord
100
AcDbViewportTableRecord
  2
*Active
 70
0
 10
0.0
 20
0.0
 11
1.0
 21
1.0
 12
0.0
 22
0.0
 13
0.0
 23
0.0
 14
0.5
 24
0.5
 15
0.5
 25
0.5
 16
0.0
 26
0.0
 36
1.0
 17
0.0
 27
0.0
 37
0.0
 40
1000.0
 41
1.34
 42
50.0
 43
0.0
 44
0.0
 50
0.0
 51
0.0
 71
0
 72
1000
 73
1
 74
3
 75
0
 76
0
 77
0
 78
0
281
0
 65
0
146
0.0
  0
ENDTAB
  0
TABLE
  2
LTYPE
  5
2
330
0
100
AcDbSymbolTable
 70
21
  0
LTYPE
  5
24
330
2
100
AcDbSymbolTableRecord
100
AcDbLinetypeTableRecord
  2
ByBlock
 70
0
  3

 72
65
 73
0
 40
0.0
  0
LTYPE
  5
25
330
2
100
AcDbSymbolTableRecord
100
AcDbLinetypeTableRecord
  2
ByLayer
 70
0
  3

 72
65
 73
0
 40
0.0
  0
LTYPE
  5
26
330
2
100
AcDbSymbolTableRecord
100
AcDbLinetypeTableRecord
  2
Continuous
 70
0
  3

 72
65
 73
0
 40
0.0
  0
LTYPE
  5
2F
330
2
100
AcDbSymbolTableRecord
100
AcDbLinetypeTableRecord
  2
CENTER
 70
0
  3
Center ____ _ ____ _ ____ _ ____ _ ____ _ ____
 72
65
 73
4
 40
5.08
 49
3.175
 74
0
 49
-0.635
 74
0
 49
0.635
 74
0
 49
-0.635
 74
0
  0
LTYPE
  5
30
330
2
100
AcDbSymbolTableRecord
100
AcDbLinetypeTableRecord
  2
CENTERX2
 70
0
  3
Center (2x) ________  __  ________  __  ________
 72
65
 73
4
 40
8.89
 49
6.35
 74
0
 49
-0.635
 74
0
 49
1.27
 74
0
 49
-0.635
 74
0
  0
LTYPE
  5
31
330
2
100
AcDbSymbolTableRecord
100
AcDbLinetypeTableRecord
  2
CENTER2
 70
0
  3
Center (.5x) ____ _ ____ _ ____ _ ____ _ ____
 72
65
 73
4
 40
2.54
 49
1.587
 74
0
 49
-0.318
 74
0
 49
0.318
 74
0
 49
-0.318
 74
0
  0
LTYPE
  5
32
330
2
100
AcDbSymbolTableRecord
100
AcDbLinetypeTableRecord
  2
DASHED
 70
0
  3
Dashed __ __ __ __ __ __ __ __ __ __ __ __ __ _
 72
65
 73
2
 40
1.524
 49
1.27
 74
0
 49
-0.254
 74
0
  0
LTYPE
  5
33
330
2
100
AcDbSymbolTableRecord
100
AcDbLinetypeTableRecord
  2
DASHEDX2
 70
0
  3
Dashed (2x) ____  ____  ____  ____  ____  ____
 72
65
 73
2
 40
3.048
 49
2.54
 74
0
 49
-0.508
 74
0
  0
LTYPE
  5
34
330
2
100
AcDbSymbolTableRecord
100
AcDbLinetypeTableRecord
  2
DASHED2
 70
0
  3
Dashed (.5x) _ _ _ _ _ _ _ _ _ _ _ _ _ _
 72
65
 73
2
 40
0.762
 49
0.635
 74
0
 49
-0.127
 74
0
  0
LTYPE
  5
35
330
2
100
AcDbSymbolTableRecord
100
AcDbLinetypeTableRecord
  2
PHANTOM
 70
0
  3
Phantom ______  __  __  ______  __  __  ______
 72
65
 73
6
 40
6.35
 49
3.175
 74
0
 49
-0.635
 74
0
 49
0.635
 74
0
 49
-0.635
 74
0
 49
0.635
 74
0
 49
-0.635
 74
0
  0
LTYPE
  5
36
330
2
100
AcDbSymbolTableRecord
100
AcDbLinetypeTableRecord
  2
PHANTOMX2
 70
0
  3
Phantom (2x)____________    ____    ____    ____________
 72
65
 73
6
 40
10.795
 49
6.35
 74
0
 49
-0.635
 74
0
 49
1.27
 74
0
 49
-0.635
 74
0
 49
1.27
 74
0
 49
-0.635
 74
0
  0
LTYPE
  5
37
330
2
100
AcDbSymbolTableRecord
100
AcDbLinetypeTableRecord
  2
PHANTOM2
 70
0
  3
Phantom (.5x) ___ _ _ ___ _ _ ___ _ _ ___ _ _ ___
 72
65
 73
6
 40
3.175
 49
1.587
 74
0
 49
-0.318
 74
0
 49
0.318
 74
0
 49
-0.318
 74
0
 49
0.318
 74
0
 49
-0.318
 74
0
  0
LTYPE
  5
38
330
2
100
AcDbSymbolTableRecord
100
AcDbLinetypeTableRecord
  2
DASHDOT
 70
0
  3
Dash dot __ . __ . __ . __ . __ . __ . __ . __
 72
65
 73
4
 40
3.556
 49
2.54
 74
0
 49
-0.508
 74
0
 49
0.0
 74
0
 49
-0.508
 74
0
  0
LTYPE
  5
39
330
2
100
AcDbSymbolTableRecord
100
AcDbLinetypeTableRecord
  2
DASHDOTX2
 70
0
  3
Dash dot (2x) ____  .  ____  .  ____  .  ____
 72
65
 73
4
 40
6.096
 49
5.08
 74
0
 49
-0.508
 74
0
 49
0.0
 74
0
 49
-0.508
 74
0
  0
LTYPE
  5
3A
330
2
100
AcDbSymbolTableRecord
100
AcDbLinetypeTableRecord
  2
DASHDOT2
 70
0
  3
Dash dot (.5x) _ . _ . _ . _ . _ . _ . _ . _
 72
65
 73
4
 40
1.778
 49
1.27
 74
0
 49
-0.254
 74
0
 49
0.0
 74
0
 49
-0.254
 74
0
  0
LTYPE
  5
3B
330
2
100
AcDbSymbolTableRecord
100
AcDbLinetypeTableRecord
  2
DOT
 70
0
  3
Dot .  .  .  .  .  .  .  .  .  .  .  .  .  .  .  .
 72
65
 73
2
 40
0.508
 49
0.0
 74
0
 49
-0.508
 74
0
  0
LTYPE
  5
3C
330
2
100
AcDbSymbolTableRecord
100
AcDbLinetypeTableRecord
  2
DOTX2
 70
0
  3
Dot (2x) .    .    .    .    .    .    .    . 
 72
65
 73
2
 40
1.016
 49
0.0
 74
0
 49
-1.016
 74
0
  0
LTYPE
  5
3D
330
2
100
AcDbSymbolTableRecord
100
AcDbLinetypeTableRecord
  2
DOT2
 70
0
  3
Dot (.5) . . . . . . . . . . . . . . . . . . . 
 72
65
 73
2
 40
0.254
 49
0.0
 74
0
 49
-0.254
 74
0
  0
LTYPE
  5
3E
330
2
100
AcDbSymbolTableRecord
100
AcDbLinetypeTableRecord
  2
DIVIDE
 70
0
  3
Divide __ . . __ . . __ . . __ . . __ . . __
 72
65
 73
6
 40
4.064
 49
2.54
 74
0
 49
-0.508
 74
0
 49
0.0
 74
0
 49
-0.508
 74
0
 49
0.0
 74
0
 49
-0.508
 74
0
  0
LTYPE
  5
3F
330
2
100
AcDbSymbolTableRecord
100
AcDbLinetypeTableRecord
  2
DIVIDEX2
 70
0
  3
Divide (2x) ____  . .  ____  . .  ____  . .  ____
 72
65
 73
6
 40
6.604
 49
5.08
 74
0
 49
-0.508
 74
0
 49
0.0
 74
0
 49
-0.508
 74
0
 49
0.0
 74
0
 49
-0.508
 74
0
  0
LTYPE
  5
40
330
2
100
AcDbSymbolTableRecord
100
AcDbLinetypeTableRecord
  2
DIVIDE2
 70
0
  3
Divide(.5x) _ . _ . _ . _ . _ . _ . _ . _
 72
65
 73
6
 40
2.032
 49
1.27
 74
0
 49
-0.254
 74
0
 49
0.0
 74
0
 49
-0.254
 74
0
 49
0.0
 74
0
 49
-0.254
 74
0
  0
ENDTAB
  0
TABLE
  2
LAYER
  5
1
330
0
100
AcDbSymbolTable
 70
17
  0
LAYER
  5
27
330
1
100
AcDbSymbolTableRecord
100
AcDbLayerTableRecord
  2
0
 70
0
 62
7
  6
Continuous
370
-3
390
13
347
21
  0
LAYER
  5
28
330
1
100
AcDbSymbolTableRecord
100
AcDbLayerTableRecord
  2
Defpoints
 70
0
 62
7
  6
Continuous
290
0
370
-3
390
13
347
21
  0
LAYER
  5
8A
330
1
100
AcDbSymbolTableRecord
100
AcDbLayerTableRecord
  2
L-PROG-ANNO
 70
0
 62
2
  6
Continuous
370
-3
390
13
347
21
  0
LAYER
  5
8B
330
1
100
AcDbSymbolTableRecord
100
AcDbLayerTableRecord
  2
C-TRAIL-LOOP
 70
0
 62
7
  6
Continuous
370
-3
390
13
347
21
  0
LAYER
  5
8C
330
1
100
AcDbSymbolTableRecord
100
AcDbLayerTableRecord
  2
G-ANNO-NOTE
 70
0
 62
7
  6
Continuous
370
-3
390
13
347
21
  0
LAYER
  5
8D
330
1
100
AcDbSymbolTableRecord
100
AcDbLayerTableRecord
  2
L-PROG-GATE
 70
0
 62
7
420
16738847
  6
Continuous
370
-3
390
13
347
21
  0
LAYER
  5
90
330
1
100
AcDbSymbolTableRecord
100
AcDbLayerTableRecord
  2
L-PROG-CASTLE
 70
0
 62
7
420
16763196
  6
Continuous
370
-3
390
13
347
21
  0
LAYER
  5
93
330
1
100
AcDbSymbolTableRecord
100
AcDbLayerTableRecord
  2
L-PROG-ARENA
 70
0
 62
7
420
16723880
  6
Continuous
370
-3
390
13
347
21
  0
LAYER
  5
96
330
1
100
AcDbSymbolTableRecord
100
AcDbLayerTableRecord
  2
L-PROG-GOLF
 70
0
 62
7
420
8246106
  6
Continuous
370
-3
390
13
347
21
  0
LAYER
  5
99
330
1
100
AcDbSymbolTableRecord
100
AcDbLayerTableRecord
  2
L-PROG-CABINS
 70
0
 62
7
420
3125503
  6
Continuous
370
-3
390
13
347
21
  0
LAYER
  5
9C
330
1
100
AcDbSymbolTableRecord
100
AcDbLayerTableRecord
  2
L-PROG-LAGOON
 70
0
 62
7
420
3393222
  6
Continuous
370
-3
390
13
347
21
  0
LAYER
  5
9F
330
1
100
AcDbSymbolTableRecord
100
AcDbLayerTableRecord
  2
L-PROG-GROVE
 70
0
 62
7
420
16758514
  6
Continuous
370
-3
390
13
347
21
  0
LAYER
  5
A2
330
1
100
AcDbSymbolTableRecord
100
AcDbLayerTableRecord
  2
L-PROG-BARN
 70
0
 62
7
420
13213802
  6
Continuous
370
-3
390
13
347
21
  0
LAYER
  5
A5
330
1
100
AcDbSymbolTableRecord
100
AcDbLayerTableRecord
  2
L-PROG-LODGE
 70
0
 62
7
420
9136970
  6
Continuous
370
-3
390
13
347
21
  0
LAYER
  5
A8
330
1
100
AcDbSymbolTableRecord
100
AcDbLayerTableRecord
  2
L-PROG-RV
 70
0
 62
7
420
16113802
  6
Continuous
370
-3
390
13
347
21
  0
LAYER
  5
AB
330
1
100
AcDbSymbolTableRecord
100
AcDbLayerTableRecord
  2
L-PROG-UFO
 70
0
 62
7
420
11832575
  6
Continuous
370
-3
390
13
347
21
  0
LAYER
  5
AE
330
1
100
AcDbSymbolTableRecord
100
AcDbLayerTableRecord
  2
L-PROG-BARNS
 70
0
 62
7
420
10134440
  6
Continuous
370
-3
390
13
347
21
  0
ENDTAB
  0
TABLE
  2
STYLE
  5
5
330
0
100
AcDbSymbolTable
 70
26
  0
STYLE
  5
29
330
5
100
AcDbSymbolTableRecord
100
AcDbTextStyleTableRecord
  2
Standard
 70
0
 40
0.0
 41
1.0
 50
0.0
 71
0
 42
2.5
  3
txt
  4

  0
STYLE
  5
41
330
5
100
AcDbSymbolTableRecord
100
AcDbTextStyleTableRecord
  2
OpenSans-Light
 70
0
 40
0.0
 41
1.0
 50
0.0
 71
0
 42
2.5
  3
OpenSans-Light.ttf
  4

  0
STYLE
  5
42
330
5
100
AcDbSymbolTableRecord
100
AcDbTextStyleTableRecord
  2
OpenSans-Light-Italic
 70
0
 40
0.0
 41
1.0
 50
0.0
 71
0
 42
2.5
  3
OpenSans-LightItalic.ttf
  4

  0
STYLE
  5
43
330
5
100
AcDbSymbolTableRecord
100
AcDbTextStyleTableRecord
  2
OpenSans
 70
0
 40
0.0
 41
1.0
 50
0.0
 71
0
 42
2.5
  3
OpenSans-Regular.ttf
  4

  0
STYLE
  5
44
330
5
100
AcDbSymbolTableRecord
100
AcDbTextStyleTableRecord
  2
OpenSans-Italic
 70
0
 40
0.0
 41
1.0
 50
0.0
 71
0
 42
2.5
  3
OpenSans-Italic.ttf
  4

  0
STYLE
  5
45
330
5
100
AcDbSymbolTableRecord
100
AcDbTextStyleTableRecord
  2
OpenSans-SemiBold
 70
0
 40
0.0
 41
1.0
 50
0.0
 71
0
 42
2.5
  3
OpenSans-SemiBold.ttf
  4

  0
STYLE
  5
46
330
5
100
AcDbSymbolTableRecord
100
AcDbTextStyleTableRecord
  2
OpenSans-SemiBoldItalic
 70
0
 40
0.0
 41
1.0
 50
0.0
 71
0
 42
2.5
  3
OpenSans-SemiBoldItalic.ttf
  4

  0
STYLE
  5
47
330
5
100
AcDbSymbolTableRecord
100
AcDbTextStyleTableRecord
  2
OpenSans-Bold
 70
0
 40
0.0
 41
1.0
 50
0.0
 71
0
 42
2.5
  3
OpenSans-Bold.ttf
  4

  0
STYLE
  5
48
330
5
100
AcDbSymbolTableRecord
100
AcDbTextStyleTableRecord
  2
OpenSans-BoldItalic
 70
0
 40
0.0
 41
1.0
 50
0.0
 71
0
 42
2.5
  3
OpenSans-BoldItalic.ttf
  4

  0
STYLE
  5
49
330
5
100
AcDbSymbolTableRecord
100
AcDbTextStyleTableRecord
  2
OpenSans-ExtraBold
 70
0
 40
0.0
 41
1.0
 50
0.0
 71
0
 42
2.5
  3
OpenSans-ExtraBold.ttf
  4

  0
STYLE
  5
4A
330
5
100
AcDbSymbolTableRecord
100
AcDbTextStyleTableRecord
  2
OpenSans-ExtraBoldItalic
 70
0
 40
0.0
 41
1.0
 50
0.0
 71
0
 42
2.5
  3
OpenSans-ExtraBoldItalic.ttf
  4

  0
STYLE
  5
4B
330
5
100
AcDbSymbolTableRecord
100
AcDbTextStyleTableRecord
  2
OpenSansCondensed-Bold
 70
0
 40
0.0
 41
1.0
 50
0.0
 71
0
 42
2.5
  3
OpenSansCondensed-Bold.ttf
  4

  0
STYLE
  5
4C
330
5
100
AcDbSymbolTableRecord
100
AcDbTextStyleTableRecord
  2
OpenSansCondensed-Light
 70
0
 40
0.0
 41
1.0
 50
0.0
 71
0
 42
2.5
  3
OpenSansCondensed-Light.ttf
  4

  0
STYLE
  5
4D
330
5
100
AcDbSymbolTableRecord
100
AcDbTextStyleTableRecord
  2
OpenSansCondensed-Italic
 70
0
 40
0.0
 41
1.0
 50
0.0
 71
0
 42
2.5
  3
OpenSansCondensed-LightItalic.ttf
  4

  0
STYLE
  5
4E
330
5
100
AcDbSymbolTableRecord
100
AcDbTextStyleTableRecord
  2
LiberationSans
 70
0
 40
0.0
 41
1.0
 50
0.0
 71
0
 42
2.5
  3
LiberationSans-Regular.ttf
  4

  0
STYLE
  5
4F
330
5
100
AcDbSymbolTableRecord
100
AcDbTextStyleTableRecord
  2
LiberationSans-Bold
 70
0
 40
0.0
 41
1.0
 50
0.0
 71
0
 42
2.5
  3
LiberationSans-Bold.ttf
  4

  0
STYLE
  5
50
330
5
100
AcDbSymbolTableRecord
100
AcDbTextStyleTableRecord
  2
LiberationSans-BoldItalic
 70
0
 40
0.0
 41
1.0
 50
0.0
 71
0
 42
2.5
  3
LiberationSans-BoldItalic.ttf
  4

  0
STYLE
  5
51
330
5
100
AcDbSymbolTableRecord
100
AcDbTextStyleTableRecord
  2
LiberationSans-Italic
 70
0
 40
0.0
 41
1.0
 50
0.0
 71
0
 42
2.5
  3
LiberationSans-Italic.ttf
  4

  0
STYLE
  5
52
330
5
100
AcDbSymbolTableRecord
100
AcDbTextStyleTableRecord
  2
LiberationSerif
 70
0
 40
0.0
 41
1.0
 50
0.0
 71
0
 42
2.5
  3
LiberationSerif-Regular.ttf
  4

  0
STYLE
  5
53
330
5
100
AcDbSymbolTableRecord
100
AcDbTextStyleTableRecord
  2
LiberationSerif-Bold
 70
0
 40
0.0
 41
1.0
 50
0.0
 71
0
 42
2.5
  3
LiberationSerif-Bold.ttf
  4

  0
STYLE
  5
54
330
5
100
AcDbSymbolTableRecord
100
AcDbTextStyleTableRecord
  2
LiberationSerif-BoldItalic
 70
0
 40
0.0
 41
1.0
 50
0.0
 71
0
 42
2.5
  3
LiberationSerif-BoldItalic.ttf
  4

  0
STYLE
  5
55
330
5
100
AcDbSymbolTableRecord
100
AcDbTextStyleTableRecord
  2
LiberationSerif-Italic
 70
0
 40
0.0
 41
1.0
 50
0.0
 71
0
 42
2.5
  3
LiberationSerif-Italic.ttf
  4

  0
STYLE
  5
56
330
5
100
AcDbSymbolTableRecord
100
AcDbTextStyleTableRecord
  2
LiberationMono
 70
0
 40
0.0
 41
1.0
 50
0.0
 71
0
 42
2.5
  3
LiberationMono-Regular.ttf
  4

  0
STYLE
  5
57
330
5
100
AcDbSymbolTableRecord
100
AcDbTextStyleTableRecord
  2
LiberationMono-Bold
 70
0
 40
0.0
 41
1.0
 50
0.0
 71
0
 42
2.5
  3
LiberationMono-Bold.ttf
  4

  0
STYLE
  5
58
330
5
100
AcDbSymbolTableRecord
100
AcDbTextStyleTableRecord
  2
LiberationMono-BoldItalic
 70
0
 40
0.0
 41
1.0
 50
0.0
 71
0
 42
2.5
  3
LiberationMono-BoldItalic.ttf
  4

  0
STYLE
  5
59
330
5
100
AcDbSymbolTableRecord
100
AcDbTextStyleTableRecord
  2
LiberationMono-Italic
 70
0
 40
0.0
 41
1.0
 50
0.0
 71
0
 42
2.5
  3
LiberationMono-Italic.ttf
  4

  0
ENDTAB
  0
TABLE
  2
VIEW
  5
7
330
0
100
AcDbSymbolTable
 70
0
  0
ENDTAB
  0
TABLE
  2
UCS
  5
6
330
0
100
AcDbSymbolTable
 70
0
  0
ENDTAB
  0
TABLE
  2
APPID
  5
3
330
0
100
AcDbSymbolTable
 70
3
  0
APPID
  5
2A
330
3
100
AcDbSymbolTableRecord
100
AcDbRegAppTableRecord
  2
ACAD
 70
0
  0
APPID
  5
DC
330
3
100
AcDbSymbolTableRecord
100
AcDbRegAppTableRecord
  2
HATCHBACKGROUNDCOLOR
 70
0
  0
APPID
  5
DD
330
3
100
AcDbSymbolTableRecord
100
AcDbRegAppTableRecord
  2
EZDXF
 70
0
  0
ENDTAB
  0
TABLE
  2
DIMSTYLE
  5
4
330
0
100
AcDbSymbolTable
 70
12
100
AcDbDimStyleTable
  0
DIMSTYLE
105
2B
330
4
100
AcDbSymbolTableRecord
100
AcDbDimStyleTableRecord
  2
Standard
 70
0
 40
1.0
 41
2.5
 42
0.625
 43
3.75
 44
1.25
 45
0.0
 46
0.0
 47
0.0
 48
0.0
 49
2.5
140
2.5
141
2.5
142
0.0
143
0.03937007874
144
1.0
145
0.0
146
1.0
147
0.625
148
0.0
 69
0
 70
0
 71
0
 72
0
 73
0
 74
0
 75
0
 76
0
 77
1
 78
8
 79
3
170
0
171
3
172
1
173
0
174
0
175
0
176
0
177
0
178
0
179
2
271
2
272
2
273
2
274
3
275
0
276
0
277
2
278
44
279
0
280
0
281
0
282
0
283
0
284
8
285
0
286
0
288
0
289
3
290
0
371
-2
372
-2
  0
DIMSTYLE
105
73
330
4
100
AcDbSymbolTableRecord
100
AcDbDimStyleTableRecord
  2
EZDXF
 70
0
 40
1.0
 41
0.175
 42
0.125
 43
3.75
 44
0.375
 45
0.0
 46
0.0
 47
0.0
 48
0.0
 49
2.5
140
0.25
141
2.5
142
0.0
143
0.03937007874
144
100.0
145
0.0
146
0.5
147
0.1
148
0.0
 69
0
 70
0
 71
0
 72
0
 73
0
 74
0
 75
0
 76
0
 77
1
 78
12
 79
3
170
0
171
3
172
1
173
0
174
0
175
0
176
0
177
0
178
0
179
2
271
2
272
2
273
2
274
3
275
0
276
0
277
2
278
46
279
2
280
0
281
0
282
0
283
0
284
8
285
0
286
0
288
1
289
3
290
0
340
4C
342
74
371
-2
372
-2
  0
DIMSTYLE
105
7C
330
4
100
AcDbSymbolTableRecord
100
AcDbDimStyleTableRecord
  2
EZ_M_100_H25_CM
 70
0
 40
1.0
 41
0.25
 42
0.125
 43
3.75
 44
0.375
 45
0.0
 46
0.0
 47
0.0
 48
0.0
 49
2.5
140
0.25
141
2.5
142
0.125
143
0.03937007874
144
100.0
145
0.0
146
0.5
147
0.1
148
0.0
 69
0
 70
0
 71
0
 72
0
 73
0
 74
0
 75
0
 76
0
 77
1
 78
12
 79
3
170
0
171
3
172
1
173
0
174
0
175
0
176
0
177
0
178
0
179
2
271
2
272
2
273
2
274
3
275
0
276
0
277
2
278
46
279
2
280
0
281
0
282
0
283
0
284
8
285
0
286
0
288
1
289
3
290
0
340
4C
371
-2
372
-2
  0
DIMSTYLE
105
7D
330
4
100
AcDbSymbolTableRecord
100
AcDbDimStyleTableRecord
  2
EZ_M_50_H25_CM
 70
0
 40
1.0
 41
0.125
 42
0.0625
 43
3.75
 44
0.1875
 45
0.0
 46
0.0
 47
0.0
 48
0.0
 49
2.5
140
0.125
141
2.5
142
0.0625
143
0.03937007874
144
100.0
145
0.0
146
0.5
147
0.05
148
0.0
 69
0
 70
0
 71
0
 72
0
 73
0
 74
0
 75
0
 76
0
 77
1
 78
12
 79
3
170
0
171
3
172
1
173
0
174
0
175
0
176
0
177
0
178
0
179
2
271
2
272
2
273
2
274
3
275
0
276
0
277
2
278
46
279
2
280
0
281
0
282
0
283
0
284
8
285
0
286
0
288
1
289
3
290
0
340
4C
371
-2
372
-2
  0
DIMSTYLE
105
7E
330
4
100
AcDbSymbolTableRecord
100
AcDbDimStyleTableRecord
  2
EZ_M_25_H25_CM
 70
0
 40
1.0
 41
0.0625
 42
0.03125
 43
3.75
 44
0.09375
 45
0.0
 46
0.0
 47
0.0
 48
0.0
 49
2.5
140
0.0625
141
2.5
142
0.03125
143
0.03937007874
144
100.0
145
0.0
146
0.5
147
0.025
148
0.0
 69
0
 70
0
 71
0
 72
0
 73
0
 74
0
 75
0
 76
0
 77
1
 78
12
 79
3
170
0
171
3
172
1
173
0
174
0
175
0
176
0
177
0
178
0
179
2
271
2
272
2
273
2
274
3
275
0
276
0
277
2
278
46
279
2
280
0
281
0
282
0
283
0
284
8
285
0
286
0
288
1
289
3
290
0
340
4C
371
-2
372
-2
  0
DIMSTYLE
105
7F
330
4
100
AcDbSymbolTableRecord
100
AcDbDimStyleTableRecord
  2
EZ_M_20_H25_CM
 70
0
 40
1.0
 41
0.05
 42
0.025
 43
3.75
 44
0.07500000000000001
 45
0.0
 46
0.0
 47
0.0
 48
0.0
 49
2.5
140
0.05
141
2.5
142
0.025
143
0.03937007874
144
100.0
145
0.0
146
0.5
147
0.020000000000000004
148
0.0
 69
0
 70
0
 71
0
 72
0
 73
0
 74
0
 75
0
 76
0
 77
1
 78
12
 79
3
170
0
171
3
172
1
173
0
174
0
175
0
176
0
177
0
178
0
179
2
271
2
272
2
273
2
274
3
275
0
276
0
277
2
278
46
279
2
280
0
281
0
282
0
283
0
284
8
285
0
286
0
288
1
289
3
290
0
340
4C
371
-2
372
-2
  0
DIMSTYLE
105
80
330
4
100
AcDbSymbolTableRecord
100
AcDbDimStyleTableRecord
  2
EZ_M_10_H25_CM
 70
0
 40
1.0
 41
0.025
 42
0.0125
 43
3.75
 44
0.037500000000000006
 45
0.0
 46
0.0
 47
0.0
 48
0.0
 49
2.5
140
0.025
141
2.5
142
0.0125
143
0.03937007874
144
100.0
145
0.0
146
0.5
147
0.010000000000000002
148
0.0
 69
0
 70
0
 71
0
 72
0
 73
0
 74
0
 75
0
 76
0
 77
1
 78
12
 79
3
170
0
171
3
172
1
173
0
174
0
175
0
176
0
177
0
178
0
179
2
271
2
272
2
273
2
274
3
275
0
276
0
277
2
278
46
279
2
280
0
281
0
282
0
283
0
284
8
285
0
286
0
288
1
289
3
290
0
340
4C
371
-2
372
-2
  0
DIMSTYLE
105
81
330
4
100
AcDbSymbolTableRecord
100
AcDbDimStyleTableRecord
  2
EZ_M_5_H25_CM
 70
0
 40
1.0
 41
0.0125
 42
0.00625
 43
3.75
 44
0.018750000000000003
 45
0.0
 46
0.0
 47
0.0
 48
0.0
 49
2.5
140
0.0125
141
2.5
142
0.00625
143
0.03937007874
144
100.0
145
0.0
146
0.5
147
0.005000000000000001
148
0.0
 69
0
 70
0
 71
0
 72
0
 73
0
 74
0
 75
0
 76
0
 77
1
 78
12
 79
3
170
0
171
3
172
1
173
0
174
0
175
0
176
0
177
0
178
0
179
2
271
2
272
2
273
2
274
3
275
0
276
0
277
2
278
46
279
2
280
0
281
0
282
0
283
0
284
8
285
0
286
0
288
1
289
3
290
0
340
4C
371
-2
372
-2
  0
DIMSTYLE
105
82
330
4
100
AcDbSymbolTableRecord
100
AcDbDimStyleTableRecord
  2
EZ_M_1_H25_CM
 70
0
 40
1.0
 41
0.0025
 42
0.00125
 43
3.75
 44
0.00375
 45
0.0
 46
0.0
 47
0.0
 48
0.0
 49
2.5
140
0.0025
141
2.5
142
0.00125
143
0.03937007874
144
100.0
145
0.0
146
0.5
147
0.001
148
0.0
 69
0
 70
0
 71
0
 72
0
 73
0
 74
0
 75
0
 76
0
 77
1
 78
12
 79
3
170
0
171
3
172
1
173
0
174
0
175
0
176
0
177
0
178
0
179
2
271
2
272
2
273
2
274
3
275
0
276
0
277
2
278
46
279
2
280
0
281
0
282
0
283
0
284
8
285
0
286
0
288
1
289
3
290
0
340
4C
371
-2
372
-2
  0
DIMSTYLE
105
83
330
4
100
AcDbSymbolTableRecord
100
AcDbDimStyleTableRecord
  2
EZ_RADIUS
 70
0
 40
1.0
 41
0.25
 42
0.125
 43
3.75
 44
0.375
 45
0.0
 46
0.0
 47
0.0
 48
0.0
 49
2.5
140
0.25
141
0.0
142
0.0
143
0.03937007874
144
100.0
145
0.0
146
0.5
147
0.1
148
0.0
 69
0
 70
0
 71
0
 72
0
 73
0
 74
0
 75
0
 76
0
 77
1
 78
12
 79
3
170
0
171
3
172
0
173
0
174
0
175
0
176
0
177
0
178
0
179
2
271
2
272
2
273
2
274
3
275
0
276
0
277
2
278
46
279
1
280
0
281
0
282
0
283
0
284
8
285
0
286
0
288
1
289
3
290
0
340
4C
342
84
371
-2
372
-2
  0
DIMSTYLE
105
88
330
4
100
AcDbSymbolTableRecord
100
AcDbDimStyleTableRecord
  2
EZ_RADIUS_INSIDE
 70
0
 40
1.0
 41
0.25
 42
0.125
 43
3.75
 44
0.375
 45
0.0
 46
0.0
 47
0.0
 48
0.0
 49
2.5
140
0.25
141
0.0
142
0.0
143
0.03937007874
144
100.0
145
0.0
146
0.5
147
0.1
148
0.0
 69
0
 70
0
 71
0
 72
0
 73
0
 74
0
 75
0
 76
0
 77
0
 78
12
 79
3
170
0
171
3
172
0
173
0
174
1
175
0
176
0
177
0
178
0
179
2
271
2
272
2
273
2
274
3
275
0
276
0
277
2
278
46
279
0
280
0
281
0
282
0
283
0
284
8
285
0
286
0
288
1
289
0
290
0
340
4C
342
84
371
-2
372
-2
  0
DIMSTYLE
105
89
330
4
100
AcDbSymbolTableRecord
100
AcDbDimStyleTableRecord
  2
EZ_CURVED
 70
0
 40
1.0
 41
0.25
 42
0.125
 43
3.75
 44
0.375
 45
0.0
 46
0.0
 47
0.0
 48
0.0
 49
2.5
140
0.25
141
2.5
142
0.0
143
0.03937007874
144
100.0
145
0.0
146
0.5
147
0.1
148
0.0
 69
0
 70
0
 71
0
 72
0
 73
0
 74
0
 75
0
 76
0
 77
1
 78
12
 79
2
 90
2
170
0
171
3
172
1
173
0
174
0
175
0
176
0
177
0
178
0
179
2
271
2
272
2
273
2
274
3
275
0
276
0
277
2
278
46
279
2
280
0
281
0
282
0
283
0
284
8
285
0
286
0
288
1
289
3
290
0
340
4C
371
-2
372
-2
  0
ENDTAB
  0
TABLE
  2
BLOCK_RECORD
  5
9
330
0
100
AcDbSymbolTable
 70
5
  0
BLOCK_RECORD
  5
17
330
9
100
AcDbSymbolTableRecord
100
AcDbBlockTableRecord
  2
*Model_Space
340
1A
 70
0
280
1
281
0
  0
BLOCK_RECORD
  5
1B
330
9
100
AcDbSymbolTableRecord
100
AcDbBlockTableRecord
  2
*Paper_Space
340
1E
 70
0
280
1
281
0
  0
BLOCK_RECORD
  5
74
330
9
100
AcDbSymbolTableRecord
100
AcDbBlockTableRecord
  2
_ARCHTICK
340
0
 70
0
280
1
281
0
  0
BLOCK_RECORD
  5
78
330
9
100
AcDbSymbolTableRecord
100
AcDbBlockTableRecord
  2
_CLOSEDFILLED
340
0
 70
0
280
1
281
0
  0
BLOCK_RECORD
  5
84
330
9
100
AcDbSymbolTableRecord
100
AcDbBlockTableRecord
  2
_CLOSEDBLANK
340
0
 70
0
280
1
281
0
  0
ENDTAB
  0
ENDSEC
  0
SECTION
  2
BLOCKS
  0
BLOCK
  5
18
330
17
100
AcDbEntity
  8
0
100
AcDbBlockBegin
  2
*Model_Space
 70
0
 10
0.0
 20
0.0
 30
0.0
  3
*Model_Space
  1

  0
ENDBLK
  5
19
330
17
100
AcDbEntity
  8
0
100
AcDbBlockEnd
  0
BLOCK
  5
1C
330
1B
100
AcDbEntity
  8
0
100
AcDbBlockBegin
  2
*Paper_Space
 70
0
 10
0.0
 20
0.0
 30
0.0
  3
*Paper_Space
  1

  0
ENDBLK
  5
1D
330
1B
100
AcDbEntity
  8
0
100
AcDbBlockEnd
  0
BLOCK
  5
75
330
74
100
AcDbEntity
  8
0
100
AcDbBlockBegin
  2
_ARCHTICK
 70
0
 10
0.0
 20
0.0
 30
0.0
  3
_ARCHTICK
  1

  0
LWPOLYLINE
  5
77
330
74
100
AcDbEntity
  8
0
  6
BYBLOCK
 62
0
100
AcDbPolyline
 90
2
 70
0
 43
0.15
 10
-0.5
 20
-0.5
 10
0.5
 20
0.5
  0
ENDBLK
  5
76
330
74
100
AcDbEntity
  8
0
100
AcDbBlockEnd
  0
BLOCK
  5
79
330
78
100
AcDbEntity
  8
0
100
AcDbBlockBegin
  2
_CLOSEDFILLED
 70
0
 10
0.0
 20
0.0
 30
0.0
  3
_CLOSEDFILLED
  1

  0
SOLID
  5
7B
330
78
100
AcDbEntity
  8
0
  6
BYBLOCK
 62
0
100
AcDbTrace
 10
-1.0
 20
0.16439898372402537
 30
0.0
 11
0.0
 21
0.0
 31
0.0
 12
-1.0
 22
-0.16439898372402537
 32
0.0
 13
-1.0
 23
-0.16439898372402537
 33
0.0
  0
ENDBLK
  5
7A
330
78
100
AcDbEntity
  8
0
100
AcDbBlockEnd
  0
BLOCK
  5
85
330
84
100
AcDbEntity
  8
0
100
AcDbBlockBegin
  2
_CLOSEDBLANK
 70
0
 10
0.0
 20
0.0
 30
0.0
  3
_CLOSEDBLANK
  1

  0
LWPOLYLINE
  5
87
330
84
100
AcDbEntity
  8
0
  6
BYBLOCK
 62
0
100
AcDbPolyline
 90
3
 70
1
 10
-1.0
 20
0.16439898372402537
 10
0.0
 20
0.0
 10
-1.0
 20
-0.16439898372402537
  0
ENDBLK
  5
86
330
84
100
AcDbEntity
  8
0
100
AcDbBlockEnd
  0
ENDSEC
  0
SECTION
  2
ENTITIES
  0
LWPOLYLINE
  5
8E
330
17
100
AcDbEntity
  8
L-PROG-GATE
100
AcDbPolyline
 90
5
 70
1
 10
426620.0
 20
1577300.0
 10
426620.0
 20
1577760.0
 10
427010.0
 20
1577760.0
 10
427010.0
 20
1577300.0
 10
426620.0
 20
1577300.0
  0
TEXT
  5
8F
330
17
100
AcDbEntity
  8
L-PROG-ANNO
100
AcDbText
 10
426815.0
 20
1577530.0
 30
0.0
 40
10.0
  1
GATOR GATE AND MIDWAY  4.1 AC
 72
1
 11
426815.0
 21
1577530.0
 31
0.0
100
AcDbText
 73
2
  0
LWPOLYLINE
  5
91
330
17
100
AcDbEntity
  8
L-PROG-CASTLE
100
AcDbPolyline
 90
65
 70
1
 10
426917.5666254005
 20
1577895.1784573703
 10
426916.2706752363
 20
1577886.4418710186
 10
426914.1246302159
 20
1577877.8743790472
 10
426911.14915792603
 20
1577869.558491087
 10
426907.37291379133
 20
1577861.5742936856
 10
426902.83226510725
 20
1577853.9986790281
 10
426897.57094080263
 20
1577846.9046044252
 10
426891.63961030677
 20
1577840.3603896932
 10
426885.09539557475
 20
1577834.4290591974
 10
426878.00132097176
 20
1577829.1677348928
 10
426870.42570631433
 20
1577824.6270862087
 10
426862.44150891283
 20
1577820.850842074
 10
426854.1256209529
 20
1577817.8753697842
 10
426845.55812898144
 20
1577815.7293247636
 10
426836.8215426297
 20
1577814.4333745996
 10
426828.0
 20
1577814.0
 10
426819.1784573703
 20
1577814.4333745996
 10
426810.44187101856
 20
1577815.7293247636
 10
426801.8743790471
 20
1577817.8753697842
 10
426793.55849108717
 20
1577820.850842074
 10
426785.57429368567
 20
1577824.6270862087
 10
426777.99867902824
 20
1577829.1677348928
 10
426770.90460442525
 20
1577834.4290591974
 10
426764.36038969323
 20
1577840.3603896932
 10
426758.42905919737
 20
1577846.9046044252
 10
426753.16773489275
 20
1577853.9986790281
 10
426748.62708620867
 20
1577861.5742936856
 10
426744.85084207397
 20
1577869.558491087
 10
426741.8753697841
 20
1577877.8743790472
 10
426739.7293247637
 20
1577886.4418710186
 10
426738.4333745995
 20
1577895.1784573703
 10
426738.0
 20
1577904.0
 10
426738.4333745995
 20
1577912.8215426297
 10
426739.7293247637
 20
1577921.5581289814
 10
426741.8753697841
 20
1577930.1256209528
 10
426744.85084207397
 20
1577938.441508913
 10
426748.62708620867
 20
1577946.4257063144
 10
426753.16773489275
 20
1577954.0013209719
 10
426758.42905919737
 20
1577961.0953955748
 10
426764.36038969323
 20
1577967.6396103068
 10
426770.90460442525
 20
1577973.5709408026
 10
426777.99867902824
 20
1577978.8322651072
 10
426785.57429368567
 20
1577983.3729137913
 10
426793.55849108717
 20
1577987.149157926
 10
426801.8743790471
 20
1577990.1246302158
 10
426810.44187101856
 20
1577992.2706752364
 10
426819.1784573703
 20
1577993.5666254004
 10
426828.0
 20
1577994.0
 10
426836.8215426297
 20
1577993.5666254004
 10
426845.55812898144
 20
1577992.2706752364
 10
426854.1256209529
 20
1577990.1246302158
 10
426862.44150891283
 20
1577987.149157926
 10
426870.42570631433
 20
1577983.3729137913
 10
426878.00132097176
 20
1577978.8322651072
 10
426885.09539557475
 20
1577973.5709408026
 10
426891.63961030677
 20
1577967.6396103068
 10
426897.57094080263
 20
1577961.0953955748
 10
426902.83226510725
 20
1577954.0013209719
 10
426907.37291379133
 20
1577946.4257063144
 10
426911.14915792603
 20
1577938.441508913
 10
426914.1246302159
 20
1577930.1256209528
 10
426916.2706752363
 20
1577921.5581289814
 10
426917.5666254005
 20
1577912.8215426297
 10
426918.0
 20
1577904.0
 10
426917.5666254005
 20
1577895.1784573703
  0
TEXT
  5
92
330
17
100
AcDbEntity
  8
L-PROG-ANNO
100
AcDbText
 10
426828.0
 20
1577908.410771315
 30
0.0
 40
10.0
  1
THE CASTLE (EXISTING HOUSE)  0.6 AC
 72
1
 11
426828.0
 21
1577908.410771315
 31
0.0
100
AcDbText
 73
2
  0
LWPOLYLINE
  5
94
330
17
100
AcDbEntity
  8
L-PROG-ARENA
100
AcDbPolyline
 90
5
 70
1
 10
426190.0
 20
1577170.0
 10
426190.0
 20
1577630.0
 10
426630.0
 20
1577630.0
 10
426630.0
 20
1577170.0
 10
426190.0
 20
1577170.0
  0
TEXT
  5
95
330
17
100
AcDbEntity
  8
L-PROG-ANNO
100
AcDbText
 10
426410.0
 20
1577400.0
 30
0.0
 40
10.0
  1
FREEDOM ARENA  4.6 AC
 72
1
 11
426410.0
 21
1577400.0
 31
0.0
100
AcDbText
 73
2
  0
LWPOLYLINE
  5
97
330
17
100
AcDbEntity
  8
L-PROG-GOLF
100
AcDbPolyline
 90
5
 70
1
 10
426180.0
 20
1577650.0
 10
426180.0
 20
1577980.0
 10
426620.0
 20
1577980.0
 10
426620.0
 20
1577650.0
 10
426180.0
 20
1577650.0
  0
TEXT
  5
98
330
17
100
AcDbEntity
  8
L-PROG-ANNO
100
AcDbText
 10
426400.0
 20
1577815.0
 30
0.0
 40
10.0
  1
GATOR GREENS PITCH AND PUTT  3.3 AC
 72
1
 11
426400.0
 21
1577815.0
 31
0.0
100
AcDbText
 73
2
  0
LWPOLYLINE
  5
9A
330
17
100
AcDbEntity
  8
L-PROG-CABINS
100
AcDbPolyline
 90
65
 70
1
 10
426840.1963201008
 20
1579131.227419496
 10
426834.23508393305
 20
1579107.4288306865
 10
426825.96988312784
 20
1579084.3291419088
 10
426815.4803160871
 20
1579062.1508157935
 10
426802.8674030756
 20
1579041.107441745
 10
426788.2526133407
 20
1579021.4016789591
 10
426771.77669529663
 20
1579003.2233047034
 10
426753.5983210409
 20
1578986.7473866593
 10
426733.8925582549
 20
1578972.1325969244
 10
426712.8491842065
 20
1578959.5196839129
 10
426690.67085809127
 20
1578949.0301168722
 10
426667.5711693136
 20
1578940.764916067
 10
426643.772580504
 20
1578934.803679899
 10
426619.5042850824
 20
1578931.203818332
 10
426595.0
 20
1578930.0
 10
426570.4957149176
 20
1578931.203818332
 10
426546.227419496
 20
1578934.803679899
 10
426522.4288306864
 20
1578940.764916067
 10
426499.32914190873
 20
1578949.0301168722
 10
426477.1508157935
 20
1578959.5196839129
 10
426456.1074417451
 20
1578972.1325969244
 10
426436.4016789591
 20
1578986.7473866593
 10
426418.22330470337
 20
1579003.2233047034
 10
426401.7473866593
 20
1579021.4016789591
 10
426387.1325969244
 20
1579041.107441745
 10
426374.5196839129
 20
1579062.1508157935
 10
426364.03011687216
 20
1579084.3291419088
 10
426355.76491606695
 20
1579107.4288306865
 10
426349.8036798992
 20
1579131.227419496
 10
426346.20381833194
 20
1579155.4957149175
 10
426345.0
 20
1579180.0
 10
426346.20381833194
 20
1579204.5042850825
 10
426349.8036798992
 20
1579228.772580504
 10
426355.76491606695
 20
1579252.5711693135
 10
426364.03011687216
 20
1579275.6708580912
 10
426374.5196839129
 20
1579297.8491842065
 10
426387.1325969244
 20
1579318.892558255
 10
426401.7473866593
 20
1579338.5983210409
 10
426418.22330470337
 20
1579356.7766952966
 10
426436.4016789591
 20
1579373.2526133407
 10
426456.1074417451
 20
1579387.8674030756
 10
426477.1508157935
 20
1579400.4803160871
 10
426499.32914190873
 20
1579410.9698831278
 10
426522.4288306864
 20
1579419.235083933
 10
426546.227419496
 20
1579425.196320101
 10
426570.4957149176
 20
1579428.796181668
 10
426595.0
 20
1579430.0
 10
426619.5042850824
 20
1579428.796181668
 10
426643.772580504
 20
1579425.196320101
 10
426667.5711693136
 20
1579419.235083933
 10
426690.67085809127
 20
1579410.9698831278
 10
426712.8491842065
 20
1579400.4803160871
 10
426733.8925582549
 20
1579387.8674030756
 10
426753.5983210409
 20
1579373.2526133407
 10
426771.77669529663
 20
1579356.7766952966
 10
426788.2526133407
 20
1579338.5983210409
 10
426802.8674030756
 20
1579318.892558255
 10
426815.4803160871
 20
1579297.8491842065
 10
426825.96988312784
 20
1579275.6708580912
 10
426834.23508393305
 20
1579252.5711693135
 10
426840.1963201008
 20
1579228.772580504
 10
426843.79618166806
 20
1579204.5042850825
 10
426845.0
 20
1579180.0
 10
426843.79618166806
 20
1579155.4957149175
 10
426840.1963201008
 20
1579131.227419496
  0
TEXT
  5
9B
330
17
100
AcDbEntity
  8
L-PROG-ANNO
100
AcDbText
 10
426815.68702168507
 20
1579181.1769360485
 30
0.0
 40
10.0
  1
LAKESIDE CABINS (FOUR LANDS)  1.5 AC
 72
1
 11
426815.68702168507
 21
1579181.1769360485
 31
0.0
100
AcDbText
 73
2
  0
LWPOLYLINE
  5
9D
330
17
100
AcDbEntity
  8
L-PROG-LAGOON
100
AcDbPolyline
 90
84
 70
1
 10
426279.7576111471
 20
1579067.4601920014
 10
426282.5985350321
 20
1579062.4407133167
 10
426284.944379118
 20
1579057.1716498032
 10
426286.7734664924
 20
1579051.7016905562
 10
426288.06889536453
 20
1579046.0813810609
 10
426288.8186952465
 20
1579040.3626561223
 10
426289.0159375677
 20
1579034.5983599594
 10
426288.6587996988
 20
1579028.841757895
 10
426287.75058179355
 20
1579023.1460441537
 10
426286.2996762936
 20
1579017.5638503183
 10
426272.8609702071
 20
1578974.4824681408
 10
426271.0900421638
 20
1578969.5687243915
 10
426268.89847775793
 20
1578964.8276159533
 10
426266.3028848252
 20
1578960.2950712934
 10
426263.322932959
 20
1578956.005438367
 10
426125.9816195816
 20
1578775.6006755019
 10
426122.8967591072
 20
1578771.8708609876
 10
425934.38712064835
 20
1578561.8117148138
 10
425930.24734992336
 20
1578557.6306446274
 10
425925.71796783165
 20
1578553.8751489972
 10
425920.8425307352
 20
1578550.5813422818
 10
425915.6679228003
 20
1578547.7808990525
 10
425910.24390514044
 20
1578545.500749499
 10
425904.6226372934
 20
1578543.7628204578
 10
425898.8581756343
 20
1578542.5838245542
 10
425863.8391509841
 20
1578537.1946578957
 10
425857.9046550653
 20
1578536.5814935216
 10
425851.93860267906
 20
1578536.5607261227
 10
425845.9999818631
 20
1578537.1325610324
 10
425840.14750943135
 20
1578538.2913443581
 10
425807.8391446347
 20
1578546.3763303226
 10
425802.06733756437
 20
1578548.133387961
 10
425796.50116919796
 20
1578550.46121487
 10
425791.19692124135
 20
1578553.3362734811
 10
425786.2082270209
 20
1578556.729492952
 10
425781.5855291756
 20
1578560.606563113
 10
425743.8912343362
 20
1578595.5957554264
 10
425739.9535182188
 20
1578599.6104450214
 10
425736.4089580109
 20
1578603.9761561546
 10
425733.2886900554
 20
1578608.6545392782
 10
425725.1922918916
 20
1578622.1209620105
 10
425722.38296815794
 20
1578627.3661928251
 10
425720.1069874875
 20
1578632.8638885356
 10
425718.3867333577
 20
1578638.55998122
 10
425717.2391238686
 20
1578644.3984517902
 10
425716.67544535984
 20
1578650.321880922
 10
425716.7012414133
 20
1578656.2720137525
 10
425717.31625833374
 20
1578662.1903327983
 10
425722.7220585811
 20
1578697.2111035234
 10
425723.9767004606
 20
1578703.2566507233
 10
425725.8459986249
 20
1578709.1412485486
 10
425728.31015784654
 20
1578714.8025811235
 10
425731.34308352316
 20
1578720.1806968746
 10
425734.91265801043
 20
1578725.218643398
 10
425738.9810807371
 20
1578729.863070565
 10
425828.7863957622
 20
1578822.3182651475
 10
425951.090109685
 20
1578971.2025306092
 10
425951.53194779315
 20
1578971.734121561
 10
426049.0170442528
 20
1579087.6569029496
 10
426068.6784315515
 20
1579117.1735535138
 10
426071.91142528784
 20
1579121.5783214995
 10
426075.531718026
 20
1579125.6707181074
 10
426079.5092872518
 20
1579129.4168057411
 10
426083.8111476141
 20
1579132.7855186895
 10
426088.40162446664
 20
1579135.74892075
 10
426093.24264971225
 20
1579138.2824368991
 10
426133.6332545633
 20
1579157.1299905074
 10
426138.81915042264
 20
1579159.2608303672
 10
426144.18130096386
 20
1579160.8983089002
 10
426149.6728856841
 20
1579162.0281281923
 10
426155.24595390476
 20
1579162.6404230397
 10
426160.8518434606
 20
1579162.7298470885
 10
426166.4416056013
 20
1579162.2956195185
 10
426171.96643239586
 20
1579161.341531859
 10
426177.37808290706
 20
1579159.875914884
 10
426182.62930441485
 20
1579157.91156587
 10
426220.34039758
 20
1579141.7583231432
 10
426225.75465668296
 20
1579139.1098254924
 10
426230.8758768203
 20
1579135.9314853994
 10
426235.6523781359
 20
1579132.2553765024
 10
426240.03595944046
 20
1579128.1185955815
 10
426243.98238462524
 20
1579123.562888205
 10
426247.45182906237
 20
1579118.63422746
 10
426279.7576111471
 20
1579067.4601920014
  0
TEXT
  5
9E
330
17
100
AcDbEntity
  8
L-PROG-ANNO
100
AcDbText
 10
426048.0657532201
 20
1578889.1618517572
 30
0.0
 40
10.0
  1
FREEDOM FLOAT LAGOON  4.0 AC
 72
1
 11
426048.0657532201
 21
1578889.1618517572
 31
0.0
100
AcDbText
 73
2
  0
LWPOLYLINE
  5
A0
330
17
100
AcDbEntity
  8
L-PROG-GROVE
100
AcDbPolyline
 90
13
 70
1
 10
426470.0
 20
1578440.0
 10
426060.0
 20
1578440.0
 10
426060.0
 20
1578701.7840493892
 10
426122.8967591072
 20
1578771.8708609876
 10
426125.9816195816
 20
1578775.6006755019
 10
426263.322932959
 20
1578956.005438367
 10
426266.3028848252
 20
1578960.2950712934
 10
426268.89847775793
 20
1578964.8276159533
 10
426271.0900421638
 20
1578969.5687243915
 10
426272.8609702071
 20
1578974.4824681408
 10
426283.94022642984
 20
1579010.0
 10
426470.0
 20
1579010.0
 10
426470.0
 20
1578440.0
  0
TEXT
  5
A1
330
17
100
AcDbEntity
  8
L-PROG-ANNO
100
AcDbText
 10
426280.7241897768
 20
1578736.8274551884
 30
0.0
 40
10.0
  1
BUTTERFLY GROVE AND MUSHROOM GARDEN  4.5 AC
 72
1
 11
426280.7241897768
 21
1578736.8274551884
 31
0.0
100
AcDbText
 73
2
  0
LWPOLYLINE
  5
A3
330
17
100
AcDbEntity
  8
L-PROG-BARN
100
AcDbPolyline
 90
9
 70
1
 10
426370.0
 20
1579140.0
 10
426250.0
 20
1579140.0
 10
426250.0
 20
1579100.0
 10
425850.0
 20
1579100.0
 10
425850.0
 20
1579450.0
 10
426250.0
 20
1579450.0
 10
426250.0
 20
1579340.0
 10
426370.0
 20
1579340.0
 10
426370.0
 20
1579140.0
  0
TEXT
  5
A4
330
17
100
AcDbEntity
  8
L-PROG-ANNO
100
AcDbText
 10
426110.0
 20
1579240.0
 30
0.0
 40
10.0
  1
GOAT BARN PETTING FARM  3.8 AC
 72
1
 11
426110.0
 21
1579240.0
 31
0.0
100
AcDbText
 73
2
  0
LWPOLYLINE
  5
A6
330
17
100
AcDbEntity
  8
L-PROG-LODGE
100
AcDbPolyline
 90
65
 70
1
 10
426985.47031993396
 20
1578700.2181145637
 10
426983.88638084434
 20
1578689.5400645782
 10
426981.26343693055
 20
1578679.068685502
 10
426977.62674857624
 20
1578668.90482244
 10
426973.0113390783
 20
1578659.1463589491
 10
426967.46165735327
 20
1578649.8872743677
 10
426961.0311498699
 20
1578641.216738742
 10
426953.7817459305
 20
1578633.2182540696
 10
426945.783261258
 20
1578625.9688501302
 10
426937.11272563215
 20
1578619.5383426468
 10
426927.85364105087
 20
1578613.9886609216
 10
426918.0951775602
 20
1578609.3732514237
 10
426907.931314498
 20
1578605.7365630695
 10
426897.45993542176
 20
1578603.1136191557
 10
426886.78188543627
 20
1578601.529680066
 10
426876.0
 20
1578601.0
 10
426865.21811456373
 20
1578601.529680066
 10
426854.54006457824
 20
1578603.1136191557
 10
426844.068685502
 20
1578605.7365630695
 10
426833.9048224398
 20
1578609.3732514237
 10
426824.14635894913
 20
1578613.9886609216
 10
426814.88727436785
 20
1578619.5383426468
 10
426806.216738742
 20
1578625.9688501302
 10
426798.2182540695
 20
1578633.2182540696
 10
426790.9688501301
 20
1578641.216738742
 10
426784.53834264673
 20
1578649.8872743677
 10
426778.9886609217
 20
1578659.1463589491
 10
426774.37325142376
 20
1578668.90482244
 10
426770.73656306945
 20
1578679.068685502
 10
426768.11361915566
 20
1578689.5400645782
 10
426766.52968006604
 20
1578700.2181145637
 10
426766.0
 20
1578711.0
 10
426766.52968006604
 20
1578721.7818854363
 10
426768.11361915566
 20
1578732.4599354218
 10
426770.73656306945
 20
1578742.931314498
 10
426774.37325142376
 20
1578753.09517756
 10
426778.9886609217
 20
1578762.8536410509
 10
426784.53834264673
 20
1578772.1127256323
 10
426790.9688501301
 20
1578780.783261258
 10
426798.2182540695
 20
1578788.7817459304
 10
426806.216738742
 20
1578796.0311498698
 10
426814.88727436785
 20
1578802.4616573532
 10
426824.14635894913
 20
1578808.0113390784
 10
426833.9048224398
 20
1578812.6267485763
 10
426844.068685502
 20
1578816.2634369305
 10
426854.54006457824
 20
1578818.8863808443
 10
426865.21811456373
 20
1578820.470319934
 10
426876.0
 20
1578821.0
 10
426886.78188543627
 20
1578820.470319934
 10
426897.45993542176
 20
1578818.8863808443
 10
426907.931314498
 20
1578816.2634369305
 10
426918.0951775602
 20
1578812.6267485763
 10
426927.85364105087
 20
1578808.0113390784
 10
426937.11272563215
 20
1578802.4616573532
 10
426945.783261258
 20
1578796.0311498698
 10
426953.7817459305
 20
1578788.7817459304
 10
426961.0311498699
 20
1578780.783261258
 10
426967.46165735327
 20
1578772.1127256323
 10
426973.0113390783
 20
1578762.8536410509
 10
426977.62674857624
 20
1578753.09517756
 10
426981.26343693055
 20
1578742.931314498
 10
426983.88638084434
 20
1578732.4599354218
 10
426985.47031993396
 20
1578721.7818854363
 10
426986.0
 20
1578711.0
 10
426985.47031993396
 20
1578700.2181145637
  0
TEXT
  5
A7
330
17
100
AcDbEntity
  8
L-PROG-ANNO
100
AcDbText
 10
426876.0
 20
1578716.3909427181
 30
0.0
 40
10.0
  1
SWAMP CAMP LODGE  0.9 AC
 72
1
 11
426876.0
 21
1578716.3909427181
 31
0.0
100
AcDbText
 73
2
  0
LWPOLYLINE
  5
A9
330
17
100
AcDbEntity
  8
L-PROG-RV
100
AcDbPolyline
 90
5
 70
1
 10
427080.0
 20
1578650.0
 10
427080.0
 20
1579550.0
 10
427360.0
 20
1579550.0
 10
427360.0
 20
1578650.0
 10
427080.0
 20
1578650.0
  0
TEXT
  5
AA
330
17
100
AcDbEntity
  8
L-PROG-ANNO
100
AcDbText
 10
427220.0
 20
1579100.0
 30
0.0
 40
10.0
  1
RV AND TENT CAMP  5.8 AC
 72
1
 11
427220.0
 21
1579100.0
 31
0.0
100
AcDbText
 73
2
  0
LWPOLYLINE
  5
AC
330
17
100
AcDbEntity
  8
L-PROG-UFO
100
AcDbPolyline
 90
65
 70
1
 10
425969.42216720065
 20
1578518.2379431603
 10
425967.69423364836
 20
1578506.589161358
 10
425964.8328402879
 20
1578495.1658387294
 10
425960.86554390134
 20
1578484.0779881163
 10
425955.8305517218
 20
1578473.432391581
 10
425949.7763534763
 20
1578463.3315720377
 10
425942.7612544035
 20
1578453.8728059004
 10
425934.8528137424
 20
1578445.1471862576
 10
425926.12719409965
 20
1578437.2387455965
 10
425916.66842796234
 20
1578430.2236465237
 10
425906.5676084191
 20
1578424.1694482781
 10
425895.9220118838
 20
1578419.1344560985
 10
425884.8341612705
 20
1578415.1671597122
 10
425873.4108386419
 20
1578412.3057663515
 10
425861.76205683954
 20
1578410.5778327994
 10
425850.0
 20
1578410.0
 10
425838.23794316046
 20
1578410.5778327994
 10
425826.5891613581
 20
1578412.3057663515
 10
425815.1658387295
 20
1578415.1671597122
 10
425804.0779881162
 20
1578419.1344560985
 10
425793.4323915809
 20
1578424.1694482781
 10
425783.33157203766
 20
1578430.2236465237
 10
425773.87280590035
 20
1578437.2387455965
 10
425765.1471862576
 20
1578445.1471862576
 10
425757.2387455965
 20
1578453.8728059004
 10
425750.2236465237
 20
1578463.3315720377
 10
425744.1694482782
 20
1578473.432391581
 10
425739.13445609866
 20
1578484.0779881163
 10
425735.1671597121
 20
1578495.1658387294
 10
425732.30576635164
 20
1578506.589161358
 10
425730.57783279935
 20
1578518.2379431603
 10
425730.0
 20
1578530.0
 10
425730.57783279935
 20
1578541.7620568397
 10
425732.30576635164
 20
1578553.410838642
 10
425735.1671597121
 20
1578564.8341612706
 10
425739.13445609866
 20
1578575.9220118837
 10
425744.1694482782
 20
1578586.567608419
 10
425750.2236465237
 20
1578596.6684279623
 10
425757.2387455965
 20
1578606.1271940996
 10
425765.1471862576
 20
1578614.8528137424
 10
425773.87280590035
 20
1578622.7612544035
 10
425783.33157203766
 20
1578629.7763534763
 10
425793.4323915809
 20
1578635.8305517219
 10
425804.0779881162
 20
1578640.8655439015
 10
425815.1658387295
 20
1578644.8328402878
 10
425826.5891613581
 20
1578647.6942336485
 10
425838.23794316046
 20
1578649.4221672006
 10
425850.0
 20
1578650.0
 10
425861.76205683954
 20
1578649.4221672006
 10
425873.4108386419
 20
1578647.6942336485
 10
425884.8341612705
 20
1578644.8328402878
 10
425895.9220118838
 20
1578640.8655439015
 10
425906.5676084191
 20
1578635.8305517219
 10
425916.66842796234
 20
1578629.7763534763
 10
425926.12719409965
 20
1578622.7612544035
 10
425934.8528137424
 20
1578614.8528137424
 10
425942.7612544035
 20
1578606.1271940996
 10
425949.7763534763
 20
1578596.6684279623
 10
425955.8305517218
 20
1578586.567608419
 10
425960.86554390134
 20
1578575.9220118837
 10
425964.8328402879
 20
1578564.8341612706
 10
425967.69423364836
 20
1578553.410838642
 10
425969.42216720065
 20
1578541.7620568397
 10
425970.0
 20
1578530.0
 10
425969.42216720065
 20
1578518.2379431603
  0
TEXT
  5
AD
330
17
100
AcDbEntity
  8
L-PROG-ANNO
100
AcDbText
 10
425850.0
 20
1578535.8810284198
 30
0.0
 40
10.0
  1
LANDING SITE OBSERVATION TOWER  1.0 AC
 72
1
 11
425850.0
 21
1578535.8810284198
 31
0.0
100
AcDbText
 73
2
  0
LWPOLYLINE
  5
AF
330
17
100
AcDbEntity
  8
L-PROG-BARNS
100
AcDbPolyline
 90
5
 70
1
 10
426600.0
 20
1579560.0
 10
426600.0
 20
1579760.0
 10
426990.0
 20
1579760.0
 10
426990.0
 20
1579560.0
 10
426600.0
 20
1579560.0
  0
TEXT
  5
B0
330
17
100
AcDbEntity
  8
L-PROG-ANNO
100
AcDbText
 10
426795.0
 20
1579660.0
 30
0.0
 40
10.0
  1
EVENT BARNS (OWNERSHIP TO CONFIRM)  1.8 AC
 72
1
 11
426795.0
 21
1579660.0
 31
0.0
100
AcDbText
 73
2
  0
LWPOLYLINE
  5
B1
330
17
100
AcDbEntity
  8
C-TRAIL-LOOP
100
AcDbPolyline
 90
11
 70
0
 10
427096.9058202195
 20
1578364.7254679718
 10
427093.132045569
 20
1578264.6062557667
 10
427089.72743282485
 20
1578108.2687184007
 10
427085.09830497135
 20
1578084.9518151348
 10
427076.4520545268
 20
1578070.9313339186
 10
427063.7399493656
 20
1578058.0624131667
 10
427045.7839681452
 20
1578047.7702356759
 10
426995.81137749675
 20
1578035.4879377212
 10
426839.4557406738
 20
1578010.7159110606
 10
426792.4825337836
 20
1578001.288534284
 10
426785.9623805664
 20
1577994.236942979
  0
LWPOLYLINE
  5
B2
330
17
100
AcDbEntity
  8
C-TRAIL-LOOP
100
AcDbPolyline
 90
3
 70
0
 10
426785.9623805664
 20
1577994.236942979
 10
426783.60062093334
 20
1577980.0697910436
 10
426782.2850590025
 20
1577921.0616463935
  0
LWPOLYLINE
  5
B3
330
17
100
AcDbEntity
  8
C-TRAIL-LOOP
100
AcDbPolyline
 90
5
 70
0
 10
426594.78933869535
 20
1578377.5869578938
 10
426777.83140241937
 20
1578371.3628227862
 10
426930.50850105536
 20
1578365.794058313
 10
427066.76746609434
 20
1578365.7421214227
 10
427096.9058202195
 20
1578364.7254679718
  0
LWPOLYLINE
  5
B4
330
17
100
AcDbEntity
  8
C-TRAIL-LOOP
100
AcDbPolyline
 90
8
 70
0
 10
426785.9623805664
 20
1577994.236942979
 10
426747.158094158
 20
1578015.4868370087
 10
426732.06309992
 20
1578022.413397289
 10
426713.0728859987
 20
1578026.8543061006
 10
426681.2879526015
 20
1578020.7177478832
 10
426627.92176485155
 20
1577993.3659054684
 10
426540.20858689194
 20
1577949.7843319164
 10
426316.9843268272
 20
1577838.83680723
  0
LWPOLYLINE
  5
B5
330
17
100
AcDbEntity
  8
C-TRAIL-LOOP
100
AcDbPolyline
 90
8
 70
0
 10
425977.1646717784
 20
1579446.9662657902
 10
426002.3688016378
 20
1579452.123632842
 10
426067.48435859015
 20
1579455.150272783
 10
426348.3498508822
 20
1579452.626876899
 10
426379.23361933674
 20
1579458.404918349
 10
426478.759530448
 20
1579488.461126028
 10
426507.0408471241
 20
1579493.4185493842
 10
426558.0193228888
 20
1579497.2580765004
  0
LWPOLYLINE
  5
B6
330
17
100
AcDbEntity
  8
C-TRAIL-LOOP
100
AcDbPolyline
 90
6
 70
0
 10
426558.0193228888
 20
1579497.2580765004
 10
426579.8674866177
 20
1579498.9451643
 10
426633.010312224
 20
1579505.4262618267
 10
426676.76655948424
 20
1579518.7998176285
 10
426728.12059059896
 20
1579526.4553636035
 10
426774.2563079035
 20
1579530.2151134582
  0
LWPOLYLINE
  5
B7
330
17
100
AcDbEntity
  8
C-TRAIL-LOOP
100
AcDbPolyline
 90
35
 70
0
 10
426927.49981409905
 20
1578982.6987471478
 10
426891.73320031224
 20
1578986.258251335
 10
426858.40160862316
 20
1579000.1664664894
 10
426842.599558033
 20
1579006.7699695032
 10
426837.3588201388
 20
1578993.7836493473
 10
426821.7372154693
 20
1578971.6234831344
 10
426802.0102826952
 20
1578960.0693527968
 10
426748.14500100724
 20
1578940.1746349116
 10
426683.94996494055
 20
1578919.6510210047
 10
426653.6118270104
 20
1578914.014903391
 10
426605.7120886884
 20
1578915.6838436995
 10
426545.8858167992
 20
1578933.860143469
 10
426477.4890054188
 20
1578961.3239862807
 10
426435.2747940391
 20
1578985.9400265713
 10
426410.5988154648
 20
1579010.050877435
 10
426389.7986172645
 20
1579044.101763576
 10
426374.88612211694
 20
1579086.698834816
 10
426362.743844516
 20
1579131.3519386011
 10
426359.5595482192
 20
1579172.4968544475
 10
426369.6023012685
 20
1579237.525157024
 10
426388.95089297555
 20
1579303.588480095
 10
426402.8471367612
 20
1579326.7769759065
 10
426428.46555259934
 20
1579347.5315801257
 10
426465.0738270575
 20
1579361.3841422084
 10
426507.8641596946
 20
1579374.0724210439
 10
426568.2596669434
 20
1579381.418985095
 10
426616.4932045033
 20
1579387.3840709715
 10
426687.03242915584
 20
1579385.7612302215
 10
426735.68941009825
 20
1579382.124272221
 10
426768.3208624272
 20
1579363.8202916102
 10
426790.8335495763
 20
1579337.2499903287
 10
426803.4454416172
 20
1579295.97591281
 10
426814.31474543555
 20
1579242.1672774686
 10
426825.611426695
 20
1579163.3388073903
 10
426846.62295546004
 20
1579030.6722785113
  0
LWPOLYLINE
  5
B8
330
17
100
AcDbEntity
  8
C-TRAIL-LOOP
100
AcDbPolyline
 90
14
 70
0
 10
426945.2263283036
 20
1578852.9609483492
 10
426881.2409236814
 20
1578829.9631106767
 10
426853.78818420635
 20
1578840.272612258
 10
426827.3676329861
 20
1578835.521950545
 10
426754.1426389904
 20
1578817.2340465551
 10
426738.9782776677
 20
1578807.1798259185
 10
426728.7343658602
 20
1578794.114414115
 10
426728.2552117529
 20
1578778.372400203
 10
426734.97259146423
 20
1578764.8417249986
 10
426748.85422632616
 20
1578753.4862235123
 10
426767.29131534725
 20
1578747.7759547182
 10
426797.0973226683
 20
1578750.2154687617
 10
426870.36749787885
 20
1578776.0301864194
 10
426879.90757463954
 20
1578794.7360091903
  0
LWPOLYLINE
  5
B9
330
17
100
AcDbEntity
  8
C-TRAIL-LOOP
100
AcDbPolyline
 90
8
 70
0
 10
427108.4095295156
 20
1578491.888358572
 10
427108.78221118
 20
1578538.1026227872
 10
427098.23714262096
 20
1578640.8528724753
 10
427080.54047332937
 20
1578706.0109279505
 10
427040.6222420461
 20
1578787.5195640535
 10
427008.1238669363
 20
1578822.8036968228
 10
426972.9181267063
 20
1578829.0142129562
 10
426945.2263283036
 20
1578852.9609483492
  0
LWPOLYLINE
  5
BA
330
17
100
AcDbEntity
  8
C-TRAIL-LOOP
100
AcDbPolyline
 90
3
 70
0
 10
426945.2263283036
 20
1578852.9609483492
 10
426932.8378358847
 20
1578920.887205746
 10
426927.49981409905
 20
1578982.6987471478
  0
LWPOLYLINE
  5
BB
330
17
100
AcDbEntity
  8
C-TRAIL-LOOP
100
AcDbPolyline
 90
5
 70
0
 10
426927.49981409905
 20
1578982.6987471478
 10
426920.1504995228
 20
1579067.430596634
 10
426922.404420947
 20
1579154.6503105515
 10
426912.5600548478
 20
1579358.229186098
 10
426886.98103289335
 20
1579477.8689737364
  0
LWPOLYLINE
  5
BC
330
17
100
AcDbEntity
  8
C-TRAIL-LOOP
100
AcDbPolyline
 90
4
 70
0
 10
426886.98103289335
 20
1579477.8689737364
 10
426835.0801276376
 20
1579491.3430033224
 10
426784.38558215863
 20
1579502.773585657
 10
426774.2563079035
 20
1579530.2151134582
  0
LWPOLYLINE
  5
BD
330
17
100
AcDbEntity
  8
C-TRAIL-LOOP
100
AcDbPolyline
 90
3
 70
0
 10
426774.2563079035
 20
1579530.2151134582
 10
426746.57519778016
 20
1579652.1584403873
 10
426755.3531301303
 20
1579677.4867469193
  0
LWPOLYLINE
  5
BE
330
17
100
AcDbEntity
  8
C-TRAIL-LOOP
100
AcDbPolyline
 90
17
 70
0
 10
426558.0193228888
 20
1579497.2580765004
 10
426539.06463997683
 20
1579609.0768644447
 10
426548.8832587494
 20
1579620.7630078678
 10
426574.7042773301
 20
1579637.9166185702
 10
426590.9306673902
 20
1579659.3458131726
 10
426600.43993254163
 20
1579672.9246660229
 10
426612.48375312355
 20
1579681.3612335788
 10
426686.2472965268
 20
1579698.809269929
 10
426713.0178643917
 20
1579735.3020423632
 10
426728.4454084451
 20
1579741.173001198
 10
426819.36286541563
 20
1579763.6455749832
 10
426881.0719677712
 20
1579770.9120217622
 10
426892.92710944306
 20
1579747.8600258136
 10
426908.7604647445
 20
1579682.2766454008
 10
426937.2360415916
 20
1579564.401270816
 10
426934.5163042787
 20
1579543.9819274622
 10
426886.98103289335
 20
1579477.8689737364
  0
LWPOLYLINE
  5
BF
330
17
100
AcDbEntity
  8
C-TRAIL-LOOP
100
AcDbPolyline
 90
11
 70
0
 10
426978.5211332739
 20
1580477.3213831903
 10
426978.73959725903
 20
1580449.5392470267
 10
426991.6584008889
 20
1580427.4263237976
 10
427025.43145675864
 20
1580407.1157712454
 10
427074.837163804
 20
1580384.1299645642
 10
427089.6797715437
 20
1580361.9692014677
 10
427100.58434681676
 20
1580330.1232659277
 10
427099.48428751464
 20
1580258.8233096297
 10
427100.7845207429
 20
1580149.2194555413
 10
427097.17728373356
 20
1580087.6432495338
 10
427079.21599804744
 20
1580028.0801447562
  0
LWPOLYLINE
  5
C0
330
17
100
AcDbEntity
  8
C-TRAIL-LOOP
100
AcDbPolyline
 90
12
 70
0
 10
426978.5211332739
 20
1580477.3213831903
 10
426972.81509656913
 20
1580504.4091287148
 10
426971.92061723815
 20
1580553.176384519
 10
426974.3157355633
 20
1580626.5048888337
 10
426974.3676766879
 20
1580699.447439148
 10
426974.4431350901
 20
1580776.316984122
 10
426978.5723861917
 20
1580812.5818810966
 10
426996.90774615906
 20
1580859.6704280502
 10
427022.64078114455
 20
1580905.1511167372
 10
427057.8340897774
 20
1580966.8291652217
 10
427079.3277912879
 20
1580984.445345691
 10
427109.1683679286
 20
1580997.0
  0
LWPOLYLINE
  5
C1
330
17
100
AcDbEntity
  8
C-TRAIL-LOOP
100
AcDbPolyline
 90
7
 70
0
 10
425120.0
 20
1579815.9630286521
 10
425362.03048989305
 20
1579812.0026636503
 10
425685.3254715892
 20
1579794.6372437156
 10
425731.6439956665
 20
1579775.522706181
 10
425759.03340539796
 20
1579754.8494792925
 10
425797.01419271494
 20
1579703.7136051673
 10
425977.1646717784
 20
1579446.9662657902
  0
LWPOLYLINE
  5
C2
330
17
100
AcDbEntity
  8
C-TRAIL-LOOP
100
AcDbPolyline
 90
2
 70
0
 10
428666.0
 20
1579170.5856576308
 10
428616.8914103346
 20
1579174.3222892329
  0
LWPOLYLINE
  5
C3
330
17
100
AcDbEntity
  8
C-TRAIL-LOOP
100
AcDbPolyline
 90
5
 70
0
 10
427811.2790828292
 20
1579802.659774713
 10
428183.43379468116
 20
1579799.5326181992
 10
428260.3991245158
 20
1579800.1652135858
 10
428467.24463648815
 20
1579796.679900667
 10
428666.0
 20
1579793.3603583497
  0
LWPOLYLINE
  5
C4
330
17
100
AcDbEntity
  8
C-TRAIL-LOOP
100
AcDbPolyline
 90
5
 70
0
 10
427831.0198217217
 20
1580526.2975449827
 10
428050.22011199204
 20
1580524.9906451392
 10
428143.253620352
 20
1580520.9455650295
 10
428166.8426114853
 20
1580524.295838653
 10
428180.77421580727
 20
1580532.139845532
  0
LWPOLYLINE
  5
C5
330
17
100
AcDbEntity
  8
C-TRAIL-LOOP
100
AcDbPolyline
 90
7
 70
0
 10
427648.8442581635
 20
1580997.0
 10
427672.3510441853
 20
1580885.7768762833
 10
427686.4930613195
 20
1580837.548736211
 10
427697.7263937793
 20
1580823.1185666902
 10
427771.015766418
 20
1580815.2996442898
 10
427806.5812546895
 20
1580821.3054079537
 10
427836.79851000506
 20
1580823.0887144527
  0
LWPOLYLINE
  5
C6
330
17
100
AcDbEntity
  8
C-TRAIL-LOOP
100
AcDbPolyline
 90
2
 70
0
 10
427838.51550743124
 20
1580997.0
 10
427836.79851000506
 20
1580823.0887144527
  0
LWPOLYLINE
  5
C7
330
17
100
AcDbEntity
  8
C-TRAIL-LOOP
100
AcDbPolyline
 90
3
 70
0
 10
427836.79851000506
 20
1580823.0887144527
 10
427835.1872530922
 20
1580660.4860146663
 10
427831.0198217217
 20
1580526.2975449827
  0
LWPOLYLINE
  5
C8
330
17
100
AcDbEntity
  8
C-TRAIL-LOOP
100
AcDbPolyline
 90
2
 70
0
 10
427831.0198217217
 20
1580526.2975449827
 10
427829.2343950696
 20
1580468.8920916743
  0
LWPOLYLINE
  5
C9
330
17
100
AcDbEntity
  8
C-TRAIL-LOOP
100
AcDbPolyline
 90
2
 70
0
 10
427829.2343950696
 20
1580468.8920916743
 10
427819.3301079004
 20
1580152.4535602084
  0
LWPOLYLINE
  5
CA
330
17
100
AcDbEntity
  8
C-TRAIL-LOOP
100
AcDbPolyline
 90
3
 70
0
 10
427819.3301079004
 20
1580152.4535602084
 10
427818.53783087735
 20
1580127.15011494
 10
427811.2790828292
 20
1579802.659774713
  0
LWPOLYLINE
  5
CB
330
17
100
AcDbEntity
  8
C-TRAIL-LOOP
100
AcDbPolyline
 90
3
 70
0
 10
426465.5374719554
 20
1580486.1414212352
 10
426542.49717789213
 20
1580486.0433153156
 10
426978.5211332739
 20
1580477.3213831903
  0
LWPOLYLINE
  5
CC
330
17
100
AcDbEntity
  8
C-TRAIL-LOOP
100
AcDbPolyline
 90
7
 70
0
 10
426978.5211332739
 20
1580477.3213831903
 10
427114.820828419
 20
1580474.614727363
 10
427355.3982900178
 20
1580476.7030951085
 10
427436.46736793796
 20
1580477.4185571375
 10
427572.67324423464
 20
1580475.1140781853
 10
427637.1851592801
 20
1580474.03800236
 10
427829.2343950696
 20
1580468.8920916743
  0
LWPOLYLINE
  5
CD
330
17
100
AcDbEntity
  8
C-TRAIL-LOOP
100
AcDbPolyline
 90
10
 70
0
 10
427632.22121984063
 20
1579798.310291281
 10
427578.18065199524
 20
1579856.1944813817
 10
427537.78100394335
 20
1579889.2709076968
 10
427504.4339946772
 20
1579905.8694837026
 10
427486.1776012568
 20
1579909.5420426277
 10
427466.5027510476
 20
1579901.2235186608
 10
427455.2112322242
 20
1579879.1099615002
 10
427454.1517580639
 20
1579852.0627252085
 10
427468.2858664492
 20
1579829.3245605105
 10
427501.05449587555
 20
1579801.7843519228
  0
LWPOLYLINE
  5
CE
330
17
100
AcDbEntity
  8
C-TRAIL-LOOP
100
AcDbPolyline
 90
5
 70
0
 10
427228.4602519024
 20
1579744.5065946146
 10
427296.18958847475
 20
1579755.7375627973
 10
427344.3693529831
 20
1579768.9036122672
 10
427430.79260195437
 20
1579796.0225045565
 10
427501.05449587555
 20
1579801.7843519228
  0
LWPOLYLINE
  5
CF
330
17
100
AcDbEntity
  8
C-TRAIL-LOOP
100
AcDbPolyline
 90
2
 70
0
 10
427501.05449587555
 20
1579801.7843519228
 10
427632.22121984063
 20
1579798.310291281
  0
LWPOLYLINE
  5
D0
330
17
100
AcDbEntity
  8
C-TRAIL-LOOP
100
AcDbPolyline
 90
3
 70
0
 10
427632.22121984063
 20
1579798.310291281
 10
427642.1283709236
 20
1579798.0329760776
 10
427811.2790828292
 20
1579802.659774713
  0
LWPOLYLINE
  5
D1
330
17
100
AcDbEntity
  8
C-TRAIL-LOOP
100
AcDbPolyline
 90
7
 70
0
 10
427156.9830847842
 20
1579353.3482580422
 10
427157.38438133016
 20
1579420.4343380728
 10
427171.79006366775
 20
1579459.1831266813
 10
427287.76355390553
 20
1579462.0167537143
 10
427559.8586267795
 20
1579456.86386811
 10
427772.7138435061
 20
1579439.1213032568
 10
427801.50239460706
 20
1579437.7496120196
  0
LWPOLYLINE
  5
D2
330
17
100
AcDbEntity
  8
C-TRAIL-LOOP
100
AcDbPolyline
 90
5
 70
0
 10
427819.3301079004
 20
1580152.4535602084
 10
427765.5517005853
 20
1580152.1198667062
 10
427600.2473890296
 20
1580146.961270677
 10
427553.1315777798
 20
1580150.7697620804
 10
427241.4215708912
 20
1580153.068909301
  0
LWPOLYLINE
  5
D3
330
17
100
AcDbEntity
  8
C-TRAIL-LOOP
100
AcDbPolyline
 90
13
 70
0
 10
427797.14390165824
 20
1578830.7070036365
 10
427756.66283334175
 20
1578807.3493527628
 10
427682.529475519
 20
1578803.3554862665
 10
427617.33010731736
 20
1578807.9262964088
 10
427582.77509951295
 20
1578810.3506851457
 10
427492.85330841073
 20
1578809.905869324
 10
427462.26166463
 20
1578815.506578197
 10
427416.9371869485
 20
1578834.9402837935
 10
427395.7002285537
 20
1578838.9943022402
 10
427336.9272848833
 20
1578840.3273105072
 10
427299.9692348861
 20
1578853.820459919
 10
427276.9377237518
 20
1578884.9024681353
 10
427263.37870995863
 20
1578934.1453745533
  0
LWPOLYLINE
  5
D4
330
17
100
AcDbEntity
  8
C-TRAIL-LOOP
100
AcDbPolyline
 90
3
 70
0
 10
427811.2790828292
 20
1579802.659774713
 10
427812.59187114204
 20
1579667.9295886897
 10
427801.50239460706
 20
1579437.7496120196
  0
LWPOLYLINE
  5
D5
330
17
100
AcDbEntity
  8
C-TRAIL-LOOP
100
AcDbPolyline
 90
2
 70
0
 10
427801.50239460706
 20
1579437.7496120196
 10
427799.02549660444
 20
1579092.3952384281
  0
LWPOLYLINE
  5
D6
330
17
100
AcDbEntity
  8
C-TRAIL-LOOP
100
AcDbPolyline
 90
2
 70
0
 10
427799.02549660444
 20
1579092.3952384281
 10
427797.14390165824
 20
1578830.7070036365
  0
LWPOLYLINE
  5
D7
330
17
100
AcDbEntity
  8
C-TRAIL-LOOP
100
AcDbPolyline
 90
7
 70
0
 10
427797.14390165824
 20
1578830.7070036365
 10
427796.3795175653
 20
1578724.0609511281
 10
427801.0027627186
 20
1578638.9456080978
 10
427798.5799184825
 20
1578555.3267865411
 10
427794.2593633129
 20
1578529.898952497
 10
427788.71467050764
 20
1578514.2962393584
 10
427777.67949522275
 20
1578492.181064905
  0
LWPOLYLINE
  5
D8
330
17
100
AcDbEntity
  8
C-TRAIL-LOOP
100
AcDbPolyline
 90
6
 70
0
 10
427777.67949522275
 20
1578492.181064905
 10
427768.0159295475
 20
1578484.9662509838
 10
427751.9540851635
 20
1578480.3349693036
 10
427724.04252238467
 20
1578478.3197529605
 10
427328.6635949405
 20
1578482.4988955678
 10
427108.4095295156
 20
1578491.888358572
  0
LWPOLYLINE
  5
D9
330
17
100
AcDbEntity
  8
C-TRAIL-LOOP
100
AcDbPolyline
 90
7
 70
0
 10
427777.67949522275
 20
1578492.181064905
 10
427827.5549635236
 20
1578493.7017046686
 10
427963.69377743435
 20
1578484.344918309
 10
428009.9549556746
 20
1578482.0692975433
 10
428045.03591444023
 20
1578487.13279998
 10
428082.11607139866
 20
1578499.4205194546
 10
428082.87569250393
 20
1578513.888183436
  0
LWPOLYLINE
  5
DA
330
17
100
AcDbEntity
  8
C-TRAIL-LOOP
100
AcDbPolyline
 90
8
 70
0
 10
427799.02549660444
 20
1579092.3952384281
 10
427826.93695509876
 20
1579078.338362657
 10
427883.32260907575
 20
1579047.7850446894
 10
427966.0382361134
 20
1579001.4390785825
 10
428038.79642155854
 20
1578963.0796069405
 10
428054.4132228054
 20
1578946.878062251
 10
428059.8256056433
 20
1578934.9189837046
 10
428061.4952611811
 20
1578924.5094208273
  0
MTEXT
  5
DB
330
17
100
AcDbEntity
  8
G-ANNO-NOTE
100
AcDbMText
 10
425160.0
 20
1580957.0
 30
0.0
 40
8.0
 41
900.0
 71
1
  1
FLORIDA FREEDOM WORLD - MASTER PLAN PROGRAMME (2026-09-28)\PPROGRAMME AREAS MAPPED ONTO THE LIDAR BASE; CONCEPT GRADE; NO PARCEL LINES; ZONING, ACCESS AND UTILITIES UNVERIFIED\PEPSG:2236 ftUS. XREF THE SITE BASE DXF UNDERNEATH.
  0
ENDSEC
  0
SECTION
  2
OBJECTS
  0
DICTIONARY
  5
A
330
0
100
AcDbDictionary
281
1
  3
ACAD_COLOR
350
B
  3
ACAD_GROUP
350
C
  3
ACAD_LAYOUT
350
D
  3
ACAD_MATERIAL
350
E
  3
ACAD_MLEADERSTYLE
350
F
  3
ACAD_MLINESTYLE
350
10
  3
ACAD_PLOTSETTINGS
350
11
  3
ACAD_PLOTSTYLENAME
350
12
  3
ACAD_SCALELIST
350
14
  3
ACAD_TABLESTYLE
350
15
  3
ACAD_VISUALSTYLE
350
16
  3
EZDXF_META
350
2D
  0
DICTIONARY
  5
B
330
A
100
AcDbDictionary
281
1
  0
DICTIONARY
  5
C
330
A
100
AcDbDictionary
281
1
  0
DICTIONARY
  5
D
330
A
100
AcDbDictionary
281
1
  3
Model
350
1A
  3
Layout1
350
1E
  0
DICTIONARY
  5
E
330
A
100
AcDbDictionary
281
1
  3
ByBlock
350
1F
  3
ByLayer
350
20
  3
Global
350
21
  0
DICTIONARY
  5
F
330
A
100
AcDbDictionary
281
1
  3
Standard
350
2C
  0
DICTIONARY
  5
10
330
A
100
AcDbDictionary
281
1
  3
Standard
350
22
  0
DICTIONARY
  5
11
330
A
100
AcDbDictionary
281
1
  0
ACDBDICTIONARYWDFLT
  5
12
330
A
100
AcDbDictionary
281
1
  3
Normal
350
13
100
AcDbDictionaryWithDefault
340
13
  0
ACDBPLACEHOLDER
  5
13
330
12
  0
DICTIONARY
  5
14
330
A
100
AcDbDictionary
281
1
  0
DICTIONARY
  5
15
330
A
100
AcDbDictionary
281
1
  0
DICTIONARY
  5
16
330
A
100
AcDbDictionary
281
1
  3
2dWireframe
350
5A
  3
Basic
350
5B
  3
Brighten
350
5C
  3
ColorChange
350
5D
  3
Conceptual
350
5E
  3
Dim
350
5F
  3
EdgeColorOff
350
60
  3
Facepattern
350
61
  3
Flat
350
62
  3
FlatWithEdges
350
63
  3
Gouraud
350
64
  3
GouraudWithEdges
350
65
  3
Hidden
350
66
  3
JitterOff
350
67
  3
Linepattern
350
68
  3
Modeling
350
69
  3
OverhangOff
350
6A
  3
Realistic
350
6B
  3
Shaded
350
6C
  3
Shaded with edges
350
6D
  3
Shades of Gray
350
6E
  3
Sketchy
350
6F
  3
Thicken
350
70
  3
Wireframe
350
71
  3
X-Ray
350
72
  0
LAYOUT
  5
1A
330
D
100
AcDbPlotSettings
  1

  4
A3
  6

 40
7.5
 41
20.0
 42
7.5
 43
20.0
 44
420.0
 45
297.0
 46
0.0
 47
0.0
 48
0.0
 49
0.0
140
0.0
141
0.0
142
1.0
143
1.0
 70
1024
 72
1
 73
0
 74
5
  7

 75
16
 76
0
 77
2
 78
300
147
1.0
148
0.0
149
0.0
100
AcDbLayout
  1
Model
 70
1
 71
0
 10
0.0
 20
0.0
 11
420.0
 21
297.0
 12
0.0
 22
0.0
 32
0.0
 14
1e+20
 24
1e+20
 34
1e+20
 15
-1e+20
 25
-1e+20
 35
-1e+20
146
0.0
 13
0.0
 23
0.0
 33
0.0
 16
1.0
 26
0.0
 36
0.0
 17
0.0
 27
1.0
 37
0.0
 76
1
330
17
  0
LAYOUT
  5
1E
330
D
100
AcDbPlotSettings
  1

  4
A3
  6

 40
7.5
 41
20.0
 42
7.5
 43
20.0
 44
420.0
 45
297.0
 46
0.0
 47
0.0
 48
0.0
 49
0.0
140
0.0
141
0.0
142
1.0
143
1.0
 70
0
 72
1
 73
0
 74
5
  7

 75
16
 76
0
 77
2
 78
300
147
1.0
148
0.0
149
0.0
100
AcDbLayout
  1
Layout1
 70
1
 71
1
 10
0.0
 20
0.0
 11
420.0
 21
297.0
 12
0.0
 22
0.0
 32
0.0
 14
1e+20
 24
1e+20
 34
1e+20
 15
-1e+20
 25
-1e+20
 35
-1e+20
146
0.0
 13
0.0
 23
0.0
 33
0.0
 16
1.0
 26
0.0
 36
0.0
 17
0.0
 27
1.0
 37
0.0
 76
1
330
1B
  0
MATERIAL
  5
1F
102
{ACAD_REACTORS
330
E
102
}
330
E
100
AcDbMaterial
  1
ByBlock
  2

 70
0
 40
1.0
 71
1
 41
1.0
 91
-1023410177
 42
1.0
 72
1
  3

 73
1
 74
1
 75
1
 44
0.5
 73
0
 45
1.0
 46
1.0
 77
1
  4

 78
1
 79
1
170
1
 48
1.0
171
1
  6

172
1
173
1
174
1
140
1.0
141
1.0
175
1
  7

176
1
177
1
178
1
143
1.0
179
1
  8

270
1
271
1
272
1
145
1.0
146
1.0
273
1
  9

274
1
275
1
276
1
 42
1.0
 72
1
  3

 73
1
 74
1
 75
1
 94
63
  0
MATERIAL
  5
20
102
{ACAD_REACTORS
330
E
102
}
330
E
100
AcDbMaterial
  1
ByLayer
  2

 70
0
 40
1.0
 71
1
 41
1.0
 91
-1023410177
 42
1.0
 72
1
  3

 73
1
 74
1
 75
1
 44
0.5
 73
0
 45
1.0
 46
1.0
 77
1
  4

 78
1
 79
1
170
1
 48
1.0
171
1
  6

172
1
173
1
174
1
140
1.0
141
1.0
175
1
  7

176
1
177
1
178
1
143
1.0
179
1
  8

270
1
271
1
272
1
145
1.0
146
1.0
273
1
  9

274
1
275
1
276
1
 42
1.0
 72
1
  3

 73
1
 74
1
 75
1
 94
63
  0
MATERIAL
  5
21
102
{ACAD_REACTORS
330
E
102
}
330
E
100
AcDbMaterial
  1
Global
  2

 70
0
 40
1.0
 71
1
 41
1.0
 91
-1023410177
 42
1.0
 72
1
  3

 73
1
 74
1
 75
1
 44
0.5
 73
0
 45
1.0
 46
1.0
 77
1
  4

 78
1
 79
1
170
1
 48
1.0
171
1
  6

172
1
173
1
174
1
140
1.0
141
1.0
175
1
  7

176
1
177
1
178
1
143
1.0
179
1
  8

270
1
271
1
272
1
145
1.0
146
1.0
273
1
  9

274
1
275
1
276
1
 42
1.0
 72
1
  3

 73
1
 74
1
 75
1
 94
63
  0
MLINESTYLE
  5
22
102
{ACAD_REACTORS
330
10
102
}
330
10
100
AcDbMlineStyle
  2
Standard
 70
0
  3

 62
256
 51
90.0
 52
90.0
 71
2
 49
0.5
 62
256
  6
BYLAYER
 49
-0.5
 62
256
  6
BYLAYER
  0
MLEADERSTYLE
  5
2C
102
{ACAD_REACTORS
330
F
102
}
330
F
100
AcDbMLeaderStyle
179
2
170
2
171
1
172
0
 90
2
 40
0.0
 41
0.0
173
1
 91
-1056964608
 92
-2
290
1
 42
2.0
291
1
 43
8.0
  3
Standard
 44
4.0
300

342
29
174
1
175
1
176
0
178
1
 93
-1056964608
 45
4.0
292
0
297
0
 46
4.0
 94
-1056964608
 47
1.0
 49
1.0
140
1.0
294
1
141
0.0
177
0
142
1.0
295
0
296
0
143
3.75
271
0
272
9
273
9
  0
DICTIONARY
  5
2D
330
A
100
AcDbDictionary
280
1
281
1
  3
CREATED_BY_EZDXF
350
2E
  3
WRITTEN_BY_EZDXF
350
DE
  0
DICTIONARYVAR
  5
2E
330
2D
100
DictionaryVariables
280
0
  1
1.4.4 @ 2026-09-28T23:18:21.798160+00:00
  0
VISUALSTYLE
  5
5A
102
{ACAD_REACTORS
330
16
102
}
330
16
100
AcDbVisualStyle
  2
2dWireframe
 70
4
177
3
291
0
 70
58
 90
2
176
1
 90
2
176
1
 90
0
176
1
 90
0
176
1
 40
0.6
176
1
 40
30.0
176
1
 62
7
420
16777215
176
1
 90
1
176
1
 90
4
176
1
 62
7
176
1
 62
257
176
1
 90
1
176
1
 90
1
176
1
 40
1.0
176
1
 90
8
176
1
 62
7
176
1
 40
1.0
176
1
 90
1
176
1
 90
6
176
1
 90
2
176
1
 62
7
176
1
 90
5
176
1
 90
0
176
1
 90
0
176
1
290
0
176
1
 90
1
176
1
 40
0.0
176
1
 90
0
176
1
290
1
176
1
290
1
176
1
290
0
176
1
290
0
176
1
290
0
176
1
290
0
176
1
290
0
176
1
290
0
176
1
290
0
176
1
 90
50
176
1
 40
0.0
176
1
 40
1.0
176
1
 90
0
176
1
 62
18
420
0
176
1
 90
50
176
1
 90
3
176
1
 62
5
420
255
176
1
290
0
176
1
 90
50
176
1
 90
50
176
1
 90
50
176
1
290
0
176
1
 90
50
176
1
 62
256
176
0
 40
1.0
176
0
 90
2
176
1
  1
strokes_ogs.tif
176
1
290
0
176
1
 40
1.0
176
1
 40
1.0
176
1
  0
VISUALSTYLE
  5
5B
102
{ACAD_REACTORS
330
16
102
}
330
16
100
AcDbVisualStyle
  2
Basic
 70
7
177
3
291
1
 70
58
 90
2
176
1
 90
2
176
1
 90
0
176
1
 90
1
176
1
 40
0.6
176
1
 40
30.0
176
1
 62
7
420
16777215
176
1
 90
1
176
1
 90
4
176
1
 62
7
176
1
 62
257
176
1
 90
1
176
1
 90
1
176
1
 40
1.0
176
1
 90
8
176
1
 62
7
176
1
 40
1.0
176
1
 90
1
176
1
 90
6
176
1
 90
2
176
1
 62
7
176
1
 90
5
176
1
 90
0
176
1
 90
0
176
1
290
0
176
1
 90
1
176
1
 40
0.0
176
1
 90
0
176
1
290
0
176
1
290
1
176
1
290
1
176
1
290
0
176
1
290
0
176
1
290
0
176
1
290
0
176
1
290
0
176
1
290
0
176
1
 90
50
176
1
 40
0.0
176
1
 40
1.0
176
1
 90
0
176
1
 62
18
420
0
176
1
 90
50
176
1
 90
3
176
1
 62
5
420
255
176
1
290
0
176
1
 90
50
176
1
 90
50
176
1
 90
50
176
1
290
0
176
1
 90
50
176
1
 62
256
176
0
 40
1.0
176
0
 90
2
176
1
  1
strokes_ogs.tif
176
1
290
0
176
1
 40
1.0
176
1
 40
1.0
176
1
  0
VISUALSTYLE
  5
5C
102
{ACAD_REACTORS
330
16
102
}
330
16
100
AcDbVisualStyle
  2
Brighten
 70
12
177
3
291
1
 70
58
 90
2
176
1
 90
2
176
1
 90
0
176
1
 90
2
176
1
 40
0.6
176
1
 40
30.0
176
1
 62
7
420
16777215
176
1
 90
1
176
1
 90
4
176
1
 62
7
176
1
 62
257
176
1
 90
1
176
1
 90
1
176
1
 40
1.0
176
1
 90
8
176
1
 62
7
176
1
 40
1.0
176
1
 90
1
176
1
 90
6
176
1
 90
2
176
1
 62
7
176
1
 90
5
176
1
 90
0
176
1
 90
0
176
1
290
0
176
1
 90
1
176
1
 40
0.0
176
1
 90
0
176
1
290
0
176
1
290
1
176
1
290
1
176
1
290
0
176
1
290
0
176
1
290
0
176
1
290
0
176
1
290
0
176
1
290
0
176
1
 90
50
176
1
 40
0.0
176
1
 40
1.0
176
1
 90
0
176
1
 62
18
420
0
176
1
 90
50
176
1
 90
3
176
1
 62
5
420
255
176
1
290
0
176
1
 90
50
176
1
 90
50
176
1
 90
50
176
1
290
0
176
1
 90
50
176
1
 62
256
176
0
 40
1.0
176
0
 90
2
176
1
  1
strokes_ogs.tif
176
1
290
0
176
1
 40
1.0
176
1
 40
1.0
176
1
  0
VISUALSTYLE
  5
5D
102
{ACAD_REACTORS
330
16
102
}
330
16
100
AcDbVisualStyle
  2
ColorChange
 70
16
177
3
291
1
 70
58
 90
2
176
1
 90
2
176
1
 90
0
176
1
 90
2
176
1
 40
0.6
176
1
 40
30.0
176
1
 62
7
420
16777215
176
1
 90
1
176
1
 90
4
176
1
 62
7
176
1
 62
257
176
1
 90
1
176
1
 90
1
176
1
 40
1.0
176
1
 90
8
176
1
 62
7
176
1
 40
1.0
176
1
 90
1
176
1
 90
6
176
1
 90
2
176
1
 62
7
176
1
 90
5
176
1
 90
0
176
1
 90
0
176
1
290
0
176
1
 90
1
176
1
 40
0.0
176
1
 90
0
176
1
290
0
176
1
290
1
176
1
290
1
176
1
290
0
176
1
290
0
176
1
290
0
176
1
290
0
176
1
290
0
176
1
290
0
176
1
 90
50
176
1
 40
0.0
176
1
 40
1.0
176
1
 90
0
176
1
 62
18
420
0
176
1
 90
50
176
1
 90
3
176
1
 62
5
420
255
176
1
290
0
176
1
 90
50
176
1
 90
50
176
1
 90
50
176
1
290
0
176
1
 90
50
176
1
 62
256
176
0
 40
1.0
176
0
 90
2
176
1
  1
strokes_ogs.tif
176
1
290
0
176
1
 40
1.0
176
1
 40
1.0
176
1
  0
VISUALSTYLE
  5
5E
102
{ACAD_REACTORS
330
16
102
}
330
16
100
AcDbVisualStyle
  2
Conceptual
 70
9
177
3
291
0
 70
58
 90
2
176
1
 90
2
176
1
 90
0
176
1
 90
3
176
1
 40
0.6
176
1
 40
30.0
176
1
 62
7
420
16777215
176
1
 90
1
176
1
 90
4
176
1
 62
7
176
1
 62
257
176
1
 90
1
176
1
 90
1
176
1
 40
1.0
176
1
 90
8
176
1
 62
7
176
1
 40
1.0
176
1
 90
1
176
1
 90
6
176
1
 90
2
176
1
 62
7
176
1
 90
5
176
1
 90
0
176
1
 90
0
176
1
290
0
176
1
 90
1
176
1
 40
0.0
176
1
 90
0
176
1
290
0
176
1
290
1
176
1
290
1
176
1
290
0
176
1
290
0
176
1
290
0
176
1
290
0
176
1
290
0
176
1
290
0
176
1
 90
50
176
1
 40
0.0
176
1
 40
1.0
176
1
 90
0
176
1
 62
18
420
0
176
1
 90
50
176
1
 90
3
176
1
 62
5
420
255
176
1
290
0
176
1
 90
50
176
1
 90
50
176
1
 90
50
176
1
290
0
176
1
 90
50
176
1
 62
256
176
0
 40
1.0
176
0
 90
2
176
1
  1
strokes_ogs.tif
176
1
290
0
176
1
 40
1.0
176
1
 40
1.0
176
1
  0
VISUALSTYLE
  5
5F
102
{ACAD_REACTORS
330
16
102
}
330
16
100
AcDbVisualStyle
  2
Dim
 70
11
177
3
291
1
 70
58
 90
2
176
1
 90
2
176
1
 90
0
176
1
 90
2
176
1
 40
0.6
176
1
 40
30.0
176
1
 62
7
420
16777215
176
1
 90
1
176
1
 90
4
176
1
 62
7
176
1
 62
257
176
1
 90
1
176
1
 90
1
176
1
 40
1.0
176
1
 90
8
176
1
 62
7
176
1
 40
1.0
176
1
 90
1
176
1
 90
6
176
1
 90
2
176
1
 62
7
176
1
 90
5
176
1
 90
0
176
1
 90
0
176
1
290
0
176
1
 90
1
176
1
 40
0.0
176
1
 90
0
176
1
290
0
176
1
290
1
176
1
290
1
176
1
290
0
176
1
290
0
176
1
290
0
176
1
290
0
176
1
290
0
176
1
290
0
176
1
 90
50
176
1
 40
0.0
176
1
 40
1.0
176
1
 90
0
176
1
 62
18
420
0
176
1
 90
50
176
1
 90
3
176
1
 62
5
420
255
176
1
290
0
176
1
 90
50
176
1
 90
50
176
1
 90
50
176
1
290
0
176
1
 90
50
176
1
 62
256
176
0
 40
1.0
176
0
 90
2
176
1
  1
strokes_ogs.tif
176
1
290
0
176
1
 40
1.0
176
1
 40
1.0
176
1
  0
VISUALSTYLE
  5
60
102
{ACAD_REACTORS
330
16
102
}
330
16
100
AcDbVisualStyle
  2
EdgeColorOff
 70
22
177
3
291
1
 70
58
 90
2
176
1
 90
2
176
1
 90
0
176
1
 90
2
176
1
 40
0.6
176
1
 40
30.0
176
1
 62
7
420
16777215
176
1
 90
1
176
1
 90
4
176
1
 62
7
176
1
 62
257
176
1
 90
1
176
1
 90
1
176
1
 40
1.0
176
1
 90
8
176
1
 62
7
176
1
 40
1.0
176
1
 90
1
176
1
 90
6
176
1
 90
2
176
1
 62
7
176
1
 90
5
176
1
 90
0
176
1
 90
0
176
1
290
0
176
1
 90
1
176
1
 40
0.0
176
1
 90
0
176
1
290
0
176
1
290
1
176
1
290
1
176
1
290
0
176
1
290
0
176
1
290
0
176
1
290
0
176
1
290
0
176
1
290
0
176
1
 90
50
176
1
 40
0.0
176
1
 40
1.0
176
1
 90
0
176
1
 62
18
420
0
176
1
 90
50
176
1
 90
3
176
1
 62
5
420
255
176
1
290
0
176
1
 90
50
176
1
 90
50
176
1
 90
50
176
1
290
0
176
1
 90
50
176
1
 62
256
176
0
 40
1.0
176
0
 90
2
176
1
  1
strokes_ogs.tif
176
1
290
0
176
1
 40
1.0
176
1
 40
1.0
176
1
  0
VISUALSTYLE
  5
61
102
{ACAD_REACTORS
330
16
102
}
330
16
100
AcDbVisualStyle
  2
Facepattern
 70
15
177
3
291
1
 70
58
 90
2
176
1
 90
2
176
1
 90
0
176
1
 90
2
176
1
 40
0.6
176
1
 40
30.0
176
1
 62
7
420
16777215
176
1
 90
1
176
1
 90
4
176
1
 62
7
176
1
 62
257
176
1
 90
1
176
1
 90
1
176
1
 40
1.0
176
1
 90
8
176
1
 62
7
176
1
 40
1.0
176
1
 90
1
176
1
 90
6
176
1
 90
2
176
1
 62
7
176
1
 90
5
176
1
 90
0
176
1
 90
0
176
1
290
0
176
1
 90
1
176
1
 40
0.0
176
1
 90
0
176
1
290
0
176
1
290
1
176
1
290
1
176
1
290
0
176
1
290
0
176
1
290
0
176
1
290
0
176
1
290
0
176
1
290
0
176
1
 90
50
176
1
 40
0.0
176
1
 40
1.0
176
1
 90
0
176
1
 62
18
420
0
176
1
 90
50
176
1
 90
3
176
1
 62
5
420
255
176
1
290
0
176
1
 90
50
176
1
 90
50
176
1
 90
50
176
1
290
0
176
1
 90
50
176
1
 62
256
176
0
 40
1.0
176
0
 90
2
176
1
  1
strokes_ogs.tif
176
1
290
0
176
1
 40
1.0
176
1
 40
1.0
176
1
  0
VISUALSTYLE
  5
62
102
{ACAD_REACTORS
330
16
102
}
330
16
100
AcDbVisualStyle
  2
Flat
 70
0
177
3
291
1
 70
58
 90
2
176
1
 90
2
176
1
 90
0
176
1
 90
2
176
1
 40
0.6
176
1
 40
30.0
176
1
 62
7
420
16777215
176
1
 90
1
176
1
 90
4
176
1
 62
7
176
1
 62
257
176
1
 90
1
176
1
 90
1
176
1
 40
1.0
176
1
 90
8
176
1
 62
7
176
1
 40
1.0
176
1
 90
1
176
1
 90
6
176
1
 90
2
176
1
 62
7
176
1
 90
5
176
1
 90
0
176
1
 90
0
176
1
290
0
176
1
 90
1
176
1
 40
0.0
176
1
 90
0
176
1
290
0
176
1
290
1
176
1
290
1
176
1
290
0
176
1
290
0
176
1
290
0
176
1
290
0
176
1
290
0
176
1
290
0
176
1
 90
50
176
1
 40
0.0
176
1
 40
1.0
176
1
 90
0
176
1
 62
18
420
0
176
1
 90
50
176
1
 90
3
176
1
 62
5
420
255
176
1
290
0
176
1
 90
50
176
1
 90
50
176
1
 90
50
176
1
290
0
176
1
 90
50
176
1
 62
256
176
0
 40
1.0
176
0
 90
2
176
1
  1
strokes_ogs.tif
176
1
290
0
176
1
 40
1.0
176
1
 40
1.0
176
1
  0
VISUALSTYLE
  5
63
102
{ACAD_REACTORS
330
16
102
}
330
16
100
AcDbVisualStyle
  2
FlatWithEdges
 70
1
177
3
291
1
 70
58
 90
2
176
1
 90
2
176
1
 90
0
176
1
 90
2
176
1
 40
0.6
176
1
 40
30.0
176
1
 62
7
420
16777215
176
1
 90
1
176
1
 90
4
176
1
 62
7
176
1
 62
257
176
1
 90
1
176
1
 90
1
176
1
 40
1.0
176
1
 90
8
176
1
 62
7
176
1
 40
1.0
176
1
 90
1
176
1
 90
6
176
1
 90
2
176
1
 62
7
176
1
 90
5
176
1
 90
0
176
1
 90
0
176
1
290
0
176
1
 90
1
176
1
 40
0.0
176
1
 90
0
176
1
290
0
176
1
290
1
176
1
290
1
176
1
290
0
176
1
290
0
176
1
290
0
176
1
290
0
176
1
290
0
176
1
290
0
176
1
 90
50
176
1
 40
0.0
176
1
 40
1.0
176
1
 90
0
176
1
 62
18
420
0
176
1
 90
50
176
1
 90
3
176
1
 62
5
420
255
176
1
290
0
176
1
 90
50
176
1
 90
50
176
1
 90
50
176
1
290
0
176
1
 90
50
176
1
 62
256
176
0
 40
1.0
176
0
 90
2
176
1
  1
strokes_ogs.tif
176
1
290
0
176
1
 40
1.0
176
1
 40
1.0
176
1
  0
VISUALSTYLE
  5
64
102
{ACAD_REACTORS
330
16
102
}
330
16
100
AcDbVisualStyle
  2
Gouraud
 70
2
177
3
291
1
 70
58
 90
2
176
1
 90
2
176
1
 90
0
176
1
 90
2
176
1
 40
0.6
176
1
 40
30.0
176
1
 62
7
420
16777215
176
1
 90
1
176
1
 90
4
176
1
 62
7
176
1
 62
257
176
1
 90
1
176
1
 90
1
176
1
 40
1.0
176
1
 90
8
176
1
 62
7
176
1
 40
1.0
176
1
 90
1
176
1
 90
6
176
1
 90
2
176
1
 62
7
176
1
 90
5
176
1
 90
0
176
1
 90
0
176
1
290
0
176
1
 90
1
176
1
 40
0.0
176
1
 90
0
176
1
290
0
176
1
290
1
176
1
290
1
176
1
290
0
176
1
290
0
176
1
290
0
176
1
290
0
176
1
290
0
176
1
290
0
176
1
 90
50
176
1
 40
0.0
176
1
 40
1.0
176
1
 90
0
176
1
 62
18
420
0
176
1
 90
50
176
1
 90
3
176
1
 62
5
420
255
176
1
290
0
176
1
 90
50
176
1
 90
50
176
1
 90
50
176
1
290
0
176
1
 90
50
176
1
 62
256
176
0
 40
1.0
176
0
 90
2
176
1
  1
strokes_ogs.tif
176
1
290
0
176
1
 40
1.0
176
1
 40
1.0
176
1
  0
VISUALSTYLE
  5
65
102
{ACAD_REACTORS
330
16
102
}
330
16
100
AcDbVisualStyle
  2
GouraudWithEdges
 70
3
177
3
291
1
 70
58
 90
2
176
1
 90
2
176
1
 90
0
176
1
 90
2
176
1
 40
0.6
176
1
 40
30.0
176
1
 62
7
420
16777215
176
1
 90
1
176
1
 90
4
176
1
 62
7
176
1
 62
257
176
1
 90
1
176
1
 90
1
176
1
 40
1.0
176
1
 90
8
176
1
 62
7
176
1
 40
1.0
176
1
 90
1
176
1
 90
6
176
1
 90
2
176
1
 62
7
176
1
 90
5
176
1
 90
0
176
1
 90
0
176
1
290
0
176
1
 90
1
176
1
 40
0.0
176
1
 90
0
176
1
290
0
176
1
290
1
176
1
290
1
176
1
290
0
176
1
290
0
176
1
290
0
176
1
290
0
176
1
290
0
176
1
290
0
176
1
 90
50
176
1
 40
0.0
176
1
 40
1.0
176
1
 90
0
176
1
 62
18
420
0
176
1
 90
50
176
1
 90
3
176
1
 62
5
420
255
176
1
290
0
176
1
 90
50
176
1
 90
50
176
1
 90
50
176
1
290
0
176
1
 90
50
176
1
 62
256
176
0
 40
1.0
176
0
 90
2
176
1
  1
strokes_ogs.tif
176
1
290
0
176
1
 40
1.0
176
1
 40
1.0
176
1
  0
VISUALSTYLE
  5
66
102
{ACAD_REACTORS
330
16
102
}
330
16
100
AcDbVisualStyle
  2
Hidden
 70
6
177
3
291
0
 70
58
 90
2
176
1
 90
2
176
1
 90
0
176
1
 90
1
176
1
 40
0.6
176
1
 40
30.0
176
1
 62
7
420
16777215
176
1
 90
1
176
1
 90
4
176
1
 62
7
176
1
 62
257
176
1
 90
1
176
1
 90
1
176
1
 40
1.0
176
1
 90
8
176
1
 62
7
176
1
 40
1.0
176
1
 90
1
176
1
 90
6
176
1
 90
2
176
1
 62
7
176
1
 90
5
176
1
 90
0
176
1
 90
0
176
1
290
0
176
1
 90
1
176
1
 40
0.0
176
1
 90
0
176
1
290
0
176
1
290
1
176
1
290
1
176
1
290
0
176
1
290
0
176
1
290
0
176
1
290
0
176
1
290
0
176
1
290
0
176
1
 90
50
176
1
 40
0.0
176
1
 40
1.0
176
1
 90
0
176
1
 62
18
420
0
176
1
 90
50
176
1
 90
3
176
1
 62
5
420
255
176
1
290
0
176
1
 90
50
176
1
 90
50
176
1
 90
50
176
1
290
0
176
1
 90
50
176
1
 62
256
176
0
 40
1.0
176
0
 90
2
176
1
  1
strokes_ogs.tif
176
1
290
0
176
1
 40
1.0
176
1
 40
1.0
176
1
  0
VISUALSTYLE
  5
67
102
{ACAD_REACTORS
330
16
102
}
330
16
100
AcDbVisualStyle
  2
JitterOff
 70
20
177
3
291
1
 70
58
 90
2
176
1
 90
2
176
1
 90
0
176
1
 90
2
176
1
 40
0.6
176
1
 40
30.0
176
1
 62
7
420
16777215
176
1
 90
1
176
1
 90
4
176
1
 62
7
176
1
 62
257
176
1
 90
1
176
1
 90
1
176
1
 40
1.0
176
1
 90
8
176
1
 62
7
176
1
 40
1.0
176
1
 90
1
176
1
 90
6
176
1
 90
2
176
1
 62
7
176
1
 90
5
176
1
 90
0
176
1
 90
0
176
1
290
0
176
1
 90
1
176
1
 40
0.0
176
1
 90
0
176
1
290
0
176
1
290
1
176
1
290
1
176
1
290
0
176
1
290
0
176
1
290
0
176
1
290
0
176
1
290
0
176
1
290
0
176
1
 90
50
176
1
 40
0.0
176
1
 40
1.0
176
1
 90
0
176
1
 62
18
420
0
176
1
 90
50
176
1
 90
3
176
1
 62
5
420
255
176
1
290
0
176
1
 90
50
176
1
 90
50
176
1
 90
50
176
1
290
0
176
1
 90
50
176
1
 62
256
176
0
 40
1.0
176
0
 90
2
176
1
  1
strokes_ogs.tif
176
1
290
0
176
1
 40
1.0
176
1
 40
1.0
176
1
  0
VISUALSTYLE
  5
68
102
{ACAD_REACTORS
330
16
102
}
330
16
100
AcDbVisualStyle
  2
Linepattern
 70
14
177
3
291
1
 70
58
 90
2
176
1
 90
2
176
1
 90
0
176
1
 90
2
176
1
 40
0.6
176
1
 40
30.0
176
1
 62
7
420
16777215
176
1
 90
1
176
1
 90
4
176
1
 62
7
176
1
 62
257
176
1
 90
1
176
1
 90
1
176
1
 40
1.0
176
1
 90
8
176
1
 62
7
176
1
 40
1.0
176
1
 90
1
176
1
 90
6
176
1
 90
2
176
1
 62
7
176
1
 90
5
176
1
 90
0
176
1
 90
0
176
1
290
0
176
1
 90
1
176
1
 40
0.0
176
1
 90
0
176
1
290
0
176
1
290
1
176
1
290
1
176
1
290
0
176
1
290
0
176
1
290
0
176
1
290
0
176
1
290
0
176
1
290
0
176
1
 90
50
176
1
 40
0.0
176
1
 40
1.0
176
1
 90
0
176
1
 62
18
420
0
176
1
 90
50
176
1
 90
3
176
1
 62
5
420
255
176
1
290
0
176
1
 90
50
176
1
 90
50
176
1
 90
50
176
1
290
0
176
1
 90
50
176
1
 62
256
176
0
 40
1.0
176
0
 90
2
176
1
  1
strokes_ogs.tif
176
1
290
0
176
1
 40
1.0
176
1
 40
1.0
176
1
  0
VISUALSTYLE
  5
69
102
{ACAD_REACTORS
330
16
102
}
330
16
100
AcDbVisualStyle
  2
Modeling
 70
10
177
3
291
0
 70
58
 90
2
176
1
 90
2
176
1
 90
0
176
1
 90
2
176
1
 40
0.6
176
1
 40
30.0
176
1
 62
7
420
16777215
176
1
 90
1
176
1
 90
4
176
1
 62
7
176
1
 62
257
176
1
 90
1
176
1
 90
1
176
1
 40
1.0
176
1
 90
8
176
1
 62
7
176
1
 40
1.0
176
1
 90
1
176
1
 90
6
176
1
 90
2
176
1
 62
7
176
1
 90
5
176
1
 90
0
176
1
 90
0
176
1
290
0
176
1
 90
1
176
1
 40
0.0
176
1
 90
0
176
1
290
0
176
1
290
1
176
1
290
1
176
1
290
0
176
1
290
0
176
1
290
0
176
1
290
0
176
1
290
0
176
1
290
0
176
1
 90
50
176
1
 40
0.0
176
1
 40
1.0
176
1
 90
0
176
1
 62
18
420
0
176
1
 90
50
176
1
 90
3
176
1
 62
5
420
255
176
1
290
0
176
1
 90
50
176
1
 90
50
176
1
 90
50
176
1
290
0
176
1
 90
50
176
1
 62
256
176
0
 40
1.0
176
0
 90
2
176
1
  1
strokes_ogs.tif
176
1
290
0
176
1
 40
1.0
176
1
 40
1.0
176
1
  0
VISUALSTYLE
  5
6A
102
{ACAD_REACTORS
330
16
102
}
330
16
100
AcDbVisualStyle
  2
OverhangOff
 70
21
177
3
291
1
 70
58
 90
2
176
1
 90
2
176
1
 90
0
176
1
 90
2
176
1
 40
0.6
176
1
 40
30.0
176
1
 62
7
420
16777215
176
1
 90
1
176
1
 90
4
176
1
 62
7
176
1
 62
257
176
1
 90
1
176
1
 90
1
176
1
 40
1.0
176
1
 90
8
176
1
 62
7
176
1
 40
1.0
176
1
 90
1
176
1
 90
6
176
1
 90
2
176
1
 62
7
176
1
 90
5
176
1
 90
0
176
1
 90
0
176
1
290
0
176
1
 90
1
176
1
 40
0.0
176
1
 90
0
176
1
290
0
176
1
290
1
176
1
290
1
176
1
290
0
176
1
290
0
176
1
290
0
176
1
290
0
176
1
290
0
176
1
290
0
176
1
 90
50
176
1
 40
0.0
176
1
 40
1.0
176
1
 90
0
176
1
 62
18
420
0
176
1
 90
50
176
1
 90
3
176
1
 62
5
420
255
176
1
290
0
176
1
 90
50
176
1
 90
50
176
1
 90
50
176
1
290
0
176
1
 90
50
176
1
 62
256
176
0
 40
1.0
176
0
 90
2
176
1
  1
strokes_ogs.tif
176
1
290
0
176
1
 40
1.0
176
1
 40
1.0
176
1
  0
VISUALSTYLE
  5
6B
102
{ACAD_REACTORS
330
16
102
}
330
16
100
AcDbVisualStyle
  2
Realistic
 70
8
177
3
291
0
 70
58
 90
2
176
1
 90
2
176
1
 90
0
176
1
 90
2
176
1
 40
0.6
176
1
 40
30.0
176
1
 62
7
420
16777215
176
1
 90
1
176
1
 90
4
176
1
 62
7
176
1
 62
257
176
1
 90
1
176
1
 90
1
176
1
 40
1.0
176
1
 90
8
176
1
 62
7
176
1
 40
1.0
176
1
 90
1
176
1
 90
6
176
1
 90
2
176
1
 62
7
176
1
 90
5
176
1
 90
0
176
1
 90
0
176
1
290
0
176
1
 90
1
176
1
 40
0.0
176
1
 90
0
176
1
290
0
176
1
290
1
176
1
290
1
176
1
290
0
176
1
290
0
176
1
290
0
176
1
290
0
176
1
290
0
176
1
290
0
176
1
 90
50
176
1
 40
0.0
176
1
 40
1.0
176
1
 90
0
176
1
 62
18
420
0
176
1
 90
50
176
1
 90
3
176
1
 62
5
420
255
176
1
290
0
176
1
 90
50
176
1
 90
50
176
1
 90
50
176
1
290
0
176
1
 90
50
176
1
 62
256
176
0
 40
1.0
176
0
 90
2
176
1
  1
strokes_ogs.tif
176
1
290
0
176
1
 40
1.0
176
1
 40
1.0
176
1
  0
VISUALSTYLE
  5
6C
102
{ACAD_REACTORS
330
16
102
}
330
16
100
AcDbVisualStyle
  2
Shaded
 70
27
177
3
291
0
 70
58
 90
2
176
1
 90
2
176
1
 90
0
176
1
 90
2
176
1
 40
0.6
176
1
 40
30.0
176
1
 62
7
420
16777215
176
1
 90
1
176
1
 90
4
176
1
 62
7
176
1
 62
257
176
1
 90
1
176
1
 90
1
176
1
 40
1.0
176
1
 90
8
176
1
 62
7
176
1
 40
1.0
176
1
 90
1
176
1
 90
6
176
1
 90
2
176
1
 62
7
176
1
 90
5
176
1
 90
0
176
1
 90
0
176
1
290
0
176
1
 90
1
176
1
 40
0.0
176
1
 90
0
176
1
290
0
176
1
290
1
176
1
290
1
176
1
290
0
176
1
290
0
176
1
290
0
176
1
290
0
176
1
290
0
176
1
290
0
176
1
 90
50
176
1
 40
0.0
176
1
 40
1.0
176
1
 90
0
176
1
 62
18
420
0
176
1
 90
50
176
1
 90
3
176
1
 62
5
420
255
176
1
290
0
176
1
 90
50
176
1
 90
50
176
1
 90
50
176
1
290
0
176
1
 90
50
176
1
 62
256
176
0
 40
1.0
176
0
 90
2
176
1
  1
strokes_ogs.tif
176
1
290
0
176
1
 40
1.0
176
1
 40
1.0
176
1
  0
VISUALSTYLE
  5
6D
102
{ACAD_REACTORS
330
16
102
}
330
16
100
AcDbVisualStyle
  2
Shaded with edges
 70
26
177
3
291
0
 70
58
 90
2
176
1
 90
2
176
1
 90
0
176
1
 90
2
176
1
 40
0.6
176
1
 40
30.0
176
1
 62
7
420
16777215
176
1
 90
1
176
1
 90
4
176
1
 62
7
176
1
 62
257
176
1
 90
1
176
1
 90
1
176
1
 40
1.0
176
1
 90
8
176
1
 62
7
176
1
 40
1.0
176
1
 90
1
176
1
 90
6
176
1
 90
2
176
1
 62
7
176
1
 90
5
176
1
 90
0
176
1
 90
0
176
1
290
0
176
1
 90
1
176
1
 40
0.0
176
1
 90
0
176
1
290
0
176
1
290
1
176
1
290
1
176
1
290
0
176
1
290
0
176
1
290
0
176
1
290
0
176
1
290
0
176
1
290
0
176
1
 90
50
176
1
 40
0.0
176
1
 40
1.0
176
1
 90
0
176
1
 62
18
420
0
176
1
 90
50
176
1
 90
3
176
1
 62
5
420
255
176
1
290
0
176
1
 90
50
176
1
 90
50
176
1
 90
50
176
1
290
0
176
1
 90
50
176
1
 62
256
176
0
 40
1.0
176
0
 90
2
176
1
  1
strokes_ogs.tif
176
1
290
0
176
1
 40
1.0
176
1
 40
1.0
176
1
  0
VISUALSTYLE
  5
6E
102
{ACAD_REACTORS
330
16
102
}
330
16
100
AcDbVisualStyle
  2
Shades of Gray
 70
23
177
3
291
0
 70
58
 90
2
176
1
 90
2
176
1
 90
0
176
1
 90
2
176
1
 40
0.6
176
1
 40
30.0
176
1
 62
7
420
16777215
176
1
 90
1
176
1
 90
4
176
1
 62
7
176
1
 62
257
176
1
 90
1
176
1
 90
1
176
1
 40
1.0
176
1
 90
8
176
1
 62
7
176
1
 40
1.0
176
1
 90
1
176
1
 90
6
176
1
 90
2
176
1
 62
7
176
1
 90
5
176
1
 90
0
176
1
 90
0
176
1
290
0
176
1
 90
1
176
1
 40
0.0
176
1
 90
0
176
1
290
0
176
1
290
1
176
1
290
1
176
1
290
0
176
1
290
0
176
1
290
0
176
1
290
0
176
1
290
0
176
1
290
0
176
1
 90
50
176
1
 40
0.0
176
1
 40
1.0
176
1
 90
0
176
1
 62
18
420
0
176
1
 90
50
176
1
 90
3
176
1
 62
5
420
255
176
1
290
0
176
1
 90
50
176
1
 90
50
176
1
 90
50
176
1
290
0
176
1
 90
50
176
1
 62
256
176
0
 40
1.0
176
0
 90
2
176
1
  1
strokes_ogs.tif
176
1
290
0
176
1
 40
1.0
176
1
 40
1.0
176
1
  0
VISUALSTYLE
  5
6F
102
{ACAD_REACTORS
330
16
102
}
330
16
100
AcDbVisualStyle
  2
Sketchy
 70
24
177
3
291
0
 70
58
 90
2
176
1
 90
2
176
1
 90
0
176
1
 90
1
176
1
 40
0.6
176
1
 40
30.0
176
1
 62
7
420
16777215
176
1
 90
1
176
1
 90
4
176
1
 62
7
176
1
 62
257
176
1
 90
1
176
1
 90
1
176
1
 40
1.0
176
1
 90
8
176
1
 62
7
176
1
 40
1.0
176
1
 90
1
176
1
 90
6
176
1
 90
2
176
1
 62
7
176
1
 90
5
176
1
 90
0
176
1
 90
0
176
1
290
0
176
1
 90
1
176
1
 40
0.0
176
1
 90
0
176
1
290
0
176
1
290
1
176
1
290
1
176
1
290
0
176
1
290
0
176
1
290
0
176
1
290
0
176
1
290
0
176
1
290
0
176
1
 90
50
176
1
 40
0.0
176
1
 40
1.0
176
1
 90
0
176
1
 62
18
420
0
176
1
 90
50
176
1
 90
3
176
1
 62
5
420
255
176
1
290
0
176
1
 90
50
176
1
 90
50
176
1
 90
50
176
1
290
0
176
1
 90
50
176
1
 62
256
176
0
 40
1.0
176
0
 90
2
176
1
  1
strokes_ogs.tif
176
1
290
0
176
1
 40
1.0
176
1
 40
1.0
176
1
  0
VISUALSTYLE
  5
70
102
{ACAD_REACTORS
330
16
102
}
330
16
100
AcDbVisualStyle
  2
Thicken
 70
13
177
3
291
1
 70
58
 90
2
176
1
 90
2
176
1
 90
0
176
1
 90
2
176
1
 40
0.6
176
1
 40
30.0
176
1
 62
7
420
16777215
176
1
 90
1
176
1
 90
4
176
1
 62
7
176
1
 62
257
176
1
 90
1
176
1
 90
1
176
1
 40
1.0
176
1
 90
8
176
1
 62
7
176
1
 40
1.0
176
1
 90
1
176
1
 90
6
176
1
 90
2
176
1
 62
7
176
1
 90
5
176
1
 90
0
176
1
 90
0
176
1
290
0
176
1
 90
1
176
1
 40
0.0
176
1
 90
0
176
1
290
0
176
1
290
1
176
1
290
1
176
1
290
0
176
1
290
0
176
1
290
0
176
1
290
0
176
1
290
0
176
1
290
0
176
1
 90
50
176
1
 40
0.0
176
1
 40
1.0
176
1
 90
0
176
1
 62
18
420
0
176
1
 90
50
176
1
 90
3
176
1
 62
5
420
255
176
1
290
0
176
1
 90
50
176
1
 90
50
176
1
 90
50
176
1
290
0
176
1
 90
50
176
1
 62
256
176
0
 40
1.0
176
0
 90
2
176
1
  1
strokes_ogs.tif
176
1
290
0
176
1
 40
1.0
176
1
 40
1.0
176
1
  0
VISUALSTYLE
  5
71
102
{ACAD_REACTORS
330
16
102
}
330
16
100
AcDbVisualStyle
  2
Wireframe
 70
5
177
3
291
0
 70
58
 90
2
176
1
 90
2
176
1
 90
0
176
1
 90
0
176
1
 40
0.6
176
1
 40
30.0
176
1
 62
7
420
16777215
176
1
 90
1
176
1
 90
4
176
1
 62
7
176
1
 62
257
176
1
 90
1
176
1
 90
1
176
1
 40
1.0
176
1
 90
8
176
1
 62
7
176
1
 40
1.0
176
1
 90
1
176
1
 90
6
176
1
 90
2
176
1
 62
7
176
1
 90
5
176
1
 90
0
176
1
 90
0
176
1
290
0
176
1
 90
1
176
1
 40
0.0
176
1
 90
0
176
1
290
0
176
1
290
1
176
1
290
1
176
1
290
0
176
1
290
0
176
1
290
0
176
1
290
0
176
1
290
0
176
1
290
0
176
1
 90
50
176
1
 40
0.0
176
1
 40
1.0
176
1
 90
0
176
1
 62
18
420
0
176
1
 90
50
176
1
 90
3
176
1
 62
5
420
255
176
1
290
0
176
1
 90
50
176
1
 90
50
176
1
 90
50
176
1
290
0
176
1
 90
50
176
1
 62
256
176
0
 40
1.0
176
0
 90
2
176
1
  1
strokes_ogs.tif
176
1
290
0
176
1
 40
1.0
176
1
 40
1.0
176
1
  0
VISUALSTYLE
  5
72
102
{ACAD_REACTORS
330
16
102
}
330
16
100
AcDbVisualStyle
  2
X-Ray
 70
25
177
3
291
0
 70
58
 90
2
176
1
 90
2
176
1
 90
0
176
1
 90
2
176
1
 40
0.5
176
1
 40
30.0
176
1
 62
7
420
16777215
176
1
 90
1
176
1
 90
4
176
1
 62
7
176
1
 62
257
176
1
 90
1
176
1
 90
1
176
1
 40
1.0
176
1
 90
8
176
1
 62
7
176
1
 40
1.0
176
1
 90
1
176
1
 90
6
176
1
 90
2
176
1
 62
7
176
1
 90
5
176
1
 90
0
176
1
 90
0
176
1
290
0
176
1
 90
1
176
1
 40
0.0
176
1
 90
0
176
1
290
0
176
1
290
1
176
1
290
1
176
1
290
0
176
1
290
0
176
1
290
0
176
1
290
0
176
1
290
0
176
1
290
0
176
1
 90
50
176
1
 40
0.0
176
1
 40
1.0
176
1
 90
0
176
1
 62
18
420
0
176
1
 90
50
176
1
 90
3
176
1
 62
5
420
255
176
1
290
0
176
1
 90
50
176
1
 90
50
176
1
 90
50
176
1
290
0
176
1
 90
50
176
1
 62
256
176
0
 40
1.0
176
0
 90
2
176
1
  1
strokes_ogs.tif
176
1
290
0
176
1
 40
1.0
176
1
 40
1.0
176
1
  0
DICTIONARYVAR
  5
DE
330
2D
100
DictionaryVariables
280
0
  1
1.4.4 @ 2026-09-28T23:18:21.810319+00:00
  0
ENDSEC
  0
EOF
