  0
SECTION
  2
HEADER
  9
$ACADVER
  1
AC1032
  9
$ACADMAINTVER
 90
4
  9
$DWGCODEPAGE
  3
ANSI_1252
  9
$LASTSAVEDBY
  1
ezdxf
  9
$REQUIREDVERSIONS
160
0
  9
$INSBASE
 10
0.0
 20
0.0
 30
0.0
  9
$EXTMIN
 10
1e+20
 20
1e+20
 30
1e+20
  9
$EXTMAX
 10
-1e+20
 20
-1e+20
 30
-1e+20
  9
$LIMMIN
 10
0.0
 20
0.0
  9
$LIMMAX
 10
420.0
 20
297.0
  9
$ORTHOMODE
 70
0
  9
$REGENMODE
 70
1
  9
$FILLMODE
 70
1
  9
$QTEXTMODE
 70
0
  9
$MIRRTEXT
 70
1
  9
$LTSCALE
 40
1.0
  9
$ATTMODE
 70
1
  9
$TEXTSIZE
 40
2.5
  9
$TRACEWID
 40
1.0
  9
$TEXTSTYLE
  7
OpenSans
  9
$CLAYER
  8
0
  9
$CELTYPE
  6
ByLayer
  9
$CECOLOR
 62
256
  9
$CELTSCALE
 40
1.0
  9
$DISPSILH
 70
0
  9
$DIMSCALE
 40
1.0
  9
$DIMASZ
 40
0.175
  9
$DIMEXO
 40
0.125
  9
$DIMDLI
 40
3.75
  9
$DIMRND
 40
0.0
  9
$DIMDLE
 40
0.0
  9
$DIMEXE
 40
0.375
  9
$DIMTP
 40
0.0
  9
$DIMTM
 40
0.0
  9
$DIMTXT
 40
0.25
  9
$DIMCEN
 40
2.5
  9
$DIMTSZ
 40
0.0
  9
$DIMTOL
 70
0
  9
$DIMLIM
 70
0
  9
$DIMTIH
 70
0
  9
$DIMTOH
 70
0
  9
$DIMSE1
 70
0
  9
$DIMSE2
 70
0
  9
$DIMTAD
 70
1
  9
$DIMZIN
 70
12
  9
$DIMBLK
  1
ARCHTICK
  9
$DIMASO
 70
1
  9
$DIMSHO
 70
1
  9
$DIMPOST
  1

  9
$DIMAPOST
  1

  9
$DIMALT
 70
0
  9
$DIMALTD
 70
3
  9
$DIMALTF
 40
0.03937007874
  9
$DIMLFAC
 40
100.0
  9
$DIMTOFL
 70
1
  9
$DIMTVP
 40
0.0
  9
$DIMTIX
 70
0
  9
$DIMSOXD
 70
0
  9
$DIMSAH
 70
0
  9
$DIMBLK1
  1

  9
$DIMBLK2
  1

  9
$DIMSTYLE
  2
EZDXF
  9
$DIMCLRD
 70
0
  9
$DIMCLRE
 70
0
  9
$DIMCLRT
 70
0
  9
$DIMTFAC
 40
0.5
  9
$DIMGAP
 40
0.1
  9
$DIMJUST
 70
0
  9
$DIMSD1
 70
0
  9
$DIMSD2
 70
0
  9
$DIMTOLJ
 70
0
  9
$DIMTZIN
 70
8
  9
$DIMALTZ
 70
0
  9
$DIMALTTZ
 70
0
  9
$DIMUPT
 70
1
  9
$DIMDEC
 70
2
  9
$DIMTDEC
 70
2
  9
$DIMALTU
 70
2
  9
$DIMALTTD
 70
3
  9
$DIMTXSTY
  7
OpenSansCondensed-Light
  9
$DIMAUNIT
 70
0
  9
$DIMADEC
 70
2
  9
$DIMALTRND
 40
0.0
  9
$DIMAZIN
 70
3
  9
$DIMDSEP
 70
46
  9
$DIMATFIT
 70
3
  9
$DIMFRAC
 70
0
  9
$DIMLDRBLK
  1

  9
$DIMLUNIT
 70
2
  9
$DIMLWD
 70
-2
  9
$DIMLWE
 70
-2
  9
$DIMTMOVE
 70
2
  9
$DIMFXL
 40
1.0
  9
$DIMFXLON
 70
0
  9
$DIMJOGANG
 40
0.785398163397
  9
$DIMTFILL
 70
0
  9
$DIMTFILLCLR
 70
0
  9
$DIMARCSYM
 70
0
  9
$DIMLTYPE
  6

  9
$DIMLTEX1
  6

  9
$DIMLTEX2
  6

  9
$DIMTXTDIRECTION
 70
0
  9
$LUNITS
 70
2
  9
$LUPREC
 70
4
  9
$SKETCHINC
 40
1.0
  9
$FILLETRAD
 40
10.0
  9
$AUNITS
 70
0
  9
$AUPREC
 70
2
  9
$MENU
  1
.
  9
$ELEVATION
 40
0.0
  9
$PELEVATION
 40
0.0
  9
$THICKNESS
 40
0.0
  9
$LIMCHECK
 70
0
  9
$CHAMFERA
 40
0.0
  9
$CHAMFERB
 40
0.0
  9
$CHAMFERC
 40
0.0
  9
$CHAMFERD
 40
0.0
  9
$SKPOLY
 70
0
  9
$TDCREATE
 40
2461313.4763425924
  9
$TDUCREATE
 40
2458532.153996898
  9
$TDUPDATE
 40
2461313.4763425924
  9
$TDUUPDATE
 40
2458532.1544311
  9
$TDINDWG
 40
0.0
  9
$TDUSRTIMER
 40
0.0
  9
$USRTIMER
 70
1
  9
$ANGBASE
 50
0.0
  9
$ANGDIR
 70
0
  9
$PDMODE
 70
0
  9
$PDSIZE
 40
0.0
  9
$PLINEWID
 40
0.0
  9
$SPLFRAME
 70
0
  9
$SPLINETYPE
 70
6
  9
$SPLINESEGS
 70
8
  9
$HANDSEED
  5
CD
  9
$SURFTAB1
 70
6
  9
$SURFTAB2
 70
6
  9
$SURFTYPE
 70
6
  9
$SURFU
 70
6
  9
$SURFV
 70
6
  9
$UCSBASE
  2

  9
$UCSNAME
  2

  9
$UCSORG
 10
0.0
 20
0.0
 30
0.0
  9
$UCSXDIR
 10
1.0
 20
0.0
 30
0.0
  9
$UCSYDIR
 10
0.0
 20
1.0
 30
0.0
  9
$UCSORTHOREF
  2

  9
$UCSORTHOVIEW
 70
0
  9
$UCSORGTOP
 10
0.0
 20
0.0
 30
0.0
  9
$UCSORGBOTTOM
 10
0.0
 20
0.0
 30
0.0
  9
$UCSORGLEFT
 10
0.0
 20
0.0
 30
0.0
  9
$UCSORGRIGHT
 10
0.0
 20
0.0
 30
0.0
  9
$UCSORGFRONT
 10
0.0
 20
0.0
 30
0.0
  9
$UCSORGBACK
 10
0.0
 20
0.0
 30
0.0
  9
$PUCSBASE
  2

  9
$PUCSNAME
  2

  9
$PUCSORG
 10
0.0
 20
0.0
 30
0.0
  9
$PUCSXDIR
 10
1.0
 20
0.0
 30
0.0
  9
$PUCSYDIR
 10
0.0
 20
1.0
 30
0.0
  9
$PUCSORTHOREF
  2

  9
$PUCSORTHOVIEW
 70
0
  9
$PUCSORGTOP
 10
0.0
 20
0.0
 30
0.0
  9
$PUCSORGBOTTOM
 10
0.0
 20
0.0
 30
0.0
  9
$PUCSORGLEFT
 10
0.0
 20
0.0
 30
0.0
  9
$PUCSORGRIGHT
 10
0.0
 20
0.0
 30
0.0
  9
$PUCSORGFRONT
 10
0.0
 20
0.0
 30
0.0
  9
$PUCSORGBACK
 10
0.0
 20
0.0
 30
0.0
  9
$USERI1
 70
0
  9
$USERI2
 70
0
  9
$USERI3
 70
0
  9
$USERI4
 70
0
  9
$USERI5
 70
0
  9
$USERR1
 40
0.0
  9
$USERR2
 40
0.0
  9
$USERR3
 40
0.0
  9
$USERR4
 40
0.0
  9
$USERR5
 40
0.0
  9
$WORLDVIEW
 70
1
  9
$SHADEDGE
 70
3
  9
$SHADEDIF
 70
70
  9
$TILEMODE
 70
1
  9
$MAXACTVP
 70
64
  9
$PINSBASE
 10
0.0
 20
0.0
 30
0.0
  9
$PLIMCHECK
 70
0
  9
$PEXTMIN
 10
1e+20
 20
1e+20
 30
1e+20
  9
$PEXTMAX
 10
-1e+20
 20
-1e+20
 30
-1e+20
  9
$PLIMMIN
 10
0.0
 20
0.0
  9
$PLIMMAX
 10
420.0
 20
297.0
  9
$UNITMODE
 70
0
  9
$VISRETAIN
 70
1
  9
$PLINEGEN
 70
0
  9
$PSLTSCALE
 70
1
  9
$TREEDEPTH
 70
3020
  9
$CMLSTYLE
  2
Standard
  9
$CMLJUST
 70
0
  9
$CMLSCALE
 40
20.0
  9
$PROXYGRAPHICS
 70
1
  9
$MEASUREMENT
 70
1
  9
$CELWEIGHT
370
-1
  9
$ENDCAPS
280
0
  9
$JOINSTYLE
280
0
  9
$LWDISPLAY
290
0
  9
$INSUNITS
 70
2
  9
$HYPERLINKBASE
  1

  9
$STYLESHEET
  1

  9
$XEDIT
290
1
  9
$CEPSNTYPE
380
0
  9
$PSTYLEMODE
290
1
  9
$FINGERPRINTGUID
  2
{25E578F3-69B8-4524-B329-27C5FB03C34D}
  9
$VERSIONGUID
  2
{B42AC56C-99F2-4FCF-90F2-AEF929A32D41}
  9
$EXTNAMES
290
1
  9
$PSVPSCALE
 40
0.0
  9
$OLESTARTUP
290
0
  9
$SORTENTS
280
127
  9
$INDEXCTL
280
0
  9
$HIDETEXT
280
1
  9
$XCLIPFRAME
280
1
  9
$HALOGAP
280
0
  9
$OBSCOLOR
 70
257
  9
$OBSLTYPE
280
0
  9
$INTERSECTIONDISPLAY
280
0
  9
$INTERSECTIONCOLOR
 70
257
  9
$DIMASSOC
280
2
  9
$PROJECTNAME
  1

  9
$CAMERADISPLAY
290
0
  9
$LENSLENGTH
 40
50.0
  9
$CAMERAHEIGHT
 40
0.0
  9
$STEPSPERSEC
 40
24.0
  9
$STEPSIZE
 40
100.0
  9
$3DDWFPREC
 40
2.0
  9
$PSOLWIDTH
 40
0.005
  9
$PSOLHEIGHT
 40
0.08
  9
$LOFTANG1
 40
1.570796326795
  9
$LOFTANG2
 40
1.570796326795
  9
$LOFTMAG1
 40
0.0
  9
$LOFTMAG2
 40
0.0
  9
$LOFTPARAM
 70
7
  9
$LOFTNORMALS
280
1
  9
$LATITUDE
 40
37.795
  9
$LONGITUDE
 40
-122.394
  9
$NORTHDIRECTION
 40
0.0
  9
$TIMEZONE
 70
-8000
  9
$LIGHTGLYPHDISPLAY
280
1
  9
$TILEMODELIGHTSYNCH
280
1
  9
$CMATERIAL
347
20
  9
$SOLIDHIST
280
0
  9
$SHOWHIST
280
1
  9
$DWFFRAME
280
2
  9
$DGNFRAME
280
2
  9
$REALWORLDSCALE
290
1
  9
$INTERFERECOLOR
 62
256
  9
$CSHADOW
280
0
  9
$SHADOWPLANELOCATION
 40
0.0
  0
ENDSEC
  0
SECTION
  2
CLASSES
  0
CLASS
  1
ACDBDICTIONARYWDFLT
  2
AcDbDictionaryWithDefault
  3
ObjectDBX Classes
 90
0
 91
0
280
0
281
0
  0
CLASS
  1
SUN
  2
AcDbSun
  3
SCENEOE
 90
1153
 91
0
280
0
281
0
  0
CLASS
  1
VISUALSTYLE
  2
AcDbVisualStyle
  3
ObjectDBX Classes
 90
4095
 91
0
280
0
281
0
  0
CLASS
  1
MATERIAL
  2
AcDbMaterial
  3
ObjectDBX Classes
 90
1153
 91
0
280
0
281
0
  0
CLASS
  1
SCALE
  2
AcDbScale
  3
ObjectDBX Classes
 90
1153
 91
0
280
0
281
0
  0
CLASS
  1
TABLESTYLE
  2
AcDbTableStyle
  3
ObjectDBX Classes
 90
4095
 91
0
280
0
281
0
  0
CLASS
  1
MLEADERSTYLE
  2
AcDbMLeaderStyle
  3
ACDB_MLEADERSTYLE_CLASS
 90
4095
 91
0
280
0
281
0
  0
CLASS
  1
DICTIONARYVAR
  2
AcDbDictionaryVar
  3
ObjectDBX Classes
 90
0
 91
0
280
0
281
0
  0
CLASS
  1
CELLSTYLEMAP
  2
AcDbCellStyleMap
  3
ObjectDBX Classes
 90
1152
 91
0
280
0
281
0
  0
CLASS
  1
MENTALRAYRENDERSETTINGS
  2
AcDbMentalRayRenderSettings
  3
SCENEOE
 90
1024
 91
0
280
0
281
0
  0
CLASS
  1
ACDBDETAILVIEWSTYLE
  2
AcDbDetailViewStyle
  3
ObjectDBX Classes
 90
1025
 91
0
280
0
281
0
  0
CLASS
  1
ACDBSECTIONVIEWSTYLE
  2
AcDbSectionViewStyle
  3
ObjectDBX Classes
 90
1025
 91
0
280
0
281
0
  0
CLASS
  1
RASTERVARIABLES
  2
AcDbRasterVariables
  3
ISM
 90
0
 91
0
280
0
281
0
  0
CLASS
  1
LAYOUT
  2
AcDbLayout
  3
ObjectDBX Classes
 90
0
 91
0
280
0
281
0
  0
CLASS
  1
ACDBPLACEHOLDER
  2
AcDbPlaceHolder
  3
ObjectDBX Classes
 90
0
 91
0
280
0
281
0
  0
ENDSEC
  0
SECTION
  2
TABLES
  0
TABLE
  2
VPORT
  5
8
330
0
100
AcDbSymbolTable
 70
1
  0
VPORT
  5
23
330
8
100
AcDbSymbolTableRecord
100
AcDbViewportTableRecord
  2
*Active
 70
0
 10
0.0
 20
0.0
 11
1.0
 21
1.0
 12
0.0
 22
0.0
 13
0.0
 23
0.0
 14
0.5
 24
0.5
 15
0.5
 25
0.5
 16
0.0
 26
0.0
 36
1.0
 17
0.0
 27
0.0
 37
0.0
 40
1000.0
 41
1.34
 42
50.0
 43
0.0
 44
0.0
 50
0.0
 51
0.0
 71
0
 72
1000
 73
1
 74
3
 75
0
 76
0
 77
0
 78
0
281
0
 65
0
146
0.0
  0
ENDTAB
  0
TABLE
  2
LTYPE
  5
2
330
0
100
AcDbSymbolTable
 70
21
  0
LTYPE
  5
24
330
2
100
AcDbSymbolTableRecord
100
AcDbLinetypeTableRecord
  2
ByBlock
 70
0
  3

 72
65
 73
0
 40
0.0
  0
LTYPE
  5
25
330
2
100
AcDbSymbolTableRecord
100
AcDbLinetypeTableRecord
  2
ByLayer
 70
0
  3

 72
65
 73
0
 40
0.0
  0
LTYPE
  5
26
330
2
100
AcDbSymbolTableRecord
100
AcDbLinetypeTableRecord
  2
Continuous
 70
0
  3

 72
65
 73
0
 40
0.0
  0
LTYPE
  5
2F
330
2
100
AcDbSymbolTableRecord
100
AcDbLinetypeTableRecord
  2
CENTER
 70
0
  3
Center ____ _ ____ _ ____ _ ____ _ ____ _ ____
 72
65
 73
4
 40
5.08
 49
3.175
 74
0
 49
-0.635
 74
0
 49
0.635
 74
0
 49
-0.635
 74
0
  0
LTYPE
  5
30
330
2
100
AcDbSymbolTableRecord
100
AcDbLinetypeTableRecord
  2
CENTERX2
 70
0
  3
Center (2x) ________  __  ________  __  ________
 72
65
 73
4
 40
8.89
 49
6.35
 74
0
 49
-0.635
 74
0
 49
1.27
 74
0
 49
-0.635
 74
0
  0
LTYPE
  5
31
330
2
100
AcDbSymbolTableRecord
100
AcDbLinetypeTableRecord
  2
CENTER2
 70
0
  3
Center (.5x) ____ _ ____ _ ____ _ ____ _ ____
 72
65
 73
4
 40
2.54
 49
1.587
 74
0
 49
-0.318
 74
0
 49
0.318
 74
0
 49
-0.318
 74
0
  0
LTYPE
  5
32
330
2
100
AcDbSymbolTableRecord
100
AcDbLinetypeTableRecord
  2
DASHED
 70
0
  3
Dashed __ __ __ __ __ __ __ __ __ __ __ __ __ _
 72
65
 73
2
 40
1.524
 49
1.27
 74
0
 49
-0.254
 74
0
  0
LTYPE
  5
33
330
2
100
AcDbSymbolTableRecord
100
AcDbLinetypeTableRecord
  2
DASHEDX2
 70
0
  3
Dashed (2x) ____  ____  ____  ____  ____  ____
 72
65
 73
2
 40
3.048
 49
2.54
 74
0
 49
-0.508
 74
0
  0
LTYPE
  5
34
330
2
100
AcDbSymbolTableRecord
100
AcDbLinetypeTableRecord
  2
DASHED2
 70
0
  3
Dashed (.5x) _ _ _ _ _ _ _ _ _ _ _ _ _ _
 72
65
 73
2
 40
0.762
 49
0.635
 74
0
 49
-0.127
 74
0
  0
LTYPE
  5
35
330
2
100
AcDbSymbolTableRecord
100
AcDbLinetypeTableRecord
  2
PHANTOM
 70
0
  3
Phantom ______  __  __  ______  __  __  ______
 72
65
 73
6
 40
6.35
 49
3.175
 74
0
 49
-0.635
 74
0
 49
0.635
 74
0
 49
-0.635
 74
0
 49
0.635
 74
0
 49
-0.635
 74
0
  0
LTYPE
  5
36
330
2
100
AcDbSymbolTableRecord
100
AcDbLinetypeTableRecord
  2
PHANTOMX2
 70
0
  3
Phantom (2x)____________    ____    ____    ____________
 72
65
 73
6
 40
10.795
 49
6.35
 74
0
 49
-0.635
 74
0
 49
1.27
 74
0
 49
-0.635
 74
0
 49
1.27
 74
0
 49
-0.635
 74
0
  0
LTYPE
  5
37
330
2
100
AcDbSymbolTableRecord
100
AcDbLinetypeTableRecord
  2
PHANTOM2
 70
0
  3
Phantom (.5x) ___ _ _ ___ _ _ ___ _ _ ___ _ _ ___
 72
65
 73
6
 40
3.175
 49
1.587
 74
0
 49
-0.318
 74
0
 49
0.318
 74
0
 49
-0.318
 74
0
 49
0.318
 74
0
 49
-0.318
 74
0
  0
LTYPE
  5
38
330
2
100
AcDbSymbolTableRecord
100
AcDbLinetypeTableRecord
  2
DASHDOT
 70
0
  3
Dash dot __ . __ . __ . __ . __ . __ . __ . __
 72
65
 73
4
 40
3.556
 49
2.54
 74
0
 49
-0.508
 74
0
 49
0.0
 74
0
 49
-0.508
 74
0
  0
LTYPE
  5
39
330
2
100
AcDbSymbolTableRecord
100
AcDbLinetypeTableRecord
  2
DASHDOTX2
 70
0
  3
Dash dot (2x) ____  .  ____  .  ____  .  ____
 72
65
 73
4
 40
6.096
 49
5.08
 74
0
 49
-0.508
 74
0
 49
0.0
 74
0
 49
-0.508
 74
0
  0
LTYPE
  5
3A
330
2
100
AcDbSymbolTableRecord
100
AcDbLinetypeTableRecord
  2
DASHDOT2
 70
0
  3
Dash dot (.5x) _ . _ . _ . _ . _ . _ . _ . _
 72
65
 73
4
 40
1.778
 49
1.27
 74
0
 49
-0.254
 74
0
 49
0.0
 74
0
 49
-0.254
 74
0
  0
LTYPE
  5
3B
330
2
100
AcDbSymbolTableRecord
100
AcDbLinetypeTableRecord
  2
DOT
 70
0
  3
Dot .  .  .  .  .  .  .  .  .  .  .  .  .  .  .  .
 72
65
 73
2
 40
0.508
 49
0.0
 74
0
 49
-0.508
 74
0
  0
LTYPE
  5
3C
330
2
100
AcDbSymbolTableRecord
100
AcDbLinetypeTableRecord
  2
DOTX2
 70
0
  3
Dot (2x) .    .    .    .    .    .    .    . 
 72
65
 73
2
 40
1.016
 49
0.0
 74
0
 49
-1.016
 74
0
  0
LTYPE
  5
3D
330
2
100
AcDbSymbolTableRecord
100
AcDbLinetypeTableRecord
  2
DOT2
 70
0
  3
Dot (.5) . . . . . . . . . . . . . . . . . . . 
 72
65
 73
2
 40
0.254
 49
0.0
 74
0
 49
-0.254
 74
0
  0
LTYPE
  5
3E
330
2
100
AcDbSymbolTableRecord
100
AcDbLinetypeTableRecord
  2
DIVIDE
 70
0
  3
Divide __ . . __ . . __ . . __ . . __ . . __
 72
65
 73
6
 40
4.064
 49
2.54
 74
0
 49
-0.508
 74
0
 49
0.0
 74
0
 49
-0.508
 74
0
 49
0.0
 74
0
 49
-0.508
 74
0
  0
LTYPE
  5
3F
330
2
100
AcDbSymbolTableRecord
100
AcDbLinetypeTableRecord
  2
DIVIDEX2
 70
0
  3
Divide (2x) ____  . .  ____  . .  ____  . .  ____
 72
65
 73
6
 40
6.604
 49
5.08
 74
0
 49
-0.508
 74
0
 49
0.0
 74
0
 49
-0.508
 74
0
 49
0.0
 74
0
 49
-0.508
 74
0
  0
LTYPE
  5
40
330
2
100
AcDbSymbolTableRecord
100
AcDbLinetypeTableRecord
  2
DIVIDE2
 70
0
  3
Divide(.5x) _ . _ . _ . _ . _ . _ . _ . _
 72
65
 73
6
 40
2.032
 49
1.27
 74
0
 49
-0.254
 74
0
 49
0.0
 74
0
 49
-0.254
 74
0
 49
0.0
 74
0
 49
-0.254
 74
0
  0
ENDTAB
  0
TABLE
  2
LAYER
  5
1
330
0
100
AcDbSymbolTable
 70
24
  0
LAYER
  5
27
330
1
100
AcDbSymbolTableRecord
100
AcDbLayerTableRecord
  2
0
 70
0
 62
7
  6
Continuous
370
-3
390
13
347
21
  0
LAYER
  5
28
330
1
100
AcDbSymbolTableRecord
100
AcDbLayerTableRecord
  2
Defpoints
 70
0
 62
7
  6
Continuous
290
0
370
-3
390
13
347
21
  0
LAYER
  5
8A
330
1
100
AcDbSymbolTableRecord
100
AcDbLayerTableRecord
  2
A-WALL
 70
0
 62
7
  6
Continuous
370
-3
390
13
347
21
  0
LAYER
  5
8B
330
1
100
AcDbSymbolTableRecord
100
AcDbLayerTableRecord
  2
A-DOOR
 70
0
 62
3
  6
Continuous
370
-3
390
13
347
21
  0
LAYER
  5
8C
330
1
100
AcDbSymbolTableRecord
100
AcDbLayerTableRecord
  2
A-GLAZ
 70
0
 62
4
  6
Continuous
370
-3
390
13
347
21
  0
LAYER
  5
8D
330
1
100
AcDbSymbolTableRecord
100
AcDbLayerTableRecord
  2
A-DECK
 70
0
 62
32
  6
Continuous
370
-3
390
13
347
21
  0
LAYER
  5
8E
330
1
100
AcDbSymbolTableRecord
100
AcDbLayerTableRecord
  2
A-ROOF-OUTL
 70
0
 62
8
  6
Continuous
370
-3
390
13
347
21
  0
LAYER
  5
8F
330
1
100
AcDbSymbolTableRecord
100
AcDbLayerTableRecord
  2
A-FURN
 70
0
 62
9
  6
Continuous
370
-3
390
13
347
21
  0
LAYER
  5
90
330
1
100
AcDbSymbolTableRecord
100
AcDbLayerTableRecord
  2
A-ANNO
 70
0
 62
2
  6
Continuous
370
-3
390
13
347
21
  0
LAYER
  5
91
330
1
100
AcDbSymbolTableRecord
100
AcDbLayerTableRecord
  2
M-FOUNDATION
 70
0
 62
7
420
4868682
  6
Continuous
370
-3
390
13
347
21
  0
LAYER
  5
93
330
1
100
AcDbSymbolTableRecord
100
AcDbLayerTableRecord
  2
M-LATTICE
 70
0
 62
7
420
3092277
  6
Continuous
370
-3
390
13
347
21
  0
LAYER
  5
95
330
1
100
AcDbSymbolTableRecord
100
AcDbLayerTableRecord
  2
M-WALLS
 70
0
 62
7
420
3881544
  6
Continuous
370
-3
390
13
347
21
  0
LAYER
  5
97
330
1
100
AcDbSymbolTableRecord
100
AcDbLayerTableRecord
  2
M-ROOF
 70
0
 62
7
420
2368552
  6
Continuous
370
-3
390
13
347
21
  0
LAYER
  5
99
330
1
100
AcDbSymbolTableRecord
100
AcDbLayerTableRecord
  2
M-ATTIC-WALL
 70
0
 62
7
420
3881544
  6
Continuous
370
-3
390
13
347
21
  0
LAYER
  5
9B
330
1
100
AcDbSymbolTableRecord
100
AcDbLayerTableRecord
  2
M-TURRET
 70
0
 62
7
420
3355199
  6
Continuous
370
-3
390
13
347
21
  0
LAYER
  5
9D
330
1
100
AcDbSymbolTableRecord
100
AcDbLayerTableRecord
  2
M-TURRET-ROOF
 70
0
 62
7
420
1776415
  6
Continuous
370
-3
390
13
347
21
  0
LAYER
  5
9F
330
1
100
AcDbSymbolTableRecord
100
AcDbLayerTableRecord
  2
M-PORCH
 70
0
 62
7
420
7170677
  6
Continuous
370
-3
390
13
347
21
  0
LAYER
  5
A1
330
1
100
AcDbSymbolTableRecord
100
AcDbLayerTableRecord
  2
M-POSTS
 70
0
 62
7
420
9078676
  6
Continuous
370
-3
390
13
347
21
  0
LAYER
  5
A3
330
1
100
AcDbSymbolTableRecord
100
AcDbLayerTableRecord
  2
M-RAILING
 70
0
 62
7
420
9078676
  6
Continuous
370
-3
390
13
347
21
  0
LAYER
  5
A5
330
1
100
AcDbSymbolTableRecord
100
AcDbLayerTableRecord
  2
M-WINDOWS
 70
0
 62
7
420
15909198
  6
Continuous
370
-3
390
13
347
21
  0
LAYER
  5
A7
330
1
100
AcDbSymbolTableRecord
100
AcDbLayerTableRecord
  2
M-DOOR
 70
0
 62
7
420
1710618
  6
Continuous
370
-3
390
13
347
21
  0
LAYER
  5
A9
330
1
100
AcDbSymbolTableRecord
100
AcDbLayerTableRecord
  2
M-CHIMNEY
 70
0
 62
7
420
5913136
  6
Continuous
370
-3
390
13
347
21
  0
LAYER
  5
AB
330
1
100
AcDbSymbolTableRecord
100
AcDbLayerTableRecord
  2
M-TRIM
 70
0
 62
7
420
1381658
  6
Continuous
370
-3
390
13
347
21
  0
LAYER
  5
AD
330
1
100
AcDbSymbolTableRecord
100
AcDbLayerTableRecord
  2
M-WEATHERVANE
 70
0
 62
7
420
9078676
  6
Continuous
370
-3
390
13
347
21
  0
ENDTAB
  0
TABLE
  2
STYLE
  5
5
330
0
100
AcDbSymbolTable
 70
26
  0
STYLE
  5
29
330
5
100
AcDbSymbolTableRecord
100
AcDbTextStyleTableRecord
  2
Standard
 70
0
 40
0.0
 41
1.0
 50
0.0
 71
0
 42
2.5
  3
txt
  4

  0
STYLE
  5
41
330
5
100
AcDbSymbolTableRecord
100
AcDbTextStyleTableRecord
  2
OpenSans-Light
 70
0
 40
0.0
 41
1.0
 50
0.0
 71
0
 42
2.5
  3
OpenSans-Light.ttf
  4

  0
STYLE
  5
42
330
5
100
AcDbSymbolTableRecord
100
AcDbTextStyleTableRecord
  2
OpenSans-Light-Italic
 70
0
 40
0.0
 41
1.0
 50
0.0
 71
0
 42
2.5
  3
OpenSans-LightItalic.ttf
  4

  0
STYLE
  5
43
330
5
100
AcDbSymbolTableRecord
100
AcDbTextStyleTableRecord
  2
OpenSans
 70
0
 40
0.0
 41
1.0
 50
0.0
 71
0
 42
2.5
  3
OpenSans-Regular.ttf
  4

  0
STYLE
  5
44
330
5
100
AcDbSymbolTableRecord
100
AcDbTextStyleTableRecord
  2
OpenSans-Italic
 70
0
 40
0.0
 41
1.0
 50
0.0
 71
0
 42
2.5
  3
OpenSans-Italic.ttf
  4

  0
STYLE
  5
45
330
5
100
AcDbSymbolTableRecord
100
AcDbTextStyleTableRecord
  2
OpenSans-SemiBold
 70
0
 40
0.0
 41
1.0
 50
0.0
 71
0
 42
2.5
  3
OpenSans-SemiBold.ttf
  4

  0
STYLE
  5
46
330
5
100
AcDbSymbolTableRecord
100
AcDbTextStyleTableRecord
  2
OpenSans-SemiBoldItalic
 70
0
 40
0.0
 41
1.0
 50
0.0
 71
0
 42
2.5
  3
OpenSans-SemiBoldItalic.ttf
  4

  0
STYLE
  5
47
330
5
100
AcDbSymbolTableRecord
100
AcDbTextStyleTableRecord
  2
OpenSans-Bold
 70
0
 40
0.0
 41
1.0
 50
0.0
 71
0
 42
2.5
  3
OpenSans-Bold.ttf
  4

  0
STYLE
  5
48
330
5
100
AcDbSymbolTableRecord
100
AcDbTextStyleTableRecord
  2
OpenSans-BoldItalic
 70
0
 40
0.0
 41
1.0
 50
0.0
 71
0
 42
2.5
  3
OpenSans-BoldItalic.ttf
  4

  0
STYLE
  5
49
330
5
100
AcDbSymbolTableRecord
100
AcDbTextStyleTableRecord
  2
OpenSans-ExtraBold
 70
0
 40
0.0
 41
1.0
 50
0.0
 71
0
 42
2.5
  3
OpenSans-ExtraBold.ttf
  4

  0
STYLE
  5
4A
330
5
100
AcDbSymbolTableRecord
100
AcDbTextStyleTableRecord
  2
OpenSans-ExtraBoldItalic
 70
0
 40
0.0
 41
1.0
 50
0.0
 71
0
 42
2.5
  3
OpenSans-ExtraBoldItalic.ttf
  4

  0
STYLE
  5
4B
330
5
100
AcDbSymbolTableRecord
100
AcDbTextStyleTableRecord
  2
OpenSansCondensed-Bold
 70
0
 40
0.0
 41
1.0
 50
0.0
 71
0
 42
2.5
  3
OpenSansCondensed-Bold.ttf
  4

  0
STYLE
  5
4C
330
5
100
AcDbSymbolTableRecord
100
AcDbTextStyleTableRecord
  2
OpenSansCondensed-Light
 70
0
 40
0.0
 41
1.0
 50
0.0
 71
0
 42
2.5
  3
OpenSansCondensed-Light.ttf
  4

  0
STYLE
  5
4D
330
5
100
AcDbSymbolTableRecord
100
AcDbTextStyleTableRecord
  2
OpenSansCondensed-Italic
 70
0
 40
0.0
 41
1.0
 50
0.0
 71
0
 42
2.5
  3
OpenSansCondensed-LightItalic.ttf
  4

  0
STYLE
  5
4E
330
5
100
AcDbSymbolTableRecord
100
AcDbTextStyleTableRecord
  2
LiberationSans
 70
0
 40
0.0
 41
1.0
 50
0.0
 71
0
 42
2.5
  3
LiberationSans-Regular.ttf
  4

  0
STYLE
  5
4F
330
5
100
AcDbSymbolTableRecord
100
AcDbTextStyleTableRecord
  2
LiberationSans-Bold
 70
0
 40
0.0
 41
1.0
 50
0.0
 71
0
 42
2.5
  3
LiberationSans-Bold.ttf
  4

  0
STYLE
  5
50
330
5
100
AcDbSymbolTableRecord
100
AcDbTextStyleTableRecord
  2
LiberationSans-BoldItalic
 70
0
 40
0.0
 41
1.0
 50
0.0
 71
0
 42
2.5
  3
LiberationSans-BoldItalic.ttf
  4

  0
STYLE
  5
51
330
5
100
AcDbSymbolTableRecord
100
AcDbTextStyleTableRecord
  2
LiberationSans-Italic
 70
0
 40
0.0
 41
1.0
 50
0.0
 71
0
 42
2.5
  3
LiberationSans-Italic.ttf
  4

  0
STYLE
  5
52
330
5
100
AcDbSymbolTableRecord
100
AcDbTextStyleTableRecord
  2
LiberationSerif
 70
0
 40
0.0
 41
1.0
 50
0.0
 71
0
 42
2.5
  3
LiberationSerif-Regular.ttf
  4

  0
STYLE
  5
53
330
5
100
AcDbSymbolTableRecord
100
AcDbTextStyleTableRecord
  2
LiberationSerif-Bold
 70
0
 40
0.0
 41
1.0
 50
0.0
 71
0
 42
2.5
  3
LiberationSerif-Bold.ttf
  4

  0
STYLE
  5
54
330
5
100
AcDbSymbolTableRecord
100
AcDbTextStyleTableRecord
  2
LiberationSerif-BoldItalic
 70
0
 40
0.0
 41
1.0
 50
0.0
 71
0
 42
2.5
  3
LiberationSerif-BoldItalic.ttf
  4

  0
STYLE
  5
55
330
5
100
AcDbSymbolTableRecord
100
AcDbTextStyleTableRecord
  2
LiberationSerif-Italic
 70
0
 40
0.0
 41
1.0
 50
0.0
 71
0
 42
2.5
  3
LiberationSerif-Italic.ttf
  4

  0
STYLE
  5
56
330
5
100
AcDbSymbolTableRecord
100
AcDbTextStyleTableRecord
  2
LiberationMono
 70
0
 40
0.0
 41
1.0
 50
0.0
 71
0
 42
2.5
  3
LiberationMono-Regular.ttf
  4

  0
STYLE
  5
57
330
5
100
AcDbSymbolTableRecord
100
AcDbTextStyleTableRecord
  2
LiberationMono-Bold
 70
0
 40
0.0
 41
1.0
 50
0.0
 71
0
 42
2.5
  3
LiberationMono-Bold.ttf
  4

  0
STYLE
  5
58
330
5
100
AcDbSymbolTableRecord
100
AcDbTextStyleTableRecord
  2
LiberationMono-BoldItalic
 70
0
 40
0.0
 41
1.0
 50
0.0
 71
0
 42
2.5
  3
LiberationMono-BoldItalic.ttf
  4

  0
STYLE
  5
59
330
5
100
AcDbSymbolTableRecord
100
AcDbTextStyleTableRecord
  2
LiberationMono-Italic
 70
0
 40
0.0
 41
1.0
 50
0.0
 71
0
 42
2.5
  3
LiberationMono-Italic.ttf
  4

  0
ENDTAB
  0
TABLE
  2
VIEW
  5
7
330
0
100
AcDbSymbolTable
 70
0
  0
ENDTAB
  0
TABLE
  2
UCS
  5
6
330
0
100
AcDbSymbolTable
 70
0
  0
ENDTAB
  0
TABLE
  2
APPID
  5
3
330
0
100
AcDbSymbolTable
 70
3
  0
APPID
  5
2A
330
3
100
AcDbSymbolTableRecord
100
AcDbRegAppTableRecord
  2
ACAD
 70
0
  0
APPID
  5
CA
330
3
100
AcDbSymbolTableRecord
100
AcDbRegAppTableRecord
  2
HATCHBACKGROUNDCOLOR
 70
0
  0
APPID
  5
CB
330
3
100
AcDbSymbolTableRecord
100
AcDbRegAppTableRecord
  2
EZDXF
 70
0
  0
ENDTAB
  0
TABLE
  2
DIMSTYLE
  5
4
330
0
100
AcDbSymbolTable
 70
12
100
AcDbDimStyleTable
  0
DIMSTYLE
105
2B
330
4
100
AcDbSymbolTableRecord
100
AcDbDimStyleTableRecord
  2
Standard
 70
0
 40
1.0
 41
2.5
 42
0.625
 43
3.75
 44
1.25
 45
0.0
 46
0.0
 47
0.0
 48
0.0
 49
2.5
140
2.5
141
2.5
142
0.0
143
0.03937007874
144
1.0
145
0.0
146
1.0
147
0.625
148
0.0
 69
0
 70
0
 71
0
 72
0
 73
0
 74
0
 75
0
 76
0
 77
1
 78
8
 79
3
170
0
171
3
172
1
173
0
174
0
175
0
176
0
177
0
178
0
179
2
271
2
272
2
273
2
274
3
275
0
276
0
277
2
278
44
279
0
280
0
281
0
282
0
283
0
284
8
285
0
286
0
288
0
289
3
290
0
371
-2
372
-2
  0
DIMSTYLE
105
73
330
4
100
AcDbSymbolTableRecord
100
AcDbDimStyleTableRecord
  2
EZDXF
 70
0
 40
1.0
 41
0.175
 42
0.125
 43
3.75
 44
0.375
 45
0.0
 46
0.0
 47
0.0
 48
0.0
 49
2.5
140
0.25
141
2.5
142
0.0
143
0.03937007874
144
100.0
145
0.0
146
0.5
147
0.1
148
0.0
 69
0
 70
0
 71
0
 72
0
 73
0
 74
0
 75
0
 76
0
 77
1
 78
12
 79
3
170
0
171
3
172
1
173
0
174
0
175
0
176
0
177
0
178
0
179
2
271
2
272
2
273
2
274
3
275
0
276
0
277
2
278
46
279
2
280
0
281
0
282
0
283
0
284
8
285
0
286
0
288
1
289
3
290
0
340
4C
342
74
371
-2
372
-2
  0
DIMSTYLE
105
7C
330
4
100
AcDbSymbolTableRecord
100
AcDbDimStyleTableRecord
  2
EZ_M_100_H25_CM
 70
0
 40
1.0
 41
0.25
 42
0.125
 43
3.75
 44
0.375
 45
0.0
 46
0.0
 47
0.0
 48
0.0
 49
2.5
140
0.25
141
2.5
142
0.125
143
0.03937007874
144
100.0
145
0.0
146
0.5
147
0.1
148
0.0
 69
0
 70
0
 71
0
 72
0
 73
0
 74
0
 75
0
 76
0
 77
1
 78
12
 79
3
170
0
171
3
172
1
173
0
174
0
175
0
176
0
177
0
178
0
179
2
271
2
272
2
273
2
274
3
275
0
276
0
277
2
278
46
279
2
280
0
281
0
282
0
283
0
284
8
285
0
286
0
288
1
289
3
290
0
340
4C
371
-2
372
-2
  0
DIMSTYLE
105
7D
330
4
100
AcDbSymbolTableRecord
100
AcDbDimStyleTableRecord
  2
EZ_M_50_H25_CM
 70
0
 40
1.0
 41
0.125
 42
0.0625
 43
3.75
 44
0.1875
 45
0.0
 46
0.0
 47
0.0
 48
0.0
 49
2.5
140
0.125
141
2.5
142
0.0625
143
0.03937007874
144
100.0
145
0.0
146
0.5
147
0.05
148
0.0
 69
0
 70
0
 71
0
 72
0
 73
0
 74
0
 75
0
 76
0
 77
1
 78
12
 79
3
170
0
171
3
172
1
173
0
174
0
175
0
176
0
177
0
178
0
179
2
271
2
272
2
273
2
274
3
275
0
276
0
277
2
278
46
279
2
280
0
281
0
282
0
283
0
284
8
285
0
286
0
288
1
289
3
290
0
340
4C
371
-2
372
-2
  0
DIMSTYLE
105
7E
330
4
100
AcDbSymbolTableRecord
100
AcDbDimStyleTableRecord
  2
EZ_M_25_H25_CM
 70
0
 40
1.0
 41
0.0625
 42
0.03125
 43
3.75
 44
0.09375
 45
0.0
 46
0.0
 47
0.0
 48
0.0
 49
2.5
140
0.0625
141
2.5
142
0.03125
143
0.03937007874
144
100.0
145
0.0
146
0.5
147
0.025
148
0.0
 69
0
 70
0
 71
0
 72
0
 73
0
 74
0
 75
0
 76
0
 77
1
 78
12
 79
3
170
0
171
3
172
1
173
0
174
0
175
0
176
0
177
0
178
0
179
2
271
2
272
2
273
2
274
3
275
0
276
0
277
2
278
46
279
2
280
0
281
0
282
0
283
0
284
8
285
0
286
0
288
1
289
3
290
0
340
4C
371
-2
372
-2
  0
DIMSTYLE
105
7F
330
4
100
AcDbSymbolTableRecord
100
AcDbDimStyleTableRecord
  2
EZ_M_20_H25_CM
 70
0
 40
1.0
 41
0.05
 42
0.025
 43
3.75
 44
0.07500000000000001
 45
0.0
 46
0.0
 47
0.0
 48
0.0
 49
2.5
140
0.05
141
2.5
142
0.025
143
0.03937007874
144
100.0
145
0.0
146
0.5
147
0.020000000000000004
148
0.0
 69
0
 70
0
 71
0
 72
0
 73
0
 74
0
 75
0
 76
0
 77
1
 78
12
 79
3
170
0
171
3
172
1
173
0
174
0
175
0
176
0
177
0
178
0
179
2
271
2
272
2
273
2
274
3
275
0
276
0
277
2
278
46
279
2
280
0
281
0
282
0
283
0
284
8
285
0
286
0
288
1
289
3
290
0
340
4C
371
-2
372
-2
  0
DIMSTYLE
105
80
330
4
100
AcDbSymbolTableRecord
100
AcDbDimStyleTableRecord
  2
EZ_M_10_H25_CM
 70
0
 40
1.0
 41
0.025
 42
0.0125
 43
3.75
 44
0.037500000000000006
 45
0.0
 46
0.0
 47
0.0
 48
0.0
 49
2.5
140
0.025
141
2.5
142
0.0125
143
0.03937007874
144
100.0
145
0.0
146
0.5
147
0.010000000000000002
148
0.0
 69
0
 70
0
 71
0
 72
0
 73
0
 74
0
 75
0
 76
0
 77
1
 78
12
 79
3
170
0
171
3
172
1
173
0
174
0
175
0
176
0
177
0
178
0
179
2
271
2
272
2
273
2
274
3
275
0
276
0
277
2
278
46
279
2
280
0
281
0
282
0
283
0
284
8
285
0
286
0
288
1
289
3
290
0
340
4C
371
-2
372
-2
  0
DIMSTYLE
105
81
330
4
100
AcDbSymbolTableRecord
100
AcDbDimStyleTableRecord
  2
EZ_M_5_H25_CM
 70
0
 40
1.0
 41
0.0125
 42
0.00625
 43
3.75
 44
0.018750000000000003
 45
0.0
 46
0.0
 47
0.0
 48
0.0
 49
2.5
140
0.0125
141
2.5
142
0.00625
143
0.03937007874
144
100.0
145
0.0
146
0.5
147
0.005000000000000001
148
0.0
 69
0
 70
0
 71
0
 72
0
 73
0
 74
0
 75
0
 76
0
 77
1
 78
12
 79
3
170
0
171
3
172
1
173
0
174
0
175
0
176
0
177
0
178
0
179
2
271
2
272
2
273
2
274
3
275
0
276
0
277
2
278
46
279
2
280
0
281
0
282
0
283
0
284
8
285
0
286
0
288
1
289
3
290
0
340
4C
371
-2
372
-2
  0
DIMSTYLE
105
82
330
4
100
AcDbSymbolTableRecord
100
AcDbDimStyleTableRecord
  2
EZ_M_1_H25_CM
 70
0
 40
1.0
 41
0.0025
 42
0.00125
 43
3.75
 44
0.00375
 45
0.0
 46
0.0
 47
0.0
 48
0.0
 49
2.5
140
0.0025
141
2.5
142
0.00125
143
0.03937007874
144
100.0
145
0.0
146
0.5
147
0.001
148
0.0
 69
0
 70
0
 71
0
 72
0
 73
0
 74
0
 75
0
 76
0
 77
1
 78
12
 79
3
170
0
171
3
172
1
173
0
174
0
175
0
176
0
177
0
178
0
179
2
271
2
272
2
273
2
274
3
275
0
276
0
277
2
278
46
279
2
280
0
281
0
282
0
283
0
284
8
285
0
286
0
288
1
289
3
290
0
340
4C
371
-2
372
-2
  0
DIMSTYLE
105
83
330
4
100
AcDbSymbolTableRecord
100
AcDbDimStyleTableRecord
  2
EZ_RADIUS
 70
0
 40
1.0
 41
0.25
 42
0.125
 43
3.75
 44
0.375
 45
0.0
 46
0.0
 47
0.0
 48
0.0
 49
2.5
140
0.25
141
0.0
142
0.0
143
0.03937007874
144
100.0
145
0.0
146
0.5
147
0.1
148
0.0
 69
0
 70
0
 71
0
 72
0
 73
0
 74
0
 75
0
 76
0
 77
1
 78
12
 79
3
170
0
171
3
172
0
173
0
174
0
175
0
176
0
177
0
178
0
179
2
271
2
272
2
273
2
274
3
275
0
276
0
277
2
278
46
279
1
280
0
281
0
282
0
283
0
284
8
285
0
286
0
288
1
289
3
290
0
340
4C
342
84
371
-2
372
-2
  0
DIMSTYLE
105
88
330
4
100
AcDbSymbolTableRecord
100
AcDbDimStyleTableRecord
  2
EZ_RADIUS_INSIDE
 70
0
 40
1.0
 41
0.25
 42
0.125
 43
3.75
 44
0.375
 45
0.0
 46
0.0
 47
0.0
 48
0.0
 49
2.5
140
0.25
141
0.0
142
0.0
143
0.03937007874
144
100.0
145
0.0
146
0.5
147
0.1
148
0.0
 69
0
 70
0
 71
0
 72
0
 73
0
 74
0
 75
0
 76
0
 77
0
 78
12
 79
3
170
0
171
3
172
0
173
0
174
1
175
0
176
0
177
0
178
0
179
2
271
2
272
2
273
2
274
3
275
0
276
0
277
2
278
46
279
0
280
0
281
0
282
0
283
0
284
8
285
0
286
0
288
1
289
0
290
0
340
4C
342
84
371
-2
372
-2
  0
DIMSTYLE
105
89
330
4
100
AcDbSymbolTableRecord
100
AcDbDimStyleTableRecord
  2
EZ_CURVED
 70
0
 40
1.0
 41
0.25
 42
0.125
 43
3.75
 44
0.375
 45
0.0
 46
0.0
 47
0.0
 48
0.0
 49
2.5
140
0.25
141
2.5
142
0.0
143
0.03937007874
144
100.0
145
0.0
146
0.5
147
0.1
148
0.0
 69
0
 70
0
 71
0
 72
0
 73
0
 74
0
 75
0
 76
0
 77
1
 78
12
 79
2
 90
2
170
0
171
3
172
1
173
0
174
0
175
0
176
0
177
0
178
0
179
2
271
2
272
2
273
2
274
3
275
0
276
0
277
2
278
46
279
2
280
0
281
0
282
0
283
0
284
8
285
0
286
0
288
1
289
3
290
0
340
4C
371
-2
372
-2
  0
ENDTAB
  0
TABLE
  2
BLOCK_RECORD
  5
9
330
0
100
AcDbSymbolTable
 70
5
  0
BLOCK_RECORD
  5
17
330
9
100
AcDbSymbolTableRecord
100
AcDbBlockTableRecord
  2
*Model_Space
340
1A
 70
0
280
1
281
0
  0
BLOCK_RECORD
  5
1B
330
9
100
AcDbSymbolTableRecord
100
AcDbBlockTableRecord
  2
*Paper_Space
340
1E
 70
0
280
1
281
0
  0
BLOCK_RECORD
  5
74
330
9
100
AcDbSymbolTableRecord
100
AcDbBlockTableRecord
  2
_ARCHTICK
340
0
 70
0
280
1
281
0
  0
BLOCK_RECORD
  5
78
330
9
100
AcDbSymbolTableRecord
100
AcDbBlockTableRecord
  2
_CLOSEDFILLED
340
0
 70
0
280
1
281
0
  0
BLOCK_RECORD
  5
84
330
9
100
AcDbSymbolTableRecord
100
AcDbBlockTableRecord
  2
_CLOSEDBLANK
340
0
 70
0
280
1
281
0
  0
ENDTAB
  0
ENDSEC
  0
SECTION
  2
BLOCKS
  0
BLOCK
  5
18
330
17
100
AcDbEntity
  8
0
100
AcDbBlockBegin
  2
*Model_Space
 70
0
 10
0.0
 20
0.0
 30
0.0
  3
*Model_Space
  1

  0
ENDBLK
  5
19
330
17
100
AcDbEntity
  8
0
100
AcDbBlockEnd
  0
BLOCK
  5
1C
330
1B
100
AcDbEntity
  8
0
100
AcDbBlockBegin
  2
*Paper_Space
 70
0
 10
0.0
 20
0.0
 30
0.0
  3
*Paper_Space
  1

  0
ENDBLK
  5
1D
330
1B
100
AcDbEntity
  8
0
100
AcDbBlockEnd
  0
BLOCK
  5
75
330
74
100
AcDbEntity
  8
0
100
AcDbBlockBegin
  2
_ARCHTICK
 70
0
 10
0.0
 20
0.0
 30
0.0
  3
_ARCHTICK
  1

  0
LWPOLYLINE
  5
77
330
74
100
AcDbEntity
  8
0
  6
BYBLOCK
 62
0
100
AcDbPolyline
 90
2
 70
0
 43
0.15
 10
-0.5
 20
-0.5
 10
0.5
 20
0.5
  0
ENDBLK
  5
76
330
74
100
AcDbEntity
  8
0
100
AcDbBlockEnd
  0
BLOCK
  5
79
330
78
100
AcDbEntity
  8
0
100
AcDbBlockBegin
  2
_CLOSEDFILLED
 70
0
 10
0.0
 20
0.0
 30
0.0
  3
_CLOSEDFILLED
  1

  0
SOLID
  5
7B
330
78
100
AcDbEntity
  8
0
  6
BYBLOCK
 62
0
100
AcDbTrace
 10
-1.0
 20
0.16439898372402537
 30
0.0
 11
0.0
 21
0.0
 31
0.0
 12
-1.0
 22
-0.16439898372402537
 32
0.0
 13
-1.0
 23
-0.16439898372402537
 33
0.0
  0
ENDBLK
  5
7A
330
78
100
AcDbEntity
  8
0
100
AcDbBlockEnd
  0
BLOCK
  5
85
330
84
100
AcDbEntity
  8
0
100
AcDbBlockBegin
  2
_CLOSEDBLANK
 70
0
 10
0.0
 20
0.0
 30
0.0
  3
_CLOSEDBLANK
  1

  0
LWPOLYLINE
  5
87
330
84
100
AcDbEntity
  8
0
  6
BYBLOCK
 62
0
100
AcDbPolyline
 90
3
 70
1
 10
-1.0
 20
0.16439898372402537
 10
0.0
 20
0.0
 10
-1.0
 20
-0.16439898372402537
  0
ENDBLK
  5
86
330
84
100
AcDbEntity
  8
0
100
AcDbBlockEnd
  0
ENDSEC
  0
SECTION
  2
ENTITIES
  0
MESH
  5
92
330
17
100
AcDbEntity
  8
M-FOUNDATION
100
AcDbSubDMesh
 71
2
 72
0
 91
0
 92
24
 10
-6.5
 20
17.5
 30
0.0
 10
6.5
 20
17.5
 30
0.0
 10
6.5
 20
-5.5
 30
0.0
 10
-6.5
 20
-5.5
 30
0.0
 10
-6.5
 20
-5.5
 30
3.0
 10
6.5
 20
-5.5
 30
3.0
 10
6.5
 20
17.5
 30
3.0
 10
-6.5
 20
17.5
 30
3.0
 10
-6.5
 20
-5.5
 30
0.0
 10
6.5
 20
-5.5
 30
0.0
 10
6.5
 20
-5.5
 30
3.0
 10
-6.5
 20
-5.5
 30
3.0
 10
6.5
 20
-5.5
 30
0.0
 10
6.5
 20
17.5
 30
0.0
 10
6.5
 20
17.5
 30
3.0
 10
6.5
 20
-5.5
 30
3.0
 10
6.5
 20
17.5
 30
0.0
 10
-6.5
 20
17.5
 30
0.0
 10
-6.5
 20
17.5
 30
3.0
 10
6.5
 20
17.5
 30
3.0
 10
-6.5
 20
17.5
 30
0.0
 10
-6.5
 20
-5.5
 30
0.0
 10
-6.5
 20
-5.5
 30
3.0
 10
-6.5
 20
17.5
 30
3.0
 93
48
 90
3
 90
0
 90
1
 90
2
 90
3
 90
0
 90
2
 90
3
 90
3
 90
4
 90
5
 90
6
 90
3
 90
4
 90
6
 90
7
 90
3
 90
8
 90
9
 90
10
 90
3
 90
8
 90
10
 90
11
 90
3
 90
12
 90
13
 90
14
 90
3
 90
12
 90
14
 90
15
 90
3
 90
16
 90
17
 90
18
 90
3
 90
16
 90
18
 90
19
 90
3
 90
20
 90
21
 90
22
 90
3
 90
20
 90
22
 90
23
 94
0
 95
0
 90
0
  0
MESH
  5
94
330
17
100
AcDbEntity
  8
M-LATTICE
100
AcDbSubDMesh
 71
2
 72
0
 91
0
 92
24
 10
-7.0
 20
-5.7
 30
0.0
 10
7.0
 20
-5.7
 30
0.0
 10
7.0
 20
-6.0
 30
0.0
 10
-7.0
 20
-6.0
 30
0.0
 10
-7.0
 20
-6.0
 30
3.0
 10
7.0
 20
-6.0
 30
3.0
 10
7.0
 20
-5.7
 30
3.0
 10
-7.0
 20
-5.7
 30
3.0
 10
-7.0
 20
-6.0
 30
0.0
 10
7.0
 20
-6.0
 30
0.0
 10
7.0
 20
-6.0
 30
3.0
 10
-7.0
 20
-6.0
 30
3.0
 10
7.0
 20
-6.0
 30
0.0
 10
7.0
 20
-5.7
 30
0.0
 10
7.0
 20
-5.7
 30
3.0
 10
7.0
 20
-6.0
 30
3.0
 10
7.0
 20
-5.7
 30
0.0
 10
-7.0
 20
-5.7
 30
0.0
 10
-7.0
 20
-5.7
 30
3.0
 10
7.0
 20
-5.7
 30
3.0
 10
-7.0
 20
-5.7
 30
0.0
 10
-7.0
 20
-6.0
 30
0.0
 10
-7.0
 20
-6.0
 30
3.0
 10
-7.0
 20
-5.7
 30
3.0
 93
48
 90
3
 90
0
 90
1
 90
2
 90
3
 90
0
 90
2
 90
3
 90
3
 90
4
 90
5
 90
6
 90
3
 90
4
 90
6
 90
7
 90
3
 90
8
 90
9
 90
10
 90
3
 90
8
 90
10
 90
11
 90
3
 90
12
 90
13
 90
14
 90
3
 90
12
 90
14
 90
15
 90
3
 90
16
 90
17
 90
18
 90
3
 90
16
 90
18
 90
19
 90
3
 90
20
 90
21
 90
22
 90
3
 90
20
 90
22
 90
23
 94
0
 95
0
 90
0
  0
MESH
  5
96
330
17
100
AcDbEntity
  8
M-WALLS
100
AcDbSubDMesh
 71
2
 72
0
 91
0
 92
30
 10
-7.0
 20
18.0
 30
3.0
 10
7.0
 20
18.0
 30
3.0
 10
7.0
 20
-6.0
 30
3.0
 10
-7.0
 20
-6.0
 30
3.0
 10
-7.0
 20
-6.0
 30
13.0
 10
7.0
 20
-6.0
 30
13.0
 10
7.0
 20
18.0
 30
13.0
 10
-7.0
 20
18.0
 30
13.0
 10
-7.0
 20
-6.0
 30
3.0
 10
7.0
 20
-6.0
 30
3.0
 10
7.0
 20
-6.0
 30
13.0
 10
-7.0
 20
-6.0
 30
13.0
 10
7.0
 20
-6.0
 30
3.0
 10
7.0
 20
18.0
 30
3.0
 10
7.0
 20
18.0
 30
13.0
 10
7.0
 20
-6.0
 30
13.0
 10
7.0
 20
18.0
 30
3.0
 10
-7.0
 20
18.0
 30
3.0
 10
-7.0
 20
18.0
 30
13.0
 10
7.0
 20
18.0
 30
13.0
 10
-7.0
 20
18.0
 30
3.0
 10
-7.0
 20
-6.0
 30
3.0
 10
-7.0
 20
-6.0
 30
13.0
 10
-7.0
 20
18.0
 30
13.0
 10
0.0
 20
-6.0
 30
28.0
 10
7.0
 20
-6.0
 30
13.0
 10
-7.0
 20
-6.0
 30
13.0
 10
-7.0
 20
18.0
 30
13.0
 10
7.0
 20
18.0
 30
13.0
 10
0.0
 20
18.0
 30
28.0
 93
56
 90
3
 90
0
 90
1
 90
2
 90
3
 90
0
 90
2
 90
3
 90
3
 90
4
 90
5
 90
6
 90
3
 90
4
 90
6
 90
7
 90
3
 90
8
 90
9
 90
10
 90
3
 90
8
 90
10
 90
11
 90
3
 90
12
 90
13
 90
14
 90
3
 90
12
 90
14
 90
15
 90
3
 90
16
 90
17
 90
18
 90
3
 90
16
 90
18
 90
19
 90
3
 90
20
 90
21
 90
22
 90
3
 90
20
 90
22
 90
23
 90
3
 90
24
 90
25
 90
26
 90
3
 90
27
 90
28
 90
29
 94
0
 95
0
 90
0
  0
MESH
  5
98
330
17
100
AcDbEntity
  8
M-ROOF
100
AcDbSubDMesh
 71
2
 72
0
 91
0
 92
44
 10
8.5
 20
-7.5
 30
9.785714285714285
 10
0.0
 20
-7.5
 30
28.0
 10
-8.5
 20
-7.5
 30
9.785714285714285
 10
-8.5
 20
19.5
 30
9.785714285714285
 10
0.0
 20
19.5
 30
28.0
 10
8.5
 20
19.5
 30
9.785714285714285
 10
-8.5
 20
-7.5
 30
9.785714285714285
 10
0.0
 20
-7.5
 30
28.0
 10
0.0
 20
19.5
 30
28.0
 10
-8.5
 20
19.5
 30
9.785714285714285
 10
-8.5
 20
19.5
 30
10.385714285714284
 10
0.0
 20
19.5
 30
28.6
 10
0.0
 20
-7.5
 30
28.6
 10
-8.5
 20
-7.5
 30
10.385714285714284
 10
0.0
 20
19.5
 30
28.0
 10
8.5
 20
19.5
 30
9.785714285714285
 10
8.5
 20
-7.5
 30
9.785714285714285
 10
0.0
 20
-7.5
 30
28.0
 10
0.0
 20
-7.5
 30
28.6
 10
8.5
 20
-7.5
 30
10.385714285714284
 10
8.5
 20
19.5
 30
10.385714285714284
 10
0.0
 20
19.5
 30
28.6
 10
5.0
 20
-9.0
 30
10.75
 10
0.0
 20
-9.0
 30
21.0
 10
-5.0
 20
-9.0
 30
10.75
 10
-5.0
 20
3.0
 30
10.75
 10
0.0
 20
3.0
 30
21.0
 10
5.0
 20
3.0
 30
10.75
 10
-5.0
 20
-9.0
 30
10.75
 10
0.0
 20
-9.0
 30
21.0
 10
0.0
 20
3.0
 30
21.0
 10
-5.0
 20
3.0
 30
10.75
 10
-5.0
 20
3.0
 30
11.35
 10
0.0
 20
3.0
 30
21.6
 10
0.0
 20
-9.0
 30
21.6
 10
-5.0
 20
-9.0
 30
11.35
 10
0.0
 20
3.0
 30
21.0
 10
5.0
 20
3.0
 30
10.75
 10
5.0
 20
-9.0
 30
10.75
 10
0.0
 20
-9.0
 30
21.0
 10
0.0
 20
-9.0
 30
21.6
 10
5.0
 20
-9.0
 30
11.35
 10
5.0
 20
3.0
 30
11.35
 10
0.0
 20
3.0
 30
21.6
 93
80
 90
3
 90
0
 90
1
 90
2
 90
3
 90
3
 90
4
 90
5
 90
3
 90
6
 90
7
 90
8
 90
3
 90
6
 90
8
 90
9
 90
3
 90
10
 90
11
 90
12
 90
3
 90
10
 90
12
 90
13
 90
3
 90
14
 90
15
 90
16
 90
3
 90
14
 90
16
 90
17
 90
3
 90
18
 90
19
 90
20
 90
3
 90
18
 90
20
 90
21
 90
3
 90
22
 90
23
 90
24
 90
3
 90
25
 90
26
 90
27
 90
3
 90
28
 90
29
 90
30
 90
3
 90
28
 90
30
 90
31
 90
3
 90
32
 90
33
 90
34
 90
3
 90
32
 90
34
 90
35
 90
3
 90
36
 90
37
 90
38
 90
3
 90
36
 90
38
 90
39
 90
3
 90
40
 90
41
 90
42
 90
3
 90
40
 90
42
 90
43
 94
0
 95
0
 90
0
  0
MESH
  5
9A
330
17
100
AcDbEntity
  8
M-ATTIC-WALL
100
AcDbSubDMesh
 71
2
 72
0
 91
0
 92
18
 10
0.0
 20
-5.95
 30
13.0
 10
7.0
 20
-5.95
 30
13.0
 10
-7.0
 20
-5.95
 30
13.0
 10
-7.0
 20
-5.95
 30
13.01
 10
7.0
 20
-5.95
 30
13.01
 10
0.0
 20
-5.95
 30
13.01
 10
-7.0
 20
-5.95
 30
13.0
 10
7.0
 20
-5.95
 30
13.0
 10
7.0
 20
-5.95
 30
13.01
 10
-7.0
 20
-5.95
 30
13.01
 10
7.0
 20
-5.95
 30
13.0
 10
0.0
 20
-5.95
 30
13.0
 10
0.0
 20
-5.95
 30
13.01
 10
7.0
 20
-5.95
 30
13.01
 10
0.0
 20
-5.95
 30
13.0
 10
-7.0
 20
-5.95
 30
13.0
 10
-7.0
 20
-5.95
 30
13.01
 10
0.0
 20
-5.95
 30
13.01
 93
32
 90
3
 90
0
 90
1
 90
2
 90
3
 90
3
 90
4
 90
5
 90
3
 90
6
 90
7
 90
8
 90
3
 90
6
 90
8
 90
9
 90
3
 90
10
 90
11
 90
12
 90
3
 90
10
 90
12
 90
13
 90
3
 90
14
 90
15
 90
16
 90
3
 90
14
 90
16
 90
17
 94
0
 95
0
 90
0
  0
MESH
  5
9C
330
17
100
AcDbEntity
  8
M-TURRET
100
AcDbSubDMesh
 71
2
 72
0
 91
0
 92
48
 10
10.249845849551917
 20
-4.260343788879416
 30
3.0
 10
7.760343788879414
 20
-6.749845849551918
 30
3.0
 10
4.239656211120584
 20
-6.749845849551917
 30
3.0
 10
1.7501541504480809
 20
-4.260343788879412
 30
3.0
 10
1.7501541504480818
 20
-0.7396562111205867
 30
3.0
 10
4.239656211120588
 20
1.7498458495519182
 30
3.0
 10
7.760343788879413
 20
1.7498458495519182
 30
3.0
 10
10.249845849551917
 20
-0.7396562111205871
 30
3.0
 10
10.249845849551917
 20
-0.7396562111205871
 30
21.0
 10
7.760343788879413
 20
1.7498458495519182
 30
21.0
 10
4.239656211120588
 20
1.7498458495519182
 30
21.0
 10
1.7501541504480818
 20
-0.7396562111205867
 30
21.0
 10
1.7501541504480809
 20
-4.260343788879412
 30
21.0
 10
4.239656211120584
 20
-6.749845849551917
 30
21.0
 10
7.760343788879414
 20
-6.749845849551918
 30
21.0
 10
10.249845849551917
 20
-4.260343788879416
 30
21.0
 10
10.249845849551917
 20
-0.7396562111205871
 30
3.0
 10
7.760343788879413
 20
1.7498458495519182
 30
3.0
 10
7.760343788879413
 20
1.7498458495519182
 30
21.0
 10
10.249845849551917
 20
-0.7396562111205871
 30
21.0
 10
7.760343788879413
 20
1.7498458495519182
 30
3.0
 10
4.239656211120588
 20
1.7498458495519182
 30
3.0
 10
4.239656211120588
 20
1.7498458495519182
 30
21.0
 10
7.760343788879413
 20
1.7498458495519182
 30
21.0
 10
4.239656211120588
 20
1.7498458495519182
 30
3.0
 10
1.7501541504480818
 20
-0.7396562111205867
 30
3.0
 10
1.7501541504480818
 20
-0.7396562111205867
 30
21.0
 10
4.239656211120588
 20
1.7498458495519182
 30
21.0
 10
1.7501541504480818
 20
-0.7396562111205867
 30
3.0
 10
1.7501541504480809
 20
-4.260343788879412
 30
3.0
 10
1.7501541504480809
 20
-4.260343788879412
 30
21.0
 10
1.7501541504480818
 20
-0.7396562111205867
 30
21.0
 10
1.7501541504480809
 20
-4.260343788879412
 30
3.0
 10
4.239656211120584
 20
-6.749845849551917
 30
3.0
 10
4.239656211120584
 20
-6.749845849551917
 30
21.0
 10
1.7501541504480809
 20
-4.260343788879412
 30
21.0
 10
4.239656211120584
 20
-6.749845849551917
 30
3.0
 10
7.760343788879414
 20
-6.749845849551918
 30
3.0
 10
7.760343788879414
 20
-6.749845849551918
 30
21.0
 10
4.239656211120584
 20
-6.749845849551917
 30
21.0
 10
7.760343788879414
 20
-6.749845849551918
 30
3.0
 10
10.249845849551917
 20
-4.260343788879416
 30
3.0
 10
10.249845849551917
 20
-4.260343788879416
 30
21.0
 10
7.760343788879414
 20
-6.749845849551918
 30
21.0
 10
10.249845849551917
 20
-4.260343788879416
 30
3.0
 10
10.249845849551917
 20
-0.7396562111205871
 30
3.0
 10
10.249845849551917
 20
-0.7396562111205871
 30
21.0
 10
10.249845849551917
 20
-4.260343788879416
 30
21.0
 93
112
 90
3
 90
0
 90
1
 90
2
 90
3
 90
0
 90
2
 90
3
 90
3
 90
0
 90
3
 90
4
 90
3
 90
0
 90
4
 90
5
 90
3
 90
0
 90
5
 90
6
 90
3
 90
0
 90
6
 90
7
 90
3
 90
8
 90
9
 90
10
 90
3
 90
8
 90
10
 90
11
 90
3
 90
8
 90
11
 90
12
 90
3
 90
8
 90
12
 90
13
 90
3
 90
8
 90
13
 90
14
 90
3
 90
8
 90
14
 90
15
 90
3
 90
16
 90
17
 90
18
 90
3
 90
16
 90
18
 90
19
 90
3
 90
20
 90
21
 90
22
 90
3
 90
20
 90
22
 90
23
 90
3
 90
24
 90
25
 90
26
 90
3
 90
24
 90
26
 90
27
 90
3
 90
28
 90
29
 90
30
 90
3
 90
28
 90
30
 90
31
 90
3
 90
32
 90
33
 90
34
 90
3
 90
32
 90
34
 90
35
 90
3
 90
36
 90
37
 90
38
 90
3
 90
36
 90
38
 90
39
 90
3
 90
40
 90
41
 90
42
 90
3
 90
40
 90
42
 90
43
 90
3
 90
44
 90
45
 90
46
 90
3
 90
44
 90
46
 90
47
 94
0
 95
0
 90
0
  0
MESH
  5
9E
330
17
100
AcDbEntity
  8
M-TURRET-ROOF
100
AcDbSubDMesh
 71
2
 72
0
 91
0
 92
176
 10
6.0
 20
-2.5
 30
34.0
 10
11.173725382063205
 20
-0.35697277875549727
 30
21.0
 10
11.6
 20
-2.5
 30
21.0
 10
6.0
 20
-2.5
 30
34.0
 10
9.959797974644665
 20
1.4597979746446654
 30
21.0
 10
11.173725382063205
 20
-0.35697277875549727
 30
21.0
 10
6.0
 20
-2.5
 30
34.0
 10
8.143027221244502
 20
2.673725382063205
 30
21.0
 10
9.959797974644665
 20
1.4597979746446654
 30
21.0
 10
6.0
 20
-2.5
 30
34.0
 10
6.0
 20
3.0999999999999996
 30
21.0
 10
8.143027221244502
 20
2.673725382063205
 30
21.0
 10
6.0
 20
-2.5
 30
34.0
 10
3.8569727787554977
 20
2.673725382063205
 30
21.0
 10
6.0
 20
3.0999999999999996
 30
21.0
 10
6.0
 20
-2.5
 30
34.0
 10
2.0402020253553346
 20
1.4597979746446663
 30
21.0
 10
3.8569727787554977
 20
2.673725382063205
 30
21.0
 10
6.0
 20
-2.5
 30
34.0
 10
0.8262746179367948
 20
-0.3569727787554968
 30
21.0
 10
2.0402020253553346
 20
1.4597979746446663
 30
21.0
 10
6.0
 20
-2.5
 30
34.0
 10
0.40000000000000036
 20
-2.499999999999999
 30
21.0
 10
0.8262746179367948
 20
-0.3569727787554968
 30
21.0
 10
6.0
 20
-2.5
 30
34.0
 10
0.8262746179367939
 20
-4.643027221244502
 30
21.0
 10
0.40000000000000036
 20
-2.499999999999999
 30
21.0
 10
6.0
 20
-2.5
 30
34.0
 10
2.0402020253553332
 20
-6.459797974644665
 30
21.0
 10
0.8262746179367939
 20
-4.643027221244502
 30
21.0
 10
6.0
 20
-2.5
 30
34.0
 10
3.856972778755494
 20
-7.673725382063204
 30
21.0
 10
2.0402020253553332
 20
-6.459797974644665
 30
21.0
 10
6.0
 20
-2.5
 30
34.0
 10
5.999999999999999
 20
-8.1
 30
21.0
 10
3.856972778755494
 20
-7.673725382063204
 30
21.0
 10
6.0
 20
-2.5
 30
34.0
 10
8.143027221244504
 20
-7.673725382063205
 30
21.0
 10
5.999999999999999
 20
-8.1
 30
21.0
 10
6.0
 20
-2.5
 30
34.0
 10
9.959797974644665
 20
-6.459797974644667
 30
21.0
 10
8.143027221244504
 20
-7.673725382063205
 30
21.0
 10
6.0
 20
-2.5
 30
34.0
 10
11.173725382063203
 20
-4.643027221244505
 30
21.0
 10
9.959797974644665
 20
-6.459797974644667
 30
21.0
 10
6.0
 20
-2.5
 30
34.0
 10
11.6
 20
-2.5
 30
21.0
 10
11.173725382063203
 20
-4.643027221244505
 30
21.0
 10
11.6
 20
-2.5
 30
21.0
 10
11.173725382063205
 20
-0.35697277875549727
 30
21.0
 10
6.0
 20
-2.5
 30
21.0
 10
11.173725382063205
 20
-0.35697277875549727
 30
21.0
 10
9.959797974644665
 20
1.4597979746446654
 30
21.0
 10
6.0
 20
-2.5
 30
21.0
 10
9.959797974644665
 20
1.4597979746446654
 30
21.0
 10
8.143027221244502
 20
2.673725382063205
 30
21.0
 10
6.0
 20
-2.5
 30
21.0
 10
8.143027221244502
 20
2.673725382063205
 30
21.0
 10
6.0
 20
3.0999999999999996
 30
21.0
 10
6.0
 20
-2.5
 30
21.0
 10
6.0
 20
3.0999999999999996
 30
21.0
 10
3.8569727787554977
 20
2.673725382063205
 30
21.0
 10
6.0
 20
-2.5
 30
21.0
 10
3.8569727787554977
 20
2.673725382063205
 30
21.0
 10
2.0402020253553346
 20
1.4597979746446663
 30
21.0
 10
6.0
 20
-2.5
 30
21.0
 10
2.0402020253553346
 20
1.4597979746446663
 30
21.0
 10
0.8262746179367948
 20
-0.3569727787554968
 30
21.0
 10
6.0
 20
-2.5
 30
21.0
 10
0.8262746179367948
 20
-0.3569727787554968
 30
21.0
 10
0.40000000000000036
 20
-2.499999999999999
 30
21.0
 10
6.0
 20
-2.5
 30
21.0
 10
0.40000000000000036
 20
-2.499999999999999
 30
21.0
 10
0.8262746179367939
 20
-4.643027221244502
 30
21.0
 10
6.0
 20
-2.5
 30
21.0
 10
0.8262746179367939
 20
-4.643027221244502
 30
21.0
 10
2.0402020253553332
 20
-6.459797974644665
 30
21.0
 10
6.0
 20
-2.5
 30
21.0
 10
2.0402020253553332
 20
-6.459797974644665
 30
21.0
 10
3.856972778755494
 20
-7.673725382063204
 30
21.0
 10
6.0
 20
-2.5
 30
21.0
 10
3.856972778755494
 20
-7.673725382063204
 30
21.0
 10
5.999999999999999
 20
-8.1
 30
21.0
 10
6.0
 20
-2.5
 30
21.0
 10
5.999999999999999
 20
-8.1
 30
21.0
 10
8.143027221244504
 20
-7.673725382063205
 30
21.0
 10
6.0
 20
-2.5
 30
21.0
 10
8.143027221244504
 20
-7.673725382063205
 30
21.0
 10
9.959797974644665
 20
-6.459797974644667
 30
21.0
 10
6.0
 20
-2.5
 30
21.0
 10
9.959797974644665
 20
-6.459797974644667
 30
21.0
 10
11.173725382063203
 20
-4.643027221244505
 30
21.0
 10
6.0
 20
-2.5
 30
21.0
 10
11.173725382063203
 20
-4.643027221244505
 30
21.0
 10
11.6
 20
-2.5
 30
21.0
 10
6.0
 20
-2.5
 30
21.0
 10
6.0
 20
-2.5
 30
36.0
 10
6.212132034355964
 20
-2.2878679656440357
 30
36.0
 10
6.3
 20
-2.5
 30
36.0
 10
6.0
 20
-2.5
 30
36.0
 10
6.0
 20
-2.2
 30
36.0
 10
6.212132034355964
 20
-2.2878679656440357
 30
36.0
 10
6.0
 20
-2.5
 30
36.0
 10
5.787867965644036
 20
-2.2878679656440357
 30
36.0
 10
6.0
 20
-2.2
 30
36.0
 10
6.0
 20
-2.5
 30
36.0
 10
5.7
 20
-2.5
 30
36.0
 10
5.787867965644036
 20
-2.2878679656440357
 30
36.0
 10
6.0
 20
-2.5
 30
36.0
 10
5.787867965644035
 20
-2.7121320343559643
 30
36.0
 10
5.7
 20
-2.5
 30
36.0
 10
6.0
 20
-2.5
 30
36.0
 10
6.0
 20
-2.8
 30
36.0
 10
5.787867965644035
 20
-2.7121320343559643
 30
36.0
 10
6.0
 20
-2.5
 30
36.0
 10
6.212132034355964
 20
-2.7121320343559643
 30
36.0
 10
6.0
 20
-2.8
 30
36.0
 10
6.0
 20
-2.5
 30
36.0
 10
6.3
 20
-2.5
 30
36.0
 10
6.212132034355964
 20
-2.7121320343559643
 30
36.0
 10
6.3
 20
-2.5
 30
36.0
 10
6.212132034355964
 20
-2.2878679656440357
 30
36.0
 10
6.212132034355964
 20
-2.2878679656440357
 30
34.0
 10
6.3
 20
-2.5
 30
34.0
 10
6.212132034355964
 20
-2.2878679656440357
 30
36.0
 10
6.0
 20
-2.2
 30
36.0
 10
6.0
 20
-2.2
 30
34.0
 10
6.212132034355964
 20
-2.2878679656440357
 30
34.0
 10
6.0
 20
-2.2
 30
36.0
 10
5.787867965644036
 20
-2.2878679656440357
 30
36.0
 10
5.787867965644036
 20
-2.2878679656440357
 30
34.0
 10
6.0
 20
-2.2
 30
34.0
 10
5.787867965644036
 20
-2.2878679656440357
 30
36.0
 10
5.7
 20
-2.5
 30
36.0
 10
5.7
 20
-2.5
 30
34.0
 10
5.787867965644036
 20
-2.2878679656440357
 30
34.0
 10
5.7
 20
-2.5
 30
36.0
 10
5.787867965644035
 20
-2.7121320343559643
 30
36.0
 10
5.787867965644035
 20
-2.7121320343559643
 30
34.0
 10
5.7
 20
-2.5
 30
34.0
 10
5.787867965644035
 20
-2.7121320343559643
 30
36.0
 10
6.0
 20
-2.8
 30
36.0
 10
6.0
 20
-2.8
 30
34.0
 10
5.787867965644035
 20
-2.7121320343559643
 30
34.0
 10
6.0
 20
-2.8
 30
36.0
 10
6.212132034355964
 20
-2.7121320343559643
 30
36.0
 10
6.212132034355964
 20
-2.7121320343559643
 30
34.0
 10
6.0
 20
-2.8
 30
34.0
 10
6.212132034355964
 20
-2.7121320343559643
 30
36.0
 10
6.3
 20
-2.5
 30
36.0
 10
6.3
 20
-2.5
 30
34.0
 10
6.212132034355964
 20
-2.7121320343559643
 30
34.0
 10
6.3
 20
-2.5
 30
34.0
 10
6.212132034355964
 20
-2.2878679656440357
 30
34.0
 10
6.0
 20
-2.5
 30
34.0
 10
6.212132034355964
 20
-2.2878679656440357
 30
34.0
 10
6.0
 20
-2.2
 30
34.0
 10
6.0
 20
-2.5
 30
34.0
 10
6.0
 20
-2.2
 30
34.0
 10
5.787867965644036
 20
-2.2878679656440357
 30
34.0
 10
6.0
 20
-2.5
 30
34.0
 10
5.787867965644036
 20
-2.2878679656440357
 30
34.0
 10
5.7
 20
-2.5
 30
34.0
 10
6.0
 20
-2.5
 30
34.0
 10
5.7
 20
-2.5
 30
34.0
 10
5.787867965644035
 20
-2.7121320343559643
 30
34.0
 10
6.0
 20
-2.5
 30
34.0
 10
5.787867965644035
 20
-2.7121320343559643
 30
34.0
 10
6.0
 20
-2.8
 30
34.0
 10
6.0
 20
-2.5
 30
34.0
 10
6.0
 20
-2.8
 30
34.0
 10
6.212132034355964
 20
-2.7121320343559643
 30
34.0
 10
6.0
 20
-2.5
 30
34.0
 10
6.212132034355964
 20
-2.7121320343559643
 30
34.0
 10
6.3
 20
-2.5
 30
34.0
 10
6.0
 20
-2.5
 30
34.0
 93
256
 90
3
 90
0
 90
1
 90
2
 90
3
 90
3
 90
4
 90
5
 90
3
 90
6
 90
7
 90
8
 90
3
 90
9
 90
10
 90
11
 90
3
 90
12
 90
13
 90
14
 90
3
 90
15
 90
16
 90
17
 90
3
 90
18
 90
19
 90
20
 90
3
 90
21
 90
22
 90
23
 90
3
 90
24
 90
25
 90
26
 90
3
 90
27
 90
28
 90
29
 90
3
 90
30
 90
31
 90
32
 90
3
 90
33
 90
34
 90
35
 90
3
 90
36
 90
37
 90
38
 90
3
 90
39
 90
40
 90
41
 90
3
 90
42
 90
43
 90
44
 90
3
 90
45
 90
46
 90
47
 90
3
 90
48
 90
49
 90
50
 90
3
 90
51
 90
52
 90
53
 90
3
 90
54
 90
55
 90
56
 90
3
 90
57
 90
58
 90
59
 90
3
 90
60
 90
61
 90
62
 90
3
 90
63
 90
64
 90
65
 90
3
 90
66
 90
67
 90
68
 90
3
 90
69
 90
70
 90
71
 90
3
 90
72
 90
73
 90
74
 90
3
 90
75
 90
76
 90
77
 90
3
 90
78
 90
79
 90
80
 90
3
 90
81
 90
82
 90
83
 90
3
 90
84
 90
85
 90
86
 90
3
 90
87
 90
88
 90
89
 90
3
 90
90
 90
91
 90
92
 90
3
 90
93
 90
94
 90
95
 90
3
 90
96
 90
97
 90
98
 90
3
 90
99
 90
100
 90
101
 90
3
 90
102
 90
103
 90
104
 90
3
 90
105
 90
106
 90
107
 90
3
 90
108
 90
109
 90
110
 90
3
 90
111
 90
112
 90
113
 90
3
 90
114
 90
115
 90
116
 90
3
 90
117
 90
118
 90
119
 90
3
 90
120
 90
121
 90
122
 90
3
 90
120
 90
122
 90
123
 90
3
 90
124
 90
125
 90
126
 90
3
 90
124
 90
126
 90
127
 90
3
 90
128
 90
129
 90
130
 90
3
 90
128
 90
130
 90
131
 90
3
 90
132
 90
133
 90
134
 90
3
 90
132
 90
134
 90
135
 90
3
 90
136
 90
137
 90
138
 90
3
 90
136
 90
138
 90
139
 90
3
 90
140
 90
141
 90
142
 90
3
 90
140
 90
142
 90
143
 90
3
 90
144
 90
145
 90
146
 90
3
 90
144
 90
146
 90
147
 90
3
 90
148
 90
149
 90
150
 90
3
 90
148
 90
150
 90
151
 90
3
 90
152
 90
153
 90
154
 90
3
 90
155
 90
156
 90
157
 90
3
 90
158
 90
159
 90
160
 90
3
 90
161
 90
162
 90
163
 90
3
 90
164
 90
165
 90
166
 90
3
 90
167
 90
168
 90
169
 90
3
 90
170
 90
171
 90
172
 90
3
 90
173
 90
174
 90
175
 94
0
 95
0
 90
0
  0
MESH
  5
A0
330
17
100
AcDbEntity
  8
M-PORCH
100
AcDbSubDMesh
 71
2
 72
0
 91
0
 92
142
 10
-8.0
 20
-5.8
 30
2.4
 10
1.5
 20
-5.8
 30
2.4
 10
1.5
 20
-13.0
 30
2.4
 10
-8.0
 20
-13.0
 30
2.4
 10
-8.0
 20
-13.0
 30
3.0
 10
1.5
 20
-13.0
 30
3.0
 10
1.5
 20
-5.8
 30
3.0
 10
-8.0
 20
-5.8
 30
3.0
 10
-8.0
 20
-13.0
 30
2.4
 10
1.5
 20
-13.0
 30
2.4
 10
1.5
 20
-13.0
 30
3.0
 10
-8.0
 20
-13.0
 30
3.0
 10
1.5
 20
-13.0
 30
2.4
 10
1.5
 20
-5.8
 30
2.4
 10
1.5
 20
-5.8
 30
3.0
 10
1.5
 20
-13.0
 30
3.0
 10
1.5
 20
-5.8
 30
2.4
 10
-8.0
 20
-5.8
 30
2.4
 10
-8.0
 20
-5.8
 30
3.0
 10
1.5
 20
-5.8
 30
3.0
 10
-8.0
 20
-5.8
 30
2.4
 10
-8.0
 20
-13.0
 30
2.4
 10
-8.0
 20
-13.0
 30
3.0
 10
-8.0
 20
-5.8
 30
3.0
 10
-8.8
 20
-13.8
 30
10.76153846153846
 10
-8.8
 20
-9.75
 30
14.5
 10
-8.8
 20
-5.7
 30
10.76153846153846
 10
2.3
 20
-5.7
 30
10.76153846153846
 10
2.3
 20
-9.75
 30
14.5
 10
2.3
 20
-13.8
 30
10.76153846153846
 10
2.3
 20
-13.8
 30
10.76153846153846
 10
2.3
 20
-9.75
 30
14.5
 10
-8.8
 20
-9.75
 30
14.5
 10
-8.8
 20
-13.8
 30
10.76153846153846
 10
-8.8
 20
-13.8
 30
11.36153846153846
 10
-8.8
 20
-9.75
 30
15.1
 10
2.3
 20
-9.75
 30
15.1
 10
2.3
 20
-13.8
 30
11.36153846153846
 10
-8.8
 20
-9.75
 30
14.5
 10
-8.8
 20
-5.7
 30
10.76153846153846
 10
2.3
 20
-5.7
 30
10.76153846153846
 10
2.3
 20
-9.75
 30
14.5
 10
2.3
 20
-9.75
 30
15.1
 10
2.3
 20
-5.7
 30
11.36153846153846
 10
-8.8
 20
-5.7
 30
11.36153846153846
 10
-8.8
 20
-9.75
 30
15.1
 10
-1.0
 20
-13.0
 30
0.0
 10
3.0
 20
-13.0
 30
0.0
 10
3.0
 20
-18.0
 30
0.0
 10
-1.0
 20
-18.0
 30
0.0
 10
-1.0
 20
-18.0
 30
0.75
 10
3.0
 20
-18.0
 30
0.75
 10
3.0
 20
-13.0
 30
0.75
 10
-1.0
 20
-13.0
 30
0.75
 10
-1.0
 20
-18.0
 30
0.0
 10
3.0
 20
-18.0
 30
0.0
 10
3.0
 20
-18.0
 30
0.75
 10
-1.0
 20
-18.0
 30
0.75
 10
3.0
 20
-18.0
 30
0.0
 10
3.0
 20
-13.0
 30
0.0
 10
3.0
 20
-13.0
 30
0.75
 10
3.0
 20
-18.0
 30
0.75
 10
3.0
 20
-13.0
 30
0.0
 10
-1.0
 20
-13.0
 30
0.0
 10
-1.0
 20
-13.0
 30
0.75
 10
3.0
 20
-13.0
 30
0.75
 10
-1.0
 20
-13.0
 30
0.0
 10
-1.0
 20
-18.0
 30
0.0
 10
-1.0
 20
-18.0
 30
0.75
 10
-1.0
 20
-13.0
 30
0.75
 10
-1.0
 20
-13.0
 30
0.0
 10
3.0
 20
-13.0
 30
0.0
 10
3.0
 20
-16.75
 30
0.0
 10
-1.0
 20
-16.75
 30
0.0
 10
-1.0
 20
-16.75
 30
1.5
 10
3.0
 20
-16.75
 30
1.5
 10
3.0
 20
-13.0
 30
1.5
 10
-1.0
 20
-13.0
 30
1.5
 10
-1.0
 20
-16.75
 30
0.0
 10
3.0
 20
-16.75
 30
0.0
 10
3.0
 20
-16.75
 30
1.5
 10
-1.0
 20
-16.75
 30
1.5
 10
3.0
 20
-16.75
 30
0.0
 10
3.0
 20
-13.0
 30
0.0
 10
3.0
 20
-13.0
 30
1.5
 10
3.0
 20
-16.75
 30
1.5
 10
3.0
 20
-13.0
 30
0.0
 10
-1.0
 20
-13.0
 30
0.0
 10
-1.0
 20
-13.0
 30
1.5
 10
3.0
 20
-13.0
 30
1.5
 10
-1.0
 20
-13.0
 30
0.0
 10
-1.0
 20
-16.75
 30
0.0
 10
-1.0
 20
-16.75
 30
1.5
 10
-1.0
 20
-13.0
 30
1.5
 10
-1.0
 20
-13.0
 30
0.0
 10
3.0
 20
-13.0
 30
0.0
 10
3.0
 20
-15.5
 30
0.0
 10
-1.0
 20
-15.5
 30
0.0
 10
-1.0
 20
-15.5
 30
2.25
 10
3.0
 20
-15.5
 30
2.25
 10
3.0
 20
-13.0
 30
2.25
 10
-1.0
 20
-13.0
 30
2.25
 10
-1.0
 20
-15.5
 30
0.0
 10
3.0
 20
-15.5
 30
0.0
 10
3.0
 20
-15.5
 30
2.25
 10
-1.0
 20
-15.5
 30
2.25
 10
3.0
 20
-15.5
 30
0.0
 10
3.0
 20
-13.0
 30
0.0
 10
3.0
 20
-13.0
 30
2.25
 10
3.0
 20
-15.5
 30
2.25
 10
3.0
 20
-13.0
 30
0.0
 10
-1.0
 20
-13.0
 30
0.0
 10
-1.0
 20
-13.0
 30
2.25
 10
3.0
 20
-13.0
 30
2.25
 10
-1.0
 20
-13.0
 30
0.0
 10
-1.0
 20
-15.5
 30
0.0
 10
-1.0
 20
-15.5
 30
2.25
 10
-1.0
 20
-13.0
 30
2.25
 10
-1.0
 20
-13.0
 30
0.0
 10
3.0
 20
-13.0
 30
0.0
 10
3.0
 20
-14.25
 30
0.0
 10
-1.0
 20
-14.25
 30
0.0
 10
-1.0
 20
-14.25
 30
3.0
 10
3.0
 20
-14.25
 30
3.0
 10
3.0
 20
-13.0
 30
3.0
 10
-1.0
 20
-13.0
 30
3.0
 10
-1.0
 20
-14.25
 30
0.0
 10
3.0
 20
-14.25
 30
0.0
 10
3.0
 20
-14.25
 30
3.0
 10
-1.0
 20
-14.25
 30
3.0
 10
3.0
 20
-14.25
 30
0.0
 10
3.0
 20
-13.0
 30
0.0
 10
3.0
 20
-13.0
 30
3.0
 10
3.0
 20
-14.25
 30
3.0
 10
3.0
 20
-13.0
 30
0.0
 10
-1.0
 20
-13.0
 30
0.0
 10
-1.0
 20
-13.0
 30
3.0
 10
3.0
 20
-13.0
 30
3.0
 10
-1.0
 20
-13.0
 30
0.0
 10
-1.0
 20
-14.25
 30
0.0
 10
-1.0
 20
-14.25
 30
3.0
 10
-1.0
 20
-13.0
 30
3.0
 93
280
 90
3
 90
0
 90
1
 90
2
 90
3
 90
0
 90
2
 90
3
 90
3
 90
4
 90
5
 90
6
 90
3
 90
4
 90
6
 90
7
 90
3
 90
8
 90
9
 90
10
 90
3
 90
8
 90
10
 90
11
 90
3
 90
12
 90
13
 90
14
 90
3
 90
12
 90
14
 90
15
 90
3
 90
16
 90
17
 90
18
 90
3
 90
16
 90
18
 90
19
 90
3
 90
20
 90
21
 90
22
 90
3
 90
20
 90
22
 90
23
 90
3
 90
24
 90
25
 90
26
 90
3
 90
27
 90
28
 90
29
 90
3
 90
30
 90
31
 90
32
 90
3
 90
30
 90
32
 90
33
 90
3
 90
34
 90
35
 90
36
 90
3
 90
34
 90
36
 90
37
 90
3
 90
38
 90
39
 90
40
 90
3
 90
38
 90
40
 90
41
 90
3
 90
42
 90
43
 90
44
 90
3
 90
42
 90
44
 90
45
 90
3
 90
46
 90
47
 90
48
 90
3
 90
46
 90
48
 90
49
 90
3
 90
50
 90
51
 90
52
 90
3
 90
50
 90
52
 90
53
 90
3
 90
54
 90
55
 90
56
 90
3
 90
54
 90
56
 90
57
 90
3
 90
58
 90
59
 90
60
 90
3
 90
58
 90
60
 90
61
 90
3
 90
62
 90
63
 90
64
 90
3
 90
62
 90
64
 90
65
 90
3
 90
66
 90
67
 90
68
 90
3
 90
66
 90
68
 90
69
 90
3
 90
70
 90
71
 90
72
 90
3
 90
70
 90
72
 90
73
 90
3
 90
74
 90
75
 90
76
 90
3
 90
74
 90
76
 90
77
 90
3
 90
78
 90
79
 90
80
 90
3
 90
78
 90
80
 90
81
 90
3
 90
82
 90
83
 90
84
 90
3
 90
82
 90
84
 90
85
 90
3
 90
86
 90
87
 90
88
 90
3
 90
86
 90
88
 90
89
 90
3
 90
90
 90
91
 90
92
 90
3
 90
90
 90
92
 90
93
 90
3
 90
94
 90
95
 90
96
 90
3
 90
94
 90
96
 90
97
 90
3
 90
98
 90
99
 90
100
 90
3
 90
98
 90
100
 90
101
 90
3
 90
102
 90
103
 90
104
 90
3
 90
102
 90
104
 90
105
 90
3
 90
106
 90
107
 90
108
 90
3
 90
106
 90
108
 90
109
 90
3
 90
110
 90
111
 90
112
 90
3
 90
110
 90
112
 90
113
 90
3
 90
114
 90
115
 90
116
 90
3
 90
114
 90
116
 90
117
 90
3
 90
118
 90
119
 90
120
 90
3
 90
118
 90
120
 90
121
 90
3
 90
122
 90
123
 90
124
 90
3
 90
122
 90
124
 90
125
 90
3
 90
126
 90
127
 90
128
 90
3
 90
126
 90
128
 90
129
 90
3
 90
130
 90
131
 90
132
 90
3
 90
130
 90
132
 90
133
 90
3
 90
134
 90
135
 90
136
 90
3
 90
134
 90
136
 90
137
 90
3
 90
138
 90
139
 90
140
 90
3
 90
138
 90
140
 90
141
 94
0
 95
0
 90
0
  0
MESH
  5
A2
330
17
100
AcDbEntity
  8
M-POSTS
100
AcDbSubDMesh
 71
2
 72
0
 91
0
 92
72
 10
-7.85
 20
-12.0
 30
3.0
 10
-7.15
 20
-12.0
 30
3.0
 10
-7.15
 20
-12.7
 30
3.0
 10
-7.85
 20
-12.7
 30
3.0
 10
-7.85
 20
-12.7
 30
11.5
 10
-7.15
 20
-12.7
 30
11.5
 10
-7.15
 20
-12.0
 30
11.5
 10
-7.85
 20
-12.0
 30
11.5
 10
-7.85
 20
-12.7
 30
3.0
 10
-7.15
 20
-12.7
 30
3.0
 10
-7.15
 20
-12.7
 30
11.5
 10
-7.85
 20
-12.7
 30
11.5
 10
-7.15
 20
-12.7
 30
3.0
 10
-7.15
 20
-12.0
 30
3.0
 10
-7.15
 20
-12.0
 30
11.5
 10
-7.15
 20
-12.7
 30
11.5
 10
-7.15
 20
-12.0
 30
3.0
 10
-7.85
 20
-12.0
 30
3.0
 10
-7.85
 20
-12.0
 30
11.5
 10
-7.15
 20
-12.0
 30
11.5
 10
-7.85
 20
-12.0
 30
3.0
 10
-7.85
 20
-12.7
 30
3.0
 10
-7.85
 20
-12.7
 30
11.5
 10
-7.85
 20
-12.0
 30
11.5
 10
-3.85
 20
-12.0
 30
3.0
 10
-3.15
 20
-12.0
 30
3.0
 10
-3.15
 20
-12.7
 30
3.0
 10
-3.85
 20
-12.7
 30
3.0
 10
-3.85
 20
-12.7
 30
11.5
 10
-3.15
 20
-12.7
 30
11.5
 10
-3.15
 20
-12.0
 30
11.5
 10
-3.85
 20
-12.0
 30
11.5
 10
-3.85
 20
-12.7
 30
3.0
 10
-3.15
 20
-12.7
 30
3.0
 10
-3.15
 20
-12.7
 30
11.5
 10
-3.85
 20
-12.7
 30
11.5
 10
-3.15
 20
-12.7
 30
3.0
 10
-3.15
 20
-12.0
 30
3.0
 10
-3.15
 20
-12.0
 30
11.5
 10
-3.15
 20
-12.7
 30
11.5
 10
-3.15
 20
-12.0
 30
3.0
 10
-3.85
 20
-12.0
 30
3.0
 10
-3.85
 20
-12.0
 30
11.5
 10
-3.15
 20
-12.0
 30
11.5
 10
-3.85
 20
-12.0
 30
3.0
 10
-3.85
 20
-12.7
 30
3.0
 10
-3.85
 20
-12.7
 30
11.5
 10
-3.85
 20
-12.0
 30
11.5
 10
0.15000000000000002
 20
-12.0
 30
3.0
 10
0.85
 20
-12.0
 30
3.0
 10
0.85
 20
-12.7
 30
3.0
 10
0.15000000000000002
 20
-12.7
 30
3.0
 10
0.15000000000000002
 20
-12.7
 30
11.5
 10
0.85
 20
-12.7
 30
11.5
 10
0.85
 20
-12.0
 30
11.5
 10
0.15000000000000002
 20
-12.0
 30
11.5
 10
0.15000000000000002
 20
-12.7
 30
3.0
 10
0.85
 20
-12.7
 30
3.0
 10
0.85
 20
-12.7
 30
11.5
 10
0.15000000000000002
 20
-12.7
 30
11.5
 10
0.85
 20
-12.7
 30
3.0
 10
0.85
 20
-12.0
 30
3.0
 10
0.85
 20
-12.0
 30
11.5
 10
0.85
 20
-12.7
 30
11.5
 10
0.85
 20
-12.0
 30
3.0
 10
0.15000000000000002
 20
-12.0
 30
3.0
 10
0.15000000000000002
 20
-12.0
 30
11.5
 10
0.85
 20
-12.0
 30
11.5
 10
0.15000000000000002
 20
-12.0
 30
3.0
 10
0.15000000000000002
 20
-12.7
 30
3.0
 10
0.15000000000000002
 20
-12.7
 30
11.5
 10
0.15000000000000002
 20
-12.0
 30
11.5
 93
144
 90
3
 90
0
 90
1
 90
2
 90
3
 90
0
 90
2
 90
3
 90
3
 90
4
 90
5
 90
6
 90
3
 90
4
 90
6
 90
7
 90
3
 90
8
 90
9
 90
10
 90
3
 90
8
 90
10
 90
11
 90
3
 90
12
 90
13
 90
14
 90
3
 90
12
 90
14
 90
15
 90
3
 90
16
 90
17
 90
18
 90
3
 90
16
 90
18
 90
19
 90
3
 90
20
 90
21
 90
22
 90
3
 90
20
 90
22
 90
23
 90
3
 90
24
 90
25
 90
26
 90
3
 90
24
 90
26
 90
27
 90
3
 90
28
 90
29
 90
30
 90
3
 90
28
 90
30
 90
31
 90
3
 90
32
 90
33
 90
34
 90
3
 90
32
 90
34
 90
35
 90
3
 90
36
 90
37
 90
38
 90
3
 90
36
 90
38
 90
39
 90
3
 90
40
 90
41
 90
42
 90
3
 90
40
 90
42
 90
43
 90
3
 90
44
 90
45
 90
46
 90
3
 90
44
 90
46
 90
47
 90
3
 90
48
 90
49
 90
50
 90
3
 90
48
 90
50
 90
51
 90
3
 90
52
 90
53
 90
54
 90
3
 90
52
 90
54
 90
55
 90
3
 90
56
 90
57
 90
58
 90
3
 90
56
 90
58
 90
59
 90
3
 90
60
 90
61
 90
62
 90
3
 90
60
 90
62
 90
63
 90
3
 90
64
 90
65
 90
66
 90
3
 90
64
 90
66
 90
67
 90
3
 90
68
 90
69
 90
70
 90
3
 90
68
 90
70
 90
71
 94
0
 95
0
 90
0
  0
MESH
  5
A4
330
17
100
AcDbEntity
  8
M-RAILING
100
AcDbSubDMesh
 71
2
 72
0
 91
0
 92
48
 10
-8.0
 20
-12.7
 30
3.6
 10
1.5
 20
-12.7
 30
3.6
 10
1.5
 20
-13.0
 30
3.6
 10
-8.0
 20
-13.0
 30
3.6
 10
-8.0
 20
-13.0
 30
6.2
 10
1.5
 20
-13.0
 30
6.2
 10
1.5
 20
-12.7
 30
6.2
 10
-8.0
 20
-12.7
 30
6.2
 10
-8.0
 20
-13.0
 30
3.6
 10
1.5
 20
-13.0
 30
3.6
 10
1.5
 20
-13.0
 30
6.2
 10
-8.0
 20
-13.0
 30
6.2
 10
1.5
 20
-13.0
 30
3.6
 10
1.5
 20
-12.7
 30
3.6
 10
1.5
 20
-12.7
 30
6.2
 10
1.5
 20
-13.0
 30
6.2
 10
1.5
 20
-12.7
 30
3.6
 10
-8.0
 20
-12.7
 30
3.6
 10
-8.0
 20
-12.7
 30
6.2
 10
1.5
 20
-12.7
 30
6.2
 10
-8.0
 20
-12.7
 30
3.6
 10
-8.0
 20
-13.0
 30
3.6
 10
-8.0
 20
-13.0
 30
6.2
 10
-8.0
 20
-12.7
 30
6.2
 10
-8.0
 20
-6.0
 30
3.6
 10
-7.7
 20
-6.0
 30
3.6
 10
-7.7
 20
-13.0
 30
3.6
 10
-8.0
 20
-13.0
 30
3.6
 10
-8.0
 20
-13.0
 30
6.2
 10
-7.7
 20
-13.0
 30
6.2
 10
-7.7
 20
-6.0
 30
6.2
 10
-8.0
 20
-6.0
 30
6.2
 10
-8.0
 20
-13.0
 30
3.6
 10
-7.7
 20
-13.0
 30
3.6
 10
-7.7
 20
-13.0
 30
6.2
 10
-8.0
 20
-13.0
 30
6.2
 10
-7.7
 20
-13.0
 30
3.6
 10
-7.7
 20
-6.0
 30
3.6
 10
-7.7
 20
-6.0
 30
6.2
 10
-7.7
 20
-13.0
 30
6.2
 10
-7.7
 20
-6.0
 30
3.6
 10
-8.0
 20
-6.0
 30
3.6
 10
-8.0
 20
-6.0
 30
6.2
 10
-7.7
 20
-6.0
 30
6.2
 10
-8.0
 20
-6.0
 30
3.6
 10
-8.0
 20
-13.0
 30
3.6
 10
-8.0
 20
-13.0
 30
6.2
 10
-8.0
 20
-6.0
 30
6.2
 93
96
 90
3
 90
0
 90
1
 90
2
 90
3
 90
0
 90
2
 90
3
 90
3
 90
4
 90
5
 90
6
 90
3
 90
4
 90
6
 90
7
 90
3
 90
8
 90
9
 90
10
 90
3
 90
8
 90
10
 90
11
 90
3
 90
12
 90
13
 90
14
 90
3
 90
12
 90
14
 90
15
 90
3
 90
16
 90
17
 90
18
 90
3
 90
16
 90
18
 90
19
 90
3
 90
20
 90
21
 90
22
 90
3
 90
20
 90
22
 90
23
 90
3
 90
24
 90
25
 90
26
 90
3
 90
24
 90
26
 90
27
 90
3
 90
28
 90
29
 90
30
 90
3
 90
28
 90
30
 90
31
 90
3
 90
32
 90
33
 90
34
 90
3
 90
32
 90
34
 90
35
 90
3
 90
36
 90
37
 90
38
 90
3
 90
36
 90
38
 90
39
 90
3
 90
40
 90
41
 90
42
 90
3
 90
40
 90
42
 90
43
 90
3
 90
44
 90
45
 90
46
 90
3
 90
44
 90
46
 90
47
 94
0
 95
0
 90
0
  0
MESH
  5
A6
330
17
100
AcDbEntity
  8
M-WINDOWS
100
AcDbSubDMesh
 71
2
 72
0
 91
0
 92
464
 10
-7.25
 20
5.2
 30
5.5
 10
-6.75
 20
5.2
 30
5.5
 10
-6.75
 20
2.8
 30
5.5
 10
-7.25
 20
2.8
 30
5.5
 10
-7.25
 20
2.8
 30
11.5
 10
-6.75
 20
2.8
 30
11.5
 10
-6.75
 20
5.2
 30
11.5
 10
-7.25
 20
5.2
 30
11.5
 10
-7.25
 20
2.8
 30
5.5
 10
-6.75
 20
2.8
 30
5.5
 10
-6.75
 20
2.8
 30
11.5
 10
-7.25
 20
2.8
 30
11.5
 10
-6.75
 20
2.8
 30
5.5
 10
-6.75
 20
5.2
 30
5.5
 10
-6.75
 20
5.2
 30
11.5
 10
-6.75
 20
2.8
 30
11.5
 10
-6.75
 20
5.2
 30
5.5
 10
-7.25
 20
5.2
 30
5.5
 10
-7.25
 20
5.2
 30
11.5
 10
-6.75
 20
5.2
 30
11.5
 10
-7.25
 20
5.2
 30
5.5
 10
-7.25
 20
2.8
 30
5.5
 10
-7.25
 20
2.8
 30
11.5
 10
-7.25
 20
5.2
 30
11.5
 10
-7.25
 20
12.2
 30
5.5
 10
-6.75
 20
12.2
 30
5.5
 10
-6.75
 20
9.8
 30
5.5
 10
-7.25
 20
9.8
 30
5.5
 10
-7.25
 20
9.8
 30
11.5
 10
-6.75
 20
9.8
 30
11.5
 10
-6.75
 20
12.2
 30
11.5
 10
-7.25
 20
12.2
 30
11.5
 10
-7.25
 20
9.8
 30
5.5
 10
-6.75
 20
9.8
 30
5.5
 10
-6.75
 20
9.8
 30
11.5
 10
-7.25
 20
9.8
 30
11.5
 10
-6.75
 20
9.8
 30
5.5
 10
-6.75
 20
12.2
 30
5.5
 10
-6.75
 20
12.2
 30
11.5
 10
-6.75
 20
9.8
 30
11.5
 10
-6.75
 20
12.2
 30
5.5
 10
-7.25
 20
12.2
 30
5.5
 10
-7.25
 20
12.2
 30
11.5
 10
-6.75
 20
12.2
 30
11.5
 10
-7.25
 20
12.2
 30
5.5
 10
-7.25
 20
9.8
 30
5.5
 10
-7.25
 20
9.8
 30
11.5
 10
-7.25
 20
12.2
 30
11.5
 10
6.75
 20
7.2
 30
5.5
 10
7.25
 20
7.2
 30
5.5
 10
7.25
 20
4.8
 30
5.5
 10
6.75
 20
4.8
 30
5.5
 10
6.75
 20
4.8
 30
11.5
 10
7.25
 20
4.8
 30
11.5
 10
7.25
 20
7.2
 30
11.5
 10
6.75
 20
7.2
 30
11.5
 10
6.75
 20
4.8
 30
5.5
 10
7.25
 20
4.8
 30
5.5
 10
7.25
 20
4.8
 30
11.5
 10
6.75
 20
4.8
 30
11.5
 10
7.25
 20
4.8
 30
5.5
 10
7.25
 20
7.2
 30
5.5
 10
7.25
 20
7.2
 30
11.5
 10
7.25
 20
4.8
 30
11.5
 10
7.25
 20
7.2
 30
5.5
 10
6.75
 20
7.2
 30
5.5
 10
6.75
 20
7.2
 30
11.5
 10
7.25
 20
7.2
 30
11.5
 10
6.75
 20
7.2
 30
5.5
 10
6.75
 20
4.8
 30
5.5
 10
6.75
 20
4.8
 30
11.5
 10
6.75
 20
7.2
 30
11.5
 10
6.75
 20
14.2
 30
5.5
 10
7.25
 20
14.2
 30
5.5
 10
7.25
 20
11.8
 30
5.5
 10
6.75
 20
11.8
 30
5.5
 10
6.75
 20
11.8
 30
11.5
 10
7.25
 20
11.8
 30
11.5
 10
7.25
 20
14.2
 30
11.5
 10
6.75
 20
14.2
 30
11.5
 10
6.75
 20
11.8
 30
5.5
 10
7.25
 20
11.8
 30
5.5
 10
7.25
 20
11.8
 30
11.5
 10
6.75
 20
11.8
 30
11.5
 10
7.25
 20
11.8
 30
5.5
 10
7.25
 20
14.2
 30
5.5
 10
7.25
 20
14.2
 30
11.5
 10
7.25
 20
11.8
 30
11.5
 10
7.25
 20
14.2
 30
5.5
 10
6.75
 20
14.2
 30
5.5
 10
6.75
 20
14.2
 30
11.5
 10
7.25
 20
14.2
 30
11.5
 10
6.75
 20
14.2
 30
5.5
 10
6.75
 20
11.8
 30
5.5
 10
6.75
 20
11.8
 30
11.5
 10
6.75
 20
14.2
 30
11.5
 10
-4.7
 20
-5.75
 30
5.5
 10
-2.3
 20
-5.75
 30
5.5
 10
-2.3
 20
-6.25
 30
5.5
 10
-4.7
 20
-6.25
 30
5.5
 10
-4.7
 20
-6.25
 30
11.5
 10
-2.3
 20
-6.25
 30
11.5
 10
-2.3
 20
-5.75
 30
11.5
 10
-4.7
 20
-5.75
 30
11.5
 10
-4.7
 20
-6.25
 30
5.5
 10
-2.3
 20
-6.25
 30
5.5
 10
-2.3
 20
-6.25
 30
11.5
 10
-4.7
 20
-6.25
 30
11.5
 10
-2.3
 20
-6.25
 30
5.5
 10
-2.3
 20
-5.75
 30
5.5
 10
-2.3
 20
-5.75
 30
11.5
 10
-2.3
 20
-6.25
 30
11.5
 10
-2.3
 20
-5.75
 30
5.5
 10
-4.7
 20
-5.75
 30
5.5
 10
-4.7
 20
-5.75
 30
11.5
 10
-2.3
 20
-5.75
 30
11.5
 10
-4.7
 20
-5.75
 30
5.5
 10
-4.7
 20
-6.25
 30
5.5
 10
-4.7
 20
-6.25
 30
11.5
 10
-4.7
 20
-5.75
 30
11.5
 10
2.3
 20
-5.75
 30
5.5
 10
4.7
 20
-5.75
 30
5.5
 10
4.7
 20
-6.25
 30
5.5
 10
2.3
 20
-6.25
 30
5.5
 10
2.3
 20
-6.25
 30
11.5
 10
4.7
 20
-6.25
 30
11.5
 10
4.7
 20
-5.75
 30
11.5
 10
2.3
 20
-5.75
 30
11.5
 10
2.3
 20
-6.25
 30
5.5
 10
4.7
 20
-6.25
 30
5.5
 10
4.7
 20
-6.25
 30
11.5
 10
2.3
 20
-6.25
 30
11.5
 10
4.7
 20
-6.25
 30
5.5
 10
4.7
 20
-5.75
 30
5.5
 10
4.7
 20
-5.75
 30
11.5
 10
4.7
 20
-6.25
 30
11.5
 10
4.7
 20
-5.75
 30
5.5
 10
2.3
 20
-5.75
 30
5.5
 10
2.3
 20
-5.75
 30
11.5
 10
4.7
 20
-5.75
 30
11.5
 10
2.3
 20
-5.75
 30
5.5
 10
2.3
 20
-6.25
 30
5.5
 10
2.3
 20
-6.25
 30
11.5
 10
2.3
 20
-5.75
 30
11.5
 10
-4.2
 20
18.25
 30
5.5
 10
-1.8
 20
18.25
 30
5.5
 10
-1.8
 20
17.75
 30
5.5
 10
-4.2
 20
17.75
 30
5.5
 10
-4.2
 20
17.75
 30
11.5
 10
-1.8
 20
17.75
 30
11.5
 10
-1.8
 20
18.25
 30
11.5
 10
-4.2
 20
18.25
 30
11.5
 10
-4.2
 20
17.75
 30
5.5
 10
-1.8
 20
17.75
 30
5.5
 10
-1.8
 20
17.75
 30
11.5
 10
-4.2
 20
17.75
 30
11.5
 10
-1.8
 20
17.75
 30
5.5
 10
-1.8
 20
18.25
 30
5.5
 10
-1.8
 20
18.25
 30
11.5
 10
-1.8
 20
17.75
 30
11.5
 10
-1.8
 20
18.25
 30
5.5
 10
-4.2
 20
18.25
 30
5.5
 10
-4.2
 20
18.25
 30
11.5
 10
-1.8
 20
18.25
 30
11.5
 10
-4.2
 20
18.25
 30
5.5
 10
-4.2
 20
17.75
 30
5.5
 10
-4.2
 20
17.75
 30
11.5
 10
-4.2
 20
18.25
 30
11.5
 10
1.8
 20
18.25
 30
5.5
 10
4.2
 20
18.25
 30
5.5
 10
4.2
 20
17.75
 30
5.5
 10
1.8
 20
17.75
 30
5.5
 10
1.8
 20
17.75
 30
11.5
 10
4.2
 20
17.75
 30
11.5
 10
4.2
 20
18.25
 30
11.5
 10
1.8
 20
18.25
 30
11.5
 10
1.8
 20
17.75
 30
5.5
 10
4.2
 20
17.75
 30
5.5
 10
4.2
 20
17.75
 30
11.5
 10
1.8
 20
17.75
 30
11.5
 10
4.2
 20
17.75
 30
5.5
 10
4.2
 20
18.25
 30
5.5
 10
4.2
 20
18.25
 30
11.5
 10
4.2
 20
17.75
 30
11.5
 10
4.2
 20
18.25
 30
5.5
 10
1.8
 20
18.25
 30
5.5
 10
1.8
 20
18.25
 30
11.5
 10
4.2
 20
18.25
 30
11.5
 10
1.8
 20
18.25
 30
5.5
 10
1.8
 20
17.75
 30
5.5
 10
1.8
 20
17.75
 30
11.5
 10
1.8
 20
18.25
 30
11.5
 10
0.0
 20
-6.1
 30
17.6
 10
1.3314791228132148
 20
-5.667376207875074
 30
17.6
 10
1.4
 20
-6.1
 30
17.6
 10
0.0
 20
-6.1
 30
17.6
 10
1.1326237921249263
 20
-5.2771006467905375
 30
17.6
 10
1.3314791228132148
 20
-5.667376207875074
 30
17.6
 10
0.0
 20
-6.1
 30
17.6
 10
0.8228993532094624
 20
-4.967376207875073
 30
17.6
 10
1.1326237921249263
 20
-5.2771006467905375
 30
17.6
 10
0.0
 20
-6.1
 30
17.6
 10
0.4326237921249264
 20
-4.768520877186785
 30
17.6
 10
0.8228993532094624
 20
-4.967376207875073
 30
17.6
 10
0.0
 20
-6.1
 30
17.6
 10
8.572527594031472e-17
 20
-4.699999999999999
 30
17.6
 10
0.4326237921249264
 20
-4.768520877186785
 30
17.6
 10
0.0
 20
-6.1
 30
17.6
 10
-0.43262379212492624
 20
-4.768520877186784
 30
17.6
 10
8.572527594031472e-17
 20
-4.699999999999999
 30
17.6
 10
0.0
 20
-6.1
 30
17.6
 10
-0.8228993532094622
 20
-4.967376207875073
 30
17.6
 10
-0.43262379212492624
 20
-4.768520877186784
 30
17.6
 10
0.0
 20
-6.1
 30
17.6
 10
-1.1326237921249263
 20
-5.2771006467905375
 30
17.6
 10
-0.8228993532094622
 20
-4.967376207875073
 30
17.6
 10
0.0
 20
-6.1
 30
17.6
 10
-1.3314791228132148
 20
-5.667376207875074
 30
17.6
 10
-1.1326237921249263
 20
-5.2771006467905375
 30
17.6
 10
0.0
 20
-6.1
 30
17.6
 10
-1.4
 20
-6.1
 30
17.6
 10
-1.3314791228132148
 20
-5.667376207875074
 30
17.6
 10
0.0
 20
-6.1
 30
17.6
 10
-1.3314791228132152
 20
-6.532623792124925
 30
17.6
 10
-1.4
 20
-6.1
 30
17.6
 10
0.0
 20
-6.1
 30
17.6
 10
-1.1326237921249265
 20
-6.922899353209462
 30
17.6
 10
-1.3314791228132152
 20
-6.532623792124925
 30
17.6
 10
0.0
 20
-6.1
 30
17.6
 10
-0.8228993532094625
 20
-7.232623792124926
 30
17.6
 10
-1.1326237921249265
 20
-6.922899353209462
 30
17.6
 10
0.0
 20
-6.1
 30
17.6
 10
-0.4326237921249266
 20
-7.431479122813214
 30
17.6
 10
-0.8228993532094625
 20
-7.232623792124926
 30
17.6
 10
0.0
 20
-6.1
 30
17.6
 10
-2.5717582782094415e-16
 20
-7.5
 30
17.6
 10
-0.4326237921249266
 20
-7.431479122813214
 30
17.6
 10
0.0
 20
-6.1
 30
17.6
 10
0.4326237921249261
 20
-7.431479122813215
 30
17.6
 10
-2.5717582782094415e-16
 20
-7.5
 30
17.6
 10
0.0
 20
-6.1
 30
17.6
 10
0.8228993532094621
 20
-7.232623792124926
 30
17.6
 10
0.4326237921249261
 20
-7.431479122813215
 30
17.6
 10
0.0
 20
-6.1
 30
17.6
 10
1.1326237921249263
 20
-6.922899353209463
 30
17.6
 10
0.8228993532094621
 20
-7.232623792124926
 30
17.6
 10
0.0
 20
-6.1
 30
17.6
 10
1.3314791228132148
 20
-6.532623792124927
 30
17.6
 10
1.1326237921249263
 20
-6.922899353209463
 30
17.6
 10
0.0
 20
-6.1
 30
17.6
 10
1.4
 20
-6.1
 30
17.6
 10
1.3314791228132148
 20
-6.532623792124927
 30
17.6
 10
1.4
 20
-6.1
 30
17.6
 10
1.3314791228132148
 20
-5.667376207875074
 30
17.6
 10
1.3314791228132148
 20
-5.667376207875074
 30
17.0
 10
1.4
 20
-6.1
 30
17.0
 10
1.3314791228132148
 20
-5.667376207875074
 30
17.6
 10
1.1326237921249263
 20
-5.2771006467905375
 30
17.6
 10
1.1326237921249263
 20
-5.2771006467905375
 30
17.0
 10
1.3314791228132148
 20
-5.667376207875074
 30
17.0
 10
1.1326237921249263
 20
-5.2771006467905375
 30
17.6
 10
0.8228993532094624
 20
-4.967376207875073
 30
17.6
 10
0.8228993532094624
 20
-4.967376207875073
 30
17.0
 10
1.1326237921249263
 20
-5.2771006467905375
 30
17.0
 10
0.8228993532094624
 20
-4.967376207875073
 30
17.6
 10
0.4326237921249264
 20
-4.768520877186785
 30
17.6
 10
0.4326237921249264
 20
-4.768520877186785
 30
17.0
 10
0.8228993532094624
 20
-4.967376207875073
 30
17.0
 10
0.4326237921249264
 20
-4.768520877186785
 30
17.6
 10
8.572527594031472e-17
 20
-4.699999999999999
 30
17.6
 10
8.572527594031472e-17
 20
-4.699999999999999
 30
17.0
 10
0.4326237921249264
 20
-4.768520877186785
 30
17.0
 10
8.572527594031472e-17
 20
-4.699999999999999
 30
17.6
 10
-0.43262379212492624
 20
-4.768520877186784
 30
17.6
 10
-0.43262379212492624
 20
-4.768520877186784
 30
17.0
 10
8.572527594031472e-17
 20
-4.699999999999999
 30
17.0
 10
-0.43262379212492624
 20
-4.768520877186784
 30
17.6
 10
-0.8228993532094622
 20
-4.967376207875073
 30
17.6
 10
-0.8228993532094622
 20
-4.967376207875073
 30
17.0
 10
-0.43262379212492624
 20
-4.768520877186784
 30
17.0
 10
-0.8228993532094622
 20
-4.967376207875073
 30
17.6
 10
-1.1326237921249263
 20
-5.2771006467905375
 30
17.6
 10
-1.1326237921249263
 20
-5.2771006467905375
 30
17.0
 10
-0.8228993532094622
 20
-4.967376207875073
 30
17.0
 10
-1.1326237921249263
 20
-5.2771006467905375
 30
17.6
 10
-1.3314791228132148
 20
-5.667376207875074
 30
17.6
 10
-1.3314791228132148
 20
-5.667376207875074
 30
17.0
 10
-1.1326237921249263
 20
-5.2771006467905375
 30
17.0
 10
-1.3314791228132148
 20
-5.667376207875074
 30
17.6
 10
-1.4
 20
-6.1
 30
17.6
 10
-1.4
 20
-6.1
 30
17.0
 10
-1.3314791228132148
 20
-5.667376207875074
 30
17.0
 10
-1.4
 20
-6.1
 30
17.6
 10
-1.3314791228132152
 20
-6.532623792124925
 30
17.6
 10
-1.3314791228132152
 20
-6.532623792124925
 30
17.0
 10
-1.4
 20
-6.1
 30
17.0
 10
-1.3314791228132152
 20
-6.532623792124925
 30
17.6
 10
-1.1326237921249265
 20
-6.922899353209462
 30
17.6
 10
-1.1326237921249265
 20
-6.922899353209462
 30
17.0
 10
-1.3314791228132152
 20
-6.532623792124925
 30
17.0
 10
-1.1326237921249265
 20
-6.922899353209462
 30
17.6
 10
-0.8228993532094625
 20
-7.232623792124926
 30
17.6
 10
-0.8228993532094625
 20
-7.232623792124926
 30
17.0
 10
-1.1326237921249265
 20
-6.922899353209462
 30
17.0
 10
-0.8228993532094625
 20
-7.232623792124926
 30
17.6
 10
-0.4326237921249266
 20
-7.431479122813214
 30
17.6
 10
-0.4326237921249266
 20
-7.431479122813214
 30
17.0
 10
-0.8228993532094625
 20
-7.232623792124926
 30
17.0
 10
-0.4326237921249266
 20
-7.431479122813214
 30
17.6
 10
-2.5717582782094415e-16
 20
-7.5
 30
17.6
 10
-2.5717582782094415e-16
 20
-7.5
 30
17.0
 10
-0.4326237921249266
 20
-7.431479122813214
 30
17.0
 10
-2.5717582782094415e-16
 20
-7.5
 30
17.6
 10
0.4326237921249261
 20
-7.431479122813215
 30
17.6
 10
0.4326237921249261
 20
-7.431479122813215
 30
17.0
 10
-2.5717582782094415e-16
 20
-7.5
 30
17.0
 10
0.4326237921249261
 20
-7.431479122813215
 30
17.6
 10
0.8228993532094621
 20
-7.232623792124926
 30
17.6
 10
0.8228993532094621
 20
-7.232623792124926
 30
17.0
 10
0.4326237921249261
 20
-7.431479122813215
 30
17.0
 10
0.8228993532094621
 20
-7.232623792124926
 30
17.6
 10
1.1326237921249263
 20
-6.922899353209463
 30
17.6
 10
1.1326237921249263
 20
-6.922899353209463
 30
17.0
 10
0.8228993532094621
 20
-7.232623792124926
 30
17.0
 10
1.1326237921249263
 20
-6.922899353209463
 30
17.6
 10
1.3314791228132148
 20
-6.532623792124927
 30
17.6
 10
1.3314791228132148
 20
-6.532623792124927
 30
17.0
 10
1.1326237921249263
 20
-6.922899353209463
 30
17.0
 10
1.3314791228132148
 20
-6.532623792124927
 30
17.6
 10
1.4
 20
-6.1
 30
17.6
 10
1.4
 20
-6.1
 30
17.0
 10
1.3314791228132148
 20
-6.532623792124927
 30
17.0
 10
1.4
 20
-6.1
 30
17.0
 10
1.3314791228132148
 20
-5.667376207875074
 30
17.0
 10
0.0
 20
-6.1
 30
17.0
 10
1.3314791228132148
 20
-5.667376207875074
 30
17.0
 10
1.1326237921249263
 20
-5.2771006467905375
 30
17.0
 10
0.0
 20
-6.1
 30
17.0
 10
1.1326237921249263
 20
-5.2771006467905375
 30
17.0
 10
0.8228993532094624
 20
-4.967376207875073
 30
17.0
 10
0.0
 20
-6.1
 30
17.0
 10
0.8228993532094624
 20
-4.967376207875073
 30
17.0
 10
0.4326237921249264
 20
-4.768520877186785
 30
17.0
 10
0.0
 20
-6.1
 30
17.0
 10
0.4326237921249264
 20
-4.768520877186785
 30
17.0
 10
8.572527594031472e-17
 20
-4.699999999999999
 30
17.0
 10
0.0
 20
-6.1
 30
17.0
 10
8.572527594031472e-17
 20
-4.699999999999999
 30
17.0
 10
-0.43262379212492624
 20
-4.768520877186784
 30
17.0
 10
0.0
 20
-6.1
 30
17.0
 10
-0.43262379212492624
 20
-4.768520877186784
 30
17.0
 10
-0.8228993532094622
 20
-4.967376207875073
 30
17.0
 10
0.0
 20
-6.1
 30
17.0
 10
-0.8228993532094622
 20
-4.967376207875073
 30
17.0
 10
-1.1326237921249263
 20
-5.2771006467905375
 30
17.0
 10
0.0
 20
-6.1
 30
17.0
 10
-1.1326237921249263
 20
-5.2771006467905375
 30
17.0
 10
-1.3314791228132148
 20
-5.667376207875074
 30
17.0
 10
0.0
 20
-6.1
 30
17.0
 10
-1.3314791228132148
 20
-5.667376207875074
 30
17.0
 10
-1.4
 20
-6.1
 30
17.0
 10
0.0
 20
-6.1
 30
17.0
 10
-1.4
 20
-6.1
 30
17.0
 10
-1.3314791228132152
 20
-6.532623792124925
 30
17.0
 10
0.0
 20
-6.1
 30
17.0
 10
-1.3314791228132152
 20
-6.532623792124925
 30
17.0
 10
-1.1326237921249265
 20
-6.922899353209462
 30
17.0
 10
0.0
 20
-6.1
 30
17.0
 10
-1.1326237921249265
 20
-6.922899353209462
 30
17.0
 10
-0.8228993532094625
 20
-7.232623792124926
 30
17.0
 10
0.0
 20
-6.1
 30
17.0
 10
-0.8228993532094625
 20
-7.232623792124926
 30
17.0
 10
-0.4326237921249266
 20
-7.431479122813214
 30
17.0
 10
0.0
 20
-6.1
 30
17.0
 10
-0.4326237921249266
 20
-7.431479122813214
 30
17.0
 10
-2.5717582782094415e-16
 20
-7.5
 30
17.0
 10
0.0
 20
-6.1
 30
17.0
 10
-2.5717582782094415e-16
 20
-7.5
 30
17.0
 10
0.4326237921249261
 20
-7.431479122813215
 30
17.0
 10
0.0
 20
-6.1
 30
17.0
 10
0.4326237921249261
 20
-7.431479122813215
 30
17.0
 10
0.8228993532094621
 20
-7.232623792124926
 30
17.0
 10
0.0
 20
-6.1
 30
17.0
 10
0.8228993532094621
 20
-7.232623792124926
 30
17.0
 10
1.1326237921249263
 20
-6.922899353209463
 30
17.0
 10
0.0
 20
-6.1
 30
17.0
 10
1.1326237921249263
 20
-6.922899353209463
 30
17.0
 10
1.3314791228132148
 20
-6.532623792124927
 30
17.0
 10
0.0
 20
-6.1
 30
17.0
 10
1.3314791228132148
 20
-6.532623792124927
 30
17.0
 10
1.4
 20
-6.1
 30
17.0
 10
0.0
 20
-6.1
 30
17.0
 10
1.0774139443848214
 20
-3.473292659298076
 30
6.0
 10
2.2774139443848216
 20
-3.473292659298076
 30
6.0
 10
2.2774139443848216
 20
-4.673292659298076
 30
6.0
 10
1.0774139443848214
 20
-4.673292659298076
 30
6.0
 10
1.0774139443848214
 20
-4.673292659298076
 30
11.0
 10
2.2774139443848216
 20
-4.673292659298076
 30
11.0
 10
2.2774139443848216
 20
-3.473292659298076
 30
11.0
 10
1.0774139443848214
 20
-3.473292659298076
 30
11.0
 10
1.0774139443848214
 20
-4.673292659298076
 30
6.0
 10
2.2774139443848216
 20
-4.673292659298076
 30
6.0
 10
2.2774139443848216
 20
-4.673292659298076
 30
11.0
 10
1.0774139443848214
 20
-4.673292659298076
 30
11.0
 10
2.2774139443848216
 20
-4.673292659298076
 30
6.0
 10
2.2774139443848216
 20
-3.473292659298076
 30
6.0
 10
2.2774139443848216
 20
-3.473292659298076
 30
11.0
 10
2.2774139443848216
 20
-4.673292659298076
 30
11.0
 10
2.2774139443848216
 20
-3.473292659298076
 30
6.0
 10
1.0774139443848214
 20
-3.473292659298076
 30
6.0
 10
1.0774139443848214
 20
-3.473292659298076
 30
11.0
 10
2.2774139443848216
 20
-3.473292659298076
 30
11.0
 10
1.0774139443848214
 20
-3.473292659298076
 30
6.0
 10
1.0774139443848214
 20
-4.673292659298076
 30
6.0
 10
1.0774139443848214
 20
-4.673292659298076
 30
11.0
 10
1.0774139443848214
 20
-3.473292659298076
 30
11.0
 10
3.8267073407019248
 20
-6.222586055615179
 30
6.0
 10
5.0267073407019245
 20
-6.222586055615179
 30
6.0
 10
5.0267073407019245
 20
-7.422586055615178
 30
6.0
 10
3.8267073407019248
 20
-7.422586055615178
 30
6.0
 10
3.8267073407019248
 20
-7.422586055615178
 30
11.0
 10
5.0267073407019245
 20
-7.422586055615178
 30
11.0
 10
5.0267073407019245
 20
-6.222586055615179
 30
11.0
 10
3.8267073407019248
 20
-6.222586055615179
 30
11.0
 10
3.8267073407019248
 20
-7.422586055615178
 30
6.0
 10
5.0267073407019245
 20
-7.422586055615178
 30
6.0
 10
5.0267073407019245
 20
-7.422586055615178
 30
11.0
 10
3.8267073407019248
 20
-7.422586055615178
 30
11.0
 10
5.0267073407019245
 20
-7.422586055615178
 30
6.0
 10
5.0267073407019245
 20
-6.222586055615179
 30
6.0
 10
5.0267073407019245
 20
-6.222586055615179
 30
11.0
 10
5.0267073407019245
 20
-7.422586055615178
 30
11.0
 10
5.0267073407019245
 20
-6.222586055615179
 30
6.0
 10
3.8267073407019248
 20
-6.222586055615179
 30
6.0
 10
3.8267073407019248
 20
-6.222586055615179
 30
11.0
 10
5.0267073407019245
 20
-6.222586055615179
 30
11.0
 10
3.8267073407019248
 20
-6.222586055615179
 30
6.0
 10
3.8267073407019248
 20
-7.422586055615178
 30
6.0
 10
3.8267073407019248
 20
-7.422586055615178
 30
11.0
 10
3.8267073407019248
 20
-6.222586055615179
 30
11.0
 10
7.700000000000001
 20
-5.883716857408418
 30
6.0
 10
8.9
 20
-5.883716857408418
 30
6.0
 10
8.9
 20
-7.083716857408417
 30
6.0
 10
7.700000000000001
 20
-7.083716857408417
 30
6.0
 10
7.700000000000001
 20
-7.083716857408417
 30
11.0
 10
8.9
 20
-7.083716857408417
 30
11.0
 10
8.9
 20
-5.883716857408418
 30
11.0
 10
7.700000000000001
 20
-5.883716857408418
 30
11.0
 10
7.700000000000001
 20
-7.083716857408417
 30
6.0
 10
8.9
 20
-7.083716857408417
 30
6.0
 10
8.9
 20
-7.083716857408417
 30
11.0
 10
7.700000000000001
 20
-7.083716857408417
 30
11.0
 10
8.9
 20
-7.083716857408417
 30
6.0
 10
8.9
 20
-5.883716857408418
 30
6.0
 10
8.9
 20
-5.883716857408418
 30
11.0
 10
8.9
 20
-7.083716857408417
 30
11.0
 10
8.9
 20
-5.883716857408418
 30
6.0
 10
7.700000000000001
 20
-5.883716857408418
 30
6.0
 10
7.700000000000001
 20
-5.883716857408418
 30
11.0
 10
8.9
 20
-5.883716857408418
 30
11.0
 10
7.700000000000001
 20
-5.883716857408418
 30
6.0
 10
7.700000000000001
 20
-7.083716857408417
 30
6.0
 10
7.700000000000001
 20
-7.083716857408417
 30
11.0
 10
7.700000000000001
 20
-5.883716857408418
 30
11.0
 93
848
 90
3
 90
0
 90
1
 90
2
 90
3
 90
0
 90
2
 90
3
 90
3
 90
4
 90
5
 90
6
 90
3
 90
4
 90
6
 90
7
 90
3
 90
8
 90
9
 90
10
 90
3
 90
8
 90
10
 90
11
 90
3
 90
12
 90
13
 90
14
 90
3
 90
12
 90
14
 90
15
 90
3
 90
16
 90
17
 90
18
 90
3
 90
16
 90
18
 90
19
 90
3
 90
20
 90
21
 90
22
 90
3
 90
20
 90
22
 90
23
 90
3
 90
24
 90
25
 90
26
 90
3
 90
24
 90
26
 90
27
 90
3
 90
28
 90
29
 90
30
 90
3
 90
28
 90
30
 90
31
 90
3
 90
32
 90
33
 90
34
 90
3
 90
32
 90
34
 90
35
 90
3
 90
36
 90
37
 90
38
 90
3
 90
36
 90
38
 90
39
 90
3
 90
40
 90
41
 90
42
 90
3
 90
40
 90
42
 90
43
 90
3
 90
44
 90
45
 90
46
 90
3
 90
44
 90
46
 90
47
 90
3
 90
48
 90
49
 90
50
 90
3
 90
48
 90
50
 90
51
 90
3
 90
52
 90
53
 90
54
 90
3
 90
52
 90
54
 90
55
 90
3
 90
56
 90
57
 90
58
 90
3
 90
56
 90
58
 90
59
 90
3
 90
60
 90
61
 90
62
 90
3
 90
60
 90
62
 90
63
 90
3
 90
64
 90
65
 90
66
 90
3
 90
64
 90
66
 90
67
 90
3
 90
68
 90
69
 90
70
 90
3
 90
68
 90
70
 90
71
 90
3
 90
72
 90
73
 90
74
 90
3
 90
72
 90
74
 90
75
 90
3
 90
76
 90
77
 90
78
 90
3
 90
76
 90
78
 90
79
 90
3
 90
80
 90
81
 90
82
 90
3
 90
80
 90
82
 90
83
 90
3
 90
84
 90
85
 90
86
 90
3
 90
84
 90
86
 90
87
 90
3
 90
88
 90
89
 90
90
 90
3
 90
88
 90
90
 90
91
 90
3
 90
92
 90
93
 90
94
 90
3
 90
92
 90
94
 90
95
 90
3
 90
96
 90
97
 90
98
 90
3
 90
96
 90
98
 90
99
 90
3
 90
100
 90
101
 90
102
 90
3
 90
100
 90
102
 90
103
 90
3
 90
104
 90
105
 90
106
 90
3
 90
104
 90
106
 90
107
 90
3
 90
108
 90
109
 90
110
 90
3
 90
108
 90
110
 90
111
 90
3
 90
112
 90
113
 90
114
 90
3
 90
112
 90
114
 90
115
 90
3
 90
116
 90
117
 90
118
 90
3
 90
116
 90
118
 90
119
 90
3
 90
120
 90
121
 90
122
 90
3
 90
120
 90
122
 90
123
 90
3
 90
124
 90
125
 90
126
 90
3
 90
124
 90
126
 90
127
 90
3
 90
128
 90
129
 90
130
 90
3
 90
128
 90
130
 90
131
 90
3
 90
132
 90
133
 90
134
 90
3
 90
132
 90
134
 90
135
 90
3
 90
136
 90
137
 90
138
 90
3
 90
136
 90
138
 90
139
 90
3
 90
140
 90
141
 90
142
 90
3
 90
140
 90
142
 90
143
 90
3
 90
144
 90
145
 90
146
 90
3
 90
144
 90
146
 90
147
 90
3
 90
148
 90
149
 90
150
 90
3
 90
148
 90
150
 90
151
 90
3
 90
152
 90
153
 90
154
 90
3
 90
152
 90
154
 90
155
 90
3
 90
156
 90
157
 90
158
 90
3
 90
156
 90
158
 90
159
 90
3
 90
160
 90
161
 90
162
 90
3
 90
160
 90
162
 90
163
 90
3
 90
164
 90
165
 90
166
 90
3
 90
164
 90
166
 90
167
 90
3
 90
168
 90
169
 90
170
 90
3
 90
168
 90
170
 90
171
 90
3
 90
172
 90
173
 90
174
 90
3
 90
172
 90
174
 90
175
 90
3
 90
176
 90
177
 90
178
 90
3
 90
176
 90
178
 90
179
 90
3
 90
180
 90
181
 90
182
 90
3
 90
180
 90
182
 90
183
 90
3
 90
184
 90
185
 90
186
 90
3
 90
184
 90
186
 90
187
 90
3
 90
188
 90
189
 90
190
 90
3
 90
188
 90
190
 90
191
 90
3
 90
192
 90
193
 90
194
 90
3
 90
195
 90
196
 90
197
 90
3
 90
198
 90
199
 90
200
 90
3
 90
201
 90
202
 90
203
 90
3
 90
204
 90
205
 90
206
 90
3
 90
207
 90
208
 90
209
 90
3
 90
210
 90
211
 90
212
 90
3
 90
213
 90
214
 90
215
 90
3
 90
216
 90
217
 90
218
 90
3
 90
219
 90
220
 90
221
 90
3
 90
222
 90
223
 90
224
 90
3
 90
225
 90
226
 90
227
 90
3
 90
228
 90
229
 90
230
 90
3
 90
231
 90
232
 90
233
 90
3
 90
234
 90
235
 90
236
 90
3
 90
237
 90
238
 90
239
 90
3
 90
240
 90
241
 90
242
 90
3
 90
243
 90
244
 90
245
 90
3
 90
246
 90
247
 90
248
 90
3
 90
249
 90
250
 90
251
 90
3
 90
252
 90
253
 90
254
 90
3
 90
252
 90
254
 90
255
 90
3
 90
256
 90
257
 90
258
 90
3
 90
256
 90
258
 90
259
 90
3
 90
260
 90
261
 90
262
 90
3
 90
260
 90
262
 90
263
 90
3
 90
264
 90
265
 90
266
 90
3
 90
264
 90
266
 90
267
 90
3
 90
268
 90
269
 90
270
 90
3
 90
268
 90
270
 90
271
 90
3
 90
272
 90
273
 90
274
 90
3
 90
272
 90
274
 90
275
 90
3
 90
276
 90
277
 90
278
 90
3
 90
276
 90
278
 90
279
 90
3
 90
280
 90
281
 90
282
 90
3
 90
280
 90
282
 90
283
 90
3
 90
284
 90
285
 90
286
 90
3
 90
284
 90
286
 90
287
 90
3
 90
288
 90
289
 90
290
 90
3
 90
288
 90
290
 90
291
 90
3
 90
292
 90
293
 90
294
 90
3
 90
292
 90
294
 90
295
 90
3
 90
296
 90
297
 90
298
 90
3
 90
296
 90
298
 90
299
 90
3
 90
300
 90
301
 90
302
 90
3
 90
300
 90
302
 90
303
 90
3
 90
304
 90
305
 90
306
 90
3
 90
304
 90
306
 90
307
 90
3
 90
308
 90
309
 90
310
 90
3
 90
308
 90
310
 90
311
 90
3
 90
312
 90
313
 90
314
 90
3
 90
312
 90
314
 90
315
 90
3
 90
316
 90
317
 90
318
 90
3
 90
316
 90
318
 90
319
 90
3
 90
320
 90
321
 90
322
 90
3
 90
320
 90
322
 90
323
 90
3
 90
324
 90
325
 90
326
 90
3
 90
324
 90
326
 90
327
 90
3
 90
328
 90
329
 90
330
 90
3
 90
328
 90
330
 90
331
 90
3
 90
332
 90
333
 90
334
 90
3
 90
335
 90
336
 90
337
 90
3
 90
338
 90
339
 90
340
 90
3
 90
341
 90
342
 90
343
 90
3
 90
344
 90
345
 90
346
 90
3
 90
347
 90
348
 90
349
 90
3
 90
350
 90
351
 90
352
 90
3
 90
353
 90
354
 90
355
 90
3
 90
356
 90
357
 90
358
 90
3
 90
359
 90
360
 90
361
 90
3
 90
362
 90
363
 90
364
 90
3
 90
365
 90
366
 90
367
 90
3
 90
368
 90
369
 90
370
 90
3
 90
371
 90
372
 90
373
 90
3
 90
374
 90
375
 90
376
 90
3
 90
377
 90
378
 90
379
 90
3
 90
380
 90
381
 90
382
 90
3
 90
383
 90
384
 90
385
 90
3
 90
386
 90
387
 90
388
 90
3
 90
389
 90
390
 90
391
 90
3
 90
392
 90
393
 90
394
 90
3
 90
392
 90
394
 90
395
 90
3
 90
396
 90
397
 90
398
 90
3
 90
396
 90
398
 90
399
 90
3
 90
400
 90
401
 90
402
 90
3
 90
400
 90
402
 90
403
 90
3
 90
404
 90
405
 90
406
 90
3
 90
404
 90
406
 90
407
 90
3
 90
408
 90
409
 90
410
 90
3
 90
408
 90
410
 90
411
 90
3
 90
412
 90
413
 90
414
 90
3
 90
412
 90
414
 90
415
 90
3
 90
416
 90
417
 90
418
 90
3
 90
416
 90
418
 90
419
 90
3
 90
420
 90
421
 90
422
 90
3
 90
420
 90
422
 90
423
 90
3
 90
424
 90
425
 90
426
 90
3
 90
424
 90
426
 90
427
 90
3
 90
428
 90
429
 90
430
 90
3
 90
428
 90
430
 90
431
 90
3
 90
432
 90
433
 90
434
 90
3
 90
432
 90
434
 90
435
 90
3
 90
436
 90
437
 90
438
 90
3
 90
436
 90
438
 90
439
 90
3
 90
440
 90
441
 90
442
 90
3
 90
440
 90
442
 90
443
 90
3
 90
444
 90
445
 90
446
 90
3
 90
444
 90
446
 90
447
 90
3
 90
448
 90
449
 90
450
 90
3
 90
448
 90
450
 90
451
 90
3
 90
452
 90
453
 90
454
 90
3
 90
452
 90
454
 90
455
 90
3
 90
456
 90
457
 90
458
 90
3
 90
456
 90
458
 90
459
 90
3
 90
460
 90
461
 90
462
 90
3
 90
460
 90
462
 90
463
 94
0
 95
0
 90
0
  0
MESH
  5
A8
330
17
100
AcDbEntity
  8
M-DOOR
100
AcDbSubDMesh
 71
2
 72
0
 91
0
 92
24
 10
-2.0
 20
-5.9
 30
3.0
 10
2.0
 20
-5.9
 30
3.0
 10
2.0
 20
-6.3
 30
3.0
 10
-2.0
 20
-6.3
 30
3.0
 10
-2.0
 20
-6.3
 30
11.0
 10
2.0
 20
-6.3
 30
11.0
 10
2.0
 20
-5.9
 30
11.0
 10
-2.0
 20
-5.9
 30
11.0
 10
-2.0
 20
-6.3
 30
3.0
 10
2.0
 20
-6.3
 30
3.0
 10
2.0
 20
-6.3
 30
11.0
 10
-2.0
 20
-6.3
 30
11.0
 10
2.0
 20
-6.3
 30
3.0
 10
2.0
 20
-5.9
 30
3.0
 10
2.0
 20
-5.9
 30
11.0
 10
2.0
 20
-6.3
 30
11.0
 10
2.0
 20
-5.9
 30
3.0
 10
-2.0
 20
-5.9
 30
3.0
 10
-2.0
 20
-5.9
 30
11.0
 10
2.0
 20
-5.9
 30
11.0
 10
-2.0
 20
-5.9
 30
3.0
 10
-2.0
 20
-6.3
 30
3.0
 10
-2.0
 20
-6.3
 30
11.0
 10
-2.0
 20
-5.9
 30
11.0
 93
48
 90
3
 90
0
 90
1
 90
2
 90
3
 90
0
 90
2
 90
3
 90
3
 90
4
 90
5
 90
6
 90
3
 90
4
 90
6
 90
7
 90
3
 90
8
 90
9
 90
10
 90
3
 90
8
 90
10
 90
11
 90
3
 90
12
 90
13
 90
14
 90
3
 90
12
 90
14
 90
15
 90
3
 90
16
 90
17
 90
18
 90
3
 90
16
 90
18
 90
19
 90
3
 90
20
 90
21
 90
22
 90
3
 90
20
 90
22
 90
23
 94
0
 95
0
 90
0
  0
MESH
  5
AA
330
17
100
AcDbEntity
  8
M-CHIMNEY
100
AcDbSubDMesh
 71
2
 72
0
 91
0
 92
24
 10
-4.0
 20
15.0
 30
19.0
 10
-2.0
 20
15.0
 30
19.0
 10
-2.0
 20
13.0
 30
19.0
 10
-4.0
 20
13.0
 30
19.0
 10
-4.0
 20
13.0
 30
33.0
 10
-2.0
 20
13.0
 30
33.0
 10
-2.0
 20
15.0
 30
33.0
 10
-4.0
 20
15.0
 30
33.0
 10
-4.0
 20
13.0
 30
19.0
 10
-2.0
 20
13.0
 30
19.0
 10
-2.0
 20
13.0
 30
33.0
 10
-4.0
 20
13.0
 30
33.0
 10
-2.0
 20
13.0
 30
19.0
 10
-2.0
 20
15.0
 30
19.0
 10
-2.0
 20
15.0
 30
33.0
 10
-2.0
 20
13.0
 30
33.0
 10
-2.0
 20
15.0
 30
19.0
 10
-4.0
 20
15.0
 30
19.0
 10
-4.0
 20
15.0
 30
33.0
 10
-2.0
 20
15.0
 30
33.0
 10
-4.0
 20
15.0
 30
19.0
 10
-4.0
 20
13.0
 30
19.0
 10
-4.0
 20
13.0
 30
33.0
 10
-4.0
 20
15.0
 30
33.0
 93
48
 90
3
 90
0
 90
1
 90
2
 90
3
 90
0
 90
2
 90
3
 90
3
 90
4
 90
5
 90
6
 90
3
 90
4
 90
6
 90
7
 90
3
 90
8
 90
9
 90
10
 90
3
 90
8
 90
10
 90
11
 90
3
 90
12
 90
13
 90
14
 90
3
 90
12
 90
14
 90
15
 90
3
 90
16
 90
17
 90
18
 90
3
 90
16
 90
18
 90
19
 90
3
 90
20
 90
21
 90
22
 90
3
 90
20
 90
22
 90
23
 94
0
 95
0
 90
0
  0
MESH
  5
AC
330
17
100
AcDbEntity
  8
M-TRIM
100
AcDbSubDMesh
 71
2
 72
0
 91
0
 92
24
 10
-7.3
 20
18.3
 30
12.6
 10
7.3
 20
18.3
 30
12.6
 10
7.3
 20
-6.3
 30
12.6
 10
-7.3
 20
-6.3
 30
12.6
 10
-7.3
 20
-6.3
 30
13.0
 10
7.3
 20
-6.3
 30
13.0
 10
7.3
 20
18.3
 30
13.0
 10
-7.3
 20
18.3
 30
13.0
 10
-7.3
 20
-6.3
 30
12.6
 10
7.3
 20
-6.3
 30
12.6
 10
7.3
 20
-6.3
 30
13.0
 10
-7.3
 20
-6.3
 30
13.0
 10
7.3
 20
-6.3
 30
12.6
 10
7.3
 20
18.3
 30
12.6
 10
7.3
 20
18.3
 30
13.0
 10
7.3
 20
-6.3
 30
13.0
 10
7.3
 20
18.3
 30
12.6
 10
-7.3
 20
18.3
 30
12.6
 10
-7.3
 20
18.3
 30
13.0
 10
7.3
 20
18.3
 30
13.0
 10
-7.3
 20
18.3
 30
12.6
 10
-7.3
 20
-6.3
 30
12.6
 10
-7.3
 20
-6.3
 30
13.0
 10
-7.3
 20
18.3
 30
13.0
 93
48
 90
3
 90
0
 90
1
 90
2
 90
3
 90
0
 90
2
 90
3
 90
3
 90
4
 90
5
 90
6
 90
3
 90
4
 90
6
 90
7
 90
3
 90
8
 90
9
 90
10
 90
3
 90
8
 90
10
 90
11
 90
3
 90
12
 90
13
 90
14
 90
3
 90
12
 90
14
 90
15
 90
3
 90
16
 90
17
 90
18
 90
3
 90
16
 90
18
 90
19
 90
3
 90
20
 90
21
 90
22
 90
3
 90
20
 90
22
 90
23
 94
0
 95
0
 90
0
  0
MESH
  5
AE
330
17
100
AcDbEntity
  8
M-WEATHERVANE
100
AcDbSubDMesh
 71
2
 72
0
 91
0
 92
24
 10
-0.1
 20
6.1
 30
28.0
 10
0.1
 20
6.1
 30
28.0
 10
0.1
 20
5.9
 30
28.0
 10
-0.1
 20
5.9
 30
28.0
 10
-0.1
 20
5.9
 30
32.0
 10
0.1
 20
5.9
 30
32.0
 10
0.1
 20
6.1
 30
32.0
 10
-0.1
 20
6.1
 30
32.0
 10
-0.1
 20
5.9
 30
28.0
 10
0.1
 20
5.9
 30
28.0
 10
0.1
 20
5.9
 30
32.0
 10
-0.1
 20
5.9
 30
32.0
 10
0.1
 20
5.9
 30
28.0
 10
0.1
 20
6.1
 30
28.0
 10
0.1
 20
6.1
 30
32.0
 10
0.1
 20
5.9
 30
32.0
 10
0.1
 20
6.1
 30
28.0
 10
-0.1
 20
6.1
 30
28.0
 10
-0.1
 20
6.1
 30
32.0
 10
0.1
 20
6.1
 30
32.0
 10
-0.1
 20
6.1
 30
28.0
 10
-0.1
 20
5.9
 30
28.0
 10
-0.1
 20
5.9
 30
32.0
 10
-0.1
 20
6.1
 30
32.0
 93
48
 90
3
 90
0
 90
1
 90
2
 90
3
 90
0
 90
2
 90
3
 90
3
 90
4
 90
5
 90
6
 90
3
 90
4
 90
6
 90
7
 90
3
 90
8
 90
9
 90
10
 90
3
 90
8
 90
10
 90
11
 90
3
 90
12
 90
13
 90
14
 90
3
 90
12
 90
14
 90
15
 90
3
 90
16
 90
17
 90
18
 90
3
 90
16
 90
18
 90
19
 90
3
 90
20
 90
21
 90
22
 90
3
 90
20
 90
22
 90
23
 94
0
 95
0
 90
0
  0
LWPOLYLINE
  5
AF
330
17
100
AcDbEntity
  8
A-WALL
100
AcDbPolyline
 90
4
 70
1
 43
0.5
 10
-7.0
 20
-6.0
 10
7.0
 20
-6.0
 10
7.0
 20
18.0
 10
-7.0
 20
18.0
  0
LWPOLYLINE
  5
B0
330
17
100
AcDbEntity
  8
A-WALL
100
AcDbPolyline
 90
8
 70
1
 43
0.5
 10
10.249845849551917
 20
-0.7396562111205871
 10
7.760343788879413
 20
1.7498458495519182
 10
4.239656211120588
 20
1.7498458495519182
 10
1.7501541504480818
 20
-0.7396562111205867
 10
1.7501541504480809
 20
-4.260343788879412
 10
4.239656211120584
 20
-6.749845849551917
 10
7.760343788879414
 20
-6.749845849551918
 10
10.249845849551917
 20
-4.260343788879416
  0
LWPOLYLINE
  5
B1
330
17
100
AcDbEntity
  8
A-DECK
100
AcDbPolyline
 90
4
 70
1
 10
-8.0
 20
-13.0
 10
1.5
 20
-13.0
 10
1.5
 20
-6.0
 10
-8.0
 20
-6.0
  0
LWPOLYLINE
  5
B2
330
17
100
AcDbEntity
  8
A-ROOF-OUTL
  6
DASHED
100
AcDbPolyline
 90
4
 70
1
 10
-8.5
 20
-7.5
 10
8.5
 20
-7.5
 10
8.5
 20
19.5
 10
-8.5
 20
19.5
  0
LINE
  5
B3
330
17
100
AcDbEntity
  8
A-DOOR
100
AcDbLine
 10
-2.0
 20
-6.0
 30
0.0
 11
2.0
 21
-6.0
 31
0.0
  0
CIRCLE
  5
B4
330
17
100
AcDbEntity
  8
A-GLAZ
100
AcDbCircle
 10
-7.0
 20
4.0
 30
0.0
 40
0.6
  0
CIRCLE
  5
B5
330
17
100
AcDbEntity
  8
A-GLAZ
100
AcDbCircle
 10
-7.0
 20
11.0
 30
0.0
 40
0.6
  0
CIRCLE
  5
B6
330
17
100
AcDbEntity
  8
A-GLAZ
100
AcDbCircle
 10
7.0
 20
6.0
 30
0.0
 40
0.6
  0
CIRCLE
  5
B7
330
17
100
AcDbEntity
  8
A-GLAZ
100
AcDbCircle
 10
7.0
 20
13.0
 30
0.0
 40
0.6
  0
CIRCLE
  5
B8
330
17
100
AcDbEntity
  8
A-GLAZ
100
AcDbCircle
 10
-3.5
 20
-6.0
 30
0.0
 40
0.6
  0
CIRCLE
  5
B9
330
17
100
AcDbEntity
  8
A-GLAZ
100
AcDbCircle
 10
3.5
 20
-6.0
 30
0.0
 40
0.6
  0
CIRCLE
  5
BA
330
17
100
AcDbEntity
  8
A-GLAZ
100
AcDbCircle
 10
-3.0
 20
18.0
 30
0.0
 40
0.6
  0
CIRCLE
  5
BB
330
17
100
AcDbEntity
  8
A-GLAZ
100
AcDbCircle
 10
3.0
 20
18.0
 30
0.0
 40
0.6
  0
TEXT
  5
BC
330
17
100
AcDbEntity
  8
A-ANNO
100
AcDbText
 10
-2.0
 20
-1.0
 30
0.0
 40
0.8
  1
PARLOUR  120 SF
 72
1
 11
-2.0
 21
-1.0
 31
0.0
100
AcDbText
 73
2
  0
TEXT
  5
BD
330
17
100
AcDbEntity
  8
A-ANNO
100
AcDbText
 10
-2.0
 20
7.0
 30
0.0
 40
0.8
  1
KITCHEN  90 SF
 72
1
 11
-2.0
 21
7.0
 31
0.0
100
AcDbText
 73
2
  0
TEXT
  5
BE
330
17
100
AcDbEntity
  8
A-ANNO
100
AcDbText
 10
4.0
 20
11.0
 30
0.0
 40
0.8
  1
BATH  45 SF
 72
1
 11
4.0
 21
11.0
 31
0.0
100
AcDbText
 73
2
  0
TEXT
  5
BF
330
17
100
AcDbEntity
  8
A-ANNO
100
AcDbText
 10
-4.5
 20
14.5
 30
0.0
 40
0.8
  1
STAIR TO LOFT  30 SF
 72
1
 11
-4.5
 21
14.5
 31
0.0
100
AcDbText
 73
2
  0
TEXT
  5
C0
330
17
100
AcDbEntity
  8
A-ANNO
100
AcDbText
 10
6.0
 20
-2.5
 30
0.0
 40
0.8
  1
TURRET READING NOOK  60 SF
 72
1
 11
6.0
 21
-2.5
 31
0.0
100
AcDbText
 73
2
  0
TEXT
  5
C1
330
17
100
AcDbEntity
  8
A-ANNO
100
AcDbText
 10
0.0
 20
3.0
 30
0.0
 40
0.8
  1
SLEEP LOFT ABOVE  168 SF
 72
1
 11
0.0
 21
3.0
 31
0.0
100
AcDbText
 73
2
  0
TEXT
  5
C2
330
17
100
AcDbEntity
  8
A-ANNO
100
AcDbText
 10
-3.3
 20
-9.5
 30
0.0
 40
0.8
  1
PORCH  78 SF
 72
1
 11
-3.3
 21
-9.5
 31
0.0
100
AcDbText
 73
2
  0
LWPOLYLINE
  5
C3
330
17
100
AcDbEntity
  8
A-FURN
100
AcDbPolyline
 90
4
 70
1
 10
-6.0
 20
-4.0
 10
-3.5
 20
-4.0
 10
-3.5
 20
2.0
 10
-6.0
 20
2.0
  0
LWPOLYLINE
  5
C4
330
17
100
AcDbEntity
  8
A-FURN
100
AcDbPolyline
 90
4
 70
1
 10
-6.5
 20
5.0
 10
-4.5
 20
5.0
 10
-4.5
 20
11.0
 10
-6.5
 20
11.0
  0
LWPOLYLINE
  5
C5
330
17
100
AcDbEntity
  8
A-FURN
100
AcDbPolyline
 90
4
 70
1
 10
4.0
 20
9.5
 10
5.6
 20
9.5
 10
5.6
 20
11.5
 10
4.0
 20
11.5
  0
LWPOLYLINE
  5
C6
330
17
100
AcDbEntity
  8
A-FURN
100
AcDbPolyline
 90
4
 70
1
 10
3.8
 20
12.2
 10
6.8
 20
12.2
 10
6.8
 20
15.2
 10
3.8
 20
15.2
  0
LWPOLYLINE
  5
C7
330
17
100
AcDbEntity
  8
A-FURN
100
AcDbPolyline
 90
4
 70
1
 10
-6.5
 20
12.5
 10
-3.5
 20
12.5
 10
-3.5
 20
17.5
 10
-6.5
 20
17.5
  0
LWPOLYLINE
  5
C8
330
17
100
AcDbEntity
  8
A-FURN
100
AcDbPolyline
 90
4
 70
1
 10
4.8
 20
15.5
 10
6.8
 20
15.5
 10
6.8
 20
17.5
 10
4.8
 20
17.5
  0
MTEXT
  5
C9
330
17
100
AcDbEntity
  8
A-ANNO
100
AcDbMText
 10
-17.0
 20
28.0
 30
0.0
 40
0.9
 41
40.0
 71
1
  1
WIDOW'S PEAK (haunted house) - TINY HOME CONCEPT\P14 x 24 ft main body, 9 ft octagonal turret, 6 ft deep front porch\PGROSS 564 SF, HEIGHT 34 FT\PLOCAL ORIGIN AT PAD CENTRE; -Y FACES THE LANE; UNITS FEET
  0
ENDSEC
  0
SECTION
  2
OBJECTS
  0
DICTIONARY
  5
A
330
0
100
AcDbDictionary
281
1
  3
ACAD_COLOR
350
B
  3
ACAD_GROUP
350
C
  3
ACAD_LAYOUT
350
D
  3
ACAD_MATERIAL
350
E
  3
ACAD_MLEADERSTYLE
350
F
  3
ACAD_MLINESTYLE
350
10
  3
ACAD_PLOTSETTINGS
350
11
  3
ACAD_PLOTSTYLENAME
350
12
  3
ACAD_SCALELIST
350
14
  3
ACAD_TABLESTYLE
350
15
  3
ACAD_VISUALSTYLE
350
16
  3
EZDXF_META
350
2D
  0
DICTIONARY
  5
B
330
A
100
AcDbDictionary
281
1
  0
DICTIONARY
  5
C
330
A
100
AcDbDictionary
281
1
  0
DICTIONARY
  5
D
330
A
100
AcDbDictionary
281
1
  3
Model
350
1A
  3
Layout1
350
1E
  0
DICTIONARY
  5
E
330
A
100
AcDbDictionary
281
1
  3
ByBlock
350
1F
  3
ByLayer
350
20
  3
Global
350
21
  0
DICTIONARY
  5
F
330
A
100
AcDbDictionary
281
1
  3
Standard
350
2C
  0
DICTIONARY
  5
10
330
A
100
AcDbDictionary
281
1
  3
Standard
350
22
  0
DICTIONARY
  5
11
330
A
100
AcDbDictionary
281
1
  0
ACDBDICTIONARYWDFLT
  5
12
330
A
100
AcDbDictionary
281
1
  3
Normal
350
13
100
AcDbDictionaryWithDefault
340
13
  0
ACDBPLACEHOLDER
  5
13
330
12
  0
DICTIONARY
  5
14
330
A
100
AcDbDictionary
281
1
  0
DICTIONARY
  5
15
330
A
100
AcDbDictionary
281
1
  0
DICTIONARY
  5
16
330
A
100
AcDbDictionary
281
1
  3
2dWireframe
350
5A
  3
Basic
350
5B
  3
Brighten
350
5C
  3
ColorChange
350
5D
  3
Conceptual
350
5E
  3
Dim
350
5F
  3
EdgeColorOff
350
60
  3
Facepattern
350
61
  3
Flat
350
62
  3
FlatWithEdges
350
63
  3
Gouraud
350
64
  3
GouraudWithEdges
350
65
  3
Hidden
350
66
  3
JitterOff
350
67
  3
Linepattern
350
68
  3
Modeling
350
69
  3
OverhangOff
350
6A
  3
Realistic
350
6B
  3
Shaded
350
6C
  3
Shaded with edges
350
6D
  3
Shades of Gray
350
6E
  3
Sketchy
350
6F
  3
Thicken
350
70
  3
Wireframe
350
71
  3
X-Ray
350
72
  0
LAYOUT
  5
1A
330
D
100
AcDbPlotSettings
  1

  4
A3
  6

 40
7.5
 41
20.0
 42
7.5
 43
20.0
 44
420.0
 45
297.0
 46
0.0
 47
0.0
 48
0.0
 49
0.0
140
0.0
141
0.0
142
1.0
143
1.0
 70
1024
 72
1
 73
0
 74
5
  7

 75
16
 76
0
 77
2
 78
300
147
1.0
148
0.0
149
0.0
100
AcDbLayout
  1
Model
 70
1
 71
0
 10
0.0
 20
0.0
 11
420.0
 21
297.0
 12
0.0
 22
0.0
 32
0.0
 14
1e+20
 24
1e+20
 34
1e+20
 15
-1e+20
 25
-1e+20
 35
-1e+20
146
0.0
 13
0.0
 23
0.0
 33
0.0
 16
1.0
 26
0.0
 36
0.0
 17
0.0
 27
1.0
 37
0.0
 76
1
330
17
  0
LAYOUT
  5
1E
330
D
100
AcDbPlotSettings
  1

  4
A3
  6

 40
7.5
 41
20.0
 42
7.5
 43
20.0
 44
420.0
 45
297.0
 46
0.0
 47
0.0
 48
0.0
 49
0.0
140
0.0
141
0.0
142
1.0
143
1.0
 70
0
 72
1
 73
0
 74
5
  7

 75
16
 76
0
 77
2
 78
300
147
1.0
148
0.0
149
0.0
100
AcDbLayout
  1
Layout1
 70
1
 71
1
 10
0.0
 20
0.0
 11
420.0
 21
297.0
 12
0.0
 22
0.0
 32
0.0
 14
1e+20
 24
1e+20
 34
1e+20
 15
-1e+20
 25
-1e+20
 35
-1e+20
146
0.0
 13
0.0
 23
0.0
 33
0.0
 16
1.0
 26
0.0
 36
0.0
 17
0.0
 27
1.0
 37
0.0
 76
1
330
1B
  0
MATERIAL
  5
1F
102
{ACAD_REACTORS
330
E
102
}
330
E
100
AcDbMaterial
  1
ByBlock
  2

 70
0
 40
1.0
 71
1
 41
1.0
 91
-1023410177
 42
1.0
 72
1
  3

 73
1
 74
1
 75
1
 44
0.5
 73
0
 45
1.0
 46
1.0
 77
1
  4

 78
1
 79
1
170
1
 48
1.0
171
1
  6

172
1
173
1
174
1
140
1.0
141
1.0
175
1
  7

176
1
177
1
178
1
143
1.0
179
1
  8

270
1
271
1
272
1
145
1.0
146
1.0
273
1
  9

274
1
275
1
276
1
 42
1.0
 72
1
  3

 73
1
 74
1
 75
1
 94
63
  0
MATERIAL
  5
20
102
{ACAD_REACTORS
330
E
102
}
330
E
100
AcDbMaterial
  1
ByLayer
  2

 70
0
 40
1.0
 71
1
 41
1.0
 91
-1023410177
 42
1.0
 72
1
  3

 73
1
 74
1
 75
1
 44
0.5
 73
0
 45
1.0
 46
1.0
 77
1
  4

 78
1
 79
1
170
1
 48
1.0
171
1
  6

172
1
173
1
174
1
140
1.0
141
1.0
175
1
  7

176
1
177
1
178
1
143
1.0
179
1
  8

270
1
271
1
272
1
145
1.0
146
1.0
273
1
  9

274
1
275
1
276
1
 42
1.0
 72
1
  3

 73
1
 74
1
 75
1
 94
63
  0
MATERIAL
  5
21
102
{ACAD_REACTORS
330
E
102
}
330
E
100
AcDbMaterial
  1
Global
  2

 70
0
 40
1.0
 71
1
 41
1.0
 91
-1023410177
 42
1.0
 72
1
  3

 73
1
 74
1
 75
1
 44
0.5
 73
0
 45
1.0
 46
1.0
 77
1
  4

 78
1
 79
1
170
1
 48
1.0
171
1
  6

172
1
173
1
174
1
140
1.0
141
1.0
175
1
  7

176
1
177
1
178
1
143
1.0
179
1
  8

270
1
271
1
272
1
145
1.0
146
1.0
273
1
  9

274
1
275
1
276
1
 42
1.0
 72
1
  3

 73
1
 74
1
 75
1
 94
63
  0
MLINESTYLE
  5
22
102
{ACAD_REACTORS
330
10
102
}
330
10
100
AcDbMlineStyle
  2
Standard
 70
0
  3

 62
256
 51
90.0
 52
90.0
 71
2
 49
0.5
 62
256
  6
BYLAYER
 49
-0.5
 62
256
  6
BYLAYER
  0
MLEADERSTYLE
  5
2C
102
{ACAD_REACTORS
330
F
102
}
330
F
100
AcDbMLeaderStyle
179
2
170
2
171
1
172
0
 90
2
 40
0.0
 41
0.0
173
1
 91
-1056964608
 92
-2
290
1
 42
2.0
291
1
 43
8.0
  3
Standard
 44
4.0
300

342
29
174
1
175
1
176
0
178
1
 93
-1056964608
 45
4.0
292
0
297
0
 46
4.0
 94
-1056964608
 47
1.0
 49
1.0
140
1.0
294
1
141
0.0
177
0
142
1.0
295
0
296
0
143
3.75
271
0
272
9
273
9
  0
DICTIONARY
  5
2D
330
A
100
AcDbDictionary
280
1
281
1
  3
CREATED_BY_EZDXF
350
2E
  3
WRITTEN_BY_EZDXF
350
CC
  0
DICTIONARYVAR
  5
2E
330
2D
100
DictionaryVariables
280
0
  1
1.4.4 @ 2026-09-29T11:25:56.300307+00:00
  0
VISUALSTYLE
  5
5A
102
{ACAD_REACTORS
330
16
102
}
330
16
100
AcDbVisualStyle
  2
2dWireframe
 70
4
177
3
291
0
 70
58
 90
2
176
1
 90
2
176
1
 90
0
176
1
 90
0
176
1
 40
0.6
176
1
 40
30.0
176
1
 62
7
420
16777215
176
1
 90
1
176
1
 90
4
176
1
 62
7
176
1
 62
257
176
1
 90
1
176
1
 90
1
176
1
 40
1.0
176
1
 90
8
176
1
 62
7
176
1
 40
1.0
176
1
 90
1
176
1
 90
6
176
1
 90
2
176
1
 62
7
176
1
 90
5
176
1
 90
0
176
1
 90
0
176
1
290
0
176
1
 90
1
176
1
 40
0.0
176
1
 90
0
176
1
290
1
176
1
290
1
176
1
290
0
176
1
290
0
176
1
290
0
176
1
290
0
176
1
290
0
176
1
290
0
176
1
290
0
176
1
 90
50
176
1
 40
0.0
176
1
 40
1.0
176
1
 90
0
176
1
 62
18
420
0
176
1
 90
50
176
1
 90
3
176
1
 62
5
420
255
176
1
290
0
176
1
 90
50
176
1
 90
50
176
1
 90
50
176
1
290
0
176
1
 90
50
176
1
 62
256
176
0
 40
1.0
176
0
 90
2
176
1
  1
strokes_ogs.tif
176
1
290
0
176
1
 40
1.0
176
1
 40
1.0
176
1
  0
VISUALSTYLE
  5
5B
102
{ACAD_REACTORS
330
16
102
}
330
16
100
AcDbVisualStyle
  2
Basic
 70
7
177
3
291
1
 70
58
 90
2
176
1
 90
2
176
1
 90
0
176
1
 90
1
176
1
 40
0.6
176
1
 40
30.0
176
1
 62
7
420
16777215
176
1
 90
1
176
1
 90
4
176
1
 62
7
176
1
 62
257
176
1
 90
1
176
1
 90
1
176
1
 40
1.0
176
1
 90
8
176
1
 62
7
176
1
 40
1.0
176
1
 90
1
176
1
 90
6
176
1
 90
2
176
1
 62
7
176
1
 90
5
176
1
 90
0
176
1
 90
0
176
1
290
0
176
1
 90
1
176
1
 40
0.0
176
1
 90
0
176
1
290
0
176
1
290
1
176
1
290
1
176
1
290
0
176
1
290
0
176
1
290
0
176
1
290
0
176
1
290
0
176
1
290
0
176
1
 90
50
176
1
 40
0.0
176
1
 40
1.0
176
1
 90
0
176
1
 62
18
420
0
176
1
 90
50
176
1
 90
3
176
1
 62
5
420
255
176
1
290
0
176
1
 90
50
176
1
 90
50
176
1
 90
50
176
1
290
0
176
1
 90
50
176
1
 62
256
176
0
 40
1.0
176
0
 90
2
176
1
  1
strokes_ogs.tif
176
1
290
0
176
1
 40
1.0
176
1
 40
1.0
176
1
  0
VISUALSTYLE
  5
5C
102
{ACAD_REACTORS
330
16
102
}
330
16
100
AcDbVisualStyle
  2
Brighten
 70
12
177
3
291
1
 70
58
 90
2
176
1
 90
2
176
1
 90
0
176
1
 90
2
176
1
 40
0.6
176
1
 40
30.0
176
1
 62
7
420
16777215
176
1
 90
1
176
1
 90
4
176
1
 62
7
176
1
 62
257
176
1
 90
1
176
1
 90
1
176
1
 40
1.0
176
1
 90
8
176
1
 62
7
176
1
 40
1.0
176
1
 90
1
176
1
 90
6
176
1
 90
2
176
1
 62
7
176
1
 90
5
176
1
 90
0
176
1
 90
0
176
1
290
0
176
1
 90
1
176
1
 40
0.0
176
1
 90
0
176
1
290
0
176
1
290
1
176
1
290
1
176
1
290
0
176
1
290
0
176
1
290
0
176
1
290
0
176
1
290
0
176
1
290
0
176
1
 90
50
176
1
 40
0.0
176
1
 40
1.0
176
1
 90
0
176
1
 62
18
420
0
176
1
 90
50
176
1
 90
3
176
1
 62
5
420
255
176
1
290
0
176
1
 90
50
176
1
 90
50
176
1
 90
50
176
1
290
0
176
1
 90
50
176
1
 62
256
176
0
 40
1.0
176
0
 90
2
176
1
  1
strokes_ogs.tif
176
1
290
0
176
1
 40
1.0
176
1
 40
1.0
176
1
  0
VISUALSTYLE
  5
5D
102
{ACAD_REACTORS
330
16
102
}
330
16
100
AcDbVisualStyle
  2
ColorChange
 70
16
177
3
291
1
 70
58
 90
2
176
1
 90
2
176
1
 90
0
176
1
 90
2
176
1
 40
0.6
176
1
 40
30.0
176
1
 62
7
420
16777215
176
1
 90
1
176
1
 90
4
176
1
 62
7
176
1
 62
257
176
1
 90
1
176
1
 90
1
176
1
 40
1.0
176
1
 90
8
176
1
 62
7
176
1
 40
1.0
176
1
 90
1
176
1
 90
6
176
1
 90
2
176
1
 62
7
176
1
 90
5
176
1
 90
0
176
1
 90
0
176
1
290
0
176
1
 90
1
176
1
 40
0.0
176
1
 90
0
176
1
290
0
176
1
290
1
176
1
290
1
176
1
290
0
176
1
290
0
176
1
290
0
176
1
290
0
176
1
290
0
176
1
290
0
176
1
 90
50
176
1
 40
0.0
176
1
 40
1.0
176
1
 90
0
176
1
 62
18
420
0
176
1
 90
50
176
1
 90
3
176
1
 62
5
420
255
176
1
290
0
176
1
 90
50
176
1
 90
50
176
1
 90
50
176
1
290
0
176
1
 90
50
176
1
 62
256
176
0
 40
1.0
176
0
 90
2
176
1
  1
strokes_ogs.tif
176
1
290
0
176
1
 40
1.0
176
1
 40
1.0
176
1
  0
VISUALSTYLE
  5
5E
102
{ACAD_REACTORS
330
16
102
}
330
16
100
AcDbVisualStyle
  2
Conceptual
 70
9
177
3
291
0
 70
58
 90
2
176
1
 90
2
176
1
 90
0
176
1
 90
3
176
1
 40
0.6
176
1
 40
30.0
176
1
 62
7
420
16777215
176
1
 90
1
176
1
 90
4
176
1
 62
7
176
1
 62
257
176
1
 90
1
176
1
 90
1
176
1
 40
1.0
176
1
 90
8
176
1
 62
7
176
1
 40
1.0
176
1
 90
1
176
1
 90
6
176
1
 90
2
176
1
 62
7
176
1
 90
5
176
1
 90
0
176
1
 90
0
176
1
290
0
176
1
 90
1
176
1
 40
0.0
176
1
 90
0
176
1
290
0
176
1
290
1
176
1
290
1
176
1
290
0
176
1
290
0
176
1
290
0
176
1
290
0
176
1
290
0
176
1
290
0
176
1
 90
50
176
1
 40
0.0
176
1
 40
1.0
176
1
 90
0
176
1
 62
18
420
0
176
1
 90
50
176
1
 90
3
176
1
 62
5
420
255
176
1
290
0
176
1
 90
50
176
1
 90
50
176
1
 90
50
176
1
290
0
176
1
 90
50
176
1
 62
256
176
0
 40
1.0
176
0
 90
2
176
1
  1
strokes_ogs.tif
176
1
290
0
176
1
 40
1.0
176
1
 40
1.0
176
1
  0
VISUALSTYLE
  5
5F
102
{ACAD_REACTORS
330
16
102
}
330
16
100
AcDbVisualStyle
  2
Dim
 70
11
177
3
291
1
 70
58
 90
2
176
1
 90
2
176
1
 90
0
176
1
 90
2
176
1
 40
0.6
176
1
 40
30.0
176
1
 62
7
420
16777215
176
1
 90
1
176
1
 90
4
176
1
 62
7
176
1
 62
257
176
1
 90
1
176
1
 90
1
176
1
 40
1.0
176
1
 90
8
176
1
 62
7
176
1
 40
1.0
176
1
 90
1
176
1
 90
6
176
1
 90
2
176
1
 62
7
176
1
 90
5
176
1
 90
0
176
1
 90
0
176
1
290
0
176
1
 90
1
176
1
 40
0.0
176
1
 90
0
176
1
290
0
176
1
290
1
176
1
290
1
176
1
290
0
176
1
290
0
176
1
290
0
176
1
290
0
176
1
290
0
176
1
290
0
176
1
 90
50
176
1
 40
0.0
176
1
 40
1.0
176
1
 90
0
176
1
 62
18
420
0
176
1
 90
50
176
1
 90
3
176
1
 62
5
420
255
176
1
290
0
176
1
 90
50
176
1
 90
50
176
1
 90
50
176
1
290
0
176
1
 90
50
176
1
 62
256
176
0
 40
1.0
176
0
 90
2
176
1
  1
strokes_ogs.tif
176
1
290
0
176
1
 40
1.0
176
1
 40
1.0
176
1
  0
VISUALSTYLE
  5
60
102
{ACAD_REACTORS
330
16
102
}
330
16
100
AcDbVisualStyle
  2
EdgeColorOff
 70
22
177
3
291
1
 70
58
 90
2
176
1
 90
2
176
1
 90
0
176
1
 90
2
176
1
 40
0.6
176
1
 40
30.0
176
1
 62
7
420
16777215
176
1
 90
1
176
1
 90
4
176
1
 62
7
176
1
 62
257
176
1
 90
1
176
1
 90
1
176
1
 40
1.0
176
1
 90
8
176
1
 62
7
176
1
 40
1.0
176
1
 90
1
176
1
 90
6
176
1
 90
2
176
1
 62
7
176
1
 90
5
176
1
 90
0
176
1
 90
0
176
1
290
0
176
1
 90
1
176
1
 40
0.0
176
1
 90
0
176
1
290
0
176
1
290
1
176
1
290
1
176
1
290
0
176
1
290
0
176
1
290
0
176
1
290
0
176
1
290
0
176
1
290
0
176
1
 90
50
176
1
 40
0.0
176
1
 40
1.0
176
1
 90
0
176
1
 62
18
420
0
176
1
 90
50
176
1
 90
3
176
1
 62
5
420
255
176
1
290
0
176
1
 90
50
176
1
 90
50
176
1
 90
50
176
1
290
0
176
1
 90
50
176
1
 62
256
176
0
 40
1.0
176
0
 90
2
176
1
  1
strokes_ogs.tif
176
1
290
0
176
1
 40
1.0
176
1
 40
1.0
176
1
  0
VISUALSTYLE
  5
61
102
{ACAD_REACTORS
330
16
102
}
330
16
100
AcDbVisualStyle
  2
Facepattern
 70
15
177
3
291
1
 70
58
 90
2
176
1
 90
2
176
1
 90
0
176
1
 90
2
176
1
 40
0.6
176
1
 40
30.0
176
1
 62
7
420
16777215
176
1
 90
1
176
1
 90
4
176
1
 62
7
176
1
 62
257
176
1
 90
1
176
1
 90
1
176
1
 40
1.0
176
1
 90
8
176
1
 62
7
176
1
 40
1.0
176
1
 90
1
176
1
 90
6
176
1
 90
2
176
1
 62
7
176
1
 90
5
176
1
 90
0
176
1
 90
0
176
1
290
0
176
1
 90
1
176
1
 40
0.0
176
1
 90
0
176
1
290
0
176
1
290
1
176
1
290
1
176
1
290
0
176
1
290
0
176
1
290
0
176
1
290
0
176
1
290
0
176
1
290
0
176
1
 90
50
176
1
 40
0.0
176
1
 40
1.0
176
1
 90
0
176
1
 62
18
420
0
176
1
 90
50
176
1
 90
3
176
1
 62
5
420
255
176
1
290
0
176
1
 90
50
176
1
 90
50
176
1
 90
50
176
1
290
0
176
1
 90
50
176
1
 62
256
176
0
 40
1.0
176
0
 90
2
176
1
  1
strokes_ogs.tif
176
1
290
0
176
1
 40
1.0
176
1
 40
1.0
176
1
  0
VISUALSTYLE
  5
62
102
{ACAD_REACTORS
330
16
102
}
330
16
100
AcDbVisualStyle
  2
Flat
 70
0
177
3
291
1
 70
58
 90
2
176
1
 90
2
176
1
 90
0
176
1
 90
2
176
1
 40
0.6
176
1
 40
30.0
176
1
 62
7
420
16777215
176
1
 90
1
176
1
 90
4
176
1
 62
7
176
1
 62
257
176
1
 90
1
176
1
 90
1
176
1
 40
1.0
176
1
 90
8
176
1
 62
7
176
1
 40
1.0
176
1
 90
1
176
1
 90
6
176
1
 90
2
176
1
 62
7
176
1
 90
5
176
1
 90
0
176
1
 90
0
176
1
290
0
176
1
 90
1
176
1
 40
0.0
176
1
 90
0
176
1
290
0
176
1
290
1
176
1
290
1
176
1
290
0
176
1
290
0
176
1
290
0
176
1
290
0
176
1
290
0
176
1
290
0
176
1
 90
50
176
1
 40
0.0
176
1
 40
1.0
176
1
 90
0
176
1
 62
18
420
0
176
1
 90
50
176
1
 90
3
176
1
 62
5
420
255
176
1
290
0
176
1
 90
50
176
1
 90
50
176
1
 90
50
176
1
290
0
176
1
 90
50
176
1
 62
256
176
0
 40
1.0
176
0
 90
2
176
1
  1
strokes_ogs.tif
176
1
290
0
176
1
 40
1.0
176
1
 40
1.0
176
1
  0
VISUALSTYLE
  5
63
102
{ACAD_REACTORS
330
16
102
}
330
16
100
AcDbVisualStyle
  2
FlatWithEdges
 70
1
177
3
291
1
 70
58
 90
2
176
1
 90
2
176
1
 90
0
176
1
 90
2
176
1
 40
0.6
176
1
 40
30.0
176
1
 62
7
420
16777215
176
1
 90
1
176
1
 90
4
176
1
 62
7
176
1
 62
257
176
1
 90
1
176
1
 90
1
176
1
 40
1.0
176
1
 90
8
176
1
 62
7
176
1
 40
1.0
176
1
 90
1
176
1
 90
6
176
1
 90
2
176
1
 62
7
176
1
 90
5
176
1
 90
0
176
1
 90
0
176
1
290
0
176
1
 90
1
176
1
 40
0.0
176
1
 90
0
176
1
290
0
176
1
290
1
176
1
290
1
176
1
290
0
176
1
290
0
176
1
290
0
176
1
290
0
176
1
290
0
176
1
290
0
176
1
 90
50
176
1
 40
0.0
176
1
 40
1.0
176
1
 90
0
176
1
 62
18
420
0
176
1
 90
50
176
1
 90
3
176
1
 62
5
420
255
176
1
290
0
176
1
 90
50
176
1
 90
50
176
1
 90
50
176
1
290
0
176
1
 90
50
176
1
 62
256
176
0
 40
1.0
176
0
 90
2
176
1
  1
strokes_ogs.tif
176
1
290
0
176
1
 40
1.0
176
1
 40
1.0
176
1
  0
VISUALSTYLE
  5
64
102
{ACAD_REACTORS
330
16
102
}
330
16
100
AcDbVisualStyle
  2
Gouraud
 70
2
177
3
291
1
 70
58
 90
2
176
1
 90
2
176
1
 90
0
176
1
 90
2
176
1
 40
0.6
176
1
 40
30.0
176
1
 62
7
420
16777215
176
1
 90
1
176
1
 90
4
176
1
 62
7
176
1
 62
257
176
1
 90
1
176
1
 90
1
176
1
 40
1.0
176
1
 90
8
176
1
 62
7
176
1
 40
1.0
176
1
 90
1
176
1
 90
6
176
1
 90
2
176
1
 62
7
176
1
 90
5
176
1
 90
0
176
1
 90
0
176
1
290
0
176
1
 90
1
176
1
 40
0.0
176
1
 90
0
176
1
290
0
176
1
290
1
176
1
290
1
176
1
290
0
176
1
290
0
176
1
290
0
176
1
290
0
176
1
290
0
176
1
290
0
176
1
 90
50
176
1
 40
0.0
176
1
 40
1.0
176
1
 90
0
176
1
 62
18
420
0
176
1
 90
50
176
1
 90
3
176
1
 62
5
420
255
176
1
290
0
176
1
 90
50
176
1
 90
50
176
1
 90
50
176
1
290
0
176
1
 90
50
176
1
 62
256
176
0
 40
1.0
176
0
 90
2
176
1
  1
strokes_ogs.tif
176
1
290
0
176
1
 40
1.0
176
1
 40
1.0
176
1
  0
VISUALSTYLE
  5
65
102
{ACAD_REACTORS
330
16
102
}
330
16
100
AcDbVisualStyle
  2
GouraudWithEdges
 70
3
177
3
291
1
 70
58
 90
2
176
1
 90
2
176
1
 90
0
176
1
 90
2
176
1
 40
0.6
176
1
 40
30.0
176
1
 62
7
420
16777215
176
1
 90
1
176
1
 90
4
176
1
 62
7
176
1
 62
257
176
1
 90
1
176
1
 90
1
176
1
 40
1.0
176
1
 90
8
176
1
 62
7
176
1
 40
1.0
176
1
 90
1
176
1
 90
6
176
1
 90
2
176
1
 62
7
176
1
 90
5
176
1
 90
0
176
1
 90
0
176
1
290
0
176
1
 90
1
176
1
 40
0.0
176
1
 90
0
176
1
290
0
176
1
290
1
176
1
290
1
176
1
290
0
176
1
290
0
176
1
290
0
176
1
290
0
176
1
290
0
176
1
290
0
176
1
 90
50
176
1
 40
0.0
176
1
 40
1.0
176
1
 90
0
176
1
 62
18
420
0
176
1
 90
50
176
1
 90
3
176
1
 62
5
420
255
176
1
290
0
176
1
 90
50
176
1
 90
50
176
1
 90
50
176
1
290
0
176
1
 90
50
176
1
 62
256
176
0
 40
1.0
176
0
 90
2
176
1
  1
strokes_ogs.tif
176
1
290
0
176
1
 40
1.0
176
1
 40
1.0
176
1
  0
VISUALSTYLE
  5
66
102
{ACAD_REACTORS
330
16
102
}
330
16
100
AcDbVisualStyle
  2
Hidden
 70
6
177
3
291
0
 70
58
 90
2
176
1
 90
2
176
1
 90
0
176
1
 90
1
176
1
 40
0.6
176
1
 40
30.0
176
1
 62
7
420
16777215
176
1
 90
1
176
1
 90
4
176
1
 62
7
176
1
 62
257
176
1
 90
1
176
1
 90
1
176
1
 40
1.0
176
1
 90
8
176
1
 62
7
176
1
 40
1.0
176
1
 90
1
176
1
 90
6
176
1
 90
2
176
1
 62
7
176
1
 90
5
176
1
 90
0
176
1
 90
0
176
1
290
0
176
1
 90
1
176
1
 40
0.0
176
1
 90
0
176
1
290
0
176
1
290
1
176
1
290
1
176
1
290
0
176
1
290
0
176
1
290
0
176
1
290
0
176
1
290
0
176
1
290
0
176
1
 90
50
176
1
 40
0.0
176
1
 40
1.0
176
1
 90
0
176
1
 62
18
420
0
176
1
 90
50
176
1
 90
3
176
1
 62
5
420
255
176
1
290
0
176
1
 90
50
176
1
 90
50
176
1
 90
50
176
1
290
0
176
1
 90
50
176
1
 62
256
176
0
 40
1.0
176
0
 90
2
176
1
  1
strokes_ogs.tif
176
1
290
0
176
1
 40
1.0
176
1
 40
1.0
176
1
  0
VISUALSTYLE
  5
67
102
{ACAD_REACTORS
330
16
102
}
330
16
100
AcDbVisualStyle
  2
JitterOff
 70
20
177
3
291
1
 70
58
 90
2
176
1
 90
2
176
1
 90
0
176
1
 90
2
176
1
 40
0.6
176
1
 40
30.0
176
1
 62
7
420
16777215
176
1
 90
1
176
1
 90
4
176
1
 62
7
176
1
 62
257
176
1
 90
1
176
1
 90
1
176
1
 40
1.0
176
1
 90
8
176
1
 62
7
176
1
 40
1.0
176
1
 90
1
176
1
 90
6
176
1
 90
2
176
1
 62
7
176
1
 90
5
176
1
 90
0
176
1
 90
0
176
1
290
0
176
1
 90
1
176
1
 40
0.0
176
1
 90
0
176
1
290
0
176
1
290
1
176
1
290
1
176
1
290
0
176
1
290
0
176
1
290
0
176
1
290
0
176
1
290
0
176
1
290
0
176
1
 90
50
176
1
 40
0.0
176
1
 40
1.0
176
1
 90
0
176
1
 62
18
420
0
176
1
 90
50
176
1
 90
3
176
1
 62
5
420
255
176
1
290
0
176
1
 90
50
176
1
 90
50
176
1
 90
50
176
1
290
0
176
1
 90
50
176
1
 62
256
176
0
 40
1.0
176
0
 90
2
176
1
  1
strokes_ogs.tif
176
1
290
0
176
1
 40
1.0
176
1
 40
1.0
176
1
  0
VISUALSTYLE
  5
68
102
{ACAD_REACTORS
330
16
102
}
330
16
100
AcDbVisualStyle
  2
Linepattern
 70
14
177
3
291
1
 70
58
 90
2
176
1
 90
2
176
1
 90
0
176
1
 90
2
176
1
 40
0.6
176
1
 40
30.0
176
1
 62
7
420
16777215
176
1
 90
1
176
1
 90
4
176
1
 62
7
176
1
 62
257
176
1
 90
1
176
1
 90
1
176
1
 40
1.0
176
1
 90
8
176
1
 62
7
176
1
 40
1.0
176
1
 90
1
176
1
 90
6
176
1
 90
2
176
1
 62
7
176
1
 90
5
176
1
 90
0
176
1
 90
0
176
1
290
0
176
1
 90
1
176
1
 40
0.0
176
1
 90
0
176
1
290
0
176
1
290
1
176
1
290
1
176
1
290
0
176
1
290
0
176
1
290
0
176
1
290
0
176
1
290
0
176
1
290
0
176
1
 90
50
176
1
 40
0.0
176
1
 40
1.0
176
1
 90
0
176
1
 62
18
420
0
176
1
 90
50
176
1
 90
3
176
1
 62
5
420
255
176
1
290
0
176
1
 90
50
176
1
 90
50
176
1
 90
50
176
1
290
0
176
1
 90
50
176
1
 62
256
176
0
 40
1.0
176
0
 90
2
176
1
  1
strokes_ogs.tif
176
1
290
0
176
1
 40
1.0
176
1
 40
1.0
176
1
  0
VISUALSTYLE
  5
69
102
{ACAD_REACTORS
330
16
102
}
330
16
100
AcDbVisualStyle
  2
Modeling
 70
10
177
3
291
0
 70
58
 90
2
176
1
 90
2
176
1
 90
0
176
1
 90
2
176
1
 40
0.6
176
1
 40
30.0
176
1
 62
7
420
16777215
176
1
 90
1
176
1
 90
4
176
1
 62
7
176
1
 62
257
176
1
 90
1
176
1
 90
1
176
1
 40
1.0
176
1
 90
8
176
1
 62
7
176
1
 40
1.0
176
1
 90
1
176
1
 90
6
176
1
 90
2
176
1
 62
7
176
1
 90
5
176
1
 90
0
176
1
 90
0
176
1
290
0
176
1
 90
1
176
1
 40
0.0
176
1
 90
0
176
1
290
0
176
1
290
1
176
1
290
1
176
1
290
0
176
1
290
0
176
1
290
0
176
1
290
0
176
1
290
0
176
1
290
0
176
1
 90
50
176
1
 40
0.0
176
1
 40
1.0
176
1
 90
0
176
1
 62
18
420
0
176
1
 90
50
176
1
 90
3
176
1
 62
5
420
255
176
1
290
0
176
1
 90
50
176
1
 90
50
176
1
 90
50
176
1
290
0
176
1
 90
50
176
1
 62
256
176
0
 40
1.0
176
0
 90
2
176
1
  1
strokes_ogs.tif
176
1
290
0
176
1
 40
1.0
176
1
 40
1.0
176
1
  0
VISUALSTYLE
  5
6A
102
{ACAD_REACTORS
330
16
102
}
330
16
100
AcDbVisualStyle
  2
OverhangOff
 70
21
177
3
291
1
 70
58
 90
2
176
1
 90
2
176
1
 90
0
176
1
 90
2
176
1
 40
0.6
176
1
 40
30.0
176
1
 62
7
420
16777215
176
1
 90
1
176
1
 90
4
176
1
 62
7
176
1
 62
257
176
1
 90
1
176
1
 90
1
176
1
 40
1.0
176
1
 90
8
176
1
 62
7
176
1
 40
1.0
176
1
 90
1
176
1
 90
6
176
1
 90
2
176
1
 62
7
176
1
 90
5
176
1
 90
0
176
1
 90
0
176
1
290
0
176
1
 90
1
176
1
 40
0.0
176
1
 90
0
176
1
290
0
176
1
290
1
176
1
290
1
176
1
290
0
176
1
290
0
176
1
290
0
176
1
290
0
176
1
290
0
176
1
290
0
176
1
 90
50
176
1
 40
0.0
176
1
 40
1.0
176
1
 90
0
176
1
 62
18
420
0
176
1
 90
50
176
1
 90
3
176
1
 62
5
420
255
176
1
290
0
176
1
 90
50
176
1
 90
50
176
1
 90
50
176
1
290
0
176
1
 90
50
176
1
 62
256
176
0
 40
1.0
176
0
 90
2
176
1
  1
strokes_ogs.tif
176
1
290
0
176
1
 40
1.0
176
1
 40
1.0
176
1
  0
VISUALSTYLE
  5
6B
102
{ACAD_REACTORS
330
16
102
}
330
16
100
AcDbVisualStyle
  2
Realistic
 70
8
177
3
291
0
 70
58
 90
2
176
1
 90
2
176
1
 90
0
176
1
 90
2
176
1
 40
0.6
176
1
 40
30.0
176
1
 62
7
420
16777215
176
1
 90
1
176
1
 90
4
176
1
 62
7
176
1
 62
257
176
1
 90
1
176
1
 90
1
176
1
 40
1.0
176
1
 90
8
176
1
 62
7
176
1
 40
1.0
176
1
 90
1
176
1
 90
6
176
1
 90
2
176
1
 62
7
176
1
 90
5
176
1
 90
0
176
1
 90
0
176
1
290
0
176
1
 90
1
176
1
 40
0.0
176
1
 90
0
176
1
290
0
176
1
290
1
176
1
290
1
176
1
290
0
176
1
290
0
176
1
290
0
176
1
290
0
176
1
290
0
176
1
290
0
176
1
 90
50
176
1
 40
0.0
176
1
 40
1.0
176
1
 90
0
176
1
 62
18
420
0
176
1
 90
50
176
1
 90
3
176
1
 62
5
420
255
176
1
290
0
176
1
 90
50
176
1
 90
50
176
1
 90
50
176
1
290
0
176
1
 90
50
176
1
 62
256
176
0
 40
1.0
176
0
 90
2
176
1
  1
strokes_ogs.tif
176
1
290
0
176
1
 40
1.0
176
1
 40
1.0
176
1
  0
VISUALSTYLE
  5
6C
102
{ACAD_REACTORS
330
16
102
}
330
16
100
AcDbVisualStyle
  2
Shaded
 70
27
177
3
291
0
 70
58
 90
2
176
1
 90
2
176
1
 90
0
176
1
 90
2
176
1
 40
0.6
176
1
 40
30.0
176
1
 62
7
420
16777215
176
1
 90
1
176
1
 90
4
176
1
 62
7
176
1
 62
257
176
1
 90
1
176
1
 90
1
176
1
 40
1.0
176
1
 90
8
176
1
 62
7
176
1
 40
1.0
176
1
 90
1
176
1
 90
6
176
1
 90
2
176
1
 62
7
176
1
 90
5
176
1
 90
0
176
1
 90
0
176
1
290
0
176
1
 90
1
176
1
 40
0.0
176
1
 90
0
176
1
290
0
176
1
290
1
176
1
290
1
176
1
290
0
176
1
290
0
176
1
290
0
176
1
290
0
176
1
290
0
176
1
290
0
176
1
 90
50
176
1
 40
0.0
176
1
 40
1.0
176
1
 90
0
176
1
 62
18
420
0
176
1
 90
50
176
1
 90
3
176
1
 62
5
420
255
176
1
290
0
176
1
 90
50
176
1
 90
50
176
1
 90
50
176
1
290
0
176
1
 90
50
176
1
 62
256
176
0
 40
1.0
176
0
 90
2
176
1
  1
strokes_ogs.tif
176
1
290
0
176
1
 40
1.0
176
1
 40
1.0
176
1
  0
VISUALSTYLE
  5
6D
102
{ACAD_REACTORS
330
16
102
}
330
16
100
AcDbVisualStyle
  2
Shaded with edges
 70
26
177
3
291
0
 70
58
 90
2
176
1
 90
2
176
1
 90
0
176
1
 90
2
176
1
 40
0.6
176
1
 40
30.0
176
1
 62
7
420
16777215
176
1
 90
1
176
1
 90
4
176
1
 62
7
176
1
 62
257
176
1
 90
1
176
1
 90
1
176
1
 40
1.0
176
1
 90
8
176
1
 62
7
176
1
 40
1.0
176
1
 90
1
176
1
 90
6
176
1
 90
2
176
1
 62
7
176
1
 90
5
176
1
 90
0
176
1
 90
0
176
1
290
0
176
1
 90
1
176
1
 40
0.0
176
1
 90
0
176
1
290
0
176
1
290
1
176
1
290
1
176
1
290
0
176
1
290
0
176
1
290
0
176
1
290
0
176
1
290
0
176
1
290
0
176
1
 90
50
176
1
 40
0.0
176
1
 40
1.0
176
1
 90
0
176
1
 62
18
420
0
176
1
 90
50
176
1
 90
3
176
1
 62
5
420
255
176
1
290
0
176
1
 90
50
176
1
 90
50
176
1
 90
50
176
1
290
0
176
1
 90
50
176
1
 62
256
176
0
 40
1.0
176
0
 90
2
176
1
  1
strokes_ogs.tif
176
1
290
0
176
1
 40
1.0
176
1
 40
1.0
176
1
  0
VISUALSTYLE
  5
6E
102
{ACAD_REACTORS
330
16
102
}
330
16
100
AcDbVisualStyle
  2
Shades of Gray
 70
23
177
3
291
0
 70
58
 90
2
176
1
 90
2
176
1
 90
0
176
1
 90
2
176
1
 40
0.6
176
1
 40
30.0
176
1
 62
7
420
16777215
176
1
 90
1
176
1
 90
4
176
1
 62
7
176
1
 62
257
176
1
 90
1
176
1
 90
1
176
1
 40
1.0
176
1
 90
8
176
1
 62
7
176
1
 40
1.0
176
1
 90
1
176
1
 90
6
176
1
 90
2
176
1
 62
7
176
1
 90
5
176
1
 90
0
176
1
 90
0
176
1
290
0
176
1
 90
1
176
1
 40
0.0
176
1
 90
0
176
1
290
0
176
1
290
1
176
1
290
1
176
1
290
0
176
1
290
0
176
1
290
0
176
1
290
0
176
1
290
0
176
1
290
0
176
1
 90
50
176
1
 40
0.0
176
1
 40
1.0
176
1
 90
0
176
1
 62
18
420
0
176
1
 90
50
176
1
 90
3
176
1
 62
5
420
255
176
1
290
0
176
1
 90
50
176
1
 90
50
176
1
 90
50
176
1
290
0
176
1
 90
50
176
1
 62
256
176
0
 40
1.0
176
0
 90
2
176
1
  1
strokes_ogs.tif
176
1
290
0
176
1
 40
1.0
176
1
 40
1.0
176
1
  0
VISUALSTYLE
  5
6F
102
{ACAD_REACTORS
330
16
102
}
330
16
100
AcDbVisualStyle
  2
Sketchy
 70
24
177
3
291
0
 70
58
 90
2
176
1
 90
2
176
1
 90
0
176
1
 90
1
176
1
 40
0.6
176
1
 40
30.0
176
1
 62
7
420
16777215
176
1
 90
1
176
1
 90
4
176
1
 62
7
176
1
 62
257
176
1
 90
1
176
1
 90
1
176
1
 40
1.0
176
1
 90
8
176
1
 62
7
176
1
 40
1.0
176
1
 90
1
176
1
 90
6
176
1
 90
2
176
1
 62
7
176
1
 90
5
176
1
 90
0
176
1
 90
0
176
1
290
0
176
1
 90
1
176
1
 40
0.0
176
1
 90
0
176
1
290
0
176
1
290
1
176
1
290
1
176
1
290
0
176
1
290
0
176
1
290
0
176
1
290
0
176
1
290
0
176
1
290
0
176
1
 90
50
176
1
 40
0.0
176
1
 40
1.0
176
1
 90
0
176
1
 62
18
420
0
176
1
 90
50
176
1
 90
3
176
1
 62
5
420
255
176
1
290
0
176
1
 90
50
176
1
 90
50
176
1
 90
50
176
1
290
0
176
1
 90
50
176
1
 62
256
176
0
 40
1.0
176
0
 90
2
176
1
  1
strokes_ogs.tif
176
1
290
0
176
1
 40
1.0
176
1
 40
1.0
176
1
  0
VISUALSTYLE
  5
70
102
{ACAD_REACTORS
330
16
102
}
330
16
100
AcDbVisualStyle
  2
Thicken
 70
13
177
3
291
1
 70
58
 90
2
176
1
 90
2
176
1
 90
0
176
1
 90
2
176
1
 40
0.6
176
1
 40
30.0
176
1
 62
7
420
16777215
176
1
 90
1
176
1
 90
4
176
1
 62
7
176
1
 62
257
176
1
 90
1
176
1
 90
1
176
1
 40
1.0
176
1
 90
8
176
1
 62
7
176
1
 40
1.0
176
1
 90
1
176
1
 90
6
176
1
 90
2
176
1
 62
7
176
1
 90
5
176
1
 90
0
176
1
 90
0
176
1
290
0
176
1
 90
1
176
1
 40
0.0
176
1
 90
0
176
1
290
0
176
1
290
1
176
1
290
1
176
1
290
0
176
1
290
0
176
1
290
0
176
1
290
0
176
1
290
0
176
1
290
0
176
1
 90
50
176
1
 40
0.0
176
1
 40
1.0
176
1
 90
0
176
1
 62
18
420
0
176
1
 90
50
176
1
 90
3
176
1
 62
5
420
255
176
1
290
0
176
1
 90
50
176
1
 90
50
176
1
 90
50
176
1
290
0
176
1
 90
50
176
1
 62
256
176
0
 40
1.0
176
0
 90
2
176
1
  1
strokes_ogs.tif
176
1
290
0
176
1
 40
1.0
176
1
 40
1.0
176
1
  0
VISUALSTYLE
  5
71
102
{ACAD_REACTORS
330
16
102
}
330
16
100
AcDbVisualStyle
  2
Wireframe
 70
5
177
3
291
0
 70
58
 90
2
176
1
 90
2
176
1
 90
0
176
1
 90
0
176
1
 40
0.6
176
1
 40
30.0
176
1
 62
7
420
16777215
176
1
 90
1
176
1
 90
4
176
1
 62
7
176
1
 62
257
176
1
 90
1
176
1
 90
1
176
1
 40
1.0
176
1
 90
8
176
1
 62
7
176
1
 40
1.0
176
1
 90
1
176
1
 90
6
176
1
 90
2
176
1
 62
7
176
1
 90
5
176
1
 90
0
176
1
 90
0
176
1
290
0
176
1
 90
1
176
1
 40
0.0
176
1
 90
0
176
1
290
0
176
1
290
1
176
1
290
1
176
1
290
0
176
1
290
0
176
1
290
0
176
1
290
0
176
1
290
0
176
1
290
0
176
1
 90
50
176
1
 40
0.0
176
1
 40
1.0
176
1
 90
0
176
1
 62
18
420
0
176
1
 90
50
176
1
 90
3
176
1
 62
5
420
255
176
1
290
0
176
1
 90
50
176
1
 90
50
176
1
 90
50
176
1
290
0
176
1
 90
50
176
1
 62
256
176
0
 40
1.0
176
0
 90
2
176
1
  1
strokes_ogs.tif
176
1
290
0
176
1
 40
1.0
176
1
 40
1.0
176
1
  0
VISUALSTYLE
  5
72
102
{ACAD_REACTORS
330
16
102
}
330
16
100
AcDbVisualStyle
  2
X-Ray
 70
25
177
3
291
0
 70
58
 90
2
176
1
 90
2
176
1
 90
0
176
1
 90
2
176
1
 40
0.5
176
1
 40
30.0
176
1
 62
7
420
16777215
176
1
 90
1
176
1
 90
4
176
1
 62
7
176
1
 62
257
176
1
 90
1
176
1
 90
1
176
1
 40
1.0
176
1
 90
8
176
1
 62
7
176
1
 40
1.0
176
1
 90
1
176
1
 90
6
176
1
 90
2
176
1
 62
7
176
1
 90
5
176
1
 90
0
176
1
 90
0
176
1
290
0
176
1
 90
1
176
1
 40
0.0
176
1
 90
0
176
1
290
0
176
1
290
1
176
1
290
1
176
1
290
0
176
1
290
0
176
1
290
0
176
1
290
0
176
1
290
0
176
1
290
0
176
1
 90
50
176
1
 40
0.0
176
1
 40
1.0
176
1
 90
0
176
1
 62
18
420
0
176
1
 90
50
176
1
 90
3
176
1
 62
5
420
255
176
1
290
0
176
1
 90
50
176
1
 90
50
176
1
 90
50
176
1
290
0
176
1
 90
50
176
1
 62
256
176
0
 40
1.0
176
0
 90
2
176
1
  1
strokes_ogs.tif
176
1
290
0
176
1
 40
1.0
176
1
 40
1.0
176
1
  0
DICTIONARYVAR
  5
CC
330
2D
100
DictionaryVariables
280
0
  1
1.4.4 @ 2026-09-29T11:25:56.310776+00:00
  0
ENDSEC
  0
EOF
