  0
SECTION
  2
HEADER
  9
$ACADVER
  1
AC1032
  9
$ACADMAINTVER
 90
4
  9
$DWGCODEPAGE
  3
ANSI_1252
  9
$LASTSAVEDBY
  1
ezdxf
  9
$REQUIREDVERSIONS
160
0
  9
$INSBASE
 10
0.0
 20
0.0
 30
0.0
  9
$EXTMIN
 10
1e+20
 20
1e+20
 30
1e+20
  9
$EXTMAX
 10
-1e+20
 20
-1e+20
 30
-1e+20
  9
$LIMMIN
 10
0.0
 20
0.0
  9
$LIMMAX
 10
420.0
 20
297.0
  9
$ORTHOMODE
 70
0
  9
$REGENMODE
 70
1
  9
$FILLMODE
 70
1
  9
$QTEXTMODE
 70
0
  9
$MIRRTEXT
 70
1
  9
$LTSCALE
 40
1.0
  9
$ATTMODE
 70
1
  9
$TEXTSIZE
 40
2.5
  9
$TRACEWID
 40
1.0
  9
$TEXTSTYLE
  7
OpenSans
  9
$CLAYER
  8
0
  9
$CELTYPE
  6
ByLayer
  9
$CECOLOR
 62
256
  9
$CELTSCALE
 40
1.0
  9
$DISPSILH
 70
0
  9
$DIMSCALE
 40
1.0
  9
$DIMASZ
 40
0.175
  9
$DIMEXO
 40
0.125
  9
$DIMDLI
 40
3.75
  9
$DIMRND
 40
0.0
  9
$DIMDLE
 40
0.0
  9
$DIMEXE
 40
0.375
  9
$DIMTP
 40
0.0
  9
$DIMTM
 40
0.0
  9
$DIMTXT
 40
0.25
  9
$DIMCEN
 40
2.5
  9
$DIMTSZ
 40
0.0
  9
$DIMTOL
 70
0
  9
$DIMLIM
 70
0
  9
$DIMTIH
 70
0
  9
$DIMTOH
 70
0
  9
$DIMSE1
 70
0
  9
$DIMSE2
 70
0
  9
$DIMTAD
 70
1
  9
$DIMZIN
 70
12
  9
$DIMBLK
  1
ARCHTICK
  9
$DIMASO
 70
1
  9
$DIMSHO
 70
1
  9
$DIMPOST
  1

  9
$DIMAPOST
  1

  9
$DIMALT
 70
0
  9
$DIMALTD
 70
3
  9
$DIMALTF
 40
0.03937007874
  9
$DIMLFAC
 40
100.0
  9
$DIMTOFL
 70
1
  9
$DIMTVP
 40
0.0
  9
$DIMTIX
 70
0
  9
$DIMSOXD
 70
0
  9
$DIMSAH
 70
0
  9
$DIMBLK1
  1

  9
$DIMBLK2
  1

  9
$DIMSTYLE
  2
EZDXF
  9
$DIMCLRD
 70
0
  9
$DIMCLRE
 70
0
  9
$DIMCLRT
 70
0
  9
$DIMTFAC
 40
0.5
  9
$DIMGAP
 40
0.1
  9
$DIMJUST
 70
0
  9
$DIMSD1
 70
0
  9
$DIMSD2
 70
0
  9
$DIMTOLJ
 70
0
  9
$DIMTZIN
 70
8
  9
$DIMALTZ
 70
0
  9
$DIMALTTZ
 70
0
  9
$DIMUPT
 70
1
  9
$DIMDEC
 70
2
  9
$DIMTDEC
 70
2
  9
$DIMALTU
 70
2
  9
$DIMALTTD
 70
3
  9
$DIMTXSTY
  7
OpenSansCondensed-Light
  9
$DIMAUNIT
 70
0
  9
$DIMADEC
 70
2
  9
$DIMALTRND
 40
0.0
  9
$DIMAZIN
 70
3
  9
$DIMDSEP
 70
46
  9
$DIMATFIT
 70
3
  9
$DIMFRAC
 70
0
  9
$DIMLDRBLK
  1

  9
$DIMLUNIT
 70
2
  9
$DIMLWD
 70
-2
  9
$DIMLWE
 70
-2
  9
$DIMTMOVE
 70
2
  9
$DIMFXL
 40
1.0
  9
$DIMFXLON
 70
0
  9
$DIMJOGANG
 40
0.785398163397
  9
$DIMTFILL
 70
0
  9
$DIMTFILLCLR
 70
0
  9
$DIMARCSYM
 70
0
  9
$DIMLTYPE
  6

  9
$DIMLTEX1
  6

  9
$DIMLTEX2
  6

  9
$DIMTXTDIRECTION
 70
0
  9
$LUNITS
 70
2
  9
$LUPREC
 70
4
  9
$SKETCHINC
 40
1.0
  9
$FILLETRAD
 40
10.0
  9
$AUNITS
 70
0
  9
$AUPREC
 70
2
  9
$MENU
  1
.
  9
$ELEVATION
 40
0.0
  9
$PELEVATION
 40
0.0
  9
$THICKNESS
 40
0.0
  9
$LIMCHECK
 70
0
  9
$CHAMFERA
 40
0.0
  9
$CHAMFERB
 40
0.0
  9
$CHAMFERC
 40
0.0
  9
$CHAMFERD
 40
0.0
  9
$SKPOLY
 70
0
  9
$TDCREATE
 40
2461313.4785648147
  9
$TDUCREATE
 40
2458532.153996898
  9
$TDUPDATE
 40
2461313.4785648147
  9
$TDUUPDATE
 40
2458532.1544311
  9
$TDINDWG
 40
0.0
  9
$TDUSRTIMER
 40
0.0
  9
$USRTIMER
 70
1
  9
$ANGBASE
 50
0.0
  9
$ANGDIR
 70
0
  9
$PDMODE
 70
0
  9
$PDSIZE
 40
0.0
  9
$PLINEWID
 40
0.0
  9
$SPLFRAME
 70
0
  9
$SPLINETYPE
 70
6
  9
$SPLINESEGS
 70
8
  9
$HANDSEED
  5
22E
  9
$SURFTAB1
 70
6
  9
$SURFTAB2
 70
6
  9
$SURFTYPE
 70
6
  9
$SURFU
 70
6
  9
$SURFV
 70
6
  9
$UCSBASE
  2

  9
$UCSNAME
  2

  9
$UCSORG
 10
0.0
 20
0.0
 30
0.0
  9
$UCSXDIR
 10
1.0
 20
0.0
 30
0.0
  9
$UCSYDIR
 10
0.0
 20
1.0
 30
0.0
  9
$UCSORTHOREF
  2

  9
$UCSORTHOVIEW
 70
0
  9
$UCSORGTOP
 10
0.0
 20
0.0
 30
0.0
  9
$UCSORGBOTTOM
 10
0.0
 20
0.0
 30
0.0
  9
$UCSORGLEFT
 10
0.0
 20
0.0
 30
0.0
  9
$UCSORGRIGHT
 10
0.0
 20
0.0
 30
0.0
  9
$UCSORGFRONT
 10
0.0
 20
0.0
 30
0.0
  9
$UCSORGBACK
 10
0.0
 20
0.0
 30
0.0
  9
$PUCSBASE
  2

  9
$PUCSNAME
  2

  9
$PUCSORG
 10
0.0
 20
0.0
 30
0.0
  9
$PUCSXDIR
 10
1.0
 20
0.0
 30
0.0
  9
$PUCSYDIR
 10
0.0
 20
1.0
 30
0.0
  9
$PUCSORTHOREF
  2

  9
$PUCSORTHOVIEW
 70
0
  9
$PUCSORGTOP
 10
0.0
 20
0.0
 30
0.0
  9
$PUCSORGBOTTOM
 10
0.0
 20
0.0
 30
0.0
  9
$PUCSORGLEFT
 10
0.0
 20
0.0
 30
0.0
  9
$PUCSORGRIGHT
 10
0.0
 20
0.0
 30
0.0
  9
$PUCSORGFRONT
 10
0.0
 20
0.0
 30
0.0
  9
$PUCSORGBACK
 10
0.0
 20
0.0
 30
0.0
  9
$USERI1
 70
0
  9
$USERI2
 70
0
  9
$USERI3
 70
0
  9
$USERI4
 70
0
  9
$USERI5
 70
0
  9
$USERR1
 40
0.0
  9
$USERR2
 40
0.0
  9
$USERR3
 40
0.0
  9
$USERR4
 40
0.0
  9
$USERR5
 40
0.0
  9
$WORLDVIEW
 70
1
  9
$SHADEDGE
 70
3
  9
$SHADEDIF
 70
70
  9
$TILEMODE
 70
1
  9
$MAXACTVP
 70
64
  9
$PINSBASE
 10
0.0
 20
0.0
 30
0.0
  9
$PLIMCHECK
 70
0
  9
$PEXTMIN
 10
1e+20
 20
1e+20
 30
1e+20
  9
$PEXTMAX
 10
-1e+20
 20
-1e+20
 30
-1e+20
  9
$PLIMMIN
 10
0.0
 20
0.0
  9
$PLIMMAX
 10
420.0
 20
297.0
  9
$UNITMODE
 70
0
  9
$VISRETAIN
 70
1
  9
$PLINEGEN
 70
0
  9
$PSLTSCALE
 70
1
  9
$TREEDEPTH
 70
3020
  9
$CMLSTYLE
  2
Standard
  9
$CMLJUST
 70
0
  9
$CMLSCALE
 40
20.0
  9
$PROXYGRAPHICS
 70
1
  9
$MEASUREMENT
 70
1
  9
$CELWEIGHT
370
-1
  9
$ENDCAPS
280
0
  9
$JOINSTYLE
280
0
  9
$LWDISPLAY
290
0
  9
$INSUNITS
 70
2
  9
$HYPERLINKBASE
  1

  9
$STYLESHEET
  1

  9
$XEDIT
290
1
  9
$CEPSNTYPE
380
0
  9
$PSTYLEMODE
290
1
  9
$FINGERPRINTGUID
  2
{AAE6020E-E080-4C95-B6A2-CEF16BC9589F}
  9
$VERSIONGUID
  2
{8CBF97FF-E4D9-4E79-9BEC-5AEB053123D4}
  9
$EXTNAMES
290
1
  9
$PSVPSCALE
 40
0.0
  9
$OLESTARTUP
290
0
  9
$SORTENTS
280
127
  9
$INDEXCTL
280
0
  9
$HIDETEXT
280
1
  9
$XCLIPFRAME
280
1
  9
$HALOGAP
280
0
  9
$OBSCOLOR
 70
257
  9
$OBSLTYPE
280
0
  9
$INTERSECTIONDISPLAY
280
0
  9
$INTERSECTIONCOLOR
 70
257
  9
$DIMASSOC
280
2
  9
$PROJECTNAME
  1

  9
$CAMERADISPLAY
290
0
  9
$LENSLENGTH
 40
50.0
  9
$CAMERAHEIGHT
 40
0.0
  9
$STEPSPERSEC
 40
24.0
  9
$STEPSIZE
 40
100.0
  9
$3DDWFPREC
 40
2.0
  9
$PSOLWIDTH
 40
0.005
  9
$PSOLHEIGHT
 40
0.08
  9
$LOFTANG1
 40
1.570796326795
  9
$LOFTANG2
 40
1.570796326795
  9
$LOFTMAG1
 40
0.0
  9
$LOFTMAG2
 40
0.0
  9
$LOFTPARAM
 70
7
  9
$LOFTNORMALS
280
1
  9
$LATITUDE
 40
37.795
  9
$LONGITUDE
 40
-122.394
  9
$NORTHDIRECTION
 40
0.0
  9
$TIMEZONE
 70
-8000
  9
$LIGHTGLYPHDISPLAY
280
1
  9
$TILEMODELIGHTSYNCH
280
1
  9
$CMATERIAL
347
20
  9
$SOLIDHIST
280
0
  9
$SHOWHIST
280
1
  9
$DWFFRAME
280
2
  9
$DGNFRAME
280
2
  9
$REALWORLDSCALE
290
1
  9
$INTERFERECOLOR
 62
256
  9
$CSHADOW
280
0
  9
$SHADOWPLANELOCATION
 40
0.0
  0
ENDSEC
  0
SECTION
  2
CLASSES
  0
CLASS
  1
ACDBDICTIONARYWDFLT
  2
AcDbDictionaryWithDefault
  3
ObjectDBX Classes
 90
0
 91
0
280
0
281
0
  0
CLASS
  1
SUN
  2
AcDbSun
  3
SCENEOE
 90
1153
 91
0
280
0
281
0
  0
CLASS
  1
VISUALSTYLE
  2
AcDbVisualStyle
  3
ObjectDBX Classes
 90
4095
 91
0
280
0
281
0
  0
CLASS
  1
MATERIAL
  2
AcDbMaterial
  3
ObjectDBX Classes
 90
1153
 91
0
280
0
281
0
  0
CLASS
  1
SCALE
  2
AcDbScale
  3
ObjectDBX Classes
 90
1153
 91
0
280
0
281
0
  0
CLASS
  1
TABLESTYLE
  2
AcDbTableStyle
  3
ObjectDBX Classes
 90
4095
 91
0
280
0
281
0
  0
CLASS
  1
MLEADERSTYLE
  2
AcDbMLeaderStyle
  3
ACDB_MLEADERSTYLE_CLASS
 90
4095
 91
0
280
0
281
0
  0
CLASS
  1
DICTIONARYVAR
  2
AcDbDictionaryVar
  3
ObjectDBX Classes
 90
0
 91
0
280
0
281
0
  0
CLASS
  1
CELLSTYLEMAP
  2
AcDbCellStyleMap
  3
ObjectDBX Classes
 90
1152
 91
0
280
0
281
0
  0
CLASS
  1
MENTALRAYRENDERSETTINGS
  2
AcDbMentalRayRenderSettings
  3
SCENEOE
 90
1024
 91
0
280
0
281
0
  0
CLASS
  1
ACDBDETAILVIEWSTYLE
  2
AcDbDetailViewStyle
  3
ObjectDBX Classes
 90
1025
 91
0
280
0
281
0
  0
CLASS
  1
ACDBSECTIONVIEWSTYLE
  2
AcDbSectionViewStyle
  3
ObjectDBX Classes
 90
1025
 91
0
280
0
281
0
  0
CLASS
  1
RASTERVARIABLES
  2
AcDbRasterVariables
  3
ISM
 90
0
 91
0
280
0
281
0
  0
CLASS
  1
LAYOUT
  2
AcDbLayout
  3
ObjectDBX Classes
 90
0
 91
0
280
0
281
0
  0
CLASS
  1
ACDBPLACEHOLDER
  2
AcDbPlaceHolder
  3
ObjectDBX Classes
 90
0
 91
0
280
0
281
0
  0
ENDSEC
  0
SECTION
  2
TABLES
  0
TABLE
  2
VPORT
  5
8
330
0
100
AcDbSymbolTable
 70
1
  0
VPORT
  5
23
330
8
100
AcDbSymbolTableRecord
100
AcDbViewportTableRecord
  2
*Active
 70
0
 10
0.0
 20
0.0
 11
1.0
 21
1.0
 12
0.0
 22
0.0
 13
0.0
 23
0.0
 14
0.5
 24
0.5
 15
0.5
 25
0.5
 16
0.0
 26
0.0
 36
1.0
 17
0.0
 27
0.0
 37
0.0
 40
1000.0
 41
1.34
 42
50.0
 43
0.0
 44
0.0
 50
0.0
 51
0.0
 71
0
 72
1000
 73
1
 74
3
 75
0
 76
0
 77
0
 78
0
281
0
 65
0
146
0.0
  0
ENDTAB
  0
TABLE
  2
LTYPE
  5
2
330
0
100
AcDbSymbolTable
 70
22
  0
LTYPE
  5
24
330
2
100
AcDbSymbolTableRecord
100
AcDbLinetypeTableRecord
  2
ByBlock
 70
0
  3

 72
65
 73
0
 40
0.0
  0
LTYPE
  5
25
330
2
100
AcDbSymbolTableRecord
100
AcDbLinetypeTableRecord
  2
ByLayer
 70
0
  3

 72
65
 73
0
 40
0.0
  0
LTYPE
  5
26
330
2
100
AcDbSymbolTableRecord
100
AcDbLinetypeTableRecord
  2
Continuous
 70
0
  3

 72
65
 73
0
 40
0.0
  0
LTYPE
  5
2F
330
2
100
AcDbSymbolTableRecord
100
AcDbLinetypeTableRecord
  2
CENTER
 70
0
  3
Center ____ _ ____ _ ____ _ ____ _ ____ _ ____
 72
65
 73
4
 40
5.08
 49
3.175
 74
0
 49
-0.635
 74
0
 49
0.635
 74
0
 49
-0.635
 74
0
  0
LTYPE
  5
30
330
2
100
AcDbSymbolTableRecord
100
AcDbLinetypeTableRecord
  2
CENTERX2
 70
0
  3
Center (2x) ________  __  ________  __  ________
 72
65
 73
4
 40
8.89
 49
6.35
 74
0
 49
-0.635
 74
0
 49
1.27
 74
0
 49
-0.635
 74
0
  0
LTYPE
  5
31
330
2
100
AcDbSymbolTableRecord
100
AcDbLinetypeTableRecord
  2
CENTER2
 70
0
  3
Center (.5x) ____ _ ____ _ ____ _ ____ _ ____
 72
65
 73
4
 40
2.54
 49
1.587
 74
0
 49
-0.318
 74
0
 49
0.318
 74
0
 49
-0.318
 74
0
  0
LTYPE
  5
32
330
2
100
AcDbSymbolTableRecord
100
AcDbLinetypeTableRecord
  2
DASHED
 70
0
  3
Dashed __ __ __ __ __ __ __ __ __ __ __ __ __ _
 72
65
 73
2
 40
1.524
 49
1.27
 74
0
 49
-0.254
 74
0
  0
LTYPE
  5
33
330
2
100
AcDbSymbolTableRecord
100
AcDbLinetypeTableRecord
  2
DASHEDX2
 70
0
  3
Dashed (2x) ____  ____  ____  ____  ____  ____
 72
65
 73
2
 40
3.048
 49
2.54
 74
0
 49
-0.508
 74
0
  0
LTYPE
  5
34
330
2
100
AcDbSymbolTableRecord
100
AcDbLinetypeTableRecord
  2
DASHED2
 70
0
  3
Dashed (.5x) _ _ _ _ _ _ _ _ _ _ _ _ _ _
 72
65
 73
2
 40
0.762
 49
0.635
 74
0
 49
-0.127
 74
0
  0
LTYPE
  5
35
330
2
100
AcDbSymbolTableRecord
100
AcDbLinetypeTableRecord
  2
PHANTOM
 70
0
  3
Phantom ______  __  __  ______  __  __  ______
 72
65
 73
6
 40
6.35
 49
3.175
 74
0
 49
-0.635
 74
0
 49
0.635
 74
0
 49
-0.635
 74
0
 49
0.635
 74
0
 49
-0.635
 74
0
  0
LTYPE
  5
36
330
2
100
AcDbSymbolTableRecord
100
AcDbLinetypeTableRecord
  2
PHANTOMX2
 70
0
  3
Phantom (2x)____________    ____    ____    ____________
 72
65
 73
6
 40
10.795
 49
6.35
 74
0
 49
-0.635
 74
0
 49
1.27
 74
0
 49
-0.635
 74
0
 49
1.27
 74
0
 49
-0.635
 74
0
  0
LTYPE
  5
37
330
2
100
AcDbSymbolTableRecord
100
AcDbLinetypeTableRecord
  2
PHANTOM2
 70
0
  3
Phantom (.5x) ___ _ _ ___ _ _ ___ _ _ ___ _ _ ___
 72
65
 73
6
 40
3.175
 49
1.587
 74
0
 49
-0.318
 74
0
 49
0.318
 74
0
 49
-0.318
 74
0
 49
0.318
 74
0
 49
-0.318
 74
0
  0
LTYPE
  5
38
330
2
100
AcDbSymbolTableRecord
100
AcDbLinetypeTableRecord
  2
DASHDOT
 70
0
  3
Dash dot __ . __ . __ . __ . __ . __ . __ . __
 72
65
 73
4
 40
3.556
 49
2.54
 74
0
 49
-0.508
 74
0
 49
0.0
 74
0
 49
-0.508
 74
0
  0
LTYPE
  5
39
330
2
100
AcDbSymbolTableRecord
100
AcDbLinetypeTableRecord
  2
DASHDOTX2
 70
0
  3
Dash dot (2x) ____  .  ____  .  ____  .  ____
 72
65
 73
4
 40
6.096
 49
5.08
 74
0
 49
-0.508
 74
0
 49
0.0
 74
0
 49
-0.508
 74
0
  0
LTYPE
  5
3A
330
2
100
AcDbSymbolTableRecord
100
AcDbLinetypeTableRecord
  2
DASHDOT2
 70
0
  3
Dash dot (.5x) _ . _ . _ . _ . _ . _ . _ . _
 72
65
 73
4
 40
1.778
 49
1.27
 74
0
 49
-0.254
 74
0
 49
0.0
 74
0
 49
-0.254
 74
0
  0
LTYPE
  5
3B
330
2
100
AcDbSymbolTableRecord
100
AcDbLinetypeTableRecord
  2
DOT
 70
0
  3
Dot .  .  .  .  .  .  .  .  .  .  .  .  .  .  .  .
 72
65
 73
2
 40
0.508
 49
0.0
 74
0
 49
-0.508
 74
0
  0
LTYPE
  5
3C
330
2
100
AcDbSymbolTableRecord
100
AcDbLinetypeTableRecord
  2
DOTX2
 70
0
  3
Dot (2x) .    .    .    .    .    .    .    . 
 72
65
 73
2
 40
1.016
 49
0.0
 74
0
 49
-1.016
 74
0
  0
LTYPE
  5
3D
330
2
100
AcDbSymbolTableRecord
100
AcDbLinetypeTableRecord
  2
DOT2
 70
0
  3
Dot (.5) . . . . . . . . . . . . . . . . . . . 
 72
65
 73
2
 40
0.254
 49
0.0
 74
0
 49
-0.254
 74
0
  0
LTYPE
  5
3E
330
2
100
AcDbSymbolTableRecord
100
AcDbLinetypeTableRecord
  2
DIVIDE
 70
0
  3
Divide __ . . __ . . __ . . __ . . __ . . __
 72
65
 73
6
 40
4.064
 49
2.54
 74
0
 49
-0.508
 74
0
 49
0.0
 74
0
 49
-0.508
 74
0
 49
0.0
 74
0
 49
-0.508
 74
0
  0
LTYPE
  5
3F
330
2
100
AcDbSymbolTableRecord
100
AcDbLinetypeTableRecord
  2
DIVIDEX2
 70
0
  3
Divide (2x) ____  . .  ____  . .  ____  . .  ____
 72
65
 73
6
 40
6.604
 49
5.08
 74
0
 49
-0.508
 74
0
 49
0.0
 74
0
 49
-0.508
 74
0
 49
0.0
 74
0
 49
-0.508
 74
0
  0
LTYPE
  5
40
330
2
100
AcDbSymbolTableRecord
100
AcDbLinetypeTableRecord
  2
DIVIDE2
 70
0
  3
Divide(.5x) _ . _ . _ . _ . _ . _ . _ . _
 72
65
 73
6
 40
2.032
 49
1.27
 74
0
 49
-0.254
 74
0
 49
0.0
 74
0
 49
-0.254
 74
0
 49
0.0
 74
0
 49
-0.254
 74
0
  0
LTYPE
  5
9B
330
2
100
AcDbSymbolTableRecord
100
AcDbLinetypeTableRecord
  2
HIDDEN2
 70
0
  3

 72
65
 73
2
 40
0.5
 49
0.25
 74
0
 49
-0.25
 74
0
  0
ENDTAB
  0
TABLE
  2
LAYER
  5
1
330
0
100
AcDbSymbolTable
 70
19
  0
LAYER
  5
27
330
1
100
AcDbSymbolTableRecord
100
AcDbLayerTableRecord
  2
0
 70
0
 62
7
  6
Continuous
370
-3
390
13
347
21
  0
LAYER
  5
28
330
1
100
AcDbSymbolTableRecord
100
AcDbLayerTableRecord
  2
Defpoints
 70
0
 62
7
  6
Continuous
290
0
370
-3
390
13
347
21
  0
LAYER
  5
8A
330
1
100
AcDbSymbolTableRecord
100
AcDbLayerTableRecord
  2
A-WALL
 70
0
 62
7
  6
Continuous
370
-3
390
13
347
21
  0
LAYER
  5
8B
330
1
100
AcDbSymbolTableRecord
100
AcDbLayerTableRecord
  2
A-WALL-PATT
 70
0
 62
8
  6
Continuous
370
-3
390
13
347
21
  0
LAYER
  5
8C
330
1
100
AcDbSymbolTableRecord
100
AcDbLayerTableRecord
  2
A-DOOR
 70
0
 62
3
  6
Continuous
370
-3
390
13
347
21
  0
LAYER
  5
8D
330
1
100
AcDbSymbolTableRecord
100
AcDbLayerTableRecord
  2
A-GLAZ
 70
0
 62
4
  6
Continuous
370
-3
390
13
347
21
  0
LAYER
  5
8E
330
1
100
AcDbSymbolTableRecord
100
AcDbLayerTableRecord
  2
A-GLAZ-PATT
 70
0
 62
151
  6
Continuous
370
-3
390
13
347
21
  0
LAYER
  5
8F
330
1
100
AcDbSymbolTableRecord
100
AcDbLayerTableRecord
  2
A-FURN
 70
0
 62
9
  6
Continuous
370
-3
390
13
347
21
  0
LAYER
  5
90
330
1
100
AcDbSymbolTableRecord
100
AcDbLayerTableRecord
  2
A-FLOR-ANNO
 70
0
 62
7
  6
Continuous
370
-3
390
13
347
21
  0
LAYER
  5
91
330
1
100
AcDbSymbolTableRecord
100
AcDbLayerTableRecord
  2
A-ANNO-DIMS
 70
0
 62
1
  6
Continuous
370
-3
390
13
347
21
  0
LAYER
  5
92
330
1
100
AcDbSymbolTableRecord
100
AcDbLayerTableRecord
  2
A-ELEV
 70
0
 62
7
  6
Continuous
370
-3
390
13
347
21
  0
LAYER
  5
93
330
1
100
AcDbSymbolTableRecord
100
AcDbLayerTableRecord
  2
A-ELEV-HIDN
 70
0
 62
8
  6
Continuous
370
-3
390
13
347
21
  0
LAYER
  5
94
330
1
100
AcDbSymbolTableRecord
100
AcDbLayerTableRecord
  2
A-ROOF
 70
0
 62
5
  6
Continuous
370
-3
390
13
347
21
  0
LAYER
  5
95
330
1
100
AcDbSymbolTableRecord
100
AcDbLayerTableRecord
  2
A-GRND
 70
0
 62
8
  6
Continuous
370
-3
390
13
347
21
  0
LAYER
  5
96
330
1
100
AcDbSymbolTableRecord
100
AcDbLayerTableRecord
  2
A-SECT-PATT
 70
0
 62
8
  6
Continuous
370
-3
390
13
347
21
  0
LAYER
  5
97
330
1
100
AcDbSymbolTableRecord
100
AcDbLayerTableRecord
  2
A-DECK
 70
0
 62
32
  6
Continuous
370
-3
390
13
347
21
  0
LAYER
  5
98
330
1
100
AcDbSymbolTableRecord
100
AcDbLayerTableRecord
  2
G-TITLE
 70
0
 62
7
  6
Continuous
370
-3
390
13
347
21
  0
LAYER
  5
99
330
1
100
AcDbSymbolTableRecord
100
AcDbLayerTableRecord
  2
G-ANNO-TEXT
 70
0
 62
7
  6
Continuous
370
-3
390
13
347
21
  0
LAYER
  5
9A
330
1
100
AcDbSymbolTableRecord
100
AcDbLayerTableRecord
  2
A-LEVL
 70
0
 62
1
  6
Continuous
370
-3
390
13
347
21
  0
ENDTAB
  0
TABLE
  2
STYLE
  5
5
330
0
100
AcDbSymbolTable
 70
26
  0
STYLE
  5
29
330
5
100
AcDbSymbolTableRecord
100
AcDbTextStyleTableRecord
  2
Standard
 70
0
 40
0.0
 41
1.0
 50
0.0
 71
0
 42
2.5
  3
txt
  4

  0
STYLE
  5
41
330
5
100
AcDbSymbolTableRecord
100
AcDbTextStyleTableRecord
  2
OpenSans-Light
 70
0
 40
0.0
 41
1.0
 50
0.0
 71
0
 42
2.5
  3
OpenSans-Light.ttf
  4

  0
STYLE
  5
42
330
5
100
AcDbSymbolTableRecord
100
AcDbTextStyleTableRecord
  2
OpenSans-Light-Italic
 70
0
 40
0.0
 41
1.0
 50
0.0
 71
0
 42
2.5
  3
OpenSans-LightItalic.ttf
  4

  0
STYLE
  5
43
330
5
100
AcDbSymbolTableRecord
100
AcDbTextStyleTableRecord
  2
OpenSans
 70
0
 40
0.0
 41
1.0
 50
0.0
 71
0
 42
2.5
  3
OpenSans-Regular.ttf
  4

  0
STYLE
  5
44
330
5
100
AcDbSymbolTableRecord
100
AcDbTextStyleTableRecord
  2
OpenSans-Italic
 70
0
 40
0.0
 41
1.0
 50
0.0
 71
0
 42
2.5
  3
OpenSans-Italic.ttf
  4

  0
STYLE
  5
45
330
5
100
AcDbSymbolTableRecord
100
AcDbTextStyleTableRecord
  2
OpenSans-SemiBold
 70
0
 40
0.0
 41
1.0
 50
0.0
 71
0
 42
2.5
  3
OpenSans-SemiBold.ttf
  4

  0
STYLE
  5
46
330
5
100
AcDbSymbolTableRecord
100
AcDbTextStyleTableRecord
  2
OpenSans-SemiBoldItalic
 70
0
 40
0.0
 41
1.0
 50
0.0
 71
0
 42
2.5
  3
OpenSans-SemiBoldItalic.ttf
  4

  0
STYLE
  5
47
330
5
100
AcDbSymbolTableRecord
100
AcDbTextStyleTableRecord
  2
OpenSans-Bold
 70
0
 40
0.0
 41
1.0
 50
0.0
 71
0
 42
2.5
  3
OpenSans-Bold.ttf
  4

  0
STYLE
  5
48
330
5
100
AcDbSymbolTableRecord
100
AcDbTextStyleTableRecord
  2
OpenSans-BoldItalic
 70
0
 40
0.0
 41
1.0
 50
0.0
 71
0
 42
2.5
  3
OpenSans-BoldItalic.ttf
  4

  0
STYLE
  5
49
330
5
100
AcDbSymbolTableRecord
100
AcDbTextStyleTableRecord
  2
OpenSans-ExtraBold
 70
0
 40
0.0
 41
1.0
 50
0.0
 71
0
 42
2.5
  3
OpenSans-ExtraBold.ttf
  4

  0
STYLE
  5
4A
330
5
100
AcDbSymbolTableRecord
100
AcDbTextStyleTableRecord
  2
OpenSans-ExtraBoldItalic
 70
0
 40
0.0
 41
1.0
 50
0.0
 71
0
 42
2.5
  3
OpenSans-ExtraBoldItalic.ttf
  4

  0
STYLE
  5
4B
330
5
100
AcDbSymbolTableRecord
100
AcDbTextStyleTableRecord
  2
OpenSansCondensed-Bold
 70
0
 40
0.0
 41
1.0
 50
0.0
 71
0
 42
2.5
  3
OpenSansCondensed-Bold.ttf
  4

  0
STYLE
  5
4C
330
5
100
AcDbSymbolTableRecord
100
AcDbTextStyleTableRecord
  2
OpenSansCondensed-Light
 70
0
 40
0.0
 41
1.0
 50
0.0
 71
0
 42
2.5
  3
OpenSansCondensed-Light.ttf
  4

  0
STYLE
  5
4D
330
5
100
AcDbSymbolTableRecord
100
AcDbTextStyleTableRecord
  2
OpenSansCondensed-Italic
 70
0
 40
0.0
 41
1.0
 50
0.0
 71
0
 42
2.5
  3
OpenSansCondensed-LightItalic.ttf
  4

  0
STYLE
  5
4E
330
5
100
AcDbSymbolTableRecord
100
AcDbTextStyleTableRecord
  2
LiberationSans
 70
0
 40
0.0
 41
1.0
 50
0.0
 71
0
 42
2.5
  3
LiberationSans-Regular.ttf
  4

  0
STYLE
  5
4F
330
5
100
AcDbSymbolTableRecord
100
AcDbTextStyleTableRecord
  2
LiberationSans-Bold
 70
0
 40
0.0
 41
1.0
 50
0.0
 71
0
 42
2.5
  3
LiberationSans-Bold.ttf
  4

  0
STYLE
  5
50
330
5
100
AcDbSymbolTableRecord
100
AcDbTextStyleTableRecord
  2
LiberationSans-BoldItalic
 70
0
 40
0.0
 41
1.0
 50
0.0
 71
0
 42
2.5
  3
LiberationSans-BoldItalic.ttf
  4

  0
STYLE
  5
51
330
5
100
AcDbSymbolTableRecord
100
AcDbTextStyleTableRecord
  2
LiberationSans-Italic
 70
0
 40
0.0
 41
1.0
 50
0.0
 71
0
 42
2.5
  3
LiberationSans-Italic.ttf
  4

  0
STYLE
  5
52
330
5
100
AcDbSymbolTableRecord
100
AcDbTextStyleTableRecord
  2
LiberationSerif
 70
0
 40
0.0
 41
1.0
 50
0.0
 71
0
 42
2.5
  3
LiberationSerif-Regular.ttf
  4

  0
STYLE
  5
53
330
5
100
AcDbSymbolTableRecord
100
AcDbTextStyleTableRecord
  2
LiberationSerif-Bold
 70
0
 40
0.0
 41
1.0
 50
0.0
 71
0
 42
2.5
  3
LiberationSerif-Bold.ttf
  4

  0
STYLE
  5
54
330
5
100
AcDbSymbolTableRecord
100
AcDbTextStyleTableRecord
  2
LiberationSerif-BoldItalic
 70
0
 40
0.0
 41
1.0
 50
0.0
 71
0
 42
2.5
  3
LiberationSerif-BoldItalic.ttf
  4

  0
STYLE
  5
55
330
5
100
AcDbSymbolTableRecord
100
AcDbTextStyleTableRecord
  2
LiberationSerif-Italic
 70
0
 40
0.0
 41
1.0
 50
0.0
 71
0
 42
2.5
  3
LiberationSerif-Italic.ttf
  4

  0
STYLE
  5
56
330
5
100
AcDbSymbolTableRecord
100
AcDbTextStyleTableRecord
  2
LiberationMono
 70
0
 40
0.0
 41
1.0
 50
0.0
 71
0
 42
2.5
  3
LiberationMono-Regular.ttf
  4

  0
STYLE
  5
57
330
5
100
AcDbSymbolTableRecord
100
AcDbTextStyleTableRecord
  2
LiberationMono-Bold
 70
0
 40
0.0
 41
1.0
 50
0.0
 71
0
 42
2.5
  3
LiberationMono-Bold.ttf
  4

  0
STYLE
  5
58
330
5
100
AcDbSymbolTableRecord
100
AcDbTextStyleTableRecord
  2
LiberationMono-BoldItalic
 70
0
 40
0.0
 41
1.0
 50
0.0
 71
0
 42
2.5
  3
LiberationMono-BoldItalic.ttf
  4

  0
STYLE
  5
59
330
5
100
AcDbSymbolTableRecord
100
AcDbTextStyleTableRecord
  2
LiberationMono-Italic
 70
0
 40
0.0
 41
1.0
 50
0.0
 71
0
 42
2.5
  3
LiberationMono-Italic.ttf
  4

  0
ENDTAB
  0
TABLE
  2
VIEW
  5
7
330
0
100
AcDbSymbolTable
 70
0
  0
ENDTAB
  0
TABLE
  2
UCS
  5
6
330
0
100
AcDbSymbolTable
 70
0
  0
ENDTAB
  0
TABLE
  2
APPID
  5
3
330
0
100
AcDbSymbolTable
 70
3
  0
APPID
  5
2A
330
3
100
AcDbSymbolTableRecord
100
AcDbRegAppTableRecord
  2
ACAD
 70
0
  0
APPID
  5
22B
330
3
100
AcDbSymbolTableRecord
100
AcDbRegAppTableRecord
  2
HATCHBACKGROUNDCOLOR
 70
0
  0
APPID
  5
22C
330
3
100
AcDbSymbolTableRecord
100
AcDbRegAppTableRecord
  2
EZDXF
 70
0
  0
ENDTAB
  0
TABLE
  2
DIMSTYLE
  5
4
330
0
100
AcDbSymbolTable
 70
12
100
AcDbDimStyleTable
  0
DIMSTYLE
105
2B
330
4
100
AcDbSymbolTableRecord
100
AcDbDimStyleTableRecord
  2
Standard
 70
0
 40
1.0
 41
2.5
 42
0.625
 43
3.75
 44
1.25
 45
0.0
 46
0.0
 47
0.0
 48
0.0
 49
2.5
140
2.5
141
2.5
142
0.0
143
0.03937007874
144
1.0
145
0.0
146
1.0
147
0.625
148
0.0
 69
0
 70
0
 71
0
 72
0
 73
0
 74
0
 75
0
 76
0
 77
1
 78
8
 79
3
170
0
171
3
172
1
173
0
174
0
175
0
176
0
177
0
178
0
179
2
271
2
272
2
273
2
274
3
275
0
276
0
277
2
278
44
279
0
280
0
281
0
282
0
283
0
284
8
285
0
286
0
288
0
289
3
290
0
371
-2
372
-2
  0
DIMSTYLE
105
73
330
4
100
AcDbSymbolTableRecord
100
AcDbDimStyleTableRecord
  2
EZDXF
 70
0
 40
1.0
 41
0.175
 42
0.125
 43
3.75
 44
0.375
 45
0.0
 46
0.0
 47
0.0
 48
0.0
 49
2.5
140
0.25
141
2.5
142
0.0
143
0.03937007874
144
100.0
145
0.0
146
0.5
147
0.1
148
0.0
 69
0
 70
0
 71
0
 72
0
 73
0
 74
0
 75
0
 76
0
 77
1
 78
12
 79
3
170
0
171
3
172
1
173
0
174
0
175
0
176
0
177
0
178
0
179
2
271
2
272
2
273
2
274
3
275
0
276
0
277
2
278
46
279
2
280
0
281
0
282
0
283
0
284
8
285
0
286
0
288
1
289
3
290
0
340
4C
342
74
371
-2
372
-2
  0
DIMSTYLE
105
7C
330
4
100
AcDbSymbolTableRecord
100
AcDbDimStyleTableRecord
  2
EZ_M_100_H25_CM
 70
0
 40
1.0
 41
0.25
 42
0.125
 43
3.75
 44
0.375
 45
0.0
 46
0.0
 47
0.0
 48
0.0
 49
2.5
140
0.25
141
2.5
142
0.125
143
0.03937007874
144
100.0
145
0.0
146
0.5
147
0.1
148
0.0
 69
0
 70
0
 71
0
 72
0
 73
0
 74
0
 75
0
 76
0
 77
1
 78
12
 79
3
170
0
171
3
172
1
173
0
174
0
175
0
176
0
177
0
178
0
179
2
271
2
272
2
273
2
274
3
275
0
276
0
277
2
278
46
279
2
280
0
281
0
282
0
283
0
284
8
285
0
286
0
288
1
289
3
290
0
340
4C
371
-2
372
-2
  0
DIMSTYLE
105
7D
330
4
100
AcDbSymbolTableRecord
100
AcDbDimStyleTableRecord
  2
EZ_M_50_H25_CM
 70
0
 40
1.0
 41
0.125
 42
0.0625
 43
3.75
 44
0.1875
 45
0.0
 46
0.0
 47
0.0
 48
0.0
 49
2.5
140
0.125
141
2.5
142
0.0625
143
0.03937007874
144
100.0
145
0.0
146
0.5
147
0.05
148
0.0
 69
0
 70
0
 71
0
 72
0
 73
0
 74
0
 75
0
 76
0
 77
1
 78
12
 79
3
170
0
171
3
172
1
173
0
174
0
175
0
176
0
177
0
178
0
179
2
271
2
272
2
273
2
274
3
275
0
276
0
277
2
278
46
279
2
280
0
281
0
282
0
283
0
284
8
285
0
286
0
288
1
289
3
290
0
340
4C
371
-2
372
-2
  0
DIMSTYLE
105
7E
330
4
100
AcDbSymbolTableRecord
100
AcDbDimStyleTableRecord
  2
EZ_M_25_H25_CM
 70
0
 40
1.0
 41
0.0625
 42
0.03125
 43
3.75
 44
0.09375
 45
0.0
 46
0.0
 47
0.0
 48
0.0
 49
2.5
140
0.0625
141
2.5
142
0.03125
143
0.03937007874
144
100.0
145
0.0
146
0.5
147
0.025
148
0.0
 69
0
 70
0
 71
0
 72
0
 73
0
 74
0
 75
0
 76
0
 77
1
 78
12
 79
3
170
0
171
3
172
1
173
0
174
0
175
0
176
0
177
0
178
0
179
2
271
2
272
2
273
2
274
3
275
0
276
0
277
2
278
46
279
2
280
0
281
0
282
0
283
0
284
8
285
0
286
0
288
1
289
3
290
0
340
4C
371
-2
372
-2
  0
DIMSTYLE
105
7F
330
4
100
AcDbSymbolTableRecord
100
AcDbDimStyleTableRecord
  2
EZ_M_20_H25_CM
 70
0
 40
1.0
 41
0.05
 42
0.025
 43
3.75
 44
0.07500000000000001
 45
0.0
 46
0.0
 47
0.0
 48
0.0
 49
2.5
140
0.05
141
2.5
142
0.025
143
0.03937007874
144
100.0
145
0.0
146
0.5
147
0.020000000000000004
148
0.0
 69
0
 70
0
 71
0
 72
0
 73
0
 74
0
 75
0
 76
0
 77
1
 78
12
 79
3
170
0
171
3
172
1
173
0
174
0
175
0
176
0
177
0
178
0
179
2
271
2
272
2
273
2
274
3
275
0
276
0
277
2
278
46
279
2
280
0
281
0
282
0
283
0
284
8
285
0
286
0
288
1
289
3
290
0
340
4C
371
-2
372
-2
  0
DIMSTYLE
105
80
330
4
100
AcDbSymbolTableRecord
100
AcDbDimStyleTableRecord
  2
EZ_M_10_H25_CM
 70
0
 40
1.0
 41
0.025
 42
0.0125
 43
3.75
 44
0.037500000000000006
 45
0.0
 46
0.0
 47
0.0
 48
0.0
 49
2.5
140
0.025
141
2.5
142
0.0125
143
0.03937007874
144
100.0
145
0.0
146
0.5
147
0.010000000000000002
148
0.0
 69
0
 70
0
 71
0
 72
0
 73
0
 74
0
 75
0
 76
0
 77
1
 78
12
 79
3
170
0
171
3
172
1
173
0
174
0
175
0
176
0
177
0
178
0
179
2
271
2
272
2
273
2
274
3
275
0
276
0
277
2
278
46
279
2
280
0
281
0
282
0
283
0
284
8
285
0
286
0
288
1
289
3
290
0
340
4C
371
-2
372
-2
  0
DIMSTYLE
105
81
330
4
100
AcDbSymbolTableRecord
100
AcDbDimStyleTableRecord
  2
EZ_M_5_H25_CM
 70
0
 40
1.0
 41
0.0125
 42
0.00625
 43
3.75
 44
0.018750000000000003
 45
0.0
 46
0.0
 47
0.0
 48
0.0
 49
2.5
140
0.0125
141
2.5
142
0.00625
143
0.03937007874
144
100.0
145
0.0
146
0.5
147
0.005000000000000001
148
0.0
 69
0
 70
0
 71
0
 72
0
 73
0
 74
0
 75
0
 76
0
 77
1
 78
12
 79
3
170
0
171
3
172
1
173
0
174
0
175
0
176
0
177
0
178
0
179
2
271
2
272
2
273
2
274
3
275
0
276
0
277
2
278
46
279
2
280
0
281
0
282
0
283
0
284
8
285
0
286
0
288
1
289
3
290
0
340
4C
371
-2
372
-2
  0
DIMSTYLE
105
82
330
4
100
AcDbSymbolTableRecord
100
AcDbDimStyleTableRecord
  2
EZ_M_1_H25_CM
 70
0
 40
1.0
 41
0.0025
 42
0.00125
 43
3.75
 44
0.00375
 45
0.0
 46
0.0
 47
0.0
 48
0.0
 49
2.5
140
0.0025
141
2.5
142
0.00125
143
0.03937007874
144
100.0
145
0.0
146
0.5
147
0.001
148
0.0
 69
0
 70
0
 71
0
 72
0
 73
0
 74
0
 75
0
 76
0
 77
1
 78
12
 79
3
170
0
171
3
172
1
173
0
174
0
175
0
176
0
177
0
178
0
179
2
271
2
272
2
273
2
274
3
275
0
276
0
277
2
278
46
279
2
280
0
281
0
282
0
283
0
284
8
285
0
286
0
288
1
289
3
290
0
340
4C
371
-2
372
-2
  0
DIMSTYLE
105
83
330
4
100
AcDbSymbolTableRecord
100
AcDbDimStyleTableRecord
  2
EZ_RADIUS
 70
0
 40
1.0
 41
0.25
 42
0.125
 43
3.75
 44
0.375
 45
0.0
 46
0.0
 47
0.0
 48
0.0
 49
2.5
140
0.25
141
0.0
142
0.0
143
0.03937007874
144
100.0
145
0.0
146
0.5
147
0.1
148
0.0
 69
0
 70
0
 71
0
 72
0
 73
0
 74
0
 75
0
 76
0
 77
1
 78
12
 79
3
170
0
171
3
172
0
173
0
174
0
175
0
176
0
177
0
178
0
179
2
271
2
272
2
273
2
274
3
275
0
276
0
277
2
278
46
279
1
280
0
281
0
282
0
283
0
284
8
285
0
286
0
288
1
289
3
290
0
340
4C
342
84
371
-2
372
-2
  0
DIMSTYLE
105
88
330
4
100
AcDbSymbolTableRecord
100
AcDbDimStyleTableRecord
  2
EZ_RADIUS_INSIDE
 70
0
 40
1.0
 41
0.25
 42
0.125
 43
3.75
 44
0.375
 45
0.0
 46
0.0
 47
0.0
 48
0.0
 49
2.5
140
0.25
141
0.0
142
0.0
143
0.03937007874
144
100.0
145
0.0
146
0.5
147
0.1
148
0.0
 69
0
 70
0
 71
0
 72
0
 73
0
 74
0
 75
0
 76
0
 77
0
 78
12
 79
3
170
0
171
3
172
0
173
0
174
1
175
0
176
0
177
0
178
0
179
2
271
2
272
2
273
2
274
3
275
0
276
0
277
2
278
46
279
0
280
0
281
0
282
0
283
0
284
8
285
0
286
0
288
1
289
0
290
0
340
4C
342
84
371
-2
372
-2
  0
DIMSTYLE
105
89
330
4
100
AcDbSymbolTableRecord
100
AcDbDimStyleTableRecord
  2
EZ_CURVED
 70
0
 40
1.0
 41
0.25
 42
0.125
 43
3.75
 44
0.375
 45
0.0
 46
0.0
 47
0.0
 48
0.0
 49
2.5
140
0.25
141
2.5
142
0.0
143
0.03937007874
144
100.0
145
0.0
146
0.5
147
0.1
148
0.0
 69
0
 70
0
 71
0
 72
0
 73
0
 74
0
 75
0
 76
0
 77
1
 78
12
 79
2
 90
2
170
0
171
3
172
1
173
0
174
0
175
0
176
0
177
0
178
0
179
2
271
2
272
2
273
2
274
3
275
0
276
0
277
2
278
46
279
2
280
0
281
0
282
0
283
0
284
8
285
0
286
0
288
1
289
3
290
0
340
4C
371
-2
372
-2
  0
ENDTAB
  0
TABLE
  2
BLOCK_RECORD
  5
9
330
0
100
AcDbSymbolTable
 70
16
  0
BLOCK_RECORD
  5
17
330
9
100
AcDbSymbolTableRecord
100
AcDbBlockTableRecord
  2
*Model_Space
340
1A
 70
0
280
1
281
0
  0
BLOCK_RECORD
  5
1B
330
9
100
AcDbSymbolTableRecord
100
AcDbBlockTableRecord
  2
*Paper_Space
340
1E
 70
0
280
1
281
0
  0
BLOCK_RECORD
  5
74
330
9
100
AcDbSymbolTableRecord
100
AcDbBlockTableRecord
  2
_ARCHTICK
340
0
 70
0
280
1
281
0
  0
BLOCK_RECORD
  5
78
330
9
100
AcDbSymbolTableRecord
100
AcDbBlockTableRecord
  2
_CLOSEDFILLED
340
0
 70
0
280
1
281
0
  0
BLOCK_RECORD
  5
84
330
9
100
AcDbSymbolTableRecord
100
AcDbBlockTableRecord
  2
_CLOSEDBLANK
340
0
 70
0
280
1
281
0
  0
BLOCK_RECORD
  5
DD
330
9
100
AcDbSymbolTableRecord
100
AcDbBlockTableRecord
  2
*D1
340
0
 70
0
280
1
281
0
  0
BLOCK_RECORD
  5
EC
330
9
100
AcDbSymbolTableRecord
100
AcDbBlockTableRecord
  2
*D2
340
0
 70
0
280
1
281
0
  0
BLOCK_RECORD
  5
FB
330
9
100
AcDbSymbolTableRecord
100
AcDbBlockTableRecord
  2
*D3
340
0
 70
0
280
1
281
0
  0
BLOCK_RECORD
  5
10A
330
9
100
AcDbSymbolTableRecord
100
AcDbBlockTableRecord
  2
*D4
340
0
 70
0
280
1
281
0
  0
BLOCK_RECORD
  5
119
330
9
100
AcDbSymbolTableRecord
100
AcDbBlockTableRecord
  2
*D5
340
0
 70
0
280
1
281
0
  0
BLOCK_RECORD
  5
158
330
9
100
AcDbSymbolTableRecord
100
AcDbBlockTableRecord
  2
*D6
340
0
 70
0
280
1
281
0
  0
BLOCK_RECORD
  5
19F
330
9
100
AcDbSymbolTableRecord
100
AcDbBlockTableRecord
  2
*D7
340
0
 70
0
280
1
281
0
  0
BLOCK_RECORD
  5
1EE
330
9
100
AcDbSymbolTableRecord
100
AcDbBlockTableRecord
  2
*D8
340
0
 70
0
280
1
281
0
  0
BLOCK_RECORD
  5
1FD
330
9
100
AcDbSymbolTableRecord
100
AcDbBlockTableRecord
  2
*D9
340
0
 70
0
280
1
281
0
  0
BLOCK_RECORD
  5
20C
330
9
100
AcDbSymbolTableRecord
100
AcDbBlockTableRecord
  2
*D10
340
0
 70
0
280
1
281
0
  0
BLOCK_RECORD
  5
21B
330
9
100
AcDbSymbolTableRecord
100
AcDbBlockTableRecord
  2
*D11
340
0
 70
0
280
1
281
0
  0
ENDTAB
  0
ENDSEC
  0
SECTION
  2
BLOCKS
  0
BLOCK
  5
18
330
17
100
AcDbEntity
  8
0
100
AcDbBlockBegin
  2
*Model_Space
 70
0
 10
0.0
 20
0.0
 30
0.0
  3
*Model_Space
  1

  0
ENDBLK
  5
19
330
17
100
AcDbEntity
  8
0
100
AcDbBlockEnd
  0
BLOCK
  5
1C
330
1B
100
AcDbEntity
  8
0
100
AcDbBlockBegin
  2
*Paper_Space
 70
0
 10
0.0
 20
0.0
 30
0.0
  3
*Paper_Space
  1

  0
ENDBLK
  5
1D
330
1B
100
AcDbEntity
  8
0
100
AcDbBlockEnd
  0
BLOCK
  5
75
330
74
100
AcDbEntity
  8
0
100
AcDbBlockBegin
  2
_ARCHTICK
 70
0
 10
0.0
 20
0.0
 30
0.0
  3
_ARCHTICK
  1

  0
LWPOLYLINE
  5
77
330
74
100
AcDbEntity
  8
0
  6
BYBLOCK
 62
0
100
AcDbPolyline
 90
2
 70
0
 43
0.15
 10
-0.5
 20
-0.5
 10
0.5
 20
0.5
  0
ENDBLK
  5
76
330
74
100
AcDbEntity
  8
0
100
AcDbBlockEnd
  0
BLOCK
  5
79
330
78
100
AcDbEntity
  8
0
100
AcDbBlockBegin
  2
_CLOSEDFILLED
 70
0
 10
0.0
 20
0.0
 30
0.0
  3
_CLOSEDFILLED
  1

  0
SOLID
  5
7B
330
78
100
AcDbEntity
  8
0
  6
BYBLOCK
 62
0
100
AcDbTrace
 10
-1.0
 20
0.16439898372402537
 30
0.0
 11
0.0
 21
0.0
 31
0.0
 12
-1.0
 22
-0.16439898372402537
 32
0.0
 13
-1.0
 23
-0.16439898372402537
 33
0.0
  0
ENDBLK
  5
7A
330
78
100
AcDbEntity
  8
0
100
AcDbBlockEnd
  0
BLOCK
  5
85
330
84
100
AcDbEntity
  8
0
100
AcDbBlockBegin
  2
_CLOSEDBLANK
 70
0
 10
0.0
 20
0.0
 30
0.0
  3
_CLOSEDBLANK
  1

  0
LWPOLYLINE
  5
87
330
84
100
AcDbEntity
  8
0
  6
BYBLOCK
 62
0
100
AcDbPolyline
 90
3
 70
1
 10
-1.0
 20
0.16439898372402537
 10
0.0
 20
0.0
 10
-1.0
 20
-0.16439898372402537
  0
ENDBLK
  5
86
330
84
100
AcDbEntity
  8
0
100
AcDbBlockEnd
  0
BLOCK
  5
DE
330
DD
100
AcDbEntity
  8
0
100
AcDbBlockBegin
  2
*D1
 70
1
 10
0.0
 20
0.0
 30
0.0
  3
*D1
  1

  0
LINE
  5
E0
330
DD
100
AcDbEntity
  8
0
 62
1
100
AcDbLine
 10
21.0
 20
65.65
 30
0.0
 11
21.0
 21
43.7
 31
0.0
  0
LINE
  5
E1
330
DD
100
AcDbEntity
  8
0
 62
1
100
AcDbLine
 10
39.0
 20
65.65
 30
0.0
 11
39.0
 21
43.7
 31
0.0
  0
INSERT
  5
E2
330
DD
100
AcDbEntity
  8
A-ANNO-DIMS
 62
1
100
AcDbBlockReference
  2
_ARCHTICK
 10
21.0
 20
44.0
 30
0.0
 41
0.45
 42
0.45
 50
180.0
  0
INSERT
  5
E4
330
DD
100
AcDbEntity
  8
A-ANNO-DIMS
 62
1
100
AcDbBlockReference
  2
_ARCHTICK
 10
39.0
 20
44.0
 30
0.0
 41
0.45
 42
0.45
  0
LINE
  5
E6
330
DD
100
AcDbEntity
  8
0
 62
1
100
AcDbLine
 10
21.0
 20
44.0
 30
0.0
 11
39.0
 21
44.0
 31
0.0
  0
MTEXT
  5
E7
330
DD
100
AcDbEntity
  8
A-ANNO-DIMS
 62
1
100
AcDbMText
 10
30.0
 20
44.65
 30
0.0
 40
0.9
 71
5
  1
1800'
  7
OpenSansCondensed-Light
  0
POINT
  5
E8
330
DD
100
AcDbEntity
  8
Defpoints
100
AcDbPoint
 10
21.0
 20
44.0
 30
0.0
  0
POINT
  5
E9
330
DD
100
AcDbEntity
  8
Defpoints
100
AcDbPoint
 10
21.0
 20
66.0
 30
0.0
  0
POINT
  5
EA
330
DD
100
AcDbEntity
  8
Defpoints
100
AcDbPoint
 10
39.0
 20
66.0
 30
0.0
  0
ENDBLK
  5
DF
330
DD
100
AcDbEntity
  8
0
100
AcDbBlockEnd
  0
BLOCK
  5
ED
330
EC
100
AcDbEntity
  8
0
100
AcDbBlockBegin
  2
*D2
 70
1
 10
0.0
 20
0.0
 30
0.0
  3
*D2
  1

  0
LINE
  5
EF
330
EC
100
AcDbEntity
  8
0
 62
1
100
AcDbLine
 10
30.35
 20
57.0
 30
0.0
 11
54.3
 21
57.0
 31
0.0
  0
LINE
  5
F0
330
EC
100
AcDbEntity
  8
0
 62
1
100
AcDbLine
 10
30.35
 20
75.0
 30
0.0
 11
54.3
 21
75.0
 31
0.0
  0
INSERT
  5
F1
330
EC
100
AcDbEntity
  8
A-ANNO-DIMS
 62
1
100
AcDbBlockReference
  2
_ARCHTICK
 10
54.0
 20
57.0
 30
0.0
 41
0.45
 42
0.45
 50
270.0
  0
INSERT
  5
F3
330
EC
100
AcDbEntity
  8
A-ANNO-DIMS
 62
1
100
AcDbBlockReference
  2
_ARCHTICK
 10
54.0
 20
75.0
 30
0.0
 41
0.45
 42
0.45
 50
90.0
  0
LINE
  5
F5
330
EC
100
AcDbEntity
  8
0
 62
1
100
AcDbLine
 10
54.0
 20
57.0
 30
0.0
 11
54.0
 21
75.0
 31
0.0
  0
MTEXT
  5
F6
330
EC
100
AcDbEntity
  8
A-ANNO-DIMS
 62
1
100
AcDbMText
 10
53.35
 20
66.0
 30
0.0
 40
0.9
 71
5
  1
1800'
  7
OpenSansCondensed-Light
 50
90.0
  0
POINT
  5
F7
330
EC
100
AcDbEntity
  8
Defpoints
100
AcDbPoint
 10
54.0
 20
57.0
 30
0.0
  0
POINT
  5
F8
330
EC
100
AcDbEntity
  8
Defpoints
100
AcDbPoint
 10
30.0
 20
57.0
 30
0.0
  0
POINT
  5
F9
330
EC
100
AcDbEntity
  8
Defpoints
100
AcDbPoint
 10
30.0
 20
75.0
 30
0.0
  0
ENDBLK
  5
EE
330
EC
100
AcDbEntity
  8
0
100
AcDbBlockEnd
  0
BLOCK
  5
FC
330
FB
100
AcDbEntity
  8
0
100
AcDbBlockBegin
  2
*D3
 70
1
 10
0.0
 20
0.0
 30
0.0
  3
*D3
  1

  0
LINE
  5
FE
330
FB
100
AcDbEntity
  8
0
 62
1
100
AcDbLine
 10
15.0
 20
65.65
 30
0.0
 11
15.0
 21
40.2
 31
0.0
  0
LINE
  5
FF
330
FB
100
AcDbEntity
  8
0
 62
1
100
AcDbLine
 10
45.0
 20
65.65
 30
0.0
 11
45.0
 21
40.2
 31
0.0
  0
INSERT
  5
100
330
FB
100
AcDbEntity
  8
A-ANNO-DIMS
 62
1
100
AcDbBlockReference
  2
_ARCHTICK
 10
15.0
 20
40.5
 30
0.0
 41
0.45
 42
0.45
 50
180.0
  0
INSERT
  5
102
330
FB
100
AcDbEntity
  8
A-ANNO-DIMS
 62
1
100
AcDbBlockReference
  2
_ARCHTICK
 10
45.0
 20
40.5
 30
0.0
 41
0.45
 42
0.45
  0
LINE
  5
104
330
FB
100
AcDbEntity
  8
0
 62
1
100
AcDbLine
 10
15.0
 20
40.5
 30
0.0
 11
45.0
 21
40.5
 31
0.0
  0
MTEXT
  5
105
330
FB
100
AcDbEntity
  8
A-ANNO-DIMS
 62
1
100
AcDbMText
 10
30.0
 20
41.15
 30
0.0
 40
0.9
 71
5
  1
3000'
  7
OpenSansCondensed-Light
  0
POINT
  5
106
330
FB
100
AcDbEntity
  8
Defpoints
100
AcDbPoint
 10
15.0
 20
40.5
 30
0.0
  0
POINT
  5
107
330
FB
100
AcDbEntity
  8
Defpoints
100
AcDbPoint
 10
15.0
 20
66.0
 30
0.0
  0
POINT
  5
108
330
FB
100
AcDbEntity
  8
Defpoints
100
AcDbPoint
 10
45.0
 20
66.0
 30
0.0
  0
ENDBLK
  5
FD
330
FB
100
AcDbEntity
  8
0
100
AcDbBlockEnd
  0
BLOCK
  5
10B
330
10A
100
AcDbEntity
  8
0
100
AcDbBlockBegin
  2
*D4
 70
1
 10
0.0
 20
0.0
 30
0.0
  3
*D4
  1

  0
LINE
  5
10D
330
10A
100
AcDbEntity
  8
0
 62
1
100
AcDbLine
 10
28.5
 20
56.65
 30
0.0
 11
28.5
 21
53.2
 31
0.0
  0
LINE
  5
10E
330
10A
100
AcDbEntity
  8
0
 62
1
100
AcDbLine
 10
31.5
 20
56.65
 30
0.0
 11
31.5
 21
53.2
 31
0.0
  0
INSERT
  5
10F
330
10A
100
AcDbEntity
  8
A-ANNO-DIMS
 62
1
100
AcDbBlockReference
  2
_ARCHTICK
 10
28.5
 20
53.5
 30
0.0
 41
0.45
 42
0.45
 50
180.0
  0
INSERT
  5
111
330
10A
100
AcDbEntity
  8
A-ANNO-DIMS
 62
1
100
AcDbBlockReference
  2
_ARCHTICK
 10
31.5
 20
53.5
 30
0.0
 41
0.45
 42
0.45
  0
LINE
  5
113
330
10A
100
AcDbEntity
  8
0
 62
1
100
AcDbLine
 10
28.5
 20
53.5
 30
0.0
 11
31.5
 21
53.5
 31
0.0
  0
MTEXT
  5
114
330
10A
100
AcDbEntity
  8
A-ANNO-DIMS
 62
1
100
AcDbMText
 10
30.0
 20
54.45
 30
0.0
 40
0.9
 71
5
  1
300'
  7
OpenSansCondensed-Light
  0
POINT
  5
115
330
10A
100
AcDbEntity
  8
Defpoints
100
AcDbPoint
 10
28.5
 20
53.5
 30
0.0
  0
POINT
  5
116
330
10A
100
AcDbEntity
  8
Defpoints
100
AcDbPoint
 10
28.5
 20
57.0
 30
0.0
  0
POINT
  5
117
330
10A
100
AcDbEntity
  8
Defpoints
100
AcDbPoint
 10
31.5
 20
57.0
 30
0.0
  0
ENDBLK
  5
10C
330
10A
100
AcDbEntity
  8
0
100
AcDbBlockEnd
  0
BLOCK
  5
11A
330
119
100
AcDbEntity
  8
0
100
AcDbBlockBegin
  2
*D5
 70
1
 10
0.0
 20
0.0
 30
0.0
  3
*D5
  1

  0
LINE
  5
11C
330
119
100
AcDbEntity
  8
0
 62
1
100
AcDbLine
 10
17.200000000000003
 20
74.55
 30
0.0
 11
17.200000000000003
 21
82.5
 31
0.0
  0
LINE
  5
11D
330
119
100
AcDbEntity
  8
0
 62
1
100
AcDbLine
 10
24.4
 20
74.55
 30
0.0
 11
24.4
 21
82.5
 31
0.0
  0
INSERT
  5
11E
330
119
100
AcDbEntity
  8
A-ANNO-DIMS
 62
1
100
AcDbBlockReference
  2
_ARCHTICK
 10
17.200000000000003
 20
82.2
 30
0.0
 41
0.45
 42
0.45
 50
180.0
  0
INSERT
  5
120
330
119
100
AcDbEntity
  8
A-ANNO-DIMS
 62
1
100
AcDbBlockReference
  2
_ARCHTICK
 10
24.4
 20
82.2
 30
0.0
 41
0.45
 42
0.45
  0
LINE
  5
122
330
119
100
AcDbEntity
  8
0
 62
1
100
AcDbLine
 10
17.200000000000003
 20
82.2
 30
0.0
 11
24.4
 21
82.2
 31
0.0
  0
MTEXT
  5
123
330
119
100
AcDbEntity
  8
A-ANNO-DIMS
 62
1
100
AcDbMText
 10
20.8
 20
82.85000000000001
 30
0.0
 40
0.9
 71
5
  1
720'
  7
OpenSansCondensed-Light
  0
POINT
  5
124
330
119
100
AcDbEntity
  8
Defpoints
100
AcDbPoint
 10
17.200000000000003
 20
82.2
 30
0.0
  0
POINT
  5
125
330
119
100
AcDbEntity
  8
Defpoints
100
AcDbPoint
 10
17.200000000000003
 20
74.2
 30
0.0
  0
POINT
  5
126
330
119
100
AcDbEntity
  8
Defpoints
100
AcDbPoint
 10
24.4
 20
74.2
 30
0.0
  0
ENDBLK
  5
11B
330
119
100
AcDbEntity
  8
0
100
AcDbBlockEnd
  0
BLOCK
  5
159
330
158
100
AcDbEntity
  8
0
100
AcDbBlockBegin
  2
*D6
 70
1
 10
0.0
 20
0.0
 30
0.0
  3
*D6
  1

  0
LINE
  5
15B
330
158
100
AcDbEntity
  8
0
 62
1
100
AcDbLine
 10
81.65
 20
62.0
 30
0.0
 11
60.7
 21
62.0
 31
0.0
  0
LINE
  5
15C
330
158
100
AcDbEntity
  8
0
 62
1
100
AcDbLine
 10
81.65
 20
85.5
 30
0.0
 11
60.7
 21
85.5
 31
0.0
  0
INSERT
  5
15D
330
158
100
AcDbEntity
  8
A-ANNO-DIMS
 62
1
100
AcDbBlockReference
  2
_ARCHTICK
 10
61.0
 20
62.0
 30
0.0
 41
0.45
 42
0.45
 50
270.0
  0
INSERT
  5
15F
330
158
100
AcDbEntity
  8
A-ANNO-DIMS
 62
1
100
AcDbBlockReference
  2
_ARCHTICK
 10
61.0
 20
85.5
 30
0.0
 41
0.45
 42
0.45
 50
90.0
  0
LINE
  5
161
330
158
100
AcDbEntity
  8
0
 62
1
100
AcDbLine
 10
61.0
 20
62.0
 30
0.0
 11
61.0
 21
85.5
 31
0.0
  0
MTEXT
  5
162
330
158
100
AcDbEntity
  8
A-ANNO-DIMS
 62
1
100
AcDbMText
 10
60.35
 20
73.75
 30
0.0
 40
0.9
 71
5
  1
2350'
  7
OpenSansCondensed-Light
 50
90.0
  0
POINT
  5
163
330
158
100
AcDbEntity
  8
Defpoints
100
AcDbPoint
 10
61.0
 20
62.0
 30
0.0
  0
POINT
  5
164
330
158
100
AcDbEntity
  8
Defpoints
100
AcDbPoint
 10
82.0
 20
62.0
 30
0.0
  0
POINT
  5
165
330
158
100
AcDbEntity
  8
Defpoints
100
AcDbPoint
 10
82.0
 20
85.5
 30
0.0
  0
ENDBLK
  5
15A
330
158
100
AcDbEntity
  8
0
100
AcDbBlockEnd
  0
BLOCK
  5
1A0
330
19F
100
AcDbEntity
  8
0
100
AcDbBlockBegin
  2
*D7
 70
1
 10
0.0
 20
0.0
 30
0.0
  3
*D7
  1

  0
LINE
  5
1A2
330
19F
100
AcDbEntity
  8
0
 62
1
100
AcDbLine
 10
137.65
 20
62.0
 30
0.0
 11
116.7
 21
62.0
 31
0.0
  0
LINE
  5
1A3
330
19F
100
AcDbEntity
  8
0
 62
1
100
AcDbLine
 10
137.65
 20
85.5
 30
0.0
 11
116.7
 21
85.5
 31
0.0
  0
INSERT
  5
1A4
330
19F
100
AcDbEntity
  8
A-ANNO-DIMS
 62
1
100
AcDbBlockReference
  2
_ARCHTICK
 10
117.0
 20
62.0
 30
0.0
 41
0.45
 42
0.45
 50
270.0
  0
INSERT
  5
1A6
330
19F
100
AcDbEntity
  8
A-ANNO-DIMS
 62
1
100
AcDbBlockReference
  2
_ARCHTICK
 10
117.0
 20
85.5
 30
0.0
 41
0.45
 42
0.45
 50
90.0
  0
LINE
  5
1A8
330
19F
100
AcDbEntity
  8
0
 62
1
100
AcDbLine
 10
117.0
 20
62.0
 30
0.0
 11
117.0
 21
85.5
 31
0.0
  0
MTEXT
  5
1A9
330
19F
100
AcDbEntity
  8
A-ANNO-DIMS
 62
1
100
AcDbMText
 10
116.35
 20
73.75
 30
0.0
 40
0.9
 71
5
  1
2350'
  7
OpenSansCondensed-Light
 50
90.0
  0
POINT
  5
1AA
330
19F
100
AcDbEntity
  8
Defpoints
100
AcDbPoint
 10
117.0
 20
62.0
 30
0.0
  0
POINT
  5
1AB
330
19F
100
AcDbEntity
  8
Defpoints
100
AcDbPoint
 10
138.0
 20
62.0
 30
0.0
  0
POINT
  5
1AC
330
19F
100
AcDbEntity
  8
Defpoints
100
AcDbPoint
 10
138.0
 20
85.5
 30
0.0
  0
ENDBLK
  5
1A1
330
19F
100
AcDbEntity
  8
0
100
AcDbBlockEnd
  0
BLOCK
  5
1EF
330
1EE
100
AcDbEntity
  8
0
100
AcDbBlockBegin
  2
*D8
 70
1
 10
0.0
 20
0.0
 30
0.0
  3
*D8
  1

  0
LINE
  5
1F1
330
1EE
100
AcDbEntity
  8
0
 62
1
100
AcDbLine
 10
73.0
 20
13.65
 30
0.0
 11
73.0
 21
10.2
 31
0.0
  0
LINE
  5
1F2
330
1EE
100
AcDbEntity
  8
0
 62
1
100
AcDbLine
 10
91.0
 20
13.65
 30
0.0
 11
91.0
 21
10.2
 31
0.0
  0
INSERT
  5
1F3
330
1EE
100
AcDbEntity
  8
A-ANNO-DIMS
 62
1
100
AcDbBlockReference
  2
_ARCHTICK
 10
73.0
 20
10.5
 30
0.0
 41
0.45
 42
0.45
 50
180.0
  0
INSERT
  5
1F5
330
1EE
100
AcDbEntity
  8
A-ANNO-DIMS
 62
1
100
AcDbBlockReference
  2
_ARCHTICK
 10
91.0
 20
10.5
 30
0.0
 41
0.45
 42
0.45
  0
LINE
  5
1F7
330
1EE
100
AcDbEntity
  8
0
 62
1
100
AcDbLine
 10
73.0
 20
10.5
 30
0.0
 11
91.0
 21
10.5
 31
0.0
  0
MTEXT
  5
1F8
330
1EE
100
AcDbEntity
  8
A-ANNO-DIMS
 62
1
100
AcDbMText
 10
82.0
 20
11.15
 30
0.0
 40
0.9
 71
5
  1
1800'
  7
OpenSansCondensed-Light
  0
POINT
  5
1F9
330
1EE
100
AcDbEntity
  8
Defpoints
100
AcDbPoint
 10
73.0
 20
10.5
 30
0.0
  0
POINT
  5
1FA
330
1EE
100
AcDbEntity
  8
Defpoints
100
AcDbPoint
 10
73.0
 20
14.0
 30
0.0
  0
POINT
  5
1FB
330
1EE
100
AcDbEntity
  8
Defpoints
100
AcDbPoint
 10
91.0
 20
14.0
 30
0.0
  0
ENDBLK
  5
1F0
330
1EE
100
AcDbEntity
  8
0
100
AcDbBlockEnd
  0
BLOCK
  5
1FE
330
1FD
100
AcDbEntity
  8
0
100
AcDbBlockBegin
  2
*D9
 70
1
 10
0.0
 20
0.0
 30
0.0
  3
*D9
  1

  0
LINE
  5
200
330
1FD
100
AcDbEntity
  8
0
 62
1
100
AcDbLine
 10
72.0
 20
24.75
 30
0.0
 11
72.0
 21
26.7
 31
0.0
  0
LINE
  5
201
330
1FD
100
AcDbEntity
  8
0
 62
1
100
AcDbLine
 10
92.0
 20
24.75
 30
0.0
 11
92.0
 21
26.7
 31
0.0
  0
INSERT
  5
202
330
1FD
100
AcDbEntity
  8
A-ANNO-DIMS
 62
1
100
AcDbBlockReference
  2
_ARCHTICK
 10
72.0
 20
26.4
 30
0.0
 41
0.45
 42
0.45
 50
180.0
  0
INSERT
  5
204
330
1FD
100
AcDbEntity
  8
A-ANNO-DIMS
 62
1
100
AcDbBlockReference
  2
_ARCHTICK
 10
92.0
 20
26.4
 30
0.0
 41
0.45
 42
0.45
  0
LINE
  5
206
330
1FD
100
AcDbEntity
  8
0
 62
1
100
AcDbLine
 10
72.0
 20
26.4
 30
0.0
 11
92.0
 21
26.4
 31
0.0
  0
MTEXT
  5
207
330
1FD
100
AcDbEntity
  8
A-ANNO-DIMS
 62
1
100
AcDbMText
 10
82.0
 20
27.049999999999997
 30
0.0
 40
0.9
 71
5
  1
2000'
  7
OpenSansCondensed-Light
  0
POINT
  5
208
330
1FD
100
AcDbEntity
  8
Defpoints
100
AcDbPoint
 10
72.0
 20
26.4
 30
0.0
  0
POINT
  5
209
330
1FD
100
AcDbEntity
  8
Defpoints
100
AcDbPoint
 10
72.0
 20
24.4
 30
0.0
  0
POINT
  5
20A
330
1FD
100
AcDbEntity
  8
Defpoints
100
AcDbPoint
 10
92.0
 20
24.4
 30
0.0
  0
ENDBLK
  5
1FF
330
1FD
100
AcDbEntity
  8
0
100
AcDbBlockEnd
  0
BLOCK
  5
20D
330
20C
100
AcDbEntity
  8
0
100
AcDbBlockBegin
  2
*D10
 70
1
 10
0.0
 20
0.0
 30
0.0
  3
*D10
  1

  0
LINE
  5
20F
330
20C
100
AcDbEntity
  8
0
 62
1
100
AcDbLine
 10
81.65
 20
14.5
 30
0.0
 11
60.7
 21
14.5
 31
0.0
  0
LINE
  5
210
330
20C
100
AcDbEntity
  8
0
 62
1
100
AcDbLine
 10
81.65
 20
24.4
 30
0.0
 11
60.7
 21
24.4
 31
0.0
  0
INSERT
  5
211
330
20C
100
AcDbEntity
  8
A-ANNO-DIMS
 62
1
100
AcDbBlockReference
  2
_ARCHTICK
 10
61.0
 20
14.5
 30
0.0
 41
0.45
 42
0.45
 50
270.0
  0
INSERT
  5
213
330
20C
100
AcDbEntity
  8
A-ANNO-DIMS
 62
1
100
AcDbBlockReference
  2
_ARCHTICK
 10
61.0
 20
24.4
 30
0.0
 41
0.45
 42
0.45
 50
90.0
  0
LINE
  5
215
330
20C
100
AcDbEntity
  8
0
 62
1
100
AcDbLine
 10
61.0
 20
14.5
 30
0.0
 11
61.0
 21
24.4
 31
0.0
  0
MTEXT
  5
216
330
20C
100
AcDbEntity
  8
A-ANNO-DIMS
 62
1
100
AcDbMText
 10
60.35
 20
19.45
 30
0.0
 40
0.9
 71
5
  1
990'
  7
OpenSansCondensed-Light
 50
90.0
  0
POINT
  5
217
330
20C
100
AcDbEntity
  8
Defpoints
100
AcDbPoint
 10
61.0
 20
14.5
 30
0.0
  0
POINT
  5
218
330
20C
100
AcDbEntity
  8
Defpoints
100
AcDbPoint
 10
82.0
 20
14.5
 30
0.0
  0
POINT
  5
219
330
20C
100
AcDbEntity
  8
Defpoints
100
AcDbPoint
 10
82.0
 20
24.4
 30
0.0
  0
ENDBLK
  5
20E
330
20C
100
AcDbEntity
  8
0
100
AcDbBlockEnd
  0
BLOCK
  5
21C
330
21B
100
AcDbEntity
  8
0
100
AcDbBlockBegin
  2
*D11
 70
1
 10
0.0
 20
0.0
 30
0.0
  3
*D11
  1

  0
LINE
  5
21E
330
21B
100
AcDbEntity
  8
0
 62
1
100
AcDbLine
 10
81.65
 20
24.4
 30
0.0
 11
60.7
 21
24.4
 31
0.0
  0
LINE
  5
21F
330
21B
100
AcDbEntity
  8
0
 62
1
100
AcDbLine
 10
81.65
 20
37.0
 30
0.0
 11
60.7
 21
37.0
 31
0.0
  0
INSERT
  5
220
330
21B
100
AcDbEntity
  8
A-ANNO-DIMS
 62
1
100
AcDbBlockReference
  2
_ARCHTICK
 10
61.0
 20
24.4
 30
0.0
 41
0.45
 42
0.45
 50
270.0
  0
INSERT
  5
222
330
21B
100
AcDbEntity
  8
A-ANNO-DIMS
 62
1
100
AcDbBlockReference
  2
_ARCHTICK
 10
61.0
 20
37.0
 30
0.0
 41
0.45
 42
0.45
 50
90.0
  0
LINE
  5
224
330
21B
100
AcDbEntity
  8
0
 62
1
100
AcDbLine
 10
61.0
 20
24.4
 30
0.0
 11
61.0
 21
37.0
 31
0.0
  0
MTEXT
  5
225
330
21B
100
AcDbEntity
  8
A-ANNO-DIMS
 62
1
100
AcDbMText
 10
60.35
 20
30.7
 30
0.0
 40
0.9
 71
5
  1
1260'
  7
OpenSansCondensed-Light
 50
90.0
  0
POINT
  5
226
330
21B
100
AcDbEntity
  8
Defpoints
100
AcDbPoint
 10
61.0
 20
24.4
 30
0.0
  0
POINT
  5
227
330
21B
100
AcDbEntity
  8
Defpoints
100
AcDbPoint
 10
82.0
 20
24.4
 30
0.0
  0
POINT
  5
228
330
21B
100
AcDbEntity
  8
Defpoints
100
AcDbPoint
 10
82.0
 20
37.0
 30
0.0
  0
ENDBLK
  5
21D
330
21B
100
AcDbEntity
  8
0
100
AcDbBlockEnd
  0
ENDSEC
  0
SECTION
  2
ENTITIES
  0
LWPOLYLINE
  5
9C
330
17
100
AcDbEntity
  8
G-TITLE
100
AcDbPolyline
 90
4
 70
1
 10
0.0
 20
0.0
 10
190.0
 20
0.0
 10
190.0
 20
120.0
 10
0.0
 20
120.0
  0
LWPOLYLINE
  5
9D
330
17
100
AcDbEntity
  8
G-TITLE
100
AcDbPolyline
 90
4
 70
1
 10
0.0
 20
0.0
 10
190.0
 20
0.0
 10
190.0
 20
6.0
 10
0.0
 20
6.0
  0
TEXT
  5
9E
330
17
100
AcDbEntity
  8
G-TITLE
100
AcDbText
 10
1.0
 20
4.2
 30
0.0
 40
1.3
  1
FLORIDA FREEDOM WORLD  ·  LAKESIDE CABINS
 11
1.0
 21
4.2
 31
0.0
100
AcDbText
  0
TEXT
  5
9F
330
17
100
AcDbEntity
  8
G-TITLE
100
AcDbText
 10
1.0
 20
1.6
 30
0.0
 40
1.6
  1
AMANITA COTTAGE  ·  MUSHROOM CABIN  ·  PLAN, ELEVATIONS, SECTION
 11
1.0
 21
1.6
 31
0.0
100
AcDbText
  0
TEXT
  5
A0
330
17
100
AcDbEntity
  8
G-TITLE
100
AcDbText
 10
189.0
 20
4.2
 30
0.0
 40
0.9
  1
SHEET A-1 · 1 of 1
 72
2
 11
189.0
 21
4.2
 31
0.0
100
AcDbText
  0
TEXT
  5
A1
330
17
100
AcDbEntity
  8
G-TITLE
100
AcDbText
 10
189.0
 20
1.6
 30
0.0
 40
0.9
  1
CONCEPT DESIGN · NOT FOR CONSTRUCTION · 2026-09-29 · UNITS: FEET (DECIMAL)
 72
2
 11
189.0
 21
1.6
 31
0.0
100
AcDbText
  0
TEXT
  5
A2
330
17
100
AcDbEntity
  8
G-ANNO-TEXT
100
AcDbText
 10
132.0
 20
117.0
 30
0.0
 40
0.75
  1
NOTES
 11
132.0
 21
117.0
 31
0.0
100
AcDbText
  0
TEXT
  5
A3
330
17
100
AcDbEntity
  8
G-ANNO-TEXT
100
AcDbText
 10
132.0
 20
115.6
 30
0.0
 40
0.75
  1
1. Stem: 8 in shotcrete or SIP shell on a 6 in slab plinth, lime plaster finish.
 11
132.0
 21
115.6
 31
0.0
100
AcDbText
  0
TEXT
  5
A4
330
17
100
AcDbEntity
  8
G-ANNO-TEXT
100
AcDbText
 10
132.0
 20
114.19999999999999
 30
0.0
 40
0.75
  1
2. Cap: sprayed foam over steel ribs, elastomeric red coating with cream spots; gill soffit T&G cypress.
 11
132.0
 21
114.19999999999999
 31
0.0
100
AcDbText
  0
TEXT
  5
A5
330
17
100
AcDbEntity
  8
G-ANNO-TEXT
100
AcDbText
 10
132.0
 20
112.79999999999998
 30
0.0
 40
0.75
  1
3. Loft floor at 9.6 ft inside the cap, 10 ft radius, spiral stair 4.4 ft dia.
 11
132.0
 21
112.79999999999998
 31
0.0
100
AcDbText
  0
TEXT
  5
A6
330
17
100
AcDbEntity
  8
G-ANNO-TEXT
100
AcDbText
 10
132.0
 20
111.39999999999998
 30
0.0
 40
0.75
  1
4. Portholes 3 ft dia impact-rated; skylight 4.4 ft dia at the crown.
 11
132.0
 21
111.39999999999998
 31
0.0
100
AcDbText
  0
TEXT
  5
A7
330
17
100
AcDbEntity
  8
G-ANNO-TEXT
100
AcDbText
 10
132.0
 20
109.99999999999997
 30
0.0
 40
0.75
  1
5. Bath pod grows off the stem at the rear; 6 in shell.
 11
132.0
 21
109.99999999999997
 31
0.0
100
AcDbText
  0
TEXT
  5
A8
330
17
100
AcDbEntity
  8
G-ANNO-TEXT
100
AcDbText
 10
132.0
 20
108.59999999999997
 30
0.0
 40
0.75
  1
6. Finished floor 0.5 ft above pad; pad graded flat (see clearing and grading).
 11
132.0
 21
108.59999999999997
 31
0.0
100
AcDbText
  0
TEXT
  5
A9
330
17
100
AcDbEntity
  8
G-ANNO-TEXT
100
AcDbText
 10
132.0
 20
107.19999999999996
 30
0.0
 40
0.75
  1
7. All dimensions decimal feet to face of shell.
 11
132.0
 21
107.19999999999996
 31
0.0
100
AcDbText
  0
LWPOLYLINE
  5
AA
330
17
100
AcDbEntity
  8
A-WALL
100
AcDbPolyline
 90
76
 70
1
 10
38.95666254004977
 20
65.11784573703396
 10
38.93231581138839
 20
64.89830392320705
 10
38.90258858968303
 20
64.67942572990174
 10
38.86749878150047
 20
64.46134300115729
 10
38.827067523629076
 20
64.24418710185485
 10
38.781319170346755
 20
64.02808883858818
 10
38.730281278750894
 20
63.813178380870625
 10
38.67398459215896
 20
63.59958518272592
 10
38.61246302158988
 20
63.38743790470984
 10
38.545753625337326
 20
63.17686433640998
 10
38.473896586647186
 20
62.967991319470016
 10
38.39693518951265
 20
62.76094467118511
 10
38.31491579260158
 20
62.55584910871419
 10
38.227887801331775
 20
62.35282817395509
 10
38.13590363811099
 20
62.15200415912746
 10
38.12947848876876
 20
62.13883976359261
 10
37.5718376730093
 20
62.5293040664008
 10
37.61536726501041
 20
62.62433985433844
 10
37.69591650581902
 20
62.8122470083988
 10
37.77183001429338
 20
63.00207434566355
 10
37.84306206297456
 20
63.19370752124281
 10
37.90956974434
 20
63.38703110247723
 10
37.9713129966493
 20
63.58192863847033
 10
38.02825462807601
 20
63.778282730234096
 10
38.080360339110555
 20
63.97597510140581
 10
38.12759874322094
 20
64.17488666949328
 10
38.16994138575891
 20
64.37489761760565
 10
38.20736276109988
 20
64.5758874666267
 10
38.23984032800662
 20
64.77773514778684
 10
38.26735452320725
 20
64.98031907559053
 10
38.2898887731794
 20
65.18351722105476
 10
38.30742950413349
 20
65.38720718521478
 10
38.31996615018909
 20
65.59126627285261
 10
38.32749115973938
 20
65.79557156640413
 10
38.33
 20
66.0
 10
38.32749115973938
 20
66.20442843359587
 10
38.31996615018909
 20
66.40873372714739
 10
38.30742950413349
 20
66.61279281478522
 10
38.2898887731794
 20
66.81648277894524
 10
38.26735452320725
 20
67.01968092440947
 10
38.23984032800662
 20
67.22226485221317
 10
38.20736276109988
 20
67.42411253337332
 10
38.16994138575891
 20
67.62510238239435
 10
38.12759874322094
 20
67.82511333050672
 10
38.080360339110555
 20
68.02402489859419
 10
38.02825462807601
 20
68.2217172697659
 10
37.9713129966493
 20
68.41807136152967
 10
37.90956974434
 20
68.61296889752276
 10
37.84306206297456
 20
68.8062924787572
 10
37.77183001429338
 20
68.99792565433646
 10
37.695916505819014
 20
69.1877529916012
 10
37.615367265010406
 20
69.37566014566157
 10
37.571837673009306
 20
69.4706959335992
 10
38.12947848876877
 20
69.86116023640739
 10
38.13590363811099
 20
69.84799584087254
 10
38.227887801331775
 20
69.64717182604491
 10
38.31491579260158
 20
69.44415089128582
 10
38.39693518951265
 20
69.23905532881489
 10
38.473896586647186
 20
69.03200868052998
 10
38.545753625337326
 20
68.82313566359002
 10
38.61246302158988
 20
68.61256209529016
 10
38.67398459215896
 20
68.40041481727408
 10
38.730281278750894
 20
68.18682161912938
 10
38.781319170346755
 20
67.97191116141184
 10
38.82706752362907
 20
67.75581289814517
 10
38.86749878150047
 20
67.53865699884271
 10
38.90258858968303
 20
67.32057427009826
 10
38.93231581138839
 20
67.10169607679295
 10
38.95666254004977
 20
66.88215426296604
 10
38.97561411010821
 20
66.662081072397
 10
38.989159105846554
 20
66.44160906894676
 10
38.99728936826584
 20
66.22087105670622
 10
39.0
 20
66.0
 10
38.99728936826584
 20
65.77912894329378
 10
38.989159105846554
 20
65.55839093105324
 10
38.97561411010821
 20
65.337918927603
  0
LWPOLYLINE
  5
AB
330
17
100
AcDbEntity
  8
A-WALL
100
AcDbPolyline
 90
54
 70
1
 10
36.2058649026336
 20
59.4817762534368
 10
36.04403059362316
 20
59.331439871805365
 10
35.87855558658399
 20
59.18512038144164
 10
35.70953955747281
 20
59.04290591973537
 10
35.53708431522564
 20
58.904882151360546
 10
35.361293740431904
 20
58.7711322166742
 10
35.182273722760605
 20
58.64173668163575
 10
35.00013209717642
 20
58.51677348927709
 10
34.814978578983876
 20
58.396317912752636
 10
34.62692469773899
 20
58.28044250999755
 10
34.436083730068056
 20
58.169217080021596
 10
34.24257063143398
 20
58.062708620864804
 10
34.04650196689146
 20
57.960981289240365
 10
33.84799584087254
 20
57.86409636188901
 10
33.64717182604491
 20
57.772112198668225
 10
33.44415089128581
 20
57.68508420739842
 10
33.23905532881489
 20
57.60306481048735
 10
33.032008680529984
 20
57.526103413352814
 10
32.82313566359002
 20
57.454246374662674
 10
32.61256209529016
 20
57.38753697841012
 10
32.40041481727408
 20
57.32601540784104
 10
32.186821619129375
 20
57.269718721249106
 10
31.97191116141183
 20
57.218680829653245
 10
31.755812898145155
 20
57.172932476370924
 10
31.53865699884271
 20
57.13250121849953
 10
31.5
 20
57.12628125471738
 10
31.5
 20
57.80676637719315
 10
31.62510238239435
 20
57.83005861424109
 10
31.825113330506724
 20
57.87240125677906
 10
32.02402489859419
 20
57.919639660889445
 10
32.221717269765904
 20
57.97174537192399
 10
32.41807136152967
 20
58.0286870033507
 10
32.61296889752277
 20
58.09043025566
 10
32.80629247875719
 20
58.15693793702544
 10
32.997925654336456
 20
58.22816998570663
 10
33.1877529916012
 20
58.30408349418098
 10
33.37566014566156
 20
58.38463273498959
 10
33.56153392827425
 20
58.46976918828172
 10
33.74526237602287
 20
58.559441571041354
 10
33.92673481776056
 20
58.653595867978204
 10
34.1058419412741
 20
58.752175364064435
 10
34.28247585912953
 20
58.85512067869773
 10
34.45653017365952
 20
58.96236980146994
 10
34.62790004105329
 20
59.0738581295198
 10
34.79648223451065
 20
59.18951850644731
 10
34.96217520642197
 20
59.30928126276623
 10
35.124879149536625
 20
59.43307425787037
 10
35.28449605708317
 20
59.5608229234884
 10
35.44092978180496
 20
59.69245030860098
 10
35.59408609387566
 20
59.827877125793194
 10
35.74387273765977
 20
59.96702179901428
 10
35.851222142311414
 20
60.07176826507179
 10
36.40842660008179
 20
59.68160950341692
 10
36.36396103067893
 20
59.63603896932107
  0
LWPOLYLINE
  5
AC
330
17
100
AcDbEntity
  8
A-WALL
100
AcDbPolyline
 90
54
 70
1
 10
28.244187101854845
 20
57.172932476370924
 10
28.02808883858817
 20
57.218680829653245
 10
27.813178380870625
 20
57.269718721249106
 10
27.599585182725914
 20
57.32601540784104
 10
27.38743790470984
 20
57.38753697841012
 10
27.176864336409977
 20
57.454246374662674
 10
26.96799131947002
 20
57.526103413352814
 10
26.760944671185108
 20
57.60306481048735
 10
26.55584910871419
 20
57.68508420739842
 10
26.352828173955093
 20
57.772112198668225
 10
26.152004159127465
 20
57.86409636188901
 10
25.953498033108538
 20
57.960981289240365
 10
25.757429368566022
 20
58.062708620864804
 10
25.563916269931944
 20
58.169217080021596
 10
25.373075302261004
 20
58.28044250999755
 10
25.185021421016128
 20
58.396317912752636
 10
24.99986790282358
 20
58.51677348927709
 10
24.81772627723939
 20
58.64173668163575
 10
24.6387062595681
 20
58.7711322166742
 10
24.46291568477436
 20
58.90488215136054
 10
24.29046044252719
 20
59.04290591973537
 10
24.12144441341601
 20
59.185120381441635
 10
23.955969406376834
 20
59.33143987180537
 10
23.794135097366397
 20
59.4817762534368
 10
23.63603896932107
 20
59.63603896932107
 10
23.59157339991821
 20
59.68160950341692
 10
24.148777857688582
 20
60.071768265071796
 10
24.256127262340232
 20
59.96702179901428
 10
24.405913906124336
 20
59.827877125793194
 10
24.559070218195043
 20
59.69245030860098
 10
24.715503942916833
 20
59.5608229234884
 10
24.87512085046338
 20
59.433074257870366
 10
25.037824793578032
 20
59.30928126276623
 10
25.203517765489348
 20
59.18951850644731
 10
25.372099958946716
 20
59.0738581295198
 10
25.54346982634048
 20
58.96236980146994
 10
25.717524140870463
 20
58.85512067869773
 10
25.8941580587259
 20
58.752175364064435
 10
26.07326518223944
 20
58.653595867978204
 10
26.254737623977125
 20
58.55944157104136
 10
26.438466071725752
 20
58.46976918828172
 10
26.624339854338437
 20
58.38463273498959
 10
26.812247008398803
 20
58.30408349418098
 10
27.002074345663548
 20
58.22816998570663
 10
27.193707521242807
 20
58.15693793702544
 10
27.387031102477234
 20
58.09043025566
 10
27.58192863847033
 20
58.0286870033507
 10
27.778282730234096
 20
57.97174537192399
 10
27.975975101405812
 20
57.919639660889445
 10
28.174886669493276
 20
57.87240125677906
 10
28.37489761760565
 20
57.83005861424109
 10
28.5
 20
57.80676637719315
 10
28.5
 20
57.12628125471738
 10
28.46134300115729
 20
57.13250121849953
  0
LWPOLYLINE
  5
AD
330
17
100
AcDbEntity
  8
A-WALL
100
AcDbPolyline
 90
76
 70
1
 10
21.772112198668225
 20
62.35282817395509
 10
21.68508420739842
 20
62.55584910871419
 10
21.60306481048735
 20
62.76094467118511
 10
21.526103413352814
 20
62.967991319470016
 10
21.45424637466267
 20
63.17686433640998
 10
21.387536978410118
 20
63.38743790470984
 10
21.32601540784104
 20
63.59958518272592
 10
21.269718721249106
 20
63.813178380870625
 10
21.218680829653245
 20
64.02808883858818
 10
21.172932476370924
 20
64.24418710185485
 10
21.132501218499527
 20
64.46134300115729
 10
21.097411410316973
 20
64.67942572990174
 10
21.067684188611608
 20
64.89830392320705
 10
21.04333745995023
 20
65.11784573703395
 10
21.02438588989179
 20
65.33791892760298
 10
21.010840894153446
 20
65.55839093105324
 10
21.00271063173416
 20
65.77912894329378
 10
21.0
 20
66.0
 10
21.00271063173416
 20
66.22087105670622
 10
21.010840894153446
 20
66.44160906894676
 10
21.02438588989179
 20
66.662081072397
 10
21.04333745995023
 20
66.88215426296604
 10
21.067684188611608
 20
67.10169607679295
 10
21.097411410316973
 20
67.32057427009825
 10
21.132501218499527
 20
67.53865699884271
 10
21.172932476370924
 20
67.75581289814515
 10
21.218680829653245
 20
67.97191116141182
 10
21.269718721249106
 20
68.18682161912938
 10
21.32601540784104
 20
68.40041481727408
 10
21.387536978410118
 20
68.61256209529016
 10
21.454246374662667
 20
68.82313566359002
 10
21.526103413352814
 20
69.03200868052998
 10
21.60306481048735
 20
69.2390553288149
 10
21.68508420739842
 20
69.4441508912858
 10
21.772112198668225
 20
69.64717182604491
 10
21.86409636188901
 20
69.84799584087254
 10
21.87052151123123
 20
69.86116023640739
 10
22.428162326990694
 20
69.47069593359919
 10
22.384632734989587
 20
69.37566014566157
 10
22.30408349418098
 20
69.1877529916012
 10
22.228169985706625
 20
68.99792565433646
 10
22.156937937025436
 20
68.8062924787572
 10
22.090430255660003
 20
68.61296889752276
 10
22.0286870033507
 20
68.41807136152967
 10
21.971745371923987
 20
68.2217172697659
 10
21.919639660889448
 20
68.02402489859419
 10
21.872401256779057
 20
67.82511333050672
 10
21.83005861424109
 20
67.62510238239435
 10
21.79263723890012
 20
67.4241125333733
 10
21.760159671993375
 20
67.22226485221316
 10
21.732645476792747
 20
67.01968092440947
 10
21.7101112268206
 20
66.81648277894524
 10
21.692570495866512
 20
66.61279281478522
 10
21.68003384981091
 20
66.40873372714739
 10
21.67250884026062
 20
66.20442843359587
 10
21.67
 20
66.0
 10
21.67250884026062
 20
65.79557156640413
 10
21.68003384981091
 20
65.59126627285261
 10
21.692570495866512
 20
65.38720718521476
 10
21.7101112268206
 20
65.18351722105476
 10
21.732645476792747
 20
64.98031907559053
 10
21.760159671993375
 20
64.77773514778684
 10
21.79263723890012
 20
64.5758874666267
 10
21.83005861424109
 20
64.37489761760565
 10
21.872401256779057
 20
64.17488666949328
 10
21.919639660889448
 20
63.97597510140581
 10
21.971745371923987
 20
63.778282730234096
 10
22.0286870033507
 20
63.58192863847033
 10
22.090430255660003
 20
63.38703110247724
 10
22.15693793702544
 20
63.19370752124281
 10
22.228169985706625
 20
63.002074345663544
 10
22.304083494180983
 20
62.8122470083988
 10
22.384632734989587
 20
62.62433985433843
 10
22.428162326990698
 20
62.5293040664008
 10
21.870521511231235
 20
62.138839763592614
 10
21.86409636188901
 20
62.152004159127465
  0
LWPOLYLINE
  5
AE
330
17
100
AcDbEntity
  8
A-WALL
100
AcDbPolyline
 90
338
 70
1
 10
22.06810017251644
 20
70.83073866367363
 10
21.95718207509138
 20
70.79105153381762
 10
21.845024838116068
 20
70.75501479136405
 10
21.731748562369077
 20
70.72266702535936
 10
21.617474546923745
 20
70.69404287460159
 10
21.502325159258064
 20
70.66917299054838
 10
21.38642370422052
 20
70.64808400449444
 10
21.269894291992188
 20
70.63079849905428
 10
21.152861705186417
 20
70.61733498398009
 10
21.035451265228517
 20
70.60770787634102
 10
20.917788698158397
 20
70.60192748508508
 10
20.8
 20
70.6
 10
20.682211301841605
 20
70.60192748508508
 10
20.564548734771485
 20
70.60770787634102
 10
20.447138294813584
 20
70.61733498398009
 10
20.330105708007814
 20
70.63079849905428
 10
20.213576295779482
 20
70.64808400449444
 10
20.097674840741938
 20
70.66917299054836
 10
19.982525453076256
 20
70.69404287460159
 10
19.868251437630924
 20
70.72266702535936
 10
19.754975161883937
 20
70.75501479136405
 10
19.64281792490862
 20
70.79105153381762
 10
19.53189982748356
 20
70.83073866367363
 10
19.422339643485678
 20
70.87403368295936
 10
19.314254692704182
 20
70.92089023028376
 10
19.2077607152116
 20
70.97125813048233
 10
19.10297174742641
 20
71.02508344834592
 10
19.0
 20
71.08230854637603
 10
18.898955737658675
 20
71.14287214650432
 10
18.799947161129435
 20
71.20670939571083
 10
18.703080291275914
 20
71.27375193547019
 10
18.608458855568607
 20
71.34392797495155
 10
18.516184177010878
 20
71.41716236789415
 10
18.426355065639754
 20
71.49337669307567
 10
18.339067712717664
 20
71.5724893382878
 10
18.25441558772843
 20
71.65441558772842
 10
18.172489338287793
 20
71.73906771271766
 10
18.093376693075683
 20
71.82635506563975
 10
18.017162367894148
 20
71.91618417701088
 10
17.943927974951556
 20
72.0084588555686
 10
17.873751935470185
 20
72.10308029127592
 10
17.80670939571084
 20
72.19994716112943
 10
17.742872146504318
 20
72.29895573765867
 10
17.68230854637602
 20
72.4
 10
17.625083448345922
 20
72.50297174742641
 10
17.571258130482324
 20
72.6077607152116
 10
17.52089023028377
 20
72.71425469270417
 10
17.47403368295937
 20
72.82233964348568
 10
17.43073866367363
 20
72.93189982748356
 10
17.39105153381762
 20
73.04281792490862
 10
17.35501479136405
 20
73.15497516188393
 10
17.322667025359355
 20
73.26825143763092
 10
17.2940428746016
 20
73.38252545307625
 10
17.26917299054837
 20
73.49767484074194
 10
17.248084004494437
 20
73.61357629577948
 10
17.230798499054284
 20
73.73010570800781
 10
17.21733498398009
 20
73.84713829481358
 10
17.20770787634103
 20
73.96454873477148
 10
17.201927485085086
 20
74.0822113018416
 10
17.200000000000003
 20
74.2
 10
17.201927485085086
 20
74.3177886981584
 10
17.20770787634103
 20
74.43545126522851
 10
17.21733498398009
 20
74.55286170518642
 10
17.23079849905428
 20
74.66989429199218
 10
17.248084004494437
 20
74.78642370422051
 10
17.26917299054837
 20
74.90232515925806
 10
17.2940428746016
 20
75.01747454692374
 10
17.322667025359355
 20
75.13174856236907
 10
17.35501479136405
 20
75.24502483811607
 10
17.39105153381762
 20
75.35718207509137
 10
17.43073866367363
 20
75.46810017251644
 10
17.474033682959366
 20
75.57766035651431
 10
17.52089023028377
 20
75.68574530729582
 10
17.57125813048232
 20
75.79223928478841
 10
17.625083448345922
 20
75.89702825257359
 10
17.68230854637602
 20
76.0
 10
17.742872146504315
 20
76.10104426234132
 10
17.806709395710836
 20
76.20005283887056
 10
17.873751935470185
 20
76.29691970872409
 10
17.943927974951553
 20
76.39154114443139
 10
18.017162367894148
 20
76.48381582298913
 10
18.093376693075683
 20
76.57364493436025
 10
18.17248933828779
 20
76.66093228728234
 10
18.254415587728428
 20
76.74558441227157
 10
18.339067712717664
 20
76.82751066171221
 10
18.426355065639754
 20
76.90662330692432
 10
18.516184177010874
 20
76.98283763210586
 10
18.608458855568607
 20
77.05607202504845
 10
18.703080291275914
 20
77.12624806452982
 10
18.79994716112943
 20
77.19329060428916
 10
18.898955737658675
 20
77.25712785349569
 10
19.0
 20
77.31769145362398
 10
19.10297174742641
 20
77.37491655165408
 10
19.207760715211595
 20
77.42874186951768
 10
19.314254692704175
 20
77.47910976971623
 10
19.422339643485675
 20
77.52596631704063
 10
19.531899827483556
 20
77.56926133632638
 10
19.64281792490862
 20
77.60894846618238
 10
19.754975161883934
 20
77.64498520863594
 10
19.868251437630924
 20
77.67733297464065
 10
19.982525453076256
 20
77.7059571253984
 10
20.097674840741938
 20
77.73082700945163
 10
20.213576295779482
 20
77.75191599550556
 10
20.330105708007814
 20
77.76920150094571
 10
20.44713829481358
 20
77.7826650160199
 10
20.564548734771485
 20
77.79229212365897
 10
20.682211301841605
 20
77.79807251491492
 10
20.8
 20
77.8
 10
20.91778869815839
 20
77.79807251491492
 10
21.035451265228513
 20
77.79229212365897
 10
21.152861705186417
 20
77.7826650160199
 10
21.269894291992188
 20
77.76920150094571
 10
21.38642370422052
 20
77.75191599550556
 10
21.50232515925806
 20
77.73082700945163
 10
21.61747454692374
 20
77.7059571253984
 10
21.731748562369074
 20
77.67733297464065
 10
21.845024838116064
 20
77.64498520863594
 10
21.95718207509138
 20
77.60894846618238
 10
22.068100172516438
 20
77.56926133632638
 10
22.177660356514323
 20
77.52596631704063
 10
22.28574530729582
 20
77.47910976971623
 10
22.392239284788403
 20
77.42874186951768
 10
22.49702825257359
 20
77.37491655165408
 10
22.599999999999998
 20
77.31769145362398
 10
22.701044262341323
 20
77.25712785349569
 10
22.800052838870567
 20
77.19329060428916
 10
22.896919708724088
 20
77.12624806452982
 10
22.991541144431395
 20
77.05607202504845
 10
23.083815822989123
 20
76.98283763210586
 10
23.173644934360247
 20
76.90662330692432
 10
23.260932287282337
 20
76.82751066171221
 10
23.34558441227157
 20
76.74558441227157
 10
23.427510661712205
 20
76.66093228728234
 10
23.50662330692432
 20
76.57364493436025
 10
23.582837632105853
 20
76.48381582298913
 10
23.656072025048445
 20
76.3915411444314
 10
23.726248064529816
 20
76.29691970872409
 10
23.79329060428916
 20
76.20005283887056
 10
23.857127853495683
 20
76.10104426234133
 10
23.91769145362398
 20
76.0
 10
23.97491655165408
 20
75.89702825257359
 10
24.028741869517678
 20
75.79223928478841
 10
24.079109769716233
 20
75.68574530729582
 10
24.125966317040632
 20
75.57766035651433
 10
24.16926133632637
 20
75.46810017251644
 10
24.20894846618238
 20
75.35718207509139
 10
24.244985208635953
 20
75.24502483811607
 10
24.277332974640647
 20
75.13174856236908
 10
24.3059571253984
 20
75.01747454692375
 10
24.33082700945163
 20
74.90232515925806
 10
24.351915995505564
 20
74.78642370422052
 10
24.369201500945717
 20
74.6698942919922
 10
24.38266501601991
 20
74.55286170518642
 10
24.392292123658972
 20
74.43545126522852
 10
24.398072514914915
 20
74.3177886981584
 10
24.4
 20
74.2
 10
24.398072514914915
 20
74.08221130184161
 10
24.392292123658972
 20
73.96454873477148
 10
24.38266501601991
 20
73.84713829481358
 10
24.369201500945717
 20
73.73010570800781
 10
24.351915995505564
 20
73.61357629577948
 10
24.33082700945163
 20
73.49767484074194
 10
24.3059571253984
 20
73.38252545307625
 10
24.277332974640647
 20
73.26825143763092
 10
24.244985208635953
 20
73.15497516188394
 10
24.20894846618238
 20
73.04281792490862
 10
24.17102256136904
 20
72.93682212172803
 10
23.76582664473682
 20
73.2979750039437
 10
23.766515040769846
 20
73.30011750051116
 10
23.79437006149611
 20
73.39766096018218
 10
23.819018635759733
 20
73.49606358459344
 10
23.840434369250016
 20
73.59522000175001
 10
23.858594329463124
 20
73.69502403247677
 10
23.873479070258814
 20
73.79536880411784
 10
23.88507265268381
 20
73.89614686497836
 10
23.89336266203967
 20
73.99725029938655
 10
23.898340221176735
 20
74.09857084325249
 10
23.9
 20
74.2
 10
23.898340221176735
 20
74.3014291567475
 10
23.89336266203967
 20
74.40274970061344
 10
23.88507265268381
 20
74.50385313502164
 10
23.873479070258814
 20
74.60463119588216
 10
23.858594329463124
 20
74.70497596752323
 10
23.840434369250016
 20
74.80477999825
 10
23.819018635759733
 20
74.90393641540656
 10
23.79437006149611
 20
75.00233903981781
 10
23.766515040769846
 20
75.09988249948884
 10
23.735483401434827
 20
75.1964623424398
 10
23.70130837294771
 20
75.29197514855582
 10
23.66402655078499
 20
75.38631864033178
 10
23.623677857255643
 20
75.47939179239363
 10
23.580305498751333
 20
75.5710949396789
 10
23.5339559194799
 20
75.6613298841606
 10
23.48467875173176
 20
75.75
 10
23.432526762732394
 20
75.83701033701614
 10
23.37755579813789
 20
75.92226772236077
 10
23.31982472223401
 20
76.00568086029018
 10
23.25939535490283
 20
76.08716042992704
 10
23.196332405424485
 20
76.1666191809073
 10
23.130703403184828
 20
76.24397202681021
 10
23.06257862536329
 20
76.3191361362709
 10
22.992031021678297
 20
76.39203102167829
 10
22.9191361362709
 20
76.46257862536329
 10
22.843972026810214
 20
76.53070340318483
 10
22.7666191809073
 20
76.59633240542449
 10
22.687160429927033
 20
76.65939535490283
 10
22.605680860290185
 20
76.71982472223401
 10
22.522267722360766
 20
76.77755579813788
 10
22.43701033701614
 20
76.8325267627324
 10
22.349999999999998
 20
76.88467875173176
 10
22.26132988416059
 20
76.9339559194799
 10
22.171094939678902
 20
76.98030549875133
 10
22.079391792393622
 20
77.02367785725565
 10
21.986318640331778
 20
77.06402655078499
 10
21.891975148555822
 20
77.10130837294771
 10
21.796462342439803
 20
77.13548340143483
 10
21.699882499488833
 20
77.16651504076985
 10
21.602339039817814
 20
77.19437006149612
 10
21.503936415406557
 20
77.21901863575974
 10
21.404779998249996
 20
77.24043436925001
 10
21.304975967523227
 20
77.25859432946312
 10
21.204631195882158
 20
77.27347907025882
 10
21.103853135021637
 20
77.28507265268381
 10
21.002749700613442
 20
77.29336266203967
 10
20.901429156747504
 20
77.29834022117673
 10
20.8
 20
77.3
 10
20.698570843252494
 20
77.29834022117673
 10
20.597250299386555
 20
77.29336266203967
 10
20.49614686497836
 20
77.28507265268381
 10
20.395368804117837
 20
77.27347907025882
 10
20.295024032476775
 20
77.25859432946312
 10
20.195220001750002
 20
77.24043436925001
 10
20.09606358459344
 20
77.21901863575974
 10
19.997660960182184
 20
77.19437006149612
 10
19.900117500511165
 20
77.16651504076985
 10
19.8035376575602
 20
77.13548340143483
 10
19.708024851444176
 20
77.10130837294771
 10
19.61368135966822
 20
77.06402655078499
 10
19.520608207606372
 20
77.02367785725565
 10
19.428905060321096
 20
76.98030549875133
 10
19.338670115839406
 20
76.9339559194799
 10
19.25
 20
76.88467875173176
 10
19.162989662983858
 20
76.83252676273239
 10
19.07773227763923
 20
76.77755579813788
 10
18.994319139709816
 20
76.71982472223401
 10
18.91283957007297
 20
76.65939535490283
 10
18.833380819092696
 20
76.59633240542448
 10
18.756027973189788
 20
76.53070340318483
 10
18.6808638637291
 20
76.46257862536329
 10
18.6079689783217
 20
76.39203102167829
 10
18.537421374636708
 20
76.3191361362709
 10
18.46929659681517
 20
76.24397202681021
 10
18.403667594575516
 20
76.1666191809073
 10
18.340604645097173
 20
76.08716042992702
 10
18.28017527776599
 20
76.00568086029018
 10
18.22244420186211
 20
75.92226772236077
 10
18.167473237267604
 20
75.83701033701614
 10
18.11532124826824
 20
75.75
 10
18.0660440805201
 20
75.6613298841606
 10
18.019694501248665
 20
75.5710949396789
 10
17.976322142744355
 20
75.47939179239363
 10
17.935973449215012
 20
75.38631864033178
 10
17.89869162705229
 20
75.29197514855582
 10
17.864516598565174
 20
75.1964623424398
 10
17.833484959230155
 20
75.09988249948883
 10
17.805629938503888
 20
75.00233903981781
 10
17.78098136424027
 20
74.90393641540655
 10
17.759565630749986
 20
74.80477999825
 10
17.741405670536878
 20
74.70497596752323
 10
17.726520929741188
 20
74.60463119588216
 10
17.71492734731619
 20
74.50385313502164
 10
17.70663733796033
 20
74.40274970061344
 10
17.701659778823267
 20
74.3014291567475
 10
17.700000000000003
 20
74.2
 10
17.701659778823267
 20
74.09857084325249
 10
17.70663733796033
 20
73.99725029938655
 10
17.71492734731619
 20
73.89614686497836
 10
17.726520929741188
 20
73.79536880411784
 10
17.741405670536878
 20
73.69502403247677
 10
17.759565630749986
 20
73.59522000175
 10
17.78098136424027
 20
73.49606358459344
 10
17.80562993850389
 20
73.39766096018218
 10
17.833484959230155
 20
73.30011750051116
 10
17.864516598565174
 20
73.20353765756019
 10
17.89869162705229
 20
73.10802485144417
 10
17.935973449215012
 20
73.01368135966823
 10
17.97632214274436
 20
72.92060820760638
 10
18.019694501248665
 20
72.82890506032109
 10
18.0660440805201
 20
72.73867011583941
 10
18.11532124826824
 20
72.65
 10
18.167473237267608
 20
72.56298966298385
 10
18.22244420186211
 20
72.47773227763923
 10
18.28017527776599
 20
72.39431913970981
 10
18.340604645097173
 20
72.31283957007297
 10
18.403667594575516
 20
72.2333808190927
 10
18.46929659681517
 20
72.1560279731898
 10
18.53742137463671
 20
72.08086386372909
 10
18.607968978321704
 20
72.0079689783217
 10
18.6808638637291
 20
71.93742137463671
 10
18.756027973189788
 20
71.86929659681516
 10
18.8333808190927
 20
71.80366759457551
 10
18.91283957007297
 20
71.74060464509716
 10
18.994319139709816
 20
71.680175277766
 10
19.077732277639235
 20
71.62244420186211
 10
19.16298966298386
 20
71.5674732372676
 10
19.25
 20
71.51532124826824
 10
19.33867011583941
 20
71.46604408052009
 10
19.4289050603211
 20
71.41969450124867
 10
19.52060820760638
 20
71.37632214274436
 10
19.613681359668224
 20
71.335973449215
 10
19.70802485144418
 20
71.29869162705229
 10
19.8035376575602
 20
71.26451659856517
 10
19.90011750051117
 20
71.23348495923015
 10
19.997660960182188
 20
71.20562993850389
 10
20.096063584593445
 20
71.18098136424027
 10
20.195220001750002
 20
71.15956563074998
 10
20.295024032476775
 20
71.14140567053687
 10
20.395368804117844
 20
71.12652092974119
 10
20.496146864978364
 20
71.11492734731618
 10
20.59725029938656
 20
71.10663733796034
 10
20.698570843252497
 20
71.10165977882326
 10
20.8
 20
71.1
 10
20.901429156747508
 20
71.10165977882326
 10
21.002749700613442
 20
71.10663733796034
 10
21.103853135021637
 20
71.11492734731618
 10
21.20463119588216
 20
71.12652092974119
 10
21.304975967523227
 20
71.14140567053687
 10
21.40477999825
 20
71.15956563074998
 10
21.503936415406557
 20
71.18098136424027
 10
21.602339039817814
 20
71.20562993850389
 10
21.699882499488837
 20
71.23348495923015
 10
21.796462342439803
 20
71.26451659856517
 10
21.891975148555826
 20
71.29869162705229
 10
21.98631864033178
 20
71.335973449215
 10
22.03555279143434
 20
71.35731723772982
 10
22.33390603088271
 20
71.0913936982215
 10
22.183473494105936
 20
70.87655377067459
 10
22.177660356514323
 20
70.87403368295936
  0
LWPOLYLINE
  5
AF
330
17
100
AcDbEntity
  8
A-WALL
100
AcDbPolyline
 90
124
 70
1
 10
24.462915684774355
 20
73.09511784863946
 10
24.638706259568103
 20
73.22886778332581
 10
24.817726277239395
 20
73.35826331836425
 10
24.99986790282358
 20
73.48322651072291
 10
25.185021421016124
 20
73.60368208724736
 10
25.373075302261004
 20
73.71955749000244
 10
25.563916269931944
 20
73.8307829199784
 10
25.75742936856602
 20
73.93729137913519
 10
25.953498033108538
 20
74.03901871075963
 10
26.152004159127458
 20
74.13590363811099
 10
26.352828173955086
 20
74.22788780133178
 10
26.555849108714188
 20
74.31491579260158
 10
26.760944671185108
 20
74.39693518951265
 10
26.96799131947002
 20
74.47389658664719
 10
27.176864336409977
 20
74.54575362533733
 10
27.387437904709838
 20
74.61246302158987
 10
27.599585182725914
 20
74.67398459215896
 10
27.813178380870625
 20
74.7302812787509
 10
28.028088838588168
 20
74.78131917034676
 10
28.24418710185484
 20
74.82706752362907
 10
28.461343001157285
 20
74.86749878150047
 10
28.679425729901737
 20
74.90258858968303
 10
28.898303923207056
 20
74.93231581138839
 10
29.117845737033957
 20
74.95666254004978
 10
29.337918927602995
 20
74.97561411010821
 10
29.55839093105324
 20
74.98915910584655
 10
29.779128943293788
 20
74.99728936826584
 10
30.0
 20
75.0
 10
30.22087105670621
 20
74.99728936826584
 10
30.441609068946757
 20
74.98915910584655
 10
30.662081072397005
 20
74.97561411010821
 10
30.88215426296604
 20
74.95666254004978
 10
31.10169607679294
 20
74.93231581138839
 10
31.32057427009826
 20
74.90258858968303
 10
31.53865699884271
 20
74.86749878150047
 10
31.755812898145155
 20
74.82706752362907
 10
31.97191116141183
 20
74.78131917034676
 10
32.186821619129375
 20
74.7302812787509
 10
32.40041481727408
 20
74.67398459215896
 10
32.61256209529016
 20
74.61246302158987
 10
32.82313566359002
 20
74.54575362533733
 10
33.03200868052998
 20
74.47389658664719
 10
33.239055328814885
 20
74.39693518951265
 10
33.44415089128581
 20
74.31491579260158
 10
33.64717182604491
 20
74.22788780133178
 10
33.84799584087254
 20
74.13590363811099
 10
34.04650196689146
 20
74.03901871075963
 10
34.24257063143398
 20
73.93729137913519
 10
34.436083730068056
 20
73.8307829199784
 10
34.62692469773899
 20
73.71955749000244
 10
34.81497857898387
 20
73.60368208724736
 10
35.00013209717642
 20
73.48322651072291
 10
35.182273722760605
 20
73.35826331836425
 10
35.3612937404319
 20
73.22886778332581
 10
35.53708431522564
 20
73.09511784863946
 10
35.70953955747281
 20
72.95709408026462
 10
35.87855558658399
 20
72.81487961855836
 10
36.04403059362316
 20
72.66856012819463
 10
36.2058649026336
 20
72.51822374656321
 10
36.36396103067892
 20
72.36396103067892
 10
36.40842660008179
 20
72.31839049658308
 10
35.85122214231142
 20
71.9282317349282
 10
35.743872737659764
 20
72.03297820098572
 10
35.59408609387566
 20
72.1721228742068
 10
35.44092978180496
 20
72.30754969139902
 10
35.28449605708317
 20
72.4391770765116
 10
35.124879149536625
 20
72.56692574212963
 10
34.96217520642197
 20
72.69071873723378
 10
34.79648223451065
 20
72.8104814935527
 10
34.62790004105328
 20
72.92614187048021
 10
34.456530173659516
 20
73.03763019853005
 10
34.28247585912953
 20
73.14487932130227
 10
34.1058419412741
 20
73.24782463593557
 10
33.92673481776056
 20
73.3464041320218
 10
33.74526237602287
 20
73.44055842895864
 10
33.56153392827425
 20
73.53023081171828
 10
33.37566014566157
 20
73.6153672650104
 10
33.1877529916012
 20
73.69591650581901
 10
32.99792565433645
 20
73.77183001429337
 10
32.806292478757186
 20
73.84306206297457
 10
32.61296889752276
 20
73.90956974433999
 10
32.41807136152967
 20
73.9713129966493
 10
32.221717269765904
 20
74.02825462807601
 10
32.024024898594185
 20
74.08036033911056
 10
31.825113330506724
 20
74.12759874322094
 10
31.62510238239435
 20
74.1699413857589
 10
31.42411253337331
 20
74.20736276109989
 10
31.222264852213165
 20
74.23984032800662
 10
31.019680924409467
 20
74.26735452320726
 10
30.816482778945236
 20
74.2898887731794
 10
30.612792814785227
 20
74.3074295041335
 10
30.40873372714739
 20
74.31996615018909
 10
30.204428433595858
 20
74.32749115973938
 10
30.0
 20
74.33
 10
29.79557156640414
 20
74.32749115973938
 10
29.591266272852607
 20
74.31996615018909
 10
29.38720718521477
 20
74.3074295041335
 10
29.18351722105476
 20
74.2898887731794
 10
28.980319075590533
 20
74.26735452320726
 10
28.77773514778683
 20
74.23984032800662
 10
28.575887466626686
 20
74.20736276109989
 10
28.374897617605647
 20
74.1699413857589
 10
28.174886669493272
 20
74.12759874322094
 10
27.97597510140581
 20
74.08036033911056
 10
27.778282730234096
 20
74.02825462807601
 10
27.581928638470327
 20
73.9713129966493
 10
27.387031102477234
 20
73.90956974433999
 10
27.193707521242807
 20
73.84306206297457
 10
27.00207434566355
 20
73.77183001429337
 10
26.8122470083988
 20
73.69591650581901
 10
26.62433985433843
 20
73.6153672650104
 10
26.43846607172575
 20
73.53023081171828
 10
26.254737623977125
 20
73.44055842895864
 10
26.07326518223944
 20
73.3464041320218
 10
25.8941580587259
 20
73.24782463593556
 10
25.717524140870463
 20
73.14487932130227
 10
25.54346982634048
 20
73.03763019853005
 10
25.372099958946713
 20
72.9261418704802
 10
25.203517765489348
 20
72.81048149355269
 10
25.037824793578032
 20
72.69071873723377
 10
24.875120850463375
 20
72.56692574212963
 10
24.722802393548903
 20
72.44501835826337
 10
24.217322997944194
 20
72.89555434130236
 10
24.290460442527188
 20
72.95709408026462
  0
HATCH
  5
B0
330
17
100
AcDbEntity
  8
A-WALL-PATT
 62
8
100
AcDbHatch
 10
0.0
 20
0.0
 30
0.0
210
0.0
220
0.0
230
1.0
  2
SOLID
 70
1
 71
0
 91
1
 92
3
 72
0
 73
1
 93
77
 10
38.95666254004977
 20
65.11784573703396
 10
38.93231581138839
 20
64.89830392320705
 10
38.90258858968303
 20
64.67942572990174
 10
38.86749878150047
 20
64.46134300115729
 10
38.827067523629076
 20
64.24418710185485
 10
38.781319170346755
 20
64.02808883858818
 10
38.730281278750894
 20
63.813178380870625
 10
38.67398459215896
 20
63.59958518272592
 10
38.61246302158988
 20
63.38743790470984
 10
38.545753625337326
 20
63.17686433640998
 10
38.473896586647186
 20
62.967991319470016
 10
38.39693518951265
 20
62.76094467118511
 10
38.31491579260158
 20
62.55584910871419
 10
38.227887801331775
 20
62.35282817395509
 10
38.13590363811099
 20
62.15200415912746
 10
38.12947848876876
 20
62.13883976359261
 10
37.5718376730093
 20
62.5293040664008
 10
37.61536726501041
 20
62.62433985433844
 10
37.69591650581902
 20
62.8122470083988
 10
37.77183001429338
 20
63.00207434566355
 10
37.84306206297456
 20
63.19370752124281
 10
37.90956974434
 20
63.38703110247723
 10
37.9713129966493
 20
63.58192863847033
 10
38.02825462807601
 20
63.778282730234096
 10
38.080360339110555
 20
63.97597510140581
 10
38.12759874322094
 20
64.17488666949328
 10
38.16994138575891
 20
64.37489761760565
 10
38.20736276109988
 20
64.5758874666267
 10
38.23984032800662
 20
64.77773514778684
 10
38.26735452320725
 20
64.98031907559053
 10
38.2898887731794
 20
65.18351722105476
 10
38.30742950413349
 20
65.38720718521478
 10
38.31996615018909
 20
65.59126627285261
 10
38.32749115973938
 20
65.79557156640413
 10
38.33
 20
66.0
 10
38.32749115973938
 20
66.20442843359587
 10
38.31996615018909
 20
66.40873372714739
 10
38.30742950413349
 20
66.61279281478522
 10
38.2898887731794
 20
66.81648277894524
 10
38.26735452320725
 20
67.01968092440947
 10
38.23984032800662
 20
67.22226485221317
 10
38.20736276109988
 20
67.42411253337332
 10
38.16994138575891
 20
67.62510238239435
 10
38.12759874322094
 20
67.82511333050672
 10
38.080360339110555
 20
68.02402489859419
 10
38.02825462807601
 20
68.2217172697659
 10
37.9713129966493
 20
68.41807136152967
 10
37.90956974434
 20
68.61296889752276
 10
37.84306206297456
 20
68.8062924787572
 10
37.77183001429338
 20
68.99792565433646
 10
37.695916505819014
 20
69.1877529916012
 10
37.615367265010406
 20
69.37566014566157
 10
37.571837673009306
 20
69.4706959335992
 10
38.12947848876877
 20
69.86116023640739
 10
38.13590363811099
 20
69.84799584087254
 10
38.227887801331775
 20
69.64717182604491
 10
38.31491579260158
 20
69.44415089128582
 10
38.39693518951265
 20
69.23905532881489
 10
38.473896586647186
 20
69.03200868052998
 10
38.545753625337326
 20
68.82313566359002
 10
38.61246302158988
 20
68.61256209529016
 10
38.67398459215896
 20
68.40041481727408
 10
38.730281278750894
 20
68.18682161912938
 10
38.781319170346755
 20
67.97191116141184
 10
38.82706752362907
 20
67.75581289814517
 10
38.86749878150047
 20
67.53865699884271
 10
38.90258858968303
 20
67.32057427009826
 10
38.93231581138839
 20
67.10169607679295
 10
38.95666254004977
 20
66.88215426296604
 10
38.97561411010821
 20
66.662081072397
 10
38.989159105846554
 20
66.44160906894676
 10
38.99728936826584
 20
66.22087105670622
 10
39.0
 20
66.0
 10
38.99728936826584
 20
65.77912894329378
 10
38.989159105846554
 20
65.55839093105324
 10
38.97561411010821
 20
65.337918927603
 10
38.95666254004977
 20
65.11784573703396
 97
0
 75
0
 76
1
 98
0
  0
HATCH
  5
B1
330
17
100
AcDbEntity
  8
A-WALL-PATT
 62
8
100
AcDbHatch
 10
0.0
 20
0.0
 30
0.0
210
0.0
220
0.0
230
1.0
  2
SOLID
 70
1
 71
0
 91
1
 92
3
 72
0
 73
1
 93
55
 10
36.2058649026336
 20
59.4817762534368
 10
36.04403059362316
 20
59.331439871805365
 10
35.87855558658399
 20
59.18512038144164
 10
35.70953955747281
 20
59.04290591973537
 10
35.53708431522564
 20
58.904882151360546
 10
35.361293740431904
 20
58.7711322166742
 10
35.182273722760605
 20
58.64173668163575
 10
35.00013209717642
 20
58.51677348927709
 10
34.814978578983876
 20
58.396317912752636
 10
34.62692469773899
 20
58.28044250999755
 10
34.436083730068056
 20
58.169217080021596
 10
34.24257063143398
 20
58.062708620864804
 10
34.04650196689146
 20
57.960981289240365
 10
33.84799584087254
 20
57.86409636188901
 10
33.64717182604491
 20
57.772112198668225
 10
33.44415089128581
 20
57.68508420739842
 10
33.23905532881489
 20
57.60306481048735
 10
33.032008680529984
 20
57.526103413352814
 10
32.82313566359002
 20
57.454246374662674
 10
32.61256209529016
 20
57.38753697841012
 10
32.40041481727408
 20
57.32601540784104
 10
32.186821619129375
 20
57.269718721249106
 10
31.97191116141183
 20
57.218680829653245
 10
31.755812898145155
 20
57.172932476370924
 10
31.53865699884271
 20
57.13250121849953
 10
31.5
 20
57.12628125471738
 10
31.5
 20
57.80676637719315
 10
31.62510238239435
 20
57.83005861424109
 10
31.825113330506724
 20
57.87240125677906
 10
32.02402489859419
 20
57.919639660889445
 10
32.221717269765904
 20
57.97174537192399
 10
32.41807136152967
 20
58.0286870033507
 10
32.61296889752277
 20
58.09043025566
 10
32.80629247875719
 20
58.15693793702544
 10
32.997925654336456
 20
58.22816998570663
 10
33.1877529916012
 20
58.30408349418098
 10
33.37566014566156
 20
58.38463273498959
 10
33.56153392827425
 20
58.46976918828172
 10
33.74526237602287
 20
58.559441571041354
 10
33.92673481776056
 20
58.653595867978204
 10
34.1058419412741
 20
58.752175364064435
 10
34.28247585912953
 20
58.85512067869773
 10
34.45653017365952
 20
58.96236980146994
 10
34.62790004105329
 20
59.0738581295198
 10
34.79648223451065
 20
59.18951850644731
 10
34.96217520642197
 20
59.30928126276623
 10
35.124879149536625
 20
59.43307425787037
 10
35.28449605708317
 20
59.5608229234884
 10
35.44092978180496
 20
59.69245030860098
 10
35.59408609387566
 20
59.827877125793194
 10
35.74387273765977
 20
59.96702179901428
 10
35.851222142311414
 20
60.07176826507179
 10
36.40842660008179
 20
59.68160950341692
 10
36.36396103067893
 20
59.63603896932107
 10
36.2058649026336
 20
59.4817762534368
 97
0
 75
0
 76
1
 98
0
  0
HATCH
  5
B2
330
17
100
AcDbEntity
  8
A-WALL-PATT
 62
8
100
AcDbHatch
 10
0.0
 20
0.0
 30
0.0
210
0.0
220
0.0
230
1.0
  2
SOLID
 70
1
 71
0
 91
1
 92
3
 72
0
 73
1
 93
55
 10
28.244187101854845
 20
57.172932476370924
 10
28.02808883858817
 20
57.218680829653245
 10
27.813178380870625
 20
57.269718721249106
 10
27.599585182725914
 20
57.32601540784104
 10
27.38743790470984
 20
57.38753697841012
 10
27.176864336409977
 20
57.454246374662674
 10
26.96799131947002
 20
57.526103413352814
 10
26.760944671185108
 20
57.60306481048735
 10
26.55584910871419
 20
57.68508420739842
 10
26.352828173955093
 20
57.772112198668225
 10
26.152004159127465
 20
57.86409636188901
 10
25.953498033108538
 20
57.960981289240365
 10
25.757429368566022
 20
58.062708620864804
 10
25.563916269931944
 20
58.169217080021596
 10
25.373075302261004
 20
58.28044250999755
 10
25.185021421016128
 20
58.396317912752636
 10
24.99986790282358
 20
58.51677348927709
 10
24.81772627723939
 20
58.64173668163575
 10
24.6387062595681
 20
58.7711322166742
 10
24.46291568477436
 20
58.90488215136054
 10
24.29046044252719
 20
59.04290591973537
 10
24.12144441341601
 20
59.185120381441635
 10
23.955969406376834
 20
59.33143987180537
 10
23.794135097366397
 20
59.4817762534368
 10
23.63603896932107
 20
59.63603896932107
 10
23.59157339991821
 20
59.68160950341692
 10
24.148777857688582
 20
60.071768265071796
 10
24.256127262340232
 20
59.96702179901428
 10
24.405913906124336
 20
59.827877125793194
 10
24.559070218195043
 20
59.69245030860098
 10
24.715503942916833
 20
59.5608229234884
 10
24.87512085046338
 20
59.433074257870366
 10
25.037824793578032
 20
59.30928126276623
 10
25.203517765489348
 20
59.18951850644731
 10
25.372099958946716
 20
59.0738581295198
 10
25.54346982634048
 20
58.96236980146994
 10
25.717524140870463
 20
58.85512067869773
 10
25.8941580587259
 20
58.752175364064435
 10
26.07326518223944
 20
58.653595867978204
 10
26.254737623977125
 20
58.55944157104136
 10
26.438466071725752
 20
58.46976918828172
 10
26.624339854338437
 20
58.38463273498959
 10
26.812247008398803
 20
58.30408349418098
 10
27.002074345663548
 20
58.22816998570663
 10
27.193707521242807
 20
58.15693793702544
 10
27.387031102477234
 20
58.09043025566
 10
27.58192863847033
 20
58.0286870033507
 10
27.778282730234096
 20
57.97174537192399
 10
27.975975101405812
 20
57.919639660889445
 10
28.174886669493276
 20
57.87240125677906
 10
28.37489761760565
 20
57.83005861424109
 10
28.5
 20
57.80676637719315
 10
28.5
 20
57.12628125471738
 10
28.46134300115729
 20
57.13250121849953
 10
28.244187101854845
 20
57.172932476370924
 97
0
 75
0
 76
1
 98
0
  0
HATCH
  5
B3
330
17
100
AcDbEntity
  8
A-WALL-PATT
 62
8
100
AcDbHatch
 10
0.0
 20
0.0
 30
0.0
210
0.0
220
0.0
230
1.0
  2
SOLID
 70
1
 71
0
 91
1
 92
3
 72
0
 73
1
 93
77
 10
21.772112198668225
 20
62.35282817395509
 10
21.68508420739842
 20
62.55584910871419
 10
21.60306481048735
 20
62.76094467118511
 10
21.526103413352814
 20
62.967991319470016
 10
21.45424637466267
 20
63.17686433640998
 10
21.387536978410118
 20
63.38743790470984
 10
21.32601540784104
 20
63.59958518272592
 10
21.269718721249106
 20
63.813178380870625
 10
21.218680829653245
 20
64.02808883858818
 10
21.172932476370924
 20
64.24418710185485
 10
21.132501218499527
 20
64.46134300115729
 10
21.097411410316973
 20
64.67942572990174
 10
21.067684188611608
 20
64.89830392320705
 10
21.04333745995023
 20
65.11784573703395
 10
21.02438588989179
 20
65.33791892760298
 10
21.010840894153446
 20
65.55839093105324
 10
21.00271063173416
 20
65.77912894329378
 10
21.0
 20
66.0
 10
21.00271063173416
 20
66.22087105670622
 10
21.010840894153446
 20
66.44160906894676
 10
21.02438588989179
 20
66.662081072397
 10
21.04333745995023
 20
66.88215426296604
 10
21.067684188611608
 20
67.10169607679295
 10
21.097411410316973
 20
67.32057427009825
 10
21.132501218499527
 20
67.53865699884271
 10
21.172932476370924
 20
67.75581289814515
 10
21.218680829653245
 20
67.97191116141182
 10
21.269718721249106
 20
68.18682161912938
 10
21.32601540784104
 20
68.40041481727408
 10
21.387536978410118
 20
68.61256209529016
 10
21.454246374662667
 20
68.82313566359002
 10
21.526103413352814
 20
69.03200868052998
 10
21.60306481048735
 20
69.2390553288149
 10
21.68508420739842
 20
69.4441508912858
 10
21.772112198668225
 20
69.64717182604491
 10
21.86409636188901
 20
69.84799584087254
 10
21.87052151123123
 20
69.86116023640739
 10
22.428162326990694
 20
69.47069593359919
 10
22.384632734989587
 20
69.37566014566157
 10
22.30408349418098
 20
69.1877529916012
 10
22.228169985706625
 20
68.99792565433646
 10
22.156937937025436
 20
68.8062924787572
 10
22.090430255660003
 20
68.61296889752276
 10
22.0286870033507
 20
68.41807136152967
 10
21.971745371923987
 20
68.2217172697659
 10
21.919639660889448
 20
68.02402489859419
 10
21.872401256779057
 20
67.82511333050672
 10
21.83005861424109
 20
67.62510238239435
 10
21.79263723890012
 20
67.4241125333733
 10
21.760159671993375
 20
67.22226485221316
 10
21.732645476792747
 20
67.01968092440947
 10
21.7101112268206
 20
66.81648277894524
 10
21.692570495866512
 20
66.61279281478522
 10
21.68003384981091
 20
66.40873372714739
 10
21.67250884026062
 20
66.20442843359587
 10
21.67
 20
66.0
 10
21.67250884026062
 20
65.79557156640413
 10
21.68003384981091
 20
65.59126627285261
 10
21.692570495866512
 20
65.38720718521476
 10
21.7101112268206
 20
65.18351722105476
 10
21.732645476792747
 20
64.98031907559053
 10
21.760159671993375
 20
64.77773514778684
 10
21.79263723890012
 20
64.5758874666267
 10
21.83005861424109
 20
64.37489761760565
 10
21.872401256779057
 20
64.17488666949328
 10
21.919639660889448
 20
63.97597510140581
 10
21.971745371923987
 20
63.778282730234096
 10
22.0286870033507
 20
63.58192863847033
 10
22.090430255660003
 20
63.38703110247724
 10
22.15693793702544
 20
63.19370752124281
 10
22.228169985706625
 20
63.002074345663544
 10
22.304083494180983
 20
62.8122470083988
 10
22.384632734989587
 20
62.62433985433843
 10
22.428162326990698
 20
62.5293040664008
 10
21.870521511231235
 20
62.138839763592614
 10
21.86409636188901
 20
62.152004159127465
 10
21.772112198668225
 20
62.35282817395509
 97
0
 75
0
 76
1
 98
0
  0
HATCH
  5
B4
330
17
100
AcDbEntity
  8
A-WALL-PATT
 62
8
100
AcDbHatch
 10
0.0
 20
0.0
 30
0.0
210
0.0
220
0.0
230
1.0
  2
SOLID
 70
1
 71
0
 91
1
 92
3
 72
0
 73
1
 93
339
 10
22.06810017251644
 20
70.83073866367363
 10
21.95718207509138
 20
70.79105153381762
 10
21.845024838116068
 20
70.75501479136405
 10
21.731748562369077
 20
70.72266702535936
 10
21.617474546923745
 20
70.69404287460159
 10
21.502325159258064
 20
70.66917299054838
 10
21.38642370422052
 20
70.64808400449444
 10
21.269894291992188
 20
70.63079849905428
 10
21.152861705186417
 20
70.61733498398009
 10
21.035451265228517
 20
70.60770787634102
 10
20.917788698158397
 20
70.60192748508508
 10
20.8
 20
70.6
 10
20.682211301841605
 20
70.60192748508508
 10
20.564548734771485
 20
70.60770787634102
 10
20.447138294813584
 20
70.61733498398009
 10
20.330105708007814
 20
70.63079849905428
 10
20.213576295779482
 20
70.64808400449444
 10
20.097674840741938
 20
70.66917299054836
 10
19.982525453076256
 20
70.69404287460159
 10
19.868251437630924
 20
70.72266702535936
 10
19.754975161883937
 20
70.75501479136405
 10
19.64281792490862
 20
70.79105153381762
 10
19.53189982748356
 20
70.83073866367363
 10
19.422339643485678
 20
70.87403368295936
 10
19.314254692704182
 20
70.92089023028376
 10
19.2077607152116
 20
70.97125813048233
 10
19.10297174742641
 20
71.02508344834592
 10
19.0
 20
71.08230854637603
 10
18.898955737658675
 20
71.14287214650432
 10
18.799947161129435
 20
71.20670939571083
 10
18.703080291275914
 20
71.27375193547019
 10
18.608458855568607
 20
71.34392797495155
 10
18.516184177010878
 20
71.41716236789415
 10
18.426355065639754
 20
71.49337669307567
 10
18.339067712717664
 20
71.5724893382878
 10
18.25441558772843
 20
71.65441558772842
 10
18.172489338287793
 20
71.73906771271766
 10
18.093376693075683
 20
71.82635506563975
 10
18.017162367894148
 20
71.91618417701088
 10
17.943927974951556
 20
72.0084588555686
 10
17.873751935470185
 20
72.10308029127592
 10
17.80670939571084
 20
72.19994716112943
 10
17.742872146504318
 20
72.29895573765867
 10
17.68230854637602
 20
72.4
 10
17.625083448345922
 20
72.50297174742641
 10
17.571258130482324
 20
72.6077607152116
 10
17.52089023028377
 20
72.71425469270417
 10
17.47403368295937
 20
72.82233964348568
 10
17.43073866367363
 20
72.93189982748356
 10
17.39105153381762
 20
73.04281792490862
 10
17.35501479136405
 20
73.15497516188393
 10
17.322667025359355
 20
73.26825143763092
 10
17.2940428746016
 20
73.38252545307625
 10
17.26917299054837
 20
73.49767484074194
 10
17.248084004494437
 20
73.61357629577948
 10
17.230798499054284
 20
73.73010570800781
 10
17.21733498398009
 20
73.84713829481358
 10
17.20770787634103
 20
73.96454873477148
 10
17.201927485085086
 20
74.0822113018416
 10
17.200000000000003
 20
74.2
 10
17.201927485085086
 20
74.3177886981584
 10
17.20770787634103
 20
74.43545126522851
 10
17.21733498398009
 20
74.55286170518642
 10
17.23079849905428
 20
74.66989429199218
 10
17.248084004494437
 20
74.78642370422051
 10
17.26917299054837
 20
74.90232515925806
 10
17.2940428746016
 20
75.01747454692374
 10
17.322667025359355
 20
75.13174856236907
 10
17.35501479136405
 20
75.24502483811607
 10
17.39105153381762
 20
75.35718207509137
 10
17.43073866367363
 20
75.46810017251644
 10
17.474033682959366
 20
75.57766035651431
 10
17.52089023028377
 20
75.68574530729582
 10
17.57125813048232
 20
75.79223928478841
 10
17.625083448345922
 20
75.89702825257359
 10
17.68230854637602
 20
76.0
 10
17.742872146504315
 20
76.10104426234132
 10
17.806709395710836
 20
76.20005283887056
 10
17.873751935470185
 20
76.29691970872409
 10
17.943927974951553
 20
76.39154114443139
 10
18.017162367894148
 20
76.48381582298913
 10
18.093376693075683
 20
76.57364493436025
 10
18.17248933828779
 20
76.66093228728234
 10
18.254415587728428
 20
76.74558441227157
 10
18.339067712717664
 20
76.82751066171221
 10
18.426355065639754
 20
76.90662330692432
 10
18.516184177010874
 20
76.98283763210586
 10
18.608458855568607
 20
77.05607202504845
 10
18.703080291275914
 20
77.12624806452982
 10
18.79994716112943
 20
77.19329060428916
 10
18.898955737658675
 20
77.25712785349569
 10
19.0
 20
77.31769145362398
 10
19.10297174742641
 20
77.37491655165408
 10
19.207760715211595
 20
77.42874186951768
 10
19.314254692704175
 20
77.47910976971623
 10
19.422339643485675
 20
77.52596631704063
 10
19.531899827483556
 20
77.56926133632638
 10
19.64281792490862
 20
77.60894846618238
 10
19.754975161883934
 20
77.64498520863594
 10
19.868251437630924
 20
77.67733297464065
 10
19.982525453076256
 20
77.7059571253984
 10
20.097674840741938
 20
77.73082700945163
 10
20.213576295779482
 20
77.75191599550556
 10
20.330105708007814
 20
77.76920150094571
 10
20.44713829481358
 20
77.7826650160199
 10
20.564548734771485
 20
77.79229212365897
 10
20.682211301841605
 20
77.79807251491492
 10
20.8
 20
77.8
 10
20.91778869815839
 20
77.79807251491492
 10
21.035451265228513
 20
77.79229212365897
 10
21.152861705186417
 20
77.7826650160199
 10
21.269894291992188
 20
77.76920150094571
 10
21.38642370422052
 20
77.75191599550556
 10
21.50232515925806
 20
77.73082700945163
 10
21.61747454692374
 20
77.7059571253984
 10
21.731748562369074
 20
77.67733297464065
 10
21.845024838116064
 20
77.64498520863594
 10
21.95718207509138
 20
77.60894846618238
 10
22.068100172516438
 20
77.56926133632638
 10
22.177660356514323
 20
77.52596631704063
 10
22.28574530729582
 20
77.47910976971623
 10
22.392239284788403
 20
77.42874186951768
 10
22.49702825257359
 20
77.37491655165408
 10
22.599999999999998
 20
77.31769145362398
 10
22.701044262341323
 20
77.25712785349569
 10
22.800052838870567
 20
77.19329060428916
 10
22.896919708724088
 20
77.12624806452982
 10
22.991541144431395
 20
77.05607202504845
 10
23.083815822989123
 20
76.98283763210586
 10
23.173644934360247
 20
76.90662330692432
 10
23.260932287282337
 20
76.82751066171221
 10
23.34558441227157
 20
76.74558441227157
 10
23.427510661712205
 20
76.66093228728234
 10
23.50662330692432
 20
76.57364493436025
 10
23.582837632105853
 20
76.48381582298913
 10
23.656072025048445
 20
76.3915411444314
 10
23.726248064529816
 20
76.29691970872409
 10
23.79329060428916
 20
76.20005283887056
 10
23.857127853495683
 20
76.10104426234133
 10
23.91769145362398
 20
76.0
 10
23.97491655165408
 20
75.89702825257359
 10
24.028741869517678
 20
75.79223928478841
 10
24.079109769716233
 20
75.68574530729582
 10
24.125966317040632
 20
75.57766035651433
 10
24.16926133632637
 20
75.46810017251644
 10
24.20894846618238
 20
75.35718207509139
 10
24.244985208635953
 20
75.24502483811607
 10
24.277332974640647
 20
75.13174856236908
 10
24.3059571253984
 20
75.01747454692375
 10
24.33082700945163
 20
74.90232515925806
 10
24.351915995505564
 20
74.78642370422052
 10
24.369201500945717
 20
74.6698942919922
 10
24.38266501601991
 20
74.55286170518642
 10
24.392292123658972
 20
74.43545126522852
 10
24.398072514914915
 20
74.3177886981584
 10
24.4
 20
74.2
 10
24.398072514914915
 20
74.08221130184161
 10
24.392292123658972
 20
73.96454873477148
 10
24.38266501601991
 20
73.84713829481358
 10
24.369201500945717
 20
73.73010570800781
 10
24.351915995505564
 20
73.61357629577948
 10
24.33082700945163
 20
73.49767484074194
 10
24.3059571253984
 20
73.38252545307625
 10
24.277332974640647
 20
73.26825143763092
 10
24.244985208635953
 20
73.15497516188394
 10
24.20894846618238
 20
73.04281792490862
 10
24.17102256136904
 20
72.93682212172803
 10
23.76582664473682
 20
73.2979750039437
 10
23.766515040769846
 20
73.30011750051116
 10
23.79437006149611
 20
73.39766096018218
 10
23.819018635759733
 20
73.49606358459344
 10
23.840434369250016
 20
73.59522000175001
 10
23.858594329463124
 20
73.69502403247677
 10
23.873479070258814
 20
73.79536880411784
 10
23.88507265268381
 20
73.89614686497836
 10
23.89336266203967
 20
73.99725029938655
 10
23.898340221176735
 20
74.09857084325249
 10
23.9
 20
74.2
 10
23.898340221176735
 20
74.3014291567475
 10
23.89336266203967
 20
74.40274970061344
 10
23.88507265268381
 20
74.50385313502164
 10
23.873479070258814
 20
74.60463119588216
 10
23.858594329463124
 20
74.70497596752323
 10
23.840434369250016
 20
74.80477999825
 10
23.819018635759733
 20
74.90393641540656
 10
23.79437006149611
 20
75.00233903981781
 10
23.766515040769846
 20
75.09988249948884
 10
23.735483401434827
 20
75.1964623424398
 10
23.70130837294771
 20
75.29197514855582
 10
23.66402655078499
 20
75.38631864033178
 10
23.623677857255643
 20
75.47939179239363
 10
23.580305498751333
 20
75.5710949396789
 10
23.5339559194799
 20
75.6613298841606
 10
23.48467875173176
 20
75.75
 10
23.432526762732394
 20
75.83701033701614
 10
23.37755579813789
 20
75.92226772236077
 10
23.31982472223401
 20
76.00568086029018
 10
23.25939535490283
 20
76.08716042992704
 10
23.196332405424485
 20
76.1666191809073
 10
23.130703403184828
 20
76.24397202681021
 10
23.06257862536329
 20
76.3191361362709
 10
22.992031021678297
 20
76.39203102167829
 10
22.9191361362709
 20
76.46257862536329
 10
22.843972026810214
 20
76.53070340318483
 10
22.7666191809073
 20
76.59633240542449
 10
22.687160429927033
 20
76.65939535490283
 10
22.605680860290185
 20
76.71982472223401
 10
22.522267722360766
 20
76.77755579813788
 10
22.43701033701614
 20
76.8325267627324
 10
22.349999999999998
 20
76.88467875173176
 10
22.26132988416059
 20
76.9339559194799
 10
22.171094939678902
 20
76.98030549875133
 10
22.079391792393622
 20
77.02367785725565
 10
21.986318640331778
 20
77.06402655078499
 10
21.891975148555822
 20
77.10130837294771
 10
21.796462342439803
 20
77.13548340143483
 10
21.699882499488833
 20
77.16651504076985
 10
21.602339039817814
 20
77.19437006149612
 10
21.503936415406557
 20
77.21901863575974
 10
21.404779998249996
 20
77.24043436925001
 10
21.304975967523227
 20
77.25859432946312
 10
21.204631195882158
 20
77.27347907025882
 10
21.103853135021637
 20
77.28507265268381
 10
21.002749700613442
 20
77.29336266203967
 10
20.901429156747504
 20
77.29834022117673
 10
20.8
 20
77.3
 10
20.698570843252494
 20
77.29834022117673
 10
20.597250299386555
 20
77.29336266203967
 10
20.49614686497836
 20
77.28507265268381
 10
20.395368804117837
 20
77.27347907025882
 10
20.295024032476775
 20
77.25859432946312
 10
20.195220001750002
 20
77.24043436925001
 10
20.09606358459344
 20
77.21901863575974
 10
19.997660960182184
 20
77.19437006149612
 10
19.900117500511165
 20
77.16651504076985
 10
19.8035376575602
 20
77.13548340143483
 10
19.708024851444176
 20
77.10130837294771
 10
19.61368135966822
 20
77.06402655078499
 10
19.520608207606372
 20
77.02367785725565
 10
19.428905060321096
 20
76.98030549875133
 10
19.338670115839406
 20
76.9339559194799
 10
19.25
 20
76.88467875173176
 10
19.162989662983858
 20
76.83252676273239
 10
19.07773227763923
 20
76.77755579813788
 10
18.994319139709816
 20
76.71982472223401
 10
18.91283957007297
 20
76.65939535490283
 10
18.833380819092696
 20
76.59633240542448
 10
18.756027973189788
 20
76.53070340318483
 10
18.6808638637291
 20
76.46257862536329
 10
18.6079689783217
 20
76.39203102167829
 10
18.537421374636708
 20
76.3191361362709
 10
18.46929659681517
 20
76.24397202681021
 10
18.403667594575516
 20
76.1666191809073
 10
18.340604645097173
 20
76.08716042992702
 10
18.28017527776599
 20
76.00568086029018
 10
18.22244420186211
 20
75.92226772236077
 10
18.167473237267604
 20
75.83701033701614
 10
18.11532124826824
 20
75.75
 10
18.0660440805201
 20
75.6613298841606
 10
18.019694501248665
 20
75.5710949396789
 10
17.976322142744355
 20
75.47939179239363
 10
17.935973449215012
 20
75.38631864033178
 10
17.89869162705229
 20
75.29197514855582
 10
17.864516598565174
 20
75.1964623424398
 10
17.833484959230155
 20
75.09988249948883
 10
17.805629938503888
 20
75.00233903981781
 10
17.78098136424027
 20
74.90393641540655
 10
17.759565630749986
 20
74.80477999825
 10
17.741405670536878
 20
74.70497596752323
 10
17.726520929741188
 20
74.60463119588216
 10
17.71492734731619
 20
74.50385313502164
 10
17.70663733796033
 20
74.40274970061344
 10
17.701659778823267
 20
74.3014291567475
 10
17.700000000000003
 20
74.2
 10
17.701659778823267
 20
74.09857084325249
 10
17.70663733796033
 20
73.99725029938655
 10
17.71492734731619
 20
73.89614686497836
 10
17.726520929741188
 20
73.79536880411784
 10
17.741405670536878
 20
73.69502403247677
 10
17.759565630749986
 20
73.59522000175
 10
17.78098136424027
 20
73.49606358459344
 10
17.80562993850389
 20
73.39766096018218
 10
17.833484959230155
 20
73.30011750051116
 10
17.864516598565174
 20
73.20353765756019
 10
17.89869162705229
 20
73.10802485144417
 10
17.935973449215012
 20
73.01368135966823
 10
17.97632214274436
 20
72.92060820760638
 10
18.019694501248665
 20
72.82890506032109
 10
18.0660440805201
 20
72.73867011583941
 10
18.11532124826824
 20
72.65
 10
18.167473237267608
 20
72.56298966298385
 10
18.22244420186211
 20
72.47773227763923
 10
18.28017527776599
 20
72.39431913970981
 10
18.340604645097173
 20
72.31283957007297
 10
18.403667594575516
 20
72.2333808190927
 10
18.46929659681517
 20
72.1560279731898
 10
18.53742137463671
 20
72.08086386372909
 10
18.607968978321704
 20
72.0079689783217
 10
18.6808638637291
 20
71.93742137463671
 10
18.756027973189788
 20
71.86929659681516
 10
18.8333808190927
 20
71.80366759457551
 10
18.91283957007297
 20
71.74060464509716
 10
18.994319139709816
 20
71.680175277766
 10
19.077732277639235
 20
71.62244420186211
 10
19.16298966298386
 20
71.5674732372676
 10
19.25
 20
71.51532124826824
 10
19.33867011583941
 20
71.46604408052009
 10
19.4289050603211
 20
71.41969450124867
 10
19.52060820760638
 20
71.37632214274436
 10
19.613681359668224
 20
71.335973449215
 10
19.70802485144418
 20
71.29869162705229
 10
19.8035376575602
 20
71.26451659856517
 10
19.90011750051117
 20
71.23348495923015
 10
19.997660960182188
 20
71.20562993850389
 10
20.096063584593445
 20
71.18098136424027
 10
20.195220001750002
 20
71.15956563074998
 10
20.295024032476775
 20
71.14140567053687
 10
20.395368804117844
 20
71.12652092974119
 10
20.496146864978364
 20
71.11492734731618
 10
20.59725029938656
 20
71.10663733796034
 10
20.698570843252497
 20
71.10165977882326
 10
20.8
 20
71.1
 10
20.901429156747508
 20
71.10165977882326
 10
21.002749700613442
 20
71.10663733796034
 10
21.103853135021637
 20
71.11492734731618
 10
21.20463119588216
 20
71.12652092974119
 10
21.304975967523227
 20
71.14140567053687
 10
21.40477999825
 20
71.15956563074998
 10
21.503936415406557
 20
71.18098136424027
 10
21.602339039817814
 20
71.20562993850389
 10
21.699882499488837
 20
71.23348495923015
 10
21.796462342439803
 20
71.26451659856517
 10
21.891975148555826
 20
71.29869162705229
 10
21.98631864033178
 20
71.335973449215
 10
22.03555279143434
 20
71.35731723772982
 10
22.33390603088271
 20
71.0913936982215
 10
22.183473494105936
 20
70.87655377067459
 10
22.177660356514323
 20
70.87403368295936
 10
22.06810017251644
 20
70.83073866367363
 97
0
 75
0
 76
1
 98
0
  0
HATCH
  5
B5
330
17
100
AcDbEntity
  8
A-WALL-PATT
 62
8
100
AcDbHatch
 10
0.0
 20
0.0
 30
0.0
210
0.0
220
0.0
230
1.0
  2
SOLID
 70
1
 71
0
 91
1
 92
3
 72
0
 73
1
 93
125
 10
24.462915684774355
 20
73.09511784863946
 10
24.638706259568103
 20
73.22886778332581
 10
24.817726277239395
 20
73.35826331836425
 10
24.99986790282358
 20
73.48322651072291
 10
25.185021421016124
 20
73.60368208724736
 10
25.373075302261004
 20
73.71955749000244
 10
25.563916269931944
 20
73.8307829199784
 10
25.75742936856602
 20
73.93729137913519
 10
25.953498033108538
 20
74.03901871075963
 10
26.152004159127458
 20
74.13590363811099
 10
26.352828173955086
 20
74.22788780133178
 10
26.555849108714188
 20
74.31491579260158
 10
26.760944671185108
 20
74.39693518951265
 10
26.96799131947002
 20
74.47389658664719
 10
27.176864336409977
 20
74.54575362533733
 10
27.387437904709838
 20
74.61246302158987
 10
27.599585182725914
 20
74.67398459215896
 10
27.813178380870625
 20
74.7302812787509
 10
28.028088838588168
 20
74.78131917034676
 10
28.24418710185484
 20
74.82706752362907
 10
28.461343001157285
 20
74.86749878150047
 10
28.679425729901737
 20
74.90258858968303
 10
28.898303923207056
 20
74.93231581138839
 10
29.117845737033957
 20
74.95666254004978
 10
29.337918927602995
 20
74.97561411010821
 10
29.55839093105324
 20
74.98915910584655
 10
29.779128943293788
 20
74.99728936826584
 10
30.0
 20
75.0
 10
30.22087105670621
 20
74.99728936826584
 10
30.441609068946757
 20
74.98915910584655
 10
30.662081072397005
 20
74.97561411010821
 10
30.88215426296604
 20
74.95666254004978
 10
31.10169607679294
 20
74.93231581138839
 10
31.32057427009826
 20
74.90258858968303
 10
31.53865699884271
 20
74.86749878150047
 10
31.755812898145155
 20
74.82706752362907
 10
31.97191116141183
 20
74.78131917034676
 10
32.186821619129375
 20
74.7302812787509
 10
32.40041481727408
 20
74.67398459215896
 10
32.61256209529016
 20
74.61246302158987
 10
32.82313566359002
 20
74.54575362533733
 10
33.03200868052998
 20
74.47389658664719
 10
33.239055328814885
 20
74.39693518951265
 10
33.44415089128581
 20
74.31491579260158
 10
33.64717182604491
 20
74.22788780133178
 10
33.84799584087254
 20
74.13590363811099
 10
34.04650196689146
 20
74.03901871075963
 10
34.24257063143398
 20
73.93729137913519
 10
34.436083730068056
 20
73.8307829199784
 10
34.62692469773899
 20
73.71955749000244
 10
34.81497857898387
 20
73.60368208724736
 10
35.00013209717642
 20
73.48322651072291
 10
35.182273722760605
 20
73.35826331836425
 10
35.3612937404319
 20
73.22886778332581
 10
35.53708431522564
 20
73.09511784863946
 10
35.70953955747281
 20
72.95709408026462
 10
35.87855558658399
 20
72.81487961855836
 10
36.04403059362316
 20
72.66856012819463
 10
36.2058649026336
 20
72.51822374656321
 10
36.36396103067892
 20
72.36396103067892
 10
36.40842660008179
 20
72.31839049658308
 10
35.85122214231142
 20
71.9282317349282
 10
35.743872737659764
 20
72.03297820098572
 10
35.59408609387566
 20
72.1721228742068
 10
35.44092978180496
 20
72.30754969139902
 10
35.28449605708317
 20
72.4391770765116
 10
35.124879149536625
 20
72.56692574212963
 10
34.96217520642197
 20
72.69071873723378
 10
34.79648223451065
 20
72.8104814935527
 10
34.62790004105328
 20
72.92614187048021
 10
34.456530173659516
 20
73.03763019853005
 10
34.28247585912953
 20
73.14487932130227
 10
34.1058419412741
 20
73.24782463593557
 10
33.92673481776056
 20
73.3464041320218
 10
33.74526237602287
 20
73.44055842895864
 10
33.56153392827425
 20
73.53023081171828
 10
33.37566014566157
 20
73.6153672650104
 10
33.1877529916012
 20
73.69591650581901
 10
32.99792565433645
 20
73.77183001429337
 10
32.806292478757186
 20
73.84306206297457
 10
32.61296889752276
 20
73.90956974433999
 10
32.41807136152967
 20
73.9713129966493
 10
32.221717269765904
 20
74.02825462807601
 10
32.024024898594185
 20
74.08036033911056
 10
31.825113330506724
 20
74.12759874322094
 10
31.62510238239435
 20
74.1699413857589
 10
31.42411253337331
 20
74.20736276109989
 10
31.222264852213165
 20
74.23984032800662
 10
31.019680924409467
 20
74.26735452320726
 10
30.816482778945236
 20
74.2898887731794
 10
30.612792814785227
 20
74.3074295041335
 10
30.40873372714739
 20
74.31996615018909
 10
30.204428433595858
 20
74.32749115973938
 10
30.0
 20
74.33
 10
29.79557156640414
 20
74.32749115973938
 10
29.591266272852607
 20
74.31996615018909
 10
29.38720718521477
 20
74.3074295041335
 10
29.18351722105476
 20
74.2898887731794
 10
28.980319075590533
 20
74.26735452320726
 10
28.77773514778683
 20
74.23984032800662
 10
28.575887466626686
 20
74.20736276109989
 10
28.374897617605647
 20
74.1699413857589
 10
28.174886669493272
 20
74.12759874322094
 10
27.97597510140581
 20
74.08036033911056
 10
27.778282730234096
 20
74.02825462807601
 10
27.581928638470327
 20
73.9713129966493
 10
27.387031102477234
 20
73.90956974433999
 10
27.193707521242807
 20
73.84306206297457
 10
27.00207434566355
 20
73.77183001429337
 10
26.8122470083988
 20
73.69591650581901
 10
26.62433985433843
 20
73.6153672650104
 10
26.43846607172575
 20
73.53023081171828
 10
26.254737623977125
 20
73.44055842895864
 10
26.07326518223944
 20
73.3464041320218
 10
25.8941580587259
 20
73.24782463593556
 10
25.717524140870463
 20
73.14487932130227
 10
25.54346982634048
 20
73.03763019853005
 10
25.372099958946713
 20
72.9261418704802
 10
25.203517765489348
 20
72.81048149355269
 10
25.037824793578032
 20
72.69071873723377
 10
24.875120850463375
 20
72.56692574212963
 10
24.722802393548903
 20
72.44501835826337
 10
24.217322997944194
 20
72.89555434130236
 10
24.290460442527188
 20
72.95709408026462
 10
24.462915684774355
 20
73.09511784863946
 97
0
 75
0
 76
1
 98
0
  0
LINE
  5
B6
330
17
100
AcDbEntity
  8
A-DOOR
100
AcDbLine
 10
28.5
 20
57.0
 30
0.0
 11
28.5
 21
60.0
 31
0.0
  0
ARC
  5
B7
330
17
100
AcDbEntity
  8
A-DOOR
100
AcDbCircle
 10
28.5
 20
57.0
 30
0.0
 40
3.0
100
AcDbArc
 50
0.0
 51
90.0
  0
LINE
  5
B8
330
17
100
AcDbEntity
  8
A-GLAZ
100
AcDbLine
 10
38.12296667919277
 20
69.85660061825489
 30
0.0
 11
36.40223737013963
 21
72.31405675112185
 31
0.0
  0
LINE
  5
B9
330
17
100
AcDbEntity
  8
A-GLAZ
100
AcDbLine
 10
37.95831711829068
 20
69.74131175454832
 30
0.0
 11
36.237587809237546
 21
72.1987678874153
 31
0.0
  0
LINE
  5
BA
330
17
100
AcDbEntity
  8
A-GLAZ
100
AcDbLine
 10
37.793667557388595
 20
69.62602289084177
 30
0.0
 11
36.072938248335454
 21
72.08347902370875
 31
0.0
  0
LINE
  5
BB
330
17
100
AcDbEntity
  8
A-GLAZ
100
AcDbLine
 10
23.59776262986037
 20
72.31405675112185
 30
0.0
 11
21.87703332080723
 21
69.85660061825489
 31
0.0
  0
LINE
  5
BC
330
17
100
AcDbEntity
  8
A-GLAZ
100
AcDbLine
 10
23.762412190762454
 20
72.1987678874153
 30
0.0
 11
22.041682881709317
 21
69.74131175454832
 31
0.0
  0
LINE
  5
BD
330
17
100
AcDbEntity
  8
A-GLAZ
100
AcDbLine
 10
23.927061751664542
 20
72.08347902370875
 30
0.0
 11
22.206332442611405
 21
69.62602289084177
 31
0.0
  0
LINE
  5
BE
330
17
100
AcDbEntity
  8
A-GLAZ
100
AcDbLine
 10
21.87703332080723
 20
62.14339938174511
 30
0.0
 11
23.59776262986037
 21
59.68594324887814
 31
0.0
  0
LINE
  5
BF
330
17
100
AcDbEntity
  8
A-GLAZ
100
AcDbLine
 10
22.041682881709317
 20
62.25868824545167
 30
0.0
 11
23.762412190762454
 21
59.8012321125847
 31
0.0
  0
LINE
  5
C0
330
17
100
AcDbEntity
  8
A-GLAZ
100
AcDbLine
 10
22.206332442611405
 20
62.37397710915823
 30
0.0
 11
23.927061751664542
 21
59.91652097629126
 31
0.0
  0
LINE
  5
C1
330
17
100
AcDbEntity
  8
A-GLAZ
100
AcDbLine
 10
36.40223737013963
 20
59.68594324887813
 30
0.0
 11
38.12296667919277
 21
62.14339938174511
 31
0.0
  0
LINE
  5
C2
330
17
100
AcDbEntity
  8
A-GLAZ
100
AcDbLine
 10
36.23758780923754
 20
59.80123211258469
 30
0.0
 11
37.95831711829068
 21
62.25868824545167
 31
0.0
  0
LINE
  5
C3
330
17
100
AcDbEntity
  8
A-GLAZ
100
AcDbLine
 10
36.072938248335454
 20
59.91652097629125
 30
0.0
 11
37.793667557388595
 21
62.37397710915823
 31
0.0
  0
CIRCLE
  5
C4
330
17
100
AcDbEntity
  8
A-ELEV-HIDN
  6
DASHED
100
AcDbCircle
 10
30.0
 20
66.0
 30
0.0
 40
10.0
  0
TEXT
  5
C5
330
17
100
AcDbEntity
  8
A-FLOR-ANNO
100
AcDbText
 10
30.0
 20
74.6
 30
0.0
 40
0.7
  1
LOFT ABOVE R 10.0
 72
1
 11
30.0
 21
74.6
 31
0.0
100
AcDbText
 73
2
  0
CIRCLE
  5
C6
330
17
100
AcDbEntity
  8
A-ROOF
  6
DASHED
100
AcDbCircle
 10
30.0
 20
66.0
 30
0.0
 40
15.0
  0
TEXT
  5
C7
330
17
100
AcDbEntity
  8
A-FLOR-ANNO
100
AcDbText
 10
30.0
 20
80.3
 30
0.0
 40
0.7
  1
CAP ABOVE R 15.0
 72
1
 11
30.0
 21
80.3
 31
0.0
100
AcDbText
 73
2
  0
CIRCLE
  5
C8
330
17
100
AcDbEntity
  8
A-ROOF
  6
DASHED
100
AcDbCircle
 10
20.8
 20
74.2
 30
0.0
 40
6.2
  0
CIRCLE
  5
C9
330
17
100
AcDbEntity
  8
A-FURN
100
AcDbCircle
 10
35.5
 20
69.5
 30
0.0
 40
2.2
  0
LINE
  5
CA
330
17
100
AcDbEntity
  8
A-FURN
100
AcDbLine
 10
35.5
 20
69.5
 30
0.0
 11
35.5
 21
71.7
 31
0.0
  0
TEXT
  5
CB
330
17
100
AcDbEntity
  8
A-FLOR-ANNO
100
AcDbText
 10
35.5
 20
66.9
 30
0.0
 40
0.55
  1
SPIRAL STAIR UP
 72
1
 11
35.5
 21
66.9
 31
0.0
100
AcDbText
 73
2
  0
LWPOLYLINE
  5
CC
330
17
100
AcDbEntity
  8
A-FURN
100
AcDbPolyline
 90
3
 70
0
 10
22.2
 20
69.5
 10
22.2
 20
71.6
 10
27.5
 20
73.3
  0
TEXT
  5
CD
330
17
100
AcDbEntity
  8
A-FLOR-ANNO
100
AcDbText
 10
23.8
 20
68.6
 30
0.0
 40
0.55
  1
KITCHEN COUNTER
 72
1
 11
23.8
 21
68.6
 31
0.0
100
AcDbText
 73
2
  0
LWPOLYLINE
  5
CE
330
17
100
AcDbEntity
  8
A-FURN
100
AcDbPolyline
 90
4
 70
1
 10
27.0
 20
60.5
 10
33.0
 20
60.5
 10
33.0
 20
62.7
 10
27.0
 20
62.7
  0
TEXT
  5
CF
330
17
100
AcDbEntity
  8
A-FLOR-ANNO
100
AcDbText
 10
30.0
 20
61.5
 30
0.0
 40
0.55
  1
SOFA
 72
1
 11
30.0
 21
61.5
 31
0.0
100
AcDbText
 73
2
  0
LWPOLYLINE
  5
D0
330
17
100
AcDbEntity
  8
A-FURN
100
AcDbPolyline
 90
4
 70
1
 10
18.4
 20
75.2
 10
20.0
 20
75.2
 10
20.0
 20
77.2
 10
18.4
 20
77.2
  0
TEXT
  5
D1
330
17
100
AcDbEntity
  8
A-FLOR-ANNO
100
AcDbText
 10
19.2
 20
74.6
 30
0.0
 40
0.5
  1
WC
 72
1
 11
19.2
 21
74.6
 31
0.0
100
AcDbText
 73
2
  0
LWPOLYLINE
  5
D2
330
17
100
AcDbEntity
  8
A-FURN
100
AcDbPolyline
 90
4
 70
1
 10
19.6
 20
71.4
 10
22.4
 20
71.4
 10
22.4
 20
74.2
 10
19.6
 20
74.2
  0
TEXT
  5
D3
330
17
100
AcDbEntity
  8
A-FLOR-ANNO
100
AcDbText
 10
21.0
 20
72.8
 30
0.0
 40
0.5
  1
SHOWER
 72
1
 11
21.0
 21
72.8
 31
0.0
100
AcDbText
 73
2
  0
LWPOLYLINE
  5
D4
330
17
100
AcDbEntity
  8
A-DECK
100
AcDbPolyline
 90
21
 70
1
 10
23.5
 20
58.0
 10
23.598749605420647
 20
56.87128684516495
 10
23.891997964891594
 20
55.77686906838316
 10
24.37083487540115
 20
54.75
 10
25.02071111972664
 20
53.821880537037494
 10
25.821880537037494
 20
53.02071111972664
 10
26.749999999999996
 20
52.37083487540115
 10
27.776869068383153
 20
51.891997964891594
 10
28.871286845164953
 20
51.59874960542065
 10
30.0
 20
51.5
 10
31.128713154835044
 20
51.59874960542065
 10
32.22313093161685
 20
51.891997964891594
 10
33.25
 20
52.37083487540115
 10
34.178119462962506
 20
53.02071111972664
 10
34.97928888027336
 20
53.821880537037494
 10
35.62916512459885
 20
54.75
 10
36.108002035108406
 20
55.77686906838316
 10
36.40125039457935
 20
56.87128684516495
 10
36.5
 20
58.0
 10
36.5
 20
57.5
 10
23.5
 20
57.5
  0
LWPOLYLINE
  5
D5
330
17
100
AcDbEntity
  8
A-DECK
100
AcDbPolyline
 90
4
 70
1
 10
27.5
 20
47.5
 10
32.5
 20
47.5
 10
32.5
 20
51.0
 10
27.5
 20
51.0
  0
LINE
  5
D6
330
17
100
AcDbEntity
  8
A-DECK
100
AcDbLine
 10
27.5
 20
49.25
 30
0.0
 11
32.5
 21
49.25
 31
0.0
  0
TEXT
  5
D7
330
17
100
AcDbEntity
  8
A-FLOR-ANNO
100
AcDbText
 10
30.0
 20
53.8
 30
0.0
 40
0.7
  1
DECK  55 SF
 72
1
 11
30.0
 21
53.8
 31
0.0
100
AcDbText
 73
2
  0
TEXT
  5
D8
330
17
100
AcDbEntity
  8
A-FLOR-ANNO
100
AcDbText
 10
30.0
 20
48.6
 30
0.0
 40
0.6
  1
DN
 72
1
 11
30.0
 21
48.6
 31
0.0
100
AcDbText
 73
2
  0
TEXT
  5
D9
330
17
100
AcDbEntity
  8
A-FLOR-ANNO
100
AcDbText
 10
30.0
 20
65.2
 30
0.0
 40
0.9
  1
LIVING / KITCHEN
 72
1
 11
30.0
 21
65.2
 31
0.0
100
AcDbText
 73
2
  0
TEXT
  5
DA
330
17
100
AcDbEntity
  8
A-FLOR-ANNO
100
AcDbText
 10
30.0
 20
63.9
 30
0.0
 40
0.7
  1
254 SF  ·  FF 0.5
 72
1
 11
30.0
 21
63.9
 31
0.0
100
AcDbText
 73
2
  0
TEXT
  5
DB
330
17
100
AcDbEntity
  8
A-FLOR-ANNO
100
AcDbText
 10
20.8
 20
69.6
 30
0.0
 40
0.6
  1
BATH POD 38 SF
 72
1
 11
20.8
 21
69.6
 31
0.0
100
AcDbText
 73
2
  0
DIMENSION
  5
DC
330
17
100
AcDbEntity
  8
A-ANNO-DIMS
100
AcDbDimension
280
0
  2
*D1
  3
EZDXF
 10
21.0
 20
44.0
 30
0.0
 11
30.0
 21
44.65
 31
0.0
 70
32
 71
5
  1
<>
100
AcDbAlignedDimension
 13
21.0
 23
66.0
 33
0.0
 14
39.0
 24
66.0
 34
0.0
 50
0.0
100
AcDbRotatedDimension
1001
ACAD
1000
DSTYLE
1002
{
1070
140
1040
0.9
1070
41
1040
0.45
1070
44
1040
0.3
1070
42
1040
0.35
1070
147
1040
0.2
1070
271
1070
1
1070
3
1000
<>'
1070
178
1070
1
1070
176
1070
1
1070
177
1070
1
1002
}
  0
DIMENSION
  5
EB
330
17
100
AcDbEntity
  8
A-ANNO-DIMS
100
AcDbDimension
280
0
  2
*D2
  3
EZDXF
 10
54.0
 20
57.0
 30
0.0
 11
53.35
 21
66.0
 31
0.0
 70
32
 71
5
  1
<>
100
AcDbAlignedDimension
 13
30.0
 23
57.0
 33
0.0
 14
30.0
 24
75.0
 34
0.0
 50
90.0
100
AcDbRotatedDimension
1001
ACAD
1000
DSTYLE
1002
{
1070
140
1040
0.9
1070
41
1040
0.45
1070
44
1040
0.3
1070
42
1040
0.35
1070
147
1040
0.2
1070
271
1070
1
1070
3
1000
<>'
1070
178
1070
1
1070
176
1070
1
1070
177
1070
1
1002
}
  0
DIMENSION
  5
FA
330
17
100
AcDbEntity
  8
A-ANNO-DIMS
100
AcDbDimension
280
0
  2
*D3
  3
EZDXF
 10
15.0
 20
40.5
 30
0.0
 11
30.0
 21
41.15
 31
0.0
 70
32
 71
5
  1
<>
100
AcDbAlignedDimension
 13
15.0
 23
66.0
 33
0.0
 14
45.0
 24
66.0
 34
0.0
 50
0.0
100
AcDbRotatedDimension
1001
ACAD
1000
DSTYLE
1002
{
1070
140
1040
0.9
1070
41
1040
0.45
1070
44
1040
0.3
1070
42
1040
0.35
1070
147
1040
0.2
1070
271
1070
1
1070
3
1000
<>'
1070
178
1070
1
1070
176
1070
1
1070
177
1070
1
1002
}
  0
DIMENSION
  5
109
330
17
100
AcDbEntity
  8
A-ANNO-DIMS
100
AcDbDimension
280
0
  2
*D4
  3
EZDXF
 10
28.5
 20
53.5
 30
0.0
 11
30.0
 21
54.45
 31
0.0
 70
32
 71
5
  1
<>
100
AcDbAlignedDimension
 13
28.5
 23
57.0
 33
0.0
 14
31.5
 24
57.0
 34
0.0
 50
0.0
100
AcDbRotatedDimension
1001
ACAD
1000
DSTYLE
1002
{
1070
140
1040
0.9
1070
41
1040
0.45
1070
44
1040
0.3
1070
42
1040
0.35
1070
147
1040
0.2
1070
271
1070
1
1070
3
1000
<>'
1070
178
1070
1
1070
176
1070
1
1070
177
1070
1
1002
}
  0
DIMENSION
  5
118
330
17
100
AcDbEntity
  8
A-ANNO-DIMS
100
AcDbDimension
280
0
  2
*D5
  3
EZDXF
 10
17.200000000000003
 20
82.2
 30
0.0
 11
20.8
 21
82.85000000000001
 31
0.0
 70
32
 71
5
  1
<>
100
AcDbAlignedDimension
 13
17.200000000000003
 23
74.2
 33
0.0
 14
24.4
 24
74.2
 34
0.0
 50
0.0
100
AcDbRotatedDimension
1001
ACAD
1000
DSTYLE
1002
{
1070
140
1040
0.9
1070
41
1040
0.45
1070
44
1040
0.3
1070
42
1040
0.35
1070
147
1040
0.2
1070
271
1070
1
1070
3
1000
<>'
1070
178
1070
1
1070
176
1070
1
1070
177
1070
1
1002
}
  0
TEXT
  5
127
330
17
100
AcDbEntity
  8
G-TITLE
100
AcDbText
 10
13.0
 20
42.0
 30
0.0
 40
1.4
  1
FLOOR PLAN
 11
13.0
 21
42.0
 31
0.0
100
AcDbText
  0
LINE
  5
128
330
17
100
AcDbEntity
  8
G-TITLE
100
AcDbLine
 10
13.0
 20
41.5
 30
0.0
 11
53.0
 21
41.5
 31
0.0
  0
TEXT
  5
129
330
17
100
AcDbEntity
  8
G-TITLE
100
AcDbText
 10
50.0
 20
84.0
 30
0.0
 40
1.2
  1
N
 72
1
 11
50.0
 21
84.0
 31
0.0
100
AcDbText
 73
2
  0
LINE
  5
12A
330
17
100
AcDbEntity
  8
G-TITLE
100
AcDbLine
 10
50.0
 20
80.0
 30
0.0
 11
50.0
 21
83.0
 31
0.0
  0
LINE
  5
12B
330
17
100
AcDbEntity
  8
A-GRND
100
AcDbLine
 10
58.0
 20
62.0
 30
0.0
 11
106.0
 21
62.0
 31
0.0
  0
LINE
  5
12C
330
17
100
AcDbEntity
  8
A-GRND
100
AcDbLine
 10
58.0
 20
62.0
 30
0.0
 11
57.0
 21
61.2
 31
0.0
  0
LINE
  5
12D
330
17
100
AcDbEntity
  8
A-GRND
100
AcDbLine
 10
60.0
 20
62.0
 30
0.0
 11
59.0
 21
61.2
 31
0.0
  0
LINE
  5
12E
330
17
100
AcDbEntity
  8
A-GRND
100
AcDbLine
 10
62.0
 20
62.0
 30
0.0
 11
61.0
 21
61.2
 31
0.0
  0
LINE
  5
12F
330
17
100
AcDbEntity
  8
A-GRND
100
AcDbLine
 10
64.0
 20
62.0
 30
0.0
 11
63.0
 21
61.2
 31
0.0
  0
LINE
  5
130
330
17
100
AcDbEntity
  8
A-GRND
100
AcDbLine
 10
66.0
 20
62.0
 30
0.0
 11
65.0
 21
61.2
 31
0.0
  0
LINE
  5
131
330
17
100
AcDbEntity
  8
A-GRND
100
AcDbLine
 10
68.0
 20
62.0
 30
0.0
 11
67.0
 21
61.2
 31
0.0
  0
LINE
  5
132
330
17
100
AcDbEntity
  8
A-GRND
100
AcDbLine
 10
70.0
 20
62.0
 30
0.0
 11
69.0
 21
61.2
 31
0.0
  0
LINE
  5
133
330
17
100
AcDbEntity
  8
A-GRND
100
AcDbLine
 10
72.0
 20
62.0
 30
0.0
 11
71.0
 21
61.2
 31
0.0
  0
LINE
  5
134
330
17
100
AcDbEntity
  8
A-GRND
100
AcDbLine
 10
74.0
 20
62.0
 30
0.0
 11
73.0
 21
61.2
 31
0.0
  0
LINE
  5
135
330
17
100
AcDbEntity
  8
A-GRND
100
AcDbLine
 10
76.0
 20
62.0
 30
0.0
 11
75.0
 21
61.2
 31
0.0
  0
LINE
  5
136
330
17
100
AcDbEntity
  8
A-GRND
100
AcDbLine
 10
78.0
 20
62.0
 30
0.0
 11
77.0
 21
61.2
 31
0.0
  0
LINE
  5
137
330
17
100
AcDbEntity
  8
A-GRND
100
AcDbLine
 10
80.0
 20
62.0
 30
0.0
 11
79.0
 21
61.2
 31
0.0
  0
LINE
  5
138
330
17
100
AcDbEntity
  8
A-GRND
100
AcDbLine
 10
82.0
 20
62.0
 30
0.0
 11
81.0
 21
61.2
 31
0.0
  0
LINE
  5
139
330
17
100
AcDbEntity
  8
A-GRND
100
AcDbLine
 10
84.0
 20
62.0
 30
0.0
 11
83.0
 21
61.2
 31
0.0
  0
LINE
  5
13A
330
17
100
AcDbEntity
  8
A-GRND
100
AcDbLine
 10
86.0
 20
62.0
 30
0.0
 11
85.0
 21
61.2
 31
0.0
  0
LINE
  5
13B
330
17
100
AcDbEntity
  8
A-GRND
100
AcDbLine
 10
88.0
 20
62.0
 30
0.0
 11
87.0
 21
61.2
 31
0.0
  0
LINE
  5
13C
330
17
100
AcDbEntity
  8
A-GRND
100
AcDbLine
 10
90.0
 20
62.0
 30
0.0
 11
89.0
 21
61.2
 31
0.0
  0
LINE
  5
13D
330
17
100
AcDbEntity
  8
A-GRND
100
AcDbLine
 10
92.0
 20
62.0
 30
0.0
 11
91.0
 21
61.2
 31
0.0
  0
LINE
  5
13E
330
17
100
AcDbEntity
  8
A-GRND
100
AcDbLine
 10
94.0
 20
62.0
 30
0.0
 11
93.0
 21
61.2
 31
0.0
  0
LINE
  5
13F
330
17
100
AcDbEntity
  8
A-GRND
100
AcDbLine
 10
96.0
 20
62.0
 30
0.0
 11
95.0
 21
61.2
 31
0.0
  0
LINE
  5
140
330
17
100
AcDbEntity
  8
A-GRND
100
AcDbLine
 10
98.0
 20
62.0
 30
0.0
 11
97.0
 21
61.2
 31
0.0
  0
LINE
  5
141
330
17
100
AcDbEntity
  8
A-GRND
100
AcDbLine
 10
100.0
 20
62.0
 30
0.0
 11
99.0
 21
61.2
 31
0.0
  0
LINE
  5
142
330
17
100
AcDbEntity
  8
A-GRND
100
AcDbLine
 10
102.0
 20
62.0
 30
0.0
 11
101.0
 21
61.2
 31
0.0
  0
LINE
  5
143
330
17
100
AcDbEntity
  8
A-GRND
100
AcDbLine
 10
104.0
 20
62.0
 30
0.0
 11
103.0
 21
61.2
 31
0.0
  0
LWPOLYLINE
  5
144
330
17
100
AcDbEntity
  8
A-ELEV
100
AcDbPolyline
 90
4
 70
1
 10
72.4
 20
62.0
 10
91.6
 20
62.0
 10
91.6
 20
62.5
 10
72.4
 20
62.5
  0
LWPOLYLINE
  5
145
330
17
100
AcDbEntity
  8
A-ELEV
100
AcDbPolyline
 90
4
 70
1
 10
73.0
 20
62.5
 10
91.0
 20
62.5
 10
91.0
 20
71.6
 10
73.0
 20
71.6
  0
LWPOLYLINE
  5
146
330
17
100
AcDbEntity
  8
A-ROOF
100
AcDbPolyline
 90
20
 70
1
 10
72.9
 20
71.6
 10
70.0
 20
71.8
 10
67.4
 20
72.8
 10
67.0
 20
73.8
 10
67.5
 20
76.0
 10
69.0
 20
79.5
 10
71.0
 20
82.0
 10
74.0
 20
84.0
 10
78.0
 20
85.2
 10
82.0
 20
85.5
 10
82.0
 20
85.5
 10
86.0
 20
85.2
 10
90.0
 20
84.0
 10
93.0
 20
82.0
 10
95.0
 20
79.5
 10
96.5
 20
76.0
 10
97.0
 20
73.8
 10
96.6
 20
72.8
 10
94.0
 20
71.8
 10
91.1
 20
71.6
  0
LINE
  5
147
330
17
100
AcDbEntity
  8
A-ELEV
100
AcDbLine
 10
73.0
 20
71.6
 30
0.0
 11
91.0
 21
71.6
 31
0.0
  0
LWPOLYLINE
  5
148
330
17
100
AcDbEntity
  8
A-GLAZ
100
AcDbPolyline
 90
4
 70
1
 10
79.8
 20
85.3
 10
84.2
 20
85.3
 10
84.2
 20
85.9
 10
79.8
 20
85.9
  0
CIRCLE
  5
149
330
17
100
AcDbEntity
  8
A-ROOF
100
AcDbCircle
 10
87.63815572471545
 20
84.5
 30
0.0
 40
1.6
  0
CIRCLE
  5
14A
330
17
100
AcDbEntity
  8
A-ROOF
100
AcDbCircle
 10
81.12844257252341
 20
82.4
 30
0.0
 40
2.08
  0
CIRCLE
  5
14B
330
17
100
AcDbEntity
  8
A-ROOF
100
AcDbCircle
 10
78.24122951685636
 20
85.0
 30
0.0
 40
1.2000000000000002
  0
CIRCLE
  5
14C
330
17
100
AcDbEntity
  8
A-ROOF
100
AcDbCircle
 10
72.04070785647896
 20
81.2
 30
0.0
 40
1.7600000000000002
  0
CIRCLE
  5
14D
330
17
100
AcDbEntity
  8
A-ROOF
100
AcDbCircle
 10
82.69724594198127
 20
83.7
 30
0.0
 40
1.92
  0
CIRCLE
  5
14E
330
17
100
AcDbEntity
  8
A-ROOF
100
AcDbCircle
 10
92.82531754730547
 20
80.2
 30
0.0
 40
1.4400000000000002
  0
LINE
  5
14F
330
17
100
AcDbEntity
  8
A-LEVL
100
AcDbLine
 10
97.5
 20
62.5
 30
0.0
 11
101.5
 21
62.5
 31
0.0
  0
TEXT
  5
150
330
17
100
AcDbEntity
  8
A-LEVL
100
AcDbText
 10
101.7
 20
62.65
 30
0.0
 40
0.7
  1
FIN FLOOR  0.5'
 11
101.7
 21
62.65
 31
0.0
100
AcDbText
  0
LINE
  5
151
330
17
100
AcDbEntity
  8
A-LEVL
100
AcDbLine
 10
97.5
 20
71.6
 30
0.0
 11
101.5
 21
71.6
 31
0.0
  0
TEXT
  5
152
330
17
100
AcDbEntity
  8
A-LEVL
100
AcDbText
 10
101.7
 20
71.75
 30
0.0
 40
0.7
  1
LOFT / GILL LINE  9.6'
 11
101.7
 21
71.75
 31
0.0
100
AcDbText
  0
LINE
  5
153
330
17
100
AcDbEntity
  8
A-LEVL
100
AcDbLine
 10
97.5
 20
85.5
 30
0.0
 11
101.5
 21
85.5
 31
0.0
  0
TEXT
  5
154
330
17
100
AcDbEntity
  8
A-LEVL
100
AcDbText
 10
101.7
 20
85.65
 30
0.0
 40
0.7
  1
CROWN  23.5'
 11
101.7
 21
85.65
 31
0.0
100
AcDbText
  0
LINE
  5
155
330
17
100
AcDbEntity
  8
A-LEVL
100
AcDbLine
 10
97.5
 20
73.8
 30
0.0
 11
101.5
 21
73.8
 31
0.0
  0
TEXT
  5
156
330
17
100
AcDbEntity
  8
A-LEVL
100
AcDbText
 10
101.7
 20
73.95
 30
0.0
 40
0.7
  1
CAP RIM  11.8'
 11
101.7
 21
73.95
 31
0.0
100
AcDbText
  0
DIMENSION
  5
157
330
17
100
AcDbEntity
  8
A-ANNO-DIMS
100
AcDbDimension
280
0
  2
*D6
  3
EZDXF
 10
61.0
 20
62.0
 30
0.0
 11
60.35
 21
73.75
 31
0.0
 70
32
 71
5
  1
<>
100
AcDbAlignedDimension
 13
82.0
 23
62.0
 33
0.0
 14
82.0
 24
85.5
 34
0.0
 50
90.0
100
AcDbRotatedDimension
1001
ACAD
1000
DSTYLE
1002
{
1070
140
1040
0.9
1070
41
1040
0.45
1070
44
1040
0.3
1070
42
1040
0.35
1070
147
1040
0.2
1070
271
1070
1
1070
3
1000
<>'
1070
178
1070
1
1070
176
1070
1
1070
177
1070
1
1002
}
  0
LWPOLYLINE
  5
166
330
17
100
AcDbEntity
  8
A-DOOR
100
AcDbPolyline
 90
4
 70
1
 10
80.5
 20
62.5
 10
83.5
 20
62.5
 10
83.5
 20
69.5
 10
80.5
 20
69.5
  0
CIRCLE
  5
167
330
17
100
AcDbEntity
  8
A-DOOR
100
AcDbCircle
 10
83.1
 20
66.0
 30
0.0
 40
0.15
  0
CIRCLE
  5
168
330
17
100
AcDbEntity
  8
A-GLAZ
100
AcDbCircle
 10
74.63
 20
67.4
 30
0.0
 40
1.5
  0
HATCH
  5
169
330
17
100
AcDbEntity
  8
A-GLAZ-PATT
 62
151
100
AcDbHatch
 10
0.0
 20
0.0
 30
0.0
210
0.0
220
0.0
230
1.0
  2
SOLID
 70
1
 71
0
 91
1
 92
3
 72
0
 73
1
 93
65
 10
76.13
 20
67.4
 10
76.1227770900083
 20
67.25297428950566
 10
76.10117792060484
 20
67.1073645169758
 10
76.06541050359832
 20
66.9645729841183
 10
76.01581929876693
 20
66.82597485145237
 10
75.95288189652253
 20
66.692904894761
 10
75.87720441845381
 20
66.5666446504706
 10
75.7895156800441
 20
66.44841007375453
 10
75.69066017177983
 20
66.33933982822018
 10
75.58158992624547
 20
66.2404843199559
 10
75.46335534952941
 20
66.15279558154619
 10
75.337095105239
 20
66.07711810347747
 10
75.20402514854763
 20
66.01418070123307
 10
75.0654270158817
 20
65.96458949640169
 10
74.9226354830242
 20
65.92882207939516
 10
74.77702571049434
 20
65.9072229099917
 10
74.63
 20
65.9
 10
74.48297428950566
 20
65.9072229099917
 10
74.33736451697581
 20
65.92882207939516
 10
74.19457298411831
 20
65.96458949640169
 10
74.05597485145236
 20
66.01418070123307
 10
73.922904894761
 20
66.07711810347747
 10
73.7966446504706
 20
66.15279558154619
 10
73.67841007375453
 20
66.2404843199559
 10
73.56933982822018
 20
66.33933982822018
 10
73.47048431995589
 20
66.44841007375453
 10
73.38279558154618
 20
66.5666446504706
 10
73.30711810347746
 20
66.692904894761
 10
73.24418070123306
 20
66.82597485145237
 10
73.19458949640169
 20
66.9645729841183
 10
73.15882207939515
 20
67.1073645169758
 10
73.1372229099917
 20
67.25297428950566
 10
73.13
 20
67.4
 10
73.1372229099917
 20
67.54702571049434
 10
73.15882207939515
 20
67.69263548302419
 10
73.19458949640169
 20
67.83542701588169
 10
73.24418070123306
 20
67.97402514854764
 10
73.30711810347746
 20
68.107095105239
 10
73.38279558154618
 20
68.2333553495294
 10
73.47048431995589
 20
68.35158992624547
 10
73.56933982822018
 20
68.46066017177982
 10
73.67841007375453
 20
68.5595156800441
 10
73.7966446504706
 20
68.64720441845381
 10
73.922904894761
 20
68.72288189652254
 10
74.05597485145236
 20
68.78581929876692
 10
74.19457298411831
 20
68.83541050359831
 10
74.33736451697581
 20
68.87117792060485
 10
74.48297428950566
 20
68.8927770900083
 10
74.63
 20
68.9
 10
74.77702571049434
 20
68.8927770900083
 10
74.9226354830242
 20
68.87117792060485
 10
75.0654270158817
 20
68.83541050359831
 10
75.20402514854763
 20
68.78581929876692
 10
75.337095105239
 20
68.72288189652254
 10
75.46335534952941
 20
68.64720441845382
 10
75.58158992624547
 20
68.5595156800441
 10
75.69066017177983
 20
68.46066017177982
 10
75.7895156800441
 20
68.35158992624547
 10
75.87720441845381
 20
68.2333553495294
 10
75.95288189652253
 20
68.107095105239
 10
76.01581929876693
 20
67.97402514854764
 10
76.06541050359832
 20
67.83542701588169
 10
76.10117792060484
 20
67.69263548302419
 10
76.1227770900083
 20
67.54702571049434
 10
76.13
 20
67.4
 97
0
 75
0
 76
1
 98
0
  0
CIRCLE
  5
16A
330
17
100
AcDbEntity
  8
A-GLAZ
100
AcDbCircle
 10
89.37
 20
67.4
 30
0.0
 40
1.5
  0
HATCH
  5
16B
330
17
100
AcDbEntity
  8
A-GLAZ-PATT
 62
151
100
AcDbHatch
 10
0.0
 20
0.0
 30
0.0
210
0.0
220
0.0
230
1.0
  2
SOLID
 70
1
 71
0
 91
1
 92
3
 72
0
 73
1
 93
65
 10
90.87
 20
67.4
 10
90.8627770900083
 20
67.25297428950566
 10
90.84117792060485
 20
67.1073645169758
 10
90.80541050359831
 20
66.9645729841183
 10
90.75581929876694
 20
66.82597485145237
 10
90.69288189652254
 20
66.692904894761
 10
90.61720441845382
 20
66.5666446504706
 10
90.52951568004411
 20
66.44841007375453
 10
90.43066017177982
 20
66.33933982822018
 10
90.32158992624547
 20
66.2404843199559
 10
90.2033553495294
 20
66.15279558154619
 10
90.077095105239
 20
66.07711810347747
 10
89.94402514854764
 20
66.01418070123307
 10
89.80542701588169
 20
65.96458949640169
 10
89.66263548302419
 20
65.92882207939516
 10
89.51702571049434
 20
65.9072229099917
 10
89.37
 20
65.9
 10
89.22297428950566
 20
65.9072229099917
 10
89.0773645169758
 20
65.92882207939516
 10
88.9345729841183
 20
65.96458949640169
 10
88.79597485145237
 20
66.01418070123307
 10
88.662904894761
 20
66.07711810347747
 10
88.53664465047059
 20
66.15279558154619
 10
88.41841007375453
 20
66.2404843199559
 10
88.30933982822017
 20
66.33933982822018
 10
88.2104843199559
 20
66.44841007375453
 10
88.12279558154619
 20
66.5666446504706
 10
88.04711810347747
 20
66.692904894761
 10
87.98418070123307
 20
66.82597485145237
 10
87.93458949640168
 20
66.9645729841183
 10
87.89882207939516
 20
67.1073645169758
 10
87.8772229099917
 20
67.25297428950566
 10
87.87
 20
67.4
 10
87.8772229099917
 20
67.54702571049434
 10
87.89882207939516
 20
67.69263548302419
 10
87.93458949640168
 20
67.83542701588169
 10
87.98418070123307
 20
67.97402514854764
 10
88.04711810347747
 20
68.107095105239
 10
88.12279558154619
 20
68.2333553495294
 10
88.2104843199559
 20
68.35158992624547
 10
88.30933982822017
 20
68.46066017177982
 10
88.41841007375453
 20
68.5595156800441
 10
88.53664465047059
 20
68.64720441845381
 10
88.662904894761
 20
68.72288189652254
 10
88.79597485145237
 20
68.78581929876692
 10
88.9345729841183
 20
68.83541050359831
 10
89.0773645169758
 20
68.87117792060485
 10
89.22297428950566
 20
68.8927770900083
 10
89.37
 20
68.9
 10
89.51702571049434
 20
68.8927770900083
 10
89.66263548302419
 20
68.87117792060485
 10
89.80542701588169
 20
68.83541050359831
 10
89.94402514854764
 20
68.78581929876692
 10
90.077095105239
 20
68.72288189652254
 10
90.2033553495294
 20
68.64720441845382
 10
90.32158992624547
 20
68.5595156800441
 10
90.43066017177982
 20
68.46066017177982
 10
90.5295156800441
 20
68.35158992624547
 10
90.61720441845382
 20
68.2333553495294
 10
90.69288189652254
 20
68.107095105239
 10
90.75581929876694
 20
67.97402514854764
 10
90.80541050359831
 20
67.83542701588169
 10
90.84117792060485
 20
67.69263548302419
 10
90.8627770900083
 20
67.54702571049434
 10
90.87
 20
67.4
 97
0
 75
0
 76
1
 98
0
  0
LWPOLYLINE
  5
16C
330
17
100
AcDbEntity
  8
A-DECK
100
AcDbPolyline
 90
4
 70
1
 10
75.5
 20
62.0
 10
88.5
 20
62.0
 10
88.5
 20
62.5
 10
75.5
 20
62.5
  0
LWPOLYLINE
  5
16D
330
17
100
AcDbEntity
  8
A-DECK
100
AcDbPolyline
 90
4
 70
1
 10
79.5
 20
62.0
 10
84.5
 20
62.0
 10
84.5
 20
62.25
 10
79.5
 20
62.25
  0
LWPOLYLINE
  5
16E
330
17
100
AcDbEntity
  8
A-ELEV-HIDN
  6
DASHED
100
AcDbPolyline
 90
4
 70
1
 10
69.2
 20
62.0
 10
73.0
 20
62.0
 10
73.0
 20
69.5
 10
69.2
 20
69.5
  0
LWPOLYLINE
  5
16F
330
17
100
AcDbEntity
  8
A-ELEV-HIDN
  6
DASHED
100
AcDbPolyline
 90
5
 70
0
 10
66.6
 20
69.6
 10
66.8
 20
70.8
 10
68.0
 20
72.6
 10
70.3
 20
74.2
 10
72.8
 20
74.5
  0
TEXT
  5
170
330
17
100
AcDbEntity
  8
G-TITLE
100
AcDbText
 10
65.0
 20
56.0
 30
0.0
 40
1.4
  1
FRONT ELEVATION (FROM THE LANE)
 11
65.0
 21
56.0
 31
0.0
100
AcDbText
  0
LINE
  5
171
330
17
100
AcDbEntity
  8
G-TITLE
100
AcDbLine
 10
65.0
 20
55.5
 30
0.0
 11
105.0
 21
55.5
 31
0.0
  0
LINE
  5
172
330
17
100
AcDbEntity
  8
A-GRND
100
AcDbLine
 10
114.0
 20
62.0
 30
0.0
 11
162.0
 21
62.0
 31
0.0
  0
LINE
  5
173
330
17
100
AcDbEntity
  8
A-GRND
100
AcDbLine
 10
114.0
 20
62.0
 30
0.0
 11
113.0
 21
61.2
 31
0.0
  0
LINE
  5
174
330
17
100
AcDbEntity
  8
A-GRND
100
AcDbLine
 10
116.0
 20
62.0
 30
0.0
 11
115.0
 21
61.2
 31
0.0
  0
LINE
  5
175
330
17
100
AcDbEntity
  8
A-GRND
100
AcDbLine
 10
118.0
 20
62.0
 30
0.0
 11
117.0
 21
61.2
 31
0.0
  0
LINE
  5
176
330
17
100
AcDbEntity
  8
A-GRND
100
AcDbLine
 10
120.0
 20
62.0
 30
0.0
 11
119.0
 21
61.2
 31
0.0
  0
LINE
  5
177
330
17
100
AcDbEntity
  8
A-GRND
100
AcDbLine
 10
122.0
 20
62.0
 30
0.0
 11
121.0
 21
61.2
 31
0.0
  0
LINE
  5
178
330
17
100
AcDbEntity
  8
A-GRND
100
AcDbLine
 10
124.0
 20
62.0
 30
0.0
 11
123.0
 21
61.2
 31
0.0
  0
LINE
  5
179
330
17
100
AcDbEntity
  8
A-GRND
100
AcDbLine
 10
126.0
 20
62.0
 30
0.0
 11
125.0
 21
61.2
 31
0.0
  0
LINE
  5
17A
330
17
100
AcDbEntity
  8
A-GRND
100
AcDbLine
 10
128.0
 20
62.0
 30
0.0
 11
127.0
 21
61.2
 31
0.0
  0
LINE
  5
17B
330
17
100
AcDbEntity
  8
A-GRND
100
AcDbLine
 10
130.0
 20
62.0
 30
0.0
 11
129.0
 21
61.2
 31
0.0
  0
LINE
  5
17C
330
17
100
AcDbEntity
  8
A-GRND
100
AcDbLine
 10
132.0
 20
62.0
 30
0.0
 11
131.0
 21
61.2
 31
0.0
  0
LINE
  5
17D
330
17
100
AcDbEntity
  8
A-GRND
100
AcDbLine
 10
134.0
 20
62.0
 30
0.0
 11
133.0
 21
61.2
 31
0.0
  0
LINE
  5
17E
330
17
100
AcDbEntity
  8
A-GRND
100
AcDbLine
 10
136.0
 20
62.0
 30
0.0
 11
135.0
 21
61.2
 31
0.0
  0
LINE
  5
17F
330
17
100
AcDbEntity
  8
A-GRND
100
AcDbLine
 10
138.0
 20
62.0
 30
0.0
 11
137.0
 21
61.2
 31
0.0
  0
LINE
  5
180
330
17
100
AcDbEntity
  8
A-GRND
100
AcDbLine
 10
140.0
 20
62.0
 30
0.0
 11
139.0
 21
61.2
 31
0.0
  0
LINE
  5
181
330
17
100
AcDbEntity
  8
A-GRND
100
AcDbLine
 10
142.0
 20
62.0
 30
0.0
 11
141.0
 21
61.2
 31
0.0
  0
LINE
  5
182
330
17
100
AcDbEntity
  8
A-GRND
100
AcDbLine
 10
144.0
 20
62.0
 30
0.0
 11
143.0
 21
61.2
 31
0.0
  0
LINE
  5
183
330
17
100
AcDbEntity
  8
A-GRND
100
AcDbLine
 10
146.0
 20
62.0
 30
0.0
 11
145.0
 21
61.2
 31
0.0
  0
LINE
  5
184
330
17
100
AcDbEntity
  8
A-GRND
100
AcDbLine
 10
148.0
 20
62.0
 30
0.0
 11
147.0
 21
61.2
 31
0.0
  0
LINE
  5
185
330
17
100
AcDbEntity
  8
A-GRND
100
AcDbLine
 10
150.0
 20
62.0
 30
0.0
 11
149.0
 21
61.2
 31
0.0
  0
LINE
  5
186
330
17
100
AcDbEntity
  8
A-GRND
100
AcDbLine
 10
152.0
 20
62.0
 30
0.0
 11
151.0
 21
61.2
 31
0.0
  0
LINE
  5
187
330
17
100
AcDbEntity
  8
A-GRND
100
AcDbLine
 10
154.0
 20
62.0
 30
0.0
 11
153.0
 21
61.2
 31
0.0
  0
LINE
  5
188
330
17
100
AcDbEntity
  8
A-GRND
100
AcDbLine
 10
156.0
 20
62.0
 30
0.0
 11
155.0
 21
61.2
 31
0.0
  0
LINE
  5
189
330
17
100
AcDbEntity
  8
A-GRND
100
AcDbLine
 10
158.0
 20
62.0
 30
0.0
 11
157.0
 21
61.2
 31
0.0
  0
LINE
  5
18A
330
17
100
AcDbEntity
  8
A-GRND
100
AcDbLine
 10
160.0
 20
62.0
 30
0.0
 11
159.0
 21
61.2
 31
0.0
  0
LWPOLYLINE
  5
18B
330
17
100
AcDbEntity
  8
A-ELEV
100
AcDbPolyline
 90
4
 70
1
 10
128.4
 20
62.0
 10
147.6
 20
62.0
 10
147.6
 20
62.5
 10
128.4
 20
62.5
  0
LWPOLYLINE
  5
18C
330
17
100
AcDbEntity
  8
A-ELEV
100
AcDbPolyline
 90
4
 70
1
 10
129.0
 20
62.5
 10
147.0
 20
62.5
 10
147.0
 20
71.6
 10
129.0
 20
71.6
  0
LWPOLYLINE
  5
18D
330
17
100
AcDbEntity
  8
A-ROOF
100
AcDbPolyline
 90
20
 70
1
 10
128.9
 20
71.6
 10
126.0
 20
71.8
 10
123.4
 20
72.8
 10
123.0
 20
73.8
 10
123.5
 20
76.0
 10
125.0
 20
79.5
 10
127.0
 20
82.0
 10
130.0
 20
84.0
 10
134.0
 20
85.2
 10
138.0
 20
85.5
 10
138.0
 20
85.5
 10
142.0
 20
85.2
 10
146.0
 20
84.0
 10
149.0
 20
82.0
 10
151.0
 20
79.5
 10
152.5
 20
76.0
 10
153.0
 20
73.8
 10
152.6
 20
72.8
 10
150.0
 20
71.8
 10
147.1
 20
71.6
  0
LINE
  5
18E
330
17
100
AcDbEntity
  8
A-ELEV
100
AcDbLine
 10
129.0
 20
71.6
 30
0.0
 11
147.0
 21
71.6
 31
0.0
  0
LWPOLYLINE
  5
18F
330
17
100
AcDbEntity
  8
A-GLAZ
100
AcDbPolyline
 90
4
 70
1
 10
135.8
 20
85.3
 10
140.2
 20
85.3
 10
140.2
 20
85.9
 10
135.8
 20
85.9
  0
CIRCLE
  5
190
330
17
100
AcDbEntity
  8
A-ROOF
100
AcDbCircle
 10
135.94787914004598
 20
84.5
 30
0.0
 40
1.6
  0
CIRCLE
  5
191
330
17
100
AcDbEntity
  8
A-ROOF
100
AcDbCircle
 10
128.03805301908255
 20
82.4
 30
0.0
 40
2.08
  0
CIRCLE
  5
192
330
17
100
AcDbEntity
  8
A-ROOF
100
AcDbCircle
 10
136.63191942669732
 20
85.0
 30
0.0
 40
1.2000000000000002
  0
CIRCLE
  5
193
330
17
100
AcDbEntity
  8
A-ROOF
100
AcDbCircle
 10
143.75
 20
81.2
 30
0.0
 40
1.7600000000000002
  0
CIRCLE
  5
194
330
17
100
AcDbEntity
  8
A-ROOF
100
AcDbCircle
 10
145.96955758473396
 20
83.7
 30
0.0
 40
1.92
  0
CIRCLE
  5
195
330
17
100
AcDbEntity
  8
A-ROOF
100
AcDbCircle
 10
144.25
 20
80.2
 30
0.0
 40
1.4400000000000002
  0
LINE
  5
196
330
17
100
AcDbEntity
  8
A-LEVL
100
AcDbLine
 10
153.5
 20
62.5
 30
0.0
 11
157.5
 21
62.5
 31
0.0
  0
TEXT
  5
197
330
17
100
AcDbEntity
  8
A-LEVL
100
AcDbText
 10
157.7
 20
62.65
 30
0.0
 40
0.7
  1
FIN FLOOR  0.5'
 11
157.7
 21
62.65
 31
0.0
100
AcDbText
  0
LINE
  5
198
330
17
100
AcDbEntity
  8
A-LEVL
100
AcDbLine
 10
153.5
 20
71.6
 30
0.0
 11
157.5
 21
71.6
 31
0.0
  0
TEXT
  5
199
330
17
100
AcDbEntity
  8
A-LEVL
100
AcDbText
 10
157.7
 20
71.75
 30
0.0
 40
0.7
  1
LOFT / GILL LINE  9.6'
 11
157.7
 21
71.75
 31
0.0
100
AcDbText
  0
LINE
  5
19A
330
17
100
AcDbEntity
  8
A-LEVL
100
AcDbLine
 10
153.5
 20
85.5
 30
0.0
 11
157.5
 21
85.5
 31
0.0
  0
TEXT
  5
19B
330
17
100
AcDbEntity
  8
A-LEVL
100
AcDbText
 10
157.7
 20
85.65
 30
0.0
 40
0.7
  1
CROWN  23.5'
 11
157.7
 21
85.65
 31
0.0
100
AcDbText
  0
LINE
  5
19C
330
17
100
AcDbEntity
  8
A-LEVL
100
AcDbLine
 10
153.5
 20
73.8
 30
0.0
 11
157.5
 21
73.8
 31
0.0
  0
TEXT
  5
19D
330
17
100
AcDbEntity
  8
A-LEVL
100
AcDbText
 10
157.7
 20
73.95
 30
0.0
 40
0.7
  1
CAP RIM  11.8'
 11
157.7
 21
73.95
 31
0.0
100
AcDbText
  0
DIMENSION
  5
19E
330
17
100
AcDbEntity
  8
A-ANNO-DIMS
100
AcDbDimension
280
0
  2
*D7
  3
EZDXF
 10
117.0
 20
62.0
 30
0.0
 11
116.35
 21
73.75
 31
0.0
 70
32
 71
5
  1
<>
100
AcDbAlignedDimension
 13
138.0
 23
62.0
 33
0.0
 14
138.0
 24
85.5
 34
0.0
 50
90.0
100
AcDbRotatedDimension
1001
ACAD
1000
DSTYLE
1002
{
1070
140
1040
0.9
1070
41
1040
0.45
1070
44
1040
0.3
1070
42
1040
0.35
1070
147
1040
0.2
1070
271
1070
1
1070
3
1000
<>'
1070
178
1070
1
1070
176
1070
1
1070
177
1070
1
1002
}
  0
CIRCLE
  5
1AD
330
17
100
AcDbEntity
  8
A-GLAZ
100
AcDbCircle
 10
132.8378120728406
 20
67.4
 30
0.0
 40
1.5
  0
HATCH
  5
1AE
330
17
100
AcDbEntity
  8
A-GLAZ-PATT
 62
151
100
AcDbHatch
 10
0.0
 20
0.0
 30
0.0
210
0.0
220
0.0
230
1.0
  2
SOLID
 70
1
 71
0
 91
1
 92
3
 72
0
 73
1
 93
65
 10
134.3378120728406
 20
67.4
 10
134.3305891628489
 20
67.25297428950566
 10
134.30898999344544
 20
67.1073645169758
 10
134.2732225764389
 20
66.9645729841183
 10
134.22363137160752
 20
66.82597485145237
 10
134.1606939693631
 20
66.692904894761
 10
134.0850164912944
 20
66.5666446504706
 10
133.9973277528847
 20
66.44841007375453
 10
133.8984722446204
 20
66.33933982822018
 10
133.78940199908607
 20
66.2404843199559
 10
133.67116742237
 20
66.15279558154619
 10
133.5449071780796
 20
66.07711810347747
 10
133.41183722138823
 20
66.01418070123307
 10
133.27323908872228
 20
65.96458949640169
 10
133.13044755586478
 20
65.92882207939516
 10
132.98483778333494
 20
65.9072229099917
 10
132.8378120728406
 20
65.9
 10
132.69078636234624
 20
65.9072229099917
 10
132.5451765898164
 20
65.92882207939516
 10
132.4023850569589
 20
65.96458949640169
 10
132.26378692429296
 20
66.01418070123307
 10
132.1307169676016
 20
66.07711810347747
 10
132.0044567233112
 20
66.15279558154619
 10
131.88622214659512
 20
66.2404843199559
 10
131.77715190106076
 20
66.33933982822018
 10
131.67829639279648
 20
66.44841007375453
 10
131.59060765438676
 20
66.5666446504706
 10
131.51493017631805
 20
66.692904894761
 10
131.45199277407366
 20
66.82597485145237
 10
131.40240156924227
 20
66.9645729841183
 10
131.36663415223575
 20
67.1073645169758
 10
131.3450349828323
 20
67.25297428950566
 10
131.3378120728406
 20
67.4
 10
131.3450349828323
 20
67.54702571049434
 10
131.36663415223575
 20
67.69263548302419
 10
131.40240156924227
 20
67.83542701588169
 10
131.45199277407366
 20
67.97402514854764
 10
131.51493017631805
 20
68.107095105239
 10
131.59060765438676
 20
68.2333553495294
 10
131.67829639279648
 20
68.35158992624547
 10
131.77715190106076
 20
68.46066017177982
 10
131.88622214659512
 20
68.5595156800441
 10
132.0044567233112
 20
68.64720441845381
 10
132.1307169676016
 20
68.72288189652254
 10
132.26378692429296
 20
68.78581929876692
 10
132.4023850569589
 20
68.83541050359831
 10
132.5451765898164
 20
68.87117792060485
 10
132.69078636234624
 20
68.8927770900083
 10
132.8378120728406
 20
68.9
 10
132.98483778333494
 20
68.8927770900083
 10
133.13044755586478
 20
68.87117792060485
 10
133.27323908872228
 20
68.83541050359831
 10
133.41183722138823
 20
68.78581929876692
 10
133.5449071780796
 20
68.72288189652254
 10
133.67116742237
 20
68.64720441845382
 10
133.78940199908607
 20
68.5595156800441
 10
133.8984722446204
 20
68.46066017177982
 10
133.9973277528847
 20
68.35158992624547
 10
134.0850164912944
 20
68.2333553495294
 10
134.1606939693631
 20
68.107095105239
 10
134.22363137160752
 20
67.97402514854764
 10
134.2732225764389
 20
67.83542701588169
 10
134.30898999344544
 20
67.69263548302419
 10
134.3305891628489
 20
67.54702571049434
 10
134.3378120728406
 20
67.4
 97
0
 75
0
 76
1
 98
0
  0
CIRCLE
  5
1AF
330
17
100
AcDbEntity
  8
A-GLAZ
100
AcDbCircle
 10
143.1621879271594
 20
67.4
 30
0.0
 40
1.5
  0
HATCH
  5
1B0
330
17
100
AcDbEntity
  8
A-GLAZ-PATT
 62
151
100
AcDbHatch
 10
0.0
 20
0.0
 30
0.0
210
0.0
220
0.0
230
1.0
  2
SOLID
 70
1
 71
0
 91
1
 92
3
 72
0
 73
1
 93
65
 10
144.6621879271594
 20
67.4
 10
144.6549650171677
 20
67.25297428950566
 10
144.63336584776425
 20
67.1073645169758
 10
144.59759843075773
 20
66.9645729841183
 10
144.54800722592634
 20
66.82597485145237
 10
144.48506982368195
 20
66.692904894761
 10
144.40939234561324
 20
66.5666446504706
 10
144.32170360720352
 20
66.44841007375453
 10
144.22284809893924
 20
66.33933982822018
 10
144.11377785340488
 20
66.2404843199559
 10
143.9955432766888
 20
66.15279558154619
 10
143.8692830323984
 20
66.07711810347747
 10
143.73621307570704
 20
66.01418070123307
 10
143.5976149430411
 20
65.96458949640169
 10
143.45482341018362
 20
65.92882207939516
 10
143.30921363765376
 20
65.9072229099917
 10
143.1621879271594
 20
65.9
 10
143.01516221666506
 20
65.9072229099917
 10
142.86955244413522
 20
65.92882207939516
 10
142.72676091127772
 20
65.96458949640169
 10
142.58816277861177
 20
66.01418070123307
 10
142.45509282192043
 20
66.07711810347747
 10
142.32883257763
 20
66.15279558154619
 10
142.21059800091393
 20
66.2404843199559
 10
142.1015277553796
 20
66.33933982822018
 10
142.0026722471153
 20
66.44841007375453
 10
141.9149835087056
 20
66.5666446504706
 10
141.8393060306369
 20
66.692904894761
 10
141.77636862839248
 20
66.82597485145237
 10
141.7267774235611
 20
66.9645729841183
 10
141.69101000655456
 20
67.1073645169758
 10
141.66941083715113
 20
67.25297428950566
 10
141.6621879271594
 20
67.4
 10
141.66941083715113
 20
67.54702571049434
 10
141.69101000655456
 20
67.69263548302419
 10
141.7267774235611
 20
67.83542701588169
 10
141.77636862839248
 20
67.97402514854764
 10
141.8393060306369
 20
68.107095105239
 10
141.9149835087056
 20
68.2333553495294
 10
142.0026722471153
 20
68.35158992624547
 10
142.1015277553796
 20
68.46066017177982
 10
142.21059800091393
 20
68.5595156800441
 10
142.32883257763
 20
68.64720441845381
 10
142.45509282192043
 20
68.72288189652254
 10
142.58816277861177
 20
68.78581929876692
 10
142.72676091127772
 20
68.83541050359831
 10
142.86955244413522
 20
68.87117792060485
 10
143.01516221666506
 20
68.8927770900083
 10
143.1621879271594
 20
68.9
 10
143.30921363765376
 20
68.8927770900083
 10
143.45482341018362
 20
68.87117792060485
 10
143.5976149430411
 20
68.83541050359831
 10
143.73621307570704
 20
68.78581929876692
 10
143.8692830323984
 20
68.72288189652254
 10
143.9955432766888
 20
68.64720441845382
 10
144.11377785340488
 20
68.5595156800441
 10
144.22284809893924
 20
68.46066017177982
 10
144.32170360720352
 20
68.35158992624547
 10
144.40939234561324
 20
68.2333553495294
 10
144.48506982368195
 20
68.107095105239
 10
144.54800722592634
 20
67.97402514854764
 10
144.59759843075773
 20
67.83542701588169
 10
144.63336584776425
 20
67.69263548302419
 10
144.6549650171677
 20
67.54702571049434
 10
144.6621879271594
 20
67.4
 97
0
 75
0
 76
1
 98
0
  0
LWPOLYLINE
  5
1B1
330
17
100
AcDbEntity
  8
A-ELEV
100
AcDbPolyline
 90
4
 70
1
 10
126.2
 20
62.0
 10
133.4
 20
62.0
 10
133.4
 20
69.5
 10
126.2
 20
69.5
  0
LWPOLYLINE
  5
1B2
330
17
100
AcDbEntity
  8
A-ROOF
100
AcDbPolyline
 90
14
 70
1
 10
126.1
 20
69.0
 10
124.4
 20
68.9
 10
123.6
 20
69.6
 10
123.8
 20
70.8
 10
125.0
 20
72.6
 10
127.3
 20
74.2
 10
129.8
 20
74.5
 10
129.8
 20
74.5
 10
132.3
 20
74.2
 10
134.6
 20
72.6
 10
135.8
 20
70.8
 10
136.0
 20
69.6
 10
135.2
 20
68.9
 10
133.5
 20
69.0
  0
LWPOLYLINE
  5
1B3
330
17
100
AcDbEntity
  8
A-DECK
100
AcDbPolyline
 90
4
 70
1
 10
143.0
 20
62.0
 10
149.5
 20
62.0
 10
149.5
 20
62.5
 10
143.0
 20
62.5
  0
LWPOLYLINE
  5
1B4
330
17
100
AcDbEntity
  8
A-DECK
100
AcDbPolyline
 90
4
 70
1
 10
149.5
 20
62.0
 10
153.0
 20
62.0
 10
153.0
 20
62.25
 10
149.5
 20
62.25
  0
TEXT
  5
1B5
330
17
100
AcDbEntity
  8
G-TITLE
100
AcDbText
 10
121.0
 20
56.0
 30
0.0
 40
1.4
  1
SIDE ELEVATION (FROM THE WEST)
 11
121.0
 21
56.0
 31
0.0
100
AcDbText
  0
LINE
  5
1B6
330
17
100
AcDbEntity
  8
G-TITLE
100
AcDbLine
 10
121.0
 20
55.5
 30
0.0
 11
161.0
 21
55.5
 31
0.0
  0
LINE
  5
1B7
330
17
100
AcDbEntity
  8
A-GRND
100
AcDbLine
 10
62.0
 20
14.0
 30
0.0
 11
102.0
 21
14.0
 31
0.0
  0
LINE
  5
1B8
330
17
100
AcDbEntity
  8
A-GRND
100
AcDbLine
 10
62.0
 20
14.0
 30
0.0
 11
61.0
 21
13.2
 31
0.0
  0
LINE
  5
1B9
330
17
100
AcDbEntity
  8
A-GRND
100
AcDbLine
 10
64.0
 20
14.0
 30
0.0
 11
63.0
 21
13.2
 31
0.0
  0
LINE
  5
1BA
330
17
100
AcDbEntity
  8
A-GRND
100
AcDbLine
 10
66.0
 20
14.0
 30
0.0
 11
65.0
 21
13.2
 31
0.0
  0
LINE
  5
1BB
330
17
100
AcDbEntity
  8
A-GRND
100
AcDbLine
 10
68.0
 20
14.0
 30
0.0
 11
67.0
 21
13.2
 31
0.0
  0
LINE
  5
1BC
330
17
100
AcDbEntity
  8
A-GRND
100
AcDbLine
 10
70.0
 20
14.0
 30
0.0
 11
69.0
 21
13.2
 31
0.0
  0
LINE
  5
1BD
330
17
100
AcDbEntity
  8
A-GRND
100
AcDbLine
 10
72.0
 20
14.0
 30
0.0
 11
71.0
 21
13.2
 31
0.0
  0
LINE
  5
1BE
330
17
100
AcDbEntity
  8
A-GRND
100
AcDbLine
 10
74.0
 20
14.0
 30
0.0
 11
73.0
 21
13.2
 31
0.0
  0
LINE
  5
1BF
330
17
100
AcDbEntity
  8
A-GRND
100
AcDbLine
 10
76.0
 20
14.0
 30
0.0
 11
75.0
 21
13.2
 31
0.0
  0
LINE
  5
1C0
330
17
100
AcDbEntity
  8
A-GRND
100
AcDbLine
 10
78.0
 20
14.0
 30
0.0
 11
77.0
 21
13.2
 31
0.0
  0
LINE
  5
1C1
330
17
100
AcDbEntity
  8
A-GRND
100
AcDbLine
 10
80.0
 20
14.0
 30
0.0
 11
79.0
 21
13.2
 31
0.0
  0
LINE
  5
1C2
330
17
100
AcDbEntity
  8
A-GRND
100
AcDbLine
 10
82.0
 20
14.0
 30
0.0
 11
81.0
 21
13.2
 31
0.0
  0
LINE
  5
1C3
330
17
100
AcDbEntity
  8
A-GRND
100
AcDbLine
 10
84.0
 20
14.0
 30
0.0
 11
83.0
 21
13.2
 31
0.0
  0
LINE
  5
1C4
330
17
100
AcDbEntity
  8
A-GRND
100
AcDbLine
 10
86.0
 20
14.0
 30
0.0
 11
85.0
 21
13.2
 31
0.0
  0
LINE
  5
1C5
330
17
100
AcDbEntity
  8
A-GRND
100
AcDbLine
 10
88.0
 20
14.0
 30
0.0
 11
87.0
 21
13.2
 31
0.0
  0
LINE
  5
1C6
330
17
100
AcDbEntity
  8
A-GRND
100
AcDbLine
 10
90.0
 20
14.0
 30
0.0
 11
89.0
 21
13.2
 31
0.0
  0
LINE
  5
1C7
330
17
100
AcDbEntity
  8
A-GRND
100
AcDbLine
 10
92.0
 20
14.0
 30
0.0
 11
91.0
 21
13.2
 31
0.0
  0
LINE
  5
1C8
330
17
100
AcDbEntity
  8
A-GRND
100
AcDbLine
 10
94.0
 20
14.0
 30
0.0
 11
93.0
 21
13.2
 31
0.0
  0
LINE
  5
1C9
330
17
100
AcDbEntity
  8
A-GRND
100
AcDbLine
 10
96.0
 20
14.0
 30
0.0
 11
95.0
 21
13.2
 31
0.0
  0
LINE
  5
1CA
330
17
100
AcDbEntity
  8
A-GRND
100
AcDbLine
 10
98.0
 20
14.0
 30
0.0
 11
97.0
 21
13.2
 31
0.0
  0
LINE
  5
1CB
330
17
100
AcDbEntity
  8
A-GRND
100
AcDbLine
 10
100.0
 20
14.0
 30
0.0
 11
99.0
 21
13.2
 31
0.0
  0
LWPOLYLINE
  5
1CC
330
17
100
AcDbEntity
  8
A-ELEV
100
AcDbPolyline
 90
4
 70
1
 10
72.4
 20
14.0
 10
91.6
 20
14.0
 10
91.6
 20
14.5
 10
72.4
 20
14.5
  0
HATCH
  5
1CD
330
17
100
AcDbEntity
  8
A-SECT-PATT
 62
8
100
AcDbHatch
 10
0.0
 20
0.0
 30
0.0
210
0.0
220
0.0
230
1.0
  2
SOLID
 70
1
 71
0
 91
1
 92
3
 72
0
 73
1
 93
5
 10
91.6
 20
14.0
 10
91.6
 20
14.5
 10
72.4
 20
14.5
 10
72.4
 20
14.0
 10
91.6
 20
14.0
 97
0
 75
0
 76
1
 98
0
  0
LWPOLYLINE
  5
1CE
330
17
100
AcDbEntity
  8
A-ELEV
100
AcDbPolyline
 90
4
 70
1
 10
73.67
 20
14.5
 10
73.0
 20
14.5
 10
73.0
 20
23.6
 10
73.67
 20
23.6
  0
HATCH
  5
1CF
330
17
100
AcDbEntity
  8
A-SECT-PATT
 62
8
100
AcDbHatch
 10
0.0
 20
0.0
 30
0.0
210
0.0
220
0.0
230
1.0
  2
SOLID
 70
1
 71
0
 91
1
 92
3
 72
0
 73
1
 93
5
 10
73.67
 20
14.5
 10
73.67
 20
23.6
 10
73.0
 20
23.6
 10
73.0
 20
14.5
 10
73.67
 20
14.5
 97
0
 75
0
 76
1
 98
0
  0
LWPOLYLINE
  5
1D0
330
17
100
AcDbEntity
  8
A-ELEV
100
AcDbPolyline
 90
4
 70
1
 10
90.33
 20
14.5
 10
91.0
 20
14.5
 10
91.0
 20
23.6
 10
90.33
 20
23.6
  0
HATCH
  5
1D1
330
17
100
AcDbEntity
  8
A-SECT-PATT
 62
8
100
AcDbHatch
 10
0.0
 20
0.0
 30
0.0
210
0.0
220
0.0
230
1.0
  2
SOLID
 70
1
 71
0
 91
1
 92
3
 72
0
 73
1
 93
5
 10
91.0
 20
14.5
 10
91.0
 20
23.6
 10
90.33
 20
23.6
 10
90.33
 20
14.5
 10
91.0
 20
14.5
 97
0
 75
0
 76
1
 98
0
  0
LWPOLYLINE
  5
1D2
330
17
100
AcDbEntity
  8
A-ROOF
100
AcDbPolyline
 90
20
 70
1
 10
72.9
 20
23.6
 10
70.0
 20
23.8
 10
67.4
 20
24.8
 10
67.0
 20
25.8
 10
67.5
 20
28.0
 10
69.0
 20
31.5
 10
71.0
 20
34.0
 10
74.0
 20
36.0
 10
78.0
 20
37.2
 10
82.0
 20
37.5
 10
82.0
 20
37.5
 10
86.0
 20
37.2
 10
90.0
 20
36.0
 10
93.0
 20
34.0
 10
95.0
 20
31.5
 10
96.5
 20
28.0
 10
97.0
 20
25.8
 10
96.6
 20
24.8
 10
94.0
 20
23.8
 10
91.1
 20
23.6
  0
HATCH
  5
1D3
330
17
100
AcDbEntity
  8
A-SECT-PATT
 62
8
100
AcDbHatch
 10
0.0
 20
0.0
 30
0.0
210
0.0
220
0.0
230
1.0
  2
SOLID
 70
1
 71
0
 91
1
 92
3
 72
0
 73
1
 93
31
 10
67.0
 20
25.8
 10
67.5
 20
28.0
 10
69.0
 20
31.5
 10
71.0
 20
34.0
 10
74.0
 20
36.0
 10
78.0
 20
37.2
 10
82.0
 20
37.5
 10
86.0
 20
37.2
 10
90.0
 20
36.0
 10
93.0
 20
34.0
 10
95.0
 20
31.5
 10
96.5
 20
28.0
 10
97.0
 20
25.8
 10
96.6
 20
24.8
 10
96.17454545454545
 20
24.636363636363637
 10
96.4
 20
25.200000000000003
 10
95.9
 20
27.4
 10
94.4
 20
30.9
 10
92.4
 20
33.4
 10
89.4
 20
35.4
 10
85.4
 20
36.599999999999994
 10
82.0
 20
36.9
 10
78.6
 20
36.599999999999994
 10
74.6
 20
35.4
 10
71.6
 20
33.4
 10
69.6
 20
30.9
 10
68.1
 20
27.4
 10
67.6
 20
25.200000000000003
 10
67.82545454545455
 20
24.636363636363637
 10
67.4
 20
24.8
 10
67.0
 20
25.8
 97
0
 75
0
 76
1
 98
0
  0
LWPOLYLINE
  5
1D4
330
17
100
AcDbEntity
  8
A-ELEV
100
AcDbPolyline
 90
4
 70
1
 10
72.0
 20
23.6
 10
92.0
 20
23.6
 10
92.0
 20
24.4
 10
72.0
 20
24.4
  0
HATCH
  5
1D5
330
17
100
AcDbEntity
  8
A-SECT-PATT
 62
8
100
AcDbHatch
 10
0.0
 20
0.0
 30
0.0
210
0.0
220
0.0
230
1.0
  2
SOLID
 70
1
 71
0
 91
1
 92
3
 72
0
 73
1
 93
5
 10
92.0
 20
23.6
 10
92.0
 20
24.4
 10
72.0
 20
24.4
 10
72.0
 20
23.6
 10
92.0
 20
23.6
 97
0
 75
0
 76
1
 98
0
  0
LWPOLYLINE
  5
1D6
330
17
100
AcDbEntity
  8
A-GLAZ
100
AcDbPolyline
 90
4
 70
1
 10
79.8
 20
37.0
 10
84.2
 20
37.0
 10
84.2
 20
37.9
 10
79.8
 20
37.9
  0
LWPOLYLINE
  5
1D7
330
17
100
AcDbEntity
  8
A-FURN
100
AcDbPolyline
 90
2
 70
0
 10
87.5
 20
14.5
 10
87.5
 20
23.6
  0
LINE
  5
1D8
330
17
100
AcDbEntity
  8
A-FURN
100
AcDbLine
 10
85.3
 20
14.5
 30
0.0
 11
89.7
 21
14.5
 31
0.0
  0
LINE
  5
1D9
330
17
100
AcDbEntity
  8
A-FURN
100
AcDbLine
 10
85.3
 20
15.26
 30
0.0
 11
89.7
 21
15.26
 31
0.0
  0
LINE
  5
1DA
330
17
100
AcDbEntity
  8
A-FURN
100
AcDbLine
 10
85.3
 20
16.02
 30
0.0
 11
89.7
 21
16.02
 31
0.0
  0
LINE
  5
1DB
330
17
100
AcDbEntity
  8
A-FURN
100
AcDbLine
 10
85.3
 20
16.78
 30
0.0
 11
89.7
 21
16.78
 31
0.0
  0
LINE
  5
1DC
330
17
100
AcDbEntity
  8
A-FURN
100
AcDbLine
 10
85.3
 20
17.54
 30
0.0
 11
89.7
 21
17.54
 31
0.0
  0
LINE
  5
1DD
330
17
100
AcDbEntity
  8
A-FURN
100
AcDbLine
 10
85.3
 20
18.3
 30
0.0
 11
89.7
 21
18.3
 31
0.0
  0
LINE
  5
1DE
330
17
100
AcDbEntity
  8
A-FURN
100
AcDbLine
 10
85.3
 20
19.060000000000002
 30
0.0
 11
89.7
 21
19.060000000000002
 31
0.0
  0
LINE
  5
1DF
330
17
100
AcDbEntity
  8
A-FURN
100
AcDbLine
 10
85.3
 20
19.82
 30
0.0
 11
89.7
 21
19.82
 31
0.0
  0
LINE
  5
1E0
330
17
100
AcDbEntity
  8
A-FURN
100
AcDbLine
 10
85.3
 20
20.58
 30
0.0
 11
89.7
 21
20.58
 31
0.0
  0
LINE
  5
1E1
330
17
100
AcDbEntity
  8
A-FURN
100
AcDbLine
 10
85.3
 20
21.34
 30
0.0
 11
89.7
 21
21.34
 31
0.0
  0
LINE
  5
1E2
330
17
100
AcDbEntity
  8
A-FURN
100
AcDbLine
 10
85.3
 20
22.1
 30
0.0
 11
89.7
 21
22.1
 31
0.0
  0
LINE
  5
1E3
330
17
100
AcDbEntity
  8
A-FURN
100
AcDbLine
 10
85.3
 20
22.86
 30
0.0
 11
89.7
 21
22.86
 31
0.0
  0
LWPOLYLINE
  5
1E4
330
17
100
AcDbEntity
  8
A-DOOR
100
AcDbPolyline
 90
4
 70
1
 10
80.5
 20
14.5
 10
83.5
 20
14.5
 10
83.5
 20
21.5
 10
80.5
 20
21.5
  0
TEXT
  5
1E5
330
17
100
AcDbEntity
  8
A-FLOR-ANNO
100
AcDbText
 10
79.0
 20
19.0
 30
0.0
 40
0.8
  1
LIVING / KITCHEN
 72
1
 11
79.0
 21
19.0
 31
0.0
100
AcDbText
 73
2
  0
TEXT
  5
1E6
330
17
100
AcDbEntity
  8
A-FLOR-ANNO
100
AcDbText
 10
79.0
 20
29.0
 30
0.0
 40
0.8
  1
SLEEP LOFT
 72
1
 11
79.0
 21
29.0
 31
0.0
100
AcDbText
 73
2
  0
LINE
  5
1E7
330
17
100
AcDbEntity
  8
A-LEVL
100
AcDbLine
 10
97.5
 20
14.5
 30
0.0
 11
101.5
 21
14.5
 31
0.0
  0
TEXT
  5
1E8
330
17
100
AcDbEntity
  8
A-LEVL
100
AcDbText
 10
101.7
 20
14.65
 30
0.0
 40
0.7
  1
FIN FLOOR  0.5'
 11
101.7
 21
14.65
 31
0.0
100
AcDbText
  0
LINE
  5
1E9
330
17
100
AcDbEntity
  8
A-LEVL
100
AcDbLine
 10
97.5
 20
24.4
 30
0.0
 11
101.5
 21
24.4
 31
0.0
  0
TEXT
  5
1EA
330
17
100
AcDbEntity
  8
A-LEVL
100
AcDbText
 10
101.7
 20
24.55
 30
0.0
 40
0.7
  1
LOFT FLOOR  10.4'
 11
101.7
 21
24.55
 31
0.0
100
AcDbText
  0
LINE
  5
1EB
330
17
100
AcDbEntity
  8
A-LEVL
100
AcDbLine
 10
97.5
 20
37.5
 30
0.0
 11
101.5
 21
37.5
 31
0.0
  0
TEXT
  5
1EC
330
17
100
AcDbEntity
  8
A-LEVL
100
AcDbText
 10
101.7
 20
37.65
 30
0.0
 40
0.7
  1
CROWN  23.5'
 11
101.7
 21
37.65
 31
0.0
100
AcDbText
  0
DIMENSION
  5
1ED
330
17
100
AcDbEntity
  8
A-ANNO-DIMS
100
AcDbDimension
280
0
  2
*D8
  3
EZDXF
 10
73.0
 20
10.5
 30
0.0
 11
82.0
 21
11.15
 31
0.0
 70
32
 71
5
  1
<>
100
AcDbAlignedDimension
 13
73.0
 23
14.0
 33
0.0
 14
91.0
 24
14.0
 34
0.0
 50
0.0
100
AcDbRotatedDimension
1001
ACAD
1000
DSTYLE
1002
{
1070
140
1040
0.9
1070
41
1040
0.45
1070
44
1040
0.3
1070
42
1040
0.35
1070
147
1040
0.2
1070
271
1070
1
1070
3
1000
<>'
1070
178
1070
1
1070
176
1070
1
1070
177
1070
1
1002
}
  0
DIMENSION
  5
1FC
330
17
100
AcDbEntity
  8
A-ANNO-DIMS
100
AcDbDimension
280
0
  2
*D9
  3
EZDXF
 10
72.0
 20
26.4
 30
0.0
 11
82.0
 21
27.049999999999997
 31
0.0
 70
32
 71
5
  1
<>
100
AcDbAlignedDimension
 13
72.0
 23
24.4
 33
0.0
 14
92.0
 24
24.4
 34
0.0
 50
0.0
100
AcDbRotatedDimension
1001
ACAD
1000
DSTYLE
1002
{
1070
140
1040
0.9
1070
41
1040
0.45
1070
44
1040
0.3
1070
42
1040
0.35
1070
147
1040
0.2
1070
271
1070
1
1070
3
1000
<>'
1070
178
1070
1
1070
176
1070
1
1070
177
1070
1
1002
}
  0
DIMENSION
  5
20B
330
17
100
AcDbEntity
  8
A-ANNO-DIMS
100
AcDbDimension
280
0
  2
*D10
  3
EZDXF
 10
61.0
 20
14.5
 30
0.0
 11
60.35
 21
19.45
 31
0.0
 70
32
 71
5
  1
<>
100
AcDbAlignedDimension
 13
82.0
 23
14.5
 33
0.0
 14
82.0
 24
24.4
 34
0.0
 50
90.0
100
AcDbRotatedDimension
1001
ACAD
1000
DSTYLE
1002
{
1070
140
1040
0.9
1070
41
1040
0.45
1070
44
1040
0.3
1070
42
1040
0.35
1070
147
1040
0.2
1070
271
1070
1
1070
3
1000
<>'
1070
178
1070
1
1070
176
1070
1
1070
177
1070
1
1002
}
  0
DIMENSION
  5
21A
330
17
100
AcDbEntity
  8
A-ANNO-DIMS
100
AcDbDimension
280
0
  2
*D11
  3
EZDXF
 10
61.0
 20
24.4
 30
0.0
 11
60.35
 21
30.7
 31
0.0
 70
32
 71
5
  1
<>
100
AcDbAlignedDimension
 13
82.0
 23
24.4
 33
0.0
 14
82.0
 24
37.0
 34
0.0
 50
90.0
100
AcDbRotatedDimension
1001
ACAD
1000
DSTYLE
1002
{
1070
140
1040
0.9
1070
41
1040
0.45
1070
44
1040
0.3
1070
42
1040
0.35
1070
147
1040
0.2
1070
271
1070
1
1070
3
1000
<>'
1070
178
1070
1
1070
176
1070
1
1070
177
1070
1
1002
}
  0
TEXT
  5
229
330
17
100
AcDbEntity
  8
G-TITLE
100
AcDbText
 10
65.0
 20
8.0
 30
0.0
 40
1.4
  1
SECTION A-A (THROUGH THE STEM, LOOKING NORTH)
 11
65.0
 21
8.0
 31
0.0
100
AcDbText
  0
LINE
  5
22A
330
17
100
AcDbEntity
  8
G-TITLE
100
AcDbLine
 10
65.0
 20
7.5
 30
0.0
 11
105.0
 21
7.5
 31
0.0
  0
ENDSEC
  0
SECTION
  2
OBJECTS
  0
DICTIONARY
  5
A
330
0
100
AcDbDictionary
281
1
  3
ACAD_COLOR
350
B
  3
ACAD_GROUP
350
C
  3
ACAD_LAYOUT
350
D
  3
ACAD_MATERIAL
350
E
  3
ACAD_MLEADERSTYLE
350
F
  3
ACAD_MLINESTYLE
350
10
  3
ACAD_PLOTSETTINGS
350
11
  3
ACAD_PLOTSTYLENAME
350
12
  3
ACAD_SCALELIST
350
14
  3
ACAD_TABLESTYLE
350
15
  3
ACAD_VISUALSTYLE
350
16
  3
EZDXF_META
350
2D
  0
DICTIONARY
  5
B
330
A
100
AcDbDictionary
281
1
  0
DICTIONARY
  5
C
330
A
100
AcDbDictionary
281
1
  0
DICTIONARY
  5
D
330
A
100
AcDbDictionary
281
1
  3
Model
350
1A
  3
Layout1
350
1E
  0
DICTIONARY
  5
E
330
A
100
AcDbDictionary
281
1
  3
ByBlock
350
1F
  3
ByLayer
350
20
  3
Global
350
21
  0
DICTIONARY
  5
F
330
A
100
AcDbDictionary
281
1
  3
Standard
350
2C
  0
DICTIONARY
  5
10
330
A
100
AcDbDictionary
281
1
  3
Standard
350
22
  0
DICTIONARY
  5
11
330
A
100
AcDbDictionary
281
1
  0
ACDBDICTIONARYWDFLT
  5
12
330
A
100
AcDbDictionary
281
1
  3
Normal
350
13
100
AcDbDictionaryWithDefault
340
13
  0
ACDBPLACEHOLDER
  5
13
330
12
  0
DICTIONARY
  5
14
330
A
100
AcDbDictionary
281
1
  0
DICTIONARY
  5
15
330
A
100
AcDbDictionary
281
1
  0
DICTIONARY
  5
16
330
A
100
AcDbDictionary
281
1
  3
2dWireframe
350
5A
  3
Basic
350
5B
  3
Brighten
350
5C
  3
ColorChange
350
5D
  3
Conceptual
350
5E
  3
Dim
350
5F
  3
EdgeColorOff
350
60
  3
Facepattern
350
61
  3
Flat
350
62
  3
FlatWithEdges
350
63
  3
Gouraud
350
64
  3
GouraudWithEdges
350
65
  3
Hidden
350
66
  3
JitterOff
350
67
  3
Linepattern
350
68
  3
Modeling
350
69
  3
OverhangOff
350
6A
  3
Realistic
350
6B
  3
Shaded
350
6C
  3
Shaded with edges
350
6D
  3
Shades of Gray
350
6E
  3
Sketchy
350
6F
  3
Thicken
350
70
  3
Wireframe
350
71
  3
X-Ray
350
72
  0
LAYOUT
  5
1A
330
D
100
AcDbPlotSettings
  1

  4
A3
  6

 40
7.5
 41
20.0
 42
7.5
 43
20.0
 44
420.0
 45
297.0
 46
0.0
 47
0.0
 48
0.0
 49
0.0
140
0.0
141
0.0
142
1.0
143
1.0
 70
1024
 72
1
 73
0
 74
5
  7

 75
16
 76
0
 77
2
 78
300
147
1.0
148
0.0
149
0.0
100
AcDbLayout
  1
Model
 70
1
 71
0
 10
0.0
 20
0.0
 11
420.0
 21
297.0
 12
0.0
 22
0.0
 32
0.0
 14
1e+20
 24
1e+20
 34
1e+20
 15
-1e+20
 25
-1e+20
 35
-1e+20
146
0.0
 13
0.0
 23
0.0
 33
0.0
 16
1.0
 26
0.0
 36
0.0
 17
0.0
 27
1.0
 37
0.0
 76
1
330
17
  0
LAYOUT
  5
1E
330
D
100
AcDbPlotSettings
  1

  4
A3
  6

 40
7.5
 41
20.0
 42
7.5
 43
20.0
 44
420.0
 45
297.0
 46
0.0
 47
0.0
 48
0.0
 49
0.0
140
0.0
141
0.0
142
1.0
143
1.0
 70
0
 72
1
 73
0
 74
5
  7

 75
16
 76
0
 77
2
 78
300
147
1.0
148
0.0
149
0.0
100
AcDbLayout
  1
Layout1
 70
1
 71
1
 10
0.0
 20
0.0
 11
420.0
 21
297.0
 12
0.0
 22
0.0
 32
0.0
 14
1e+20
 24
1e+20
 34
1e+20
 15
-1e+20
 25
-1e+20
 35
-1e+20
146
0.0
 13
0.0
 23
0.0
 33
0.0
 16
1.0
 26
0.0
 36
0.0
 17
0.0
 27
1.0
 37
0.0
 76
1
330
1B
  0
MATERIAL
  5
1F
102
{ACAD_REACTORS
330
E
102
}
330
E
100
AcDbMaterial
  1
ByBlock
  2

 70
0
 40
1.0
 71
1
 41
1.0
 91
-1023410177
 42
1.0
 72
1
  3

 73
1
 74
1
 75
1
 44
0.5
 73
0
 45
1.0
 46
1.0
 77
1
  4

 78
1
 79
1
170
1
 48
1.0
171
1
  6

172
1
173
1
174
1
140
1.0
141
1.0
175
1
  7

176
1
177
1
178
1
143
1.0
179
1
  8

270
1
271
1
272
1
145
1.0
146
1.0
273
1
  9

274
1
275
1
276
1
 42
1.0
 72
1
  3

 73
1
 74
1
 75
1
 94
63
  0
MATERIAL
  5
20
102
{ACAD_REACTORS
330
E
102
}
330
E
100
AcDbMaterial
  1
ByLayer
  2

 70
0
 40
1.0
 71
1
 41
1.0
 91
-1023410177
 42
1.0
 72
1
  3

 73
1
 74
1
 75
1
 44
0.5
 73
0
 45
1.0
 46
1.0
 77
1
  4

 78
1
 79
1
170
1
 48
1.0
171
1
  6

172
1
173
1
174
1
140
1.0
141
1.0
175
1
  7

176
1
177
1
178
1
143
1.0
179
1
  8

270
1
271
1
272
1
145
1.0
146
1.0
273
1
  9

274
1
275
1
276
1
 42
1.0
 72
1
  3

 73
1
 74
1
 75
1
 94
63
  0
MATERIAL
  5
21
102
{ACAD_REACTORS
330
E
102
}
330
E
100
AcDbMaterial
  1
Global
  2

 70
0
 40
1.0
 71
1
 41
1.0
 91
-1023410177
 42
1.0
 72
1
  3

 73
1
 74
1
 75
1
 44
0.5
 73
0
 45
1.0
 46
1.0
 77
1
  4

 78
1
 79
1
170
1
 48
1.0
171
1
  6

172
1
173
1
174
1
140
1.0
141
1.0
175
1
  7

176
1
177
1
178
1
143
1.0
179
1
  8

270
1
271
1
272
1
145
1.0
146
1.0
273
1
  9

274
1
275
1
276
1
 42
1.0
 72
1
  3

 73
1
 74
1
 75
1
 94
63
  0
MLINESTYLE
  5
22
102
{ACAD_REACTORS
330
10
102
}
330
10
100
AcDbMlineStyle
  2
Standard
 70
0
  3

 62
256
 51
90.0
 52
90.0
 71
2
 49
0.5
 62
256
  6
BYLAYER
 49
-0.5
 62
256
  6
BYLAYER
  0
MLEADERSTYLE
  5
2C
102
{ACAD_REACTORS
330
F
102
}
330
F
100
AcDbMLeaderStyle
179
2
170
2
171
1
172
0
 90
2
 40
0.0
 41
0.0
173
1
 91
-1056964608
 92
-2
290
1
 42
2.0
291
1
 43
8.0
  3
Standard
 44
4.0
300

342
29
174
1
175
1
176
0
178
1
 93
-1056964608
 45
4.0
292
0
297
0
 46
4.0
 94
-1056964608
 47
1.0
 49
1.0
140
1.0
294
1
141
0.0
177
0
142
1.0
295
0
296
0
143
3.75
271
0
272
9
273
9
  0
DICTIONARY
  5
2D
330
A
100
AcDbDictionary
280
1
281
1
  3
CREATED_BY_EZDXF
350
2E
  3
WRITTEN_BY_EZDXF
350
22D
  0
DICTIONARYVAR
  5
2E
330
2D
100
DictionaryVariables
280
0
  1
1.4.4 @ 2026-09-29T11:29:08.887165+00:00
  0
VISUALSTYLE
  5
5A
102
{ACAD_REACTORS
330
16
102
}
330
16
100
AcDbVisualStyle
  2
2dWireframe
 70
4
177
3
291
0
 70
58
 90
2
176
1
 90
2
176
1
 90
0
176
1
 90
0
176
1
 40
0.6
176
1
 40
30.0
176
1
 62
7
420
16777215
176
1
 90
1
176
1
 90
4
176
1
 62
7
176
1
 62
257
176
1
 90
1
176
1
 90
1
176
1
 40
1.0
176
1
 90
8
176
1
 62
7
176
1
 40
1.0
176
1
 90
1
176
1
 90
6
176
1
 90
2
176
1
 62
7
176
1
 90
5
176
1
 90
0
176
1
 90
0
176
1
290
0
176
1
 90
1
176
1
 40
0.0
176
1
 90
0
176
1
290
1
176
1
290
1
176
1
290
0
176
1
290
0
176
1
290
0
176
1
290
0
176
1
290
0
176
1
290
0
176
1
290
0
176
1
 90
50
176
1
 40
0.0
176
1
 40
1.0
176
1
 90
0
176
1
 62
18
420
0
176
1
 90
50
176
1
 90
3
176
1
 62
5
420
255
176
1
290
0
176
1
 90
50
176
1
 90
50
176
1
 90
50
176
1
290
0
176
1
 90
50
176
1
 62
256
176
0
 40
1.0
176
0
 90
2
176
1
  1
strokes_ogs.tif
176
1
290
0
176
1
 40
1.0
176
1
 40
1.0
176
1
  0
VISUALSTYLE
  5
5B
102
{ACAD_REACTORS
330
16
102
}
330
16
100
AcDbVisualStyle
  2
Basic
 70
7
177
3
291
1
 70
58
 90
2
176
1
 90
2
176
1
 90
0
176
1
 90
1
176
1
 40
0.6
176
1
 40
30.0
176
1
 62
7
420
16777215
176
1
 90
1
176
1
 90
4
176
1
 62
7
176
1
 62
257
176
1
 90
1
176
1
 90
1
176
1
 40
1.0
176
1
 90
8
176
1
 62
7
176
1
 40
1.0
176
1
 90
1
176
1
 90
6
176
1
 90
2
176
1
 62
7
176
1
 90
5
176
1
 90
0
176
1
 90
0
176
1
290
0
176
1
 90
1
176
1
 40
0.0
176
1
 90
0
176
1
290
0
176
1
290
1
176
1
290
1
176
1
290
0
176
1
290
0
176
1
290
0
176
1
290
0
176
1
290
0
176
1
290
0
176
1
 90
50
176
1
 40
0.0
176
1
 40
1.0
176
1
 90
0
176
1
 62
18
420
0
176
1
 90
50
176
1
 90
3
176
1
 62
5
420
255
176
1
290
0
176
1
 90
50
176
1
 90
50
176
1
 90
50
176
1
290
0
176
1
 90
50
176
1
 62
256
176
0
 40
1.0
176
0
 90
2
176
1
  1
strokes_ogs.tif
176
1
290
0
176
1
 40
1.0
176
1
 40
1.0
176
1
  0
VISUALSTYLE
  5
5C
102
{ACAD_REACTORS
330
16
102
}
330
16
100
AcDbVisualStyle
  2
Brighten
 70
12
177
3
291
1
 70
58
 90
2
176
1
 90
2
176
1
 90
0
176
1
 90
2
176
1
 40
0.6
176
1
 40
30.0
176
1
 62
7
420
16777215
176
1
 90
1
176
1
 90
4
176
1
 62
7
176
1
 62
257
176
1
 90
1
176
1
 90
1
176
1
 40
1.0
176
1
 90
8
176
1
 62
7
176
1
 40
1.0
176
1
 90
1
176
1
 90
6
176
1
 90
2
176
1
 62
7
176
1
 90
5
176
1
 90
0
176
1
 90
0
176
1
290
0
176
1
 90
1
176
1
 40
0.0
176
1
 90
0
176
1
290
0
176
1
290
1
176
1
290
1
176
1
290
0
176
1
290
0
176
1
290
0
176
1
290
0
176
1
290
0
176
1
290
0
176
1
 90
50
176
1
 40
0.0
176
1
 40
1.0
176
1
 90
0
176
1
 62
18
420
0
176
1
 90
50
176
1
 90
3
176
1
 62
5
420
255
176
1
290
0
176
1
 90
50
176
1
 90
50
176
1
 90
50
176
1
290
0
176
1
 90
50
176
1
 62
256
176
0
 40
1.0
176
0
 90
2
176
1
  1
strokes_ogs.tif
176
1
290
0
176
1
 40
1.0
176
1
 40
1.0
176
1
  0
VISUALSTYLE
  5
5D
102
{ACAD_REACTORS
330
16
102
}
330
16
100
AcDbVisualStyle
  2
ColorChange
 70
16
177
3
291
1
 70
58
 90
2
176
1
 90
2
176
1
 90
0
176
1
 90
2
176
1
 40
0.6
176
1
 40
30.0
176
1
 62
7
420
16777215
176
1
 90
1
176
1
 90
4
176
1
 62
7
176
1
 62
257
176
1
 90
1
176
1
 90
1
176
1
 40
1.0
176
1
 90
8
176
1
 62
7
176
1
 40
1.0
176
1
 90
1
176
1
 90
6
176
1
 90
2
176
1
 62
7
176
1
 90
5
176
1
 90
0
176
1
 90
0
176
1
290
0
176
1
 90
1
176
1
 40
0.0
176
1
 90
0
176
1
290
0
176
1
290
1
176
1
290
1
176
1
290
0
176
1
290
0
176
1
290
0
176
1
290
0
176
1
290
0
176
1
290
0
176
1
 90
50
176
1
 40
0.0
176
1
 40
1.0
176
1
 90
0
176
1
 62
18
420
0
176
1
 90
50
176
1
 90
3
176
1
 62
5
420
255
176
1
290
0
176
1
 90
50
176
1
 90
50
176
1
 90
50
176
1
290
0
176
1
 90
50
176
1
 62
256
176
0
 40
1.0
176
0
 90
2
176
1
  1
strokes_ogs.tif
176
1
290
0
176
1
 40
1.0
176
1
 40
1.0
176
1
  0
VISUALSTYLE
  5
5E
102
{ACAD_REACTORS
330
16
102
}
330
16
100
AcDbVisualStyle
  2
Conceptual
 70
9
177
3
291
0
 70
58
 90
2
176
1
 90
2
176
1
 90
0
176
1
 90
3
176
1
 40
0.6
176
1
 40
30.0
176
1
 62
7
420
16777215
176
1
 90
1
176
1
 90
4
176
1
 62
7
176
1
 62
257
176
1
 90
1
176
1
 90
1
176
1
 40
1.0
176
1
 90
8
176
1
 62
7
176
1
 40
1.0
176
1
 90
1
176
1
 90
6
176
1
 90
2
176
1
 62
7
176
1
 90
5
176
1
 90
0
176
1
 90
0
176
1
290
0
176
1
 90
1
176
1
 40
0.0
176
1
 90
0
176
1
290
0
176
1
290
1
176
1
290
1
176
1
290
0
176
1
290
0
176
1
290
0
176
1
290
0
176
1
290
0
176
1
290
0
176
1
 90
50
176
1
 40
0.0
176
1
 40
1.0
176
1
 90
0
176
1
 62
18
420
0
176
1
 90
50
176
1
 90
3
176
1
 62
5
420
255
176
1
290
0
176
1
 90
50
176
1
 90
50
176
1
 90
50
176
1
290
0
176
1
 90
50
176
1
 62
256
176
0
 40
1.0
176
0
 90
2
176
1
  1
strokes_ogs.tif
176
1
290
0
176
1
 40
1.0
176
1
 40
1.0
176
1
  0
VISUALSTYLE
  5
5F
102
{ACAD_REACTORS
330
16
102
}
330
16
100
AcDbVisualStyle
  2
Dim
 70
11
177
3
291
1
 70
58
 90
2
176
1
 90
2
176
1
 90
0
176
1
 90
2
176
1
 40
0.6
176
1
 40
30.0
176
1
 62
7
420
16777215
176
1
 90
1
176
1
 90
4
176
1
 62
7
176
1
 62
257
176
1
 90
1
176
1
 90
1
176
1
 40
1.0
176
1
 90
8
176
1
 62
7
176
1
 40
1.0
176
1
 90
1
176
1
 90
6
176
1
 90
2
176
1
 62
7
176
1
 90
5
176
1
 90
0
176
1
 90
0
176
1
290
0
176
1
 90
1
176
1
 40
0.0
176
1
 90
0
176
1
290
0
176
1
290
1
176
1
290
1
176
1
290
0
176
1
290
0
176
1
290
0
176
1
290
0
176
1
290
0
176
1
290
0
176
1
 90
50
176
1
 40
0.0
176
1
 40
1.0
176
1
 90
0
176
1
 62
18
420
0
176
1
 90
50
176
1
 90
3
176
1
 62
5
420
255
176
1
290
0
176
1
 90
50
176
1
 90
50
176
1
 90
50
176
1
290
0
176
1
 90
50
176
1
 62
256
176
0
 40
1.0
176
0
 90
2
176
1
  1
strokes_ogs.tif
176
1
290
0
176
1
 40
1.0
176
1
 40
1.0
176
1
  0
VISUALSTYLE
  5
60
102
{ACAD_REACTORS
330
16
102
}
330
16
100
AcDbVisualStyle
  2
EdgeColorOff
 70
22
177
3
291
1
 70
58
 90
2
176
1
 90
2
176
1
 90
0
176
1
 90
2
176
1
 40
0.6
176
1
 40
30.0
176
1
 62
7
420
16777215
176
1
 90
1
176
1
 90
4
176
1
 62
7
176
1
 62
257
176
1
 90
1
176
1
 90
1
176
1
 40
1.0
176
1
 90
8
176
1
 62
7
176
1
 40
1.0
176
1
 90
1
176
1
 90
6
176
1
 90
2
176
1
 62
7
176
1
 90
5
176
1
 90
0
176
1
 90
0
176
1
290
0
176
1
 90
1
176
1
 40
0.0
176
1
 90
0
176
1
290
0
176
1
290
1
176
1
290
1
176
1
290
0
176
1
290
0
176
1
290
0
176
1
290
0
176
1
290
0
176
1
290
0
176
1
 90
50
176
1
 40
0.0
176
1
 40
1.0
176
1
 90
0
176
1
 62
18
420
0
176
1
 90
50
176
1
 90
3
176
1
 62
5
420
255
176
1
290
0
176
1
 90
50
176
1
 90
50
176
1
 90
50
176
1
290
0
176
1
 90
50
176
1
 62
256
176
0
 40
1.0
176
0
 90
2
176
1
  1
strokes_ogs.tif
176
1
290
0
176
1
 40
1.0
176
1
 40
1.0
176
1
  0
VISUALSTYLE
  5
61
102
{ACAD_REACTORS
330
16
102
}
330
16
100
AcDbVisualStyle
  2
Facepattern
 70
15
177
3
291
1
 70
58
 90
2
176
1
 90
2
176
1
 90
0
176
1
 90
2
176
1
 40
0.6
176
1
 40
30.0
176
1
 62
7
420
16777215
176
1
 90
1
176
1
 90
4
176
1
 62
7
176
1
 62
257
176
1
 90
1
176
1
 90
1
176
1
 40
1.0
176
1
 90
8
176
1
 62
7
176
1
 40
1.0
176
1
 90
1
176
1
 90
6
176
1
 90
2
176
1
 62
7
176
1
 90
5
176
1
 90
0
176
1
 90
0
176
1
290
0
176
1
 90
1
176
1
 40
0.0
176
1
 90
0
176
1
290
0
176
1
290
1
176
1
290
1
176
1
290
0
176
1
290
0
176
1
290
0
176
1
290
0
176
1
290
0
176
1
290
0
176
1
 90
50
176
1
 40
0.0
176
1
 40
1.0
176
1
 90
0
176
1
 62
18
420
0
176
1
 90
50
176
1
 90
3
176
1
 62
5
420
255
176
1
290
0
176
1
 90
50
176
1
 90
50
176
1
 90
50
176
1
290
0
176
1
 90
50
176
1
 62
256
176
0
 40
1.0
176
0
 90
2
176
1
  1
strokes_ogs.tif
176
1
290
0
176
1
 40
1.0
176
1
 40
1.0
176
1
  0
VISUALSTYLE
  5
62
102
{ACAD_REACTORS
330
16
102
}
330
16
100
AcDbVisualStyle
  2
Flat
 70
0
177
3
291
1
 70
58
 90
2
176
1
 90
2
176
1
 90
0
176
1
 90
2
176
1
 40
0.6
176
1
 40
30.0
176
1
 62
7
420
16777215
176
1
 90
1
176
1
 90
4
176
1
 62
7
176
1
 62
257
176
1
 90
1
176
1
 90
1
176
1
 40
1.0
176
1
 90
8
176
1
 62
7
176
1
 40
1.0
176
1
 90
1
176
1
 90
6
176
1
 90
2
176
1
 62
7
176
1
 90
5
176
1
 90
0
176
1
 90
0
176
1
290
0
176
1
 90
1
176
1
 40
0.0
176
1
 90
0
176
1
290
0
176
1
290
1
176
1
290
1
176
1
290
0
176
1
290
0
176
1
290
0
176
1
290
0
176
1
290
0
176
1
290
0
176
1
 90
50
176
1
 40
0.0
176
1
 40
1.0
176
1
 90
0
176
1
 62
18
420
0
176
1
 90
50
176
1
 90
3
176
1
 62
5
420
255
176
1
290
0
176
1
 90
50
176
1
 90
50
176
1
 90
50
176
1
290
0
176
1
 90
50
176
1
 62
256
176
0
 40
1.0
176
0
 90
2
176
1
  1
strokes_ogs.tif
176
1
290
0
176
1
 40
1.0
176
1
 40
1.0
176
1
  0
VISUALSTYLE
  5
63
102
{ACAD_REACTORS
330
16
102
}
330
16
100
AcDbVisualStyle
  2
FlatWithEdges
 70
1
177
3
291
1
 70
58
 90
2
176
1
 90
2
176
1
 90
0
176
1
 90
2
176
1
 40
0.6
176
1
 40
30.0
176
1
 62
7
420
16777215
176
1
 90
1
176
1
 90
4
176
1
 62
7
176
1
 62
257
176
1
 90
1
176
1
 90
1
176
1
 40
1.0
176
1
 90
8
176
1
 62
7
176
1
 40
1.0
176
1
 90
1
176
1
 90
6
176
1
 90
2
176
1
 62
7
176
1
 90
5
176
1
 90
0
176
1
 90
0
176
1
290
0
176
1
 90
1
176
1
 40
0.0
176
1
 90
0
176
1
290
0
176
1
290
1
176
1
290
1
176
1
290
0
176
1
290
0
176
1
290
0
176
1
290
0
176
1
290
0
176
1
290
0
176
1
 90
50
176
1
 40
0.0
176
1
 40
1.0
176
1
 90
0
176
1
 62
18
420
0
176
1
 90
50
176
1
 90
3
176
1
 62
5
420
255
176
1
290
0
176
1
 90
50
176
1
 90
50
176
1
 90
50
176
1
290
0
176
1
 90
50
176
1
 62
256
176
0
 40
1.0
176
0
 90
2
176
1
  1
strokes_ogs.tif
176
1
290
0
176
1
 40
1.0
176
1
 40
1.0
176
1
  0
VISUALSTYLE
  5
64
102
{ACAD_REACTORS
330
16
102
}
330
16
100
AcDbVisualStyle
  2
Gouraud
 70
2
177
3
291
1
 70
58
 90
2
176
1
 90
2
176
1
 90
0
176
1
 90
2
176
1
 40
0.6
176
1
 40
30.0
176
1
 62
7
420
16777215
176
1
 90
1
176
1
 90
4
176
1
 62
7
176
1
 62
257
176
1
 90
1
176
1
 90
1
176
1
 40
1.0
176
1
 90
8
176
1
 62
7
176
1
 40
1.0
176
1
 90
1
176
1
 90
6
176
1
 90
2
176
1
 62
7
176
1
 90
5
176
1
 90
0
176
1
 90
0
176
1
290
0
176
1
 90
1
176
1
 40
0.0
176
1
 90
0
176
1
290
0
176
1
290
1
176
1
290
1
176
1
290
0
176
1
290
0
176
1
290
0
176
1
290
0
176
1
290
0
176
1
290
0
176
1
 90
50
176
1
 40
0.0
176
1
 40
1.0
176
1
 90
0
176
1
 62
18
420
0
176
1
 90
50
176
1
 90
3
176
1
 62
5
420
255
176
1
290
0
176
1
 90
50
176
1
 90
50
176
1
 90
50
176
1
290
0
176
1
 90
50
176
1
 62
256
176
0
 40
1.0
176
0
 90
2
176
1
  1
strokes_ogs.tif
176
1
290
0
176
1
 40
1.0
176
1
 40
1.0
176
1
  0
VISUALSTYLE
  5
65
102
{ACAD_REACTORS
330
16
102
}
330
16
100
AcDbVisualStyle
  2
GouraudWithEdges
 70
3
177
3
291
1
 70
58
 90
2
176
1
 90
2
176
1
 90
0
176
1
 90
2
176
1
 40
0.6
176
1
 40
30.0
176
1
 62
7
420
16777215
176
1
 90
1
176
1
 90
4
176
1
 62
7
176
1
 62
257
176
1
 90
1
176
1
 90
1
176
1
 40
1.0
176
1
 90
8
176
1
 62
7
176
1
 40
1.0
176
1
 90
1
176
1
 90
6
176
1
 90
2
176
1
 62
7
176
1
 90
5
176
1
 90
0
176
1
 90
0
176
1
290
0
176
1
 90
1
176
1
 40
0.0
176
1
 90
0
176
1
290
0
176
1
290
1
176
1
290
1
176
1
290
0
176
1
290
0
176
1
290
0
176
1
290
0
176
1
290
0
176
1
290
0
176
1
 90
50
176
1
 40
0.0
176
1
 40
1.0
176
1
 90
0
176
1
 62
18
420
0
176
1
 90
50
176
1
 90
3
176
1
 62
5
420
255
176
1
290
0
176
1
 90
50
176
1
 90
50
176
1
 90
50
176
1
290
0
176
1
 90
50
176
1
 62
256
176
0
 40
1.0
176
0
 90
2
176
1
  1
strokes_ogs.tif
176
1
290
0
176
1
 40
1.0
176
1
 40
1.0
176
1
  0
VISUALSTYLE
  5
66
102
{ACAD_REACTORS
330
16
102
}
330
16
100
AcDbVisualStyle
  2
Hidden
 70
6
177
3
291
0
 70
58
 90
2
176
1
 90
2
176
1
 90
0
176
1
 90
1
176
1
 40
0.6
176
1
 40
30.0
176
1
 62
7
420
16777215
176
1
 90
1
176
1
 90
4
176
1
 62
7
176
1
 62
257
176
1
 90
1
176
1
 90
1
176
1
 40
1.0
176
1
 90
8
176
1
 62
7
176
1
 40
1.0
176
1
 90
1
176
1
 90
6
176
1
 90
2
176
1
 62
7
176
1
 90
5
176
1
 90
0
176
1
 90
0
176
1
290
0
176
1
 90
1
176
1
 40
0.0
176
1
 90
0
176
1
290
0
176
1
290
1
176
1
290
1
176
1
290
0
176
1
290
0
176
1
290
0
176
1
290
0
176
1
290
0
176
1
290
0
176
1
 90
50
176
1
 40
0.0
176
1
 40
1.0
176
1
 90
0
176
1
 62
18
420
0
176
1
 90
50
176
1
 90
3
176
1
 62
5
420
255
176
1
290
0
176
1
 90
50
176
1
 90
50
176
1
 90
50
176
1
290
0
176
1
 90
50
176
1
 62
256
176
0
 40
1.0
176
0
 90
2
176
1
  1
strokes_ogs.tif
176
1
290
0
176
1
 40
1.0
176
1
 40
1.0
176
1
  0
VISUALSTYLE
  5
67
102
{ACAD_REACTORS
330
16
102
}
330
16
100
AcDbVisualStyle
  2
JitterOff
 70
20
177
3
291
1
 70
58
 90
2
176
1
 90
2
176
1
 90
0
176
1
 90
2
176
1
 40
0.6
176
1
 40
30.0
176
1
 62
7
420
16777215
176
1
 90
1
176
1
 90
4
176
1
 62
7
176
1
 62
257
176
1
 90
1
176
1
 90
1
176
1
 40
1.0
176
1
 90
8
176
1
 62
7
176
1
 40
1.0
176
1
 90
1
176
1
 90
6
176
1
 90
2
176
1
 62
7
176
1
 90
5
176
1
 90
0
176
1
 90
0
176
1
290
0
176
1
 90
1
176
1
 40
0.0
176
1
 90
0
176
1
290
0
176
1
290
1
176
1
290
1
176
1
290
0
176
1
290
0
176
1
290
0
176
1
290
0
176
1
290
0
176
1
290
0
176
1
 90
50
176
1
 40
0.0
176
1
 40
1.0
176
1
 90
0
176
1
 62
18
420
0
176
1
 90
50
176
1
 90
3
176
1
 62
5
420
255
176
1
290
0
176
1
 90
50
176
1
 90
50
176
1
 90
50
176
1
290
0
176
1
 90
50
176
1
 62
256
176
0
 40
1.0
176
0
 90
2
176
1
  1
strokes_ogs.tif
176
1
290
0
176
1
 40
1.0
176
1
 40
1.0
176
1
  0
VISUALSTYLE
  5
68
102
{ACAD_REACTORS
330
16
102
}
330
16
100
AcDbVisualStyle
  2
Linepattern
 70
14
177
3
291
1
 70
58
 90
2
176
1
 90
2
176
1
 90
0
176
1
 90
2
176
1
 40
0.6
176
1
 40
30.0
176
1
 62
7
420
16777215
176
1
 90
1
176
1
 90
4
176
1
 62
7
176
1
 62
257
176
1
 90
1
176
1
 90
1
176
1
 40
1.0
176
1
 90
8
176
1
 62
7
176
1
 40
1.0
176
1
 90
1
176
1
 90
6
176
1
 90
2
176
1
 62
7
176
1
 90
5
176
1
 90
0
176
1
 90
0
176
1
290
0
176
1
 90
1
176
1
 40
0.0
176
1
 90
0
176
1
290
0
176
1
290
1
176
1
290
1
176
1
290
0
176
1
290
0
176
1
290
0
176
1
290
0
176
1
290
0
176
1
290
0
176
1
 90
50
176
1
 40
0.0
176
1
 40
1.0
176
1
 90
0
176
1
 62
18
420
0
176
1
 90
50
176
1
 90
3
176
1
 62
5
420
255
176
1
290
0
176
1
 90
50
176
1
 90
50
176
1
 90
50
176
1
290
0
176
1
 90
50
176
1
 62
256
176
0
 40
1.0
176
0
 90
2
176
1
  1
strokes_ogs.tif
176
1
290
0
176
1
 40
1.0
176
1
 40
1.0
176
1
  0
VISUALSTYLE
  5
69
102
{ACAD_REACTORS
330
16
102
}
330
16
100
AcDbVisualStyle
  2
Modeling
 70
10
177
3
291
0
 70
58
 90
2
176
1
 90
2
176
1
 90
0
176
1
 90
2
176
1
 40
0.6
176
1
 40
30.0
176
1
 62
7
420
16777215
176
1
 90
1
176
1
 90
4
176
1
 62
7
176
1
 62
257
176
1
 90
1
176
1
 90
1
176
1
 40
1.0
176
1
 90
8
176
1
 62
7
176
1
 40
1.0
176
1
 90
1
176
1
 90
6
176
1
 90
2
176
1
 62
7
176
1
 90
5
176
1
 90
0
176
1
 90
0
176
1
290
0
176
1
 90
1
176
1
 40
0.0
176
1
 90
0
176
1
290
0
176
1
290
1
176
1
290
1
176
1
290
0
176
1
290
0
176
1
290
0
176
1
290
0
176
1
290
0
176
1
290
0
176
1
 90
50
176
1
 40
0.0
176
1
 40
1.0
176
1
 90
0
176
1
 62
18
420
0
176
1
 90
50
176
1
 90
3
176
1
 62
5
420
255
176
1
290
0
176
1
 90
50
176
1
 90
50
176
1
 90
50
176
1
290
0
176
1
 90
50
176
1
 62
256
176
0
 40
1.0
176
0
 90
2
176
1
  1
strokes_ogs.tif
176
1
290
0
176
1
 40
1.0
176
1
 40
1.0
176
1
  0
VISUALSTYLE
  5
6A
102
{ACAD_REACTORS
330
16
102
}
330
16
100
AcDbVisualStyle
  2
OverhangOff
 70
21
177
3
291
1
 70
58
 90
2
176
1
 90
2
176
1
 90
0
176
1
 90
2
176
1
 40
0.6
176
1
 40
30.0
176
1
 62
7
420
16777215
176
1
 90
1
176
1
 90
4
176
1
 62
7
176
1
 62
257
176
1
 90
1
176
1
 90
1
176
1
 40
1.0
176
1
 90
8
176
1
 62
7
176
1
 40
1.0
176
1
 90
1
176
1
 90
6
176
1
 90
2
176
1
 62
7
176
1
 90
5
176
1
 90
0
176
1
 90
0
176
1
290
0
176
1
 90
1
176
1
 40
0.0
176
1
 90
0
176
1
290
0
176
1
290
1
176
1
290
1
176
1
290
0
176
1
290
0
176
1
290
0
176
1
290
0
176
1
290
0
176
1
290
0
176
1
 90
50
176
1
 40
0.0
176
1
 40
1.0
176
1
 90
0
176
1
 62
18
420
0
176
1
 90
50
176
1
 90
3
176
1
 62
5
420
255
176
1
290
0
176
1
 90
50
176
1
 90
50
176
1
 90
50
176
1
290
0
176
1
 90
50
176
1
 62
256
176
0
 40
1.0
176
0
 90
2
176
1
  1
strokes_ogs.tif
176
1
290
0
176
1
 40
1.0
176
1
 40
1.0
176
1
  0
VISUALSTYLE
  5
6B
102
{ACAD_REACTORS
330
16
102
}
330
16
100
AcDbVisualStyle
  2
Realistic
 70
8
177
3
291
0
 70
58
 90
2
176
1
 90
2
176
1
 90
0
176
1
 90
2
176
1
 40
0.6
176
1
 40
30.0
176
1
 62
7
420
16777215
176
1
 90
1
176
1
 90
4
176
1
 62
7
176
1
 62
257
176
1
 90
1
176
1
 90
1
176
1
 40
1.0
176
1
 90
8
176
1
 62
7
176
1
 40
1.0
176
1
 90
1
176
1
 90
6
176
1
 90
2
176
1
 62
7
176
1
 90
5
176
1
 90
0
176
1
 90
0
176
1
290
0
176
1
 90
1
176
1
 40
0.0
176
1
 90
0
176
1
290
0
176
1
290
1
176
1
290
1
176
1
290
0
176
1
290
0
176
1
290
0
176
1
290
0
176
1
290
0
176
1
290
0
176
1
 90
50
176
1
 40
0.0
176
1
 40
1.0
176
1
 90
0
176
1
 62
18
420
0
176
1
 90
50
176
1
 90
3
176
1
 62
5
420
255
176
1
290
0
176
1
 90
50
176
1
 90
50
176
1
 90
50
176
1
290
0
176
1
 90
50
176
1
 62
256
176
0
 40
1.0
176
0
 90
2
176
1
  1
strokes_ogs.tif
176
1
290
0
176
1
 40
1.0
176
1
 40
1.0
176
1
  0
VISUALSTYLE
  5
6C
102
{ACAD_REACTORS
330
16
102
}
330
16
100
AcDbVisualStyle
  2
Shaded
 70
27
177
3
291
0
 70
58
 90
2
176
1
 90
2
176
1
 90
0
176
1
 90
2
176
1
 40
0.6
176
1
 40
30.0
176
1
 62
7
420
16777215
176
1
 90
1
176
1
 90
4
176
1
 62
7
176
1
 62
257
176
1
 90
1
176
1
 90
1
176
1
 40
1.0
176
1
 90
8
176
1
 62
7
176
1
 40
1.0
176
1
 90
1
176
1
 90
6
176
1
 90
2
176
1
 62
7
176
1
 90
5
176
1
 90
0
176
1
 90
0
176
1
290
0
176
1
 90
1
176
1
 40
0.0
176
1
 90
0
176
1
290
0
176
1
290
1
176
1
290
1
176
1
290
0
176
1
290
0
176
1
290
0
176
1
290
0
176
1
290
0
176
1
290
0
176
1
 90
50
176
1
 40
0.0
176
1
 40
1.0
176
1
 90
0
176
1
 62
18
420
0
176
1
 90
50
176
1
 90
3
176
1
 62
5
420
255
176
1
290
0
176
1
 90
50
176
1
 90
50
176
1
 90
50
176
1
290
0
176
1
 90
50
176
1
 62
256
176
0
 40
1.0
176
0
 90
2
176
1
  1
strokes_ogs.tif
176
1
290
0
176
1
 40
1.0
176
1
 40
1.0
176
1
  0
VISUALSTYLE
  5
6D
102
{ACAD_REACTORS
330
16
102
}
330
16
100
AcDbVisualStyle
  2
Shaded with edges
 70
26
177
3
291
0
 70
58
 90
2
176
1
 90
2
176
1
 90
0
176
1
 90
2
176
1
 40
0.6
176
1
 40
30.0
176
1
 62
7
420
16777215
176
1
 90
1
176
1
 90
4
176
1
 62
7
176
1
 62
257
176
1
 90
1
176
1
 90
1
176
1
 40
1.0
176
1
 90
8
176
1
 62
7
176
1
 40
1.0
176
1
 90
1
176
1
 90
6
176
1
 90
2
176
1
 62
7
176
1
 90
5
176
1
 90
0
176
1
 90
0
176
1
290
0
176
1
 90
1
176
1
 40
0.0
176
1
 90
0
176
1
290
0
176
1
290
1
176
1
290
1
176
1
290
0
176
1
290
0
176
1
290
0
176
1
290
0
176
1
290
0
176
1
290
0
176
1
 90
50
176
1
 40
0.0
176
1
 40
1.0
176
1
 90
0
176
1
 62
18
420
0
176
1
 90
50
176
1
 90
3
176
1
 62
5
420
255
176
1
290
0
176
1
 90
50
176
1
 90
50
176
1
 90
50
176
1
290
0
176
1
 90
50
176
1
 62
256
176
0
 40
1.0
176
0
 90
2
176
1
  1
strokes_ogs.tif
176
1
290
0
176
1
 40
1.0
176
1
 40
1.0
176
1
  0
VISUALSTYLE
  5
6E
102
{ACAD_REACTORS
330
16
102
}
330
16
100
AcDbVisualStyle
  2
Shades of Gray
 70
23
177
3
291
0
 70
58
 90
2
176
1
 90
2
176
1
 90
0
176
1
 90
2
176
1
 40
0.6
176
1
 40
30.0
176
1
 62
7
420
16777215
176
1
 90
1
176
1
 90
4
176
1
 62
7
176
1
 62
257
176
1
 90
1
176
1
 90
1
176
1
 40
1.0
176
1
 90
8
176
1
 62
7
176
1
 40
1.0
176
1
 90
1
176
1
 90
6
176
1
 90
2
176
1
 62
7
176
1
 90
5
176
1
 90
0
176
1
 90
0
176
1
290
0
176
1
 90
1
176
1
 40
0.0
176
1
 90
0
176
1
290
0
176
1
290
1
176
1
290
1
176
1
290
0
176
1
290
0
176
1
290
0
176
1
290
0
176
1
290
0
176
1
290
0
176
1
 90
50
176
1
 40
0.0
176
1
 40
1.0
176
1
 90
0
176
1
 62
18
420
0
176
1
 90
50
176
1
 90
3
176
1
 62
5
420
255
176
1
290
0
176
1
 90
50
176
1
 90
50
176
1
 90
50
176
1
290
0
176
1
 90
50
176
1
 62
256
176
0
 40
1.0
176
0
 90
2
176
1
  1
strokes_ogs.tif
176
1
290
0
176
1
 40
1.0
176
1
 40
1.0
176
1
  0
VISUALSTYLE
  5
6F
102
{ACAD_REACTORS
330
16
102
}
330
16
100
AcDbVisualStyle
  2
Sketchy
 70
24
177
3
291
0
 70
58
 90
2
176
1
 90
2
176
1
 90
0
176
1
 90
1
176
1
 40
0.6
176
1
 40
30.0
176
1
 62
7
420
16777215
176
1
 90
1
176
1
 90
4
176
1
 62
7
176
1
 62
257
176
1
 90
1
176
1
 90
1
176
1
 40
1.0
176
1
 90
8
176
1
 62
7
176
1
 40
1.0
176
1
 90
1
176
1
 90
6
176
1
 90
2
176
1
 62
7
176
1
 90
5
176
1
 90
0
176
1
 90
0
176
1
290
0
176
1
 90
1
176
1
 40
0.0
176
1
 90
0
176
1
290
0
176
1
290
1
176
1
290
1
176
1
290
0
176
1
290
0
176
1
290
0
176
1
290
0
176
1
290
0
176
1
290
0
176
1
 90
50
176
1
 40
0.0
176
1
 40
1.0
176
1
 90
0
176
1
 62
18
420
0
176
1
 90
50
176
1
 90
3
176
1
 62
5
420
255
176
1
290
0
176
1
 90
50
176
1
 90
50
176
1
 90
50
176
1
290
0
176
1
 90
50
176
1
 62
256
176
0
 40
1.0
176
0
 90
2
176
1
  1
strokes_ogs.tif
176
1
290
0
176
1
 40
1.0
176
1
 40
1.0
176
1
  0
VISUALSTYLE
  5
70
102
{ACAD_REACTORS
330
16
102
}
330
16
100
AcDbVisualStyle
  2
Thicken
 70
13
177
3
291
1
 70
58
 90
2
176
1
 90
2
176
1
 90
0
176
1
 90
2
176
1
 40
0.6
176
1
 40
30.0
176
1
 62
7
420
16777215
176
1
 90
1
176
1
 90
4
176
1
 62
7
176
1
 62
257
176
1
 90
1
176
1
 90
1
176
1
 40
1.0
176
1
 90
8
176
1
 62
7
176
1
 40
1.0
176
1
 90
1
176
1
 90
6
176
1
 90
2
176
1
 62
7
176
1
 90
5
176
1
 90
0
176
1
 90
0
176
1
290
0
176
1
 90
1
176
1
 40
0.0
176
1
 90
0
176
1
290
0
176
1
290
1
176
1
290
1
176
1
290
0
176
1
290
0
176
1
290
0
176
1
290
0
176
1
290
0
176
1
290
0
176
1
 90
50
176
1
 40
0.0
176
1
 40
1.0
176
1
 90
0
176
1
 62
18
420
0
176
1
 90
50
176
1
 90
3
176
1
 62
5
420
255
176
1
290
0
176
1
 90
50
176
1
 90
50
176
1
 90
50
176
1
290
0
176
1
 90
50
176
1
 62
256
176
0
 40
1.0
176
0
 90
2
176
1
  1
strokes_ogs.tif
176
1
290
0
176
1
 40
1.0
176
1
 40
1.0
176
1
  0
VISUALSTYLE
  5
71
102
{ACAD_REACTORS
330
16
102
}
330
16
100
AcDbVisualStyle
  2
Wireframe
 70
5
177
3
291
0
 70
58
 90
2
176
1
 90
2
176
1
 90
0
176
1
 90
0
176
1
 40
0.6
176
1
 40
30.0
176
1
 62
7
420
16777215
176
1
 90
1
176
1
 90
4
176
1
 62
7
176
1
 62
257
176
1
 90
1
176
1
 90
1
176
1
 40
1.0
176
1
 90
8
176
1
 62
7
176
1
 40
1.0
176
1
 90
1
176
1
 90
6
176
1
 90
2
176
1
 62
7
176
1
 90
5
176
1
 90
0
176
1
 90
0
176
1
290
0
176
1
 90
1
176
1
 40
0.0
176
1
 90
0
176
1
290
0
176
1
290
1
176
1
290
1
176
1
290
0
176
1
290
0
176
1
290
0
176
1
290
0
176
1
290
0
176
1
290
0
176
1
 90
50
176
1
 40
0.0
176
1
 40
1.0
176
1
 90
0
176
1
 62
18
420
0
176
1
 90
50
176
1
 90
3
176
1
 62
5
420
255
176
1
290
0
176
1
 90
50
176
1
 90
50
176
1
 90
50
176
1
290
0
176
1
 90
50
176
1
 62
256
176
0
 40
1.0
176
0
 90
2
176
1
  1
strokes_ogs.tif
176
1
290
0
176
1
 40
1.0
176
1
 40
1.0
176
1
  0
VISUALSTYLE
  5
72
102
{ACAD_REACTORS
330
16
102
}
330
16
100
AcDbVisualStyle
  2
X-Ray
 70
25
177
3
291
0
 70
58
 90
2
176
1
 90
2
176
1
 90
0
176
1
 90
2
176
1
 40
0.5
176
1
 40
30.0
176
1
 62
7
420
16777215
176
1
 90
1
176
1
 90
4
176
1
 62
7
176
1
 62
257
176
1
 90
1
176
1
 90
1
176
1
 40
1.0
176
1
 90
8
176
1
 62
7
176
1
 40
1.0
176
1
 90
1
176
1
 90
6
176
1
 90
2
176
1
 62
7
176
1
 90
5
176
1
 90
0
176
1
 90
0
176
1
290
0
176
1
 90
1
176
1
 40
0.0
176
1
 90
0
176
1
290
0
176
1
290
1
176
1
290
1
176
1
290
0
176
1
290
0
176
1
290
0
176
1
290
0
176
1
290
0
176
1
290
0
176
1
 90
50
176
1
 40
0.0
176
1
 40
1.0
176
1
 90
0
176
1
 62
18
420
0
176
1
 90
50
176
1
 90
3
176
1
 62
5
420
255
176
1
290
0
176
1
 90
50
176
1
 90
50
176
1
 90
50
176
1
290
0
176
1
 90
50
176
1
 62
256
176
0
 40
1.0
176
0
 90
2
176
1
  1
strokes_ogs.tif
176
1
290
0
176
1
 40
1.0
176
1
 40
1.0
176
1
  0
DICTIONARYVAR
  5
22D
330
2D
100
DictionaryVariables
280
0
  1
1.4.4 @ 2026-09-29T11:29:08.971721+00:00
  0
ENDSEC
  0
EOF
