  0
SECTION
  2
HEADER
  9
$ACADVER
  1
AC1032
  9
$ACADMAINTVER
 90
4
  9
$DWGCODEPAGE
  3
ANSI_1252
  9
$LASTSAVEDBY
  1
ezdxf
  9
$REQUIREDVERSIONS
160
0
  9
$INSBASE
 10
0.0
 20
0.0
 30
0.0
  9
$EXTMIN
 10
1e+20
 20
1e+20
 30
1e+20
  9
$EXTMAX
 10
-1e+20
 20
-1e+20
 30
-1e+20
  9
$LIMMIN
 10
0.0
 20
0.0
  9
$LIMMAX
 10
420.0
 20
297.0
  9
$ORTHOMODE
 70
0
  9
$REGENMODE
 70
1
  9
$FILLMODE
 70
1
  9
$QTEXTMODE
 70
0
  9
$MIRRTEXT
 70
1
  9
$LTSCALE
 40
1.0
  9
$ATTMODE
 70
1
  9
$TEXTSIZE
 40
2.5
  9
$TRACEWID
 40
1.0
  9
$TEXTSTYLE
  7
OpenSans
  9
$CLAYER
  8
0
  9
$CELTYPE
  6
ByLayer
  9
$CECOLOR
 62
256
  9
$CELTSCALE
 40
1.0
  9
$DISPSILH
 70
0
  9
$DIMSCALE
 40
1.0
  9
$DIMASZ
 40
0.175
  9
$DIMEXO
 40
0.125
  9
$DIMDLI
 40
3.75
  9
$DIMRND
 40
0.0
  9
$DIMDLE
 40
0.0
  9
$DIMEXE
 40
0.375
  9
$DIMTP
 40
0.0
  9
$DIMTM
 40
0.0
  9
$DIMTXT
 40
0.25
  9
$DIMCEN
 40
2.5
  9
$DIMTSZ
 40
0.0
  9
$DIMTOL
 70
0
  9
$DIMLIM
 70
0
  9
$DIMTIH
 70
0
  9
$DIMTOH
 70
0
  9
$DIMSE1
 70
0
  9
$DIMSE2
 70
0
  9
$DIMTAD
 70
1
  9
$DIMZIN
 70
12
  9
$DIMBLK
  1
ARCHTICK
  9
$DIMASO
 70
1
  9
$DIMSHO
 70
1
  9
$DIMPOST
  1

  9
$DIMAPOST
  1

  9
$DIMALT
 70
0
  9
$DIMALTD
 70
3
  9
$DIMALTF
 40
0.03937007874
  9
$DIMLFAC
 40
100.0
  9
$DIMTOFL
 70
1
  9
$DIMTVP
 40
0.0
  9
$DIMTIX
 70
0
  9
$DIMSOXD
 70
0
  9
$DIMSAH
 70
0
  9
$DIMBLK1
  1

  9
$DIMBLK2
  1

  9
$DIMSTYLE
  2
EZDXF
  9
$DIMCLRD
 70
0
  9
$DIMCLRE
 70
0
  9
$DIMCLRT
 70
0
  9
$DIMTFAC
 40
0.5
  9
$DIMGAP
 40
0.1
  9
$DIMJUST
 70
0
  9
$DIMSD1
 70
0
  9
$DIMSD2
 70
0
  9
$DIMTOLJ
 70
0
  9
$DIMTZIN
 70
8
  9
$DIMALTZ
 70
0
  9
$DIMALTTZ
 70
0
  9
$DIMUPT
 70
1
  9
$DIMDEC
 70
2
  9
$DIMTDEC
 70
2
  9
$DIMALTU
 70
2
  9
$DIMALTTD
 70
3
  9
$DIMTXSTY
  7
OpenSansCondensed-Light
  9
$DIMAUNIT
 70
0
  9
$DIMADEC
 70
2
  9
$DIMALTRND
 40
0.0
  9
$DIMAZIN
 70
3
  9
$DIMDSEP
 70
46
  9
$DIMATFIT
 70
3
  9
$DIMFRAC
 70
0
  9
$DIMLDRBLK
  1

  9
$DIMLUNIT
 70
2
  9
$DIMLWD
 70
-2
  9
$DIMLWE
 70
-2
  9
$DIMTMOVE
 70
2
  9
$DIMFXL
 40
1.0
  9
$DIMFXLON
 70
0
  9
$DIMJOGANG
 40
0.785398163397
  9
$DIMTFILL
 70
0
  9
$DIMTFILLCLR
 70
0
  9
$DIMARCSYM
 70
0
  9
$DIMLTYPE
  6

  9
$DIMLTEX1
  6

  9
$DIMLTEX2
  6

  9
$DIMTXTDIRECTION
 70
0
  9
$LUNITS
 70
2
  9
$LUPREC
 70
4
  9
$SKETCHINC
 40
1.0
  9
$FILLETRAD
 40
10.0
  9
$AUNITS
 70
0
  9
$AUPREC
 70
2
  9
$MENU
  1
.
  9
$ELEVATION
 40
0.0
  9
$PELEVATION
 40
0.0
  9
$THICKNESS
 40
0.0
  9
$LIMCHECK
 70
0
  9
$CHAMFERA
 40
0.0
  9
$CHAMFERB
 40
0.0
  9
$CHAMFERC
 40
0.0
  9
$CHAMFERD
 40
0.0
  9
$SKPOLY
 70
0
  9
$TDCREATE
 40
2461313.478611111
  9
$TDUCREATE
 40
2458532.153996898
  9
$TDUPDATE
 40
2461313.478611111
  9
$TDUUPDATE
 40
2458532.1544311
  9
$TDINDWG
 40
0.0
  9
$TDUSRTIMER
 40
0.0
  9
$USRTIMER
 70
1
  9
$ANGBASE
 50
0.0
  9
$ANGDIR
 70
0
  9
$PDMODE
 70
0
  9
$PDSIZE
 40
0.0
  9
$PLINEWID
 40
0.0
  9
$SPLFRAME
 70
0
  9
$SPLINETYPE
 70
6
  9
$SPLINESEGS
 70
8
  9
$HANDSEED
  5
283
  9
$SURFTAB1
 70
6
  9
$SURFTAB2
 70
6
  9
$SURFTYPE
 70
6
  9
$SURFU
 70
6
  9
$SURFV
 70
6
  9
$UCSBASE
  2

  9
$UCSNAME
  2

  9
$UCSORG
 10
0.0
 20
0.0
 30
0.0
  9
$UCSXDIR
 10
1.0
 20
0.0
 30
0.0
  9
$UCSYDIR
 10
0.0
 20
1.0
 30
0.0
  9
$UCSORTHOREF
  2

  9
$UCSORTHOVIEW
 70
0
  9
$UCSORGTOP
 10
0.0
 20
0.0
 30
0.0
  9
$UCSORGBOTTOM
 10
0.0
 20
0.0
 30
0.0
  9
$UCSORGLEFT
 10
0.0
 20
0.0
 30
0.0
  9
$UCSORGRIGHT
 10
0.0
 20
0.0
 30
0.0
  9
$UCSORGFRONT
 10
0.0
 20
0.0
 30
0.0
  9
$UCSORGBACK
 10
0.0
 20
0.0
 30
0.0
  9
$PUCSBASE
  2

  9
$PUCSNAME
  2

  9
$PUCSORG
 10
0.0
 20
0.0
 30
0.0
  9
$PUCSXDIR
 10
1.0
 20
0.0
 30
0.0
  9
$PUCSYDIR
 10
0.0
 20
1.0
 30
0.0
  9
$PUCSORTHOREF
  2

  9
$PUCSORTHOVIEW
 70
0
  9
$PUCSORGTOP
 10
0.0
 20
0.0
 30
0.0
  9
$PUCSORGBOTTOM
 10
0.0
 20
0.0
 30
0.0
  9
$PUCSORGLEFT
 10
0.0
 20
0.0
 30
0.0
  9
$PUCSORGRIGHT
 10
0.0
 20
0.0
 30
0.0
  9
$PUCSORGFRONT
 10
0.0
 20
0.0
 30
0.0
  9
$PUCSORGBACK
 10
0.0
 20
0.0
 30
0.0
  9
$USERI1
 70
0
  9
$USERI2
 70
0
  9
$USERI3
 70
0
  9
$USERI4
 70
0
  9
$USERI5
 70
0
  9
$USERR1
 40
0.0
  9
$USERR2
 40
0.0
  9
$USERR3
 40
0.0
  9
$USERR4
 40
0.0
  9
$USERR5
 40
0.0
  9
$WORLDVIEW
 70
1
  9
$SHADEDGE
 70
3
  9
$SHADEDIF
 70
70
  9
$TILEMODE
 70
1
  9
$MAXACTVP
 70
64
  9
$PINSBASE
 10
0.0
 20
0.0
 30
0.0
  9
$PLIMCHECK
 70
0
  9
$PEXTMIN
 10
1e+20
 20
1e+20
 30
1e+20
  9
$PEXTMAX
 10
-1e+20
 20
-1e+20
 30
-1e+20
  9
$PLIMMIN
 10
0.0
 20
0.0
  9
$PLIMMAX
 10
420.0
 20
297.0
  9
$UNITMODE
 70
0
  9
$VISRETAIN
 70
1
  9
$PLINEGEN
 70
0
  9
$PSLTSCALE
 70
1
  9
$TREEDEPTH
 70
3020
  9
$CMLSTYLE
  2
Standard
  9
$CMLJUST
 70
0
  9
$CMLSCALE
 40
20.0
  9
$PROXYGRAPHICS
 70
1
  9
$MEASUREMENT
 70
1
  9
$CELWEIGHT
370
-1
  9
$ENDCAPS
280
0
  9
$JOINSTYLE
280
0
  9
$LWDISPLAY
290
0
  9
$INSUNITS
 70
2
  9
$HYPERLINKBASE
  1

  9
$STYLESHEET
  1

  9
$XEDIT
290
1
  9
$CEPSNTYPE
380
0
  9
$PSTYLEMODE
290
1
  9
$FINGERPRINTGUID
  2
{8EF8AD93-0713-4970-976E-90F53722E503}
  9
$VERSIONGUID
  2
{1395D4DA-8373-44A2-AEEF-CAD0E36FC497}
  9
$EXTNAMES
290
1
  9
$PSVPSCALE
 40
0.0
  9
$OLESTARTUP
290
0
  9
$SORTENTS
280
127
  9
$INDEXCTL
280
0
  9
$HIDETEXT
280
1
  9
$XCLIPFRAME
280
1
  9
$HALOGAP
280
0
  9
$OBSCOLOR
 70
257
  9
$OBSLTYPE
280
0
  9
$INTERSECTIONDISPLAY
280
0
  9
$INTERSECTIONCOLOR
 70
257
  9
$DIMASSOC
280
2
  9
$PROJECTNAME
  1

  9
$CAMERADISPLAY
290
0
  9
$LENSLENGTH
 40
50.0
  9
$CAMERAHEIGHT
 40
0.0
  9
$STEPSPERSEC
 40
24.0
  9
$STEPSIZE
 40
100.0
  9
$3DDWFPREC
 40
2.0
  9
$PSOLWIDTH
 40
0.005
  9
$PSOLHEIGHT
 40
0.08
  9
$LOFTANG1
 40
1.570796326795
  9
$LOFTANG2
 40
1.570796326795
  9
$LOFTMAG1
 40
0.0
  9
$LOFTMAG2
 40
0.0
  9
$LOFTPARAM
 70
7
  9
$LOFTNORMALS
280
1
  9
$LATITUDE
 40
37.795
  9
$LONGITUDE
 40
-122.394
  9
$NORTHDIRECTION
 40
0.0
  9
$TIMEZONE
 70
-8000
  9
$LIGHTGLYPHDISPLAY
280
1
  9
$TILEMODELIGHTSYNCH
280
1
  9
$CMATERIAL
347
20
  9
$SOLIDHIST
280
0
  9
$SHOWHIST
280
1
  9
$DWFFRAME
280
2
  9
$DGNFRAME
280
2
  9
$REALWORLDSCALE
290
1
  9
$INTERFERECOLOR
 62
256
  9
$CSHADOW
280
0
  9
$SHADOWPLANELOCATION
 40
0.0
  0
ENDSEC
  0
SECTION
  2
CLASSES
  0
CLASS
  1
ACDBDICTIONARYWDFLT
  2
AcDbDictionaryWithDefault
  3
ObjectDBX Classes
 90
0
 91
0
280
0
281
0
  0
CLASS
  1
SUN
  2
AcDbSun
  3
SCENEOE
 90
1153
 91
0
280
0
281
0
  0
CLASS
  1
VISUALSTYLE
  2
AcDbVisualStyle
  3
ObjectDBX Classes
 90
4095
 91
0
280
0
281
0
  0
CLASS
  1
MATERIAL
  2
AcDbMaterial
  3
ObjectDBX Classes
 90
1153
 91
0
280
0
281
0
  0
CLASS
  1
SCALE
  2
AcDbScale
  3
ObjectDBX Classes
 90
1153
 91
0
280
0
281
0
  0
CLASS
  1
TABLESTYLE
  2
AcDbTableStyle
  3
ObjectDBX Classes
 90
4095
 91
0
280
0
281
0
  0
CLASS
  1
MLEADERSTYLE
  2
AcDbMLeaderStyle
  3
ACDB_MLEADERSTYLE_CLASS
 90
4095
 91
0
280
0
281
0
  0
CLASS
  1
DICTIONARYVAR
  2
AcDbDictionaryVar
  3
ObjectDBX Classes
 90
0
 91
0
280
0
281
0
  0
CLASS
  1
CELLSTYLEMAP
  2
AcDbCellStyleMap
  3
ObjectDBX Classes
 90
1152
 91
0
280
0
281
0
  0
CLASS
  1
MENTALRAYRENDERSETTINGS
  2
AcDbMentalRayRenderSettings
  3
SCENEOE
 90
1024
 91
0
280
0
281
0
  0
CLASS
  1
ACDBDETAILVIEWSTYLE
  2
AcDbDetailViewStyle
  3
ObjectDBX Classes
 90
1025
 91
0
280
0
281
0
  0
CLASS
  1
ACDBSECTIONVIEWSTYLE
  2
AcDbSectionViewStyle
  3
ObjectDBX Classes
 90
1025
 91
0
280
0
281
0
  0
CLASS
  1
RASTERVARIABLES
  2
AcDbRasterVariables
  3
ISM
 90
0
 91
0
280
0
281
0
  0
CLASS
  1
LAYOUT
  2
AcDbLayout
  3
ObjectDBX Classes
 90
0
 91
0
280
0
281
0
  0
CLASS
  1
ACDBPLACEHOLDER
  2
AcDbPlaceHolder
  3
ObjectDBX Classes
 90
0
 91
0
280
0
281
0
  0
ENDSEC
  0
SECTION
  2
TABLES
  0
TABLE
  2
VPORT
  5
8
330
0
100
AcDbSymbolTable
 70
1
  0
VPORT
  5
23
330
8
100
AcDbSymbolTableRecord
100
AcDbViewportTableRecord
  2
*Active
 70
0
 10
0.0
 20
0.0
 11
1.0
 21
1.0
 12
0.0
 22
0.0
 13
0.0
 23
0.0
 14
0.5
 24
0.5
 15
0.5
 25
0.5
 16
0.0
 26
0.0
 36
1.0
 17
0.0
 27
0.0
 37
0.0
 40
1000.0
 41
1.34
 42
50.0
 43
0.0
 44
0.0
 50
0.0
 51
0.0
 71
0
 72
1000
 73
1
 74
3
 75
0
 76
0
 77
0
 78
0
281
0
 65
0
146
0.0
  0
ENDTAB
  0
TABLE
  2
LTYPE
  5
2
330
0
100
AcDbSymbolTable
 70
22
  0
LTYPE
  5
24
330
2
100
AcDbSymbolTableRecord
100
AcDbLinetypeTableRecord
  2
ByBlock
 70
0
  3

 72
65
 73
0
 40
0.0
  0
LTYPE
  5
25
330
2
100
AcDbSymbolTableRecord
100
AcDbLinetypeTableRecord
  2
ByLayer
 70
0
  3

 72
65
 73
0
 40
0.0
  0
LTYPE
  5
26
330
2
100
AcDbSymbolTableRecord
100
AcDbLinetypeTableRecord
  2
Continuous
 70
0
  3

 72
65
 73
0
 40
0.0
  0
LTYPE
  5
2F
330
2
100
AcDbSymbolTableRecord
100
AcDbLinetypeTableRecord
  2
CENTER
 70
0
  3
Center ____ _ ____ _ ____ _ ____ _ ____ _ ____
 72
65
 73
4
 40
5.08
 49
3.175
 74
0
 49
-0.635
 74
0
 49
0.635
 74
0
 49
-0.635
 74
0
  0
LTYPE
  5
30
330
2
100
AcDbSymbolTableRecord
100
AcDbLinetypeTableRecord
  2
CENTERX2
 70
0
  3
Center (2x) ________  __  ________  __  ________
 72
65
 73
4
 40
8.89
 49
6.35
 74
0
 49
-0.635
 74
0
 49
1.27
 74
0
 49
-0.635
 74
0
  0
LTYPE
  5
31
330
2
100
AcDbSymbolTableRecord
100
AcDbLinetypeTableRecord
  2
CENTER2
 70
0
  3
Center (.5x) ____ _ ____ _ ____ _ ____ _ ____
 72
65
 73
4
 40
2.54
 49
1.587
 74
0
 49
-0.318
 74
0
 49
0.318
 74
0
 49
-0.318
 74
0
  0
LTYPE
  5
32
330
2
100
AcDbSymbolTableRecord
100
AcDbLinetypeTableRecord
  2
DASHED
 70
0
  3
Dashed __ __ __ __ __ __ __ __ __ __ __ __ __ _
 72
65
 73
2
 40
1.524
 49
1.27
 74
0
 49
-0.254
 74
0
  0
LTYPE
  5
33
330
2
100
AcDbSymbolTableRecord
100
AcDbLinetypeTableRecord
  2
DASHEDX2
 70
0
  3
Dashed (2x) ____  ____  ____  ____  ____  ____
 72
65
 73
2
 40
3.048
 49
2.54
 74
0
 49
-0.508
 74
0
  0
LTYPE
  5
34
330
2
100
AcDbSymbolTableRecord
100
AcDbLinetypeTableRecord
  2
DASHED2
 70
0
  3
Dashed (.5x) _ _ _ _ _ _ _ _ _ _ _ _ _ _
 72
65
 73
2
 40
0.762
 49
0.635
 74
0
 49
-0.127
 74
0
  0
LTYPE
  5
35
330
2
100
AcDbSymbolTableRecord
100
AcDbLinetypeTableRecord
  2
PHANTOM
 70
0
  3
Phantom ______  __  __  ______  __  __  ______
 72
65
 73
6
 40
6.35
 49
3.175
 74
0
 49
-0.635
 74
0
 49
0.635
 74
0
 49
-0.635
 74
0
 49
0.635
 74
0
 49
-0.635
 74
0
  0
LTYPE
  5
36
330
2
100
AcDbSymbolTableRecord
100
AcDbLinetypeTableRecord
  2
PHANTOMX2
 70
0
  3
Phantom (2x)____________    ____    ____    ____________
 72
65
 73
6
 40
10.795
 49
6.35
 74
0
 49
-0.635
 74
0
 49
1.27
 74
0
 49
-0.635
 74
0
 49
1.27
 74
0
 49
-0.635
 74
0
  0
LTYPE
  5
37
330
2
100
AcDbSymbolTableRecord
100
AcDbLinetypeTableRecord
  2
PHANTOM2
 70
0
  3
Phantom (.5x) ___ _ _ ___ _ _ ___ _ _ ___ _ _ ___
 72
65
 73
6
 40
3.175
 49
1.587
 74
0
 49
-0.318
 74
0
 49
0.318
 74
0
 49
-0.318
 74
0
 49
0.318
 74
0
 49
-0.318
 74
0
  0
LTYPE
  5
38
330
2
100
AcDbSymbolTableRecord
100
AcDbLinetypeTableRecord
  2
DASHDOT
 70
0
  3
Dash dot __ . __ . __ . __ . __ . __ . __ . __
 72
65
 73
4
 40
3.556
 49
2.54
 74
0
 49
-0.508
 74
0
 49
0.0
 74
0
 49
-0.508
 74
0
  0
LTYPE
  5
39
330
2
100
AcDbSymbolTableRecord
100
AcDbLinetypeTableRecord
  2
DASHDOTX2
 70
0
  3
Dash dot (2x) ____  .  ____  .  ____  .  ____
 72
65
 73
4
 40
6.096
 49
5.08
 74
0
 49
-0.508
 74
0
 49
0.0
 74
0
 49
-0.508
 74
0
  0
LTYPE
  5
3A
330
2
100
AcDbSymbolTableRecord
100
AcDbLinetypeTableRecord
  2
DASHDOT2
 70
0
  3
Dash dot (.5x) _ . _ . _ . _ . _ . _ . _ . _
 72
65
 73
4
 40
1.778
 49
1.27
 74
0
 49
-0.254
 74
0
 49
0.0
 74
0
 49
-0.254
 74
0
  0
LTYPE
  5
3B
330
2
100
AcDbSymbolTableRecord
100
AcDbLinetypeTableRecord
  2
DOT
 70
0
  3
Dot .  .  .  .  .  .  .  .  .  .  .  .  .  .  .  .
 72
65
 73
2
 40
0.508
 49
0.0
 74
0
 49
-0.508
 74
0
  0
LTYPE
  5
3C
330
2
100
AcDbSymbolTableRecord
100
AcDbLinetypeTableRecord
  2
DOTX2
 70
0
  3
Dot (2x) .    .    .    .    .    .    .    . 
 72
65
 73
2
 40
1.016
 49
0.0
 74
0
 49
-1.016
 74
0
  0
LTYPE
  5
3D
330
2
100
AcDbSymbolTableRecord
100
AcDbLinetypeTableRecord
  2
DOT2
 70
0
  3
Dot (.5) . . . . . . . . . . . . . . . . . . . 
 72
65
 73
2
 40
0.254
 49
0.0
 74
0
 49
-0.254
 74
0
  0
LTYPE
  5
3E
330
2
100
AcDbSymbolTableRecord
100
AcDbLinetypeTableRecord
  2
DIVIDE
 70
0
  3
Divide __ . . __ . . __ . . __ . . __ . . __
 72
65
 73
6
 40
4.064
 49
2.54
 74
0
 49
-0.508
 74
0
 49
0.0
 74
0
 49
-0.508
 74
0
 49
0.0
 74
0
 49
-0.508
 74
0
  0
LTYPE
  5
3F
330
2
100
AcDbSymbolTableRecord
100
AcDbLinetypeTableRecord
  2
DIVIDEX2
 70
0
  3
Divide (2x) ____  . .  ____  . .  ____  . .  ____
 72
65
 73
6
 40
6.604
 49
5.08
 74
0
 49
-0.508
 74
0
 49
0.0
 74
0
 49
-0.508
 74
0
 49
0.0
 74
0
 49
-0.508
 74
0
  0
LTYPE
  5
40
330
2
100
AcDbSymbolTableRecord
100
AcDbLinetypeTableRecord
  2
DIVIDE2
 70
0
  3
Divide(.5x) _ . _ . _ . _ . _ . _ . _ . _
 72
65
 73
6
 40
2.032
 49
1.27
 74
0
 49
-0.254
 74
0
 49
0.0
 74
0
 49
-0.254
 74
0
 49
0.0
 74
0
 49
-0.254
 74
0
  0
LTYPE
  5
9B
330
2
100
AcDbSymbolTableRecord
100
AcDbLinetypeTableRecord
  2
HIDDEN2
 70
0
  3

 72
65
 73
2
 40
0.5
 49
0.25
 74
0
 49
-0.25
 74
0
  0
ENDTAB
  0
TABLE
  2
LAYER
  5
1
330
0
100
AcDbSymbolTable
 70
19
  0
LAYER
  5
27
330
1
100
AcDbSymbolTableRecord
100
AcDbLayerTableRecord
  2
0
 70
0
 62
7
  6
Continuous
370
-3
390
13
347
21
  0
LAYER
  5
28
330
1
100
AcDbSymbolTableRecord
100
AcDbLayerTableRecord
  2
Defpoints
 70
0
 62
7
  6
Continuous
290
0
370
-3
390
13
347
21
  0
LAYER
  5
8A
330
1
100
AcDbSymbolTableRecord
100
AcDbLayerTableRecord
  2
A-WALL
 70
0
 62
7
  6
Continuous
370
-3
390
13
347
21
  0
LAYER
  5
8B
330
1
100
AcDbSymbolTableRecord
100
AcDbLayerTableRecord
  2
A-WALL-PATT
 70
0
 62
8
  6
Continuous
370
-3
390
13
347
21
  0
LAYER
  5
8C
330
1
100
AcDbSymbolTableRecord
100
AcDbLayerTableRecord
  2
A-DOOR
 70
0
 62
3
  6
Continuous
370
-3
390
13
347
21
  0
LAYER
  5
8D
330
1
100
AcDbSymbolTableRecord
100
AcDbLayerTableRecord
  2
A-GLAZ
 70
0
 62
4
  6
Continuous
370
-3
390
13
347
21
  0
LAYER
  5
8E
330
1
100
AcDbSymbolTableRecord
100
AcDbLayerTableRecord
  2
A-GLAZ-PATT
 70
0
 62
151
  6
Continuous
370
-3
390
13
347
21
  0
LAYER
  5
8F
330
1
100
AcDbSymbolTableRecord
100
AcDbLayerTableRecord
  2
A-FURN
 70
0
 62
9
  6
Continuous
370
-3
390
13
347
21
  0
LAYER
  5
90
330
1
100
AcDbSymbolTableRecord
100
AcDbLayerTableRecord
  2
A-FLOR-ANNO
 70
0
 62
7
  6
Continuous
370
-3
390
13
347
21
  0
LAYER
  5
91
330
1
100
AcDbSymbolTableRecord
100
AcDbLayerTableRecord
  2
A-ANNO-DIMS
 70
0
 62
1
  6
Continuous
370
-3
390
13
347
21
  0
LAYER
  5
92
330
1
100
AcDbSymbolTableRecord
100
AcDbLayerTableRecord
  2
A-ELEV
 70
0
 62
7
  6
Continuous
370
-3
390
13
347
21
  0
LAYER
  5
93
330
1
100
AcDbSymbolTableRecord
100
AcDbLayerTableRecord
  2
A-ELEV-HIDN
 70
0
 62
8
  6
Continuous
370
-3
390
13
347
21
  0
LAYER
  5
94
330
1
100
AcDbSymbolTableRecord
100
AcDbLayerTableRecord
  2
A-ROOF
 70
0
 62
5
  6
Continuous
370
-3
390
13
347
21
  0
LAYER
  5
95
330
1
100
AcDbSymbolTableRecord
100
AcDbLayerTableRecord
  2
A-GRND
 70
0
 62
8
  6
Continuous
370
-3
390
13
347
21
  0
LAYER
  5
96
330
1
100
AcDbSymbolTableRecord
100
AcDbLayerTableRecord
  2
A-SECT-PATT
 70
0
 62
8
  6
Continuous
370
-3
390
13
347
21
  0
LAYER
  5
97
330
1
100
AcDbSymbolTableRecord
100
AcDbLayerTableRecord
  2
A-DECK
 70
0
 62
32
  6
Continuous
370
-3
390
13
347
21
  0
LAYER
  5
98
330
1
100
AcDbSymbolTableRecord
100
AcDbLayerTableRecord
  2
G-TITLE
 70
0
 62
7
  6
Continuous
370
-3
390
13
347
21
  0
LAYER
  5
99
330
1
100
AcDbSymbolTableRecord
100
AcDbLayerTableRecord
  2
G-ANNO-TEXT
 70
0
 62
7
  6
Continuous
370
-3
390
13
347
21
  0
LAYER
  5
9A
330
1
100
AcDbSymbolTableRecord
100
AcDbLayerTableRecord
  2
A-LEVL
 70
0
 62
1
  6
Continuous
370
-3
390
13
347
21
  0
ENDTAB
  0
TABLE
  2
STYLE
  5
5
330
0
100
AcDbSymbolTable
 70
26
  0
STYLE
  5
29
330
5
100
AcDbSymbolTableRecord
100
AcDbTextStyleTableRecord
  2
Standard
 70
0
 40
0.0
 41
1.0
 50
0.0
 71
0
 42
2.5
  3
txt
  4

  0
STYLE
  5
41
330
5
100
AcDbSymbolTableRecord
100
AcDbTextStyleTableRecord
  2
OpenSans-Light
 70
0
 40
0.0
 41
1.0
 50
0.0
 71
0
 42
2.5
  3
OpenSans-Light.ttf
  4

  0
STYLE
  5
42
330
5
100
AcDbSymbolTableRecord
100
AcDbTextStyleTableRecord
  2
OpenSans-Light-Italic
 70
0
 40
0.0
 41
1.0
 50
0.0
 71
0
 42
2.5
  3
OpenSans-LightItalic.ttf
  4

  0
STYLE
  5
43
330
5
100
AcDbSymbolTableRecord
100
AcDbTextStyleTableRecord
  2
OpenSans
 70
0
 40
0.0
 41
1.0
 50
0.0
 71
0
 42
2.5
  3
OpenSans-Regular.ttf
  4

  0
STYLE
  5
44
330
5
100
AcDbSymbolTableRecord
100
AcDbTextStyleTableRecord
  2
OpenSans-Italic
 70
0
 40
0.0
 41
1.0
 50
0.0
 71
0
 42
2.5
  3
OpenSans-Italic.ttf
  4

  0
STYLE
  5
45
330
5
100
AcDbSymbolTableRecord
100
AcDbTextStyleTableRecord
  2
OpenSans-SemiBold
 70
0
 40
0.0
 41
1.0
 50
0.0
 71
0
 42
2.5
  3
OpenSans-SemiBold.ttf
  4

  0
STYLE
  5
46
330
5
100
AcDbSymbolTableRecord
100
AcDbTextStyleTableRecord
  2
OpenSans-SemiBoldItalic
 70
0
 40
0.0
 41
1.0
 50
0.0
 71
0
 42
2.5
  3
OpenSans-SemiBoldItalic.ttf
  4

  0
STYLE
  5
47
330
5
100
AcDbSymbolTableRecord
100
AcDbTextStyleTableRecord
  2
OpenSans-Bold
 70
0
 40
0.0
 41
1.0
 50
0.0
 71
0
 42
2.5
  3
OpenSans-Bold.ttf
  4

  0
STYLE
  5
48
330
5
100
AcDbSymbolTableRecord
100
AcDbTextStyleTableRecord
  2
OpenSans-BoldItalic
 70
0
 40
0.0
 41
1.0
 50
0.0
 71
0
 42
2.5
  3
OpenSans-BoldItalic.ttf
  4

  0
STYLE
  5
49
330
5
100
AcDbSymbolTableRecord
100
AcDbTextStyleTableRecord
  2
OpenSans-ExtraBold
 70
0
 40
0.0
 41
1.0
 50
0.0
 71
0
 42
2.5
  3
OpenSans-ExtraBold.ttf
  4

  0
STYLE
  5
4A
330
5
100
AcDbSymbolTableRecord
100
AcDbTextStyleTableRecord
  2
OpenSans-ExtraBoldItalic
 70
0
 40
0.0
 41
1.0
 50
0.0
 71
0
 42
2.5
  3
OpenSans-ExtraBoldItalic.ttf
  4

  0
STYLE
  5
4B
330
5
100
AcDbSymbolTableRecord
100
AcDbTextStyleTableRecord
  2
OpenSansCondensed-Bold
 70
0
 40
0.0
 41
1.0
 50
0.0
 71
0
 42
2.5
  3
OpenSansCondensed-Bold.ttf
  4

  0
STYLE
  5
4C
330
5
100
AcDbSymbolTableRecord
100
AcDbTextStyleTableRecord
  2
OpenSansCondensed-Light
 70
0
 40
0.0
 41
1.0
 50
0.0
 71
0
 42
2.5
  3
OpenSansCondensed-Light.ttf
  4

  0
STYLE
  5
4D
330
5
100
AcDbSymbolTableRecord
100
AcDbTextStyleTableRecord
  2
OpenSansCondensed-Italic
 70
0
 40
0.0
 41
1.0
 50
0.0
 71
0
 42
2.5
  3
OpenSansCondensed-LightItalic.ttf
  4

  0
STYLE
  5
4E
330
5
100
AcDbSymbolTableRecord
100
AcDbTextStyleTableRecord
  2
LiberationSans
 70
0
 40
0.0
 41
1.0
 50
0.0
 71
0
 42
2.5
  3
LiberationSans-Regular.ttf
  4

  0
STYLE
  5
4F
330
5
100
AcDbSymbolTableRecord
100
AcDbTextStyleTableRecord
  2
LiberationSans-Bold
 70
0
 40
0.0
 41
1.0
 50
0.0
 71
0
 42
2.5
  3
LiberationSans-Bold.ttf
  4

  0
STYLE
  5
50
330
5
100
AcDbSymbolTableRecord
100
AcDbTextStyleTableRecord
  2
LiberationSans-BoldItalic
 70
0
 40
0.0
 41
1.0
 50
0.0
 71
0
 42
2.5
  3
LiberationSans-BoldItalic.ttf
  4

  0
STYLE
  5
51
330
5
100
AcDbSymbolTableRecord
100
AcDbTextStyleTableRecord
  2
LiberationSans-Italic
 70
0
 40
0.0
 41
1.0
 50
0.0
 71
0
 42
2.5
  3
LiberationSans-Italic.ttf
  4

  0
STYLE
  5
52
330
5
100
AcDbSymbolTableRecord
100
AcDbTextStyleTableRecord
  2
LiberationSerif
 70
0
 40
0.0
 41
1.0
 50
0.0
 71
0
 42
2.5
  3
LiberationSerif-Regular.ttf
  4

  0
STYLE
  5
53
330
5
100
AcDbSymbolTableRecord
100
AcDbTextStyleTableRecord
  2
LiberationSerif-Bold
 70
0
 40
0.0
 41
1.0
 50
0.0
 71
0
 42
2.5
  3
LiberationSerif-Bold.ttf
  4

  0
STYLE
  5
54
330
5
100
AcDbSymbolTableRecord
100
AcDbTextStyleTableRecord
  2
LiberationSerif-BoldItalic
 70
0
 40
0.0
 41
1.0
 50
0.0
 71
0
 42
2.5
  3
LiberationSerif-BoldItalic.ttf
  4

  0
STYLE
  5
55
330
5
100
AcDbSymbolTableRecord
100
AcDbTextStyleTableRecord
  2
LiberationSerif-Italic
 70
0
 40
0.0
 41
1.0
 50
0.0
 71
0
 42
2.5
  3
LiberationSerif-Italic.ttf
  4

  0
STYLE
  5
56
330
5
100
AcDbSymbolTableRecord
100
AcDbTextStyleTableRecord
  2
LiberationMono
 70
0
 40
0.0
 41
1.0
 50
0.0
 71
0
 42
2.5
  3
LiberationMono-Regular.ttf
  4

  0
STYLE
  5
57
330
5
100
AcDbSymbolTableRecord
100
AcDbTextStyleTableRecord
  2
LiberationMono-Bold
 70
0
 40
0.0
 41
1.0
 50
0.0
 71
0
 42
2.5
  3
LiberationMono-Bold.ttf
  4

  0
STYLE
  5
58
330
5
100
AcDbSymbolTableRecord
100
AcDbTextStyleTableRecord
  2
LiberationMono-BoldItalic
 70
0
 40
0.0
 41
1.0
 50
0.0
 71
0
 42
2.5
  3
LiberationMono-BoldItalic.ttf
  4

  0
STYLE
  5
59
330
5
100
AcDbSymbolTableRecord
100
AcDbTextStyleTableRecord
  2
LiberationMono-Italic
 70
0
 40
0.0
 41
1.0
 50
0.0
 71
0
 42
2.5
  3
LiberationMono-Italic.ttf
  4

  0
ENDTAB
  0
TABLE
  2
VIEW
  5
7
330
0
100
AcDbSymbolTable
 70
0
  0
ENDTAB
  0
TABLE
  2
UCS
  5
6
330
0
100
AcDbSymbolTable
 70
0
  0
ENDTAB
  0
TABLE
  2
APPID
  5
3
330
0
100
AcDbSymbolTable
 70
3
  0
APPID
  5
2A
330
3
100
AcDbSymbolTableRecord
100
AcDbRegAppTableRecord
  2
ACAD
 70
0
  0
APPID
  5
280
330
3
100
AcDbSymbolTableRecord
100
AcDbRegAppTableRecord
  2
HATCHBACKGROUNDCOLOR
 70
0
  0
APPID
  5
281
330
3
100
AcDbSymbolTableRecord
100
AcDbRegAppTableRecord
  2
EZDXF
 70
0
  0
ENDTAB
  0
TABLE
  2
DIMSTYLE
  5
4
330
0
100
AcDbSymbolTable
 70
12
100
AcDbDimStyleTable
  0
DIMSTYLE
105
2B
330
4
100
AcDbSymbolTableRecord
100
AcDbDimStyleTableRecord
  2
Standard
 70
0
 40
1.0
 41
2.5
 42
0.625
 43
3.75
 44
1.25
 45
0.0
 46
0.0
 47
0.0
 48
0.0
 49
2.5
140
2.5
141
2.5
142
0.0
143
0.03937007874
144
1.0
145
0.0
146
1.0
147
0.625
148
0.0
 69
0
 70
0
 71
0
 72
0
 73
0
 74
0
 75
0
 76
0
 77
1
 78
8
 79
3
170
0
171
3
172
1
173
0
174
0
175
0
176
0
177
0
178
0
179
2
271
2
272
2
273
2
274
3
275
0
276
0
277
2
278
44
279
0
280
0
281
0
282
0
283
0
284
8
285
0
286
0
288
0
289
3
290
0
371
-2
372
-2
  0
DIMSTYLE
105
73
330
4
100
AcDbSymbolTableRecord
100
AcDbDimStyleTableRecord
  2
EZDXF
 70
0
 40
1.0
 41
0.175
 42
0.125
 43
3.75
 44
0.375
 45
0.0
 46
0.0
 47
0.0
 48
0.0
 49
2.5
140
0.25
141
2.5
142
0.0
143
0.03937007874
144
100.0
145
0.0
146
0.5
147
0.1
148
0.0
 69
0
 70
0
 71
0
 72
0
 73
0
 74
0
 75
0
 76
0
 77
1
 78
12
 79
3
170
0
171
3
172
1
173
0
174
0
175
0
176
0
177
0
178
0
179
2
271
2
272
2
273
2
274
3
275
0
276
0
277
2
278
46
279
2
280
0
281
0
282
0
283
0
284
8
285
0
286
0
288
1
289
3
290
0
340
4C
342
74
371
-2
372
-2
  0
DIMSTYLE
105
7C
330
4
100
AcDbSymbolTableRecord
100
AcDbDimStyleTableRecord
  2
EZ_M_100_H25_CM
 70
0
 40
1.0
 41
0.25
 42
0.125
 43
3.75
 44
0.375
 45
0.0
 46
0.0
 47
0.0
 48
0.0
 49
2.5
140
0.25
141
2.5
142
0.125
143
0.03937007874
144
100.0
145
0.0
146
0.5
147
0.1
148
0.0
 69
0
 70
0
 71
0
 72
0
 73
0
 74
0
 75
0
 76
0
 77
1
 78
12
 79
3
170
0
171
3
172
1
173
0
174
0
175
0
176
0
177
0
178
0
179
2
271
2
272
2
273
2
274
3
275
0
276
0
277
2
278
46
279
2
280
0
281
0
282
0
283
0
284
8
285
0
286
0
288
1
289
3
290
0
340
4C
371
-2
372
-2
  0
DIMSTYLE
105
7D
330
4
100
AcDbSymbolTableRecord
100
AcDbDimStyleTableRecord
  2
EZ_M_50_H25_CM
 70
0
 40
1.0
 41
0.125
 42
0.0625
 43
3.75
 44
0.1875
 45
0.0
 46
0.0
 47
0.0
 48
0.0
 49
2.5
140
0.125
141
2.5
142
0.0625
143
0.03937007874
144
100.0
145
0.0
146
0.5
147
0.05
148
0.0
 69
0
 70
0
 71
0
 72
0
 73
0
 74
0
 75
0
 76
0
 77
1
 78
12
 79
3
170
0
171
3
172
1
173
0
174
0
175
0
176
0
177
0
178
0
179
2
271
2
272
2
273
2
274
3
275
0
276
0
277
2
278
46
279
2
280
0
281
0
282
0
283
0
284
8
285
0
286
0
288
1
289
3
290
0
340
4C
371
-2
372
-2
  0
DIMSTYLE
105
7E
330
4
100
AcDbSymbolTableRecord
100
AcDbDimStyleTableRecord
  2
EZ_M_25_H25_CM
 70
0
 40
1.0
 41
0.0625
 42
0.03125
 43
3.75
 44
0.09375
 45
0.0
 46
0.0
 47
0.0
 48
0.0
 49
2.5
140
0.0625
141
2.5
142
0.03125
143
0.03937007874
144
100.0
145
0.0
146
0.5
147
0.025
148
0.0
 69
0
 70
0
 71
0
 72
0
 73
0
 74
0
 75
0
 76
0
 77
1
 78
12
 79
3
170
0
171
3
172
1
173
0
174
0
175
0
176
0
177
0
178
0
179
2
271
2
272
2
273
2
274
3
275
0
276
0
277
2
278
46
279
2
280
0
281
0
282
0
283
0
284
8
285
0
286
0
288
1
289
3
290
0
340
4C
371
-2
372
-2
  0
DIMSTYLE
105
7F
330
4
100
AcDbSymbolTableRecord
100
AcDbDimStyleTableRecord
  2
EZ_M_20_H25_CM
 70
0
 40
1.0
 41
0.05
 42
0.025
 43
3.75
 44
0.07500000000000001
 45
0.0
 46
0.0
 47
0.0
 48
0.0
 49
2.5
140
0.05
141
2.5
142
0.025
143
0.03937007874
144
100.0
145
0.0
146
0.5
147
0.020000000000000004
148
0.0
 69
0
 70
0
 71
0
 72
0
 73
0
 74
0
 75
0
 76
0
 77
1
 78
12
 79
3
170
0
171
3
172
1
173
0
174
0
175
0
176
0
177
0
178
0
179
2
271
2
272
2
273
2
274
3
275
0
276
0
277
2
278
46
279
2
280
0
281
0
282
0
283
0
284
8
285
0
286
0
288
1
289
3
290
0
340
4C
371
-2
372
-2
  0
DIMSTYLE
105
80
330
4
100
AcDbSymbolTableRecord
100
AcDbDimStyleTableRecord
  2
EZ_M_10_H25_CM
 70
0
 40
1.0
 41
0.025
 42
0.0125
 43
3.75
 44
0.037500000000000006
 45
0.0
 46
0.0
 47
0.0
 48
0.0
 49
2.5
140
0.025
141
2.5
142
0.0125
143
0.03937007874
144
100.0
145
0.0
146
0.5
147
0.010000000000000002
148
0.0
 69
0
 70
0
 71
0
 72
0
 73
0
 74
0
 75
0
 76
0
 77
1
 78
12
 79
3
170
0
171
3
172
1
173
0
174
0
175
0
176
0
177
0
178
0
179
2
271
2
272
2
273
2
274
3
275
0
276
0
277
2
278
46
279
2
280
0
281
0
282
0
283
0
284
8
285
0
286
0
288
1
289
3
290
0
340
4C
371
-2
372
-2
  0
DIMSTYLE
105
81
330
4
100
AcDbSymbolTableRecord
100
AcDbDimStyleTableRecord
  2
EZ_M_5_H25_CM
 70
0
 40
1.0
 41
0.0125
 42
0.00625
 43
3.75
 44
0.018750000000000003
 45
0.0
 46
0.0
 47
0.0
 48
0.0
 49
2.5
140
0.0125
141
2.5
142
0.00625
143
0.03937007874
144
100.0
145
0.0
146
0.5
147
0.005000000000000001
148
0.0
 69
0
 70
0
 71
0
 72
0
 73
0
 74
0
 75
0
 76
0
 77
1
 78
12
 79
3
170
0
171
3
172
1
173
0
174
0
175
0
176
0
177
0
178
0
179
2
271
2
272
2
273
2
274
3
275
0
276
0
277
2
278
46
279
2
280
0
281
0
282
0
283
0
284
8
285
0
286
0
288
1
289
3
290
0
340
4C
371
-2
372
-2
  0
DIMSTYLE
105
82
330
4
100
AcDbSymbolTableRecord
100
AcDbDimStyleTableRecord
  2
EZ_M_1_H25_CM
 70
0
 40
1.0
 41
0.0025
 42
0.00125
 43
3.75
 44
0.00375
 45
0.0
 46
0.0
 47
0.0
 48
0.0
 49
2.5
140
0.0025
141
2.5
142
0.00125
143
0.03937007874
144
100.0
145
0.0
146
0.5
147
0.001
148
0.0
 69
0
 70
0
 71
0
 72
0
 73
0
 74
0
 75
0
 76
0
 77
1
 78
12
 79
3
170
0
171
3
172
1
173
0
174
0
175
0
176
0
177
0
178
0
179
2
271
2
272
2
273
2
274
3
275
0
276
0
277
2
278
46
279
2
280
0
281
0
282
0
283
0
284
8
285
0
286
0
288
1
289
3
290
0
340
4C
371
-2
372
-2
  0
DIMSTYLE
105
83
330
4
100
AcDbSymbolTableRecord
100
AcDbDimStyleTableRecord
  2
EZ_RADIUS
 70
0
 40
1.0
 41
0.25
 42
0.125
 43
3.75
 44
0.375
 45
0.0
 46
0.0
 47
0.0
 48
0.0
 49
2.5
140
0.25
141
0.0
142
0.0
143
0.03937007874
144
100.0
145
0.0
146
0.5
147
0.1
148
0.0
 69
0
 70
0
 71
0
 72
0
 73
0
 74
0
 75
0
 76
0
 77
1
 78
12
 79
3
170
0
171
3
172
0
173
0
174
0
175
0
176
0
177
0
178
0
179
2
271
2
272
2
273
2
274
3
275
0
276
0
277
2
278
46
279
1
280
0
281
0
282
0
283
0
284
8
285
0
286
0
288
1
289
3
290
0
340
4C
342
84
371
-2
372
-2
  0
DIMSTYLE
105
88
330
4
100
AcDbSymbolTableRecord
100
AcDbDimStyleTableRecord
  2
EZ_RADIUS_INSIDE
 70
0
 40
1.0
 41
0.25
 42
0.125
 43
3.75
 44
0.375
 45
0.0
 46
0.0
 47
0.0
 48
0.0
 49
2.5
140
0.25
141
0.0
142
0.0
143
0.03937007874
144
100.0
145
0.0
146
0.5
147
0.1
148
0.0
 69
0
 70
0
 71
0
 72
0
 73
0
 74
0
 75
0
 76
0
 77
0
 78
12
 79
3
170
0
171
3
172
0
173
0
174
1
175
0
176
0
177
0
178
0
179
2
271
2
272
2
273
2
274
3
275
0
276
0
277
2
278
46
279
0
280
0
281
0
282
0
283
0
284
8
285
0
286
0
288
1
289
0
290
0
340
4C
342
84
371
-2
372
-2
  0
DIMSTYLE
105
89
330
4
100
AcDbSymbolTableRecord
100
AcDbDimStyleTableRecord
  2
EZ_CURVED
 70
0
 40
1.0
 41
0.25
 42
0.125
 43
3.75
 44
0.375
 45
0.0
 46
0.0
 47
0.0
 48
0.0
 49
2.5
140
0.25
141
2.5
142
0.0
143
0.03937007874
144
100.0
145
0.0
146
0.5
147
0.1
148
0.0
 69
0
 70
0
 71
0
 72
0
 73
0
 74
0
 75
0
 76
0
 77
1
 78
12
 79
2
 90
2
170
0
171
3
172
1
173
0
174
0
175
0
176
0
177
0
178
0
179
2
271
2
272
2
273
2
274
3
275
0
276
0
277
2
278
46
279
2
280
0
281
0
282
0
283
0
284
8
285
0
286
0
288
1
289
3
290
0
340
4C
371
-2
372
-2
  0
ENDTAB
  0
TABLE
  2
BLOCK_RECORD
  5
9
330
0
100
AcDbSymbolTable
 70
19
  0
BLOCK_RECORD
  5
17
330
9
100
AcDbSymbolTableRecord
100
AcDbBlockTableRecord
  2
*Model_Space
340
1A
 70
0
280
1
281
0
  0
BLOCK_RECORD
  5
1B
330
9
100
AcDbSymbolTableRecord
100
AcDbBlockTableRecord
  2
*Paper_Space
340
1E
 70
0
280
1
281
0
  0
BLOCK_RECORD
  5
74
330
9
100
AcDbSymbolTableRecord
100
AcDbBlockTableRecord
  2
_ARCHTICK
340
0
 70
0
280
1
281
0
  0
BLOCK_RECORD
  5
78
330
9
100
AcDbSymbolTableRecord
100
AcDbBlockTableRecord
  2
_CLOSEDFILLED
340
0
 70
0
280
1
281
0
  0
BLOCK_RECORD
  5
84
330
9
100
AcDbSymbolTableRecord
100
AcDbBlockTableRecord
  2
_CLOSEDBLANK
340
0
 70
0
280
1
281
0
  0
BLOCK_RECORD
  5
103
330
9
100
AcDbSymbolTableRecord
100
AcDbBlockTableRecord
  2
*D1
340
0
 70
0
280
1
281
0
  0
BLOCK_RECORD
  5
112
330
9
100
AcDbSymbolTableRecord
100
AcDbBlockTableRecord
  2
*D2
340
0
 70
0
280
1
281
0
  0
BLOCK_RECORD
  5
121
330
9
100
AcDbSymbolTableRecord
100
AcDbBlockTableRecord
  2
*D3
340
0
 70
0
280
1
281
0
  0
BLOCK_RECORD
  5
130
330
9
100
AcDbSymbolTableRecord
100
AcDbBlockTableRecord
  2
*D4
340
0
 70
0
280
1
281
0
  0
BLOCK_RECORD
  5
171
330
9
100
AcDbSymbolTableRecord
100
AcDbBlockTableRecord
  2
*D5
340
0
 70
0
280
1
281
0
  0
BLOCK_RECORD
  5
180
330
9
100
AcDbSymbolTableRecord
100
AcDbBlockTableRecord
  2
*D6
340
0
 70
0
280
1
281
0
  0
BLOCK_RECORD
  5
18F
330
9
100
AcDbSymbolTableRecord
100
AcDbBlockTableRecord
  2
*D7
340
0
 70
0
280
1
281
0
  0
BLOCK_RECORD
  5
1DC
330
9
100
AcDbSymbolTableRecord
100
AcDbBlockTableRecord
  2
*D8
340
0
 70
0
280
1
281
0
  0
BLOCK_RECORD
  5
1EB
330
9
100
AcDbSymbolTableRecord
100
AcDbBlockTableRecord
  2
*D9
340
0
 70
0
280
1
281
0
  0
BLOCK_RECORD
  5
1FA
330
9
100
AcDbSymbolTableRecord
100
AcDbBlockTableRecord
  2
*D10
340
0
 70
0
280
1
281
0
  0
BLOCK_RECORD
  5
212
330
9
100
AcDbSymbolTableRecord
100
AcDbBlockTableRecord
  2
*D11
340
0
 70
0
280
1
281
0
  0
BLOCK_RECORD
  5
252
330
9
100
AcDbSymbolTableRecord
100
AcDbBlockTableRecord
  2
*D12
340
0
 70
0
280
1
281
0
  0
BLOCK_RECORD
  5
261
330
9
100
AcDbSymbolTableRecord
100
AcDbBlockTableRecord
  2
*D13
340
0
 70
0
280
1
281
0
  0
BLOCK_RECORD
  5
270
330
9
100
AcDbSymbolTableRecord
100
AcDbBlockTableRecord
  2
*D14
340
0
 70
0
280
1
281
0
  0
ENDTAB
  0
ENDSEC
  0
SECTION
  2
BLOCKS
  0
BLOCK
  5
18
330
17
100
AcDbEntity
  8
0
100
AcDbBlockBegin
  2
*Model_Space
 70
0
 10
0.0
 20
0.0
 30
0.0
  3
*Model_Space
  1

  0
ENDBLK
  5
19
330
17
100
AcDbEntity
  8
0
100
AcDbBlockEnd
  0
BLOCK
  5
1C
330
1B
100
AcDbEntity
  8
0
100
AcDbBlockBegin
  2
*Paper_Space
 70
0
 10
0.0
 20
0.0
 30
0.0
  3
*Paper_Space
  1

  0
ENDBLK
  5
1D
330
1B
100
AcDbEntity
  8
0
100
AcDbBlockEnd
  0
BLOCK
  5
75
330
74
100
AcDbEntity
  8
0
100
AcDbBlockBegin
  2
_ARCHTICK
 70
0
 10
0.0
 20
0.0
 30
0.0
  3
_ARCHTICK
  1

  0
LWPOLYLINE
  5
77
330
74
100
AcDbEntity
  8
0
  6
BYBLOCK
 62
0
100
AcDbPolyline
 90
2
 70
0
 43
0.15
 10
-0.5
 20
-0.5
 10
0.5
 20
0.5
  0
ENDBLK
  5
76
330
74
100
AcDbEntity
  8
0
100
AcDbBlockEnd
  0
BLOCK
  5
79
330
78
100
AcDbEntity
  8
0
100
AcDbBlockBegin
  2
_CLOSEDFILLED
 70
0
 10
0.0
 20
0.0
 30
0.0
  3
_CLOSEDFILLED
  1

  0
SOLID
  5
7B
330
78
100
AcDbEntity
  8
0
  6
BYBLOCK
 62
0
100
AcDbTrace
 10
-1.0
 20
0.16439898372402537
 30
0.0
 11
0.0
 21
0.0
 31
0.0
 12
-1.0
 22
-0.16439898372402537
 32
0.0
 13
-1.0
 23
-0.16439898372402537
 33
0.0
  0
ENDBLK
  5
7A
330
78
100
AcDbEntity
  8
0
100
AcDbBlockEnd
  0
BLOCK
  5
85
330
84
100
AcDbEntity
  8
0
100
AcDbBlockBegin
  2
_CLOSEDBLANK
 70
0
 10
0.0
 20
0.0
 30
0.0
  3
_CLOSEDBLANK
  1

  0
LWPOLYLINE
  5
87
330
84
100
AcDbEntity
  8
0
  6
BYBLOCK
 62
0
100
AcDbPolyline
 90
3
 70
1
 10
-1.0
 20
0.16439898372402537
 10
0.0
 20
0.0
 10
-1.0
 20
-0.16439898372402537
  0
ENDBLK
  5
86
330
84
100
AcDbEntity
  8
0
100
AcDbBlockEnd
  0
BLOCK
  5
104
330
103
100
AcDbEntity
  8
0
100
AcDbBlockBegin
  2
*D1
 70
1
 10
0.0
 20
0.0
 30
0.0
  3
*D1
  1

  0
LINE
  5
106
330
103
100
AcDbEntity
  8
0
 62
1
100
AcDbLine
 10
18.0
 20
62.35
 30
0.0
 11
18.0
 21
78.3
 31
0.0
  0
LINE
  5
107
330
103
100
AcDbEntity
  8
0
 62
1
100
AcDbLine
 10
42.0
 20
62.35
 30
0.0
 11
42.0
 21
78.3
 31
0.0
  0
INSERT
  5
108
330
103
100
AcDbEntity
  8
A-ANNO-DIMS
 62
1
100
AcDbBlockReference
  2
_ARCHTICK
 10
18.0
 20
78.0
 30
0.0
 41
0.45
 42
0.45
 50
180.0
  0
INSERT
  5
10A
330
103
100
AcDbEntity
  8
A-ANNO-DIMS
 62
1
100
AcDbBlockReference
  2
_ARCHTICK
 10
42.0
 20
78.0
 30
0.0
 41
0.45
 42
0.45
  0
LINE
  5
10C
330
103
100
AcDbEntity
  8
0
 62
1
100
AcDbLine
 10
18.0
 20
78.0
 30
0.0
 11
42.0
 21
78.0
 31
0.0
  0
MTEXT
  5
10D
330
103
100
AcDbEntity
  8
A-ANNO-DIMS
 62
1
100
AcDbMText
 10
30.0
 20
78.65
 30
0.0
 40
0.9
 71
5
  1
2400'
  7
OpenSansCondensed-Light
  0
POINT
  5
10E
330
103
100
AcDbEntity
  8
Defpoints
100
AcDbPoint
 10
18.0
 20
78.0
 30
0.0
  0
POINT
  5
10F
330
103
100
AcDbEntity
  8
Defpoints
100
AcDbPoint
 10
18.0
 20
62.0
 30
0.0
  0
POINT
  5
110
330
103
100
AcDbEntity
  8
Defpoints
100
AcDbPoint
 10
42.0
 20
62.0
 30
0.0
  0
ENDBLK
  5
105
330
103
100
AcDbEntity
  8
0
100
AcDbBlockEnd
  0
BLOCK
  5
113
330
112
100
AcDbEntity
  8
0
100
AcDbBlockBegin
  2
*D2
 70
1
 10
0.0
 20
0.0
 30
0.0
  3
*D2
  1

  0
LINE
  5
115
330
112
100
AcDbEntity
  8
0
 62
1
100
AcDbLine
 10
30.35
 20
50.0
 30
0.0
 11
46.3
 21
50.0
 31
0.0
  0
LINE
  5
116
330
112
100
AcDbEntity
  8
0
 62
1
100
AcDbLine
 10
30.35
 20
74.0
 30
0.0
 11
46.3
 21
74.0
 31
0.0
  0
INSERT
  5
117
330
112
100
AcDbEntity
  8
A-ANNO-DIMS
 62
1
100
AcDbBlockReference
  2
_ARCHTICK
 10
46.0
 20
50.0
 30
0.0
 41
0.45
 42
0.45
 50
270.0
  0
INSERT
  5
119
330
112
100
AcDbEntity
  8
A-ANNO-DIMS
 62
1
100
AcDbBlockReference
  2
_ARCHTICK
 10
46.0
 20
74.0
 30
0.0
 41
0.45
 42
0.45
 50
90.0
  0
LINE
  5
11B
330
112
100
AcDbEntity
  8
0
 62
1
100
AcDbLine
 10
46.0
 20
50.0
 30
0.0
 11
46.0
 21
74.0
 31
0.0
  0
MTEXT
  5
11C
330
112
100
AcDbEntity
  8
A-ANNO-DIMS
 62
1
100
AcDbMText
 10
45.35
 20
62.0
 30
0.0
 40
0.9
 71
5
  1
2400'
  7
OpenSansCondensed-Light
 50
90.0
  0
POINT
  5
11D
330
112
100
AcDbEntity
  8
Defpoints
100
AcDbPoint
 10
46.0
 20
50.0
 30
0.0
  0
POINT
  5
11E
330
112
100
AcDbEntity
  8
Defpoints
100
AcDbPoint
 10
30.0
 20
50.0
 30
0.0
  0
POINT
  5
11F
330
112
100
AcDbEntity
  8
Defpoints
100
AcDbPoint
 10
30.0
 20
74.0
 30
0.0
  0
ENDBLK
  5
114
330
112
100
AcDbEntity
  8
0
100
AcDbBlockEnd
  0
BLOCK
  5
122
330
121
100
AcDbEntity
  8
0
100
AcDbBlockBegin
  2
*D3
 70
1
 10
0.0
 20
0.0
 30
0.0
  3
*D3
  1

  0
LINE
  5
124
330
121
100
AcDbEntity
  8
0
 62
1
100
AcDbLine
 10
28.5
 20
49.65
 30
0.0
 11
28.5
 21
47.2
 31
0.0
  0
LINE
  5
125
330
121
100
AcDbEntity
  8
0
 62
1
100
AcDbLine
 10
31.5
 20
49.65
 30
0.0
 11
31.5
 21
47.2
 31
0.0
  0
INSERT
  5
126
330
121
100
AcDbEntity
  8
A-ANNO-DIMS
 62
1
100
AcDbBlockReference
  2
_ARCHTICK
 10
28.5
 20
47.5
 30
0.0
 41
0.45
 42
0.45
 50
180.0
  0
INSERT
  5
128
330
121
100
AcDbEntity
  8
A-ANNO-DIMS
 62
1
100
AcDbBlockReference
  2
_ARCHTICK
 10
31.5
 20
47.5
 30
0.0
 41
0.45
 42
0.45
  0
LINE
  5
12A
330
121
100
AcDbEntity
  8
0
 62
1
100
AcDbLine
 10
28.5
 20
47.5
 30
0.0
 11
31.5
 21
47.5
 31
0.0
  0
MTEXT
  5
12B
330
121
100
AcDbEntity
  8
A-ANNO-DIMS
 62
1
100
AcDbMText
 10
30.0
 20
48.45
 30
0.0
 40
0.9
 71
5
  1
300'
  7
OpenSansCondensed-Light
  0
POINT
  5
12C
330
121
100
AcDbEntity
  8
Defpoints
100
AcDbPoint
 10
28.5
 20
47.5
 30
0.0
  0
POINT
  5
12D
330
121
100
AcDbEntity
  8
Defpoints
100
AcDbPoint
 10
28.5
 20
50.0
 30
0.0
  0
POINT
  5
12E
330
121
100
AcDbEntity
  8
Defpoints
100
AcDbPoint
 10
31.5
 20
50.0
 30
0.0
  0
ENDBLK
  5
123
330
121
100
AcDbEntity
  8
0
100
AcDbBlockEnd
  0
BLOCK
  5
131
330
130
100
AcDbEntity
  8
0
100
AcDbBlockBegin
  2
*D4
 70
1
 10
0.0
 20
0.0
 30
0.0
  3
*D4
  1

  0
LINE
  5
133
330
130
100
AcDbEntity
  8
0
 62
1
100
AcDbLine
 10
27.65
 20
42.5
 30
0.0
 11
24.7
 21
42.5
 31
0.0
  0
LINE
  5
134
330
130
100
AcDbEntity
  8
0
 62
1
100
AcDbLine
 10
27.65
 20
56.5
 30
0.0
 11
24.7
 21
56.5
 31
0.0
  0
INSERT
  5
135
330
130
100
AcDbEntity
  8
A-ANNO-DIMS
 62
1
100
AcDbBlockReference
  2
_ARCHTICK
 10
25.0
 20
42.5
 30
0.0
 41
0.45
 42
0.45
 50
270.0
  0
INSERT
  5
137
330
130
100
AcDbEntity
  8
A-ANNO-DIMS
 62
1
100
AcDbBlockReference
  2
_ARCHTICK
 10
25.0
 20
56.5
 30
0.0
 41
0.45
 42
0.45
 50
90.0
  0
LINE
  5
139
330
130
100
AcDbEntity
  8
0
 62
1
100
AcDbLine
 10
25.0
 20
42.5
 30
0.0
 11
25.0
 21
56.5
 31
0.0
  0
MTEXT
  5
13A
330
130
100
AcDbEntity
  8
A-ANNO-DIMS
 62
1
100
AcDbMText
 10
24.35
 20
49.5
 30
0.0
 40
0.9
 71
5
  1
1400'
  7
OpenSansCondensed-Light
 50
90.0
  0
POINT
  5
13B
330
130
100
AcDbEntity
  8
Defpoints
100
AcDbPoint
 10
25.0
 20
42.5
 30
0.0
  0
POINT
  5
13C
330
130
100
AcDbEntity
  8
Defpoints
100
AcDbPoint
 10
28.0
 20
42.5
 30
0.0
  0
POINT
  5
13D
330
130
100
AcDbEntity
  8
Defpoints
100
AcDbPoint
 10
28.0
 20
56.5
 30
0.0
  0
ENDBLK
  5
132
330
130
100
AcDbEntity
  8
0
100
AcDbBlockEnd
  0
BLOCK
  5
172
330
171
100
AcDbEntity
  8
0
100
AcDbBlockBegin
  2
*D5
 70
1
 10
0.0
 20
0.0
 30
0.0
  3
*D5
  1

  0
LINE
  5
174
330
171
100
AcDbEntity
  8
0
 62
1
100
AcDbLine
 10
81.65
 20
60.0
 30
0.0
 11
63.7
 21
60.0
 31
0.0
  0
LINE
  5
175
330
171
100
AcDbEntity
  8
0
 62
1
100
AcDbLine
 10
81.65
 20
66.0
 30
0.0
 11
63.7
 21
66.0
 31
0.0
  0
INSERT
  5
176
330
171
100
AcDbEntity
  8
A-ANNO-DIMS
 62
1
100
AcDbBlockReference
  2
_ARCHTICK
 10
64.0
 20
60.0
 30
0.0
 41
0.45
 42
0.45
 50
270.0
  0
INSERT
  5
178
330
171
100
AcDbEntity
  8
A-ANNO-DIMS
 62
1
100
AcDbBlockReference
  2
_ARCHTICK
 10
64.0
 20
66.0
 30
0.0
 41
0.45
 42
0.45
 50
90.0
  0
LINE
  5
17A
330
171
100
AcDbEntity
  8
0
 62
1
100
AcDbLine
 10
64.0
 20
60.0
 30
0.0
 11
64.0
 21
66.0
 31
0.0
  0
MTEXT
  5
17B
330
171
100
AcDbEntity
  8
A-ANNO-DIMS
 62
1
100
AcDbMText
 10
63.35
 20
63.0
 30
0.0
 40
0.9
 71
5
  1
600'
  7
OpenSansCondensed-Light
 50
90.0
  0
POINT
  5
17C
330
171
100
AcDbEntity
  8
Defpoints
100
AcDbPoint
 10
64.0
 20
60.0
 30
0.0
  0
POINT
  5
17D
330
171
100
AcDbEntity
  8
Defpoints
100
AcDbPoint
 10
82.0
 20
60.0
 30
0.0
  0
POINT
  5
17E
330
171
100
AcDbEntity
  8
Defpoints
100
AcDbPoint
 10
82.0
 20
66.0
 30
0.0
  0
ENDBLK
  5
173
330
171
100
AcDbEntity
  8
0
100
AcDbBlockEnd
  0
BLOCK
  5
181
330
180
100
AcDbEntity
  8
0
100
AcDbBlockBegin
  2
*D6
 70
1
 10
0.0
 20
0.0
 30
0.0
  3
*D6
  1

  0
LINE
  5
183
330
180
100
AcDbEntity
  8
0
 62
1
100
AcDbLine
 10
81.65
 20
66.0
 30
0.0
 11
63.7
 21
66.0
 31
0.0
  0
LINE
  5
184
330
180
100
AcDbEntity
  8
0
 62
1
100
AcDbLine
 10
81.65
 20
79.0
 30
0.0
 11
63.7
 21
79.0
 31
0.0
  0
INSERT
  5
185
330
180
100
AcDbEntity
  8
A-ANNO-DIMS
 62
1
100
AcDbBlockReference
  2
_ARCHTICK
 10
64.0
 20
66.0
 30
0.0
 41
0.45
 42
0.45
 50
270.0
  0
INSERT
  5
187
330
180
100
AcDbEntity
  8
A-ANNO-DIMS
 62
1
100
AcDbBlockReference
  2
_ARCHTICK
 10
64.0
 20
79.0
 30
0.0
 41
0.45
 42
0.45
 50
90.0
  0
LINE
  5
189
330
180
100
AcDbEntity
  8
0
 62
1
100
AcDbLine
 10
64.0
 20
66.0
 30
0.0
 11
64.0
 21
79.0
 31
0.0
  0
MTEXT
  5
18A
330
180
100
AcDbEntity
  8
A-ANNO-DIMS
 62
1
100
AcDbMText
 10
63.35
 20
72.5
 30
0.0
 40
0.9
 71
5
  1
1300'
  7
OpenSansCondensed-Light
 50
90.0
  0
POINT
  5
18B
330
180
100
AcDbEntity
  8
Defpoints
100
AcDbPoint
 10
64.0
 20
66.0
 30
0.0
  0
POINT
  5
18C
330
180
100
AcDbEntity
  8
Defpoints
100
AcDbPoint
 10
82.0
 20
66.0
 30
0.0
  0
POINT
  5
18D
330
180
100
AcDbEntity
  8
Defpoints
100
AcDbPoint
 10
82.0
 20
79.0
 30
0.0
  0
ENDBLK
  5
182
330
180
100
AcDbEntity
  8
0
100
AcDbBlockEnd
  0
BLOCK
  5
190
330
18F
100
AcDbEntity
  8
0
100
AcDbBlockBegin
  2
*D7
 70
1
 10
0.0
 20
0.0
 30
0.0
  3
*D7
  1

  0
LINE
  5
192
330
18F
100
AcDbEntity
  8
0
 62
1
100
AcDbLine
 10
69.65
 20
59.65
 30
0.0
 11
69.65
 21
55.7
 31
0.0
  0
LINE
  5
193
330
18F
100
AcDbEntity
  8
0
 62
1
100
AcDbLine
 10
94.35
 20
59.65
 30
0.0
 11
94.35
 21
55.7
 31
0.0
  0
INSERT
  5
194
330
18F
100
AcDbEntity
  8
A-ANNO-DIMS
 62
1
100
AcDbBlockReference
  2
_ARCHTICK
 10
69.65
 20
56.0
 30
0.0
 41
0.45
 42
0.45
 50
180.0
  0
INSERT
  5
196
330
18F
100
AcDbEntity
  8
A-ANNO-DIMS
 62
1
100
AcDbBlockReference
  2
_ARCHTICK
 10
94.35
 20
56.0
 30
0.0
 41
0.45
 42
0.45
  0
LINE
  5
198
330
18F
100
AcDbEntity
  8
0
 62
1
100
AcDbLine
 10
69.65
 20
56.0
 30
0.0
 11
94.35
 21
56.0
 31
0.0
  0
MTEXT
  5
199
330
18F
100
AcDbEntity
  8
A-ANNO-DIMS
 62
1
100
AcDbMText
 10
82.0
 20
56.65
 30
0.0
 40
0.9
 71
5
  1
2470'
  7
OpenSansCondensed-Light
  0
POINT
  5
19A
330
18F
100
AcDbEntity
  8
Defpoints
100
AcDbPoint
 10
69.65
 20
56.0
 30
0.0
  0
POINT
  5
19B
330
18F
100
AcDbEntity
  8
Defpoints
100
AcDbPoint
 10
69.65
 20
60.0
 30
0.0
  0
POINT
  5
19C
330
18F
100
AcDbEntity
  8
Defpoints
100
AcDbPoint
 10
94.35
 20
60.0
 30
0.0
  0
ENDBLK
  5
191
330
18F
100
AcDbEntity
  8
0
100
AcDbBlockEnd
  0
BLOCK
  5
1DD
330
1DC
100
AcDbEntity
  8
0
100
AcDbBlockBegin
  2
*D8
 70
1
 10
0.0
 20
0.0
 30
0.0
  3
*D8
  1

  0
LINE
  5
1DF
330
1DC
100
AcDbEntity
  8
0
 62
1
100
AcDbLine
 10
137.65
 20
60.0
 30
0.0
 11
119.7
 21
60.0
 31
0.0
  0
LINE
  5
1E0
330
1DC
100
AcDbEntity
  8
0
 62
1
100
AcDbLine
 10
137.65
 20
66.0
 30
0.0
 11
119.7
 21
66.0
 31
0.0
  0
INSERT
  5
1E1
330
1DC
100
AcDbEntity
  8
A-ANNO-DIMS
 62
1
100
AcDbBlockReference
  2
_ARCHTICK
 10
120.0
 20
60.0
 30
0.0
 41
0.45
 42
0.45
 50
270.0
  0
INSERT
  5
1E3
330
1DC
100
AcDbEntity
  8
A-ANNO-DIMS
 62
1
100
AcDbBlockReference
  2
_ARCHTICK
 10
120.0
 20
66.0
 30
0.0
 41
0.45
 42
0.45
 50
90.0
  0
LINE
  5
1E5
330
1DC
100
AcDbEntity
  8
0
 62
1
100
AcDbLine
 10
120.0
 20
60.0
 30
0.0
 11
120.0
 21
66.0
 31
0.0
  0
MTEXT
  5
1E6
330
1DC
100
AcDbEntity
  8
A-ANNO-DIMS
 62
1
100
AcDbMText
 10
119.35
 20
63.0
 30
0.0
 40
0.9
 71
5
  1
600'
  7
OpenSansCondensed-Light
 50
90.0
  0
POINT
  5
1E7
330
1DC
100
AcDbEntity
  8
Defpoints
100
AcDbPoint
 10
120.0
 20
60.0
 30
0.0
  0
POINT
  5
1E8
330
1DC
100
AcDbEntity
  8
Defpoints
100
AcDbPoint
 10
138.0
 20
60.0
 30
0.0
  0
POINT
  5
1E9
330
1DC
100
AcDbEntity
  8
Defpoints
100
AcDbPoint
 10
138.0
 20
66.0
 30
0.0
  0
ENDBLK
  5
1DE
330
1DC
100
AcDbEntity
  8
0
100
AcDbBlockEnd
  0
BLOCK
  5
1EC
330
1EB
100
AcDbEntity
  8
0
100
AcDbBlockBegin
  2
*D9
 70
1
 10
0.0
 20
0.0
 30
0.0
  3
*D9
  1

  0
LINE
  5
1EE
330
1EB
100
AcDbEntity
  8
0
 62
1
100
AcDbLine
 10
137.65
 20
66.0
 30
0.0
 11
119.7
 21
66.0
 31
0.0
  0
LINE
  5
1EF
330
1EB
100
AcDbEntity
  8
0
 62
1
100
AcDbLine
 10
137.65
 20
79.0
 30
0.0
 11
119.7
 21
79.0
 31
0.0
  0
INSERT
  5
1F0
330
1EB
100
AcDbEntity
  8
A-ANNO-DIMS
 62
1
100
AcDbBlockReference
  2
_ARCHTICK
 10
120.0
 20
66.0
 30
0.0
 41
0.45
 42
0.45
 50
270.0
  0
INSERT
  5
1F2
330
1EB
100
AcDbEntity
  8
A-ANNO-DIMS
 62
1
100
AcDbBlockReference
  2
_ARCHTICK
 10
120.0
 20
79.0
 30
0.0
 41
0.45
 42
0.45
 50
90.0
  0
LINE
  5
1F4
330
1EB
100
AcDbEntity
  8
0
 62
1
100
AcDbLine
 10
120.0
 20
66.0
 30
0.0
 11
120.0
 21
79.0
 31
0.0
  0
MTEXT
  5
1F5
330
1EB
100
AcDbEntity
  8
A-ANNO-DIMS
 62
1
100
AcDbMText
 10
119.35
 20
72.5
 30
0.0
 40
0.9
 71
5
  1
1300'
  7
OpenSansCondensed-Light
 50
90.0
  0
POINT
  5
1F6
330
1EB
100
AcDbEntity
  8
Defpoints
100
AcDbPoint
 10
120.0
 20
66.0
 30
0.0
  0
POINT
  5
1F7
330
1EB
100
AcDbEntity
  8
Defpoints
100
AcDbPoint
 10
138.0
 20
66.0
 30
0.0
  0
POINT
  5
1F8
330
1EB
100
AcDbEntity
  8
Defpoints
100
AcDbPoint
 10
138.0
 20
79.0
 30
0.0
  0
ENDBLK
  5
1ED
330
1EB
100
AcDbEntity
  8
0
100
AcDbBlockEnd
  0
BLOCK
  5
1FB
330
1FA
100
AcDbEntity
  8
0
100
AcDbBlockBegin
  2
*D10
 70
1
 10
0.0
 20
0.0
 30
0.0
  3
*D10
  1

  0
LINE
  5
1FD
330
1FA
100
AcDbEntity
  8
0
 62
1
100
AcDbLine
 10
125.65
 20
59.65
 30
0.0
 11
125.65
 21
55.7
 31
0.0
  0
LINE
  5
1FE
330
1FA
100
AcDbEntity
  8
0
 62
1
100
AcDbLine
 10
150.35
 20
59.65
 30
0.0
 11
150.35
 21
55.7
 31
0.0
  0
INSERT
  5
1FF
330
1FA
100
AcDbEntity
  8
A-ANNO-DIMS
 62
1
100
AcDbBlockReference
  2
_ARCHTICK
 10
125.65
 20
56.0
 30
0.0
 41
0.45
 42
0.45
 50
180.0
  0
INSERT
  5
201
330
1FA
100
AcDbEntity
  8
A-ANNO-DIMS
 62
1
100
AcDbBlockReference
  2
_ARCHTICK
 10
150.35
 20
56.0
 30
0.0
 41
0.45
 42
0.45
  0
LINE
  5
203
330
1FA
100
AcDbEntity
  8
0
 62
1
100
AcDbLine
 10
125.65
 20
56.0
 30
0.0
 11
150.35
 21
56.0
 31
0.0
  0
MTEXT
  5
204
330
1FA
100
AcDbEntity
  8
A-ANNO-DIMS
 62
1
100
AcDbMText
 10
138.0
 20
56.65
 30
0.0
 40
0.9
 71
5
  1
2470'
  7
OpenSansCondensed-Light
  0
POINT
  5
205
330
1FA
100
AcDbEntity
  8
Defpoints
100
AcDbPoint
 10
125.65
 20
56.0
 30
0.0
  0
POINT
  5
206
330
1FA
100
AcDbEntity
  8
Defpoints
100
AcDbPoint
 10
125.65
 20
60.0
 30
0.0
  0
POINT
  5
207
330
1FA
100
AcDbEntity
  8
Defpoints
100
AcDbPoint
 10
150.35
 20
60.0
 30
0.0
  0
ENDBLK
  5
1FC
330
1FA
100
AcDbEntity
  8
0
100
AcDbBlockEnd
  0
BLOCK
  5
213
330
212
100
AcDbEntity
  8
0
100
AcDbBlockBegin
  2
*D11
 70
1
 10
0.0
 20
0.0
 30
0.0
  3
*D11
  1

  0
LINE
  5
215
330
212
100
AcDbEntity
  8
0
 62
1
100
AcDbLine
 10
118.5
 20
59.65
 30
0.0
 11
118.5
 21
55.7
 31
0.0
  0
LINE
  5
216
330
212
100
AcDbEntity
  8
0
 62
1
100
AcDbLine
 10
132.5
 20
59.65
 30
0.0
 11
132.5
 21
55.7
 31
0.0
  0
INSERT
  5
217
330
212
100
AcDbEntity
  8
A-ANNO-DIMS
 62
1
100
AcDbBlockReference
  2
_ARCHTICK
 10
118.5
 20
56.0
 30
0.0
 41
0.45
 42
0.45
 50
180.0
  0
INSERT
  5
219
330
212
100
AcDbEntity
  8
A-ANNO-DIMS
 62
1
100
AcDbBlockReference
  2
_ARCHTICK
 10
132.5
 20
56.0
 30
0.0
 41
0.45
 42
0.45
  0
LINE
  5
21B
330
212
100
AcDbEntity
  8
0
 62
1
100
AcDbLine
 10
118.5
 20
56.0
 30
0.0
 11
132.5
 21
56.0
 31
0.0
  0
MTEXT
  5
21C
330
212
100
AcDbEntity
  8
A-ANNO-DIMS
 62
1
100
AcDbMText
 10
125.5
 20
56.65
 30
0.0
 40
0.9
 71
5
  1
1400'
  7
OpenSansCondensed-Light
  0
POINT
  5
21D
330
212
100
AcDbEntity
  8
Defpoints
100
AcDbPoint
 10
118.5
 20
56.0
 30
0.0
  0
POINT
  5
21E
330
212
100
AcDbEntity
  8
Defpoints
100
AcDbPoint
 10
118.5
 20
60.0
 30
0.0
  0
POINT
  5
21F
330
212
100
AcDbEntity
  8
Defpoints
100
AcDbPoint
 10
132.5
 20
60.0
 30
0.0
  0
ENDBLK
  5
214
330
212
100
AcDbEntity
  8
0
100
AcDbBlockEnd
  0
BLOCK
  5
253
330
252
100
AcDbEntity
  8
0
100
AcDbBlockBegin
  2
*D12
 70
1
 10
0.0
 20
0.0
 30
0.0
  3
*D12
  1

  0
LINE
  5
255
330
252
100
AcDbEntity
  8
0
 62
1
100
AcDbLine
 10
70.0
 20
11.65
 30
0.0
 11
70.0
 21
8.2
 31
0.0
  0
LINE
  5
256
330
252
100
AcDbEntity
  8
0
 62
1
100
AcDbLine
 10
94.0
 20
11.65
 30
0.0
 11
94.0
 21
8.2
 31
0.0
  0
INSERT
  5
257
330
252
100
AcDbEntity
  8
A-ANNO-DIMS
 62
1
100
AcDbBlockReference
  2
_ARCHTICK
 10
70.0
 20
8.5
 30
0.0
 41
0.45
 42
0.45
 50
180.0
  0
INSERT
  5
259
330
252
100
AcDbEntity
  8
A-ANNO-DIMS
 62
1
100
AcDbBlockReference
  2
_ARCHTICK
 10
94.0
 20
8.5
 30
0.0
 41
0.45
 42
0.45
  0
LINE
  5
25B
330
252
100
AcDbEntity
  8
0
 62
1
100
AcDbLine
 10
70.0
 20
8.5
 30
0.0
 11
94.0
 21
8.5
 31
0.0
  0
MTEXT
  5
25C
330
252
100
AcDbEntity
  8
A-ANNO-DIMS
 62
1
100
AcDbMText
 10
82.0
 20
9.15
 30
0.0
 40
0.9
 71
5
  1
2400'
  7
OpenSansCondensed-Light
  0
POINT
  5
25D
330
252
100
AcDbEntity
  8
Defpoints
100
AcDbPoint
 10
70.0
 20
8.5
 30
0.0
  0
POINT
  5
25E
330
252
100
AcDbEntity
  8
Defpoints
100
AcDbPoint
 10
70.0
 20
12.0
 30
0.0
  0
POINT
  5
25F
330
252
100
AcDbEntity
  8
Defpoints
100
AcDbPoint
 10
94.0
 20
12.0
 30
0.0
  0
ENDBLK
  5
254
330
252
100
AcDbEntity
  8
0
100
AcDbBlockEnd
  0
BLOCK
  5
262
330
261
100
AcDbEntity
  8
0
100
AcDbBlockBegin
  2
*D13
 70
1
 10
0.0
 20
0.0
 30
0.0
  3
*D13
  1

  0
LINE
  5
264
330
261
100
AcDbEntity
  8
0
 62
1
100
AcDbLine
 10
81.65
 20
12.0
 30
0.0
 11
63.7
 21
12.0
 31
0.0
  0
LINE
  5
265
330
261
100
AcDbEntity
  8
0
 62
1
100
AcDbLine
 10
81.65
 20
18.0
 30
0.0
 11
63.7
 21
18.0
 31
0.0
  0
INSERT
  5
266
330
261
100
AcDbEntity
  8
A-ANNO-DIMS
 62
1
100
AcDbBlockReference
  2
_ARCHTICK
 10
64.0
 20
12.0
 30
0.0
 41
0.45
 42
0.45
 50
270.0
  0
INSERT
  5
268
330
261
100
AcDbEntity
  8
A-ANNO-DIMS
 62
1
100
AcDbBlockReference
  2
_ARCHTICK
 10
64.0
 20
18.0
 30
0.0
 41
0.45
 42
0.45
 50
90.0
  0
LINE
  5
26A
330
261
100
AcDbEntity
  8
0
 62
1
100
AcDbLine
 10
64.0
 20
12.0
 30
0.0
 11
64.0
 21
18.0
 31
0.0
  0
MTEXT
  5
26B
330
261
100
AcDbEntity
  8
A-ANNO-DIMS
 62
1
100
AcDbMText
 10
63.35
 20
15.0
 30
0.0
 40
0.9
 71
5
  1
600'
  7
OpenSansCondensed-Light
 50
90.0
  0
POINT
  5
26C
330
261
100
AcDbEntity
  8
Defpoints
100
AcDbPoint
 10
64.0
 20
12.0
 30
0.0
  0
POINT
  5
26D
330
261
100
AcDbEntity
  8
Defpoints
100
AcDbPoint
 10
82.0
 20
12.0
 30
0.0
  0
POINT
  5
26E
330
261
100
AcDbEntity
  8
Defpoints
100
AcDbPoint
 10
82.0
 20
18.0
 30
0.0
  0
ENDBLK
  5
263
330
261
100
AcDbEntity
  8
0
100
AcDbBlockEnd
  0
BLOCK
  5
271
330
270
100
AcDbEntity
  8
0
100
AcDbBlockBegin
  2
*D14
 70
1
 10
0.0
 20
0.0
 30
0.0
  3
*D14
  1

  0
LINE
  5
273
330
270
100
AcDbEntity
  8
0
 62
1
100
AcDbLine
 10
81.65
 20
18.8
 30
0.0
 11
63.7
 21
18.8
 31
0.0
  0
LINE
  5
274
330
270
100
AcDbEntity
  8
0
 62
1
100
AcDbLine
 10
81.65
 20
27.0
 30
0.0
 11
63.7
 21
27.0
 31
0.0
  0
INSERT
  5
275
330
270
100
AcDbEntity
  8
A-ANNO-DIMS
 62
1
100
AcDbBlockReference
  2
_ARCHTICK
 10
64.0
 20
18.8
 30
0.0
 41
0.45
 42
0.45
 50
270.0
  0
INSERT
  5
277
330
270
100
AcDbEntity
  8
A-ANNO-DIMS
 62
1
100
AcDbBlockReference
  2
_ARCHTICK
 10
64.0
 20
27.0
 30
0.0
 41
0.45
 42
0.45
 50
90.0
  0
LINE
  5
279
330
270
100
AcDbEntity
  8
0
 62
1
100
AcDbLine
 10
64.0
 20
18.8
 30
0.0
 11
64.0
 21
27.0
 31
0.0
  0
MTEXT
  5
27A
330
270
100
AcDbEntity
  8
A-ANNO-DIMS
 62
1
100
AcDbMText
 10
63.35
 20
22.9
 30
0.0
 40
0.9
 71
5
  1
820'
  7
OpenSansCondensed-Light
 50
90.0
  0
POINT
  5
27B
330
270
100
AcDbEntity
  8
Defpoints
100
AcDbPoint
 10
64.0
 20
18.8
 30
0.0
  0
POINT
  5
27C
330
270
100
AcDbEntity
  8
Defpoints
100
AcDbPoint
 10
82.0
 20
18.8
 30
0.0
  0
POINT
  5
27D
330
270
100
AcDbEntity
  8
Defpoints
100
AcDbPoint
 10
82.0
 20
27.0
 30
0.0
  0
ENDBLK
  5
272
330
270
100
AcDbEntity
  8
0
100
AcDbBlockEnd
  0
ENDSEC
  0
SECTION
  2
ENTITIES
  0
LWPOLYLINE
  5
9C
330
17
100
AcDbEntity
  8
G-TITLE
100
AcDbPolyline
 90
4
 70
1
 10
0.0
 20
0.0
 10
190.0
 20
0.0
 10
190.0
 20
120.0
 10
0.0
 20
120.0
  0
LWPOLYLINE
  5
9D
330
17
100
AcDbEntity
  8
G-TITLE
100
AcDbPolyline
 90
4
 70
1
 10
0.0
 20
0.0
 10
190.0
 20
0.0
 10
190.0
 20
6.0
 10
0.0
 20
6.0
  0
TEXT
  5
9E
330
17
100
AcDbEntity
  8
G-TITLE
100
AcDbText
 10
1.0
 20
4.2
 30
0.0
 40
1.3
  1
FLORIDA FREEDOM WORLD  ·  LAKESIDE CABINS
 11
1.0
 21
4.2
 31
0.0
100
AcDbText
  0
TEXT
  5
9F
330
17
100
AcDbEntity
  8
G-TITLE
100
AcDbText
 10
1.0
 20
1.6
 30
0.0
 40
1.6
  1
SAUCER POD  ·  UFO CABIN  ·  PLAN, ELEVATIONS, SECTION
 11
1.0
 21
1.6
 31
0.0
100
AcDbText
  0
TEXT
  5
A0
330
17
100
AcDbEntity
  8
G-TITLE
100
AcDbText
 10
189.0
 20
4.2
 30
0.0
 40
0.9
  1
SHEET A-1 · 1 of 1
 72
2
 11
189.0
 21
4.2
 31
0.0
100
AcDbText
  0
TEXT
  5
A1
330
17
100
AcDbEntity
  8
G-TITLE
100
AcDbText
 10
189.0
 20
1.6
 30
0.0
 40
0.9
  1
CONCEPT DESIGN · NOT FOR CONSTRUCTION · 2026-09-29 · UNITS: FEET (DECIMAL)
 72
2
 11
189.0
 21
1.6
 31
0.0
100
AcDbText
  0
TEXT
  5
A2
330
17
100
AcDbEntity
  8
G-ANNO-TEXT
100
AcDbText
 10
132.0
 20
117.0
 30
0.0
 40
0.75
  1
NOTES
 11
132.0
 21
117.0
 31
0.0
100
AcDbText
  0
TEXT
  5
A3
330
17
100
AcDbEntity
  8
G-ANNO-TEXT
100
AcDbText
 10
132.0
 20
115.6
 30
0.0
 40
0.75
  1
1. Saucer: steel ring frame with SIP wedge panels, aluminium composite skin; 8 in shell.
 11
132.0
 21
115.6
 31
0.0
100
AcDbText
  0
TEXT
  5
A4
330
17
100
AcDbEntity
  8
G-ANNO-TEXT
100
AcDbText
 10
132.0
 20
114.19999999999999
 30
0.0
 40
0.75
  1
2. Floor at 6.0 ft on three welded steel legs with 2.6 ft foot pads on engineered footings, tie-downs each leg.
 11
132.0
 21
114.19999999999999
 31
0.0
100
AcDbText
  0
TEXT
  5
A5
330
17
100
AcDbEntity
  8
G-ANNO-TEXT
100
AcDbText
 10
132.0
 20
112.79999999999998
 30
0.0
 40
0.75
  1
3. Rim band 4.5 ft with eight 2 ft acrylic portholes at 2.25 ft above floor; 8 ft acrylic dome over the bridge.
 11
132.0
 21
112.79999999999998
 31
0.0
100
AcDbText
  0
TEXT
  5
A6
330
17
100
AcDbEntity
  8
G-ANNO-TEXT
100
AcDbText
 10
132.0
 20
111.39999999999998
 30
0.0
 40
0.75
  1
4. Ceiling 9 ft at centre falling to 4.5 ft at the rim; standing zone within 8 ft of centre; bunks and seating in the ring.
 11
132.0
 21
111.39999999999998
 31
0.0
100
AcDbText
  0
TEXT
  5
A7
330
17
100
AcDbEntity
  8
G-ANNO-TEXT
100
AcDbText
 10
132.0
 20
109.99999999999997
 30
0.0
 40
0.75
  1
5. Boarding ramp 4 ft wide, 14 ft long, 1:3 slope, from a 3 ft hatch at the front; storm cover for the dome.
 11
132.0
 21
109.99999999999997
 31
0.0
100
AcDbText
  0
TEXT
  5
A8
330
17
100
AcDbEntity
  8
G-ANNO-TEXT
100
AcDbText
 10
132.0
 20
108.59999999999997
 30
0.0
 40
0.75
  1
6. Bath core and galley are partitions to 7 ft; all services in the floor plenum.
 11
132.0
 21
108.59999999999997
 31
0.0
100
AcDbText
  0
TEXT
  5
A9
330
17
100
AcDbEntity
  8
G-ANNO-TEXT
100
AcDbText
 10
132.0
 20
107.19999999999996
 30
0.0
 40
0.75
  1
7. All dimensions decimal feet to face of shell.
 11
132.0
 21
107.19999999999996
 31
0.0
100
AcDbText
  0
LWPOLYLINE
  5
AA
330
17
100
AcDbEntity
  8
A-WALL
100
AcDbPolyline
 90
74
 70
1
 10
41.98554547446207
 20
61.411187908070985
 10
41.96748548014428
 20
61.11722523680399
 10
41.94221672006636
 20
60.82379431604527
 10
41.90975441518452
 20
60.53107189760941
 10
41.87011811957737
 20
60.23923430653566
 10
41.8233317086673
 20
59.94845733487639
 10
41.769423364838765
 20
59.658916135806464
 10
41.708425560462345
 20
59.37078511811756
 10
41.640375038334525
 20
59.084237841160835
 10
41.565312789545274
 20
58.79944691030122
 10
41.48328402878651
 20
58.516583872946455
 10
41.394338167116445
 20
58.2358191152133
 10
41.29852878219625
 20
57.95732175929336
 10
41.19591358601687
 20
57.68125956158014
 10
41.08655439013544
 20
57.407798811618925
 10
40.97051706844237
 20
57.13710423194012
 10
40.85596401644555
 20
56.887006791171515
 10
40.27319329559446
 20
57.22346962373072
 10
40.35799653212101
 20
57.40861591232346
 10
40.46755510335288
 20
57.66419671130353
 10
40.570808410797596
 20
57.922389236058585
 10
40.667694258523625
 20
58.18303796106615
 10
40.75815428611911
 20
58.445985881280556
 10
40.84213400384593
 20
58.711074606706944
 10
40.919582825462335
 20
58.9781444578094
 10
40.99045409869419
 20
59.24703456169602
 10
41.054705133336526
 20
59.51758294902267
 10
41.1122972269686
 20
59.78962665155727
 10
41.163195688266704
 20
60.06300180034579
 10
41.20736985790097
 20
60.337543724420755
 10
41.24479312700338
 20
60.61308704999288
 10
41.27544295319599
 20
60.88946580006608
 10
41.29930087416956
 20
61.16651349441577
 10
41.31635251880461
 20
61.444063249870354
 10
41.326587615828
 20
61.7219478808354
 10
41.33
 20
62.0
 10
41.326587615828
 20
62.2780521191646
 10
41.31635251880461
 20
62.555936750129646
 10
41.29930087416956
 20
62.83348650558423
 10
41.27544295319599
 20
63.11053419993392
 10
41.24479312700338
 20
63.386912950007115
 10
41.20736985790097
 20
63.66245627557925
 10
41.163195688266704
 20
63.93699819965422
 10
41.1122972269686
 20
64.21037334844274
 10
41.054705133336526
 20
64.48241705097733
 10
40.99045409869419
 20
64.75296543830399
 10
40.919582825462335
 20
65.02185554219061
 10
40.84213400384593
 20
65.28892539329306
 10
40.75815428611911
 20
65.55401411871944
 10
40.667694258523625
 20
65.81696203893385
 10
40.570808410797596
 20
66.07761076394141
 10
40.46755510335288
 20
66.33580328869647
 10
40.357996532121
 20
66.59138408767654
 10
40.27319329559447
 20
66.77653037626926
 10
40.85596401644555
 20
67.11299320882847
 10
40.97051706844236
 20
66.86289576805989
 10
41.08655439013544
 20
66.59220118838108
 10
41.19591358601687
 20
66.31874043841985
 10
41.29852878219625
 20
66.04267824070664
 10
41.394338167116445
 20
65.7641808847867
 10
41.48328402878651
 20
65.48341612705354
 10
41.565312789545274
 20
65.20055308969879
 10
41.640375038334525
 20
64.91576215883917
 10
41.708425560462345
 20
64.62921488188245
 10
41.769423364838765
 20
64.34108386419355
 10
41.8233317086673
 20
64.05154266512362
 10
41.87011811957737
 20
63.76076569346435
 10
41.90975441518452
 20
63.46892810239059
 10
41.94221672006636
 20
63.17620568395473
 10
41.96748548014428
 20
62.88277476319601
 10
41.98554547446207
 20
62.588812091929015
 10
41.99638582435445
 20
62.29449474227495
 10
42.0
 20
62.0
 10
41.99638582435445
 20
61.70550525772505
  0
LWPOLYLINE
  5
AB
330
17
100
AcDbEntity
  8
A-WALL
100
AcDbPolyline
 90
54
 70
1
 10
39.811017757819
 20
55.090301702985855
 10
39.63849037776774
 20
54.8516083460908
 10
39.460157131519274
 20
54.617220913032476
 10
39.27612544035284
 20
54.387280590036255
 10
39.08650615807781
 20
54.16192588455468
 10
38.89141350425951
 20
53.94129254183578
 10
38.6909649954176
 20
53.725513463155195
 10
38.48528137423857
 20
53.51471862576143
 10
38.274486536844805
 20
53.3090350045824
 10
38.05870745816422
 20
53.10858649574049
 10
37.83807411544532
 20
52.91349384192219
 10
37.612719409963745
 20
52.72387455964716
 10
37.382779086967524
 20
52.539842868480726
 10
37.1483916539092
 20
52.36150962223226
 10
36.909698297014145
 20
52.188982242181
 10
36.66684279623523
 20
52.02236465236946
 10
36.41997143864516
 20
51.861757217003515
 10
36.16923293031866
 20
51.70725667999673
 10
35.91477830675741
 20
51.55895610669546
 10
35.656760841911975
 20
51.41694482781974
 10
35.39533595585528
 20
51.281308385653816
 10
35.130661121163385
 20
51.15212848251868
 10
34.86289576805988
 20
51.02948293155763
 10
34.592201188381075
 20
50.91344560986456
 10
34.31874043841986
 20
50.804086413983136
 10
34.06089360222241
 20
50.70824205753082
 10
33.88672762415148
 20
51.35823833664144
 10
34.077610763941415
 20
51.42919158920241
 10
34.33580328869647
 20
51.53244489664712
 10
34.59138408767654
 20
51.64200346787899
 10
34.8441992085651
 20
51.75780130891139
 10
35.09409636498669
 20
51.87976866745481
 10
35.34092502823856
 20
52.00783207493314
 10
35.58453651796346
 20
52.1419143907383
 10
35.824784091709205
 20
52.28193484869692
 10
36.06152303332081
 20
52.42780910572082
 10
36.29461074011209
 20
52.57944929261216
 10
36.52390680876419
 20
52.736764066992556
 10
36.74927311989927
 20
52.89965866832429
 10
36.9705739212785
 20
53.06803497499055
 10
37.187675909574104
 20
53.24179156340019
 10
37.40044831066629
 20
53.42082376908153
 10
37.60876295841672
 20
53.60502374972831
 10
37.81249437187097
 20
53.79428055015988
 10
38.01151983084358
 20
53.98848016915642
 10
38.20571944984012
 20
54.18750562812903
 10
38.39497625027169
 20
54.39123704158328
 10
38.57917623091847
 20
54.59955168933371
 10
38.75820843659981
 20
54.812324090425896
 10
38.93196502500945
 20
55.0294260787215
 10
39.10034133167571
 20
55.25072688010073
 10
39.263235933007444
 20
55.47609319123581
 10
39.27359240347694
 20
55.49118839111846
 10
39.85554253050669
 20
55.1551993286229
  0
LWPOLYLINE
  5
AC
330
17
100
AcDbEntity
  8
A-WALL
100
AcDbPolyline
 90
8
 70
1
 10
32.05154266512362
 20
50.1766682913327
 10
31.76076569346434
 20
50.12988188042263
 10
31.5
 20
50.094465654321226
 10
31.5
 20
50.77056593529687
 10
31.66245627557925
 20
50.79263014209903
 10
31.936998199654216
 20
50.836804311733296
 10
31.954995248352738
 20
50.84015509943555
 10
32.12891598499272
 20
50.19107407380531
  0
LWPOLYLINE
  5
AD
330
17
100
AcDbEntity
  8
A-WALL
100
AcDbPolyline
 90
28
 70
1
 10
28.23923430653566
 20
50.12988188042263
 10
27.948457334876384
 20
50.1766682913327
 10
27.65891613580646
 20
50.230576635161235
 10
27.370785118117563
 20
50.291574439537655
 10
27.084237841160835
 20
50.359624961665475
 10
26.79944691030122
 20
50.434687210454726
 10
26.516583872946455
 20
50.51671597121349
 10
26.235819115213303
 20
50.605661832883555
 10
25.95732175929336
 20
50.70147121780375
 10
25.68125956158014
 20
50.804086413983136
 10
25.407798811618925
 20
50.91344560986456
 10
25.13710423194012
 20
51.02948293155763
 10
24.88700679117152
 20
51.14403598355445
 10
25.223469623730725
 20
51.72680670440554
 10
25.408615912323466
 20
51.64200346787899
 10
25.664196711303532
 20
51.53244489664712
 10
25.922389236058585
 20
51.42919158920241
 10
26.183037961066148
 20
51.332305741476375
 10
26.44598588128056
 20
51.24184571388089
 10
26.711074606706944
 20
51.15786599615407
 10
26.978144457809403
 20
51.080417174537665
 10
27.24703456169602
 20
51.00954590130581
 10
27.517582949022668
 20
50.945294866663474
 10
27.789626651557267
 20
50.8877027730314
 10
28.063001800345788
 20
50.836804311733296
 10
28.33754372442075
 20
50.79263014209903
 10
28.5
 20
50.77056593529687
 10
28.5
 20
50.094465654321226
  0
LWPOLYLINE
  5
AE
330
17
100
AcDbEntity
  8
A-WALL
100
AcDbPolyline
 90
54
 70
1
 10
23.090301702985855
 20
52.188982242181
 10
22.8516083460908
 20
52.36150962223226
 10
22.61722091303248
 20
52.539842868480726
 10
22.387280590036255
 20
52.72387455964716
 10
22.161925884554684
 20
52.91349384192218
 10
21.94129254183578
 20
53.1085864957405
 10
21.725513463155195
 20
53.3090350045824
 10
21.514718625761432
 20
53.51471862576143
 10
21.309035004582398
 20
53.725513463155195
 10
21.108586495740493
 20
53.94129254183578
 10
20.913493841922186
 20
54.16192588455468
 10
20.723874559647157
 20
54.387280590036255
 10
20.539842868480726
 20
54.617220913032476
 10
20.361509622232262
 20
54.8516083460908
 10
20.188982242180998
 20
55.090301702985855
 10
20.022364652369454
 20
55.33315720376477
 10
19.861757217003515
 20
55.58002856135484
 10
19.707256679996735
 20
55.830767069681336
 10
19.55895610669546
 20
56.08522169324259
 10
19.41694482781974
 20
56.343239158088025
 10
19.281308385653816
 20
56.60466404414472
 10
19.15212848251868
 20
56.869338878836615
 10
19.02948293155763
 20
57.13710423194012
 10
18.91344560986456
 20
57.40779881161892
 10
18.804086413983136
 20
57.68125956158014
 10
18.708242057530825
 20
57.939106397777586
 10
19.35823833664145
 20
58.11327237584851
 10
19.42919158920241
 20
57.922389236058585
 10
19.53244489664712
 20
57.66419671130353
 10
19.642003467878997
 20
57.40861591232346
 10
19.75780130891139
 20
57.155800791434906
 10
19.87976866745481
 20
56.9059036350133
 10
20.00783207493314
 20
56.65907497176144
 10
20.1419143907383
 20
56.41546348203654
 10
20.28193484869692
 20
56.175215908290795
 10
20.42780910572082
 20
55.93847696667919
 10
20.57944929261216
 20
55.70538925988791
 10
20.736764066992556
 20
55.47609319123581
 10
20.899658668324292
 20
55.25072688010073
 10
21.068034974990553
 20
55.0294260787215
 10
21.24179156340019
 20
54.812324090425896
 10
21.42082376908153
 20
54.59955168933371
 10
21.605023749728318
 20
54.39123704158328
 10
21.794280550159883
 20
54.18750562812903
 10
21.988480169156418
 20
53.98848016915642
 10
22.18750562812903
 20
53.79428055015988
 10
22.39123704158328
 20
53.60502374972832
 10
22.599551689333712
 20
53.42082376908153
 10
22.812324090425896
 20
53.241791563400184
 10
23.0294260787215
 20
53.06803497499055
 10
23.25072688010073
 20
52.89965866832429
 10
23.47609319123581
 20
52.736764066992556
 10
23.491188391118463
 20
52.72640759652306
 10
23.1551993286229
 20
52.14445746949331
  0
LWPOLYLINE
  5
AF
330
17
100
AcDbEntity
  8
A-WALL
100
AcDbPolyline
 90
34
 70
1
 10
18.176668291332703
 20
59.94845733487639
 10
18.12988188042263
 20
60.23923430653566
 10
18.09024558481548
 20
60.5310718976094
 10
18.057783279933638
 20
60.82379431604527
 10
18.032514519855717
 20
61.11722523680399
 10
18.014454525537932
 20
61.411187908070985
 10
18.00361417564555
 20
61.70550525772505
 10
18.0
 20
62.0
 10
18.00361417564555
 20
62.29449474227494
 10
18.014454525537932
 20
62.588812091929015
 10
18.032514519855717
 20
62.88277476319601
 10
18.057783279933638
 20
63.17620568395473
 10
18.09024558481548
 20
63.46892810239059
 10
18.12988188042263
 20
63.760765693464336
 10
18.176668291332703
 20
64.0515426651236
 10
18.19107407380531
 20
64.12891598499273
 10
18.84015509943555
 20
63.954995248352745
 10
18.836804311733296
 20
63.93699819965421
 10
18.79263014209903
 20
63.662456275579245
 10
18.755206872996617
 20
63.386912950007115
 10
18.72455704680401
 20
63.11053419993392
 10
18.70069912583044
 20
62.83348650558423
 10
18.683647481195397
 20
62.555936750129646
 10
18.673412384172003
 20
62.27805211916459
 10
18.67
 20
62.0
 10
18.673412384172003
 20
61.7219478808354
 10
18.683647481195397
 20
61.444063249870354
 10
18.70069912583044
 20
61.16651349441577
 10
18.72455704680401
 20
60.88946580006608
 10
18.755206872996617
 20
60.61308704999288
 10
18.79263014209903
 20
60.33754372442075
 10
18.836804311733296
 20
60.06300180034579
 10
18.84015509943555
 20
60.045004751647255
 10
18.19107407380531
 20
59.87108401500727
  0
LWPOLYLINE
  5
B0
330
17
100
AcDbEntity
  8
A-WALL
100
AcDbPolyline
 90
54
 70
1
 10
18.804086413983132
 20
66.31874043841985
 10
18.91344560986456
 20
66.59220118838108
 10
19.02948293155763
 20
66.86289576805987
 10
19.152128482518677
 20
67.13066112116339
 10
19.281308385653816
 20
67.39533595585527
 10
19.41694482781974
 20
67.65676084191198
 10
19.55895610669546
 20
67.91477830675741
 10
19.707256679996735
 20
68.16923293031866
 10
19.861757217003515
 20
68.41997143864516
 10
20.022364652369454
 20
68.66684279623523
 10
20.188982242180995
 20
68.90969829701415
 10
20.361509622232262
 20
69.1483916539092
 10
20.539842868480726
 20
69.38277908696752
 10
20.723874559647154
 20
69.61271940996374
 10
20.913493841922183
 20
69.83807411544532
 10
21.10858649574049
 20
70.05870745816422
 10
21.309035004582398
 20
70.2744865368448
 10
21.51471862576143
 20
70.48528137423857
 10
21.725513463155195
 20
70.6909649954176
 10
21.941292541835775
 20
70.8914135042595
 10
22.161925884554677
 20
71.08650615807781
 10
22.387280590036248
 20
71.27612544035284
 10
22.617220913032472
 20
71.46015713151927
 10
22.851608346090803
 20
71.63849037776774
 10
23.090301702985858
 20
71.811017757819
 10
23.155199328622906
 20
71.8555425305067
 10
23.49118839111847
 20
71.27359240347694
 10
23.47609319123581
 20
71.26323593300745
 10
23.250726880100732
 20
71.10034133167571
 10
23.029426078721492
 20
70.93196502500945
 10
22.812324090425893
 20
70.7582084365998
 10
22.599551689333705
 20
70.57917623091846
 10
22.391237041583278
 20
70.39497625027168
 10
22.18750562812903
 20
70.20571944984012
 10
21.988480169156414
 20
70.01151983084358
 10
21.79428055015988
 20
69.81249437187097
 10
21.60502374972831
 20
69.60876295841672
 10
21.42082376908153
 20
69.40044831066629
 10
21.241791563400188
 20
69.1876759095741
 10
21.06803497499055
 20
68.9705739212785
 10
20.899658668324292
 20
68.74927311989927
 10
20.736764066992556
 20
68.52390680876418
 10
20.57944929261216
 20
68.29461074011209
 10
20.42780910572082
 20
68.06152303332081
 10
20.281934848696917
 20
67.8247840917092
 10
20.1419143907383
 20
67.58453651796346
 10
20.007832074933138
 20
67.34092502823856
 10
19.87976866745481
 20
67.0940963649867
 10
19.757801308911386
 20
66.84419920856509
 10
19.642003467878997
 20
66.59138408767653
 10
19.53244489664712
 20
66.33580328869647
 10
19.429191589202407
 20
66.07761076394141
 10
19.35823833664145
 20
65.88672762415149
 10
18.708242057530825
 20
66.06089360222242
  0
LWPOLYLINE
  5
B1
330
17
100
AcDbEntity
  8
A-WALL
100
AcDbPolyline
 90
54
 70
1
 10
25.137104231940114
 20
72.97051706844236
 10
25.407798811618918
 20
73.08655439013543
 10
25.681259561580145
 20
73.19591358601687
 10
25.95732175929336
 20
73.29852878219626
 10
26.235819115213303
 20
73.39433816711644
 10
26.516583872946452
 20
73.4832840287865
 10
26.799446910301217
 20
73.56531278954527
 10
27.08423784116083
 20
73.64037503833453
 10
27.37078511811756
 20
73.70842556046235
 10
27.658916135806457
 20
73.76942336483876
 10
27.94845733487638
 20
73.8233317086673
 10
28.239234306535653
 20
73.87011811957737
 10
28.531071897609408
 20
73.90975441518452
 10
28.823794316045273
 20
73.94221672006637
 10
29.117225236803993
 20
73.96748548014429
 10
29.411187908070985
 20
73.98554547446207
 10
29.70550525772505
 20
73.99638582435445
 10
30.0
 20
74.0
 10
30.294494742274946
 20
73.99638582435445
 10
30.58881209192901
 20
73.98554547446207
 10
30.882774763196004
 20
73.96748548014429
 10
31.17620568395472
 20
73.94221672006637
 10
31.46892810239059
 20
73.90975441518452
 10
31.760765693464343
 20
73.87011811957737
 10
32.05154266512362
 20
73.8233317086673
 10
32.12891598499273
 20
73.80892592619469
 10
31.95499524835274
 20
73.15984490056445
 10
31.936998199654212
 20
73.16319568826671
 10
31.662456275579252
 20
73.20736985790097
 10
31.386912950007112
 20
73.24479312700339
 10
31.110534199933916
 20
73.27544295319599
 10
30.833486505584226
 20
73.29930087416956
 10
30.555936750129643
 20
73.3163525188046
 10
30.27805211916459
 20
73.32658761582799
 10
30.0
 20
73.33
 10
29.7219478808354
 20
73.32658761582799
 10
29.444063249870354
 20
73.3163525188046
 10
29.166513494415767
 20
73.29930087416956
 10
28.88946580006608
 20
73.27544295319599
 10
28.613087049992885
 20
73.24479312700339
 10
28.337543724420744
 20
73.20736985790097
 10
28.06300180034578
 20
73.1631956882667
 10
27.789626651557263
 20
73.1122972269686
 10
27.51758294902266
 20
73.05470513333653
 10
27.24703456169602
 20
72.99045409869419
 10
26.9781444578094
 20
72.91958282546233
 10
26.71107460670694
 20
72.84213400384593
 10
26.44598588128056
 20
72.75815428611911
 10
26.183037961066148
 20
72.66769425852362
 10
25.922389236058585
 20
72.5708084107976
 10
25.664196711303525
 20
72.46755510335288
 10
25.40861591232346
 20
72.357996532121
 10
25.223469623730736
 20
72.27319329559447
 10
24.88700679117153
 20
72.85596401644555
  0
LWPOLYLINE
  5
B2
330
17
100
AcDbEntity
  8
A-WALL
100
AcDbPolyline
 90
54
 70
1
 10
34.31874043841985
 20
73.19591358601687
 10
34.59220118838108
 20
73.08655439013543
 10
34.86289576805988
 20
72.97051706844236
 10
35.130661121163385
 20
72.84787151748132
 10
35.39533595585528
 20
72.71869161434618
 10
35.656760841911975
 20
72.58305517218027
 10
35.914778306757405
 20
72.44104389330454
 10
36.16923293031866
 20
72.29274332000327
 10
36.41997143864516
 20
72.13824278299649
 10
36.66684279623522
 20
71.97763534763055
 10
36.90969829701414
 20
71.811017757819
 10
37.148391653909194
 20
71.63849037776774
 10
37.382779086967524
 20
71.46015713151928
 10
37.612719409963745
 20
71.27612544035284
 10
37.83807411544532
 20
71.08650615807781
 10
38.05870745816422
 20
70.8914135042595
 10
38.274486536844805
 20
70.6909649954176
 10
38.48528137423857
 20
70.48528137423857
 10
38.6909649954176
 20
70.2744865368448
 10
38.8914135042595
 20
70.05870745816422
 10
39.08650615807781
 20
69.83807411544532
 10
39.27612544035284
 20
69.61271940996374
 10
39.46015713151927
 20
69.38277908696753
 10
39.63849037776774
 20
69.1483916539092
 10
39.811017757819
 20
68.90969829701415
 10
39.855542530506696
 20
68.8448006713771
 10
39.27359240347694
 20
68.50881160888153
 10
39.263235933007444
 20
68.52390680876418
 10
39.10034133167571
 20
68.74927311989927
 10
38.93196502500945
 20
68.97057392127851
 10
38.75820843659981
 20
69.18767590957411
 10
38.57917623091846
 20
69.40044831066629
 10
38.39497625027168
 20
69.60876295841672
 10
38.20571944984012
 20
69.81249437187097
 10
38.01151983084358
 20
70.01151983084358
 10
37.81249437187097
 20
70.20571944984012
 10
37.60876295841672
 20
70.39497625027168
 10
37.40044831066629
 20
70.57917623091848
 10
37.187675909574104
 20
70.7582084365998
 10
36.9705739212785
 20
70.93196502500945
 10
36.749273119899264
 20
71.10034133167571
 10
36.52390680876418
 20
71.26323593300745
 10
36.29461074011209
 20
71.42055070738783
 10
36.06152303332081
 20
71.57219089427919
 10
35.8247840917092
 20
71.71806515130308
 10
35.58453651796345
 20
71.8580856092617
 10
35.34092502823855
 20
71.99216792506687
 10
35.09409636498669
 20
72.12023133254519
 10
34.844199208565094
 20
72.24219869108862
 10
34.59138408767654
 20
72.357996532121
 10
34.33580328869647
 20
72.46755510335288
 10
34.07761076394141
 20
72.5708084107976
 10
33.88672762415149
 20
72.64176166335855
 10
34.060893602222414
 20
73.29175794246918
  0
HATCH
  5
B3
330
17
100
AcDbEntity
  8
A-WALL-PATT
 62
8
100
AcDbHatch
 10
0.0
 20
0.0
 30
0.0
210
0.0
220
0.0
230
1.0
  2
SOLID
 70
1
 71
0
 91
1
 92
3
 72
0
 73
1
 93
75
 10
41.98554547446207
 20
61.411187908070985
 10
41.96748548014428
 20
61.11722523680399
 10
41.94221672006636
 20
60.82379431604527
 10
41.90975441518452
 20
60.53107189760941
 10
41.87011811957737
 20
60.23923430653566
 10
41.8233317086673
 20
59.94845733487639
 10
41.769423364838765
 20
59.658916135806464
 10
41.708425560462345
 20
59.37078511811756
 10
41.640375038334525
 20
59.084237841160835
 10
41.565312789545274
 20
58.79944691030122
 10
41.48328402878651
 20
58.516583872946455
 10
41.394338167116445
 20
58.2358191152133
 10
41.29852878219625
 20
57.95732175929336
 10
41.19591358601687
 20
57.68125956158014
 10
41.08655439013544
 20
57.407798811618925
 10
40.97051706844237
 20
57.13710423194012
 10
40.85596401644555
 20
56.887006791171515
 10
40.27319329559446
 20
57.22346962373072
 10
40.35799653212101
 20
57.40861591232346
 10
40.46755510335288
 20
57.66419671130353
 10
40.570808410797596
 20
57.922389236058585
 10
40.667694258523625
 20
58.18303796106615
 10
40.75815428611911
 20
58.445985881280556
 10
40.84213400384593
 20
58.711074606706944
 10
40.919582825462335
 20
58.9781444578094
 10
40.99045409869419
 20
59.24703456169602
 10
41.054705133336526
 20
59.51758294902267
 10
41.1122972269686
 20
59.78962665155727
 10
41.163195688266704
 20
60.06300180034579
 10
41.20736985790097
 20
60.337543724420755
 10
41.24479312700338
 20
60.61308704999288
 10
41.27544295319599
 20
60.88946580006608
 10
41.29930087416956
 20
61.16651349441577
 10
41.31635251880461
 20
61.444063249870354
 10
41.326587615828
 20
61.7219478808354
 10
41.33
 20
62.0
 10
41.326587615828
 20
62.2780521191646
 10
41.31635251880461
 20
62.555936750129646
 10
41.29930087416956
 20
62.83348650558423
 10
41.27544295319599
 20
63.11053419993392
 10
41.24479312700338
 20
63.386912950007115
 10
41.20736985790097
 20
63.66245627557925
 10
41.163195688266704
 20
63.93699819965422
 10
41.1122972269686
 20
64.21037334844274
 10
41.054705133336526
 20
64.48241705097733
 10
40.99045409869419
 20
64.75296543830399
 10
40.919582825462335
 20
65.02185554219061
 10
40.84213400384593
 20
65.28892539329306
 10
40.75815428611911
 20
65.55401411871944
 10
40.667694258523625
 20
65.81696203893385
 10
40.570808410797596
 20
66.07761076394141
 10
40.46755510335288
 20
66.33580328869647
 10
40.357996532121
 20
66.59138408767654
 10
40.27319329559447
 20
66.77653037626926
 10
40.85596401644555
 20
67.11299320882847
 10
40.97051706844236
 20
66.86289576805989
 10
41.08655439013544
 20
66.59220118838108
 10
41.19591358601687
 20
66.31874043841985
 10
41.29852878219625
 20
66.04267824070664
 10
41.394338167116445
 20
65.7641808847867
 10
41.48328402878651
 20
65.48341612705354
 10
41.565312789545274
 20
65.20055308969879
 10
41.640375038334525
 20
64.91576215883917
 10
41.708425560462345
 20
64.62921488188245
 10
41.769423364838765
 20
64.34108386419355
 10
41.8233317086673
 20
64.05154266512362
 10
41.87011811957737
 20
63.76076569346435
 10
41.90975441518452
 20
63.46892810239059
 10
41.94221672006636
 20
63.17620568395473
 10
41.96748548014428
 20
62.88277476319601
 10
41.98554547446207
 20
62.588812091929015
 10
41.99638582435445
 20
62.29449474227495
 10
42.0
 20
62.0
 10
41.99638582435445
 20
61.70550525772505
 10
41.98554547446207
 20
61.411187908070985
 97
0
 75
0
 76
1
 98
0
  0
HATCH
  5
B4
330
17
100
AcDbEntity
  8
A-WALL-PATT
 62
8
100
AcDbHatch
 10
0.0
 20
0.0
 30
0.0
210
0.0
220
0.0
230
1.0
  2
SOLID
 70
1
 71
0
 91
1
 92
3
 72
0
 73
1
 93
55
 10
39.811017757819
 20
55.090301702985855
 10
39.63849037776774
 20
54.8516083460908
 10
39.460157131519274
 20
54.617220913032476
 10
39.27612544035284
 20
54.387280590036255
 10
39.08650615807781
 20
54.16192588455468
 10
38.89141350425951
 20
53.94129254183578
 10
38.6909649954176
 20
53.725513463155195
 10
38.48528137423857
 20
53.51471862576143
 10
38.274486536844805
 20
53.3090350045824
 10
38.05870745816422
 20
53.10858649574049
 10
37.83807411544532
 20
52.91349384192219
 10
37.612719409963745
 20
52.72387455964716
 10
37.382779086967524
 20
52.539842868480726
 10
37.1483916539092
 20
52.36150962223226
 10
36.909698297014145
 20
52.188982242181
 10
36.66684279623523
 20
52.02236465236946
 10
36.41997143864516
 20
51.861757217003515
 10
36.16923293031866
 20
51.70725667999673
 10
35.91477830675741
 20
51.55895610669546
 10
35.656760841911975
 20
51.41694482781974
 10
35.39533595585528
 20
51.281308385653816
 10
35.130661121163385
 20
51.15212848251868
 10
34.86289576805988
 20
51.02948293155763
 10
34.592201188381075
 20
50.91344560986456
 10
34.31874043841986
 20
50.804086413983136
 10
34.06089360222241
 20
50.70824205753082
 10
33.88672762415148
 20
51.35823833664144
 10
34.077610763941415
 20
51.42919158920241
 10
34.33580328869647
 20
51.53244489664712
 10
34.59138408767654
 20
51.64200346787899
 10
34.8441992085651
 20
51.75780130891139
 10
35.09409636498669
 20
51.87976866745481
 10
35.34092502823856
 20
52.00783207493314
 10
35.58453651796346
 20
52.1419143907383
 10
35.824784091709205
 20
52.28193484869692
 10
36.06152303332081
 20
52.42780910572082
 10
36.29461074011209
 20
52.57944929261216
 10
36.52390680876419
 20
52.736764066992556
 10
36.74927311989927
 20
52.89965866832429
 10
36.9705739212785
 20
53.06803497499055
 10
37.187675909574104
 20
53.24179156340019
 10
37.40044831066629
 20
53.42082376908153
 10
37.60876295841672
 20
53.60502374972831
 10
37.81249437187097
 20
53.79428055015988
 10
38.01151983084358
 20
53.98848016915642
 10
38.20571944984012
 20
54.18750562812903
 10
38.39497625027169
 20
54.39123704158328
 10
38.57917623091847
 20
54.59955168933371
 10
38.75820843659981
 20
54.812324090425896
 10
38.93196502500945
 20
55.0294260787215
 10
39.10034133167571
 20
55.25072688010073
 10
39.263235933007444
 20
55.47609319123581
 10
39.27359240347694
 20
55.49118839111846
 10
39.85554253050669
 20
55.1551993286229
 10
39.811017757819
 20
55.090301702985855
 97
0
 75
0
 76
1
 98
0
  0
HATCH
  5
B5
330
17
100
AcDbEntity
  8
A-WALL-PATT
 62
8
100
AcDbHatch
 10
0.0
 20
0.0
 30
0.0
210
0.0
220
0.0
230
1.0
  2
SOLID
 70
1
 71
0
 91
1
 92
3
 72
0
 73
1
 93
9
 10
32.05154266512362
 20
50.1766682913327
 10
31.76076569346434
 20
50.12988188042263
 10
31.5
 20
50.094465654321226
 10
31.5
 20
50.77056593529687
 10
31.66245627557925
 20
50.79263014209903
 10
31.936998199654216
 20
50.836804311733296
 10
31.954995248352738
 20
50.84015509943555
 10
32.12891598499272
 20
50.19107407380531
 10
32.05154266512362
 20
50.1766682913327
 97
0
 75
0
 76
1
 98
0
  0
HATCH
  5
B6
330
17
100
AcDbEntity
  8
A-WALL-PATT
 62
8
100
AcDbHatch
 10
0.0
 20
0.0
 30
0.0
210
0.0
220
0.0
230
1.0
  2
SOLID
 70
1
 71
0
 91
1
 92
3
 72
0
 73
1
 93
29
 10
28.23923430653566
 20
50.12988188042263
 10
27.948457334876384
 20
50.1766682913327
 10
27.65891613580646
 20
50.230576635161235
 10
27.370785118117563
 20
50.291574439537655
 10
27.084237841160835
 20
50.359624961665475
 10
26.79944691030122
 20
50.434687210454726
 10
26.516583872946455
 20
50.51671597121349
 10
26.235819115213303
 20
50.605661832883555
 10
25.95732175929336
 20
50.70147121780375
 10
25.68125956158014
 20
50.804086413983136
 10
25.407798811618925
 20
50.91344560986456
 10
25.13710423194012
 20
51.02948293155763
 10
24.88700679117152
 20
51.14403598355445
 10
25.223469623730725
 20
51.72680670440554
 10
25.408615912323466
 20
51.64200346787899
 10
25.664196711303532
 20
51.53244489664712
 10
25.922389236058585
 20
51.42919158920241
 10
26.183037961066148
 20
51.332305741476375
 10
26.44598588128056
 20
51.24184571388089
 10
26.711074606706944
 20
51.15786599615407
 10
26.978144457809403
 20
51.080417174537665
 10
27.24703456169602
 20
51.00954590130581
 10
27.517582949022668
 20
50.945294866663474
 10
27.789626651557267
 20
50.8877027730314
 10
28.063001800345788
 20
50.836804311733296
 10
28.33754372442075
 20
50.79263014209903
 10
28.5
 20
50.77056593529687
 10
28.5
 20
50.094465654321226
 10
28.23923430653566
 20
50.12988188042263
 97
0
 75
0
 76
1
 98
0
  0
HATCH
  5
B7
330
17
100
AcDbEntity
  8
A-WALL-PATT
 62
8
100
AcDbHatch
 10
0.0
 20
0.0
 30
0.0
210
0.0
220
0.0
230
1.0
  2
SOLID
 70
1
 71
0
 91
1
 92
3
 72
0
 73
1
 93
55
 10
23.090301702985855
 20
52.188982242181
 10
22.8516083460908
 20
52.36150962223226
 10
22.61722091303248
 20
52.539842868480726
 10
22.387280590036255
 20
52.72387455964716
 10
22.161925884554684
 20
52.91349384192218
 10
21.94129254183578
 20
53.1085864957405
 10
21.725513463155195
 20
53.3090350045824
 10
21.514718625761432
 20
53.51471862576143
 10
21.309035004582398
 20
53.725513463155195
 10
21.108586495740493
 20
53.94129254183578
 10
20.913493841922186
 20
54.16192588455468
 10
20.723874559647157
 20
54.387280590036255
 10
20.539842868480726
 20
54.617220913032476
 10
20.361509622232262
 20
54.8516083460908
 10
20.188982242180998
 20
55.090301702985855
 10
20.022364652369454
 20
55.33315720376477
 10
19.861757217003515
 20
55.58002856135484
 10
19.707256679996735
 20
55.830767069681336
 10
19.55895610669546
 20
56.08522169324259
 10
19.41694482781974
 20
56.343239158088025
 10
19.281308385653816
 20
56.60466404414472
 10
19.15212848251868
 20
56.869338878836615
 10
19.02948293155763
 20
57.13710423194012
 10
18.91344560986456
 20
57.40779881161892
 10
18.804086413983136
 20
57.68125956158014
 10
18.708242057530825
 20
57.939106397777586
 10
19.35823833664145
 20
58.11327237584851
 10
19.42919158920241
 20
57.922389236058585
 10
19.53244489664712
 20
57.66419671130353
 10
19.642003467878997
 20
57.40861591232346
 10
19.75780130891139
 20
57.155800791434906
 10
19.87976866745481
 20
56.9059036350133
 10
20.00783207493314
 20
56.65907497176144
 10
20.1419143907383
 20
56.41546348203654
 10
20.28193484869692
 20
56.175215908290795
 10
20.42780910572082
 20
55.93847696667919
 10
20.57944929261216
 20
55.70538925988791
 10
20.736764066992556
 20
55.47609319123581
 10
20.899658668324292
 20
55.25072688010073
 10
21.068034974990553
 20
55.0294260787215
 10
21.24179156340019
 20
54.812324090425896
 10
21.42082376908153
 20
54.59955168933371
 10
21.605023749728318
 20
54.39123704158328
 10
21.794280550159883
 20
54.18750562812903
 10
21.988480169156418
 20
53.98848016915642
 10
22.18750562812903
 20
53.79428055015988
 10
22.39123704158328
 20
53.60502374972832
 10
22.599551689333712
 20
53.42082376908153
 10
22.812324090425896
 20
53.241791563400184
 10
23.0294260787215
 20
53.06803497499055
 10
23.25072688010073
 20
52.89965866832429
 10
23.47609319123581
 20
52.736764066992556
 10
23.491188391118463
 20
52.72640759652306
 10
23.1551993286229
 20
52.14445746949331
 10
23.090301702985855
 20
52.188982242181
 97
0
 75
0
 76
1
 98
0
  0
HATCH
  5
B8
330
17
100
AcDbEntity
  8
A-WALL-PATT
 62
8
100
AcDbHatch
 10
0.0
 20
0.0
 30
0.0
210
0.0
220
0.0
230
1.0
  2
SOLID
 70
1
 71
0
 91
1
 92
3
 72
0
 73
1
 93
35
 10
18.176668291332703
 20
59.94845733487639
 10
18.12988188042263
 20
60.23923430653566
 10
18.09024558481548
 20
60.5310718976094
 10
18.057783279933638
 20
60.82379431604527
 10
18.032514519855717
 20
61.11722523680399
 10
18.014454525537932
 20
61.411187908070985
 10
18.00361417564555
 20
61.70550525772505
 10
18.0
 20
62.0
 10
18.00361417564555
 20
62.29449474227494
 10
18.014454525537932
 20
62.588812091929015
 10
18.032514519855717
 20
62.88277476319601
 10
18.057783279933638
 20
63.17620568395473
 10
18.09024558481548
 20
63.46892810239059
 10
18.12988188042263
 20
63.760765693464336
 10
18.176668291332703
 20
64.0515426651236
 10
18.19107407380531
 20
64.12891598499273
 10
18.84015509943555
 20
63.954995248352745
 10
18.836804311733296
 20
63.93699819965421
 10
18.79263014209903
 20
63.662456275579245
 10
18.755206872996617
 20
63.386912950007115
 10
18.72455704680401
 20
63.11053419993392
 10
18.70069912583044
 20
62.83348650558423
 10
18.683647481195397
 20
62.555936750129646
 10
18.673412384172003
 20
62.27805211916459
 10
18.67
 20
62.0
 10
18.673412384172003
 20
61.7219478808354
 10
18.683647481195397
 20
61.444063249870354
 10
18.70069912583044
 20
61.16651349441577
 10
18.72455704680401
 20
60.88946580006608
 10
18.755206872996617
 20
60.61308704999288
 10
18.79263014209903
 20
60.33754372442075
 10
18.836804311733296
 20
60.06300180034579
 10
18.84015509943555
 20
60.045004751647255
 10
18.19107407380531
 20
59.87108401500727
 10
18.176668291332703
 20
59.94845733487639
 97
0
 75
0
 76
1
 98
0
  0
HATCH
  5
B9
330
17
100
AcDbEntity
  8
A-WALL-PATT
 62
8
100
AcDbHatch
 10
0.0
 20
0.0
 30
0.0
210
0.0
220
0.0
230
1.0
  2
SOLID
 70
1
 71
0
 91
1
 92
3
 72
0
 73
1
 93
55
 10
18.804086413983132
 20
66.31874043841985
 10
18.91344560986456
 20
66.59220118838108
 10
19.02948293155763
 20
66.86289576805987
 10
19.152128482518677
 20
67.13066112116339
 10
19.281308385653816
 20
67.39533595585527
 10
19.41694482781974
 20
67.65676084191198
 10
19.55895610669546
 20
67.91477830675741
 10
19.707256679996735
 20
68.16923293031866
 10
19.861757217003515
 20
68.41997143864516
 10
20.022364652369454
 20
68.66684279623523
 10
20.188982242180995
 20
68.90969829701415
 10
20.361509622232262
 20
69.1483916539092
 10
20.539842868480726
 20
69.38277908696752
 10
20.723874559647154
 20
69.61271940996374
 10
20.913493841922183
 20
69.83807411544532
 10
21.10858649574049
 20
70.05870745816422
 10
21.309035004582398
 20
70.2744865368448
 10
21.51471862576143
 20
70.48528137423857
 10
21.725513463155195
 20
70.6909649954176
 10
21.941292541835775
 20
70.8914135042595
 10
22.161925884554677
 20
71.08650615807781
 10
22.387280590036248
 20
71.27612544035284
 10
22.617220913032472
 20
71.46015713151927
 10
22.851608346090803
 20
71.63849037776774
 10
23.090301702985858
 20
71.811017757819
 10
23.155199328622906
 20
71.8555425305067
 10
23.49118839111847
 20
71.27359240347694
 10
23.47609319123581
 20
71.26323593300745
 10
23.250726880100732
 20
71.10034133167571
 10
23.029426078721492
 20
70.93196502500945
 10
22.812324090425893
 20
70.7582084365998
 10
22.599551689333705
 20
70.57917623091846
 10
22.391237041583278
 20
70.39497625027168
 10
22.18750562812903
 20
70.20571944984012
 10
21.988480169156414
 20
70.01151983084358
 10
21.79428055015988
 20
69.81249437187097
 10
21.60502374972831
 20
69.60876295841672
 10
21.42082376908153
 20
69.40044831066629
 10
21.241791563400188
 20
69.1876759095741
 10
21.06803497499055
 20
68.9705739212785
 10
20.899658668324292
 20
68.74927311989927
 10
20.736764066992556
 20
68.52390680876418
 10
20.57944929261216
 20
68.29461074011209
 10
20.42780910572082
 20
68.06152303332081
 10
20.281934848696917
 20
67.8247840917092
 10
20.1419143907383
 20
67.58453651796346
 10
20.007832074933138
 20
67.34092502823856
 10
19.87976866745481
 20
67.0940963649867
 10
19.757801308911386
 20
66.84419920856509
 10
19.642003467878997
 20
66.59138408767653
 10
19.53244489664712
 20
66.33580328869647
 10
19.429191589202407
 20
66.07761076394141
 10
19.35823833664145
 20
65.88672762415149
 10
18.708242057530825
 20
66.06089360222242
 10
18.804086413983132
 20
66.31874043841985
 97
0
 75
0
 76
1
 98
0
  0
HATCH
  5
BA
330
17
100
AcDbEntity
  8
A-WALL-PATT
 62
8
100
AcDbHatch
 10
0.0
 20
0.0
 30
0.0
210
0.0
220
0.0
230
1.0
  2
SOLID
 70
1
 71
0
 91
1
 92
3
 72
0
 73
1
 93
55
 10
25.137104231940114
 20
72.97051706844236
 10
25.407798811618918
 20
73.08655439013543
 10
25.681259561580145
 20
73.19591358601687
 10
25.95732175929336
 20
73.29852878219626
 10
26.235819115213303
 20
73.39433816711644
 10
26.516583872946452
 20
73.4832840287865
 10
26.799446910301217
 20
73.56531278954527
 10
27.08423784116083
 20
73.64037503833453
 10
27.37078511811756
 20
73.70842556046235
 10
27.658916135806457
 20
73.76942336483876
 10
27.94845733487638
 20
73.8233317086673
 10
28.239234306535653
 20
73.87011811957737
 10
28.531071897609408
 20
73.90975441518452
 10
28.823794316045273
 20
73.94221672006637
 10
29.117225236803993
 20
73.96748548014429
 10
29.411187908070985
 20
73.98554547446207
 10
29.70550525772505
 20
73.99638582435445
 10
30.0
 20
74.0
 10
30.294494742274946
 20
73.99638582435445
 10
30.58881209192901
 20
73.98554547446207
 10
30.882774763196004
 20
73.96748548014429
 10
31.17620568395472
 20
73.94221672006637
 10
31.46892810239059
 20
73.90975441518452
 10
31.760765693464343
 20
73.87011811957737
 10
32.05154266512362
 20
73.8233317086673
 10
32.12891598499273
 20
73.80892592619469
 10
31.95499524835274
 20
73.15984490056445
 10
31.936998199654212
 20
73.16319568826671
 10
31.662456275579252
 20
73.20736985790097
 10
31.386912950007112
 20
73.24479312700339
 10
31.110534199933916
 20
73.27544295319599
 10
30.833486505584226
 20
73.29930087416956
 10
30.555936750129643
 20
73.3163525188046
 10
30.27805211916459
 20
73.32658761582799
 10
30.0
 20
73.33
 10
29.7219478808354
 20
73.32658761582799
 10
29.444063249870354
 20
73.3163525188046
 10
29.166513494415767
 20
73.29930087416956
 10
28.88946580006608
 20
73.27544295319599
 10
28.613087049992885
 20
73.24479312700339
 10
28.337543724420744
 20
73.20736985790097
 10
28.06300180034578
 20
73.1631956882667
 10
27.789626651557263
 20
73.1122972269686
 10
27.51758294902266
 20
73.05470513333653
 10
27.24703456169602
 20
72.99045409869419
 10
26.9781444578094
 20
72.91958282546233
 10
26.71107460670694
 20
72.84213400384593
 10
26.44598588128056
 20
72.75815428611911
 10
26.183037961066148
 20
72.66769425852362
 10
25.922389236058585
 20
72.5708084107976
 10
25.664196711303525
 20
72.46755510335288
 10
25.40861591232346
 20
72.357996532121
 10
25.223469623730736
 20
72.27319329559447
 10
24.88700679117153
 20
72.85596401644555
 10
25.137104231940114
 20
72.97051706844236
 97
0
 75
0
 76
1
 98
0
  0
HATCH
  5
BB
330
17
100
AcDbEntity
  8
A-WALL-PATT
 62
8
100
AcDbHatch
 10
0.0
 20
0.0
 30
0.0
210
0.0
220
0.0
230
1.0
  2
SOLID
 70
1
 71
0
 91
1
 92
3
 72
0
 73
1
 93
55
 10
34.31874043841985
 20
73.19591358601687
 10
34.59220118838108
 20
73.08655439013543
 10
34.86289576805988
 20
72.97051706844236
 10
35.130661121163385
 20
72.84787151748132
 10
35.39533595585528
 20
72.71869161434618
 10
35.656760841911975
 20
72.58305517218027
 10
35.914778306757405
 20
72.44104389330454
 10
36.16923293031866
 20
72.29274332000327
 10
36.41997143864516
 20
72.13824278299649
 10
36.66684279623522
 20
71.97763534763055
 10
36.90969829701414
 20
71.811017757819
 10
37.148391653909194
 20
71.63849037776774
 10
37.382779086967524
 20
71.46015713151928
 10
37.612719409963745
 20
71.27612544035284
 10
37.83807411544532
 20
71.08650615807781
 10
38.05870745816422
 20
70.8914135042595
 10
38.274486536844805
 20
70.6909649954176
 10
38.48528137423857
 20
70.48528137423857
 10
38.6909649954176
 20
70.2744865368448
 10
38.8914135042595
 20
70.05870745816422
 10
39.08650615807781
 20
69.83807411544532
 10
39.27612544035284
 20
69.61271940996374
 10
39.46015713151927
 20
69.38277908696753
 10
39.63849037776774
 20
69.1483916539092
 10
39.811017757819
 20
68.90969829701415
 10
39.855542530506696
 20
68.8448006713771
 10
39.27359240347694
 20
68.50881160888153
 10
39.263235933007444
 20
68.52390680876418
 10
39.10034133167571
 20
68.74927311989927
 10
38.93196502500945
 20
68.97057392127851
 10
38.75820843659981
 20
69.18767590957411
 10
38.57917623091846
 20
69.40044831066629
 10
38.39497625027168
 20
69.60876295841672
 10
38.20571944984012
 20
69.81249437187097
 10
38.01151983084358
 20
70.01151983084358
 10
37.81249437187097
 20
70.20571944984012
 10
37.60876295841672
 20
70.39497625027168
 10
37.40044831066629
 20
70.57917623091848
 10
37.187675909574104
 20
70.7582084365998
 10
36.9705739212785
 20
70.93196502500945
 10
36.749273119899264
 20
71.10034133167571
 10
36.52390680876418
 20
71.26323593300745
 10
36.29461074011209
 20
71.42055070738783
 10
36.06152303332081
 20
71.57219089427919
 10
35.8247840917092
 20
71.71806515130308
 10
35.58453651796345
 20
71.8580856092617
 10
35.34092502823855
 20
71.99216792506687
 10
35.09409636498669
 20
72.12023133254519
 10
34.844199208565094
 20
72.24219869108862
 10
34.59138408767654
 20
72.357996532121
 10
34.33580328869647
 20
72.46755510335288
 10
34.07761076394141
 20
72.5708084107976
 10
33.88672762415149
 20
72.64176166335855
 10
34.060893602222414
 20
73.29175794246918
 10
34.31874043841985
 20
73.19591358601687
 97
0
 75
0
 76
1
 98
0
  0
LWPOLYLINE
  5
BC
330
17
100
AcDbEntity
  8
A-WALL
100
AcDbPolyline
 90
12
 70
1
 10
21.0
 20
61.5
 10
26.0
 20
61.5
 10
26.0
 20
60.2
 10
25.67
 20
60.2
 10
25.67
 20
61.17
 10
21.33
 20
61.17
 10
21.33
 20
56.83
 10
25.67
 20
56.83
 10
25.67
 20
57.8
 10
26.0
 20
57.8
 10
26.0
 20
56.5
 10
21.0
 20
56.5
  0
HATCH
  5
BD
330
17
100
AcDbEntity
  8
A-WALL-PATT
 62
8
100
AcDbHatch
 10
0.0
 20
0.0
 30
0.0
210
0.0
220
0.0
230
1.0
  2
SOLID
 70
1
 71
0
 91
1
 92
3
 72
0
 73
1
 93
13
 10
21.0
 20
61.5
 10
26.0
 20
61.5
 10
26.0
 20
60.2
 10
25.67
 20
60.2
 10
25.67
 20
61.17
 10
21.33
 20
61.17
 10
21.33
 20
56.83
 10
25.67
 20
56.83
 10
25.67
 20
57.8
 10
26.0
 20
57.8
 10
26.0
 20
56.5
 10
21.0
 20
56.5
 10
21.0
 20
61.5
 97
0
 75
0
 76
1
 98
0
  0
LINE
  5
BE
330
17
100
AcDbEntity
  8
A-DOOR
100
AcDbLine
 10
26.17
 20
57.8
 30
0.0
 11
23.77
 21
57.8
 31
0.0
  0
ARC
  5
BF
330
17
100
AcDbEntity
  8
A-DOOR
100
AcDbCircle
 10
26.17
 20
57.8
 30
0.0
 40
2.4
100
AcDbArc
 50
90.0
 51
180.0
  0
LINE
  5
C0
330
17
100
AcDbEntity
  8
A-DOOR
100
AcDbLine
 10
28.5
 20
50.335
 30
0.0
 11
28.5
 21
53.335
 31
0.0
  0
ARC
  5
C1
330
17
100
AcDbEntity
  8
A-DOOR
100
AcDbCircle
 10
28.5
 20
50.335
 30
0.0
 40
3.0
100
AcDbArc
 50
0.0
 51
90.0
  0
LINE
  5
C2
330
17
100
AcDbEntity
  8
A-GLAZ
100
AcDbLine
 10
40.77625744130615
 20
67.06697459621556
 30
0.0
 11
39.77625744130615
 21
68.79902540378444
 31
0.0
  0
LINE
  5
C3
330
17
100
AcDbEntity
  8
A-GLAZ
100
AcDbLine
 10
40.602186335145475
 20
66.96647459621556
 30
0.0
 11
39.602186335145475
 21
68.69852540378443
 31
0.0
  0
LINE
  5
C4
330
17
100
AcDbEntity
  8
A-GLAZ
100
AcDbLine
 10
40.42811522898481
 20
66.86597459621557
 30
0.0
 11
39.42811522898481
 21
68.59802540378443
 31
0.0
  0
LINE
  5
C5
330
17
100
AcDbEntity
  8
A-GLAZ
100
AcDbLine
 10
34.03707261547558
 20
73.20285680964356
 30
0.0
 11
32.10522096289744
 21
73.7204948998486
 31
0.0
  0
LINE
  5
C6
330
17
100
AcDbEntity
  8
A-GLAZ
100
AcDbLine
 10
33.98504998740997
 20
73.00870571855945
 30
0.0
 11
32.05319833483183
 21
73.52634380876451
 31
0.0
  0
LINE
  5
C7
330
17
100
AcDbEntity
  8
A-GLAZ
100
AcDbLine
 10
33.933027359344365
 20
72.81455462747536
 30
0.0
 11
32.00117570676623
 21
73.3321927176804
 31
0.0
  0
LINE
  5
C8
330
17
100
AcDbEntity
  8
A-GLAZ
100
AcDbLine
 10
24.93302540378444
 20
72.77625744130614
 30
0.0
 11
23.200974596215566
 21
71.77625744130614
 31
0.0
  0
LINE
  5
C9
330
17
100
AcDbEntity
  8
A-GLAZ
100
AcDbLine
 10
25.03352540378444
 20
72.60218633514548
 30
0.0
 11
23.301474596215563
 21
71.60218633514548
 31
0.0
  0
LINE
  5
CA
330
17
100
AcDbEntity
  8
A-GLAZ
100
AcDbLine
 10
25.13402540378444
 20
72.42811522898481
 30
0.0
 11
23.401974596215567
 21
71.42811522898481
 31
0.0
  0
LINE
  5
CB
330
17
100
AcDbEntity
  8
A-GLAZ
100
AcDbLine
 10
18.797143190356437
 20
66.03707261547558
 30
0.0
 11
18.279505100151397
 21
64.10522096289745
 31
0.0
  0
LINE
  5
CC
330
17
100
AcDbEntity
  8
A-GLAZ
100
AcDbLine
 10
18.99129428144054
 20
65.98504998740998
 30
0.0
 11
18.4736561912355
 21
64.05319833483183
 31
0.0
  0
LINE
  5
CD
330
17
100
AcDbEntity
  8
A-GLAZ
100
AcDbLine
 10
19.185445372524644
 20
65.93302735934436
 30
0.0
 11
18.667807282319604
 21
64.00117570676623
 31
0.0
  0
LINE
  5
CE
330
17
100
AcDbEntity
  8
A-GLAZ
100
AcDbLine
 10
18.279505100151397
 20
59.89477903710256
 30
0.0
 11
18.797143190356437
 21
57.96292738452442
 31
0.0
  0
LINE
  5
CF
330
17
100
AcDbEntity
  8
A-GLAZ
100
AcDbLine
 10
18.4736561912355
 20
59.94680166516817
 30
0.0
 11
18.99129428144054
 21
58.01495001259003
 31
0.0
  0
LINE
  5
D0
330
17
100
AcDbEntity
  8
A-GLAZ
100
AcDbLine
 10
18.6678072823196
 20
59.99882429323377
 30
0.0
 11
19.18544537252464
 21
58.066972640655635
 31
0.0
  0
LINE
  5
D1
330
17
100
AcDbEntity
  8
A-GLAZ
100
AcDbLine
 10
23.200974596215556
 20
52.22374255869386
 30
0.0
 11
24.933025403784434
 21
51.22374255869386
 31
0.0
  0
LINE
  5
D2
330
17
100
AcDbEntity
  8
A-GLAZ
100
AcDbLine
 10
23.301474596215556
 20
52.397813664854525
 30
0.0
 11
25.033525403784434
 21
51.397813664854525
 31
0.0
  0
LINE
  5
D3
330
17
100
AcDbEntity
  8
A-GLAZ
100
AcDbLine
 10
23.401974596215556
 20
52.5718847710152
 30
0.0
 11
25.134025403784435
 21
51.5718847710152
 31
0.0
  0
LINE
  5
D4
330
17
100
AcDbEntity
  8
A-GLAZ
100
AcDbLine
 10
32.105220962897434
 20
50.2795051001514
 30
0.0
 11
34.03707261547557
 21
50.79714319035644
 31
0.0
  0
LINE
  5
D5
330
17
100
AcDbEntity
  8
A-GLAZ
100
AcDbLine
 10
32.05319833483183
 20
50.4736561912355
 30
0.0
 11
33.985049987409965
 21
50.99129428144054
 31
0.0
  0
LINE
  5
D6
330
17
100
AcDbEntity
  8
A-GLAZ
100
AcDbLine
 10
32.001175706766226
 20
50.6678072823196
 30
0.0
 11
33.93302735934436
 21
51.18544537252464
 31
0.0
  0
LINE
  5
D7
330
17
100
AcDbEntity
  8
A-GLAZ
100
AcDbLine
 10
39.77625744130614
 20
55.20097459621556
 30
0.0
 11
40.77625744130614
 21
56.933025403784434
 31
0.0
  0
LINE
  5
D8
330
17
100
AcDbEntity
  8
A-GLAZ
100
AcDbLine
 10
39.602186335145475
 20
55.301474596215556
 30
0.0
 11
40.602186335145475
 21
57.03352540378444
 31
0.0
  0
LINE
  5
D9
330
17
100
AcDbEntity
  8
A-GLAZ
100
AcDbLine
 10
39.4281152289848
 20
55.40197459621555
 30
0.0
 11
40.4281152289848
 21
57.134025403784435
 31
0.0
  0
CIRCLE
  5
DA
330
17
100
AcDbEntity
  8
A-ROOF
  6
DASHED
100
AcDbCircle
 10
30.0
 20
62.0
 30
0.0
 40
4.0
  0
TEXT
  5
DB
330
17
100
AcDbEntity
  8
A-FLOR-ANNO
100
AcDbText
 10
30.0
 20
67.2
 30
0.0
 40
0.6
  1
DOME ABOVE R 4.0
 72
1
 11
30.0
 21
67.2
 31
0.0
100
AcDbText
 73
2
  0
CIRCLE
  5
DC
330
17
100
AcDbEntity
  8
A-ELEV-HIDN
  6
DASHED
100
AcDbCircle
 10
30.0
 20
62.0
 30
0.0
 40
8.0
  0
TEXT
  5
DD
330
17
100
AcDbEntity
  8
A-FLOR-ANNO
100
AcDbText
 10
30.0
 20
53.4
 30
0.0
 40
0.55
  1
6 FT CEILING LINE
 72
1
 11
30.0
 21
53.4
 31
0.0
100
AcDbText
 73
2
  0
CIRCLE
  5
DE
330
17
100
AcDbEntity
  8
A-ROOF
  6
DASHED
100
AcDbCircle
 10
30.0
 20
62.0
 30
0.0
 40
12.35
  0
CIRCLE
  5
DF
330
17
100
AcDbEntity
  8
A-ELEV-HIDN
  6
DASHED
100
AcDbCircle
 10
30.0
 20
75.0
 30
0.0
 40
1.3
  0
CIRCLE
  5
E0
330
17
100
AcDbEntity
  8
A-ELEV-HIDN
  6
DASHED
100
AcDbCircle
 10
18.7416697508023
 20
55.5
 30
0.0
 40
1.3
  0
CIRCLE
  5
E1
330
17
100
AcDbEntity
  8
A-ELEV-HIDN
  6
DASHED
100
AcDbCircle
 10
41.2583302491977
 20
55.49999999999999
 30
0.0
 40
1.3
  0
LWPOLYLINE
  5
E2
330
17
100
AcDbEntity
  8
A-DECK
  6
DASHED
100
AcDbPolyline
 90
4
 70
1
 10
28.0
 20
42.5
 10
32.0
 20
42.5
 10
32.0
 20
56.5
 10
28.0
 20
56.5
  0
LINE
  5
E3
330
17
100
AcDbEntity
  8
A-DECK
  6
DASHED
100
AcDbLine
 10
28.0
 20
43.5
 30
0.0
 11
32.0
 21
43.5
 31
0.0
  0
LINE
  5
E4
330
17
100
AcDbEntity
  8
A-DECK
  6
DASHED
100
AcDbLine
 10
28.0
 20
45.5
 30
0.0
 11
32.0
 21
45.5
 31
0.0
  0
LINE
  5
E5
330
17
100
AcDbEntity
  8
A-DECK
  6
DASHED
100
AcDbLine
 10
28.0
 20
47.5
 30
0.0
 11
32.0
 21
47.5
 31
0.0
  0
LINE
  5
E6
330
17
100
AcDbEntity
  8
A-DECK
  6
DASHED
100
AcDbLine
 10
28.0
 20
49.5
 30
0.0
 11
32.0
 21
49.5
 31
0.0
  0
LINE
  5
E7
330
17
100
AcDbEntity
  8
A-DECK
  6
DASHED
100
AcDbLine
 10
28.0
 20
51.5
 30
0.0
 11
32.0
 21
51.5
 31
0.0
  0
LINE
  5
E8
330
17
100
AcDbEntity
  8
A-DECK
  6
DASHED
100
AcDbLine
 10
28.0
 20
53.5
 30
0.0
 11
32.0
 21
53.5
 31
0.0
  0
LINE
  5
E9
330
17
100
AcDbEntity
  8
A-DECK
  6
DASHED
100
AcDbLine
 10
28.0
 20
55.5
 30
0.0
 11
32.0
 21
55.5
 31
0.0
  0
TEXT
  5
EA
330
17
100
AcDbEntity
  8
A-FLOR-ANNO
100
AcDbText
 10
30.0
 20
41.0
 30
0.0
 40
0.6
  1
RAMP DN 1:3
 72
1
 11
30.0
 21
41.0
 31
0.0
100
AcDbText
 73
2
  0
LWPOLYLINE
  5
EB
330
17
100
AcDbEntity
  8
A-FURN
100
AcDbPolyline
 90
4
 70
1
 10
25.0
 20
65.0
 10
29.0
 20
65.0
 10
29.0
 20
67.0
 10
25.0
 20
67.0
  0
TEXT
  5
EC
330
17
100
AcDbEntity
  8
A-FLOR-ANNO
100
AcDbText
 10
27.0
 20
66.0
 30
0.0
 40
0.45
  1
SOFA
 72
1
 11
27.0
 21
66.0
 31
0.0
100
AcDbText
 73
2
  0
LWPOLYLINE
  5
ED
330
17
100
AcDbEntity
  8
A-FURN
100
AcDbPolyline
 90
4
 70
1
 10
29.0
 20
62.5
 10
32.0
 20
62.5
 10
32.0
 20
65.5
 10
29.0
 20
65.5
  0
TEXT
  5
EE
330
17
100
AcDbEntity
  8
A-FLOR-ANNO
100
AcDbText
 10
30.5
 20
64.0
 30
0.0
 40
0.45
  1
TABLE
 72
1
 11
30.5
 21
64.0
 31
0.0
100
AcDbText
 73
2
  0
LWPOLYLINE
  5
EF
330
17
100
AcDbEntity
  8
A-FURN
100
AcDbPolyline
 90
4
 70
1
 10
26.0
 20
70.3
 10
34.0
 20
70.3
 10
34.0
 20
72.1
 10
26.0
 20
72.1
  0
TEXT
  5
F0
330
17
100
AcDbEntity
  8
A-FLOR-ANNO
100
AcDbText
 10
30.0
 20
71.2
 30
0.0
 40
0.45
  1
GALLEY
 72
1
 11
30.0
 21
71.2
 31
0.0
100
AcDbText
 73
2
  0
LWPOLYLINE
  5
F1
330
17
100
AcDbEntity
  8
A-FURN
100
AcDbPolyline
 90
4
 70
1
 10
21.8
 20
58.5
 10
23.4
 20
58.5
 10
23.4
 20
60.5
 10
21.8
 20
60.5
  0
TEXT
  5
F2
330
17
100
AcDbEntity
  8
A-FLOR-ANNO
100
AcDbText
 10
22.6
 20
59.5
 30
0.0
 40
0.45
  1
WC
 72
1
 11
22.6
 21
59.5
 31
0.0
100
AcDbText
 73
2
  0
LWPOLYLINE
  5
F3
330
17
100
AcDbEntity
  8
A-FURN
100
AcDbPolyline
 90
4
 70
1
 10
21.5
 20
56.8
 10
24.5
 20
56.8
 10
24.5
 20
59.8
 10
21.5
 20
59.8
  0
TEXT
  5
F4
330
17
100
AcDbEntity
  8
A-FLOR-ANNO
100
AcDbText
 10
23.0
 20
58.3
 30
0.0
 40
0.45
  1
SHOWER
 72
1
 11
23.0
 21
58.3
 31
0.0
100
AcDbText
 73
2
  0
LWPOLYLINE
  5
F5
330
17
100
AcDbEntity
  8
A-FURN
100
AcDbPolyline
 90
4
 70
1
 10
35.0
 20
56.0
 10
40.0
 20
56.0
 10
40.0
 20
62.5
 10
35.0
 20
62.5
  0
TEXT
  5
F6
330
17
100
AcDbEntity
  8
A-FLOR-ANNO
100
AcDbText
 10
37.5
 20
59.25
 30
0.0
 40
0.45
  1
BUNK
 72
1
 11
37.5
 21
59.25
 31
0.0
100
AcDbText
 73
2
  0
LWPOLYLINE
  5
F7
330
17
100
AcDbEntity
  8
A-FURN
100
AcDbPolyline
 90
4
 70
1
 10
35.5
 20
66.5
 10
39.5
 20
66.5
 10
39.5
 20
68.5
 10
35.5
 20
68.5
  0
TEXT
  5
F8
330
17
100
AcDbEntity
  8
A-FLOR-ANNO
100
AcDbText
 10
37.5
 20
67.5
 30
0.0
 40
0.45
  1
SEAT
 72
1
 11
37.5
 21
67.5
 31
0.0
100
AcDbText
 73
2
  0
TEXT
  5
F9
330
17
100
AcDbEntity
  8
A-FLOR-ANNO
100
AcDbText
 10
30.0
 20
60.5
 30
0.0
 40
0.8
  1
BRIDGE / LIVING
 72
1
 11
30.0
 21
60.5
 31
0.0
100
AcDbText
 73
2
  0
TEXT
  5
FA
330
17
100
AcDbEntity
  8
A-FLOR-ANNO
100
AcDbText
 10
30.0
 20
59.4
 30
0.0
 40
0.6
  1
200 SF
 72
1
 11
30.0
 21
59.4
 31
0.0
100
AcDbText
 73
2
  0
TEXT
  5
FB
330
17
100
AcDbEntity
  8
A-FLOR-ANNO
100
AcDbText
 10
30.0
 20
69.0
 30
0.0
 40
0.8
  1
GALLEY
 72
1
 11
30.0
 21
69.0
 31
0.0
100
AcDbText
 73
2
  0
TEXT
  5
FC
330
17
100
AcDbEntity
  8
A-FLOR-ANNO
100
AcDbText
 10
30.0
 20
67.9
 30
0.0
 40
0.6
  1
60 SF
 72
1
 11
30.0
 21
67.9
 31
0.0
100
AcDbText
 73
2
  0
TEXT
  5
FD
330
17
100
AcDbEntity
  8
A-FLOR-ANNO
100
AcDbText
 10
23.5
 20
55.0
 30
0.0
 40
0.8
  1
BATH CORE
 72
1
 11
23.5
 21
55.0
 31
0.0
100
AcDbText
 73
2
  0
TEXT
  5
FE
330
17
100
AcDbEntity
  8
A-FLOR-ANNO
100
AcDbText
 10
23.5
 20
53.9
 30
0.0
 40
0.6
  1
45 SF
 72
1
 11
23.5
 21
53.9
 31
0.0
100
AcDbText
 73
2
  0
TEXT
  5
FF
330
17
100
AcDbEntity
  8
A-FLOR-ANNO
100
AcDbText
 10
37.5
 20
64.0
 30
0.0
 40
0.8
  1
BUNK ALCOVE
 72
1
 11
37.5
 21
64.0
 31
0.0
100
AcDbText
 73
2
  0
TEXT
  5
100
330
17
100
AcDbEntity
  8
A-FLOR-ANNO
100
AcDbText
 10
37.5
 20
62.9
 30
0.0
 40
0.6
  1
55 SF
 72
1
 11
37.5
 21
62.9
 31
0.0
100
AcDbText
 73
2
  0
TEXT
  5
101
330
17
100
AcDbEntity
  8
A-FLOR-ANNO
100
AcDbText
 10
30.0
 20
51.7
 30
0.0
 40
0.8
  1
RIM SEATING
 72
1
 11
30.0
 21
51.7
 31
0.0
100
AcDbText
 73
2
  0
DIMENSION
  5
102
330
17
100
AcDbEntity
  8
A-ANNO-DIMS
100
AcDbDimension
280
0
  2
*D1
  3
EZDXF
 10
18.0
 20
78.0
 30
0.0
 11
30.0
 21
78.65
 31
0.0
 70
32
 71
5
  1
<>
100
AcDbAlignedDimension
 13
18.0
 23
62.0
 33
0.0
 14
42.0
 24
62.0
 34
0.0
 50
0.0
100
AcDbRotatedDimension
1001
ACAD
1000
DSTYLE
1002
{
1070
140
1040
0.9
1070
41
1040
0.45
1070
44
1040
0.3
1070
42
1040
0.35
1070
147
1040
0.2
1070
271
1070
1
1070
3
1000
<>'
1070
178
1070
1
1070
176
1070
1
1070
177
1070
1
1002
}
  0
DIMENSION
  5
111
330
17
100
AcDbEntity
  8
A-ANNO-DIMS
100
AcDbDimension
280
0
  2
*D2
  3
EZDXF
 10
46.0
 20
50.0
 30
0.0
 11
45.35
 21
62.0
 31
0.0
 70
32
 71
5
  1
<>
100
AcDbAlignedDimension
 13
30.0
 23
50.0
 33
0.0
 14
30.0
 24
74.0
 34
0.0
 50
90.0
100
AcDbRotatedDimension
1001
ACAD
1000
DSTYLE
1002
{
1070
140
1040
0.9
1070
41
1040
0.45
1070
44
1040
0.3
1070
42
1040
0.35
1070
147
1040
0.2
1070
271
1070
1
1070
3
1000
<>'
1070
178
1070
1
1070
176
1070
1
1070
177
1070
1
1002
}
  0
DIMENSION
  5
120
330
17
100
AcDbEntity
  8
A-ANNO-DIMS
100
AcDbDimension
280
0
  2
*D3
  3
EZDXF
 10
28.5
 20
47.5
 30
0.0
 11
30.0
 21
48.45
 31
0.0
 70
32
 71
5
  1
<>
100
AcDbAlignedDimension
 13
28.5
 23
50.0
 33
0.0
 14
31.5
 24
50.0
 34
0.0
 50
0.0
100
AcDbRotatedDimension
1001
ACAD
1000
DSTYLE
1002
{
1070
140
1040
0.9
1070
41
1040
0.45
1070
44
1040
0.3
1070
42
1040
0.35
1070
147
1040
0.2
1070
271
1070
1
1070
3
1000
<>'
1070
178
1070
1
1070
176
1070
1
1070
177
1070
1
1002
}
  0
DIMENSION
  5
12F
330
17
100
AcDbEntity
  8
A-ANNO-DIMS
100
AcDbDimension
280
0
  2
*D4
  3
EZDXF
 10
25.0
 20
42.5
 30
0.0
 11
24.35
 21
49.5
 31
0.0
 70
32
 71
5
  1
<>
100
AcDbAlignedDimension
 13
28.0
 23
42.5
 33
0.0
 14
28.0
 24
56.5
 34
0.0
 50
90.0
100
AcDbRotatedDimension
1001
ACAD
1000
DSTYLE
1002
{
1070
140
1040
0.9
1070
41
1040
0.45
1070
44
1040
0.3
1070
42
1040
0.35
1070
147
1040
0.2
1070
271
1070
1
1070
3
1000
<>'
1070
178
1070
1
1070
176
1070
1
1070
177
1070
1
1002
}
  0
TEXT
  5
13E
330
17
100
AcDbEntity
  8
G-TITLE
100
AcDbText
 10
13.0
 20
37.0
 30
0.0
 40
1.4
  1
FLOOR PLAN
 11
13.0
 21
37.0
 31
0.0
100
AcDbText
  0
LINE
  5
13F
330
17
100
AcDbEntity
  8
G-TITLE
100
AcDbLine
 10
13.0
 20
36.5
 30
0.0
 11
53.0
 21
36.5
 31
0.0
  0
TEXT
  5
140
330
17
100
AcDbEntity
  8
G-TITLE
100
AcDbText
 10
50.0
 20
82.0
 30
0.0
 40
1.2
  1
N
 72
1
 11
50.0
 21
82.0
 31
0.0
100
AcDbText
 73
2
  0
LINE
  5
141
330
17
100
AcDbEntity
  8
G-TITLE
100
AcDbLine
 10
50.0
 20
78.0
 30
0.0
 11
50.0
 21
81.0
 31
0.0
  0
LINE
  5
142
330
17
100
AcDbEntity
  8
A-GRND
100
AcDbLine
 10
60.0
 20
60.0
 30
0.0
 11
104.0
 21
60.0
 31
0.0
  0
LINE
  5
143
330
17
100
AcDbEntity
  8
A-GRND
100
AcDbLine
 10
60.0
 20
60.0
 30
0.0
 11
59.0
 21
59.2
 31
0.0
  0
LINE
  5
144
330
17
100
AcDbEntity
  8
A-GRND
100
AcDbLine
 10
62.0
 20
60.0
 30
0.0
 11
61.0
 21
59.2
 31
0.0
  0
LINE
  5
145
330
17
100
AcDbEntity
  8
A-GRND
100
AcDbLine
 10
64.0
 20
60.0
 30
0.0
 11
63.0
 21
59.2
 31
0.0
  0
LINE
  5
146
330
17
100
AcDbEntity
  8
A-GRND
100
AcDbLine
 10
66.0
 20
60.0
 30
0.0
 11
65.0
 21
59.2
 31
0.0
  0
LINE
  5
147
330
17
100
AcDbEntity
  8
A-GRND
100
AcDbLine
 10
68.0
 20
60.0
 30
0.0
 11
67.0
 21
59.2
 31
0.0
  0
LINE
  5
148
330
17
100
AcDbEntity
  8
A-GRND
100
AcDbLine
 10
70.0
 20
60.0
 30
0.0
 11
69.0
 21
59.2
 31
0.0
  0
LINE
  5
149
330
17
100
AcDbEntity
  8
A-GRND
100
AcDbLine
 10
72.0
 20
60.0
 30
0.0
 11
71.0
 21
59.2
 31
0.0
  0
LINE
  5
14A
330
17
100
AcDbEntity
  8
A-GRND
100
AcDbLine
 10
74.0
 20
60.0
 30
0.0
 11
73.0
 21
59.2
 31
0.0
  0
LINE
  5
14B
330
17
100
AcDbEntity
  8
A-GRND
100
AcDbLine
 10
76.0
 20
60.0
 30
0.0
 11
75.0
 21
59.2
 31
0.0
  0
LINE
  5
14C
330
17
100
AcDbEntity
  8
A-GRND
100
AcDbLine
 10
78.0
 20
60.0
 30
0.0
 11
77.0
 21
59.2
 31
0.0
  0
LINE
  5
14D
330
17
100
AcDbEntity
  8
A-GRND
100
AcDbLine
 10
80.0
 20
60.0
 30
0.0
 11
79.0
 21
59.2
 31
0.0
  0
LINE
  5
14E
330
17
100
AcDbEntity
  8
A-GRND
100
AcDbLine
 10
82.0
 20
60.0
 30
0.0
 11
81.0
 21
59.2
 31
0.0
  0
LINE
  5
14F
330
17
100
AcDbEntity
  8
A-GRND
100
AcDbLine
 10
84.0
 20
60.0
 30
0.0
 11
83.0
 21
59.2
 31
0.0
  0
LINE
  5
150
330
17
100
AcDbEntity
  8
A-GRND
100
AcDbLine
 10
86.0
 20
60.0
 30
0.0
 11
85.0
 21
59.2
 31
0.0
  0
LINE
  5
151
330
17
100
AcDbEntity
  8
A-GRND
100
AcDbLine
 10
88.0
 20
60.0
 30
0.0
 11
87.0
 21
59.2
 31
0.0
  0
LINE
  5
152
330
17
100
AcDbEntity
  8
A-GRND
100
AcDbLine
 10
90.0
 20
60.0
 30
0.0
 11
89.0
 21
59.2
 31
0.0
  0
LINE
  5
153
330
17
100
AcDbEntity
  8
A-GRND
100
AcDbLine
 10
92.0
 20
60.0
 30
0.0
 11
91.0
 21
59.2
 31
0.0
  0
LINE
  5
154
330
17
100
AcDbEntity
  8
A-GRND
100
AcDbLine
 10
94.0
 20
60.0
 30
0.0
 11
93.0
 21
59.2
 31
0.0
  0
LINE
  5
155
330
17
100
AcDbEntity
  8
A-GRND
100
AcDbLine
 10
96.0
 20
60.0
 30
0.0
 11
95.0
 21
59.2
 31
0.0
  0
LINE
  5
156
330
17
100
AcDbEntity
  8
A-GRND
100
AcDbLine
 10
98.0
 20
60.0
 30
0.0
 11
97.0
 21
59.2
 31
0.0
  0
LINE
  5
157
330
17
100
AcDbEntity
  8
A-GRND
100
AcDbLine
 10
100.0
 20
60.0
 30
0.0
 11
99.0
 21
59.2
 31
0.0
  0
LINE
  5
158
330
17
100
AcDbEntity
  8
A-GRND
100
AcDbLine
 10
102.0
 20
60.0
 30
0.0
 11
101.0
 21
59.2
 31
0.0
  0
LWPOLYLINE
  5
159
330
17
100
AcDbEntity
  8
A-ELEV
100
AcDbPolyline
 90
24
 70
1
 10
82.0
 20
63.8
 10
78.5
 20
63.8
 10
76.0
 20
64.3
 10
72.5
 20
65.1
 10
70.0
 20
66.0
 10
69.7
 20
66.3
 10
69.7
 20
70.2
 10
70.0
 20
70.5
 10
71.5
 20
71.4
 10
75.0
 20
73.1
 10
79.0
 20
74.6
 10
82.0
 20
75.0
 10
82.0
 20
75.0
 10
85.0
 20
74.6
 10
89.0
 20
73.1
 10
92.5
 20
71.4
 10
94.0
 20
70.5
 10
94.3
 20
70.2
 10
94.3
 20
66.3
 10
94.0
 20
66.0
 10
91.5
 20
65.1
 10
88.0
 20
64.3
 10
85.5
 20
63.8
 10
82.0
 20
63.8
  0
LWPOLYLINE
  5
15A
330
17
100
AcDbEntity
  8
A-ELEV
100
AcDbPolyline
 90
4
 70
1
 10
69.65
 20
66.9
 10
94.35
 20
66.9
 10
94.35
 20
69.6
 10
69.65
 20
69.6
  0
LWPOLYLINE
  5
15B
330
17
100
AcDbEntity
  8
A-GLAZ
100
AcDbPolyline
 90
8
 70
1
 10
78.0
 20
75.0
 10
78.6
 20
77.1
 10
80.0
 20
78.5
 10
82.0
 20
79.0
 10
82.0
 20
79.0
 10
84.0
 20
78.5
 10
85.4
 20
77.1
 10
86.0
 20
75.0
  0
HATCH
  5
15C
330
17
100
AcDbEntity
  8
A-GLAZ-PATT
 62
151
100
AcDbHatch
 10
0.0
 20
0.0
 30
0.0
210
0.0
220
0.0
230
1.0
  2
SOLID
 70
1
 71
0
 91
1
 92
3
 72
0
 73
1
 93
9
 10
78.0
 20
75.0
 10
78.6
 20
77.1
 10
80.0
 20
78.5
 10
82.0
 20
79.0
 10
82.0
 20
79.0
 10
84.0
 20
78.5
 10
85.4
 20
77.1
 10
86.0
 20
75.0
 10
78.0
 20
75.0
 97
0
 75
0
 76
1
 98
0
  0
LWPOLYLINE
  5
15D
330
17
100
AcDbEntity
  8
A-ELEV
100
AcDbPolyline
 90
4
 70
1
 10
81.88
 20
79.0
 10
82.12
 20
79.0
 10
82.12
 20
82.0
 10
81.88
 20
82.0
  0
CIRCLE
  5
15E
330
17
100
AcDbEntity
  8
A-ELEV
100
AcDbCircle
 10
82.0
 20
82.0
 30
0.0
 40
0.5
  0
LINE
  5
15F
330
17
100
AcDbEntity
  8
A-GLAZ
100
AcDbLine
 10
71.5
 20
65.4
 30
0.0
 11
92.5
 21
65.4
 31
0.0
  0
LWPOLYLINE
  5
160
330
17
100
AcDbEntity
  8
A-ELEV
100
AcDbPolyline
 90
4
 70
1
 10
73.85577136594006
 20
64.8
 10
74.55577136594005
 20
64.8
 10
71.0916697508023
 20
60.35
 10
70.3916697508023
 20
60.35
  0
LWPOLYLINE
  5
161
330
17
100
AcDbEntity
  8
A-ELEV
100
AcDbPolyline
 90
4
 70
1
 10
69.4416697508023
 20
60.0
 10
72.0416697508023
 20
60.0
 10
72.0416697508023
 20
60.35
 10
69.4416697508023
 20
60.35
  0
LWPOLYLINE
  5
162
330
17
100
AcDbEntity
  8
A-ELEV
100
AcDbPolyline
 90
4
 70
1
 10
89.44422863405994
 20
64.8
 10
90.14422863405994
 20
64.8
 10
93.60833024919769
 20
60.35
 10
92.9083302491977
 20
60.35
  0
LWPOLYLINE
  5
163
330
17
100
AcDbEntity
  8
A-ELEV
100
AcDbPolyline
 90
4
 70
1
 10
91.9583302491977
 20
60.0
 10
94.5583302491977
 20
60.0
 10
94.5583302491977
 20
60.35
 10
91.9583302491977
 20
60.35
  0
LWPOLYLINE
  5
164
330
17
100
AcDbEntity
  8
A-ELEV-HIDN
  6
DASHED
100
AcDbPolyline
 90
4
 70
1
 10
81.65
 20
64.8
 10
82.35
 20
64.8
 10
82.35
 20
60.35
 10
81.65
 20
60.35
  0
LWPOLYLINE
  5
165
330
17
100
AcDbEntity
  8
A-ELEV-HIDN
  6
DASHED
100
AcDbPolyline
 90
4
 70
1
 10
80.7
 20
60.0
 10
83.3
 20
60.0
 10
83.3
 20
60.35
 10
80.7
 20
60.35
  0
LINE
  5
166
330
17
100
AcDbEntity
  8
A-LEVL
100
AcDbLine
 10
97.5
 20
66.0
 30
0.0
 11
101.5
 21
66.0
 31
0.0
  0
TEXT
  5
167
330
17
100
AcDbEntity
  8
A-LEVL
100
AcDbText
 10
101.7
 20
66.15
 30
0.0
 40
0.7
  1
FIN FLOOR  6.0'
 11
101.7
 21
66.15
 31
0.0
100
AcDbText
  0
LINE
  5
168
330
17
100
AcDbEntity
  8
A-LEVL
100
AcDbLine
 10
97.5
 20
70.5
 30
0.0
 11
101.5
 21
70.5
 31
0.0
  0
TEXT
  5
169
330
17
100
AcDbEntity
  8
A-LEVL
100
AcDbText
 10
101.7
 20
70.65
 30
0.0
 40
0.7
  1
RIM  10.5'
 11
101.7
 21
70.65
 31
0.0
100
AcDbText
  0
LINE
  5
16A
330
17
100
AcDbEntity
  8
A-LEVL
100
AcDbLine
 10
97.5
 20
75.0
 30
0.0
 11
101.5
 21
75.0
 31
0.0
  0
TEXT
  5
16B
330
17
100
AcDbEntity
  8
A-LEVL
100
AcDbText
 10
101.7
 20
75.15
 30
0.0
 40
0.7
  1
CEILING PEAK  15.0'
 11
101.7
 21
75.15
 31
0.0
100
AcDbText
  0
LINE
  5
16C
330
17
100
AcDbEntity
  8
A-LEVL
100
AcDbLine
 10
97.5
 20
79.0
 30
0.0
 11
101.5
 21
79.0
 31
0.0
  0
TEXT
  5
16D
330
17
100
AcDbEntity
  8
A-LEVL
100
AcDbText
 10
101.7
 20
79.15
 30
0.0
 40
0.7
  1
DOME  19.0'
 11
101.7
 21
79.15
 31
0.0
100
AcDbText
  0
LINE
  5
16E
330
17
100
AcDbEntity
  8
A-LEVL
100
AcDbLine
 10
97.5
 20
60.0
 30
0.0
 11
101.5
 21
60.0
 31
0.0
  0
TEXT
  5
16F
330
17
100
AcDbEntity
  8
A-LEVL
100
AcDbText
 10
101.7
 20
60.15
 30
0.0
 40
0.7
  1
GRADE  0.0'
 11
101.7
 21
60.15
 31
0.0
100
AcDbText
  0
DIMENSION
  5
170
330
17
100
AcDbEntity
  8
A-ANNO-DIMS
100
AcDbDimension
280
0
  2
*D5
  3
EZDXF
 10
64.0
 20
60.0
 30
0.0
 11
63.35
 21
63.0
 31
0.0
 70
32
 71
5
  1
<>
100
AcDbAlignedDimension
 13
82.0
 23
60.0
 33
0.0
 14
82.0
 24
66.0
 34
0.0
 50
90.0
100
AcDbRotatedDimension
1001
ACAD
1000
DSTYLE
1002
{
1070
140
1040
0.9
1070
41
1040
0.45
1070
44
1040
0.3
1070
42
1040
0.35
1070
147
1040
0.2
1070
271
1070
1
1070
3
1000
<>'
1070
178
1070
1
1070
176
1070
1
1070
177
1070
1
1002
}
  0
DIMENSION
  5
17F
330
17
100
AcDbEntity
  8
A-ANNO-DIMS
100
AcDbDimension
280
0
  2
*D6
  3
EZDXF
 10
64.0
 20
66.0
 30
0.0
 11
63.35
 21
72.5
 31
0.0
 70
32
 71
5
  1
<>
100
AcDbAlignedDimension
 13
82.0
 23
66.0
 33
0.0
 14
82.0
 24
79.0
 34
0.0
 50
90.0
100
AcDbRotatedDimension
1001
ACAD
1000
DSTYLE
1002
{
1070
140
1040
0.9
1070
41
1040
0.45
1070
44
1040
0.3
1070
42
1040
0.35
1070
147
1040
0.2
1070
271
1070
1
1070
3
1000
<>'
1070
178
1070
1
1070
176
1070
1
1070
177
1070
1
1002
}
  0
DIMENSION
  5
18E
330
17
100
AcDbEntity
  8
A-ANNO-DIMS
100
AcDbDimension
280
0
  2
*D7
  3
EZDXF
 10
69.65
 20
56.0
 30
0.0
 11
82.0
 21
56.65
 31
0.0
 70
32
 71
5
  1
<>
100
AcDbAlignedDimension
 13
69.65
 23
60.0
 33
0.0
 14
94.35
 24
60.0
 34
0.0
 50
0.0
100
AcDbRotatedDimension
1001
ACAD
1000
DSTYLE
1002
{
1070
140
1040
0.9
1070
41
1040
0.45
1070
44
1040
0.3
1070
42
1040
0.35
1070
147
1040
0.2
1070
271
1070
1
1070
3
1000
<>'
1070
178
1070
1
1070
176
1070
1
1070
177
1070
1
1002
}
  0
CIRCLE
  5
19D
330
17
100
AcDbEntity
  8
A-GLAZ
100
AcDbCircle
 10
70.02251975401555
 20
68.25
 30
0.0
 40
1.0
  0
HATCH
  5
19E
330
17
100
AcDbEntity
  8
A-GLAZ-PATT
 62
151
100
AcDbHatch
 10
0.0
 20
0.0
 30
0.0
210
0.0
220
0.0
230
1.0
  2
SOLID
 70
1
 71
0
 91
1
 92
3
 72
0
 73
1
 93
65
 10
71.02251975401555
 20
68.25
 10
71.01770448068775
 20
68.15198285967044
 10
71.00330503441879
 20
68.05490967798387
 10
70.97946008974776
 20
67.95971532274554
 10
70.94639928652684
 20
67.86731656763492
 10
70.90444101836391
 20
67.778603263174
 10
70.8539893663181
 20
67.69442976698039
 10
70.79553020737829
 20
67.61560671583635
 10
70.7296265352021
 20
67.54289321881345
 10
70.6569130381792
 20
67.47698954663727
 10
70.57808998703516
 20
67.41853038769746
 10
70.49391649084156
 20
67.36807873565165
 10
70.40520318638065
 20
67.3261204674887
 10
70.31280443127001
 20
67.29305966426779
 10
70.21761007603168
 20
67.26921471959677
 10
70.12053689434511
 20
67.25481527332781
 10
70.02251975401555
 20
67.25
 10
69.92450261368599
 20
67.25481527332781
 10
69.82742943199942
 20
67.26921471959677
 10
69.73223507676109
 20
67.29305966426779
 10
69.63983632165046
 20
67.3261204674887
 10
69.55112301718955
 20
67.36807873565165
 10
69.46694952099595
 20
67.41853038769746
 10
69.38812646985191
 20
67.47698954663727
 10
69.31541297282901
 20
67.54289321881345
 10
69.24950930065282
 20
67.61560671583635
 10
69.191050141713
 20
67.69442976698039
 10
69.1405984896672
 20
67.778603263174
 10
69.09864022150427
 20
67.86731656763492
 10
69.06557941828335
 20
67.95971532274554
 10
69.04173447361232
 20
68.05490967798387
 10
69.02733502734336
 20
68.15198285967044
 10
69.02251975401555
 20
68.25
 10
69.02733502734336
 20
68.34801714032956
 10
69.04173447361232
 20
68.44509032201613
 10
69.06557941828335
 20
68.54028467725446
 10
69.09864022150427
 20
68.63268343236508
 10
69.1405984896672
 20
68.721396736826
 10
69.191050141713
 20
68.80557023301961
 10
69.24950930065282
 20
68.88439328416365
 10
69.31541297282901
 20
68.95710678118655
 10
69.38812646985191
 20
69.02301045336273
 10
69.46694952099595
 20
69.08146961230254
 10
69.55112301718955
 20
69.13192126434835
 10
69.63983632165046
 20
69.17387953251128
 10
69.73223507676109
 20
69.20694033573221
 10
69.82742943199942
 20
69.23078528040323
 10
69.92450261368599
 20
69.24518472667219
 10
70.02251975401555
 20
69.25
 10
70.12053689434511
 20
69.24518472667219
 10
70.21761007603168
 20
69.23078528040323
 10
70.31280443127001
 20
69.20694033573221
 10
70.40520318638065
 20
69.17387953251128
 10
70.49391649084156
 20
69.13192126434835
 10
70.57808998703516
 20
69.08146961230254
 10
70.6569130381792
 20
69.02301045336273
 10
70.7296265352021
 20
68.95710678118655
 10
70.79553020737829
 20
68.88439328416365
 10
70.8539893663181
 20
68.80557023301961
 10
70.90444101836391
 20
68.721396736826
 10
70.94639928652684
 20
68.63268343236508
 10
70.97946008974776
 20
68.54028467725446
 10
71.00330503441879
 20
68.44509032201613
 10
71.01770448068775
 20
68.34801714032956
 10
71.02251975401555
 20
68.25
 97
0
 75
0
 76
1
 98
0
  0
CIRCLE
  5
19F
330
17
100
AcDbEntity
  8
A-GLAZ
100
AcDbCircle
 10
75.8
 20
68.25
 30
0.0
 40
1.0
  0
HATCH
  5
1A0
330
17
100
AcDbEntity
  8
A-GLAZ-PATT
 62
151
100
AcDbHatch
 10
0.0
 20
0.0
 30
0.0
210
0.0
220
0.0
230
1.0
  2
SOLID
 70
1
 71
0
 91
1
 92
3
 72
0
 73
1
 93
65
 10
76.8
 20
68.25
 10
76.79518472667219
 20
68.15198285967044
 10
76.78078528040322
 20
68.05490967798387
 10
76.7569403357322
 20
67.95971532274554
 10
76.72387953251128
 20
67.86731656763492
 10
76.68192126434835
 20
67.778603263174
 10
76.63146961230254
 20
67.69442976698039
 10
76.57301045336273
 20
67.61560671583635
 10
76.50710678118654
 20
67.54289321881345
 10
76.43439328416363
 20
67.47698954663727
 10
76.35557023301959
 20
67.41853038769746
 10
76.27139673682599
 20
67.36807873565165
 10
76.18268343236508
 20
67.3261204674887
 10
76.09028467725446
 20
67.29305966426779
 10
75.99509032201613
 20
67.26921471959677
 10
75.89801714032956
 20
67.25481527332781
 10
75.8
 20
67.25
 10
75.70198285967044
 20
67.25481527332781
 10
75.60490967798387
 20
67.26921471959677
 10
75.50971532274554
 20
67.29305966426779
 10
75.4173165676349
 20
67.3261204674887
 10
75.328603263174
 20
67.36807873565165
 10
75.24442976698039
 20
67.41853038769746
 10
75.16560671583635
 20
67.47698954663727
 10
75.09289321881344
 20
67.54289321881345
 10
75.02698954663725
 20
67.61560671583635
 10
74.96853038769746
 20
67.69442976698039
 10
74.91807873565163
 20
67.778603263174
 10
74.8761204674887
 20
67.86731656763492
 10
74.84305966426778
 20
67.95971532274554
 10
74.81921471959676
 20
68.05490967798387
 10
74.80481527332779
 20
68.15198285967044
 10
74.8
 20
68.25
 10
74.80481527332779
 20
68.34801714032956
 10
74.81921471959676
 20
68.44509032201613
 10
74.84305966426778
 20
68.54028467725446
 10
74.8761204674887
 20
68.63268343236508
 10
74.91807873565163
 20
68.721396736826
 10
74.96853038769746
 20
68.80557023301961
 10
75.02698954663725
 20
68.88439328416365
 10
75.09289321881344
 20
68.95710678118655
 10
75.16560671583635
 20
69.02301045336273
 10
75.24442976698039
 20
69.08146961230254
 10
75.328603263174
 20
69.13192126434835
 10
75.4173165676349
 20
69.17387953251128
 10
75.50971532274554
 20
69.20694033573221
 10
75.60490967798387
 20
69.23078528040323
 10
75.70198285967044
 20
69.24518472667219
 10
75.8
 20
69.25
 10
75.89801714032956
 20
69.24518472667219
 10
75.99509032201613
 20
69.23078528040323
 10
76.09028467725446
 20
69.20694033573221
 10
76.18268343236508
 20
69.17387953251128
 10
76.27139673682599
 20
69.13192126434835
 10
76.35557023301959
 20
69.08146961230254
 10
76.43439328416363
 20
69.02301045336273
 10
76.50710678118654
 20
68.95710678118655
 10
76.57301045336273
 20
68.88439328416365
 10
76.63146961230254
 20
68.80557023301961
 10
76.68192126434835
 20
68.721396736826
 10
76.72387953251128
 20
68.63268343236508
 10
76.7569403357322
 20
68.54028467725446
 10
76.78078528040322
 20
68.44509032201613
 10
76.79518472667219
 20
68.34801714032956
 10
76.8
 20
68.25
 97
0
 75
0
 76
1
 98
0
  0
CIRCLE
  5
1A1
330
17
100
AcDbEntity
  8
A-GLAZ
100
AcDbCircle
 10
85.20935615927125
 20
68.25
 30
0.0
 40
1.0
  0
HATCH
  5
1A2
330
17
100
AcDbEntity
  8
A-GLAZ-PATT
 62
151
100
AcDbHatch
 10
0.0
 20
0.0
 30
0.0
210
0.0
220
0.0
230
1.0
  2
SOLID
 70
1
 71
0
 91
1
 92
3
 72
0
 73
1
 93
65
 10
86.20935615927125
 20
68.25
 10
86.20454088594344
 20
68.15198285967044
 10
86.19014143967448
 20
68.05490967798387
 10
86.16629649500346
 20
67.95971532274554
 10
86.13323569178255
 20
67.86731656763492
 10
86.0912774236196
 20
67.778603263174
 10
86.0408257715738
 20
67.69442976698039
 10
85.982366612634
 20
67.61560671583635
 10
85.9164629404578
 20
67.54289321881345
 10
85.8437494434349
 20
67.47698954663727
 10
85.76492639229086
 20
67.41853038769746
 10
85.68075289609725
 20
67.36807873565165
 10
85.59203959163634
 20
67.3261204674887
 10
85.49964083652571
 20
67.29305966426779
 10
85.40444648128738
 20
67.26921471959677
 10
85.30737329960081
 20
67.25481527332781
 10
85.20935615927125
 20
67.25
 10
85.11133901894169
 20
67.25481527332781
 10
85.01426583725512
 20
67.26921471959677
 10
84.91907148201679
 20
67.29305966426779
 10
84.82667272690617
 20
67.3261204674887
 10
84.73795942244526
 20
67.36807873565165
 10
84.65378592625164
 20
67.41853038769746
 10
84.5749628751076
 20
67.47698954663727
 10
84.5022493780847
 20
67.54289321881345
 10
84.43634570590851
 20
67.61560671583635
 10
84.37788654696871
 20
67.69442976698039
 10
84.3274348949229
 20
67.778603263174
 10
84.28547662675996
 20
67.86731656763492
 10
84.25241582353904
 20
67.95971532274554
 10
84.22857087886803
 20
68.05490967798387
 10
84.21417143259906
 20
68.15198285967044
 10
84.20935615927125
 20
68.25
 10
84.21417143259906
 20
68.34801714032956
 10
84.22857087886803
 20
68.44509032201613
 10
84.25241582353904
 20
68.54028467725446
 10
84.28547662675996
 20
68.63268343236508
 10
84.3274348949229
 20
68.721396736826
 10
84.37788654696871
 20
68.80557023301961
 10
84.43634570590851
 20
68.88439328416365
 10
84.5022493780847
 20
68.95710678118655
 10
84.5749628751076
 20
69.02301045336273
 10
84.65378592625164
 20
69.08146961230254
 10
84.73795942244526
 20
69.13192126434835
 10
84.82667272690617
 20
69.17387953251128
 10
84.91907148201679
 20
69.20694033573221
 10
85.01426583725512
 20
69.23078528040323
 10
85.11133901894169
 20
69.24518472667219
 10
85.20935615927125
 20
69.25
 10
85.30737329960081
 20
69.24518472667219
 10
85.40444648128738
 20
69.23078528040323
 10
85.49964083652571
 20
69.20694033573221
 10
85.59203959163634
 20
69.17387953251128
 10
85.68075289609725
 20
69.13192126434835
 10
85.76492639229086
 20
69.08146961230254
 10
85.8437494434349
 20
69.02301045336273
 10
85.9164629404578
 20
68.95710678118655
 10
85.982366612634
 20
68.88439328416365
 10
86.0408257715738
 20
68.80557023301961
 10
86.0912774236196
 20
68.721396736826
 10
86.13323569178255
 20
68.63268343236508
 10
86.16629649500346
 20
68.54028467725446
 10
86.19014143967448
 20
68.44509032201613
 10
86.20454088594344
 20
68.34801714032956
 10
86.20935615927125
 20
68.25
 97
0
 75
0
 76
1
 98
0
  0
CIRCLE
  5
1A3
330
17
100
AcDbEntity
  8
A-GLAZ
100
AcDbCircle
 10
92.73871500692704
 20
68.25
 30
0.0
 40
1.0
  0
HATCH
  5
1A4
330
17
100
AcDbEntity
  8
A-GLAZ-PATT
 62
151
100
AcDbHatch
 10
0.0
 20
0.0
 30
0.0
210
0.0
220
0.0
230
1.0
  2
SOLID
 70
1
 71
0
 91
1
 92
3
 72
0
 73
1
 93
65
 10
93.73871500692704
 20
68.25
 10
93.73389973359923
 20
68.15198285967044
 10
93.71950028733026
 20
68.05490967798387
 10
93.69565534265925
 20
67.95971532274554
 10
93.66259453943832
 20
67.86731656763492
 10
93.62063627127539
 20
67.778603263174
 10
93.57018461922958
 20
67.69442976698039
 10
93.51172546028977
 20
67.61560671583635
 10
93.44582178811359
 20
67.54289321881345
 10
93.37310829109069
 20
67.47698954663727
 10
93.29428523994665
 20
67.41853038769746
 10
93.21011174375303
 20
67.36807873565165
 10
93.12139843929212
 20
67.3261204674887
 10
93.0289996841815
 20
67.29305966426779
 10
92.93380532894317
 20
67.26921471959677
 10
92.8367321472566
 20
67.25481527332781
 10
92.73871500692704
 20
67.25
 10
92.64069786659748
 20
67.25481527332781
 10
92.54362468491091
 20
67.26921471959677
 10
92.44843032967258
 20
67.29305966426779
 10
92.35603157456194
 20
67.3261204674887
 10
92.26731827010104
 20
67.36807873565165
 10
92.18314477390743
 20
67.41853038769746
 10
92.10432172276339
 20
67.47698954663727
 10
92.03160822574048
 20
67.54289321881345
 10
91.9657045535643
 20
67.61560671583635
 10
91.9072453946245
 20
67.69442976698039
 10
91.85679374257867
 20
67.778603263174
 10
91.81483547441574
 20
67.86731656763492
 10
91.78177467119482
 20
67.95971532274554
 10
91.7579297265238
 20
68.05490967798387
 10
91.74353028025484
 20
68.15198285967044
 10
91.73871500692704
 20
68.25
 10
91.74353028025484
 20
68.34801714032956
 10
91.7579297265238
 20
68.44509032201613
 10
91.78177467119482
 20
68.54028467725446
 10
91.81483547441574
 20
68.63268343236508
 10
91.85679374257867
 20
68.721396736826
 10
91.9072453946245
 20
68.80557023301961
 10
91.9657045535643
 20
68.88439328416365
 10
92.03160822574048
 20
68.95710678118655
 10
92.10432172276339
 20
69.02301045336273
 10
92.18314477390743
 20
69.08146961230254
 10
92.26731827010104
 20
69.13192126434835
 10
92.35603157456194
 20
69.17387953251128
 10
92.44843032967258
 20
69.20694033573221
 10
92.54362468491091
 20
69.23078528040323
 10
92.64069786659748
 20
69.24518472667219
 10
92.73871500692704
 20
69.25
 10
92.8367321472566
 20
69.24518472667219
 10
92.93380532894317
 20
69.23078528040323
 10
93.0289996841815
 20
69.20694033573221
 10
93.12139843929212
 20
69.17387953251128
 10
93.21011174375303
 20
69.13192126434835
 10
93.29428523994663
 20
69.08146961230254
 10
93.37310829109069
 20
69.02301045336273
 10
93.44582178811359
 20
68.95710678118655
 10
93.51172546028977
 20
68.88439328416365
 10
93.57018461922958
 20
68.80557023301961
 10
93.62063627127539
 20
68.721396736826
 10
93.66259453943832
 20
68.63268343236508
 10
93.69565534265925
 20
68.54028467725446
 10
93.71950028733026
 20
68.44509032201613
 10
93.73389973359923
 20
68.34801714032956
 10
93.73871500692704
 20
68.25
 97
0
 75
0
 76
1
 98
0
  0
LWPOLYLINE
  5
1A5
330
17
100
AcDbEntity
  8
A-DECK
100
AcDbPolyline
 90
4
 70
1
 10
80.0
 20
60.0
 10
84.0
 20
60.0
 10
84.0
 20
64.5
 10
80.0
 20
64.5
  0
LINE
  5
1A6
330
17
100
AcDbEntity
  8
A-DECK
100
AcDbLine
 10
80.0
 20
60.5625
 30
0.0
 11
84.0
 21
60.5625
 31
0.0
  0
LINE
  5
1A7
330
17
100
AcDbEntity
  8
A-DECK
100
AcDbLine
 10
80.0
 20
61.125
 30
0.0
 11
84.0
 21
61.125
 31
0.0
  0
LINE
  5
1A8
330
17
100
AcDbEntity
  8
A-DECK
100
AcDbLine
 10
80.0
 20
61.6875
 30
0.0
 11
84.0
 21
61.6875
 31
0.0
  0
LINE
  5
1A9
330
17
100
AcDbEntity
  8
A-DECK
100
AcDbLine
 10
80.0
 20
62.25
 30
0.0
 11
84.0
 21
62.25
 31
0.0
  0
LINE
  5
1AA
330
17
100
AcDbEntity
  8
A-DECK
100
AcDbLine
 10
80.0
 20
62.8125
 30
0.0
 11
84.0
 21
62.8125
 31
0.0
  0
LINE
  5
1AB
330
17
100
AcDbEntity
  8
A-DECK
100
AcDbLine
 10
80.0
 20
63.375
 30
0.0
 11
84.0
 21
63.375
 31
0.0
  0
LINE
  5
1AC
330
17
100
AcDbEntity
  8
A-DECK
100
AcDbLine
 10
80.0
 20
63.9375
 30
0.0
 11
84.0
 21
63.9375
 31
0.0
  0
TEXT
  5
1AD
330
17
100
AcDbEntity
  8
G-TITLE
100
AcDbText
 10
65.0
 20
54.0
 30
0.0
 40
1.4
  1
FRONT ELEVATION (FROM THE LANE)
 11
65.0
 21
54.0
 31
0.0
100
AcDbText
  0
LINE
  5
1AE
330
17
100
AcDbEntity
  8
G-TITLE
100
AcDbLine
 10
65.0
 20
53.5
 30
0.0
 11
105.0
 21
53.5
 31
0.0
  0
LINE
  5
1AF
330
17
100
AcDbEntity
  8
A-GRND
100
AcDbLine
 10
116.0
 20
60.0
 30
0.0
 11
160.0
 21
60.0
 31
0.0
  0
LINE
  5
1B0
330
17
100
AcDbEntity
  8
A-GRND
100
AcDbLine
 10
116.0
 20
60.0
 30
0.0
 11
115.0
 21
59.2
 31
0.0
  0
LINE
  5
1B1
330
17
100
AcDbEntity
  8
A-GRND
100
AcDbLine
 10
118.0
 20
60.0
 30
0.0
 11
117.0
 21
59.2
 31
0.0
  0
LINE
  5
1B2
330
17
100
AcDbEntity
  8
A-GRND
100
AcDbLine
 10
120.0
 20
60.0
 30
0.0
 11
119.0
 21
59.2
 31
0.0
  0
LINE
  5
1B3
330
17
100
AcDbEntity
  8
A-GRND
100
AcDbLine
 10
122.0
 20
60.0
 30
0.0
 11
121.0
 21
59.2
 31
0.0
  0
LINE
  5
1B4
330
17
100
AcDbEntity
  8
A-GRND
100
AcDbLine
 10
124.0
 20
60.0
 30
0.0
 11
123.0
 21
59.2
 31
0.0
  0
LINE
  5
1B5
330
17
100
AcDbEntity
  8
A-GRND
100
AcDbLine
 10
126.0
 20
60.0
 30
0.0
 11
125.0
 21
59.2
 31
0.0
  0
LINE
  5
1B6
330
17
100
AcDbEntity
  8
A-GRND
100
AcDbLine
 10
128.0
 20
60.0
 30
0.0
 11
127.0
 21
59.2
 31
0.0
  0
LINE
  5
1B7
330
17
100
AcDbEntity
  8
A-GRND
100
AcDbLine
 10
130.0
 20
60.0
 30
0.0
 11
129.0
 21
59.2
 31
0.0
  0
LINE
  5
1B8
330
17
100
AcDbEntity
  8
A-GRND
100
AcDbLine
 10
132.0
 20
60.0
 30
0.0
 11
131.0
 21
59.2
 31
0.0
  0
LINE
  5
1B9
330
17
100
AcDbEntity
  8
A-GRND
100
AcDbLine
 10
134.0
 20
60.0
 30
0.0
 11
133.0
 21
59.2
 31
0.0
  0
LINE
  5
1BA
330
17
100
AcDbEntity
  8
A-GRND
100
AcDbLine
 10
136.0
 20
60.0
 30
0.0
 11
135.0
 21
59.2
 31
0.0
  0
LINE
  5
1BB
330
17
100
AcDbEntity
  8
A-GRND
100
AcDbLine
 10
138.0
 20
60.0
 30
0.0
 11
137.0
 21
59.2
 31
0.0
  0
LINE
  5
1BC
330
17
100
AcDbEntity
  8
A-GRND
100
AcDbLine
 10
140.0
 20
60.0
 30
0.0
 11
139.0
 21
59.2
 31
0.0
  0
LINE
  5
1BD
330
17
100
AcDbEntity
  8
A-GRND
100
AcDbLine
 10
142.0
 20
60.0
 30
0.0
 11
141.0
 21
59.2
 31
0.0
  0
LINE
  5
1BE
330
17
100
AcDbEntity
  8
A-GRND
100
AcDbLine
 10
144.0
 20
60.0
 30
0.0
 11
143.0
 21
59.2
 31
0.0
  0
LINE
  5
1BF
330
17
100
AcDbEntity
  8
A-GRND
100
AcDbLine
 10
146.0
 20
60.0
 30
0.0
 11
145.0
 21
59.2
 31
0.0
  0
LINE
  5
1C0
330
17
100
AcDbEntity
  8
A-GRND
100
AcDbLine
 10
148.0
 20
60.0
 30
0.0
 11
147.0
 21
59.2
 31
0.0
  0
LINE
  5
1C1
330
17
100
AcDbEntity
  8
A-GRND
100
AcDbLine
 10
150.0
 20
60.0
 30
0.0
 11
149.0
 21
59.2
 31
0.0
  0
LINE
  5
1C2
330
17
100
AcDbEntity
  8
A-GRND
100
AcDbLine
 10
152.0
 20
60.0
 30
0.0
 11
151.0
 21
59.2
 31
0.0
  0
LINE
  5
1C3
330
17
100
AcDbEntity
  8
A-GRND
100
AcDbLine
 10
154.0
 20
60.0
 30
0.0
 11
153.0
 21
59.2
 31
0.0
  0
LINE
  5
1C4
330
17
100
AcDbEntity
  8
A-GRND
100
AcDbLine
 10
156.0
 20
60.0
 30
0.0
 11
155.0
 21
59.2
 31
0.0
  0
LINE
  5
1C5
330
17
100
AcDbEntity
  8
A-GRND
100
AcDbLine
 10
158.0
 20
60.0
 30
0.0
 11
157.0
 21
59.2
 31
0.0
  0
LWPOLYLINE
  5
1C6
330
17
100
AcDbEntity
  8
A-ELEV
100
AcDbPolyline
 90
24
 70
1
 10
138.0
 20
63.8
 10
134.5
 20
63.8
 10
132.0
 20
64.3
 10
128.5
 20
65.1
 10
126.0
 20
66.0
 10
125.7
 20
66.3
 10
125.7
 20
70.2
 10
126.0
 20
70.5
 10
127.5
 20
71.4
 10
131.0
 20
73.1
 10
135.0
 20
74.6
 10
138.0
 20
75.0
 10
138.0
 20
75.0
 10
141.0
 20
74.6
 10
145.0
 20
73.1
 10
148.5
 20
71.4
 10
150.0
 20
70.5
 10
150.3
 20
70.2
 10
150.3
 20
66.3
 10
150.0
 20
66.0
 10
147.5
 20
65.1
 10
144.0
 20
64.3
 10
141.5
 20
63.8
 10
138.0
 20
63.8
  0
LWPOLYLINE
  5
1C7
330
17
100
AcDbEntity
  8
A-ELEV
100
AcDbPolyline
 90
4
 70
1
 10
125.65
 20
66.9
 10
150.35
 20
66.9
 10
150.35
 20
69.6
 10
125.65
 20
69.6
  0
LWPOLYLINE
  5
1C8
330
17
100
AcDbEntity
  8
A-GLAZ
100
AcDbPolyline
 90
8
 70
1
 10
134.0
 20
75.0
 10
134.6
 20
77.1
 10
136.0
 20
78.5
 10
138.0
 20
79.0
 10
138.0
 20
79.0
 10
140.0
 20
78.5
 10
141.4
 20
77.1
 10
142.0
 20
75.0
  0
HATCH
  5
1C9
330
17
100
AcDbEntity
  8
A-GLAZ-PATT
 62
151
100
AcDbHatch
 10
0.0
 20
0.0
 30
0.0
210
0.0
220
0.0
230
1.0
  2
SOLID
 70
1
 71
0
 91
1
 92
3
 72
0
 73
1
 93
9
 10
134.0
 20
75.0
 10
134.6
 20
77.1
 10
136.0
 20
78.5
 10
138.0
 20
79.0
 10
138.0
 20
79.0
 10
140.0
 20
78.5
 10
141.4
 20
77.1
 10
142.0
 20
75.0
 10
134.0
 20
75.0
 97
0
 75
0
 76
1
 98
0
  0
LWPOLYLINE
  5
1CA
330
17
100
AcDbEntity
  8
A-ELEV
100
AcDbPolyline
 90
4
 70
1
 10
137.88
 20
79.0
 10
138.12
 20
79.0
 10
138.12
 20
82.0
 10
137.88
 20
82.0
  0
CIRCLE
  5
1CB
330
17
100
AcDbEntity
  8
A-ELEV
100
AcDbCircle
 10
138.0
 20
82.0
 30
0.0
 40
0.5
  0
LINE
  5
1CC
330
17
100
AcDbEntity
  8
A-GLAZ
100
AcDbLine
 10
127.5
 20
65.4
 30
0.0
 11
148.5
 21
65.4
 31
0.0
  0
LWPOLYLINE
  5
1CD
330
17
100
AcDbEntity
  8
A-ELEV
100
AcDbPolyline
 90
4
 70
1
 10
146.65
 20
64.8
 10
147.35
 20
64.8
 10
151.35
 20
60.35
 10
150.65
 20
60.35
  0
LWPOLYLINE
  5
1CE
330
17
100
AcDbEntity
  8
A-ELEV
100
AcDbPolyline
 90
4
 70
1
 10
149.7
 20
60.0
 10
152.3
 20
60.0
 10
152.3
 20
60.35
 10
149.7
 20
60.35
  0
LWPOLYLINE
  5
1CF
330
17
100
AcDbEntity
  8
A-ELEV
100
AcDbPolyline
 90
4
 70
1
 10
133.15
 20
64.8
 10
133.85
 20
64.8
 10
131.85
 20
60.35
 10
131.15
 20
60.35
  0
LWPOLYLINE
  5
1D0
330
17
100
AcDbEntity
  8
A-ELEV
100
AcDbPolyline
 90
4
 70
1
 10
130.2
 20
60.0
 10
132.8
 20
60.0
 10
132.8
 20
60.35
 10
130.2
 20
60.35
  0
LINE
  5
1D1
330
17
100
AcDbEntity
  8
A-LEVL
100
AcDbLine
 10
153.5
 20
66.0
 30
0.0
 11
157.5
 21
66.0
 31
0.0
  0
TEXT
  5
1D2
330
17
100
AcDbEntity
  8
A-LEVL
100
AcDbText
 10
157.7
 20
66.15
 30
0.0
 40
0.7
  1
FIN FLOOR  6.0'
 11
157.7
 21
66.15
 31
0.0
100
AcDbText
  0
LINE
  5
1D3
330
17
100
AcDbEntity
  8
A-LEVL
100
AcDbLine
 10
153.5
 20
70.5
 30
0.0
 11
157.5
 21
70.5
 31
0.0
  0
TEXT
  5
1D4
330
17
100
AcDbEntity
  8
A-LEVL
100
AcDbText
 10
157.7
 20
70.65
 30
0.0
 40
0.7
  1
RIM  10.5'
 11
157.7
 21
70.65
 31
0.0
100
AcDbText
  0
LINE
  5
1D5
330
17
100
AcDbEntity
  8
A-LEVL
100
AcDbLine
 10
153.5
 20
75.0
 30
0.0
 11
157.5
 21
75.0
 31
0.0
  0
TEXT
  5
1D6
330
17
100
AcDbEntity
  8
A-LEVL
100
AcDbText
 10
157.7
 20
75.15
 30
0.0
 40
0.7
  1
CEILING PEAK  15.0'
 11
157.7
 21
75.15
 31
0.0
100
AcDbText
  0
LINE
  5
1D7
330
17
100
AcDbEntity
  8
A-LEVL
100
AcDbLine
 10
153.5
 20
79.0
 30
0.0
 11
157.5
 21
79.0
 31
0.0
  0
TEXT
  5
1D8
330
17
100
AcDbEntity
  8
A-LEVL
100
AcDbText
 10
157.7
 20
79.15
 30
0.0
 40
0.7
  1
DOME  19.0'
 11
157.7
 21
79.15
 31
0.0
100
AcDbText
  0
LINE
  5
1D9
330
17
100
AcDbEntity
  8
A-LEVL
100
AcDbLine
 10
153.5
 20
60.0
 30
0.0
 11
157.5
 21
60.0
 31
0.0
  0
TEXT
  5
1DA
330
17
100
AcDbEntity
  8
A-LEVL
100
AcDbText
 10
157.7
 20
60.15
 30
0.0
 40
0.7
  1
GRADE  0.0'
 11
157.7
 21
60.15
 31
0.0
100
AcDbText
  0
DIMENSION
  5
1DB
330
17
100
AcDbEntity
  8
A-ANNO-DIMS
100
AcDbDimension
280
0
  2
*D8
  3
EZDXF
 10
120.0
 20
60.0
 30
0.0
 11
119.35
 21
63.0
 31
0.0
 70
32
 71
5
  1
<>
100
AcDbAlignedDimension
 13
138.0
 23
60.0
 33
0.0
 14
138.0
 24
66.0
 34
0.0
 50
90.0
100
AcDbRotatedDimension
1001
ACAD
1000
DSTYLE
1002
{
1070
140
1040
0.9
1070
41
1040
0.45
1070
44
1040
0.3
1070
42
1040
0.35
1070
147
1040
0.2
1070
271
1070
1
1070
3
1000
<>'
1070
178
1070
1
1070
176
1070
1
1070
177
1070
1
1002
}
  0
DIMENSION
  5
1EA
330
17
100
AcDbEntity
  8
A-ANNO-DIMS
100
AcDbDimension
280
0
  2
*D9
  3
EZDXF
 10
120.0
 20
66.0
 30
0.0
 11
119.35
 21
72.5
 31
0.0
 70
32
 71
5
  1
<>
100
AcDbAlignedDimension
 13
138.0
 23
66.0
 33
0.0
 14
138.0
 24
79.0
 34
0.0
 50
90.0
100
AcDbRotatedDimension
1001
ACAD
1000
DSTYLE
1002
{
1070
140
1040
0.9
1070
41
1040
0.45
1070
44
1040
0.3
1070
42
1040
0.35
1070
147
1040
0.2
1070
271
1070
1
1070
3
1000
<>'
1070
178
1070
1
1070
176
1070
1
1070
177
1070
1
1002
}
  0
DIMENSION
  5
1F9
330
17
100
AcDbEntity
  8
A-ANNO-DIMS
100
AcDbDimension
280
0
  2
*D10
  3
EZDXF
 10
125.65
 20
56.0
 30
0.0
 11
138.0
 21
56.65
 31
0.0
 70
32
 71
5
  1
<>
100
AcDbAlignedDimension
 13
125.65
 23
60.0
 33
0.0
 14
150.35
 24
60.0
 34
0.0
 50
0.0
100
AcDbRotatedDimension
1001
ACAD
1000
DSTYLE
1002
{
1070
140
1040
0.9
1070
41
1040
0.45
1070
44
1040
0.3
1070
42
1040
0.35
1070
147
1040
0.2
1070
271
1070
1
1070
3
1000
<>'
1070
178
1070
1
1070
176
1070
1
1070
177
1070
1
1002
}
  0
CIRCLE
  5
208
330
17
100
AcDbEntity
  8
A-GLAZ
100
AcDbCircle
 10
144.2
 20
68.25
 30
0.0
 40
1.0
  0
HATCH
  5
209
330
17
100
AcDbEntity
  8
A-GLAZ-PATT
 62
151
100
AcDbHatch
 10
0.0
 20
0.0
 30
0.0
210
0.0
220
0.0
230
1.0
  2
SOLID
 70
1
 71
0
 91
1
 92
3
 72
0
 73
1
 93
65
 10
145.2
 20
68.25
 10
145.1951847266722
 20
68.15198285967044
 10
145.18078528040323
 20
68.05490967798387
 10
145.1569403357322
 20
67.95971532274554
 10
145.1238795325113
 20
67.86731656763492
 10
145.08192126434835
 20
67.778603263174
 10
145.03146961230254
 20
67.69442976698039
 10
144.97301045336275
 20
67.61560671583635
 10
144.90710678118654
 20
67.54289321881345
 10
144.83439328416364
 20
67.47698954663727
 10
144.7555702330196
 20
67.41853038769746
 10
144.671396736826
 20
67.36807873565165
 10
144.5826834323651
 20
67.3261204674887
 10
144.49028467725446
 20
67.29305966426779
 10
144.39509032201613
 20
67.26921471959677
 10
144.29801714032956
 20
67.25481527332781
 10
144.2
 20
67.25
 10
144.10198285967044
 20
67.25481527332781
 10
144.00490967798387
 20
67.26921471959677
 10
143.90971532274554
 20
67.29305966426779
 10
143.81731656763492
 20
67.3261204674887
 10
143.728603263174
 20
67.36807873565165
 10
143.6444297669804
 20
67.41853038769746
 10
143.56560671583637
 20
67.47698954663727
 10
143.49289321881346
 20
67.54289321881345
 10
143.42698954663726
 20
67.61560671583635
 10
143.36853038769746
 20
67.69442976698039
 10
143.31807873565165
 20
67.778603263174
 10
143.2761204674887
 20
67.86731656763492
 10
143.2430596642678
 20
67.95971532274554
 10
143.21921471959678
 20
68.05490967798387
 10
143.2048152733278
 20
68.15198285967044
 10
143.2
 20
68.25
 10
143.2048152733278
 20
68.34801714032956
 10
143.21921471959678
 20
68.44509032201613
 10
143.2430596642678
 20
68.54028467725446
 10
143.2761204674887
 20
68.63268343236508
 10
143.31807873565165
 20
68.721396736826
 10
143.36853038769746
 20
68.80557023301961
 10
143.42698954663726
 20
68.88439328416365
 10
143.49289321881346
 20
68.95710678118655
 10
143.56560671583637
 20
69.02301045336273
 10
143.6444297669804
 20
69.08146961230254
 10
143.728603263174
 20
69.13192126434835
 10
143.81731656763492
 20
69.17387953251128
 10
143.90971532274554
 20
69.20694033573221
 10
144.00490967798387
 20
69.23078528040323
 10
144.10198285967044
 20
69.24518472667219
 10
144.2
 20
69.25
 10
144.29801714032956
 20
69.24518472667219
 10
144.39509032201613
 20
69.23078528040323
 10
144.49028467725446
 20
69.20694033573221
 10
144.5826834323651
 20
69.17387953251128
 10
144.671396736826
 20
69.13192126434835
 10
144.7555702330196
 20
69.08146961230254
 10
144.83439328416364
 20
69.02301045336273
 10
144.90710678118654
 20
68.95710678118655
 10
144.97301045336275
 20
68.88439328416365
 10
145.03146961230254
 20
68.80557023301961
 10
145.08192126434835
 20
68.721396736826
 10
145.1238795325113
 20
68.63268343236508
 10
145.1569403357322
 20
68.54028467725446
 10
145.18078528040323
 20
68.44509032201613
 10
145.1951847266722
 20
68.34801714032956
 10
145.2
 20
68.25
 97
0
 75
0
 76
1
 98
0
  0
CIRCLE
  5
20A
330
17
100
AcDbEntity
  8
A-GLAZ
100
AcDbCircle
 10
149.97748024598445
 20
68.25
 30
0.0
 40
1.0
  0
HATCH
  5
20B
330
17
100
AcDbEntity
  8
A-GLAZ-PATT
 62
151
100
AcDbHatch
 10
0.0
 20
0.0
 30
0.0
210
0.0
220
0.0
230
1.0
  2
SOLID
 70
1
 71
0
 91
1
 92
3
 72
0
 73
1
 93
65
 10
150.97748024598445
 20
68.25
 10
150.97266497265664
 20
68.15198285967044
 10
150.95826552638766
 20
68.05490967798387
 10
150.93442058171667
 20
67.95971532274554
 10
150.90135977849573
 20
67.86731656763492
 10
150.85940151033282
 20
67.778603263174
 10
150.80894985828698
 20
67.69442976698039
 10
150.75049069934718
 20
67.61560671583635
 10
150.684587027171
 20
67.54289321881345
 10
150.6118735301481
 20
67.47698954663727
 10
150.53305047900406
 20
67.41853038769746
 10
150.44887698281045
 20
67.36807873565165
 10
150.36016367834952
 20
67.3261204674887
 10
150.2677649232389
 20
67.29305966426779
 10
150.17257056800057
 20
67.26921471959677
 10
150.075497386314
 20
67.25481527332781
 10
149.97748024598445
 20
67.25
 10
149.87946310565488
 20
67.25481527332781
 10
149.7823899239683
 20
67.26921471959677
 10
149.68719556872998
 20
67.29305966426779
 10
149.59479681361935
 20
67.3261204674887
 10
149.50608350915846
 20
67.36807873565165
 10
149.42191001296484
 20
67.41853038769746
 10
149.3430869618208
 20
67.47698954663727
 10
149.2703734647979
 20
67.54289321881345
 10
149.20446979262172
 20
67.61560671583635
 10
149.1460106336819
 20
67.69442976698039
 10
149.0955589816361
 20
67.778603263174
 10
149.05360071347317
 20
67.86731656763492
 10
149.02053991025224
 20
67.95971532274554
 10
148.9966949655812
 20
68.05490967798387
 10
148.98229551931226
 20
68.15198285967044
 10
148.97748024598445
 20
68.25
 10
148.98229551931226
 20
68.34801714032956
 10
148.9966949655812
 20
68.44509032201613
 10
149.02053991025224
 20
68.54028467725446
 10
149.05360071347317
 20
68.63268343236508
 10
149.0955589816361
 20
68.721396736826
 10
149.1460106336819
 20
68.80557023301961
 10
149.20446979262172
 20
68.88439328416365
 10
149.2703734647979
 20
68.95710678118655
 10
149.3430869618208
 20
69.02301045336273
 10
149.42191001296484
 20
69.08146961230254
 10
149.50608350915846
 20
69.13192126434835
 10
149.59479681361935
 20
69.17387953251128
 10
149.68719556872998
 20
69.20694033573221
 10
149.7823899239683
 20
69.23078528040323
 10
149.87946310565488
 20
69.24518472667219
 10
149.97748024598445
 20
69.25
 10
150.075497386314
 20
69.24518472667219
 10
150.17257056800057
 20
69.23078528040323
 10
150.2677649232389
 20
69.20694033573221
 10
150.36016367834952
 20
69.17387953251128
 10
150.44887698281045
 20
69.13192126434835
 10
150.53305047900406
 20
69.08146961230254
 10
150.6118735301481
 20
69.02301045336273
 10
150.684587027171
 20
68.95710678118655
 10
150.75049069934718
 20
68.88439328416365
 10
150.80894985828698
 20
68.80557023301961
 10
150.85940151033282
 20
68.721396736826
 10
150.90135977849573
 20
68.63268343236508
 10
150.93442058171667
 20
68.54028467725446
 10
150.95826552638766
 20
68.44509032201613
 10
150.97266497265664
 20
68.34801714032956
 10
150.97748024598445
 20
68.25
 97
0
 75
0
 76
1
 98
0
  0
CIRCLE
  5
20C
330
17
100
AcDbEntity
  8
A-GLAZ
100
AcDbCircle
 10
126.02251975401555
 20
68.25
 30
0.0
 40
1.0
  0
HATCH
  5
20D
330
17
100
AcDbEntity
  8
A-GLAZ-PATT
 62
151
100
AcDbHatch
 10
0.0
 20
0.0
 30
0.0
210
0.0
220
0.0
230
1.0
  2
SOLID
 70
1
 71
0
 91
1
 92
3
 72
0
 73
1
 93
65
 10
127.02251975401555
 20
68.25
 10
127.01770448068774
 20
68.15198285967044
 10
127.00330503441879
 20
68.05490967798387
 10
126.97946008974776
 20
67.95971532274554
 10
126.94639928652684
 20
67.86731656763492
 10
126.90444101836391
 20
67.778603263174
 10
126.8539893663181
 20
67.69442976698039
 10
126.79553020737829
 20
67.61560671583635
 10
126.7296265352021
 20
67.54289321881345
 10
126.6569130381792
 20
67.47698954663727
 10
126.57808998703516
 20
67.41853038769746
 10
126.49391649084154
 20
67.36807873565165
 10
126.40520318638065
 20
67.3261204674887
 10
126.31280443127001
 20
67.29305966426779
 10
126.21761007603168
 20
67.26921471959677
 10
126.12053689434511
 20
67.25481527332781
 10
126.02251975401555
 20
67.25
 10
125.92450261368599
 20
67.25481527332781
 10
125.82742943199942
 20
67.26921471959677
 10
125.73223507676109
 20
67.29305966426779
 10
125.63983632165046
 20
67.3261204674887
 10
125.55112301718955
 20
67.36807873565165
 10
125.46694952099595
 20
67.41853038769746
 10
125.38812646985191
 20
67.47698954663727
 10
125.31541297282901
 20
67.54289321881345
 10
125.24950930065282
 20
67.61560671583635
 10
125.191050141713
 20
67.69442976698039
 10
125.1405984896672
 20
67.778603263174
 10
125.09864022150427
 20
67.86731656763492
 10
125.06557941828333
 20
67.95971532274554
 10
125.04173447361232
 20
68.05490967798387
 10
125.02733502734336
 20
68.15198285967044
 10
125.02251975401555
 20
68.25
 10
125.02733502734336
 20
68.34801714032956
 10
125.04173447361232
 20
68.44509032201613
 10
125.06557941828333
 20
68.54028467725446
 10
125.09864022150427
 20
68.63268343236508
 10
125.1405984896672
 20
68.721396736826
 10
125.191050141713
 20
68.80557023301961
 10
125.24950930065282
 20
68.88439328416365
 10
125.31541297282901
 20
68.95710678118655
 10
125.3881264698519
 20
69.02301045336273
 10
125.46694952099595
 20
69.08146961230254
 10
125.55112301718955
 20
69.13192126434835
 10
125.63983632165046
 20
69.17387953251128
 10
125.73223507676109
 20
69.20694033573221
 10
125.82742943199942
 20
69.23078528040323
 10
125.92450261368599
 20
69.24518472667219
 10
126.02251975401555
 20
69.25
 10
126.12053689434511
 20
69.24518472667219
 10
126.21761007603168
 20
69.23078528040323
 10
126.31280443127001
 20
69.20694033573221
 10
126.40520318638065
 20
69.17387953251128
 10
126.49391649084154
 20
69.13192126434835
 10
126.57808998703516
 20
69.08146961230254
 10
126.6569130381792
 20
69.02301045336273
 10
126.7296265352021
 20
68.95710678118655
 10
126.79553020737829
 20
68.88439328416365
 10
126.8539893663181
 20
68.80557023301961
 10
126.90444101836391
 20
68.721396736826
 10
126.94639928652684
 20
68.63268343236508
 10
126.97946008974776
 20
68.54028467725446
 10
127.00330503441879
 20
68.44509032201613
 10
127.01770448068774
 20
68.34801714032956
 10
127.02251975401555
 20
68.25
 97
0
 75
0
 76
1
 98
0
  0
CIRCLE
  5
20E
330
17
100
AcDbEntity
  8
A-GLAZ
100
AcDbCircle
 10
131.79999999999998
 20
68.25
 30
0.0
 40
1.0
  0
HATCH
  5
20F
330
17
100
AcDbEntity
  8
A-GLAZ-PATT
 62
151
100
AcDbHatch
 10
0.0
 20
0.0
 30
0.0
210
0.0
220
0.0
230
1.0
  2
SOLID
 70
1
 71
0
 91
1
 92
3
 72
0
 73
1
 93
65
 10
132.79999999999998
 20
68.25
 10
132.7951847266722
 20
68.15198285967044
 10
132.78078528040322
 20
68.05490967798387
 10
132.7569403357322
 20
67.95971532274554
 10
132.7238795325113
 20
67.86731656763492
 10
132.68192126434835
 20
67.778603263174
 10
132.63146961230254
 20
67.69442976698039
 10
132.57301045336274
 20
67.61560671583635
 10
132.50710678118654
 20
67.54289321881345
 10
132.43439328416363
 20
67.47698954663727
 10
132.3555702330196
 20
67.41853038769746
 10
132.271396736826
 20
67.36807873565165
 10
132.18268343236508
 20
67.3261204674887
 10
132.09028467725446
 20
67.29305966426779
 10
131.99509032201613
 20
67.26921471959677
 10
131.89801714032956
 20
67.25481527332781
 10
131.79999999999998
 20
67.25
 10
131.70198285967044
 20
67.25481527332781
 10
131.60490967798387
 20
67.26921471959677
 10
131.50971532274554
 20
67.29305966426779
 10
131.4173165676349
 20
67.3261204674887
 10
131.328603263174
 20
67.36807873565165
 10
131.2444297669804
 20
67.41853038769746
 10
131.16560671583636
 20
67.47698954663727
 10
131.09289321881346
 20
67.54289321881345
 10
131.02698954663725
 20
67.61560671583635
 10
130.96853038769746
 20
67.69442976698039
 10
130.91807873565165
 20
67.778603263174
 10
130.8761204674887
 20
67.86731656763492
 10
130.8430596642678
 20
67.95971532274554
 10
130.81921471959677
 20
68.05490967798387
 10
130.8048152733278
 20
68.15198285967044
 10
130.79999999999998
 20
68.25
 10
130.8048152733278
 20
68.34801714032956
 10
130.81921471959677
 20
68.44509032201613
 10
130.8430596642678
 20
68.54028467725446
 10
130.8761204674887
 20
68.63268343236508
 10
130.91807873565165
 20
68.721396736826
 10
130.96853038769746
 20
68.80557023301961
 10
131.02698954663725
 20
68.88439328416365
 10
131.09289321881346
 20
68.95710678118655
 10
131.16560671583636
 20
69.02301045336273
 10
131.2444297669804
 20
69.08146961230254
 10
131.328603263174
 20
69.13192126434835
 10
131.4173165676349
 20
69.17387953251128
 10
131.50971532274554
 20
69.20694033573221
 10
131.60490967798387
 20
69.23078528040323
 10
131.70198285967044
 20
69.24518472667219
 10
131.79999999999998
 20
69.25
 10
131.89801714032956
 20
69.24518472667219
 10
131.99509032201613
 20
69.23078528040323
 10
132.09028467725446
 20
69.20694033573221
 10
132.18268343236508
 20
69.17387953251128
 10
132.271396736826
 20
69.13192126434835
 10
132.3555702330196
 20
69.08146961230254
 10
132.43439328416363
 20
69.02301045336273
 10
132.50710678118654
 20
68.95710678118655
 10
132.57301045336274
 20
68.88439328416365
 10
132.63146961230254
 20
68.80557023301961
 10
132.68192126434835
 20
68.721396736826
 10
132.7238795325113
 20
68.63268343236508
 10
132.7569403357322
 20
68.54028467725446
 10
132.78078528040322
 20
68.44509032201613
 10
132.7951847266722
 20
68.34801714032956
 10
132.79999999999998
 20
68.25
 97
0
 75
0
 76
1
 98
0
  0
LWPOLYLINE
  5
210
330
17
100
AcDbEntity
  8
A-DECK
100
AcDbPolyline
 90
4
 70
1
 10
132.5
 20
64.5
 10
118.5
 20
60.0
 10
118.5
 20
60.25
 10
132.5
 20
64.75
  0
DIMENSION
  5
211
330
17
100
AcDbEntity
  8
A-ANNO-DIMS
100
AcDbDimension
280
0
  2
*D11
  3
EZDXF
 10
118.5
 20
56.0
 30
0.0
 11
125.5
 21
56.65
 31
0.0
 70
32
 71
5
  1
<>
100
AcDbAlignedDimension
 13
118.5
 23
60.0
 33
0.0
 14
132.5
 24
60.0
 34
0.0
 50
0.0
100
AcDbRotatedDimension
1001
ACAD
1000
DSTYLE
1002
{
1070
140
1040
0.9
1070
41
1040
0.45
1070
44
1040
0.3
1070
42
1040
0.35
1070
147
1040
0.2
1070
271
1070
1
1070
3
1000
<>'
1070
178
1070
1
1070
176
1070
1
1070
177
1070
1
1002
}
  0
TEXT
  5
220
330
17
100
AcDbEntity
  8
G-TITLE
100
AcDbText
 10
121.0
 20
54.0
 30
0.0
 40
1.4
  1
SIDE ELEVATION (FROM THE EAST)
 11
121.0
 21
54.0
 31
0.0
100
AcDbText
  0
LINE
  5
221
330
17
100
AcDbEntity
  8
G-TITLE
100
AcDbLine
 10
121.0
 20
53.5
 30
0.0
 11
161.0
 21
53.5
 31
0.0
  0
LINE
  5
222
330
17
100
AcDbEntity
  8
A-GRND
100
AcDbLine
 10
62.0
 20
12.0
 30
0.0
 11
102.0
 21
12.0
 31
0.0
  0
LINE
  5
223
330
17
100
AcDbEntity
  8
A-GRND
100
AcDbLine
 10
62.0
 20
12.0
 30
0.0
 11
61.0
 21
11.2
 31
0.0
  0
LINE
  5
224
330
17
100
AcDbEntity
  8
A-GRND
100
AcDbLine
 10
64.0
 20
12.0
 30
0.0
 11
63.0
 21
11.2
 31
0.0
  0
LINE
  5
225
330
17
100
AcDbEntity
  8
A-GRND
100
AcDbLine
 10
66.0
 20
12.0
 30
0.0
 11
65.0
 21
11.2
 31
0.0
  0
LINE
  5
226
330
17
100
AcDbEntity
  8
A-GRND
100
AcDbLine
 10
68.0
 20
12.0
 30
0.0
 11
67.0
 21
11.2
 31
0.0
  0
LINE
  5
227
330
17
100
AcDbEntity
  8
A-GRND
100
AcDbLine
 10
70.0
 20
12.0
 30
0.0
 11
69.0
 21
11.2
 31
0.0
  0
LINE
  5
228
330
17
100
AcDbEntity
  8
A-GRND
100
AcDbLine
 10
72.0
 20
12.0
 30
0.0
 11
71.0
 21
11.2
 31
0.0
  0
LINE
  5
229
330
17
100
AcDbEntity
  8
A-GRND
100
AcDbLine
 10
74.0
 20
12.0
 30
0.0
 11
73.0
 21
11.2
 31
0.0
  0
LINE
  5
22A
330
17
100
AcDbEntity
  8
A-GRND
100
AcDbLine
 10
76.0
 20
12.0
 30
0.0
 11
75.0
 21
11.2
 31
0.0
  0
LINE
  5
22B
330
17
100
AcDbEntity
  8
A-GRND
100
AcDbLine
 10
78.0
 20
12.0
 30
0.0
 11
77.0
 21
11.2
 31
0.0
  0
LINE
  5
22C
330
17
100
AcDbEntity
  8
A-GRND
100
AcDbLine
 10
80.0
 20
12.0
 30
0.0
 11
79.0
 21
11.2
 31
0.0
  0
LINE
  5
22D
330
17
100
AcDbEntity
  8
A-GRND
100
AcDbLine
 10
82.0
 20
12.0
 30
0.0
 11
81.0
 21
11.2
 31
0.0
  0
LINE
  5
22E
330
17
100
AcDbEntity
  8
A-GRND
100
AcDbLine
 10
84.0
 20
12.0
 30
0.0
 11
83.0
 21
11.2
 31
0.0
  0
LINE
  5
22F
330
17
100
AcDbEntity
  8
A-GRND
100
AcDbLine
 10
86.0
 20
12.0
 30
0.0
 11
85.0
 21
11.2
 31
0.0
  0
LINE
  5
230
330
17
100
AcDbEntity
  8
A-GRND
100
AcDbLine
 10
88.0
 20
12.0
 30
0.0
 11
87.0
 21
11.2
 31
0.0
  0
LINE
  5
231
330
17
100
AcDbEntity
  8
A-GRND
100
AcDbLine
 10
90.0
 20
12.0
 30
0.0
 11
89.0
 21
11.2
 31
0.0
  0
LINE
  5
232
330
17
100
AcDbEntity
  8
A-GRND
100
AcDbLine
 10
92.0
 20
12.0
 30
0.0
 11
91.0
 21
11.2
 31
0.0
  0
LINE
  5
233
330
17
100
AcDbEntity
  8
A-GRND
100
AcDbLine
 10
94.0
 20
12.0
 30
0.0
 11
93.0
 21
11.2
 31
0.0
  0
LINE
  5
234
330
17
100
AcDbEntity
  8
A-GRND
100
AcDbLine
 10
96.0
 20
12.0
 30
0.0
 11
95.0
 21
11.2
 31
0.0
  0
LINE
  5
235
330
17
100
AcDbEntity
  8
A-GRND
100
AcDbLine
 10
98.0
 20
12.0
 30
0.0
 11
97.0
 21
11.2
 31
0.0
  0
LINE
  5
236
330
17
100
AcDbEntity
  8
A-GRND
100
AcDbLine
 10
100.0
 20
12.0
 30
0.0
 11
99.0
 21
11.2
 31
0.0
  0
LWPOLYLINE
  5
237
330
17
100
AcDbEntity
  8
A-ELEV
100
AcDbPolyline
 90
24
 70
1
 10
82.0
 20
15.8
 10
78.5
 20
15.8
 10
76.0
 20
16.3
 10
72.5
 20
17.1
 10
70.0
 20
18.0
 10
69.7
 20
18.3
 10
69.7
 20
22.2
 10
70.0
 20
22.5
 10
71.5
 20
23.4
 10
75.0
 20
25.1
 10
79.0
 20
26.6
 10
82.0
 20
27.0
 10
82.0
 20
27.0
 10
85.0
 20
26.6
 10
89.0
 20
25.1
 10
92.5
 20
23.4
 10
94.0
 20
22.5
 10
94.3
 20
22.2
 10
94.3
 20
18.3
 10
94.0
 20
18.0
 10
91.5
 20
17.1
 10
88.0
 20
16.3
 10
85.5
 20
15.8
 10
82.0
 20
15.8
  0
HATCH
  5
238
330
17
100
AcDbEntity
  8
A-SECT-PATT
 62
8
100
AcDbHatch
 10
0.0
 20
0.0
 30
0.0
210
0.0
220
0.0
230
1.0
  2
SOLID
 70
1
 71
0
 91
1
 92
3
 72
0
 73
1
 93
19
 10
78.5
 20
15.8
 10
76.0
 20
16.3
 10
72.5
 20
17.1
 10
70.24752475247524
 20
17.91089108910891
 10
70.5
 20
18.5
 10
73.0
 20
17.6
 10
76.5
 20
16.8
 10
79.0
 20
16.3
 10
82.0
 20
16.3
 10
85.0
 20
16.3
 10
87.5
 20
16.8
 10
91.0
 20
17.6
 10
93.5
 20
18.5
 10
93.75247524752476
 20
17.91089108910891
 10
91.5
 20
17.1
 10
88.0
 20
16.3
 10
85.5
 20
15.8
 10
82.0
 20
15.8
 10
78.5
 20
15.8
 97
0
 75
0
 76
1
 98
0
  0
HATCH
  5
239
330
17
100
AcDbEntity
  8
A-SECT-PATT
 62
8
100
AcDbHatch
 10
0.0
 20
0.0
 30
0.0
210
0.0
220
0.0
230
1.0
  2
SOLID
 70
1
 71
0
 91
1
 92
3
 72
0
 73
1
 93
29
 10
70.0
 20
18.0
 10
69.7
 20
18.3
 10
69.7
 20
22.2
 10
70.0
 20
22.5
 10
71.5
 20
23.4
 10
75.0
 20
25.1
 10
79.0
 20
26.6
 10
82.0
 20
27.0
 10
85.0
 20
26.6
 10
89.0
 20
25.1
 10
92.5
 20
23.4
 10
94.0
 20
22.5
 10
94.3
 20
22.2
 10
94.3
 20
18.3
 10
94.0
 20
18.0
 10
93.8
 20
17.928
 10
93.8
 20
21.7
 10
93.5
 20
22.0
 10
92.0
 20
22.9
 10
88.5
 20
24.6
 10
84.5
 20
26.1
 10
82.0
 20
26.5
 10
79.5
 20
26.1
 10
75.5
 20
24.6
 10
72.0
 20
22.9
 10
70.5
 20
22.0
 10
70.2
 20
21.7
 10
70.2
 20
17.928
 10
70.0
 20
18.0
 97
0
 75
0
 76
1
 98
0
  0
LWPOLYLINE
  5
23A
330
17
100
AcDbEntity
  8
A-ELEV
100
AcDbPolyline
 90
4
 70
1
 10
70.67
 20
18.0
 10
93.33
 20
18.0
 10
93.33
 20
18.8
 10
70.67
 20
18.8
  0
HATCH
  5
23B
330
17
100
AcDbEntity
  8
A-SECT-PATT
 62
8
100
AcDbHatch
 10
0.0
 20
0.0
 30
0.0
210
0.0
220
0.0
230
1.0
  2
SOLID
 70
1
 71
0
 91
1
 92
3
 72
0
 73
1
 93
5
 10
93.33
 20
18.0
 10
93.33
 20
18.8
 10
70.67
 20
18.8
 10
70.67
 20
18.0
 10
93.33
 20
18.0
 97
0
 75
0
 76
1
 98
0
  0
LWPOLYLINE
  5
23C
330
17
100
AcDbEntity
  8
A-GLAZ
100
AcDbPolyline
 90
8
 70
1
 10
78.0
 20
27.0
 10
78.6
 20
29.1
 10
80.0
 20
30.5
 10
82.0
 20
31.0
 10
82.0
 20
31.0
 10
84.0
 20
30.5
 10
85.4
 20
29.1
 10
86.0
 20
27.0
  0
LWPOLYLINE
  5
23D
330
17
100
AcDbEntity
  8
A-ELEV
100
AcDbPolyline
 90
4
 70
1
 10
73.0
 20
18.8
 10
73.33
 20
18.8
 10
73.33
 20
25.8
 10
73.0
 20
25.8
  0
HATCH
  5
23E
330
17
100
AcDbEntity
  8
A-SECT-PATT
 62
8
100
AcDbHatch
 10
0.0
 20
0.0
 30
0.0
210
0.0
220
0.0
230
1.0
  2
SOLID
 70
1
 71
0
 91
1
 92
3
 72
0
 73
1
 93
5
 10
73.33
 20
18.8
 10
73.33
 20
25.8
 10
73.0
 20
25.8
 10
73.0
 20
18.8
 10
73.33
 20
18.8
 97
0
 75
0
 76
1
 98
0
  0
LWPOLYLINE
  5
23F
330
17
100
AcDbEntity
  8
A-ELEV
100
AcDbPolyline
 90
4
 70
1
 10
77.67
 20
18.8
 10
78.0
 20
18.8
 10
78.0
 20
25.8
 10
77.67
 20
25.8
  0
HATCH
  5
240
330
17
100
AcDbEntity
  8
A-SECT-PATT
 62
8
100
AcDbHatch
 10
0.0
 20
0.0
 30
0.0
210
0.0
220
0.0
230
1.0
  2
SOLID
 70
1
 71
0
 91
1
 92
3
 72
0
 73
1
 93
5
 10
78.0
 20
18.8
 10
78.0
 20
25.8
 10
77.67
 20
25.8
 10
77.67
 20
18.8
 10
78.0
 20
18.8
 97
0
 75
0
 76
1
 98
0
  0
LWPOLYLINE
  5
241
330
17
100
AcDbEntity
  8
A-ELEV
100
AcDbPolyline
 90
4
 70
1
 10
73.85577136594006
 20
16.8
 10
74.55577136594005
 20
16.8
 10
71.0916697508023
 20
12.35
 10
70.3916697508023
 20
12.35
  0
LWPOLYLINE
  5
242
330
17
100
AcDbEntity
  8
A-ELEV
100
AcDbPolyline
 90
4
 70
1
 10
69.4416697508023
 20
12.0
 10
72.0416697508023
 20
12.0
 10
72.0416697508023
 20
12.35
 10
69.4416697508023
 20
12.35
  0
LWPOLYLINE
  5
243
330
17
100
AcDbEntity
  8
A-ELEV
100
AcDbPolyline
 90
4
 70
1
 10
89.44422863405994
 20
16.8
 10
90.14422863405994
 20
16.8
 10
93.60833024919769
 20
12.35
 10
92.9083302491977
 20
12.35
  0
LWPOLYLINE
  5
244
330
17
100
AcDbEntity
  8
A-ELEV
100
AcDbPolyline
 90
4
 70
1
 10
91.9583302491977
 20
12.0
 10
94.5583302491977
 20
12.0
 10
94.5583302491977
 20
12.35
 10
91.9583302491977
 20
12.35
  0
LWPOLYLINE
  5
245
330
17
100
AcDbEntity
  8
A-DECK
100
AcDbPolyline
 90
4
 70
1
 10
80.0
 20
16.25
 10
84.0
 20
16.25
 10
84.0
 20
16.75
 10
80.0
 20
16.75
  0
HATCH
  5
246
330
17
100
AcDbEntity
  8
A-SECT-PATT
 62
8
100
AcDbHatch
 10
0.0
 20
0.0
 30
0.0
210
0.0
220
0.0
230
1.0
  2
SOLID
 70
1
 71
0
 91
1
 92
3
 72
0
 73
1
 93
5
 10
84.0
 20
16.25
 10
84.0
 20
16.75
 10
80.0
 20
16.75
 10
80.0
 20
16.25
 10
84.0
 20
16.25
 97
0
 75
0
 76
1
 98
0
  0
TEXT
  5
247
330
17
100
AcDbEntity
  8
A-FLOR-ANNO
100
AcDbText
 10
83.0
 20
21.5
 30
0.0
 40
0.8
  1
BRIDGE / LIVING
 72
1
 11
83.0
 21
21.5
 31
0.0
100
AcDbText
 73
2
  0
TEXT
  5
248
330
17
100
AcDbEntity
  8
A-FLOR-ANNO
100
AcDbText
 10
75.5
 20
21.5
 30
0.0
 40
0.7
  1
BATH
 72
1
 11
75.5
 21
21.5
 31
0.0
100
AcDbText
 73
2
  0
TEXT
  5
249
330
17
100
AcDbEntity
  8
A-FLOR-ANNO
100
AcDbText
 10
90.5
 20
20.5
 30
0.0
 40
0.6
  1
BUNK
 72
1
 11
90.5
 21
20.5
 31
0.0
100
AcDbText
 73
2
  0
TEXT
  5
24A
330
17
100
AcDbEntity
  8
A-FLOR-ANNO
100
AcDbText
 10
82.0
 20
14.5
 30
0.0
 40
0.6
  1
OPEN BELOW
 72
1
 11
82.0
 21
14.5
 31
0.0
100
AcDbText
 73
2
  0
LINE
  5
24B
330
17
100
AcDbEntity
  8
A-LEVL
100
AcDbLine
 10
97.5
 20
18.0
 30
0.0
 11
101.5
 21
18.0
 31
0.0
  0
TEXT
  5
24C
330
17
100
AcDbEntity
  8
A-LEVL
100
AcDbText
 10
101.7
 20
18.15
 30
0.0
 40
0.7
  1
FIN FLOOR  6.0'
 11
101.7
 21
18.15
 31
0.0
100
AcDbText
  0
LINE
  5
24D
330
17
100
AcDbEntity
  8
A-LEVL
100
AcDbLine
 10
97.5
 20
27.0
 30
0.0
 11
101.5
 21
27.0
 31
0.0
  0
TEXT
  5
24E
330
17
100
AcDbEntity
  8
A-LEVL
100
AcDbText
 10
101.7
 20
27.15
 30
0.0
 40
0.7
  1
CEILING PEAK  15.0'
 11
101.7
 21
27.15
 31
0.0
100
AcDbText
  0
LINE
  5
24F
330
17
100
AcDbEntity
  8
A-LEVL
100
AcDbLine
 10
97.5
 20
22.5
 30
0.0
 11
101.5
 21
22.5
 31
0.0
  0
TEXT
  5
250
330
17
100
AcDbEntity
  8
A-LEVL
100
AcDbText
 10
101.7
 20
22.65
 30
0.0
 40
0.7
  1
RIM CEILING  10.5'
 11
101.7
 21
22.65
 31
0.0
100
AcDbText
  0
DIMENSION
  5
251
330
17
100
AcDbEntity
  8
A-ANNO-DIMS
100
AcDbDimension
280
0
  2
*D12
  3
EZDXF
 10
70.0
 20
8.5
 30
0.0
 11
82.0
 21
9.15
 31
0.0
 70
32
 71
5
  1
<>
100
AcDbAlignedDimension
 13
70.0
 23
12.0
 33
0.0
 14
94.0
 24
12.0
 34
0.0
 50
0.0
100
AcDbRotatedDimension
1001
ACAD
1000
DSTYLE
1002
{
1070
140
1040
0.9
1070
41
1040
0.45
1070
44
1040
0.3
1070
42
1040
0.35
1070
147
1040
0.2
1070
271
1070
1
1070
3
1000
<>'
1070
178
1070
1
1070
176
1070
1
1070
177
1070
1
1002
}
  0
DIMENSION
  5
260
330
17
100
AcDbEntity
  8
A-ANNO-DIMS
100
AcDbDimension
280
0
  2
*D13
  3
EZDXF
 10
64.0
 20
12.0
 30
0.0
 11
63.35
 21
15.0
 31
0.0
 70
32
 71
5
  1
<>
100
AcDbAlignedDimension
 13
82.0
 23
12.0
 33
0.0
 14
82.0
 24
18.0
 34
0.0
 50
90.0
100
AcDbRotatedDimension
1001
ACAD
1000
DSTYLE
1002
{
1070
140
1040
0.9
1070
41
1040
0.45
1070
44
1040
0.3
1070
42
1040
0.35
1070
147
1040
0.2
1070
271
1070
1
1070
3
1000
<>'
1070
178
1070
1
1070
176
1070
1
1070
177
1070
1
1002
}
  0
DIMENSION
  5
26F
330
17
100
AcDbEntity
  8
A-ANNO-DIMS
100
AcDbDimension
280
0
  2
*D14
  3
EZDXF
 10
64.0
 20
18.8
 30
0.0
 11
63.35
 21
22.9
 31
0.0
 70
32
 71
5
  1
<>
100
AcDbAlignedDimension
 13
82.0
 23
18.8
 33
0.0
 14
82.0
 24
27.0
 34
0.0
 50
90.0
100
AcDbRotatedDimension
1001
ACAD
1000
DSTYLE
1002
{
1070
140
1040
0.9
1070
41
1040
0.45
1070
44
1040
0.3
1070
42
1040
0.35
1070
147
1040
0.2
1070
271
1070
1
1070
3
1000
<>'
1070
178
1070
1
1070
176
1070
1
1070
177
1070
1
1002
}
  0
TEXT
  5
27E
330
17
100
AcDbEntity
  8
G-TITLE
100
AcDbText
 10
65.0
 20
6.0
 30
0.0
 40
1.4
  1
SECTION A-A (THROUGH THE CENTRE, LOOKING NORTH)
 11
65.0
 21
6.0
 31
0.0
100
AcDbText
  0
LINE
  5
27F
330
17
100
AcDbEntity
  8
G-TITLE
100
AcDbLine
 10
65.0
 20
5.5
 30
0.0
 11
105.0
 21
5.5
 31
0.0
  0
ENDSEC
  0
SECTION
  2
OBJECTS
  0
DICTIONARY
  5
A
330
0
100
AcDbDictionary
281
1
  3
ACAD_COLOR
350
B
  3
ACAD_GROUP
350
C
  3
ACAD_LAYOUT
350
D
  3
ACAD_MATERIAL
350
E
  3
ACAD_MLEADERSTYLE
350
F
  3
ACAD_MLINESTYLE
350
10
  3
ACAD_PLOTSETTINGS
350
11
  3
ACAD_PLOTSTYLENAME
350
12
  3
ACAD_SCALELIST
350
14
  3
ACAD_TABLESTYLE
350
15
  3
ACAD_VISUALSTYLE
350
16
  3
EZDXF_META
350
2D
  0
DICTIONARY
  5
B
330
A
100
AcDbDictionary
281
1
  0
DICTIONARY
  5
C
330
A
100
AcDbDictionary
281
1
  0
DICTIONARY
  5
D
330
A
100
AcDbDictionary
281
1
  3
Model
350
1A
  3
Layout1
350
1E
  0
DICTIONARY
  5
E
330
A
100
AcDbDictionary
281
1
  3
ByBlock
350
1F
  3
ByLayer
350
20
  3
Global
350
21
  0
DICTIONARY
  5
F
330
A
100
AcDbDictionary
281
1
  3
Standard
350
2C
  0
DICTIONARY
  5
10
330
A
100
AcDbDictionary
281
1
  3
Standard
350
22
  0
DICTIONARY
  5
11
330
A
100
AcDbDictionary
281
1
  0
ACDBDICTIONARYWDFLT
  5
12
330
A
100
AcDbDictionary
281
1
  3
Normal
350
13
100
AcDbDictionaryWithDefault
340
13
  0
ACDBPLACEHOLDER
  5
13
330
12
  0
DICTIONARY
  5
14
330
A
100
AcDbDictionary
281
1
  0
DICTIONARY
  5
15
330
A
100
AcDbDictionary
281
1
  0
DICTIONARY
  5
16
330
A
100
AcDbDictionary
281
1
  3
2dWireframe
350
5A
  3
Basic
350
5B
  3
Brighten
350
5C
  3
ColorChange
350
5D
  3
Conceptual
350
5E
  3
Dim
350
5F
  3
EdgeColorOff
350
60
  3
Facepattern
350
61
  3
Flat
350
62
  3
FlatWithEdges
350
63
  3
Gouraud
350
64
  3
GouraudWithEdges
350
65
  3
Hidden
350
66
  3
JitterOff
350
67
  3
Linepattern
350
68
  3
Modeling
350
69
  3
OverhangOff
350
6A
  3
Realistic
350
6B
  3
Shaded
350
6C
  3
Shaded with edges
350
6D
  3
Shades of Gray
350
6E
  3
Sketchy
350
6F
  3
Thicken
350
70
  3
Wireframe
350
71
  3
X-Ray
350
72
  0
LAYOUT
  5
1A
330
D
100
AcDbPlotSettings
  1

  4
A3
  6

 40
7.5
 41
20.0
 42
7.5
 43
20.0
 44
420.0
 45
297.0
 46
0.0
 47
0.0
 48
0.0
 49
0.0
140
0.0
141
0.0
142
1.0
143
1.0
 70
1024
 72
1
 73
0
 74
5
  7

 75
16
 76
0
 77
2
 78
300
147
1.0
148
0.0
149
0.0
100
AcDbLayout
  1
Model
 70
1
 71
0
 10
0.0
 20
0.0
 11
420.0
 21
297.0
 12
0.0
 22
0.0
 32
0.0
 14
1e+20
 24
1e+20
 34
1e+20
 15
-1e+20
 25
-1e+20
 35
-1e+20
146
0.0
 13
0.0
 23
0.0
 33
0.0
 16
1.0
 26
0.0
 36
0.0
 17
0.0
 27
1.0
 37
0.0
 76
1
330
17
  0
LAYOUT
  5
1E
330
D
100
AcDbPlotSettings
  1

  4
A3
  6

 40
7.5
 41
20.0
 42
7.5
 43
20.0
 44
420.0
 45
297.0
 46
0.0
 47
0.0
 48
0.0
 49
0.0
140
0.0
141
0.0
142
1.0
143
1.0
 70
0
 72
1
 73
0
 74
5
  7

 75
16
 76
0
 77
2
 78
300
147
1.0
148
0.0
149
0.0
100
AcDbLayout
  1
Layout1
 70
1
 71
1
 10
0.0
 20
0.0
 11
420.0
 21
297.0
 12
0.0
 22
0.0
 32
0.0
 14
1e+20
 24
1e+20
 34
1e+20
 15
-1e+20
 25
-1e+20
 35
-1e+20
146
0.0
 13
0.0
 23
0.0
 33
0.0
 16
1.0
 26
0.0
 36
0.0
 17
0.0
 27
1.0
 37
0.0
 76
1
330
1B
  0
MATERIAL
  5
1F
102
{ACAD_REACTORS
330
E
102
}
330
E
100
AcDbMaterial
  1
ByBlock
  2

 70
0
 40
1.0
 71
1
 41
1.0
 91
-1023410177
 42
1.0
 72
1
  3

 73
1
 74
1
 75
1
 44
0.5
 73
0
 45
1.0
 46
1.0
 77
1
  4

 78
1
 79
1
170
1
 48
1.0
171
1
  6

172
1
173
1
174
1
140
1.0
141
1.0
175
1
  7

176
1
177
1
178
1
143
1.0
179
1
  8

270
1
271
1
272
1
145
1.0
146
1.0
273
1
  9

274
1
275
1
276
1
 42
1.0
 72
1
  3

 73
1
 74
1
 75
1
 94
63
  0
MATERIAL
  5
20
102
{ACAD_REACTORS
330
E
102
}
330
E
100
AcDbMaterial
  1
ByLayer
  2

 70
0
 40
1.0
 71
1
 41
1.0
 91
-1023410177
 42
1.0
 72
1
  3

 73
1
 74
1
 75
1
 44
0.5
 73
0
 45
1.0
 46
1.0
 77
1
  4

 78
1
 79
1
170
1
 48
1.0
171
1
  6

172
1
173
1
174
1
140
1.0
141
1.0
175
1
  7

176
1
177
1
178
1
143
1.0
179
1
  8

270
1
271
1
272
1
145
1.0
146
1.0
273
1
  9

274
1
275
1
276
1
 42
1.0
 72
1
  3

 73
1
 74
1
 75
1
 94
63
  0
MATERIAL
  5
21
102
{ACAD_REACTORS
330
E
102
}
330
E
100
AcDbMaterial
  1
Global
  2

 70
0
 40
1.0
 71
1
 41
1.0
 91
-1023410177
 42
1.0
 72
1
  3

 73
1
 74
1
 75
1
 44
0.5
 73
0
 45
1.0
 46
1.0
 77
1
  4

 78
1
 79
1
170
1
 48
1.0
171
1
  6

172
1
173
1
174
1
140
1.0
141
1.0
175
1
  7

176
1
177
1
178
1
143
1.0
179
1
  8

270
1
271
1
272
1
145
1.0
146
1.0
273
1
  9

274
1
275
1
276
1
 42
1.0
 72
1
  3

 73
1
 74
1
 75
1
 94
63
  0
MLINESTYLE
  5
22
102
{ACAD_REACTORS
330
10
102
}
330
10
100
AcDbMlineStyle
  2
Standard
 70
0
  3

 62
256
 51
90.0
 52
90.0
 71
2
 49
0.5
 62
256
  6
BYLAYER
 49
-0.5
 62
256
  6
BYLAYER
  0
MLEADERSTYLE
  5
2C
102
{ACAD_REACTORS
330
F
102
}
330
F
100
AcDbMLeaderStyle
179
2
170
2
171
1
172
0
 90
2
 40
0.0
 41
0.0
173
1
 91
-1056964608
 92
-2
290
1
 42
2.0
291
1
 43
8.0
  3
Standard
 44
4.0
300

342
29
174
1
175
1
176
0
178
1
 93
-1056964608
 45
4.0
292
0
297
0
 46
4.0
 94
-1056964608
 47
1.0
 49
1.0
140
1.0
294
1
141
0.0
177
0
142
1.0
295
0
296
0
143
3.75
271
0
272
9
273
9
  0
DICTIONARY
  5
2D
330
A
100
AcDbDictionary
280
1
281
1
  3
CREATED_BY_EZDXF
350
2E
  3
WRITTEN_BY_EZDXF
350
282
  0
DICTIONARYVAR
  5
2E
330
2D
100
DictionaryVariables
280
0
  1
1.4.4 @ 2026-09-29T11:29:12.503772+00:00
  0
VISUALSTYLE
  5
5A
102
{ACAD_REACTORS
330
16
102
}
330
16
100
AcDbVisualStyle
  2
2dWireframe
 70
4
177
3
291
0
 70
58
 90
2
176
1
 90
2
176
1
 90
0
176
1
 90
0
176
1
 40
0.6
176
1
 40
30.0
176
1
 62
7
420
16777215
176
1
 90
1
176
1
 90
4
176
1
 62
7
176
1
 62
257
176
1
 90
1
176
1
 90
1
176
1
 40
1.0
176
1
 90
8
176
1
 62
7
176
1
 40
1.0
176
1
 90
1
176
1
 90
6
176
1
 90
2
176
1
 62
7
176
1
 90
5
176
1
 90
0
176
1
 90
0
176
1
290
0
176
1
 90
1
176
1
 40
0.0
176
1
 90
0
176
1
290
1
176
1
290
1
176
1
290
0
176
1
290
0
176
1
290
0
176
1
290
0
176
1
290
0
176
1
290
0
176
1
290
0
176
1
 90
50
176
1
 40
0.0
176
1
 40
1.0
176
1
 90
0
176
1
 62
18
420
0
176
1
 90
50
176
1
 90
3
176
1
 62
5
420
255
176
1
290
0
176
1
 90
50
176
1
 90
50
176
1
 90
50
176
1
290
0
176
1
 90
50
176
1
 62
256
176
0
 40
1.0
176
0
 90
2
176
1
  1
strokes_ogs.tif
176
1
290
0
176
1
 40
1.0
176
1
 40
1.0
176
1
  0
VISUALSTYLE
  5
5B
102
{ACAD_REACTORS
330
16
102
}
330
16
100
AcDbVisualStyle
  2
Basic
 70
7
177
3
291
1
 70
58
 90
2
176
1
 90
2
176
1
 90
0
176
1
 90
1
176
1
 40
0.6
176
1
 40
30.0
176
1
 62
7
420
16777215
176
1
 90
1
176
1
 90
4
176
1
 62
7
176
1
 62
257
176
1
 90
1
176
1
 90
1
176
1
 40
1.0
176
1
 90
8
176
1
 62
7
176
1
 40
1.0
176
1
 90
1
176
1
 90
6
176
1
 90
2
176
1
 62
7
176
1
 90
5
176
1
 90
0
176
1
 90
0
176
1
290
0
176
1
 90
1
176
1
 40
0.0
176
1
 90
0
176
1
290
0
176
1
290
1
176
1
290
1
176
1
290
0
176
1
290
0
176
1
290
0
176
1
290
0
176
1
290
0
176
1
290
0
176
1
 90
50
176
1
 40
0.0
176
1
 40
1.0
176
1
 90
0
176
1
 62
18
420
0
176
1
 90
50
176
1
 90
3
176
1
 62
5
420
255
176
1
290
0
176
1
 90
50
176
1
 90
50
176
1
 90
50
176
1
290
0
176
1
 90
50
176
1
 62
256
176
0
 40
1.0
176
0
 90
2
176
1
  1
strokes_ogs.tif
176
1
290
0
176
1
 40
1.0
176
1
 40
1.0
176
1
  0
VISUALSTYLE
  5
5C
102
{ACAD_REACTORS
330
16
102
}
330
16
100
AcDbVisualStyle
  2
Brighten
 70
12
177
3
291
1
 70
58
 90
2
176
1
 90
2
176
1
 90
0
176
1
 90
2
176
1
 40
0.6
176
1
 40
30.0
176
1
 62
7
420
16777215
176
1
 90
1
176
1
 90
4
176
1
 62
7
176
1
 62
257
176
1
 90
1
176
1
 90
1
176
1
 40
1.0
176
1
 90
8
176
1
 62
7
176
1
 40
1.0
176
1
 90
1
176
1
 90
6
176
1
 90
2
176
1
 62
7
176
1
 90
5
176
1
 90
0
176
1
 90
0
176
1
290
0
176
1
 90
1
176
1
 40
0.0
176
1
 90
0
176
1
290
0
176
1
290
1
176
1
290
1
176
1
290
0
176
1
290
0
176
1
290
0
176
1
290
0
176
1
290
0
176
1
290
0
176
1
 90
50
176
1
 40
0.0
176
1
 40
1.0
176
1
 90
0
176
1
 62
18
420
0
176
1
 90
50
176
1
 90
3
176
1
 62
5
420
255
176
1
290
0
176
1
 90
50
176
1
 90
50
176
1
 90
50
176
1
290
0
176
1
 90
50
176
1
 62
256
176
0
 40
1.0
176
0
 90
2
176
1
  1
strokes_ogs.tif
176
1
290
0
176
1
 40
1.0
176
1
 40
1.0
176
1
  0
VISUALSTYLE
  5
5D
102
{ACAD_REACTORS
330
16
102
}
330
16
100
AcDbVisualStyle
  2
ColorChange
 70
16
177
3
291
1
 70
58
 90
2
176
1
 90
2
176
1
 90
0
176
1
 90
2
176
1
 40
0.6
176
1
 40
30.0
176
1
 62
7
420
16777215
176
1
 90
1
176
1
 90
4
176
1
 62
7
176
1
 62
257
176
1
 90
1
176
1
 90
1
176
1
 40
1.0
176
1
 90
8
176
1
 62
7
176
1
 40
1.0
176
1
 90
1
176
1
 90
6
176
1
 90
2
176
1
 62
7
176
1
 90
5
176
1
 90
0
176
1
 90
0
176
1
290
0
176
1
 90
1
176
1
 40
0.0
176
1
 90
0
176
1
290
0
176
1
290
1
176
1
290
1
176
1
290
0
176
1
290
0
176
1
290
0
176
1
290
0
176
1
290
0
176
1
290
0
176
1
 90
50
176
1
 40
0.0
176
1
 40
1.0
176
1
 90
0
176
1
 62
18
420
0
176
1
 90
50
176
1
 90
3
176
1
 62
5
420
255
176
1
290
0
176
1
 90
50
176
1
 90
50
176
1
 90
50
176
1
290
0
176
1
 90
50
176
1
 62
256
176
0
 40
1.0
176
0
 90
2
176
1
  1
strokes_ogs.tif
176
1
290
0
176
1
 40
1.0
176
1
 40
1.0
176
1
  0
VISUALSTYLE
  5
5E
102
{ACAD_REACTORS
330
16
102
}
330
16
100
AcDbVisualStyle
  2
Conceptual
 70
9
177
3
291
0
 70
58
 90
2
176
1
 90
2
176
1
 90
0
176
1
 90
3
176
1
 40
0.6
176
1
 40
30.0
176
1
 62
7
420
16777215
176
1
 90
1
176
1
 90
4
176
1
 62
7
176
1
 62
257
176
1
 90
1
176
1
 90
1
176
1
 40
1.0
176
1
 90
8
176
1
 62
7
176
1
 40
1.0
176
1
 90
1
176
1
 90
6
176
1
 90
2
176
1
 62
7
176
1
 90
5
176
1
 90
0
176
1
 90
0
176
1
290
0
176
1
 90
1
176
1
 40
0.0
176
1
 90
0
176
1
290
0
176
1
290
1
176
1
290
1
176
1
290
0
176
1
290
0
176
1
290
0
176
1
290
0
176
1
290
0
176
1
290
0
176
1
 90
50
176
1
 40
0.0
176
1
 40
1.0
176
1
 90
0
176
1
 62
18
420
0
176
1
 90
50
176
1
 90
3
176
1
 62
5
420
255
176
1
290
0
176
1
 90
50
176
1
 90
50
176
1
 90
50
176
1
290
0
176
1
 90
50
176
1
 62
256
176
0
 40
1.0
176
0
 90
2
176
1
  1
strokes_ogs.tif
176
1
290
0
176
1
 40
1.0
176
1
 40
1.0
176
1
  0
VISUALSTYLE
  5
5F
102
{ACAD_REACTORS
330
16
102
}
330
16
100
AcDbVisualStyle
  2
Dim
 70
11
177
3
291
1
 70
58
 90
2
176
1
 90
2
176
1
 90
0
176
1
 90
2
176
1
 40
0.6
176
1
 40
30.0
176
1
 62
7
420
16777215
176
1
 90
1
176
1
 90
4
176
1
 62
7
176
1
 62
257
176
1
 90
1
176
1
 90
1
176
1
 40
1.0
176
1
 90
8
176
1
 62
7
176
1
 40
1.0
176
1
 90
1
176
1
 90
6
176
1
 90
2
176
1
 62
7
176
1
 90
5
176
1
 90
0
176
1
 90
0
176
1
290
0
176
1
 90
1
176
1
 40
0.0
176
1
 90
0
176
1
290
0
176
1
290
1
176
1
290
1
176
1
290
0
176
1
290
0
176
1
290
0
176
1
290
0
176
1
290
0
176
1
290
0
176
1
 90
50
176
1
 40
0.0
176
1
 40
1.0
176
1
 90
0
176
1
 62
18
420
0
176
1
 90
50
176
1
 90
3
176
1
 62
5
420
255
176
1
290
0
176
1
 90
50
176
1
 90
50
176
1
 90
50
176
1
290
0
176
1
 90
50
176
1
 62
256
176
0
 40
1.0
176
0
 90
2
176
1
  1
strokes_ogs.tif
176
1
290
0
176
1
 40
1.0
176
1
 40
1.0
176
1
  0
VISUALSTYLE
  5
60
102
{ACAD_REACTORS
330
16
102
}
330
16
100
AcDbVisualStyle
  2
EdgeColorOff
 70
22
177
3
291
1
 70
58
 90
2
176
1
 90
2
176
1
 90
0
176
1
 90
2
176
1
 40
0.6
176
1
 40
30.0
176
1
 62
7
420
16777215
176
1
 90
1
176
1
 90
4
176
1
 62
7
176
1
 62
257
176
1
 90
1
176
1
 90
1
176
1
 40
1.0
176
1
 90
8
176
1
 62
7
176
1
 40
1.0
176
1
 90
1
176
1
 90
6
176
1
 90
2
176
1
 62
7
176
1
 90
5
176
1
 90
0
176
1
 90
0
176
1
290
0
176
1
 90
1
176
1
 40
0.0
176
1
 90
0
176
1
290
0
176
1
290
1
176
1
290
1
176
1
290
0
176
1
290
0
176
1
290
0
176
1
290
0
176
1
290
0
176
1
290
0
176
1
 90
50
176
1
 40
0.0
176
1
 40
1.0
176
1
 90
0
176
1
 62
18
420
0
176
1
 90
50
176
1
 90
3
176
1
 62
5
420
255
176
1
290
0
176
1
 90
50
176
1
 90
50
176
1
 90
50
176
1
290
0
176
1
 90
50
176
1
 62
256
176
0
 40
1.0
176
0
 90
2
176
1
  1
strokes_ogs.tif
176
1
290
0
176
1
 40
1.0
176
1
 40
1.0
176
1
  0
VISUALSTYLE
  5
61
102
{ACAD_REACTORS
330
16
102
}
330
16
100
AcDbVisualStyle
  2
Facepattern
 70
15
177
3
291
1
 70
58
 90
2
176
1
 90
2
176
1
 90
0
176
1
 90
2
176
1
 40
0.6
176
1
 40
30.0
176
1
 62
7
420
16777215
176
1
 90
1
176
1
 90
4
176
1
 62
7
176
1
 62
257
176
1
 90
1
176
1
 90
1
176
1
 40
1.0
176
1
 90
8
176
1
 62
7
176
1
 40
1.0
176
1
 90
1
176
1
 90
6
176
1
 90
2
176
1
 62
7
176
1
 90
5
176
1
 90
0
176
1
 90
0
176
1
290
0
176
1
 90
1
176
1
 40
0.0
176
1
 90
0
176
1
290
0
176
1
290
1
176
1
290
1
176
1
290
0
176
1
290
0
176
1
290
0
176
1
290
0
176
1
290
0
176
1
290
0
176
1
 90
50
176
1
 40
0.0
176
1
 40
1.0
176
1
 90
0
176
1
 62
18
420
0
176
1
 90
50
176
1
 90
3
176
1
 62
5
420
255
176
1
290
0
176
1
 90
50
176
1
 90
50
176
1
 90
50
176
1
290
0
176
1
 90
50
176
1
 62
256
176
0
 40
1.0
176
0
 90
2
176
1
  1
strokes_ogs.tif
176
1
290
0
176
1
 40
1.0
176
1
 40
1.0
176
1
  0
VISUALSTYLE
  5
62
102
{ACAD_REACTORS
330
16
102
}
330
16
100
AcDbVisualStyle
  2
Flat
 70
0
177
3
291
1
 70
58
 90
2
176
1
 90
2
176
1
 90
0
176
1
 90
2
176
1
 40
0.6
176
1
 40
30.0
176
1
 62
7
420
16777215
176
1
 90
1
176
1
 90
4
176
1
 62
7
176
1
 62
257
176
1
 90
1
176
1
 90
1
176
1
 40
1.0
176
1
 90
8
176
1
 62
7
176
1
 40
1.0
176
1
 90
1
176
1
 90
6
176
1
 90
2
176
1
 62
7
176
1
 90
5
176
1
 90
0
176
1
 90
0
176
1
290
0
176
1
 90
1
176
1
 40
0.0
176
1
 90
0
176
1
290
0
176
1
290
1
176
1
290
1
176
1
290
0
176
1
290
0
176
1
290
0
176
1
290
0
176
1
290
0
176
1
290
0
176
1
 90
50
176
1
 40
0.0
176
1
 40
1.0
176
1
 90
0
176
1
 62
18
420
0
176
1
 90
50
176
1
 90
3
176
1
 62
5
420
255
176
1
290
0
176
1
 90
50
176
1
 90
50
176
1
 90
50
176
1
290
0
176
1
 90
50
176
1
 62
256
176
0
 40
1.0
176
0
 90
2
176
1
  1
strokes_ogs.tif
176
1
290
0
176
1
 40
1.0
176
1
 40
1.0
176
1
  0
VISUALSTYLE
  5
63
102
{ACAD_REACTORS
330
16
102
}
330
16
100
AcDbVisualStyle
  2
FlatWithEdges
 70
1
177
3
291
1
 70
58
 90
2
176
1
 90
2
176
1
 90
0
176
1
 90
2
176
1
 40
0.6
176
1
 40
30.0
176
1
 62
7
420
16777215
176
1
 90
1
176
1
 90
4
176
1
 62
7
176
1
 62
257
176
1
 90
1
176
1
 90
1
176
1
 40
1.0
176
1
 90
8
176
1
 62
7
176
1
 40
1.0
176
1
 90
1
176
1
 90
6
176
1
 90
2
176
1
 62
7
176
1
 90
5
176
1
 90
0
176
1
 90
0
176
1
290
0
176
1
 90
1
176
1
 40
0.0
176
1
 90
0
176
1
290
0
176
1
290
1
176
1
290
1
176
1
290
0
176
1
290
0
176
1
290
0
176
1
290
0
176
1
290
0
176
1
290
0
176
1
 90
50
176
1
 40
0.0
176
1
 40
1.0
176
1
 90
0
176
1
 62
18
420
0
176
1
 90
50
176
1
 90
3
176
1
 62
5
420
255
176
1
290
0
176
1
 90
50
176
1
 90
50
176
1
 90
50
176
1
290
0
176
1
 90
50
176
1
 62
256
176
0
 40
1.0
176
0
 90
2
176
1
  1
strokes_ogs.tif
176
1
290
0
176
1
 40
1.0
176
1
 40
1.0
176
1
  0
VISUALSTYLE
  5
64
102
{ACAD_REACTORS
330
16
102
}
330
16
100
AcDbVisualStyle
  2
Gouraud
 70
2
177
3
291
1
 70
58
 90
2
176
1
 90
2
176
1
 90
0
176
1
 90
2
176
1
 40
0.6
176
1
 40
30.0
176
1
 62
7
420
16777215
176
1
 90
1
176
1
 90
4
176
1
 62
7
176
1
 62
257
176
1
 90
1
176
1
 90
1
176
1
 40
1.0
176
1
 90
8
176
1
 62
7
176
1
 40
1.0
176
1
 90
1
176
1
 90
6
176
1
 90
2
176
1
 62
7
176
1
 90
5
176
1
 90
0
176
1
 90
0
176
1
290
0
176
1
 90
1
176
1
 40
0.0
176
1
 90
0
176
1
290
0
176
1
290
1
176
1
290
1
176
1
290
0
176
1
290
0
176
1
290
0
176
1
290
0
176
1
290
0
176
1
290
0
176
1
 90
50
176
1
 40
0.0
176
1
 40
1.0
176
1
 90
0
176
1
 62
18
420
0
176
1
 90
50
176
1
 90
3
176
1
 62
5
420
255
176
1
290
0
176
1
 90
50
176
1
 90
50
176
1
 90
50
176
1
290
0
176
1
 90
50
176
1
 62
256
176
0
 40
1.0
176
0
 90
2
176
1
  1
strokes_ogs.tif
176
1
290
0
176
1
 40
1.0
176
1
 40
1.0
176
1
  0
VISUALSTYLE
  5
65
102
{ACAD_REACTORS
330
16
102
}
330
16
100
AcDbVisualStyle
  2
GouraudWithEdges
 70
3
177
3
291
1
 70
58
 90
2
176
1
 90
2
176
1
 90
0
176
1
 90
2
176
1
 40
0.6
176
1
 40
30.0
176
1
 62
7
420
16777215
176
1
 90
1
176
1
 90
4
176
1
 62
7
176
1
 62
257
176
1
 90
1
176
1
 90
1
176
1
 40
1.0
176
1
 90
8
176
1
 62
7
176
1
 40
1.0
176
1
 90
1
176
1
 90
6
176
1
 90
2
176
1
 62
7
176
1
 90
5
176
1
 90
0
176
1
 90
0
176
1
290
0
176
1
 90
1
176
1
 40
0.0
176
1
 90
0
176
1
290
0
176
1
290
1
176
1
290
1
176
1
290
0
176
1
290
0
176
1
290
0
176
1
290
0
176
1
290
0
176
1
290
0
176
1
 90
50
176
1
 40
0.0
176
1
 40
1.0
176
1
 90
0
176
1
 62
18
420
0
176
1
 90
50
176
1
 90
3
176
1
 62
5
420
255
176
1
290
0
176
1
 90
50
176
1
 90
50
176
1
 90
50
176
1
290
0
176
1
 90
50
176
1
 62
256
176
0
 40
1.0
176
0
 90
2
176
1
  1
strokes_ogs.tif
176
1
290
0
176
1
 40
1.0
176
1
 40
1.0
176
1
  0
VISUALSTYLE
  5
66
102
{ACAD_REACTORS
330
16
102
}
330
16
100
AcDbVisualStyle
  2
Hidden
 70
6
177
3
291
0
 70
58
 90
2
176
1
 90
2
176
1
 90
0
176
1
 90
1
176
1
 40
0.6
176
1
 40
30.0
176
1
 62
7
420
16777215
176
1
 90
1
176
1
 90
4
176
1
 62
7
176
1
 62
257
176
1
 90
1
176
1
 90
1
176
1
 40
1.0
176
1
 90
8
176
1
 62
7
176
1
 40
1.0
176
1
 90
1
176
1
 90
6
176
1
 90
2
176
1
 62
7
176
1
 90
5
176
1
 90
0
176
1
 90
0
176
1
290
0
176
1
 90
1
176
1
 40
0.0
176
1
 90
0
176
1
290
0
176
1
290
1
176
1
290
1
176
1
290
0
176
1
290
0
176
1
290
0
176
1
290
0
176
1
290
0
176
1
290
0
176
1
 90
50
176
1
 40
0.0
176
1
 40
1.0
176
1
 90
0
176
1
 62
18
420
0
176
1
 90
50
176
1
 90
3
176
1
 62
5
420
255
176
1
290
0
176
1
 90
50
176
1
 90
50
176
1
 90
50
176
1
290
0
176
1
 90
50
176
1
 62
256
176
0
 40
1.0
176
0
 90
2
176
1
  1
strokes_ogs.tif
176
1
290
0
176
1
 40
1.0
176
1
 40
1.0
176
1
  0
VISUALSTYLE
  5
67
102
{ACAD_REACTORS
330
16
102
}
330
16
100
AcDbVisualStyle
  2
JitterOff
 70
20
177
3
291
1
 70
58
 90
2
176
1
 90
2
176
1
 90
0
176
1
 90
2
176
1
 40
0.6
176
1
 40
30.0
176
1
 62
7
420
16777215
176
1
 90
1
176
1
 90
4
176
1
 62
7
176
1
 62
257
176
1
 90
1
176
1
 90
1
176
1
 40
1.0
176
1
 90
8
176
1
 62
7
176
1
 40
1.0
176
1
 90
1
176
1
 90
6
176
1
 90
2
176
1
 62
7
176
1
 90
5
176
1
 90
0
176
1
 90
0
176
1
290
0
176
1
 90
1
176
1
 40
0.0
176
1
 90
0
176
1
290
0
176
1
290
1
176
1
290
1
176
1
290
0
176
1
290
0
176
1
290
0
176
1
290
0
176
1
290
0
176
1
290
0
176
1
 90
50
176
1
 40
0.0
176
1
 40
1.0
176
1
 90
0
176
1
 62
18
420
0
176
1
 90
50
176
1
 90
3
176
1
 62
5
420
255
176
1
290
0
176
1
 90
50
176
1
 90
50
176
1
 90
50
176
1
290
0
176
1
 90
50
176
1
 62
256
176
0
 40
1.0
176
0
 90
2
176
1
  1
strokes_ogs.tif
176
1
290
0
176
1
 40
1.0
176
1
 40
1.0
176
1
  0
VISUALSTYLE
  5
68
102
{ACAD_REACTORS
330
16
102
}
330
16
100
AcDbVisualStyle
  2
Linepattern
 70
14
177
3
291
1
 70
58
 90
2
176
1
 90
2
176
1
 90
0
176
1
 90
2
176
1
 40
0.6
176
1
 40
30.0
176
1
 62
7
420
16777215
176
1
 90
1
176
1
 90
4
176
1
 62
7
176
1
 62
257
176
1
 90
1
176
1
 90
1
176
1
 40
1.0
176
1
 90
8
176
1
 62
7
176
1
 40
1.0
176
1
 90
1
176
1
 90
6
176
1
 90
2
176
1
 62
7
176
1
 90
5
176
1
 90
0
176
1
 90
0
176
1
290
0
176
1
 90
1
176
1
 40
0.0
176
1
 90
0
176
1
290
0
176
1
290
1
176
1
290
1
176
1
290
0
176
1
290
0
176
1
290
0
176
1
290
0
176
1
290
0
176
1
290
0
176
1
 90
50
176
1
 40
0.0
176
1
 40
1.0
176
1
 90
0
176
1
 62
18
420
0
176
1
 90
50
176
1
 90
3
176
1
 62
5
420
255
176
1
290
0
176
1
 90
50
176
1
 90
50
176
1
 90
50
176
1
290
0
176
1
 90
50
176
1
 62
256
176
0
 40
1.0
176
0
 90
2
176
1
  1
strokes_ogs.tif
176
1
290
0
176
1
 40
1.0
176
1
 40
1.0
176
1
  0
VISUALSTYLE
  5
69
102
{ACAD_REACTORS
330
16
102
}
330
16
100
AcDbVisualStyle
  2
Modeling
 70
10
177
3
291
0
 70
58
 90
2
176
1
 90
2
176
1
 90
0
176
1
 90
2
176
1
 40
0.6
176
1
 40
30.0
176
1
 62
7
420
16777215
176
1
 90
1
176
1
 90
4
176
1
 62
7
176
1
 62
257
176
1
 90
1
176
1
 90
1
176
1
 40
1.0
176
1
 90
8
176
1
 62
7
176
1
 40
1.0
176
1
 90
1
176
1
 90
6
176
1
 90
2
176
1
 62
7
176
1
 90
5
176
1
 90
0
176
1
 90
0
176
1
290
0
176
1
 90
1
176
1
 40
0.0
176
1
 90
0
176
1
290
0
176
1
290
1
176
1
290
1
176
1
290
0
176
1
290
0
176
1
290
0
176
1
290
0
176
1
290
0
176
1
290
0
176
1
 90
50
176
1
 40
0.0
176
1
 40
1.0
176
1
 90
0
176
1
 62
18
420
0
176
1
 90
50
176
1
 90
3
176
1
 62
5
420
255
176
1
290
0
176
1
 90
50
176
1
 90
50
176
1
 90
50
176
1
290
0
176
1
 90
50
176
1
 62
256
176
0
 40
1.0
176
0
 90
2
176
1
  1
strokes_ogs.tif
176
1
290
0
176
1
 40
1.0
176
1
 40
1.0
176
1
  0
VISUALSTYLE
  5
6A
102
{ACAD_REACTORS
330
16
102
}
330
16
100
AcDbVisualStyle
  2
OverhangOff
 70
21
177
3
291
1
 70
58
 90
2
176
1
 90
2
176
1
 90
0
176
1
 90
2
176
1
 40
0.6
176
1
 40
30.0
176
1
 62
7
420
16777215
176
1
 90
1
176
1
 90
4
176
1
 62
7
176
1
 62
257
176
1
 90
1
176
1
 90
1
176
1
 40
1.0
176
1
 90
8
176
1
 62
7
176
1
 40
1.0
176
1
 90
1
176
1
 90
6
176
1
 90
2
176
1
 62
7
176
1
 90
5
176
1
 90
0
176
1
 90
0
176
1
290
0
176
1
 90
1
176
1
 40
0.0
176
1
 90
0
176
1
290
0
176
1
290
1
176
1
290
1
176
1
290
0
176
1
290
0
176
1
290
0
176
1
290
0
176
1
290
0
176
1
290
0
176
1
 90
50
176
1
 40
0.0
176
1
 40
1.0
176
1
 90
0
176
1
 62
18
420
0
176
1
 90
50
176
1
 90
3
176
1
 62
5
420
255
176
1
290
0
176
1
 90
50
176
1
 90
50
176
1
 90
50
176
1
290
0
176
1
 90
50
176
1
 62
256
176
0
 40
1.0
176
0
 90
2
176
1
  1
strokes_ogs.tif
176
1
290
0
176
1
 40
1.0
176
1
 40
1.0
176
1
  0
VISUALSTYLE
  5
6B
102
{ACAD_REACTORS
330
16
102
}
330
16
100
AcDbVisualStyle
  2
Realistic
 70
8
177
3
291
0
 70
58
 90
2
176
1
 90
2
176
1
 90
0
176
1
 90
2
176
1
 40
0.6
176
1
 40
30.0
176
1
 62
7
420
16777215
176
1
 90
1
176
1
 90
4
176
1
 62
7
176
1
 62
257
176
1
 90
1
176
1
 90
1
176
1
 40
1.0
176
1
 90
8
176
1
 62
7
176
1
 40
1.0
176
1
 90
1
176
1
 90
6
176
1
 90
2
176
1
 62
7
176
1
 90
5
176
1
 90
0
176
1
 90
0
176
1
290
0
176
1
 90
1
176
1
 40
0.0
176
1
 90
0
176
1
290
0
176
1
290
1
176
1
290
1
176
1
290
0
176
1
290
0
176
1
290
0
176
1
290
0
176
1
290
0
176
1
290
0
176
1
 90
50
176
1
 40
0.0
176
1
 40
1.0
176
1
 90
0
176
1
 62
18
420
0
176
1
 90
50
176
1
 90
3
176
1
 62
5
420
255
176
1
290
0
176
1
 90
50
176
1
 90
50
176
1
 90
50
176
1
290
0
176
1
 90
50
176
1
 62
256
176
0
 40
1.0
176
0
 90
2
176
1
  1
strokes_ogs.tif
176
1
290
0
176
1
 40
1.0
176
1
 40
1.0
176
1
  0
VISUALSTYLE
  5
6C
102
{ACAD_REACTORS
330
16
102
}
330
16
100
AcDbVisualStyle
  2
Shaded
 70
27
177
3
291
0
 70
58
 90
2
176
1
 90
2
176
1
 90
0
176
1
 90
2
176
1
 40
0.6
176
1
 40
30.0
176
1
 62
7
420
16777215
176
1
 90
1
176
1
 90
4
176
1
 62
7
176
1
 62
257
176
1
 90
1
176
1
 90
1
176
1
 40
1.0
176
1
 90
8
176
1
 62
7
176
1
 40
1.0
176
1
 90
1
176
1
 90
6
176
1
 90
2
176
1
 62
7
176
1
 90
5
176
1
 90
0
176
1
 90
0
176
1
290
0
176
1
 90
1
176
1
 40
0.0
176
1
 90
0
176
1
290
0
176
1
290
1
176
1
290
1
176
1
290
0
176
1
290
0
176
1
290
0
176
1
290
0
176
1
290
0
176
1
290
0
176
1
 90
50
176
1
 40
0.0
176
1
 40
1.0
176
1
 90
0
176
1
 62
18
420
0
176
1
 90
50
176
1
 90
3
176
1
 62
5
420
255
176
1
290
0
176
1
 90
50
176
1
 90
50
176
1
 90
50
176
1
290
0
176
1
 90
50
176
1
 62
256
176
0
 40
1.0
176
0
 90
2
176
1
  1
strokes_ogs.tif
176
1
290
0
176
1
 40
1.0
176
1
 40
1.0
176
1
  0
VISUALSTYLE
  5
6D
102
{ACAD_REACTORS
330
16
102
}
330
16
100
AcDbVisualStyle
  2
Shaded with edges
 70
26
177
3
291
0
 70
58
 90
2
176
1
 90
2
176
1
 90
0
176
1
 90
2
176
1
 40
0.6
176
1
 40
30.0
176
1
 62
7
420
16777215
176
1
 90
1
176
1
 90
4
176
1
 62
7
176
1
 62
257
176
1
 90
1
176
1
 90
1
176
1
 40
1.0
176
1
 90
8
176
1
 62
7
176
1
 40
1.0
176
1
 90
1
176
1
 90
6
176
1
 90
2
176
1
 62
7
176
1
 90
5
176
1
 90
0
176
1
 90
0
176
1
290
0
176
1
 90
1
176
1
 40
0.0
176
1
 90
0
176
1
290
0
176
1
290
1
176
1
290
1
176
1
290
0
176
1
290
0
176
1
290
0
176
1
290
0
176
1
290
0
176
1
290
0
176
1
 90
50
176
1
 40
0.0
176
1
 40
1.0
176
1
 90
0
176
1
 62
18
420
0
176
1
 90
50
176
1
 90
3
176
1
 62
5
420
255
176
1
290
0
176
1
 90
50
176
1
 90
50
176
1
 90
50
176
1
290
0
176
1
 90
50
176
1
 62
256
176
0
 40
1.0
176
0
 90
2
176
1
  1
strokes_ogs.tif
176
1
290
0
176
1
 40
1.0
176
1
 40
1.0
176
1
  0
VISUALSTYLE
  5
6E
102
{ACAD_REACTORS
330
16
102
}
330
16
100
AcDbVisualStyle
  2
Shades of Gray
 70
23
177
3
291
0
 70
58
 90
2
176
1
 90
2
176
1
 90
0
176
1
 90
2
176
1
 40
0.6
176
1
 40
30.0
176
1
 62
7
420
16777215
176
1
 90
1
176
1
 90
4
176
1
 62
7
176
1
 62
257
176
1
 90
1
176
1
 90
1
176
1
 40
1.0
176
1
 90
8
176
1
 62
7
176
1
 40
1.0
176
1
 90
1
176
1
 90
6
176
1
 90
2
176
1
 62
7
176
1
 90
5
176
1
 90
0
176
1
 90
0
176
1
290
0
176
1
 90
1
176
1
 40
0.0
176
1
 90
0
176
1
290
0
176
1
290
1
176
1
290
1
176
1
290
0
176
1
290
0
176
1
290
0
176
1
290
0
176
1
290
0
176
1
290
0
176
1
 90
50
176
1
 40
0.0
176
1
 40
1.0
176
1
 90
0
176
1
 62
18
420
0
176
1
 90
50
176
1
 90
3
176
1
 62
5
420
255
176
1
290
0
176
1
 90
50
176
1
 90
50
176
1
 90
50
176
1
290
0
176
1
 90
50
176
1
 62
256
176
0
 40
1.0
176
0
 90
2
176
1
  1
strokes_ogs.tif
176
1
290
0
176
1
 40
1.0
176
1
 40
1.0
176
1
  0
VISUALSTYLE
  5
6F
102
{ACAD_REACTORS
330
16
102
}
330
16
100
AcDbVisualStyle
  2
Sketchy
 70
24
177
3
291
0
 70
58
 90
2
176
1
 90
2
176
1
 90
0
176
1
 90
1
176
1
 40
0.6
176
1
 40
30.0
176
1
 62
7
420
16777215
176
1
 90
1
176
1
 90
4
176
1
 62
7
176
1
 62
257
176
1
 90
1
176
1
 90
1
176
1
 40
1.0
176
1
 90
8
176
1
 62
7
176
1
 40
1.0
176
1
 90
1
176
1
 90
6
176
1
 90
2
176
1
 62
7
176
1
 90
5
176
1
 90
0
176
1
 90
0
176
1
290
0
176
1
 90
1
176
1
 40
0.0
176
1
 90
0
176
1
290
0
176
1
290
1
176
1
290
1
176
1
290
0
176
1
290
0
176
1
290
0
176
1
290
0
176
1
290
0
176
1
290
0
176
1
 90
50
176
1
 40
0.0
176
1
 40
1.0
176
1
 90
0
176
1
 62
18
420
0
176
1
 90
50
176
1
 90
3
176
1
 62
5
420
255
176
1
290
0
176
1
 90
50
176
1
 90
50
176
1
 90
50
176
1
290
0
176
1
 90
50
176
1
 62
256
176
0
 40
1.0
176
0
 90
2
176
1
  1
strokes_ogs.tif
176
1
290
0
176
1
 40
1.0
176
1
 40
1.0
176
1
  0
VISUALSTYLE
  5
70
102
{ACAD_REACTORS
330
16
102
}
330
16
100
AcDbVisualStyle
  2
Thicken
 70
13
177
3
291
1
 70
58
 90
2
176
1
 90
2
176
1
 90
0
176
1
 90
2
176
1
 40
0.6
176
1
 40
30.0
176
1
 62
7
420
16777215
176
1
 90
1
176
1
 90
4
176
1
 62
7
176
1
 62
257
176
1
 90
1
176
1
 90
1
176
1
 40
1.0
176
1
 90
8
176
1
 62
7
176
1
 40
1.0
176
1
 90
1
176
1
 90
6
176
1
 90
2
176
1
 62
7
176
1
 90
5
176
1
 90
0
176
1
 90
0
176
1
290
0
176
1
 90
1
176
1
 40
0.0
176
1
 90
0
176
1
290
0
176
1
290
1
176
1
290
1
176
1
290
0
176
1
290
0
176
1
290
0
176
1
290
0
176
1
290
0
176
1
290
0
176
1
 90
50
176
1
 40
0.0
176
1
 40
1.0
176
1
 90
0
176
1
 62
18
420
0
176
1
 90
50
176
1
 90
3
176
1
 62
5
420
255
176
1
290
0
176
1
 90
50
176
1
 90
50
176
1
 90
50
176
1
290
0
176
1
 90
50
176
1
 62
256
176
0
 40
1.0
176
0
 90
2
176
1
  1
strokes_ogs.tif
176
1
290
0
176
1
 40
1.0
176
1
 40
1.0
176
1
  0
VISUALSTYLE
  5
71
102
{ACAD_REACTORS
330
16
102
}
330
16
100
AcDbVisualStyle
  2
Wireframe
 70
5
177
3
291
0
 70
58
 90
2
176
1
 90
2
176
1
 90
0
176
1
 90
0
176
1
 40
0.6
176
1
 40
30.0
176
1
 62
7
420
16777215
176
1
 90
1
176
1
 90
4
176
1
 62
7
176
1
 62
257
176
1
 90
1
176
1
 90
1
176
1
 40
1.0
176
1
 90
8
176
1
 62
7
176
1
 40
1.0
176
1
 90
1
176
1
 90
6
176
1
 90
2
176
1
 62
7
176
1
 90
5
176
1
 90
0
176
1
 90
0
176
1
290
0
176
1
 90
1
176
1
 40
0.0
176
1
 90
0
176
1
290
0
176
1
290
1
176
1
290
1
176
1
290
0
176
1
290
0
176
1
290
0
176
1
290
0
176
1
290
0
176
1
290
0
176
1
 90
50
176
1
 40
0.0
176
1
 40
1.0
176
1
 90
0
176
1
 62
18
420
0
176
1
 90
50
176
1
 90
3
176
1
 62
5
420
255
176
1
290
0
176
1
 90
50
176
1
 90
50
176
1
 90
50
176
1
290
0
176
1
 90
50
176
1
 62
256
176
0
 40
1.0
176
0
 90
2
176
1
  1
strokes_ogs.tif
176
1
290
0
176
1
 40
1.0
176
1
 40
1.0
176
1
  0
VISUALSTYLE
  5
72
102
{ACAD_REACTORS
330
16
102
}
330
16
100
AcDbVisualStyle
  2
X-Ray
 70
25
177
3
291
0
 70
58
 90
2
176
1
 90
2
176
1
 90
0
176
1
 90
2
176
1
 40
0.5
176
1
 40
30.0
176
1
 62
7
420
16777215
176
1
 90
1
176
1
 90
4
176
1
 62
7
176
1
 62
257
176
1
 90
1
176
1
 90
1
176
1
 40
1.0
176
1
 90
8
176
1
 62
7
176
1
 40
1.0
176
1
 90
1
176
1
 90
6
176
1
 90
2
176
1
 62
7
176
1
 90
5
176
1
 90
0
176
1
 90
0
176
1
290
0
176
1
 90
1
176
1
 40
0.0
176
1
 90
0
176
1
290
0
176
1
290
1
176
1
290
1
176
1
290
0
176
1
290
0
176
1
290
0
176
1
290
0
176
1
290
0
176
1
290
0
176
1
 90
50
176
1
 40
0.0
176
1
 40
1.0
176
1
 90
0
176
1
 62
18
420
0
176
1
 90
50
176
1
 90
3
176
1
 62
5
420
255
176
1
290
0
176
1
 90
50
176
1
 90
50
176
1
 90
50
176
1
290
0
176
1
 90
50
176
1
 62
256
176
0
 40
1.0
176
0
 90
2
176
1
  1
strokes_ogs.tif
176
1
290
0
176
1
 40
1.0
176
1
 40
1.0
176
1
  0
DICTIONARYVAR
  5
282
330
2D
100
DictionaryVariables
280
0
  1
1.4.4 @ 2026-09-29T11:29:12.541656+00:00
  0
ENDSEC
  0
EOF
