  0
SECTION
  2
HEADER
  9
$ACADVER
  1
AC1032
  9
$ACADMAINTVER
 90
4
  9
$DWGCODEPAGE
  3
ANSI_1252
  9
$LASTSAVEDBY
  1
ezdxf
  9
$REQUIREDVERSIONS
160
0
  9
$INSBASE
 10
0.0
 20
0.0
 30
0.0
  9
$EXTMIN
 10
1e+20
 20
1e+20
 30
1e+20
  9
$EXTMAX
 10
-1e+20
 20
-1e+20
 30
-1e+20
  9
$LIMMIN
 10
0.0
 20
0.0
  9
$LIMMAX
 10
420.0
 20
297.0
  9
$ORTHOMODE
 70
0
  9
$REGENMODE
 70
1
  9
$FILLMODE
 70
1
  9
$QTEXTMODE
 70
0
  9
$MIRRTEXT
 70
1
  9
$LTSCALE
 40
1.0
  9
$ATTMODE
 70
1
  9
$TEXTSIZE
 40
2.5
  9
$TRACEWID
 40
1.0
  9
$TEXTSTYLE
  7
OpenSans
  9
$CLAYER
  8
0
  9
$CELTYPE
  6
ByLayer
  9
$CECOLOR
 62
256
  9
$CELTSCALE
 40
1.0
  9
$DISPSILH
 70
0
  9
$DIMSCALE
 40
1.0
  9
$DIMASZ
 40
0.175
  9
$DIMEXO
 40
0.125
  9
$DIMDLI
 40
3.75
  9
$DIMRND
 40
0.0
  9
$DIMDLE
 40
0.0
  9
$DIMEXE
 40
0.375
  9
$DIMTP
 40
0.0
  9
$DIMTM
 40
0.0
  9
$DIMTXT
 40
0.25
  9
$DIMCEN
 40
2.5
  9
$DIMTSZ
 40
0.0
  9
$DIMTOL
 70
0
  9
$DIMLIM
 70
0
  9
$DIMTIH
 70
0
  9
$DIMTOH
 70
0
  9
$DIMSE1
 70
0
  9
$DIMSE2
 70
0
  9
$DIMTAD
 70
1
  9
$DIMZIN
 70
12
  9
$DIMBLK
  1
ARCHTICK
  9
$DIMASO
 70
1
  9
$DIMSHO
 70
1
  9
$DIMPOST
  1

  9
$DIMAPOST
  1

  9
$DIMALT
 70
0
  9
$DIMALTD
 70
3
  9
$DIMALTF
 40
0.03937007874
  9
$DIMLFAC
 40
100.0
  9
$DIMTOFL
 70
1
  9
$DIMTVP
 40
0.0
  9
$DIMTIX
 70
0
  9
$DIMSOXD
 70
0
  9
$DIMSAH
 70
0
  9
$DIMBLK1
  1

  9
$DIMBLK2
  1

  9
$DIMSTYLE
  2
EZDXF
  9
$DIMCLRD
 70
0
  9
$DIMCLRE
 70
0
  9
$DIMCLRT
 70
0
  9
$DIMTFAC
 40
0.5
  9
$DIMGAP
 40
0.1
  9
$DIMJUST
 70
0
  9
$DIMSD1
 70
0
  9
$DIMSD2
 70
0
  9
$DIMTOLJ
 70
0
  9
$DIMTZIN
 70
8
  9
$DIMALTZ
 70
0
  9
$DIMALTTZ
 70
0
  9
$DIMUPT
 70
1
  9
$DIMDEC
 70
2
  9
$DIMTDEC
 70
2
  9
$DIMALTU
 70
2
  9
$DIMALTTD
 70
3
  9
$DIMTXSTY
  7
OpenSansCondensed-Light
  9
$DIMAUNIT
 70
0
  9
$DIMADEC
 70
2
  9
$DIMALTRND
 40
0.0
  9
$DIMAZIN
 70
3
  9
$DIMDSEP
 70
46
  9
$DIMATFIT
 70
3
  9
$DIMFRAC
 70
0
  9
$DIMLDRBLK
  1

  9
$DIMLUNIT
 70
2
  9
$DIMLWD
 70
-2
  9
$DIMLWE
 70
-2
  9
$DIMTMOVE
 70
2
  9
$DIMFXL
 40
1.0
  9
$DIMFXLON
 70
0
  9
$DIMJOGANG
 40
0.785398163397
  9
$DIMTFILL
 70
0
  9
$DIMTFILLCLR
 70
0
  9
$DIMARCSYM
 70
0
  9
$DIMLTYPE
  6

  9
$DIMLTEX1
  6

  9
$DIMLTEX2
  6

  9
$DIMTXTDIRECTION
 70
0
  9
$LUNITS
 70
2
  9
$LUPREC
 70
4
  9
$SKETCHINC
 40
1.0
  9
$FILLETRAD
 40
10.0
  9
$AUNITS
 70
0
  9
$AUPREC
 70
2
  9
$MENU
  1
.
  9
$ELEVATION
 40
0.0
  9
$PELEVATION
 40
0.0
  9
$THICKNESS
 40
0.0
  9
$LIMCHECK
 70
0
  9
$CHAMFERA
 40
0.0
  9
$CHAMFERB
 40
0.0
  9
$CHAMFERC
 40
0.0
  9
$CHAMFERD
 40
0.0
  9
$SKPOLY
 70
0
  9
$TDCREATE
 40
2461312.888287037
  9
$TDUCREATE
 40
2458532.153996898
  9
$TDUPDATE
 40
2461312.888287037
  9
$TDUUPDATE
 40
2458532.1544311
  9
$TDINDWG
 40
0.0
  9
$TDUSRTIMER
 40
0.0
  9
$USRTIMER
 70
1
  9
$ANGBASE
 50
0.0
  9
$ANGDIR
 70
0
  9
$PDMODE
 70
0
  9
$PDSIZE
 40
0.0
  9
$PLINEWID
 40
0.0
  9
$SPLFRAME
 70
0
  9
$SPLINETYPE
 70
6
  9
$SPLINESEGS
 70
8
  9
$HANDSEED
  5
24D
  9
$SURFTAB1
 70
6
  9
$SURFTAB2
 70
6
  9
$SURFTYPE
 70
6
  9
$SURFU
 70
6
  9
$SURFV
 70
6
  9
$UCSBASE
  2

  9
$UCSNAME
  2

  9
$UCSORG
 10
0.0
 20
0.0
 30
0.0
  9
$UCSXDIR
 10
1.0
 20
0.0
 30
0.0
  9
$UCSYDIR
 10
0.0
 20
1.0
 30
0.0
  9
$UCSORTHOREF
  2

  9
$UCSORTHOVIEW
 70
0
  9
$UCSORGTOP
 10
0.0
 20
0.0
 30
0.0
  9
$UCSORGBOTTOM
 10
0.0
 20
0.0
 30
0.0
  9
$UCSORGLEFT
 10
0.0
 20
0.0
 30
0.0
  9
$UCSORGRIGHT
 10
0.0
 20
0.0
 30
0.0
  9
$UCSORGFRONT
 10
0.0
 20
0.0
 30
0.0
  9
$UCSORGBACK
 10
0.0
 20
0.0
 30
0.0
  9
$PUCSBASE
  2

  9
$PUCSNAME
  2

  9
$PUCSORG
 10
0.0
 20
0.0
 30
0.0
  9
$PUCSXDIR
 10
1.0
 20
0.0
 30
0.0
  9
$PUCSYDIR
 10
0.0
 20
1.0
 30
0.0
  9
$PUCSORTHOREF
  2

  9
$PUCSORTHOVIEW
 70
0
  9
$PUCSORGTOP
 10
0.0
 20
0.0
 30
0.0
  9
$PUCSORGBOTTOM
 10
0.0
 20
0.0
 30
0.0
  9
$PUCSORGLEFT
 10
0.0
 20
0.0
 30
0.0
  9
$PUCSORGRIGHT
 10
0.0
 20
0.0
 30
0.0
  9
$PUCSORGFRONT
 10
0.0
 20
0.0
 30
0.0
  9
$PUCSORGBACK
 10
0.0
 20
0.0
 30
0.0
  9
$USERI1
 70
0
  9
$USERI2
 70
0
  9
$USERI3
 70
0
  9
$USERI4
 70
0
  9
$USERI5
 70
0
  9
$USERR1
 40
0.0
  9
$USERR2
 40
0.0
  9
$USERR3
 40
0.0
  9
$USERR4
 40
0.0
  9
$USERR5
 40
0.0
  9
$WORLDVIEW
 70
1
  9
$SHADEDGE
 70
3
  9
$SHADEDIF
 70
70
  9
$TILEMODE
 70
1
  9
$MAXACTVP
 70
64
  9
$PINSBASE
 10
0.0
 20
0.0
 30
0.0
  9
$PLIMCHECK
 70
0
  9
$PEXTMIN
 10
1e+20
 20
1e+20
 30
1e+20
  9
$PEXTMAX
 10
-1e+20
 20
-1e+20
 30
-1e+20
  9
$PLIMMIN
 10
0.0
 20
0.0
  9
$PLIMMAX
 10
420.0
 20
297.0
  9
$UNITMODE
 70
0
  9
$VISRETAIN
 70
1
  9
$PLINEGEN
 70
0
  9
$PSLTSCALE
 70
1
  9
$TREEDEPTH
 70
3020
  9
$CMLSTYLE
  2
Standard
  9
$CMLJUST
 70
0
  9
$CMLSCALE
 40
20.0
  9
$PROXYGRAPHICS
 70
1
  9
$MEASUREMENT
 70
1
  9
$CELWEIGHT
370
-1
  9
$ENDCAPS
280
0
  9
$JOINSTYLE
280
0
  9
$LWDISPLAY
290
0
  9
$INSUNITS
 70
21
  9
$HYPERLINKBASE
  1

  9
$STYLESHEET
  1

  9
$XEDIT
290
1
  9
$CEPSNTYPE
380
0
  9
$PSTYLEMODE
290
1
  9
$FINGERPRINTGUID
  2
{C7C278C8-D6AD-4654-9B0E-8FAC21C6DF33}
  9
$VERSIONGUID
  2
{2FC4D4F6-7D90-47F2-839A-59B88B626E31}
  9
$EXTNAMES
290
1
  9
$PSVPSCALE
 40
0.0
  9
$OLESTARTUP
290
0
  9
$SORTENTS
280
127
  9
$INDEXCTL
280
0
  9
$HIDETEXT
280
1
  9
$XCLIPFRAME
280
1
  9
$HALOGAP
280
0
  9
$OBSCOLOR
 70
257
  9
$OBSLTYPE
280
0
  9
$INTERSECTIONDISPLAY
280
0
  9
$INTERSECTIONCOLOR
 70
257
  9
$DIMASSOC
280
2
  9
$PROJECTNAME
  1

  9
$CAMERADISPLAY
290
0
  9
$LENSLENGTH
 40
50.0
  9
$CAMERAHEIGHT
 40
0.0
  9
$STEPSPERSEC
 40
24.0
  9
$STEPSIZE
 40
100.0
  9
$3DDWFPREC
 40
2.0
  9
$PSOLWIDTH
 40
0.005
  9
$PSOLHEIGHT
 40
0.08
  9
$LOFTANG1
 40
1.570796326795
  9
$LOFTANG2
 40
1.570796326795
  9
$LOFTMAG1
 40
0.0
  9
$LOFTMAG2
 40
0.0
  9
$LOFTPARAM
 70
7
  9
$LOFTNORMALS
280
1
  9
$LATITUDE
 40
37.795
  9
$LONGITUDE
 40
-122.394
  9
$NORTHDIRECTION
 40
0.0
  9
$TIMEZONE
 70
-8000
  9
$LIGHTGLYPHDISPLAY
280
1
  9
$TILEMODELIGHTSYNCH
280
1
  9
$CMATERIAL
347
20
  9
$SOLIDHIST
280
0
  9
$SHOWHIST
280
1
  9
$DWFFRAME
280
2
  9
$DGNFRAME
280
2
  9
$REALWORLDSCALE
290
1
  9
$INTERFERECOLOR
 62
256
  9
$CSHADOW
280
0
  9
$SHADOWPLANELOCATION
 40
0.0
  0
ENDSEC
  0
SECTION
  2
CLASSES
  0
CLASS
  1
ACDBDICTIONARYWDFLT
  2
AcDbDictionaryWithDefault
  3
ObjectDBX Classes
 90
0
 91
0
280
0
281
0
  0
CLASS
  1
SUN
  2
AcDbSun
  3
SCENEOE
 90
1153
 91
0
280
0
281
0
  0
CLASS
  1
VISUALSTYLE
  2
AcDbVisualStyle
  3
ObjectDBX Classes
 90
4095
 91
0
280
0
281
0
  0
CLASS
  1
MATERIAL
  2
AcDbMaterial
  3
ObjectDBX Classes
 90
1153
 91
0
280
0
281
0
  0
CLASS
  1
SCALE
  2
AcDbScale
  3
ObjectDBX Classes
 90
1153
 91
0
280
0
281
0
  0
CLASS
  1
TABLESTYLE
  2
AcDbTableStyle
  3
ObjectDBX Classes
 90
4095
 91
0
280
0
281
0
  0
CLASS
  1
MLEADERSTYLE
  2
AcDbMLeaderStyle
  3
ACDB_MLEADERSTYLE_CLASS
 90
4095
 91
0
280
0
281
0
  0
CLASS
  1
DICTIONARYVAR
  2
AcDbDictionaryVar
  3
ObjectDBX Classes
 90
0
 91
0
280
0
281
0
  0
CLASS
  1
CELLSTYLEMAP
  2
AcDbCellStyleMap
  3
ObjectDBX Classes
 90
1152
 91
0
280
0
281
0
  0
CLASS
  1
MENTALRAYRENDERSETTINGS
  2
AcDbMentalRayRenderSettings
  3
SCENEOE
 90
1024
 91
0
280
0
281
0
  0
CLASS
  1
ACDBDETAILVIEWSTYLE
  2
AcDbDetailViewStyle
  3
ObjectDBX Classes
 90
1025
 91
0
280
0
281
0
  0
CLASS
  1
ACDBSECTIONVIEWSTYLE
  2
AcDbSectionViewStyle
  3
ObjectDBX Classes
 90
1025
 91
0
280
0
281
0
  0
CLASS
  1
RASTERVARIABLES
  2
AcDbRasterVariables
  3
ISM
 90
0
 91
0
280
0
281
0
  0
CLASS
  1
LAYOUT
  2
AcDbLayout
  3
ObjectDBX Classes
 90
0
 91
0
280
0
281
0
  0
CLASS
  1
ACDBPLACEHOLDER
  2
AcDbPlaceHolder
  3
ObjectDBX Classes
 90
0
 91
0
280
0
281
0
  0
ENDSEC
  0
SECTION
  2
TABLES
  0
TABLE
  2
VPORT
  5
8
330
0
100
AcDbSymbolTable
 70
1
  0
VPORT
  5
23
330
8
100
AcDbSymbolTableRecord
100
AcDbViewportTableRecord
  2
*Active
 70
0
 10
0.0
 20
0.0
 11
1.0
 21
1.0
 12
0.0
 22
0.0
 13
0.0
 23
0.0
 14
0.5
 24
0.5
 15
0.5
 25
0.5
 16
0.0
 26
0.0
 36
1.0
 17
0.0
 27
0.0
 37
0.0
 40
1000.0
 41
1.34
 42
50.0
 43
0.0
 44
0.0
 50
0.0
 51
0.0
 71
0
 72
1000
 73
1
 74
3
 75
0
 76
0
 77
0
 78
0
281
0
 65
0
146
0.0
  0
ENDTAB
  0
TABLE
  2
LTYPE
  5
2
330
0
100
AcDbSymbolTable
 70
21
  0
LTYPE
  5
24
330
2
100
AcDbSymbolTableRecord
100
AcDbLinetypeTableRecord
  2
ByBlock
 70
0
  3

 72
65
 73
0
 40
0.0
  0
LTYPE
  5
25
330
2
100
AcDbSymbolTableRecord
100
AcDbLinetypeTableRecord
  2
ByLayer
 70
0
  3

 72
65
 73
0
 40
0.0
  0
LTYPE
  5
26
330
2
100
AcDbSymbolTableRecord
100
AcDbLinetypeTableRecord
  2
Continuous
 70
0
  3

 72
65
 73
0
 40
0.0
  0
LTYPE
  5
2F
330
2
100
AcDbSymbolTableRecord
100
AcDbLinetypeTableRecord
  2
CENTER
 70
0
  3
Center ____ _ ____ _ ____ _ ____ _ ____ _ ____
 72
65
 73
4
 40
5.08
 49
3.175
 74
0
 49
-0.635
 74
0
 49
0.635
 74
0
 49
-0.635
 74
0
  0
LTYPE
  5
30
330
2
100
AcDbSymbolTableRecord
100
AcDbLinetypeTableRecord
  2
CENTERX2
 70
0
  3
Center (2x) ________  __  ________  __  ________
 72
65
 73
4
 40
8.89
 49
6.35
 74
0
 49
-0.635
 74
0
 49
1.27
 74
0
 49
-0.635
 74
0
  0
LTYPE
  5
31
330
2
100
AcDbSymbolTableRecord
100
AcDbLinetypeTableRecord
  2
CENTER2
 70
0
  3
Center (.5x) ____ _ ____ _ ____ _ ____ _ ____
 72
65
 73
4
 40
2.54
 49
1.587
 74
0
 49
-0.318
 74
0
 49
0.318
 74
0
 49
-0.318
 74
0
  0
LTYPE
  5
32
330
2
100
AcDbSymbolTableRecord
100
AcDbLinetypeTableRecord
  2
DASHED
 70
0
  3
Dashed __ __ __ __ __ __ __ __ __ __ __ __ __ _
 72
65
 73
2
 40
1.524
 49
1.27
 74
0
 49
-0.254
 74
0
  0
LTYPE
  5
33
330
2
100
AcDbSymbolTableRecord
100
AcDbLinetypeTableRecord
  2
DASHEDX2
 70
0
  3
Dashed (2x) ____  ____  ____  ____  ____  ____
 72
65
 73
2
 40
3.048
 49
2.54
 74
0
 49
-0.508
 74
0
  0
LTYPE
  5
34
330
2
100
AcDbSymbolTableRecord
100
AcDbLinetypeTableRecord
  2
DASHED2
 70
0
  3
Dashed (.5x) _ _ _ _ _ _ _ _ _ _ _ _ _ _
 72
65
 73
2
 40
0.762
 49
0.635
 74
0
 49
-0.127
 74
0
  0
LTYPE
  5
35
330
2
100
AcDbSymbolTableRecord
100
AcDbLinetypeTableRecord
  2
PHANTOM
 70
0
  3
Phantom ______  __  __  ______  __  __  ______
 72
65
 73
6
 40
6.35
 49
3.175
 74
0
 49
-0.635
 74
0
 49
0.635
 74
0
 49
-0.635
 74
0
 49
0.635
 74
0
 49
-0.635
 74
0
  0
LTYPE
  5
36
330
2
100
AcDbSymbolTableRecord
100
AcDbLinetypeTableRecord
  2
PHANTOMX2
 70
0
  3
Phantom (2x)____________    ____    ____    ____________
 72
65
 73
6
 40
10.795
 49
6.35
 74
0
 49
-0.635
 74
0
 49
1.27
 74
0
 49
-0.635
 74
0
 49
1.27
 74
0
 49
-0.635
 74
0
  0
LTYPE
  5
37
330
2
100
AcDbSymbolTableRecord
100
AcDbLinetypeTableRecord
  2
PHANTOM2
 70
0
  3
Phantom (.5x) ___ _ _ ___ _ _ ___ _ _ ___ _ _ ___
 72
65
 73
6
 40
3.175
 49
1.587
 74
0
 49
-0.318
 74
0
 49
0.318
 74
0
 49
-0.318
 74
0
 49
0.318
 74
0
 49
-0.318
 74
0
  0
LTYPE
  5
38
330
2
100
AcDbSymbolTableRecord
100
AcDbLinetypeTableRecord
  2
DASHDOT
 70
0
  3
Dash dot __ . __ . __ . __ . __ . __ . __ . __
 72
65
 73
4
 40
3.556
 49
2.54
 74
0
 49
-0.508
 74
0
 49
0.0
 74
0
 49
-0.508
 74
0
  0
LTYPE
  5
39
330
2
100
AcDbSymbolTableRecord
100
AcDbLinetypeTableRecord
  2
DASHDOTX2
 70
0
  3
Dash dot (2x) ____  .  ____  .  ____  .  ____
 72
65
 73
4
 40
6.096
 49
5.08
 74
0
 49
-0.508
 74
0
 49
0.0
 74
0
 49
-0.508
 74
0
  0
LTYPE
  5
3A
330
2
100
AcDbSymbolTableRecord
100
AcDbLinetypeTableRecord
  2
DASHDOT2
 70
0
  3
Dash dot (.5x) _ . _ . _ . _ . _ . _ . _ . _
 72
65
 73
4
 40
1.778
 49
1.27
 74
0
 49
-0.254
 74
0
 49
0.0
 74
0
 49
-0.254
 74
0
  0
LTYPE
  5
3B
330
2
100
AcDbSymbolTableRecord
100
AcDbLinetypeTableRecord
  2
DOT
 70
0
  3
Dot .  .  .  .  .  .  .  .  .  .  .  .  .  .  .  .
 72
65
 73
2
 40
0.508
 49
0.0
 74
0
 49
-0.508
 74
0
  0
LTYPE
  5
3C
330
2
100
AcDbSymbolTableRecord
100
AcDbLinetypeTableRecord
  2
DOTX2
 70
0
  3
Dot (2x) .    .    .    .    .    .    .    . 
 72
65
 73
2
 40
1.016
 49
0.0
 74
0
 49
-1.016
 74
0
  0
LTYPE
  5
3D
330
2
100
AcDbSymbolTableRecord
100
AcDbLinetypeTableRecord
  2
DOT2
 70
0
  3
Dot (.5) . . . . . . . . . . . . . . . . . . . 
 72
65
 73
2
 40
0.254
 49
0.0
 74
0
 49
-0.254
 74
0
  0
LTYPE
  5
3E
330
2
100
AcDbSymbolTableRecord
100
AcDbLinetypeTableRecord
  2
DIVIDE
 70
0
  3
Divide __ . . __ . . __ . . __ . . __ . . __
 72
65
 73
6
 40
4.064
 49
2.54
 74
0
 49
-0.508
 74
0
 49
0.0
 74
0
 49
-0.508
 74
0
 49
0.0
 74
0
 49
-0.508
 74
0
  0
LTYPE
  5
3F
330
2
100
AcDbSymbolTableRecord
100
AcDbLinetypeTableRecord
  2
DIVIDEX2
 70
0
  3
Divide (2x) ____  . .  ____  . .  ____  . .  ____
 72
65
 73
6
 40
6.604
 49
5.08
 74
0
 49
-0.508
 74
0
 49
0.0
 74
0
 49
-0.508
 74
0
 49
0.0
 74
0
 49
-0.508
 74
0
  0
LTYPE
  5
40
330
2
100
AcDbSymbolTableRecord
100
AcDbLinetypeTableRecord
  2
DIVIDE2
 70
0
  3
Divide(.5x) _ . _ . _ . _ . _ . _ . _ . _
 72
65
 73
6
 40
2.032
 49
1.27
 74
0
 49
-0.254
 74
0
 49
0.0
 74
0
 49
-0.254
 74
0
 49
0.0
 74
0
 49
-0.254
 74
0
  0
ENDTAB
  0
TABLE
  2
LAYER
  5
1
330
0
100
AcDbSymbolTable
 70
16
  0
LAYER
  5
27
330
1
100
AcDbSymbolTableRecord
100
AcDbLayerTableRecord
  2
0
 70
0
 62
7
  6
Continuous
370
-3
390
13
347
21
  0
LAYER
  5
28
330
1
100
AcDbSymbolTableRecord
100
AcDbLayerTableRecord
  2
Defpoints
 70
0
 62
7
  6
Continuous
290
0
370
-3
390
13
347
21
  0
LAYER
  5
8A
330
1
100
AcDbSymbolTableRecord
100
AcDbLayerTableRecord
  2
C-WATR-LAKE
 70
0
 62
5
  6
Continuous
370
-3
390
13
347
21
  0
LAYER
  5
8B
330
1
100
AcDbSymbolTableRecord
100
AcDbLayerTableRecord
  2
C-WATR-BUFR
 70
0
 62
4
  6
Continuous
370
-3
390
13
347
21
  0
LAYER
  5
8C
330
1
100
AcDbSymbolTableRecord
100
AcDbLayerTableRecord
  2
C-ZONE-LIMIT
 70
0
 62
6
  6
Continuous
370
-3
390
13
347
21
  0
LAYER
  5
8D
330
1
100
AcDbSymbolTableRecord
100
AcDbLayerTableRecord
  2
C-ZONE-BNDY
 70
0
 62
1
  6
Continuous
370
-3
390
13
347
21
  0
LAYER
  5
8E
330
1
100
AcDbSymbolTableRecord
100
AcDbLayerTableRecord
  2
C-ZONE-ANNO
 70
0
 62
1
  6
Continuous
370
-3
390
13
347
21
  0
LAYER
  5
8F
330
1
100
AcDbSymbolTableRecord
100
AcDbLayerTableRecord
  2
C-ROAD-LOOP
 70
0
 62
7
  6
Continuous
370
-3
390
13
347
21
  0
LAYER
  5
90
330
1
100
AcDbSymbolTableRecord
100
AcDbLayerTableRecord
  2
C-ROAD-EDGE
 70
0
 62
8
  6
Continuous
370
-3
390
13
347
21
  0
LAYER
  5
91
330
1
100
AcDbSymbolTableRecord
100
AcDbLayerTableRecord
  2
C-ROAD-EXST
 70
0
 62
8
  6
Continuous
370
-3
390
13
347
21
  0
LAYER
  5
92
330
1
100
AcDbSymbolTableRecord
100
AcDbLayerTableRecord
  2
A-UNIT-PAD
 70
0
 62
30
  6
Continuous
370
-3
390
13
347
21
  0
LAYER
  5
93
330
1
100
AcDbSymbolTableRecord
100
AcDbLayerTableRecord
  2
A-UNIT-ANNO
 70
0
 62
30
  6
Continuous
370
-3
390
13
347
21
  0
LAYER
  5
94
330
1
100
AcDbSymbolTableRecord
100
AcDbLayerTableRecord
  2
A-BLDG-EXST
 70
0
 62
9
  6
Continuous
370
-3
390
13
347
21
  0
LAYER
  5
95
330
1
100
AcDbSymbolTableRecord
100
AcDbLayerTableRecord
  2
L-PLNT-TREE-EXST
 70
0
 62
92
  6
Continuous
370
-3
390
13
347
21
  0
LAYER
  5
96
330
1
100
AcDbSymbolTableRecord
100
AcDbLayerTableRecord
  2
G-ANNO-DIMS
 70
0
 62
2
  6
Continuous
370
-3
390
13
347
21
  0
LAYER
  5
97
330
1
100
AcDbSymbolTableRecord
100
AcDbLayerTableRecord
  2
G-ANNO-NOTE
 70
0
 62
7
  6
Continuous
370
-3
390
13
347
21
  0
ENDTAB
  0
TABLE
  2
STYLE
  5
5
330
0
100
AcDbSymbolTable
 70
26
  0
STYLE
  5
29
330
5
100
AcDbSymbolTableRecord
100
AcDbTextStyleTableRecord
  2
Standard
 70
0
 40
0.0
 41
1.0
 50
0.0
 71
0
 42
2.5
  3
txt
  4

  0
STYLE
  5
41
330
5
100
AcDbSymbolTableRecord
100
AcDbTextStyleTableRecord
  2
OpenSans-Light
 70
0
 40
0.0
 41
1.0
 50
0.0
 71
0
 42
2.5
  3
OpenSans-Light.ttf
  4

  0
STYLE
  5
42
330
5
100
AcDbSymbolTableRecord
100
AcDbTextStyleTableRecord
  2
OpenSans-Light-Italic
 70
0
 40
0.0
 41
1.0
 50
0.0
 71
0
 42
2.5
  3
OpenSans-LightItalic.ttf
  4

  0
STYLE
  5
43
330
5
100
AcDbSymbolTableRecord
100
AcDbTextStyleTableRecord
  2
OpenSans
 70
0
 40
0.0
 41
1.0
 50
0.0
 71
0
 42
2.5
  3
OpenSans-Regular.ttf
  4

  0
STYLE
  5
44
330
5
100
AcDbSymbolTableRecord
100
AcDbTextStyleTableRecord
  2
OpenSans-Italic
 70
0
 40
0.0
 41
1.0
 50
0.0
 71
0
 42
2.5
  3
OpenSans-Italic.ttf
  4

  0
STYLE
  5
45
330
5
100
AcDbSymbolTableRecord
100
AcDbTextStyleTableRecord
  2
OpenSans-SemiBold
 70
0
 40
0.0
 41
1.0
 50
0.0
 71
0
 42
2.5
  3
OpenSans-SemiBold.ttf
  4

  0
STYLE
  5
46
330
5
100
AcDbSymbolTableRecord
100
AcDbTextStyleTableRecord
  2
OpenSans-SemiBoldItalic
 70
0
 40
0.0
 41
1.0
 50
0.0
 71
0
 42
2.5
  3
OpenSans-SemiBoldItalic.ttf
  4

  0
STYLE
  5
47
330
5
100
AcDbSymbolTableRecord
100
AcDbTextStyleTableRecord
  2
OpenSans-Bold
 70
0
 40
0.0
 41
1.0
 50
0.0
 71
0
 42
2.5
  3
OpenSans-Bold.ttf
  4

  0
STYLE
  5
48
330
5
100
AcDbSymbolTableRecord
100
AcDbTextStyleTableRecord
  2
OpenSans-BoldItalic
 70
0
 40
0.0
 41
1.0
 50
0.0
 71
0
 42
2.5
  3
OpenSans-BoldItalic.ttf
  4

  0
STYLE
  5
49
330
5
100
AcDbSymbolTableRecord
100
AcDbTextStyleTableRecord
  2
OpenSans-ExtraBold
 70
0
 40
0.0
 41
1.0
 50
0.0
 71
0
 42
2.5
  3
OpenSans-ExtraBold.ttf
  4

  0
STYLE
  5
4A
330
5
100
AcDbSymbolTableRecord
100
AcDbTextStyleTableRecord
  2
OpenSans-ExtraBoldItalic
 70
0
 40
0.0
 41
1.0
 50
0.0
 71
0
 42
2.5
  3
OpenSans-ExtraBoldItalic.ttf
  4

  0
STYLE
  5
4B
330
5
100
AcDbSymbolTableRecord
100
AcDbTextStyleTableRecord
  2
OpenSansCondensed-Bold
 70
0
 40
0.0
 41
1.0
 50
0.0
 71
0
 42
2.5
  3
OpenSansCondensed-Bold.ttf
  4

  0
STYLE
  5
4C
330
5
100
AcDbSymbolTableRecord
100
AcDbTextStyleTableRecord
  2
OpenSansCondensed-Light
 70
0
 40
0.0
 41
1.0
 50
0.0
 71
0
 42
2.5
  3
OpenSansCondensed-Light.ttf
  4

  0
STYLE
  5
4D
330
5
100
AcDbSymbolTableRecord
100
AcDbTextStyleTableRecord
  2
OpenSansCondensed-Italic
 70
0
 40
0.0
 41
1.0
 50
0.0
 71
0
 42
2.5
  3
OpenSansCondensed-LightItalic.ttf
  4

  0
STYLE
  5
4E
330
5
100
AcDbSymbolTableRecord
100
AcDbTextStyleTableRecord
  2
LiberationSans
 70
0
 40
0.0
 41
1.0
 50
0.0
 71
0
 42
2.5
  3
LiberationSans-Regular.ttf
  4

  0
STYLE
  5
4F
330
5
100
AcDbSymbolTableRecord
100
AcDbTextStyleTableRecord
  2
LiberationSans-Bold
 70
0
 40
0.0
 41
1.0
 50
0.0
 71
0
 42
2.5
  3
LiberationSans-Bold.ttf
  4

  0
STYLE
  5
50
330
5
100
AcDbSymbolTableRecord
100
AcDbTextStyleTableRecord
  2
LiberationSans-BoldItalic
 70
0
 40
0.0
 41
1.0
 50
0.0
 71
0
 42
2.5
  3
LiberationSans-BoldItalic.ttf
  4

  0
STYLE
  5
51
330
5
100
AcDbSymbolTableRecord
100
AcDbTextStyleTableRecord
  2
LiberationSans-Italic
 70
0
 40
0.0
 41
1.0
 50
0.0
 71
0
 42
2.5
  3
LiberationSans-Italic.ttf
  4

  0
STYLE
  5
52
330
5
100
AcDbSymbolTableRecord
100
AcDbTextStyleTableRecord
  2
LiberationSerif
 70
0
 40
0.0
 41
1.0
 50
0.0
 71
0
 42
2.5
  3
LiberationSerif-Regular.ttf
  4

  0
STYLE
  5
53
330
5
100
AcDbSymbolTableRecord
100
AcDbTextStyleTableRecord
  2
LiberationSerif-Bold
 70
0
 40
0.0
 41
1.0
 50
0.0
 71
0
 42
2.5
  3
LiberationSerif-Bold.ttf
  4

  0
STYLE
  5
54
330
5
100
AcDbSymbolTableRecord
100
AcDbTextStyleTableRecord
  2
LiberationSerif-BoldItalic
 70
0
 40
0.0
 41
1.0
 50
0.0
 71
0
 42
2.5
  3
LiberationSerif-BoldItalic.ttf
  4

  0
STYLE
  5
55
330
5
100
AcDbSymbolTableRecord
100
AcDbTextStyleTableRecord
  2
LiberationSerif-Italic
 70
0
 40
0.0
 41
1.0
 50
0.0
 71
0
 42
2.5
  3
LiberationSerif-Italic.ttf
  4

  0
STYLE
  5
56
330
5
100
AcDbSymbolTableRecord
100
AcDbTextStyleTableRecord
  2
LiberationMono
 70
0
 40
0.0
 41
1.0
 50
0.0
 71
0
 42
2.5
  3
LiberationMono-Regular.ttf
  4

  0
STYLE
  5
57
330
5
100
AcDbSymbolTableRecord
100
AcDbTextStyleTableRecord
  2
LiberationMono-Bold
 70
0
 40
0.0
 41
1.0
 50
0.0
 71
0
 42
2.5
  3
LiberationMono-Bold.ttf
  4

  0
STYLE
  5
58
330
5
100
AcDbSymbolTableRecord
100
AcDbTextStyleTableRecord
  2
LiberationMono-BoldItalic
 70
0
 40
0.0
 41
1.0
 50
0.0
 71
0
 42
2.5
  3
LiberationMono-BoldItalic.ttf
  4

  0
STYLE
  5
59
330
5
100
AcDbSymbolTableRecord
100
AcDbTextStyleTableRecord
  2
LiberationMono-Italic
 70
0
 40
0.0
 41
1.0
 50
0.0
 71
0
 42
2.5
  3
LiberationMono-Italic.ttf
  4

  0
ENDTAB
  0
TABLE
  2
VIEW
  5
7
330
0
100
AcDbSymbolTable
 70
0
  0
ENDTAB
  0
TABLE
  2
UCS
  5
6
330
0
100
AcDbSymbolTable
 70
0
  0
ENDTAB
  0
TABLE
  2
APPID
  5
3
330
0
100
AcDbSymbolTable
 70
3
  0
APPID
  5
2A
330
3
100
AcDbSymbolTableRecord
100
AcDbRegAppTableRecord
  2
ACAD
 70
0
  0
APPID
  5
24A
330
3
100
AcDbSymbolTableRecord
100
AcDbRegAppTableRecord
  2
HATCHBACKGROUNDCOLOR
 70
0
  0
APPID
  5
24B
330
3
100
AcDbSymbolTableRecord
100
AcDbRegAppTableRecord
  2
EZDXF
 70
0
  0
ENDTAB
  0
TABLE
  2
DIMSTYLE
  5
4
330
0
100
AcDbSymbolTable
 70
12
100
AcDbDimStyleTable
  0
DIMSTYLE
105
2B
330
4
100
AcDbSymbolTableRecord
100
AcDbDimStyleTableRecord
  2
Standard
 70
0
 40
1.0
 41
2.5
 42
0.625
 43
3.75
 44
1.25
 45
0.0
 46
0.0
 47
0.0
 48
0.0
 49
2.5
140
2.5
141
2.5
142
0.0
143
0.03937007874
144
1.0
145
0.0
146
1.0
147
0.625
148
0.0
 69
0
 70
0
 71
0
 72
0
 73
0
 74
0
 75
0
 76
0
 77
1
 78
8
 79
3
170
0
171
3
172
1
173
0
174
0
175
0
176
0
177
0
178
0
179
2
271
2
272
2
273
2
274
3
275
0
276
0
277
2
278
44
279
0
280
0
281
0
282
0
283
0
284
8
285
0
286
0
288
0
289
3
290
0
371
-2
372
-2
  0
DIMSTYLE
105
73
330
4
100
AcDbSymbolTableRecord
100
AcDbDimStyleTableRecord
  2
EZDXF
 70
0
 40
1.0
 41
0.175
 42
0.125
 43
3.75
 44
0.375
 45
0.0
 46
0.0
 47
0.0
 48
0.0
 49
2.5
140
0.25
141
2.5
142
0.0
143
0.03937007874
144
100.0
145
0.0
146
0.5
147
0.1
148
0.0
 69
0
 70
0
 71
0
 72
0
 73
0
 74
0
 75
0
 76
0
 77
1
 78
12
 79
3
170
0
171
3
172
1
173
0
174
0
175
0
176
0
177
0
178
0
179
2
271
2
272
2
273
2
274
3
275
0
276
0
277
2
278
46
279
2
280
0
281
0
282
0
283
0
284
8
285
0
286
0
288
1
289
3
290
0
340
4C
342
74
371
-2
372
-2
  0
DIMSTYLE
105
7C
330
4
100
AcDbSymbolTableRecord
100
AcDbDimStyleTableRecord
  2
EZ_M_100_H25_CM
 70
0
 40
1.0
 41
0.25
 42
0.125
 43
3.75
 44
0.375
 45
0.0
 46
0.0
 47
0.0
 48
0.0
 49
2.5
140
0.25
141
2.5
142
0.125
143
0.03937007874
144
100.0
145
0.0
146
0.5
147
0.1
148
0.0
 69
0
 70
0
 71
0
 72
0
 73
0
 74
0
 75
0
 76
0
 77
1
 78
12
 79
3
170
0
171
3
172
1
173
0
174
0
175
0
176
0
177
0
178
0
179
2
271
2
272
2
273
2
274
3
275
0
276
0
277
2
278
46
279
2
280
0
281
0
282
0
283
0
284
8
285
0
286
0
288
1
289
3
290
0
340
4C
371
-2
372
-2
  0
DIMSTYLE
105
7D
330
4
100
AcDbSymbolTableRecord
100
AcDbDimStyleTableRecord
  2
EZ_M_50_H25_CM
 70
0
 40
1.0
 41
0.125
 42
0.0625
 43
3.75
 44
0.1875
 45
0.0
 46
0.0
 47
0.0
 48
0.0
 49
2.5
140
0.125
141
2.5
142
0.0625
143
0.03937007874
144
100.0
145
0.0
146
0.5
147
0.05
148
0.0
 69
0
 70
0
 71
0
 72
0
 73
0
 74
0
 75
0
 76
0
 77
1
 78
12
 79
3
170
0
171
3
172
1
173
0
174
0
175
0
176
0
177
0
178
0
179
2
271
2
272
2
273
2
274
3
275
0
276
0
277
2
278
46
279
2
280
0
281
0
282
0
283
0
284
8
285
0
286
0
288
1
289
3
290
0
340
4C
371
-2
372
-2
  0
DIMSTYLE
105
7E
330
4
100
AcDbSymbolTableRecord
100
AcDbDimStyleTableRecord
  2
EZ_M_25_H25_CM
 70
0
 40
1.0
 41
0.0625
 42
0.03125
 43
3.75
 44
0.09375
 45
0.0
 46
0.0
 47
0.0
 48
0.0
 49
2.5
140
0.0625
141
2.5
142
0.03125
143
0.03937007874
144
100.0
145
0.0
146
0.5
147
0.025
148
0.0
 69
0
 70
0
 71
0
 72
0
 73
0
 74
0
 75
0
 76
0
 77
1
 78
12
 79
3
170
0
171
3
172
1
173
0
174
0
175
0
176
0
177
0
178
0
179
2
271
2
272
2
273
2
274
3
275
0
276
0
277
2
278
46
279
2
280
0
281
0
282
0
283
0
284
8
285
0
286
0
288
1
289
3
290
0
340
4C
371
-2
372
-2
  0
DIMSTYLE
105
7F
330
4
100
AcDbSymbolTableRecord
100
AcDbDimStyleTableRecord
  2
EZ_M_20_H25_CM
 70
0
 40
1.0
 41
0.05
 42
0.025
 43
3.75
 44
0.07500000000000001
 45
0.0
 46
0.0
 47
0.0
 48
0.0
 49
2.5
140
0.05
141
2.5
142
0.025
143
0.03937007874
144
100.0
145
0.0
146
0.5
147
0.020000000000000004
148
0.0
 69
0
 70
0
 71
0
 72
0
 73
0
 74
0
 75
0
 76
0
 77
1
 78
12
 79
3
170
0
171
3
172
1
173
0
174
0
175
0
176
0
177
0
178
0
179
2
271
2
272
2
273
2
274
3
275
0
276
0
277
2
278
46
279
2
280
0
281
0
282
0
283
0
284
8
285
0
286
0
288
1
289
3
290
0
340
4C
371
-2
372
-2
  0
DIMSTYLE
105
80
330
4
100
AcDbSymbolTableRecord
100
AcDbDimStyleTableRecord
  2
EZ_M_10_H25_CM
 70
0
 40
1.0
 41
0.025
 42
0.0125
 43
3.75
 44
0.037500000000000006
 45
0.0
 46
0.0
 47
0.0
 48
0.0
 49
2.5
140
0.025
141
2.5
142
0.0125
143
0.03937007874
144
100.0
145
0.0
146
0.5
147
0.010000000000000002
148
0.0
 69
0
 70
0
 71
0
 72
0
 73
0
 74
0
 75
0
 76
0
 77
1
 78
12
 79
3
170
0
171
3
172
1
173
0
174
0
175
0
176
0
177
0
178
0
179
2
271
2
272
2
273
2
274
3
275
0
276
0
277
2
278
46
279
2
280
0
281
0
282
0
283
0
284
8
285
0
286
0
288
1
289
3
290
0
340
4C
371
-2
372
-2
  0
DIMSTYLE
105
81
330
4
100
AcDbSymbolTableRecord
100
AcDbDimStyleTableRecord
  2
EZ_M_5_H25_CM
 70
0
 40
1.0
 41
0.0125
 42
0.00625
 43
3.75
 44
0.018750000000000003
 45
0.0
 46
0.0
 47
0.0
 48
0.0
 49
2.5
140
0.0125
141
2.5
142
0.00625
143
0.03937007874
144
100.0
145
0.0
146
0.5
147
0.005000000000000001
148
0.0
 69
0
 70
0
 71
0
 72
0
 73
0
 74
0
 75
0
 76
0
 77
1
 78
12
 79
3
170
0
171
3
172
1
173
0
174
0
175
0
176
0
177
0
178
0
179
2
271
2
272
2
273
2
274
3
275
0
276
0
277
2
278
46
279
2
280
0
281
0
282
0
283
0
284
8
285
0
286
0
288
1
289
3
290
0
340
4C
371
-2
372
-2
  0
DIMSTYLE
105
82
330
4
100
AcDbSymbolTableRecord
100
AcDbDimStyleTableRecord
  2
EZ_M_1_H25_CM
 70
0
 40
1.0
 41
0.0025
 42
0.00125
 43
3.75
 44
0.00375
 45
0.0
 46
0.0
 47
0.0
 48
0.0
 49
2.5
140
0.0025
141
2.5
142
0.00125
143
0.03937007874
144
100.0
145
0.0
146
0.5
147
0.001
148
0.0
 69
0
 70
0
 71
0
 72
0
 73
0
 74
0
 75
0
 76
0
 77
1
 78
12
 79
3
170
0
171
3
172
1
173
0
174
0
175
0
176
0
177
0
178
0
179
2
271
2
272
2
273
2
274
3
275
0
276
0
277
2
278
46
279
2
280
0
281
0
282
0
283
0
284
8
285
0
286
0
288
1
289
3
290
0
340
4C
371
-2
372
-2
  0
DIMSTYLE
105
83
330
4
100
AcDbSymbolTableRecord
100
AcDbDimStyleTableRecord
  2
EZ_RADIUS
 70
0
 40
1.0
 41
0.25
 42
0.125
 43
3.75
 44
0.375
 45
0.0
 46
0.0
 47
0.0
 48
0.0
 49
2.5
140
0.25
141
0.0
142
0.0
143
0.03937007874
144
100.0
145
0.0
146
0.5
147
0.1
148
0.0
 69
0
 70
0
 71
0
 72
0
 73
0
 74
0
 75
0
 76
0
 77
1
 78
12
 79
3
170
0
171
3
172
0
173
0
174
0
175
0
176
0
177
0
178
0
179
2
271
2
272
2
273
2
274
3
275
0
276
0
277
2
278
46
279
1
280
0
281
0
282
0
283
0
284
8
285
0
286
0
288
1
289
3
290
0
340
4C
342
84
371
-2
372
-2
  0
DIMSTYLE
105
88
330
4
100
AcDbSymbolTableRecord
100
AcDbDimStyleTableRecord
  2
EZ_RADIUS_INSIDE
 70
0
 40
1.0
 41
0.25
 42
0.125
 43
3.75
 44
0.375
 45
0.0
 46
0.0
 47
0.0
 48
0.0
 49
2.5
140
0.25
141
0.0
142
0.0
143
0.03937007874
144
100.0
145
0.0
146
0.5
147
0.1
148
0.0
 69
0
 70
0
 71
0
 72
0
 73
0
 74
0
 75
0
 76
0
 77
0
 78
12
 79
3
170
0
171
3
172
0
173
0
174
1
175
0
176
0
177
0
178
0
179
2
271
2
272
2
273
2
274
3
275
0
276
0
277
2
278
46
279
0
280
0
281
0
282
0
283
0
284
8
285
0
286
0
288
1
289
0
290
0
340
4C
342
84
371
-2
372
-2
  0
DIMSTYLE
105
89
330
4
100
AcDbSymbolTableRecord
100
AcDbDimStyleTableRecord
  2
EZ_CURVED
 70
0
 40
1.0
 41
0.25
 42
0.125
 43
3.75
 44
0.375
 45
0.0
 46
0.0
 47
0.0
 48
0.0
 49
2.5
140
0.25
141
2.5
142
0.0
143
0.03937007874
144
100.0
145
0.0
146
0.5
147
0.1
148
0.0
 69
0
 70
0
 71
0
 72
0
 73
0
 74
0
 75
0
 76
0
 77
1
 78
12
 79
2
 90
2
170
0
171
3
172
1
173
0
174
0
175
0
176
0
177
0
178
0
179
2
271
2
272
2
273
2
274
3
275
0
276
0
277
2
278
46
279
2
280
0
281
0
282
0
283
0
284
8
285
0
286
0
288
1
289
3
290
0
340
4C
371
-2
372
-2
  0
ENDTAB
  0
TABLE
  2
BLOCK_RECORD
  5
9
330
0
100
AcDbSymbolTable
 70
9
  0
BLOCK_RECORD
  5
17
330
9
100
AcDbSymbolTableRecord
100
AcDbBlockTableRecord
  2
*Model_Space
340
1A
 70
0
280
1
281
0
  0
BLOCK_RECORD
  5
1B
330
9
100
AcDbSymbolTableRecord
100
AcDbBlockTableRecord
  2
*Paper_Space
340
1E
 70
0
280
1
281
0
  0
BLOCK_RECORD
  5
74
330
9
100
AcDbSymbolTableRecord
100
AcDbBlockTableRecord
  2
_ARCHTICK
340
0
 70
0
280
1
281
0
  0
BLOCK_RECORD
  5
78
330
9
100
AcDbSymbolTableRecord
100
AcDbBlockTableRecord
  2
_CLOSEDFILLED
340
0
 70
0
280
1
281
0
  0
BLOCK_RECORD
  5
84
330
9
100
AcDbSymbolTableRecord
100
AcDbBlockTableRecord
  2
_CLOSEDBLANK
340
0
 70
0
280
1
281
0
  0
BLOCK_RECORD
  5
20A
330
9
100
AcDbSymbolTableRecord
100
AcDbBlockTableRecord
  2
*D1
340
0
 70
0
280
1
281
0
  0
BLOCK_RECORD
  5
21A
330
9
100
AcDbSymbolTableRecord
100
AcDbBlockTableRecord
  2
*D2
340
0
 70
0
280
1
281
0
  0
BLOCK_RECORD
  5
22A
330
9
100
AcDbSymbolTableRecord
100
AcDbBlockTableRecord
  2
*D3
340
0
 70
0
280
1
281
0
  0
BLOCK_RECORD
  5
23A
330
9
100
AcDbSymbolTableRecord
100
AcDbBlockTableRecord
  2
*D4
340
0
 70
0
280
1
281
0
  0
ENDTAB
  0
ENDSEC
  0
SECTION
  2
BLOCKS
  0
BLOCK
  5
18
330
17
100
AcDbEntity
  8
0
100
AcDbBlockBegin
  2
*Model_Space
 70
0
 10
0.0
 20
0.0
 30
0.0
  3
*Model_Space
  1

  0
ENDBLK
  5
19
330
17
100
AcDbEntity
  8
0
100
AcDbBlockEnd
  0
BLOCK
  5
1C
330
1B
100
AcDbEntity
  8
0
100
AcDbBlockBegin
  2
*Paper_Space
 70
0
 10
0.0
 20
0.0
 30
0.0
  3
*Paper_Space
  1

  0
ENDBLK
  5
1D
330
1B
100
AcDbEntity
  8
0
100
AcDbBlockEnd
  0
BLOCK
  5
75
330
74
100
AcDbEntity
  8
0
100
AcDbBlockBegin
  2
_ARCHTICK
 70
0
 10
0.0
 20
0.0
 30
0.0
  3
_ARCHTICK
  1

  0
LWPOLYLINE
  5
77
330
74
100
AcDbEntity
  8
0
  6
BYBLOCK
 62
0
100
AcDbPolyline
 90
2
 70
0
 43
0.15
 10
-0.5
 20
-0.5
 10
0.5
 20
0.5
  0
ENDBLK
  5
76
330
74
100
AcDbEntity
  8
0
100
AcDbBlockEnd
  0
BLOCK
  5
79
330
78
100
AcDbEntity
  8
0
100
AcDbBlockBegin
  2
_CLOSEDFILLED
 70
0
 10
0.0
 20
0.0
 30
0.0
  3
_CLOSEDFILLED
  1

  0
SOLID
  5
7B
330
78
100
AcDbEntity
  8
0
  6
BYBLOCK
 62
0
100
AcDbTrace
 10
-1.0
 20
0.16439898372402537
 30
0.0
 11
0.0
 21
0.0
 31
0.0
 12
-1.0
 22
-0.16439898372402537
 32
0.0
 13
-1.0
 23
-0.16439898372402537
 33
0.0
  0
ENDBLK
  5
7A
330
78
100
AcDbEntity
  8
0
100
AcDbBlockEnd
  0
BLOCK
  5
85
330
84
100
AcDbEntity
  8
0
100
AcDbBlockBegin
  2
_CLOSEDBLANK
 70
0
 10
0.0
 20
0.0
 30
0.0
  3
_CLOSEDBLANK
  1

  0
LWPOLYLINE
  5
87
330
84
100
AcDbEntity
  8
0
  6
BYBLOCK
 62
0
100
AcDbPolyline
 90
3
 70
1
 10
-1.0
 20
0.16439898372402537
 10
0.0
 20
0.0
 10
-1.0
 20
-0.16439898372402537
  0
ENDBLK
  5
86
330
84
100
AcDbEntity
  8
0
100
AcDbBlockEnd
  0
BLOCK
  5
20B
330
20A
100
AcDbEntity
  8
0
100
AcDbBlockBegin
  2
*D1
 70
1
 10
0.0
 20
0.0
 30
0.0
  3
*D1
  1

  0
LINE
  5
20D
330
20A
100
AcDbEntity
  8
0
100
AcDbLine
 10
426734.0
 20
1579153.125
 30
0.0
 11
426734.0
 21
1579165.375
 31
0.0
  0
LINE
  5
20E
330
20A
100
AcDbEntity
  8
0
100
AcDbLine
 10
426784.0
 20
1579153.125
 30
0.0
 11
426784.0
 21
1579165.375
 31
0.0
  0
INSERT
  5
20F
330
20A
100
AcDbEntity
  8
G-ANNO-DIMS
100
AcDbBlockReference
  2
_ARCHTICK
 10
426734.0
 20
1579165.0
 30
0.0
 41
3.0
 42
3.0
 50
180.0
  0
INSERT
  5
211
330
20A
100
AcDbEntity
  8
G-ANNO-DIMS
100
AcDbBlockReference
  2
_ARCHTICK
 10
426784.0
 20
1579165.0
 30
0.0
 41
3.0
 42
3.0
  0
LINE
  5
213
330
20A
100
AcDbEntity
  8
0
100
AcDbLine
 10
426734.0
 20
1579165.0
 30
0.0
 11
426784.0
 21
1579165.0
 31
0.0
  0
MTEXT
  5
214
330
20A
100
AcDbEntity
  8
G-ANNO-DIMS
100
AcDbMText
 10
426759.0
 20
1579167.1
 30
0.0
 40
4.0
 71
5
  1
5000
  7
OpenSansCondensed-Light
  0
POINT
  5
215
330
20A
100
AcDbEntity
  8
Defpoints
100
AcDbPoint
 10
426734.0
 20
1579165.0
 30
0.0
  0
POINT
  5
216
330
20A
100
AcDbEntity
  8
Defpoints
100
AcDbPoint
 10
426734.0
 20
1579153.0
 30
0.0
  0
POINT
  5
217
330
20A
100
AcDbEntity
  8
Defpoints
100
AcDbPoint
 10
426784.0
 20
1579153.0
 30
0.0
  0
ENDBLK
  5
20C
330
20A
100
AcDbEntity
  8
0
100
AcDbBlockEnd
  0
BLOCK
  5
21B
330
21A
100
AcDbEntity
  8
0
100
AcDbBlockBegin
  2
*D2
 70
1
 10
0.0
 20
0.0
 30
0.0
  3
*D2
  1

  0
LINE
  5
21D
330
21A
100
AcDbEntity
  8
0
100
AcDbLine
 10
426784.0
 20
1579153.125
 30
0.0
 11
426784.0
 21
1579177.375
 31
0.0
  0
LINE
  5
21E
330
21A
100
AcDbEntity
  8
0
100
AcDbLine
 10
426984.0
 20
1579153.125
 30
0.0
 11
426984.0
 21
1579177.375
 31
0.0
  0
INSERT
  5
21F
330
21A
100
AcDbEntity
  8
G-ANNO-DIMS
100
AcDbBlockReference
  2
_ARCHTICK
 10
426784.0
 20
1579177.0
 30
0.0
 41
3.0
 42
3.0
 50
180.0
  0
INSERT
  5
221
330
21A
100
AcDbEntity
  8
G-ANNO-DIMS
100
AcDbBlockReference
  2
_ARCHTICK
 10
426984.0
 20
1579177.0
 30
0.0
 41
3.0
 42
3.0
  0
LINE
  5
223
330
21A
100
AcDbEntity
  8
0
100
AcDbLine
 10
426784.0
 20
1579177.0
 30
0.0
 11
426984.0
 21
1579177.0
 31
0.0
  0
MTEXT
  5
224
330
21A
100
AcDbEntity
  8
G-ANNO-DIMS
100
AcDbMText
 10
426884.0
 20
1579179.1
 30
0.0
 40
4.0
 71
5
  1
20000
  7
OpenSansCondensed-Light
  0
POINT
  5
225
330
21A
100
AcDbEntity
  8
Defpoints
100
AcDbPoint
 10
426784.0
 20
1579177.0
 30
0.0
  0
POINT
  5
226
330
21A
100
AcDbEntity
  8
Defpoints
100
AcDbPoint
 10
426784.0
 20
1579153.0
 30
0.0
  0
POINT
  5
227
330
21A
100
AcDbEntity
  8
Defpoints
100
AcDbPoint
 10
426984.0
 20
1579153.0
 30
0.0
  0
ENDBLK
  5
21C
330
21A
100
AcDbEntity
  8
0
100
AcDbBlockEnd
  0
BLOCK
  5
22B
330
22A
100
AcDbEntity
  8
0
100
AcDbBlockBegin
  2
*D3
 70
1
 10
0.0
 20
0.0
 30
0.0
  3
*D3
  1

  0
LINE
  5
22D
330
22A
100
AcDbEntity
  8
0
100
AcDbLine
 10
426638.45621553675
 20
1579442.0183716784
 30
0.0
 11
426639.1749696489
 21
1579473.2601048655
 31
0.0
  0
LINE
  5
22E
330
22A
100
AcDbEntity
  8
0
100
AcDbLine
 10
426673.4469567062
 20
1579441.2133670729
 30
0.0
 11
426674.1657108183
 21
1579472.45510026
 31
0.0
  0
INSERT
  5
22F
330
22A
100
AcDbEntity
  8
G-ANNO-DIMS
100
AcDbBlockReference
  2
_ARCHTICK
 10
426639.16634459957
 20
1579472.8852040672
 30
0.0
 41
3.0
 42
3.0
 50
178.6820733158456
  0
INSERT
  5
231
330
22A
100
AcDbEntity
  8
G-ANNO-DIMS
100
AcDbBlockReference
  2
_ARCHTICK
 10
426674.157085769
 20
1579472.0801994617
 30
0.0
 41
3.0
 42
3.0
 50
-1.3179266841544037
  0
LINE
  5
233
330
22A
100
AcDbEntity
  8
0
100
AcDbLine
 10
426639.16634459957
 20
1579472.8852040672
 30
0.0
 11
426674.157085769
 21
1579472.0801994617
 31
0.0
  0
MTEXT
  5
234
330
22A
100
AcDbEntity
  8
G-ANNO-DIMS
100
AcDbMText
 10
426656.7100154606
 20
1579474.5821462346
 30
0.0
 40
4.0
 71
5
  1
3500
  7
OpenSansCondensed-Light
 50
-1.3179266841544037
  0
POINT
  5
235
330
22A
100
AcDbEntity
  8
Defpoints
100
AcDbPoint
 10
426639.16634459957
 20
1579472.8852040672
 30
0.0
  0
POINT
  5
236
330
22A
100
AcDbEntity
  8
Defpoints
100
AcDbPoint
 10
426638.4533405203
 20
1579441.8934047457
 30
0.0
  0
POINT
  5
237
330
22A
100
AcDbEntity
  8
Defpoints
100
AcDbPoint
 10
426673.44408168975
 20
1579441.0884001402
 30
0.0
  0
ENDBLK
  5
22C
330
22A
100
AcDbEntity
  8
0
100
AcDbBlockEnd
  0
BLOCK
  5
23B
330
23A
100
AcDbEntity
  8
0
100
AcDbBlockBegin
  2
*D4
 70
1
 10
0.0
 20
0.0
 30
0.0
  3
*D4
  1

  0
LINE
  5
23D
330
23A
100
AcDbEntity
  8
0
100
AcDbLine
 10
426655.24874088244
 20
1579416.5003909098
 30
0.0
 11
426631.5050236603
 21
1579417.046644036
 31
0.0
  0
LINE
  5
23E
330
23A
100
AcDbEntity
  8
0
100
AcDbLine
 10
426656.39874746214
 20
1579466.4871640091
 30
0.0
 11
426632.65503024
 21
1579467.0334171357
 31
0.0
  0
INSERT
  5
23F
330
23A
100
AcDbEntity
  8
G-ANNO-DIMS
100
AcDbBlockReference
  2
_ARCHTICK
 10
426631.87992445857
 20
1579417.0380189866
 30
0.0
 41
3.0
 42
3.0
 50
268.68207331546716
  0
INSERT
  5
241
330
23A
100
AcDbEntity
  8
G-ANNO-DIMS
100
AcDbBlockReference
  2
_ARCHTICK
 10
426633.02993103827
 20
1579467.0247920863
 30
0.0
 41
3.0
 42
3.0
 50
88.68207331546718
  0
LINE
  5
243
330
23A
100
AcDbEntity
  8
0
100
AcDbLine
 10
426631.87992445857
 20
1579417.0380189866
 30
0.0
 11
426633.02993103827
 21
1579467.0247920863
 31
0.0
  0
MTEXT
  5
244
330
23A
100
AcDbEntity
  8
G-ANNO-DIMS
100
AcDbMText
 10
426630.3554832782
 20
1579442.0797058127
 30
0.0
 40
4.0
 71
5
  1
5000
  7
OpenSansCondensed-Light
 50
88.68207331546718
  0
POINT
  5
245
330
23A
100
AcDbEntity
  8
Defpoints
100
AcDbPoint
 10
426631.87992445857
 20
1579417.0380189866
 30
0.0
  0
POINT
  5
246
330
23A
100
AcDbEntity
  8
Defpoints
100
AcDbPoint
 10
426655.3737078152
 20
1579416.4975158933
 30
0.0
  0
POINT
  5
247
330
23A
100
AcDbEntity
  8
Defpoints
100
AcDbPoint
 10
426656.5237143949
 20
1579466.4842889926
 30
0.0
  0
ENDBLK
  5
23C
330
23A
100
AcDbEntity
  8
0
100
AcDbBlockEnd
  0
ENDSEC
  0
SECTION
  2
ENTITIES
  0
LWPOLYLINE
  5
98
330
17
100
AcDbEntity
  8
C-WATR-LAKE
100
AcDbPolyline
 90
109
 70
1
 10
426633.0
 20
1579048.0
 10
426631.0
 20
1579046.0
 10
426619.0
 20
1579052.0
 10
426611.0
 20
1579060.0
 10
426607.0
 20
1579056.0
 10
426602.0
 20
1579061.0
 10
426604.0
 20
1579065.0
 10
426597.0
 20
1579072.0
 10
426591.0
 20
1579072.0
 10
426583.0
 20
1579064.0
 10
426579.0
 20
1579068.0
 10
426575.0
 20
1579066.0
 10
426569.0
 20
1579068.0
 10
426559.0
 20
1579076.0
 10
426547.0
 20
1579070.0
 10
426541.0
 20
1579076.0
 10
426527.0
 20
1579072.0
 10
426507.0
 20
1579090.0
 10
426501.0
 20
1579088.0
 10
426491.0
 20
1579096.0
 10
426478.0
 20
1579113.0
 10
426482.0
 20
1579119.0
 10
426478.0
 20
1579129.0
 10
426482.0
 20
1579135.0
 10
426476.0
 20
1579141.0
 10
426476.0
 20
1579145.0
 10
426484.0
 20
1579155.0
 10
426472.0
 20
1579167.0
 10
426480.0
 20
1579177.0
 10
426472.0
 20
1579185.0
 10
426474.0
 20
1579189.0
 10
426466.0
 20
1579197.0
 10
426466.0
 20
1579201.0
 10
426472.0
 20
1579207.0
 10
426468.0
 20
1579215.0
 10
426472.0
 20
1579219.0
 10
426470.0
 20
1579221.0
 10
426472.0
 20
1579225.0
 10
426466.0
 20
1579233.0
 10
426480.0
 20
1579247.0
 10
426484.0
 20
1579259.0
 10
426503.0
 20
1579278.0
 10
426513.0
 20
1579268.0
 10
426525.0
 20
1579280.0
 10
426533.0
 20
1579274.0
 10
426543.0
 20
1579280.0
 10
426551.0
 20
1579276.0
 10
426561.0
 20
1579286.0
 10
426565.0
 20
1579284.0
 10
426575.0
 20
1579294.0
 10
426579.0
 20
1579292.0
 10
426583.0
 20
1579294.0
 10
426595.0
 20
1579304.0
 10
426609.0
 20
1579288.0
 10
426617.0
 20
1579294.0
 10
426627.0
 20
1579292.0
 10
426631.0
 20
1579296.0
 10
426639.0
 20
1579296.0
 10
426641.0
 20
1579294.0
 10
426645.0
 20
1579298.0
 10
426653.0
 20
1579296.0
 10
426657.0
 20
1579298.0
 10
426667.0
 20
1579290.0
 10
426669.0
 20
1579292.0
 10
426675.0
 20
1579290.0
 10
426679.0
 20
1579292.0
 10
426693.0
 20
1579280.0
 10
426695.0
 20
1579282.0
 10
426704.0
 20
1579275.0
 10
426694.0
 20
1579265.0
 10
426700.0
 20
1579259.0
 10
426696.0
 20
1579247.0
 10
426702.0
 20
1579237.0
 10
426698.0
 20
1579233.0
 10
426710.0
 20
1579221.0
 10
426712.0
 20
1579207.0
 10
426716.0
 20
1579199.0
 10
426714.0
 20
1579191.0
 10
426730.0
 20
1579179.0
 10
426730.0
 20
1579171.0
 10
426726.0
 20
1579167.0
 10
426726.0
 20
1579161.0
 10
426734.0
 20
1579153.0
 10
426728.0
 20
1579147.0
 10
426734.0
 20
1579139.0
 10
426729.0
 20
1579134.0
 10
426723.0
 20
1579136.0
 10
426710.0
 20
1579123.0
 10
426712.0
 20
1579121.0
 10
426707.0
 20
1579116.0
 10
426697.0
 20
1579126.0
 10
426695.0
 20
1579124.0
 10
426685.0
 20
1579130.0
 10
426673.0
 20
1579116.0
 10
426671.0
 20
1579118.0
 10
426664.0
 20
1579111.0
 10
426668.0
 20
1579107.0
 10
426666.0
 20
1579103.0
 10
426670.0
 20
1579097.0
 10
426668.0
 20
1579093.0
 10
426676.0
 20
1579083.0
 10
426667.0
 20
1579072.0
 10
426663.0
 20
1579072.0
 10
426657.0
 20
1579066.0
 10
426653.0
 20
1579068.0
 10
426644.0
 20
1579059.0
 10
426648.0
 20
1579051.0
 10
426641.0
 20
1579042.0
 10
426633.0
 20
1579048.0
  0
LWPOLYLINE
  5
99
330
17
100
AcDbEntity
  8
C-ROAD-LOOP
100
AcDbPolyline
 90
35
 70
0
 10
426927.49981409905
 20
1578982.6987471478
 10
426891.73320031224
 20
1578986.258251335
 10
426858.40160862316
 20
1579000.1664664894
 10
426842.599558033
 20
1579006.7699695032
 10
426837.3588201388
 20
1578993.7836493473
 10
426821.7372154693
 20
1578971.6234831344
 10
426802.0102826952
 20
1578960.0693527968
 10
426748.14500100724
 20
1578940.1746349116
 10
426683.94996494055
 20
1578919.6510210047
 10
426653.6118270104
 20
1578914.014903391
 10
426605.7120886884
 20
1578915.6838436995
 10
426545.8858167992
 20
1578933.860143469
 10
426477.4890054188
 20
1578961.3239862807
 10
426435.2747940391
 20
1578985.9400265713
 10
426410.5988154648
 20
1579010.050877435
 10
426389.7986172645
 20
1579044.101763576
 10
426374.88612211694
 20
1579086.698834816
 10
426362.743844516
 20
1579131.3519386011
 10
426359.5595482192
 20
1579172.4968544475
 10
426369.6023012685
 20
1579237.525157024
 10
426388.95089297555
 20
1579303.588480095
 10
426402.8471367612
 20
1579326.7769759065
 10
426428.46555259934
 20
1579347.5315801257
 10
426465.0738270575
 20
1579361.3841422084
 10
426507.8641596946
 20
1579374.0724210439
 10
426568.2596669434
 20
1579381.418985095
 10
426616.4932045033
 20
1579387.3840709715
 10
426687.03242915584
 20
1579385.7612302215
 10
426735.68941009825
 20
1579382.124272221
 10
426768.3208624272
 20
1579363.8202916102
 10
426790.8335495763
 20
1579337.2499903287
 10
426803.4454416172
 20
1579295.97591281
 10
426814.31474543555
 20
1579242.1672774686
 10
426825.611426695
 20
1579163.3388073903
 10
426846.62295546004
 20
1579030.6722785113
  0
LWPOLYLINE
  5
9A
330
17
100
AcDbEntity
  8
C-ROAD-EDGE
100
AcDbPolyline
 90
35
 70
0
 10
426927.49981409905
 20
1578982.6987471478
 10
426891.73320031224
 20
1578986.258251335
 10
426858.40160862316
 20
1579000.1664664894
 10
426842.599558033
 20
1579006.7699695032
 10
426837.3588201388
 20
1578993.7836493473
 10
426821.7372154693
 20
1578971.6234831344
 10
426802.0102826952
 20
1578960.0693527968
 10
426748.14500100724
 20
1578940.1746349116
 10
426683.94996494055
 20
1578919.6510210047
 10
426653.6118270104
 20
1578914.014903391
 10
426605.7120886884
 20
1578915.6838436995
 10
426545.8858167992
 20
1578933.860143469
 10
426477.4890054188
 20
1578961.3239862807
 10
426435.2747940391
 20
1578985.9400265713
 10
426410.5988154648
 20
1579010.050877435
 10
426389.7986172645
 20
1579044.101763576
 10
426374.88612211694
 20
1579086.698834816
 10
426362.743844516
 20
1579131.3519386011
 10
426359.5595482192
 20
1579172.4968544475
 10
426369.6023012685
 20
1579237.525157024
 10
426388.95089297555
 20
1579303.588480095
 10
426402.8471367612
 20
1579326.7769759065
 10
426428.46555259934
 20
1579347.5315801257
 10
426465.0738270575
 20
1579361.3841422084
 10
426507.8641596946
 20
1579374.0724210439
 10
426568.2596669434
 20
1579381.418985095
 10
426616.4932045033
 20
1579387.3840709715
 10
426687.03242915584
 20
1579385.7612302215
 10
426735.68941009825
 20
1579382.124272221
 10
426768.3208624272
 20
1579363.8202916102
 10
426790.8335495763
 20
1579337.2499903287
 10
426803.4454416172
 20
1579295.97591281
 10
426814.31474543555
 20
1579242.1672774686
 10
426825.611426695
 20
1579163.3388073903
 10
426846.62295546004
 20
1579030.6722785113
  0
LWPOLYLINE
  5
9B
330
17
100
AcDbEntity
  8
C-ROAD-EXST
100
AcDbPolyline
 90
6
 70
0
 10
426193.47971209645
 20
1579454.0182855322
 10
426348.3498508822
 20
1579452.626876899
 10
426379.23361933674
 20
1579458.404918349
 10
426478.759530448
 20
1579488.461126028
 10
426507.0408471241
 20
1579493.4185493842
 10
426558.0193228888
 20
1579497.2580765004
  0
LWPOLYLINE
  5
9C
330
17
100
AcDbEntity
  8
C-ROAD-EXST
100
AcDbPolyline
 90
6
 70
0
 10
426558.0193228888
 20
1579497.2580765004
 10
426579.8674866177
 20
1579498.9451643
 10
426633.010312224
 20
1579505.4262618267
 10
426676.76655948424
 20
1579518.7998176285
 10
426728.12059059896
 20
1579526.4553636035
 10
426774.2563079035
 20
1579530.2151134582
  0
LWPOLYLINE
  5
9D
330
17
100
AcDbEntity
  8
C-ROAD-EXST
100
AcDbPolyline
 90
2
 70
0
 10
426937.8297193357
 20
1578850.3024356246
 10
426881.2409236814
 20
1578829.9631106767
  0
LWPOLYLINE
  5
9E
330
17
100
AcDbEntity
  8
C-ROAD-EXST
100
AcDbPolyline
 90
12
 70
0
 10
426881.2409236814
 20
1578829.9631106767
 10
426853.78818420635
 20
1578840.272612258
 10
426827.3676329861
 20
1578835.521950545
 10
426754.1426389904
 20
1578817.2340465551
 10
426738.9782776677
 20
1578807.1798259185
 10
426728.7343658602
 20
1578794.114414115
 10
426728.2552117529
 20
1578778.372400203
 10
426734.97259146423
 20
1578764.8417249986
 10
426748.85422632616
 20
1578753.4862235123
 10
426767.29131534725
 20
1578747.7759547182
 10
426797.0973226683
 20
1578750.2154687617
 10
426866.9680804707
 20
1578774.8324958128
  0
LWPOLYLINE
  5
9F
330
17
100
AcDbEntity
  8
C-ROAD-EXST
100
AcDbPolyline
 90
2
 70
0
 10
426871.9776832446
 20
1578779.187377167
 10
426879.90757463954
 20
1578794.7360091903
  0
LWPOLYLINE
  5
A0
330
17
100
AcDbEntity
  8
C-ROAD-EXST
100
AcDbPolyline
 90
2
 70
0
 10
426879.90757463954
 20
1578794.7360091903
 10
426881.2409236814
 20
1578829.9631106767
  0
LWPOLYLINE
  5
A1
330
17
100
AcDbEntity
  8
C-ROAD-EXST
100
AcDbPolyline
 90
7
 70
0
 10
426944.2750576705
 20
1578858.1767770145
 10
426932.8378358847
 20
1578920.887205746
 10
426927.49981409905
 20
1578982.6987471478
 10
426920.1504995228
 20
1579067.430596634
 10
426922.404420947
 20
1579154.6503105515
 10
426912.5600548478
 20
1579358.229186098
 10
426886.98103289335
 20
1579477.8689737364
  0
LWPOLYLINE
  5
A2
330
17
100
AcDbEntity
  8
C-ROAD-EXST
100
AcDbPolyline
 90
4
 70
0
 10
426886.98103289335
 20
1579477.8689737364
 10
426835.0801276376
 20
1579491.3430033224
 10
426784.38558215863
 20
1579502.773585657
 10
426774.2563079035
 20
1579530.2151134582
  0
LWPOLYLINE
  5
A3
330
17
100
AcDbEntity
  8
C-ROAD-EXST
100
AcDbPolyline
 90
2
 70
0
 10
426774.2563079035
 20
1579530.2151134582
 10
426750.4486100428
 20
1579635.0949347776
  0
LWPOLYLINE
  5
A4
330
17
100
AcDbEntity
  8
C-ROAD-EXST
100
AcDbPolyline
 90
2
 70
0
 10
426846.62295546004
 20
1579030.6722785113
 10
426842.599558033
 20
1579006.7699695032
  0
LWPOLYLINE
  5
A5
330
17
100
AcDbEntity
  8
C-ROAD-EXST
100
AcDbPolyline
 90
5
 70
0
 10
426558.0193228888
 20
1579497.2580765004
 10
426539.06463997683
 20
1579609.0768644447
 10
426548.8832587494
 20
1579620.7630078678
 10
426574.7042773301
 20
1579637.9166185702
 10
426586.7243694797
 20
1579653.790814424
  0
LWPOLYLINE
  5
A6
330
17
100
AcDbEntity
  8
C-ROAD-EXST
100
AcDbPolyline
 90
2
 70
0
 10
426931.8475975372
 20
1579540.270239695
 10
426886.98103289335
 20
1579477.8689737364
  0
LWPOLYLINE
  5
A7
330
17
100
AcDbEntity
  8
A-BLDG-EXST
100
AcDbPolyline
 90
5
 70
1
 10
426854.2183307181
 20
1579447.484483023
 10
426858.8695371824
 20
1579420.9484864434
 10
426832.16165754444
 20
1579416.3450010351
 10
426827.54253534984
 20
1579442.8808090806
 10
426854.2183307181
 20
1579447.484483023
  0
LWPOLYLINE
  5
A8
330
17
100
AcDbEntity
  8
A-BLDG-EXST
100
AcDbPolyline
 90
5
 70
1
 10
426327.45387592056
 20
1579513.4047073168
 10
426309.70069689234
 20
1579483.4032741985
 10
426278.92788382625
 20
1579501.4419576265
 10
426296.6487946727
 20
1579531.4072085137
 10
426327.45387592056
 20
1579513.4047073168
  0
LWPOLYLINE
  5
A9
330
17
100
AcDbEntity
  8
A-BLDG-EXST
100
AcDbPolyline
 90
5
 70
1
 10
426286.34179706796
 20
1579214.0985815378
 10
426243.8305182342
 20
1579215.881079938
 10
426245.6974223937
 20
1579259.759213023
 10
426288.2086524798
 20
1579257.9767156867
 10
426286.34179706796
 20
1579214.0985815378
  0
CIRCLE
  5
AA
330
17
100
AcDbEntity
  8
L-PLNT-TREE-EXST
100
AcDbCircle
 10
426684.5
 20
1578768.5
 30
0.0
 40
14.6735
  0
CIRCLE
  5
AB
330
17
100
AcDbEntity
  8
L-PLNT-TREE-EXST
100
AcDbCircle
 10
426559.5
 20
1578776.5
 30
0.0
 40
17.68225
  0
CIRCLE
  5
AC
330
17
100
AcDbEntity
  8
L-PLNT-TREE-EXST
100
AcDbCircle
 10
426629.5
 20
1578778.5
 30
0.0
 40
4.246
  0
CIRCLE
  5
AD
330
17
100
AcDbEntity
  8
L-PLNT-TREE-EXST
100
AcDbCircle
 10
426713.5
 20
1578780.5
 30
0.0
 40
18.88525
  0
CIRCLE
  5
AE
330
17
100
AcDbEntity
  8
L-PLNT-TREE-EXST
100
AcDbCircle
 10
426583.5
 20
1578782.5
 30
0.0
 40
18.324749999999998
  0
CIRCLE
  5
AF
330
17
100
AcDbEntity
  8
L-PLNT-TREE-EXST
100
AcDbCircle
 10
426696.5
 20
1578785.5
 30
0.0
 40
21.101
  0
CIRCLE
  5
B0
330
17
100
AcDbEntity
  8
L-PLNT-TREE-EXST
100
AcDbCircle
 10
426692.5
 20
1578798.5
 30
0.0
 40
19.936999999999998
  0
CIRCLE
  5
B1
330
17
100
AcDbEntity
  8
L-PLNT-TREE-EXST
100
AcDbCircle
 10
426760.5
 20
1578798.5
 30
0.0
 40
5.702999999999999
  0
CIRCLE
  5
B2
330
17
100
AcDbEntity
  8
L-PLNT-TREE-EXST
100
AcDbCircle
 10
426678.5
 20
1578803.5
 30
0.0
 40
19.523
  0
CIRCLE
  5
B3
330
17
100
AcDbEntity
  8
L-PLNT-TREE-EXST
100
AcDbCircle
 10
426633.5
 20
1578806.5
 30
0.0
 40
4.9745
  0
CIRCLE
  5
B4
330
17
100
AcDbEntity
  8
L-PLNT-TREE-EXST
100
AcDbCircle
 10
426592.5
 20
1578812.5
 30
0.0
 40
8.5135
  0
CIRCLE
  5
B5
330
17
100
AcDbEntity
  8
L-PLNT-TREE-EXST
100
AcDbCircle
 10
426401.5
 20
1578823.5
 30
0.0
 40
13.22925
  0
CIRCLE
  5
B6
330
17
100
AcDbEntity
  8
L-PLNT-TREE-EXST
100
AcDbCircle
 10
426571.5
 20
1578826.5
 30
0.0
 40
16.30725
  0
CIRCLE
  5
B7
330
17
100
AcDbEntity
  8
L-PLNT-TREE-EXST
100
AcDbCircle
 10
426674.5
 20
1578828.5
 30
0.0
 40
18.3375
  0
CIRCLE
  5
B8
330
17
100
AcDbEntity
  8
L-PLNT-TREE-EXST
100
AcDbCircle
 10
426710.5
 20
1578828.5
 30
0.0
 40
17.61775
  0
CIRCLE
  5
B9
330
17
100
AcDbEntity
  8
L-PLNT-TREE-EXST
100
AcDbCircle
 10
426636.5
 20
1578829.5
 30
0.0
 40
4.0
  0
CIRCLE
  5
BA
330
17
100
AcDbEntity
  8
L-PLNT-TREE-EXST
100
AcDbCircle
 10
426590.5
 20
1578837.5
 30
0.0
 40
15.475249999999999
  0
CIRCLE
  5
BB
330
17
100
AcDbEntity
  8
L-PLNT-TREE-EXST
100
AcDbCircle
 10
426753.5
 20
1578844.5
 30
0.0
 40
15.527000000000001
  0
CIRCLE
  5
BC
330
17
100
AcDbEntity
  8
L-PLNT-TREE-EXST
100
AcDbCircle
 10
426405.5
 20
1578847.5
 30
0.0
 40
14.052499999999998
  0
CIRCLE
  5
BD
330
17
100
AcDbEntity
  8
L-PLNT-TREE-EXST
100
AcDbCircle
 10
426482.5
 20
1578850.5
 30
0.0
 40
4.746
  0
CIRCLE
  5
BE
330
17
100
AcDbEntity
  8
L-PLNT-TREE-EXST
100
AcDbCircle
 10
426690.5
 20
1578852.5
 30
0.0
 40
7.91
  0
CIRCLE
  5
BF
330
17
100
AcDbEntity
  8
L-PLNT-TREE-EXST
100
AcDbCircle
 10
426557.5
 20
1578854.5
 30
0.0
 40
11.186250000000001
  0
CIRCLE
  5
C0
330
17
100
AcDbEntity
  8
L-PLNT-TREE-EXST
100
AcDbCircle
 10
426512.5
 20
1578857.5
 30
0.0
 40
15.1345
  0
CIRCLE
  5
C1
330
17
100
AcDbEntity
  8
L-PLNT-TREE-EXST
100
AcDbCircle
 10
426460.5
 20
1578859.5
 30
0.0
 40
4.496
  0
CIRCLE
  5
C2
330
17
100
AcDbEntity
  8
L-PLNT-TREE-EXST
100
AcDbCircle
 10
426804.5
 20
1578860.5
 30
0.0
 40
13.51825
  0
CIRCLE
  5
C3
330
17
100
AcDbEntity
  8
L-PLNT-TREE-EXST
100
AcDbCircle
 10
426815.5
 20
1578860.5
 30
0.0
 40
16.03575
  0
CIRCLE
  5
C4
330
17
100
AcDbEntity
  8
L-PLNT-TREE-EXST
100
AcDbCircle
 10
426375.5
 20
1578862.5
 30
0.0
 40
15.1345
  0
CIRCLE
  5
C5
330
17
100
AcDbEntity
  8
L-PLNT-TREE-EXST
100
AcDbCircle
 10
426530.5
 20
1578864.5
 30
0.0
 40
15.518249999999998
  0
CIRCLE
  5
C6
330
17
100
AcDbEntity
  8
L-PLNT-TREE-EXST
100
AcDbCircle
 10
426405.5
 20
1578866.5
 30
0.0
 40
10.035
  0
CIRCLE
  5
C7
330
17
100
AcDbEntity
  8
L-PLNT-TREE-EXST
100
AcDbCircle
 10
426856.5
 20
1578868.5
 30
0.0
 40
15.652
  0
CIRCLE
  5
C8
330
17
100
AcDbEntity
  8
L-PLNT-TREE-EXST
100
AcDbCircle
 10
426757.5
 20
1578874.5
 30
0.0
 40
4.0
  0
CIRCLE
  5
C9
330
17
100
AcDbEntity
  8
L-PLNT-TREE-EXST
100
AcDbCircle
 10
426482.5
 20
1578875.5
 30
0.0
 40
14.4665
  0
CIRCLE
  5
CA
330
17
100
AcDbEntity
  8
L-PLNT-TREE-EXST
100
AcDbCircle
 10
426827.5
 20
1578875.5
 30
0.0
 40
16.0445
  0
CIRCLE
  5
CB
330
17
100
AcDbEntity
  8
L-PLNT-TREE-EXST
100
AcDbCircle
 10
426500.5
 20
1578881.5
 30
0.0
 40
18.0835
  0
CIRCLE
  5
CC
330
17
100
AcDbEntity
  8
L-PLNT-TREE-EXST
100
AcDbCircle
 10
426318.5
 20
1578884.5
 30
0.0
 40
11.66
  0
CIRCLE
  5
CD
330
17
100
AcDbEntity
  8
L-PLNT-TREE-EXST
100
AcDbCircle
 10
426788.5
 20
1578885.5
 30
0.0
 40
4.0
  0
CIRCLE
  5
CE
330
17
100
AcDbEntity
  8
L-PLNT-TREE-EXST
100
AcDbCircle
 10
426451.5
 20
1578887.5
 30
0.0
 40
16.16075
  0
CIRCLE
  5
CF
330
17
100
AcDbEntity
  8
L-PLNT-TREE-EXST
100
AcDbCircle
 10
426373.5
 20
1578889.5
 30
0.0
 40
12.6775
  0
CIRCLE
  5
D0
330
17
100
AcDbEntity
  8
L-PLNT-TREE-EXST
100
AcDbCircle
 10
426344.5
 20
1578892.5
 30
0.0
 40
8.3885
  0
CIRCLE
  5
D1
330
17
100
AcDbEntity
  8
L-PLNT-TREE-EXST
100
AcDbCircle
 10
426629.5
 20
1578893.5
 30
0.0
 40
5.27625
  0
CIRCLE
  5
D2
330
17
100
AcDbEntity
  8
L-PLNT-TREE-EXST
100
AcDbCircle
 10
426474.5
 20
1578894.5
 30
0.0
 40
11.01825
  0
CIRCLE
  5
D3
330
17
100
AcDbEntity
  8
L-PLNT-TREE-EXST
100
AcDbCircle
 10
426495.5
 20
1578899.5
 30
0.0
 40
7.849499999999999
  0
CIRCLE
  5
D4
330
17
100
AcDbEntity
  8
L-PLNT-TREE-EXST
100
AcDbCircle
 10
426596.5
 20
1578901.5
 30
0.0
 40
11.77225
  0
CIRCLE
  5
D5
330
17
100
AcDbEntity
  8
L-PLNT-TREE-EXST
100
AcDbCircle
 10
426427.5
 20
1578902.5
 30
0.0
 40
15.7555
  0
CIRCLE
  5
D6
330
17
100
AcDbEntity
  8
L-PLNT-TREE-EXST
100
AcDbCircle
 10
426859.5
 20
1578902.5
 30
0.0
 40
6.785
  0
CIRCLE
  5
D7
330
17
100
AcDbEntity
  8
L-PLNT-TREE-EXST
100
AcDbCircle
 10
426577.5
 20
1578904.5
 30
0.0
 40
11.16875
  0
CIRCLE
  5
D8
330
17
100
AcDbEntity
  8
L-PLNT-TREE-EXST
100
AcDbCircle
 10
426446.5
 20
1578906.5
 30
0.0
 40
14.60425
  0
CIRCLE
  5
D9
330
17
100
AcDbEntity
  8
L-PLNT-TREE-EXST
100
AcDbCircle
 10
426788.5
 20
1578906.5
 30
0.0
 40
4.0
  0
CIRCLE
  5
DA
330
17
100
AcDbEntity
  8
L-PLNT-TREE-EXST
100
AcDbCircle
 10
426885.5
 20
1578908.5
 30
0.0
 40
12.7595
  0
CIRCLE
  5
DB
330
17
100
AcDbEntity
  8
L-PLNT-TREE-EXST
100
AcDbCircle
 10
426712.5
 20
1578909.5
 30
0.0
 40
4.547750000000001
  0
CIRCLE
  5
DC
330
17
100
AcDbEntity
  8
L-PLNT-TREE-EXST
100
AcDbCircle
 10
426732.5
 20
1578914.5
 30
0.0
 40
8.06525
  0
CIRCLE
  5
DD
330
17
100
AcDbEntity
  8
L-PLNT-TREE-EXST
100
AcDbCircle
 10
426411.5
 20
1578921.5
 30
0.0
 40
16.380499999999998
  0
CIRCLE
  5
DE
330
17
100
AcDbEntity
  8
L-PLNT-TREE-EXST
100
AcDbCircle
 10
426390.5
 20
1578926.5
 30
0.0
 40
18.436999999999998
  0
CIRCLE
  5
DF
330
17
100
AcDbEntity
  8
L-PLNT-TREE-EXST
100
AcDbCircle
 10
426623.5
 20
1578928.5
 30
0.0
 40
5.827999999999999
  0
CIRCLE
  5
E0
330
17
100
AcDbEntity
  8
L-PLNT-TREE-EXST
100
AcDbCircle
 10
426672.5
 20
1578928.5
 30
0.0
 40
6.73325
  0
CIRCLE
  5
E1
330
17
100
AcDbEntity
  8
L-PLNT-TREE-EXST
100
AcDbCircle
 10
426690.5
 20
1578936.5
 30
0.0
 40
6.85825
  0
CIRCLE
  5
E2
330
17
100
AcDbEntity
  8
L-PLNT-TREE-EXST
100
AcDbCircle
 10
426908.5
 20
1578941.5
 30
0.0
 40
9.768249999999998
  0
CIRCLE
  5
E3
330
17
100
AcDbEntity
  8
L-PLNT-TREE-EXST
100
AcDbCircle
 10
426466.5
 20
1578945.5
 30
0.0
 40
8.742
  0
CIRCLE
  5
E4
330
17
100
AcDbEntity
  8
L-PLNT-TREE-EXST
100
AcDbCircle
 10
426374.5
 20
1578946.5
 30
0.0
 40
21.811999999999998
  0
CIRCLE
  5
E5
330
17
100
AcDbEntity
  8
L-PLNT-TREE-EXST
100
AcDbCircle
 10
426393.5
 20
1578947.5
 30
0.0
 40
20.92825
  0
CIRCLE
  5
E6
330
17
100
AcDbEntity
  8
L-PLNT-TREE-EXST
100
AcDbCircle
 10
426822.5
 20
1578947.5
 30
0.0
 40
5.98325
  0
CIRCLE
  5
E7
330
17
100
AcDbEntity
  8
L-PLNT-TREE-EXST
100
AcDbCircle
 10
426836.5
 20
1578958.5
 30
0.0
 40
7.3454999999999995
  0
CIRCLE
  5
E8
330
17
100
AcDbEntity
  8
L-PLNT-TREE-EXST
100
AcDbCircle
 10
426921.5
 20
1578964.5
 30
0.0
 40
6.785
  0
CIRCLE
  5
E9
330
17
100
AcDbEntity
  8
L-PLNT-TREE-EXST
100
AcDbCircle
 10
426372.5
 20
1578967.5
 30
0.0
 40
21.811999999999998
  0
CIRCLE
  5
EA
330
17
100
AcDbEntity
  8
L-PLNT-TREE-EXST
100
AcDbCircle
 10
426935.5
 20
1578970.5
 30
0.0
 40
16.9195
  0
CIRCLE
  5
EB
330
17
100
AcDbEntity
  8
L-PLNT-TREE-EXST
100
AcDbCircle
 10
426860.5
 20
1578971.5
 30
0.0
 40
4.0
  0
CIRCLE
  5
EC
330
17
100
AcDbEntity
  8
L-PLNT-TREE-EXST
100
AcDbCircle
 10
426892.5
 20
1578972.5
 30
0.0
 40
11.155999999999999
  0
CIRCLE
  5
ED
330
17
100
AcDbEntity
  8
L-PLNT-TREE-EXST
100
AcDbCircle
 10
426346.5
 20
1578977.5
 30
0.0
 40
19.191
  0
CIRCLE
  5
EE
330
17
100
AcDbEntity
  8
L-PLNT-TREE-EXST
100
AcDbCircle
 10
426415.5
 20
1578977.5
 30
0.0
 40
8.742
  0
CIRCLE
  5
EF
330
17
100
AcDbEntity
  8
L-PLNT-TREE-EXST
100
AcDbCircle
 10
426878.5
 20
1578977.5
 30
0.0
 40
4.19425
  0
CIRCLE
  5
F0
330
17
100
AcDbEntity
  8
L-PLNT-TREE-EXST
100
AcDbCircle
 10
426850.5
 20
1578980.5
 30
0.0
 40
4.0
  0
CIRCLE
  5
F1
330
17
100
AcDbEntity
  8
L-PLNT-TREE-EXST
100
AcDbCircle
 10
426808.5
 20
1578981.5
 30
0.0
 40
8.742
  0
CIRCLE
  5
F2
330
17
100
AcDbEntity
  8
L-PLNT-TREE-EXST
100
AcDbCircle
 10
426453.5
 20
1578983.5
 30
0.0
 40
10.02225
  0
CIRCLE
  5
F3
330
17
100
AcDbEntity
  8
L-PLNT-TREE-EXST
100
AcDbCircle
 10
426960.5
 20
1578984.5
 30
0.0
 40
20.863749999999996
  0
CIRCLE
  5
F4
330
17
100
AcDbEntity
  8
L-PLNT-TREE-EXST
100
AcDbCircle
 10
426340.5
 20
1578996.5
 30
0.0
 40
11.08275
  0
CIRCLE
  5
F5
330
17
100
AcDbEntity
  8
L-PLNT-TREE-EXST
100
AcDbCircle
 10
426436.5
 20
1579000.5
 30
0.0
 40
6.37975
  0
CIRCLE
  5
F6
330
17
100
AcDbEntity
  8
L-PLNT-TREE-EXST
100
AcDbCircle
 10
426395.5
 20
1579004.5
 30
0.0
 40
4.0
  0
CIRCLE
  5
F7
330
17
100
AcDbEntity
  8
L-PLNT-TREE-EXST
100
AcDbCircle
 10
426324.5
 20
1579005.5
 30
0.0
 40
5.702999999999999
  0
CIRCLE
  5
F8
330
17
100
AcDbEntity
  8
L-PLNT-TREE-EXST
100
AcDbCircle
 10
426366.5
 20
1579010.5
 30
0.0
 40
10.6735
  0
CIRCLE
  5
F9
330
17
100
AcDbEntity
  8
L-PLNT-TREE-EXST
100
AcDbCircle
 10
426891.5
 20
1579010.5
 30
0.0
 40
15.664749999999998
  0
CIRCLE
  5
FA
330
17
100
AcDbEntity
  8
L-PLNT-TREE-EXST
100
AcDbCircle
 10
426873.5
 20
1579012.5
 30
0.0
 40
9.315249999999999
  0
CIRCLE
  5
FB
330
17
100
AcDbEntity
  8
L-PLNT-TREE-EXST
100
AcDbCircle
 10
426971.5
 20
1579016.5
 30
0.0
 40
9.29375
  0
CIRCLE
  5
FC
330
17
100
AcDbEntity
  8
L-PLNT-TREE-EXST
100
AcDbCircle
 10
426416.5
 20
1579018.5
 30
0.0
 40
6.3065
  0
CIRCLE
  5
FD
330
17
100
AcDbEntity
  8
L-PLNT-TREE-EXST
100
AcDbCircle
 10
426948.5
 20
1579018.5
 30
0.0
 40
6.909999999999999
  0
CIRCLE
  5
FE
330
17
100
AcDbEntity
  8
L-PLNT-TREE-EXST
100
AcDbCircle
 10
426987.5
 20
1579022.5
 30
0.0
 40
5.539
  0
CIRCLE
  5
FF
330
17
100
AcDbEntity
  8
L-PLNT-TREE-EXST
100
AcDbCircle
 10
426863.5
 20
1579024.5
 30
0.0
 40
4.0
  0
CIRCLE
  5
100
330
17
100
AcDbEntity
  8
L-PLNT-TREE-EXST
100
AcDbCircle
 10
426377.5
 20
1579027.5
 30
0.0
 40
9.52225
  0
CIRCLE
  5
101
330
17
100
AcDbEntity
  8
L-PLNT-TREE-EXST
100
AcDbCircle
 10
426833.5
 20
1579027.5
 30
0.0
 40
8.617
  0
CIRCLE
  5
102
330
17
100
AcDbEntity
  8
L-PLNT-TREE-EXST
100
AcDbCircle
 10
426302.5
 20
1579028.5
 30
0.0
 40
18.5875
  0
CIRCLE
  5
103
330
17
100
AcDbEntity
  8
L-PLNT-TREE-EXST
100
AcDbCircle
 10
426410.5
 20
1579035.5
 30
0.0
 40
6.12975
  0
CIRCLE
  5
104
330
17
100
AcDbEntity
  8
L-PLNT-TREE-EXST
100
AcDbCircle
 10
426892.5
 20
1579041.5
 30
0.0
 40
17.45375
  0
CIRCLE
  5
105
330
17
100
AcDbEntity
  8
L-PLNT-TREE-EXST
100
AcDbCircle
 10
426314.5
 20
1579046.5
 30
0.0
 40
19.6655
  0
CIRCLE
  5
106
330
17
100
AcDbEntity
  8
L-PLNT-TREE-EXST
100
AcDbCircle
 10
426230.5
 20
1579047.5
 30
0.0
 40
6.73325
  0
CIRCLE
  5
107
330
17
100
AcDbEntity
  8
L-PLNT-TREE-EXST
100
AcDbCircle
 10
426877.5
 20
1579048.5
 30
0.0
 40
21.23875
  0
CIRCLE
  5
108
330
17
100
AcDbEntity
  8
L-PLNT-TREE-EXST
100
AcDbCircle
 10
426828.5
 20
1579049.5
 30
0.0
 40
6.858250000000001
  0
CIRCLE
  5
109
330
17
100
AcDbEntity
  8
L-PLNT-TREE-EXST
100
AcDbCircle
 10
426342.5
 20
1579052.5
 30
0.0
 40
10.25075
  0
CIRCLE
  5
10A
330
17
100
AcDbEntity
  8
L-PLNT-TREE-EXST
100
AcDbCircle
 10
426299.5
 20
1579056.5
 30
0.0
 40
15.816
  0
CIRCLE
  5
10B
330
17
100
AcDbEntity
  8
L-PLNT-TREE-EXST
100
AcDbCircle
 10
426953.5
 20
1579057.5
 30
0.0
 40
6.5955
  0
CIRCLE
  5
10C
330
17
100
AcDbEntity
  8
L-PLNT-TREE-EXST
100
AcDbCircle
 10
426371.5
 20
1579058.5
 30
0.0
 40
4.19425
  0
CIRCLE
  5
10D
330
17
100
AcDbEntity
  8
L-PLNT-TREE-EXST
100
AcDbCircle
 10
426401.5
 20
1579060.5
 30
0.0
 40
8.065249999999999
  0
CIRCLE
  5
10E
330
17
100
AcDbEntity
  8
L-PLNT-TREE-EXST
100
AcDbCircle
 10
426966.5
 20
1579062.5
 30
0.0
 40
8.711749999999999
  0
CIRCLE
  5
10F
330
17
100
AcDbEntity
  8
L-PLNT-TREE-EXST
100
AcDbCircle
 10
426891.5
 20
1579066.5
 30
0.0
 40
21.949749999999998
  0
CIRCLE
  5
110
330
17
100
AcDbEntity
  8
L-PLNT-TREE-EXST
100
AcDbCircle
 10
426220.5
 20
1579069.5
 30
0.0
 40
14.212499999999999
  0
CIRCLE
  5
111
330
17
100
AcDbEntity
  8
L-PLNT-TREE-EXST
100
AcDbCircle
 10
426428.5
 20
1579077.5
 30
0.0
 40
12.488
  0
CIRCLE
  5
112
330
17
100
AcDbEntity
  8
L-PLNT-TREE-EXST
100
AcDbCircle
 10
426211.5
 20
1579081.5
 30
0.0
 40
16.55325
  0
CIRCLE
  5
113
330
17
100
AcDbEntity
  8
L-PLNT-TREE-EXST
100
AcDbCircle
 10
426388.5
 20
1579083.5
 30
0.0
 40
6.73325
  0
CIRCLE
  5
114
330
17
100
AcDbEntity
  8
L-PLNT-TREE-EXST
100
AcDbCircle
 10
426358.5
 20
1579084.5
 30
0.0
 40
10.552499999999998
  0
CIRCLE
  5
115
330
17
100
AcDbEntity
  8
L-PLNT-TREE-EXST
100
AcDbCircle
 10
427006.5
 20
1579089.5
 30
0.0
 40
11.229249999999999
  0
CIRCLE
  5
116
330
17
100
AcDbEntity
  8
L-PLNT-TREE-EXST
100
AcDbCircle
 10
426891.5
 20
1579091.5
 30
0.0
 40
17.195
  0
CIRCLE
  5
117
330
17
100
AcDbEntity
  8
L-PLNT-TREE-EXST
100
AcDbCircle
 10
426201.5
 20
1579092.5
 30
0.0
 40
14.78175
  0
CIRCLE
  5
118
330
17
100
AcDbEntity
  8
L-PLNT-TREE-EXST
100
AcDbCircle
 10
426305.5
 20
1579093.5
 30
0.0
 40
16.859
  0
CIRCLE
  5
119
330
17
100
AcDbEntity
  8
L-PLNT-TREE-EXST
100
AcDbCircle
 10
426968.5
 20
1579097.5
 30
0.0
 40
8.440249999999999
  0
CIRCLE
  5
11A
330
17
100
AcDbEntity
  8
L-PLNT-TREE-EXST
100
AcDbCircle
 10
426379.5
 20
1579106.5
 30
0.0
 40
7.94025
  0
CIRCLE
  5
11B
330
17
100
AcDbEntity
  8
L-PLNT-TREE-EXST
100
AcDbCircle
 10
426935.5
 20
1579106.5
 30
0.0
 40
5.702999999999999
  0
CIRCLE
  5
11C
330
17
100
AcDbEntity
  8
L-PLNT-TREE-EXST
100
AcDbCircle
 10
426951.5
 20
1579108.5
 30
0.0
 40
7.50075
  0
CIRCLE
  5
11D
330
17
100
AcDbEntity
  8
L-PLNT-TREE-EXST
100
AcDbCircle
 10
426894.5
 20
1579109.5
 30
0.0
 40
15.949000000000002
  0
CIRCLE
  5
11E
330
17
100
AcDbEntity
  8
L-PLNT-TREE-EXST
100
AcDbCircle
 10
426226.5
 20
1579110.5
 30
0.0
 40
9.5955
  0
CIRCLE
  5
11F
330
17
100
AcDbEntity
  8
L-PLNT-TREE-EXST
100
AcDbCircle
 10
426264.5
 20
1579111.5
 30
0.0
 40
4.0
  0
CIRCLE
  5
120
330
17
100
AcDbEntity
  8
L-PLNT-TREE-EXST
100
AcDbCircle
 10
426819.5
 20
1579119.5
 30
0.0
 40
4.31925
  0
CIRCLE
  5
121
330
17
100
AcDbEntity
  8
L-PLNT-TREE-EXST
100
AcDbCircle
 10
426864.5
 20
1579119.5
 30
0.0
 40
12.893249999999998
  0
CIRCLE
  5
122
330
17
100
AcDbEntity
  8
L-PLNT-TREE-EXST
100
AcDbCircle
 10
426965.5
 20
1579123.5
 30
0.0
 40
12.57875
  0
CIRCLE
  5
123
330
17
100
AcDbEntity
  8
L-PLNT-TREE-EXST
100
AcDbCircle
 10
426306.5
 20
1579124.5
 30
0.0
 40
20.023
  0
CIRCLE
  5
124
330
17
100
AcDbEntity
  8
L-PLNT-TREE-EXST
100
AcDbCircle
 10
426986.5
 20
1579124.5
 30
0.0
 40
5.452999999999999
  0
CIRCLE
  5
125
330
17
100
AcDbEntity
  8
L-PLNT-TREE-EXST
100
AcDbCircle
 10
426889.5
 20
1579137.5
 30
0.0
 40
15.97925
  0
CIRCLE
  5
126
330
17
100
AcDbEntity
  8
L-PLNT-TREE-EXST
100
AcDbCircle
 10
426343.5
 20
1579140.5
 30
0.0
 40
11.405999999999999
  0
CIRCLE
  5
127
330
17
100
AcDbEntity
  8
L-PLNT-TREE-EXST
100
AcDbCircle
 10
426843.5
 20
1579142.5
 30
0.0
 40
11.3845
  0
CIRCLE
  5
128
330
17
100
AcDbEntity
  8
L-PLNT-TREE-EXST
100
AcDbCircle
 10
426946.5
 20
1579145.5
 30
0.0
 40
11.406
  0
CIRCLE
  5
129
330
17
100
AcDbEntity
  8
L-PLNT-TREE-EXST
100
AcDbCircle
 10
426372.5
 20
1579146.5
 30
0.0
 40
9.617
  0
CIRCLE
  5
12A
330
17
100
AcDbEntity
  8
L-PLNT-TREE-EXST
100
AcDbCircle
 10
426968.5
 20
1579157.5
 30
0.0
 40
8.89725
  0
CIRCLE
  5
12B
330
17
100
AcDbEntity
  8
L-PLNT-TREE-EXST
100
AcDbCircle
 10
427004.5
 20
1579157.5
 30
0.0
 40
13.3845
  0
CIRCLE
  5
12C
330
17
100
AcDbEntity
  8
L-PLNT-TREE-EXST
100
AcDbCircle
 10
426306.5
 20
1579160.5
 30
0.0
 40
12.4235
  0
CIRCLE
  5
12D
330
17
100
AcDbEntity
  8
L-PLNT-TREE-EXST
100
AcDbCircle
 10
426988.5
 20
1579161.5
 30
0.0
 40
13.311250000000001
  0
CIRCLE
  5
12E
330
17
100
AcDbEntity
  8
L-PLNT-TREE-EXST
100
AcDbCircle
 10
426909.5
 20
1579162.5
 30
0.0
 40
23.113749999999996
  0
CIRCLE
  5
12F
330
17
100
AcDbEntity
  8
L-PLNT-TREE-EXST
100
AcDbCircle
 10
426950.5
 20
1579162.5
 30
0.0
 40
12.1385
  0
CIRCLE
  5
130
330
17
100
AcDbEntity
  8
L-PLNT-TREE-EXST
100
AcDbCircle
 10
426373.5
 20
1579168.5
 30
0.0
 40
6.077999999999999
  0
CIRCLE
  5
131
330
17
100
AcDbEntity
  8
L-PLNT-TREE-EXST
100
AcDbCircle
 10
426875.5
 20
1579174.5
 30
0.0
 40
24.945749999999997
  0
CIRCLE
  5
132
330
17
100
AcDbEntity
  8
L-PLNT-TREE-EXST
100
AcDbCircle
 10
426904.5
 20
1579175.5
 30
0.0
 40
24.027749999999997
  0
CIRCLE
  5
133
330
17
100
AcDbEntity
  8
L-PLNT-TREE-EXST
100
AcDbCircle
 10
426858.5
 20
1579180.5
 30
0.0
 40
20.3335
  0
CIRCLE
  5
134
330
17
100
AcDbEntity
  8
L-PLNT-TREE-EXST
100
AcDbCircle
 10
426339.5
 20
1579186.5
 30
0.0
 40
6.4315
  0
CIRCLE
  5
135
330
17
100
AcDbEntity
  8
L-PLNT-TREE-EXST
100
AcDbCircle
 10
426914.5
 20
1579187.5
 30
0.0
 40
12.80725
  0
CIRCLE
  5
136
330
17
100
AcDbEntity
  8
L-PLNT-TREE-EXST
100
AcDbCircle
 10
426941.5
 20
1579188.5
 30
0.0
 40
4.31925
  0
CIRCLE
  5
137
330
17
100
AcDbEntity
  8
L-PLNT-TREE-EXST
100
AcDbCircle
 10
426311.5
 20
1579191.5
 30
0.0
 40
18.273
  0
CIRCLE
  5
138
330
17
100
AcDbEntity
  8
L-PLNT-TREE-EXST
100
AcDbCircle
 10
426373.5
 20
1579196.5
 30
0.0
 40
11.457749999999999
  0
CIRCLE
  5
139
330
17
100
AcDbEntity
  8
L-PLNT-TREE-EXST
100
AcDbCircle
 10
426943.5
 20
1579199.5
 30
0.0
 40
4.547750000000001
  0
CIRCLE
  5
13A
330
17
100
AcDbEntity
  8
L-PLNT-TREE-EXST
100
AcDbCircle
 10
426833.5
 20
1579206.5
 30
0.0
 40
10.25075
  0
CIRCLE
  5
13B
330
17
100
AcDbEntity
  8
L-PLNT-TREE-EXST
100
AcDbCircle
 10
426889.5
 20
1579213.5
 30
0.0
 40
10.7635
  0
CIRCLE
  5
13C
330
17
100
AcDbEntity
  8
L-PLNT-TREE-EXST
100
AcDbCircle
 10
426313.5
 20
1579224.5
 30
0.0
 40
19.5875
  0
CIRCLE
  5
13D
330
17
100
AcDbEntity
  8
L-PLNT-TREE-EXST
100
AcDbCircle
 10
426380.5
 20
1579224.5
 30
0.0
 40
8.828
  0
CIRCLE
  5
13E
330
17
100
AcDbEntity
  8
L-PLNT-TREE-EXST
100
AcDbCircle
 10
426344.5
 20
1579225.5
 30
0.0
 40
7.0565
  0
CIRCLE
  5
13F
330
17
100
AcDbEntity
  8
L-PLNT-TREE-EXST
100
AcDbCircle
 10
426963.5
 20
1579225.5
 30
0.0
 40
13.109
  0
CIRCLE
  5
140
330
17
100
AcDbEntity
  8
L-PLNT-TREE-EXST
100
AcDbCircle
 10
426761.5
 20
1579226.5
 30
0.0
 40
5.151249999999999
  0
CIRCLE
  5
141
330
17
100
AcDbEntity
  8
L-PLNT-TREE-EXST
100
AcDbCircle
 10
426801.5
 20
1579237.5
 30
0.0
 40
7.6385000000000005
  0
CIRCLE
  5
142
330
17
100
AcDbEntity
  8
L-PLNT-TREE-EXST
100
AcDbCircle
 10
426386.5
 20
1579240.5
 30
0.0
 40
10.00075
  0
CIRCLE
  5
143
330
17
100
AcDbEntity
  8
L-PLNT-TREE-EXST
100
AcDbCircle
 10
426948.5
 20
1579243.5
 30
0.0
 40
19.824749999999998
  0
CIRCLE
  5
144
330
17
100
AcDbEntity
  8
L-PLNT-TREE-EXST
100
AcDbCircle
 10
426856.5
 20
1579247.5
 30
0.0
 40
15.152000000000001
  0
CIRCLE
  5
145
330
17
100
AcDbEntity
  8
L-PLNT-TREE-EXST
100
AcDbCircle
 10
426358.5
 20
1579253.5
 30
0.0
 40
9.0955
  0
CIRCLE
  5
146
330
17
100
AcDbEntity
  8
L-PLNT-TREE-EXST
100
AcDbCircle
 10
426908.5
 20
1579257.5
 30
0.0
 40
24.765
  0
CIRCLE
  5
147
330
17
100
AcDbEntity
  8
L-PLNT-TREE-EXST
100
AcDbCircle
 10
426317.5
 20
1579259.5
 30
0.0
 40
15.234
  0
CIRCLE
  5
148
330
17
100
AcDbEntity
  8
L-PLNT-TREE-EXST
100
AcDbCircle
 10
426829.5
 20
1579260.5
 30
0.0
 40
12.061250000000001
  0
CIRCLE
  5
149
330
17
100
AcDbEntity
  8
L-PLNT-TREE-EXST
100
AcDbCircle
 10
426390.5
 20
1579266.5
 30
0.0
 40
5.52625
  0
CIRCLE
  5
14A
330
17
100
AcDbEntity
  8
L-PLNT-TREE-EXST
100
AcDbCircle
 10
426283.5
 20
1579273.5
 30
0.0
 40
4.0
  0
CIRCLE
  5
14B
330
17
100
AcDbEntity
  8
L-PLNT-TREE-EXST
100
AcDbCircle
 10
426334.5
 20
1579276.5
 30
0.0
 40
12.37175
  0
CIRCLE
  5
14C
330
17
100
AcDbEntity
  8
L-PLNT-TREE-EXST
100
AcDbCircle
 10
426870.5
 20
1579279.5
 30
0.0
 40
10.311250000000001
  0
CIRCLE
  5
14D
330
17
100
AcDbEntity
  8
L-PLNT-TREE-EXST
100
AcDbCircle
 10
426259.5
 20
1579283.5
 30
0.0
 40
5.827999999999999
  0
CIRCLE
  5
14E
330
17
100
AcDbEntity
  8
L-PLNT-TREE-EXST
100
AcDbCircle
 10
426278.5
 20
1579283.5
 30
0.0
 40
7.75475
  0
CIRCLE
  5
14F
330
17
100
AcDbEntity
  8
L-PLNT-TREE-EXST
100
AcDbCircle
 10
426354.5
 20
1579285.5
 30
0.0
 40
14.440999999999999
  0
CIRCLE
  5
150
330
17
100
AcDbEntity
  8
L-PLNT-TREE-EXST
100
AcDbCircle
 10
426943.5
 20
1579286.5
 30
0.0
 40
30.0
  0
CIRCLE
  5
151
330
17
100
AcDbEntity
  8
L-PLNT-TREE-EXST
100
AcDbCircle
 10
426793.5
 20
1579289.5
 30
0.0
 40
10.324
  0
CIRCLE
  5
152
330
17
100
AcDbEntity
  8
L-PLNT-TREE-EXST
100
AcDbCircle
 10
426964.5
 20
1579291.5
 30
0.0
 40
24.286499999999997
  0
CIRCLE
  5
153
330
17
100
AcDbEntity
  8
L-PLNT-TREE-EXST
100
AcDbCircle
 10
426315.5
 20
1579292.5
 30
0.0
 40
15.005499999999998
  0
CIRCLE
  5
154
330
17
100
AcDbEntity
  8
L-PLNT-TREE-EXST
100
AcDbCircle
 10
426848.5
 20
1579292.5
 30
0.0
 40
11.832749999999999
  0
CIRCLE
  5
155
330
17
100
AcDbEntity
  8
L-PLNT-TREE-EXST
100
AcDbCircle
 10
426937.5
 20
1579301.5
 30
0.0
 40
21.9585
  0
CIRCLE
  5
156
330
17
100
AcDbEntity
  8
L-PLNT-TREE-EXST
100
AcDbCircle
 10
426951.5
 20
1579303.5
 30
0.0
 40
27.264999999999997
  0
CIRCLE
  5
157
330
17
100
AcDbEntity
  8
L-PLNT-TREE-EXST
100
AcDbCircle
 10
426412.5
 20
1579308.5
 30
0.0
 40
4.621
  0
CIRCLE
  5
158
330
17
100
AcDbEntity
  8
L-PLNT-TREE-EXST
100
AcDbCircle
 10
426902.5
 20
1579308.5
 30
0.0
 40
12.819999999999999
  0
CIRCLE
  5
159
330
17
100
AcDbEntity
  8
L-PLNT-TREE-EXST
100
AcDbCircle
 10
426871.5
 20
1579312.5
 30
0.0
 40
13.880500000000001
  0
CIRCLE
  5
15A
330
17
100
AcDbEntity
  8
L-PLNT-TREE-EXST
100
AcDbCircle
 10
426785.5
 20
1579313.5
 30
0.0
 40
6.12975
  0
CIRCLE
  5
15B
330
17
100
AcDbEntity
  8
L-PLNT-TREE-EXST
100
AcDbCircle
 10
426951.5
 20
1579314.5
 30
0.0
 40
20.90675
  0
CIRCLE
  5
15C
330
17
100
AcDbEntity
  8
L-PLNT-TREE-EXST
100
AcDbCircle
 10
426374.5
 20
1579315.5
 30
0.0
 40
15.31125
  0
CIRCLE
  5
15D
330
17
100
AcDbEntity
  8
L-PLNT-TREE-EXST
100
AcDbCircle
 10
426323.5
 20
1579317.5
 30
0.0
 40
21.5405
  0
CIRCLE
  5
15E
330
17
100
AcDbEntity
  8
L-PLNT-TREE-EXST
100
AcDbCircle
 10
426818.5
 20
1579319.5
 30
0.0
 40
11.177499999999998
  0
CIRCLE
  5
15F
330
17
100
AcDbEntity
  8
L-PLNT-TREE-EXST
100
AcDbCircle
 10
426263.5
 20
1579326.5
 30
0.0
 40
6.60825
  0
CIRCLE
  5
160
330
17
100
AcDbEntity
  8
L-PLNT-TREE-EXST
100
AcDbCircle
 10
426434.5
 20
1579326.5
 30
0.0
 40
13.1735
  0
CIRCLE
  5
161
330
17
100
AcDbEntity
  8
L-PLNT-TREE-EXST
100
AcDbCircle
 10
426893.5
 20
1579326.5
 30
0.0
 40
10.41475
  0
CIRCLE
  5
162
330
17
100
AcDbEntity
  8
L-PLNT-TREE-EXST
100
AcDbCircle
 10
426341.5
 20
1579333.5
 30
0.0
 40
26.44175
  0
CIRCLE
  5
163
330
17
100
AcDbEntity
  8
L-PLNT-TREE-EXST
100
AcDbCircle
 10
426451.5
 20
1579337.5
 30
0.0
 40
6.5565
  0
CIRCLE
  5
164
330
17
100
AcDbEntity
  8
L-PLNT-TREE-EXST
100
AcDbCircle
 10
426775.5
 20
1579339.5
 30
0.0
 40
10.37575
  0
CIRCLE
  5
165
330
17
100
AcDbEntity
  8
L-PLNT-TREE-EXST
100
AcDbCircle
 10
426879.5
 20
1579339.5
 30
0.0
 40
12.155999999999999
  0
CIRCLE
  5
166
330
17
100
AcDbEntity
  8
L-PLNT-TREE-EXST
100
AcDbCircle
 10
426329.5
 20
1579343.5
 30
0.0
 40
30.0
  0
CIRCLE
  5
167
330
17
100
AcDbEntity
  8
L-PLNT-TREE-EXST
100
AcDbCircle
 10
426262.5
 20
1579345.5
 30
0.0
 40
6.91
  0
CIRCLE
  5
168
330
17
100
AcDbEntity
  8
L-PLNT-TREE-EXST
100
AcDbCircle
 10
426388.5
 20
1579346.5
 30
0.0
 40
13.905999999999999
  0
CIRCLE
  5
169
330
17
100
AcDbEntity
  8
L-PLNT-TREE-EXST
100
AcDbCircle
 10
426618.5
 20
1579351.5
 30
0.0
 40
4.67275
  0
CIRCLE
  5
16A
330
17
100
AcDbEntity
  8
L-PLNT-TREE-EXST
100
AcDbCircle
 10
426948.5
 20
1579351.5
 30
0.0
 40
14.64325
  0
CIRCLE
  5
16B
330
17
100
AcDbEntity
  8
L-PLNT-TREE-EXST
100
AcDbCircle
 10
426481.5
 20
1579352.5
 30
0.0
 40
12.78575
  0
CIRCLE
  5
16C
330
17
100
AcDbEntity
  8
L-PLNT-TREE-EXST
100
AcDbCircle
 10
426580.5
 20
1579353.5
 30
0.0
 40
14.00075
  0
CIRCLE
  5
16D
330
17
100
AcDbEntity
  8
L-PLNT-TREE-EXST
100
AcDbCircle
 10
426841.5
 20
1579354.5
 30
0.0
 40
10.302499999999998
  0
CIRCLE
  5
16E
330
17
100
AcDbEntity
  8
L-PLNT-TREE-EXST
100
AcDbCircle
 10
426746.5
 20
1579358.5
 30
0.0
 40
6.8065
  0
CIRCLE
  5
16F
330
17
100
AcDbEntity
  8
L-PLNT-TREE-EXST
100
AcDbCircle
 10
426532.5
 20
1579360.5
 30
0.0
 40
9.043750000000001
  0
CIRCLE
  5
170
330
17
100
AcDbEntity
  8
L-PLNT-TREE-EXST
100
AcDbCircle
 10
426794.5
 20
1579360.5
 30
0.0
 40
4.121
  0
CIRCLE
  5
171
330
17
100
AcDbEntity
  8
L-PLNT-TREE-EXST
100
AcDbCircle
 10
426363.5
 20
1579361.5
 30
0.0
 40
26.666249999999998
  0
CIRCLE
  5
172
330
17
100
AcDbEntity
  8
L-PLNT-TREE-EXST
100
AcDbCircle
 10
426879.5
 20
1579361.5
 30
0.0
 40
16.057249999999996
  0
CIRCLE
  5
173
330
17
100
AcDbEntity
  8
L-PLNT-TREE-EXST
100
AcDbCircle
 10
426337.5
 20
1579362.5
 30
0.0
 40
25.9545
  0
CIRCLE
  5
174
330
17
100
AcDbEntity
  8
L-PLNT-TREE-EXST
100
AcDbCircle
 10
426691.5
 20
1579368.5
 30
0.0
 40
5.52625
  0
CIRCLE
  5
175
330
17
100
AcDbEntity
  8
L-PLNT-TREE-EXST
100
AcDbCircle
 10
426585.5
 20
1579369.5
 30
0.0
 40
13.319999999999999
  0
CIRCLE
  5
176
330
17
100
AcDbEntity
  8
L-PLNT-TREE-EXST
100
AcDbCircle
 10
426718.5
 20
1579370.5
 30
0.0
 40
11.530999999999999
  0
CIRCLE
  5
177
330
17
100
AcDbEntity
  8
L-PLNT-TREE-EXST
100
AcDbCircle
 10
426429.5
 20
1579373.5
 30
0.0
 40
14.64325
  0
CIRCLE
  5
178
330
17
100
AcDbEntity
  8
L-PLNT-TREE-EXST
100
AcDbCircle
 10
426657.5
 20
1579374.5
 30
0.0
 40
11.707749999999999
  0
CIRCLE
  5
179
330
17
100
AcDbEntity
  8
L-PLNT-TREE-EXST
100
AcDbCircle
 10
426465.5
 20
1579376.5
 30
0.0
 40
19.36775
  0
CIRCLE
  5
17A
330
17
100
AcDbEntity
  8
L-PLNT-TREE-EXST
100
AcDbCircle
 10
426325.5
 20
1579378.5
 30
0.0
 40
19.32075
  0
CIRCLE
  5
17B
330
17
100
AcDbEntity
  8
L-PLNT-TREE-EXST
100
AcDbCircle
 10
426940.5
 20
1579381.5
 30
0.0
 40
19.00625
  0
CIRCLE
  5
17C
330
17
100
AcDbEntity
  8
L-PLNT-TREE-EXST
100
AcDbCircle
 10
426874.5
 20
1579385.5
 30
0.0
 40
18.03575
  0
CIRCLE
  5
17D
330
17
100
AcDbEntity
  8
L-PLNT-TREE-EXST
100
AcDbCircle
 10
426292.5
 20
1579387.5
 30
0.0
 40
12.20775
  0
CIRCLE
  5
17E
330
17
100
AcDbEntity
  8
L-PLNT-TREE-EXST
100
AcDbCircle
 10
426925.5
 20
1579389.5
 30
0.0
 40
16.652
  0
CIRCLE
  5
17F
330
17
100
AcDbEntity
  8
L-PLNT-TREE-EXST
100
AcDbCircle
 10
426267.5
 20
1579390.5
 30
0.0
 40
8.785
  0
CIRCLE
  5
180
330
17
100
AcDbEntity
  8
L-PLNT-TREE-EXST
100
AcDbCircle
 10
426345.5
 20
1579393.5
 30
0.0
 40
25.049249999999997
  0
CIRCLE
  5
181
330
17
100
AcDbEntity
  8
L-PLNT-TREE-EXST
100
AcDbCircle
 10
426715.5
 20
1579396.5
 30
0.0
 40
5.328
  0
CIRCLE
  5
182
330
17
100
AcDbEntity
  8
L-PLNT-TREE-EXST
100
AcDbCircle
 10
426763.5
 20
1579397.5
 30
0.0
 40
18.066000000000003
  0
CIRCLE
  5
183
330
17
100
AcDbEntity
  8
L-PLNT-TREE-EXST
100
AcDbCircle
 10
426583.5
 20
1579398.5
 30
0.0
 40
14.690999999999999
  0
CIRCLE
  5
184
330
17
100
AcDbEntity
  8
L-PLNT-TREE-EXST
100
AcDbCircle
 10
426949.5
 20
1579399.5
 30
0.0
 40
13.33275
  0
CIRCLE
  5
185
330
17
100
AcDbEntity
  8
L-PLNT-TREE-EXST
100
AcDbCircle
 10
426503.5
 20
1579402.5
 30
0.0
 40
14.9235
  0
CIRCLE
  5
186
330
17
100
AcDbEntity
  8
L-PLNT-TREE-EXST
100
AcDbCircle
 10
426363.5
 20
1579403.5
 30
0.0
 40
21.394
  0
CIRCLE
  5
187
330
17
100
AcDbEntity
  8
L-PLNT-TREE-EXST
100
AcDbCircle
 10
426453.5
 20
1579403.5
 30
0.0
 40
13.87175
  0
CIRCLE
  5
188
330
17
100
AcDbEntity
  8
L-PLNT-TREE-EXST
100
AcDbCircle
 10
426878.5
 20
1579404.5
 30
0.0
 40
15.64325
  0
CIRCLE
  5
189
330
17
100
AcDbEntity
  8
L-PLNT-TREE-EXST
100
AcDbCircle
 10
426330.5
 20
1579405.5
 30
0.0
 40
24.415499999999998
  0
CIRCLE
  5
18A
330
17
100
AcDbEntity
  8
L-PLNT-TREE-EXST
100
AcDbCircle
 10
426547.5
 20
1579407.5
 30
0.0
 40
17.05725
  0
CIRCLE
  5
18B
330
17
100
AcDbEntity
  8
L-PLNT-TREE-EXST
100
AcDbCircle
 10
426836.5
 20
1579407.5
 30
0.0
 40
8.5135
  0
CIRCLE
  5
18C
330
17
100
AcDbEntity
  8
L-PLNT-TREE-EXST
100
AcDbCircle
 10
426676.5
 20
1579410.5
 30
0.0
 40
20.8335
  0
CIRCLE
  5
18D
330
17
100
AcDbEntity
  8
L-PLNT-TREE-EXST
100
AcDbCircle
 10
426601.5
 20
1579413.5
 30
0.0
 40
16.523
  0
CIRCLE
  5
18E
330
17
100
AcDbEntity
  8
L-PLNT-TREE-EXST
100
AcDbCircle
 10
426940.5
 20
1579415.5
 30
0.0
 40
19.523
  0
CIRCLE
  5
18F
330
17
100
AcDbEntity
  8
L-PLNT-TREE-EXST
100
AcDbCircle
 10
426362.5
 20
1579416.5
 30
0.0
 40
19.10025
  0
CIRCLE
  5
190
330
17
100
AcDbEntity
  8
L-PLNT-TREE-EXST
100
AcDbCircle
 10
426800.5
 20
1579416.5
 30
0.0
 40
22.976
  0
CIRCLE
  5
191
330
17
100
AcDbEntity
  8
L-PLNT-TREE-EXST
100
AcDbCircle
 10
426376.5
 20
1579421.5
 30
0.0
 40
9.863
  0
CIRCLE
  5
192
330
17
100
AcDbEntity
  8
L-PLNT-TREE-EXST
100
AcDbCircle
 10
426426.5
 20
1579423.5
 30
0.0
 40
15.703750000000001
  0
CIRCLE
  5
193
330
17
100
AcDbEntity
  8
L-PLNT-TREE-EXST
100
AcDbCircle
 10
426867.5
 20
1579424.5
 30
0.0
 40
11.50075
  0
CIRCLE
  5
194
330
17
100
AcDbEntity
  8
L-PLNT-TREE-EXST
100
AcDbCircle
 10
426339.5
 20
1579426.5
 30
0.0
 40
23.48475
  0
CIRCLE
  5
195
330
17
100
AcDbEntity
  8
L-PLNT-TREE-EXST
100
AcDbCircle
 10
426731.5
 20
1579429.5
 30
0.0
 40
17.764249999999997
  0
CIRCLE
  5
196
330
17
100
AcDbEntity
  8
L-PLNT-TREE-EXST
100
AcDbCircle
 10
426916.5
 20
1579430.5
 30
0.0
 40
5.151249999999999
  0
CIRCLE
  5
197
330
17
100
AcDbEntity
  8
L-PLNT-TREE-EXST
100
AcDbCircle
 10
426299.5
 20
1579431.5
 30
0.0
 40
14.26825
  0
CIRCLE
  5
198
330
17
100
AcDbEntity
  8
L-PLNT-TREE-EXST
100
AcDbCircle
 10
426453.5
 20
1579431.5
 30
0.0
 40
14.863000000000001
  0
CIRCLE
  5
199
330
17
100
AcDbEntity
  8
L-PLNT-TREE-EXST
100
AcDbCircle
 10
426567.5
 20
1579433.5
 30
0.0
 40
15.837499999999999
  0
CIRCLE
  5
19A
330
17
100
AcDbEntity
  8
L-PLNT-TREE-EXST
100
AcDbCircle
 10
426642.5
 20
1579437.5
 30
0.0
 40
22.83825
  0
CIRCLE
  5
19B
330
17
100
AcDbEntity
  8
L-PLNT-TREE-EXST
100
AcDbCircle
 10
426539.5
 20
1579438.5
 30
0.0
 40
18.53575
  0
CIRCLE
  5
19C
330
17
100
AcDbEntity
  8
L-PLNT-TREE-EXST
100
AcDbCircle
 10
426479.5
 20
1579439.5
 30
0.0
 40
24.993499999999997
  0
CIRCLE
  5
19D
330
17
100
AcDbEntity
  8
L-PLNT-TREE-EXST
100
AcDbCircle
 10
426388.5
 20
1579440.5
 30
0.0
 40
9.66875
  0
CIRCLE
  5
19E
330
17
100
AcDbEntity
  8
L-PLNT-TREE-EXST
100
AcDbCircle
 10
426696.5
 20
1579440.5
 30
0.0
 40
23.898749999999996
  0
CIRCLE
  5
19F
330
17
100
AcDbEntity
  8
L-PLNT-TREE-EXST
100
AcDbCircle
 10
426740.5
 20
1579440.5
 30
0.0
 40
17.3375
  0
CIRCLE
  5
1A0
330
17
100
AcDbEntity
  8
L-PLNT-TREE-EXST
100
AcDbCircle
 10
426507.5
 20
1579442.5
 30
0.0
 40
22.820749999999997
  0
CIRCLE
  5
1A1
330
17
100
AcDbEntity
  8
L-PLNT-TREE-EXST
100
AcDbCircle
 10
426563.5
 20
1579446.5
 30
0.0
 40
21.523
  0
CIRCLE
  5
1A2
330
17
100
AcDbEntity
  8
L-PLNT-TREE-EXST
100
AcDbCircle
 10
426728.5
 20
1579447.5
 30
0.0
 40
13.72925
  0
CIRCLE
  5
1A3
330
17
100
AcDbEntity
  8
L-PLNT-TREE-EXST
100
AcDbCircle
 10
426578.5
 20
1579451.5
 30
0.0
 40
14.988
  0
CIRCLE
  5
1A4
330
17
100
AcDbEntity
  8
L-PLNT-TREE-EXST
100
AcDbCircle
 10
426658.5
 20
1579451.5
 30
0.0
 40
22.0835
  0
CIRCLE
  5
1A5
330
17
100
AcDbEntity
  8
L-PLNT-TREE-EXST
100
AcDbCircle
 10
426824.5
 20
1579451.5
 30
0.0
 40
12.8845
  0
CIRCLE
  5
1A6
330
17
100
AcDbEntity
  8
L-PLNT-TREE-EXST
100
AcDbCircle
 10
426912.5
 20
1579453.5
 30
0.0
 40
8.52225
  0
CIRCLE
  5
1A7
330
17
100
AcDbEntity
  8
L-PLNT-TREE-EXST
100
AcDbCircle
 10
426632.5
 20
1579454.5
 30
0.0
 40
22.272999999999996
  0
CIRCLE
  5
1A8
330
17
100
AcDbEntity
  8
L-PLNT-TREE-EXST
100
AcDbCircle
 10
426441.5
 20
1579455.5
 30
0.0
 40
26.325499999999998
  0
CIRCLE
  5
1A9
330
17
100
AcDbEntity
  8
L-PLNT-TREE-EXST
100
AcDbCircle
 10
426704.5
 20
1579455.5
 30
0.0
 40
19.057249999999996
  0
CIRCLE
  5
1AA
330
17
100
AcDbEntity
  8
L-PLNT-TREE-EXST
100
AcDbCircle
 10
426807.5
 20
1579455.5
 30
0.0
 40
19.88925
  0
CIRCLE
  5
1AB
330
17
100
AcDbEntity
  8
L-PLNT-TREE-EXST
100
AcDbCircle
 10
426690.5
 20
1579457.5
 30
0.0
 40
20.6695
  0
CIRCLE
  5
1AC
330
17
100
AcDbEntity
  8
L-PLNT-TREE-EXST
100
AcDbCircle
 10
426677.5
 20
1579458.5
 30
0.0
 40
25.256249999999998
  0
CIRCLE
  5
1AD
330
17
100
AcDbEntity
  8
L-PLNT-TREE-EXST
100
AcDbCircle
 10
426871.5
 20
1579459.5
 30
0.0
 40
6.12975
  0
CIRCLE
  5
1AE
330
17
100
AcDbEntity
  8
L-PLNT-TREE-EXST
100
AcDbCircle
 10
426499.5
 20
1579460.5
 30
0.0
 40
21.86375
  0
CIRCLE
  5
1AF
330
17
100
AcDbEntity
  8
L-PLNT-TREE-EXST
100
AcDbCircle
 10
426468.5
 20
1579461.5
 30
0.0
 40
22.105
  0
CIRCLE
  5
1B0
330
17
100
AcDbEntity
  8
L-PLNT-TREE-EXST
100
AcDbCircle
 10
426740.5
 20
1579470.5
 30
0.0
 40
18.152
  0
CIRCLE
  5
1B1
330
17
100
AcDbEntity
  8
L-PLNT-TREE-EXST
100
AcDbCircle
 10
426318.5
 20
1579472.5
 30
0.0
 40
15.850249999999999
  0
CIRCLE
  5
1B2
330
17
100
AcDbEntity
  8
L-PLNT-TREE-EXST
100
AcDbCircle
 10
426504.5
 20
1579472.5
 30
0.0
 40
21.98875
  0
CIRCLE
  5
1B3
330
17
100
AcDbEntity
  8
L-PLNT-TREE-EXST
100
AcDbCircle
 10
426356.5
 20
1579473.5
 30
0.0
 40
22.0445
  0
CIRCLE
  5
1B4
330
17
100
AcDbEntity
  8
L-PLNT-TREE-EXST
100
AcDbCircle
 10
426801.5
 20
1579474.5
 30
0.0
 40
16.858999999999998
  0
CIRCLE
  5
1B5
330
17
100
AcDbEntity
  8
L-PLNT-TREE-EXST
100
AcDbCircle
 10
426769.5
 20
1579477.5
 30
0.0
 40
16.902
  0
CIRCLE
  5
1B6
330
17
100
AcDbEntity
  8
L-PLNT-TREE-EXST
100
AcDbCircle
 10
426546.5
 20
1579478.5
 30
0.0
 40
17.880499999999998
  0
CIRCLE
  5
1B7
330
17
100
AcDbEntity
  8
L-PLNT-TREE-EXST
100
AcDbCircle
 10
426598.5
 20
1579478.5
 30
0.0
 40
8.483250000000002
  0
CIRCLE
  5
1B8
330
17
100
AcDbEntity
  8
L-PLNT-TREE-EXST
100
AcDbCircle
 10
426582.5
 20
1579480.5
 30
0.0
 40
9.086749999999999
  0
CIRCLE
  5
1B9
330
17
100
AcDbEntity
  8
L-PLNT-TREE-EXST
100
AcDbCircle
 10
426632.5
 20
1579484.5
 30
0.0
 40
5.3495
  0
CIRCLE
  5
1BA
330
17
100
AcDbEntity
  8
L-PLNT-TREE-EXST
100
AcDbCircle
 10
426651.5
 20
1579485.5
 30
0.0
 40
5.65125
  0
CIRCLE
  5
1BB
330
17
100
AcDbEntity
  8
L-PLNT-TREE-EXST
100
AcDbCircle
 10
426693.5
 20
1579492.5
 30
0.0
 40
4.371
  0
CIRCLE
  5
1BC
330
17
100
AcDbEntity
  8
L-PLNT-TREE-EXST
100
AcDbCircle
 10
426672.5
 20
1579496.5
 30
0.0
 40
5.599499999999999
  0
CIRCLE
  5
1BD
330
17
100
AcDbEntity
  8
L-PLNT-TREE-EXST
100
AcDbCircle
 10
426350.5
 20
1579501.5
 30
0.0
 40
23.48475
  0
CIRCLE
  5
1BE
330
17
100
AcDbEntity
  8
L-PLNT-TREE-EXST
100
AcDbCircle
 10
426709.5
 20
1579501.5
 30
0.0
 40
5.12975
  0
CIRCLE
  5
1BF
330
17
100
AcDbEntity
  8
L-PLNT-TREE-EXST
100
AcDbCircle
 10
426833.5
 20
1579505.5
 30
0.0
 40
4.922750000000001
  0
CIRCLE
  5
1C0
330
17
100
AcDbEntity
  8
L-PLNT-TREE-EXST
100
AcDbCircle
 10
426812.5
 20
1579510.5
 30
0.0
 40
4.79775
  0
CIRCLE
  5
1C1
330
17
100
AcDbEntity
  8
L-PLNT-TREE-EXST
100
AcDbCircle
 10
426535.5
 20
1579511.5
 30
0.0
 40
7.535
  0
CIRCLE
  5
1C2
330
17
100
AcDbEntity
  8
L-PLNT-TREE-EXST
100
AcDbCircle
 10
426603.5
 20
1579516.5
 30
0.0
 40
4.42275
  0
CIRCLE
  5
1C3
330
17
100
AcDbEntity
  8
L-PLNT-TREE-EXST
100
AcDbCircle
 10
426367.5
 20
1579520.5
 30
0.0
 40
26.9115
  0
CIRCLE
  5
1C4
330
17
100
AcDbEntity
  8
L-PLNT-TREE-EXST
100
AcDbCircle
 10
426790.5
 20
1579521.5
 30
0.0
 40
5.452999999999999
  0
CIRCLE
  5
1C5
330
17
100
AcDbEntity
  8
L-PLNT-TREE-EXST
100
AcDbCircle
 10
426387.5
 20
1579525.5
 30
0.0
 40
26.377249999999997
  0
CIRCLE
  5
1C6
330
17
100
AcDbEntity
  8
L-PLNT-TREE-EXST
100
AcDbCircle
 10
426578.5
 20
1579527.5
 30
0.0
 40
17.596249999999998
  0
CIRCLE
  5
1C7
330
17
100
AcDbEntity
  8
L-PLNT-TREE-EXST
100
AcDbCircle
 10
426527.5
 20
1579531.5
 30
0.0
 40
6.6815
  0
CIRCLE
  5
1C8
330
17
100
AcDbEntity
  8
L-PLNT-TREE-EXST
100
AcDbCircle
 10
426722.5
 20
1579537.5
 30
0.0
 40
4.09075
  0
CIRCLE
  5
1C9
330
17
100
AcDbEntity
  8
L-PLNT-TREE-EXST
100
AcDbCircle
 10
426578.5
 20
1579545.5
 30
0.0
 40
16.591499999999996
  0
CIRCLE
  5
1CA
330
17
100
AcDbEntity
  8
L-PLNT-TREE-EXST
100
AcDbCircle
 10
426749.5
 20
1579546.5
 30
0.0
 40
6.35825
  0
CIRCLE
  5
1CB
330
17
100
AcDbEntity
  8
L-PLNT-TREE-EXST
100
AcDbCircle
 10
426622.5
 20
1579547.5
 30
0.0
 40
15.45775
  0
CIRCLE
  5
1CC
330
17
100
AcDbEntity
  8
L-PLNT-TREE-EXST
100
AcDbCircle
 10
426652.5
 20
1579547.5
 30
0.0
 40
11.6385
  0
CIRCLE
  5
1CD
330
17
100
AcDbEntity
  8
L-PLNT-TREE-EXST
100
AcDbCircle
 10
426665.5
 20
1579549.5
 30
0.0
 40
9.4315
  0
CIRCLE
  5
1CE
330
17
100
AcDbEntity
  8
L-PLNT-TREE-EXST
100
AcDbCircle
 10
426692.5
 20
1579549.5
 30
0.0
 40
9.535
  0
CIRCLE
  5
1CF
330
17
100
AcDbEntity
  8
L-PLNT-TREE-EXST
100
AcDbCircle
 10
426733.5
 20
1579549.5
 30
0.0
 40
4.0
  0
CIRCLE
  5
1D0
330
17
100
AcDbEntity
  8
L-PLNT-TREE-EXST
100
AcDbCircle
 10
426785.5
 20
1579549.5
 30
0.0
 40
4.810499999999999
  0
LWPOLYLINE
  5
1D1
330
17
100
AcDbEntity
  8
C-ZONE-BNDY
100
AcDbPolyline
 90
109
 70
1
 10
426614.6332689746
 20
1579553.2278771515
 10
426638.59671761474
 20
1579550.1693039623
 10
426649.26973262226
 20
1579547.7420362695
 10
426654.7233713561
 20
1579547.8108405364
 10
426654.7782024731
 20
1579547.8058690329
 10
426659.6701877312
 20
1579547.9857397883
 10
426683.3377022551
 20
1579546.608779893
 10
426706.7683682439
 20
1579542.9961418519
 10
426729.75147943065
 20
1579537.180313238
 10
426732.7424580833
 20
1579536.113162019
 10
426733.6010327975
 20
1579535.964602386
 10
426757.1355933632
 20
1579529.475954677
 10
426779.92508030165
 20
1579520.7228195132
 10
426801.75218105444
 20
1579509.7886637233
 10
426821.8563913636
 20
1579497.125670778
 10
426828.77238773654
 20
1579493.1988358852
 10
426848.48515337874
 20
1579479.338054344
 10
426857.48515337874
 20
1579472.338054344
 10
426876.3676596012
 20
1579456.0784082203
 10
426893.5377272314
 20
1579438.0197839404
 10
426908.8247750448
 20
1579418.341590363
 10
426922.07692924625
 20
1579397.2393264482
 10
426933.16253230587
 20
1579374.9226390123
 10
426941.97145095066
 20
1579351.613239929
 10
426948.41617031704
 20
1579327.5427034665
 10
426952.43266339315
 20
1579302.9501656413
 10
426953.1821968507
 20
1579290.910966055
 10
426959.0673053171
 20
1579279.1407491222
 10
426968.1520554555
 20
1579255.0499735852
 10
426974.71087667823
 20
1579230.1525838582
 10
426978.6742036979
 20
1579204.7126508788
 10
426978.7297595147
 20
1579203.6351947724
 10
426979.1963201008
 20
1579201.772580504
 10
426981.28593586845
 20
1579187.6855352612
 10
426779.74958688894
 20
1579183.856541604
 10
426779.7348407396
 20
1579184.1425301759
 10
426778.94217533566
 20
1579189.2305167716
 10
426777.6304110911
 20
1579194.209994717
 10
426775.81346106343
 20
1579199.0281498244
 10
426773.5105964976
 20
1579203.633878956
 10
426770.7462424283
 20
1579207.9783320427
 10
426767.5497186187
 20
1579212.0154302055
 10
426763.9549285844
 20
1579215.702354486
 10
426762.76161897485
 20
1579216.6973439017
 10
426762.75216261094
 20
1579216.7266830287
 10
426760.72135955
 20
1579221.360679775
 10
426760.3499983436
 20
1579222.1034021878
 10
426759.49747468304
 20
1579228.071067812
 10
426758.63935393427
 20
1579232.585044189
 10
426757.370476683
 20
1579237.0011855443
 10
426755.7015585236
 20
1579241.2821978226
 10
426753.6466933722
 20
1579245.3919281254
 10
426751.2232344452
 20
1579249.29567002
 10
426749.96387417044
 20
1579250.960884614
 10
426749.5275685467
 20
1579252.3532397437
 10
426749.6377285106
 20
1579252.992012957
 10
426749.7795688677
 20
1579255.0113508042
 10
426750.310966945
 20
1579256.150746948
 10
426751.9573577976
 20
1579260.8546179596
 10
426753.1273017897
 20
1579265.6990205427
 10
426753.80917575915
 20
1579270.6358265164
 10
426753.996205423
 20
1579275.6159896902
 10
426753.68653267866
 20
1579280.5900331282
 10
426752.8832340634
 20
1579285.5085406932
 10
426751.59429019014
 20
1579290.3226479858
 10
426749.8325064612
 20
1579294.9845278026
 10
426747.61538584926
 20
1579299.4478652896
 10
426744.96495500894
 20
1579303.6683180726
 10
426741.9075454463
 20
1579307.603956788
 10
426738.47353192023
 20
1579311.2156816442
 10
426734.6970306758
 20
1579314.4676108689
 10
426725.6970306758
 20
1579321.4676108689
 10
426721.7544775473
 20
1579324.239767177
 10
426717.5633370553
 20
1579326.6194556323
 10
426713.1625508896
 20
1579328.5845655254
 10
426713.1379005788
 20
1579328.5928313418
 10
426711.5395686728
 20
1579329.9628301184
 10
426707.68175200804
 20
1579332.9555503167
 10
426703.5504362108
 20
1579335.5577327446
 10
426699.1850160603
 20
1579337.7445639027
 10
426694.6271186726
 20
1579339.4951909354
 10
426689.9202065595
 20
1579340.7929204772
 10
426685.10916318477
 20
1579341.625377834
 10
426680.8039022744
 20
1579341.943011433
 10
426680.31083894486
 20
1579342.2335256077
 10
426676.01607086003
 20
1579344.242718876
 10
426671.5502958862
 20
1579345.8360626476
 10
426666.9536736488
 20
1579346.9992283704
 10
426662.267540451
 20
1579347.7217559787
 10
426657.53403754625
 20
1579347.9971479576
 10
426652.79573217203
 20
1579347.8229277746
 10
426651.0415630677
 20
1579347.590705727
 10
426646.9446742712
 20
1579347.9621681073
 10
426641.7954786297
 20
1579347.8972047593
 10
426636.6802745461
 20
1579347.302963079
 10
426631.6533209052
 20
1579346.1857464106
 10
426631.09604087536
 20
1579346.0
 10
426631.0
 20
1579346.0
 10
426626.09914298356
 20
1579345.7592363337
 10
426623.0726334022
 20
1579345.310296046
 10
426621.64225657424
 20
1579346.310638906
 10
426617.43410742126
 20
1579348.6845703148
 10
426613.016476922
 20
1579350.6412538353
 10
426608.430615266
 20
1579352.162418685
 10
426603.7193435229
 20
1579353.2338607924
 10
426598.9266537949
 20
1579353.8455754302
 10
426595.391181905
 20
1579353.9526605038
 10
426595.391181905
 20
1579553.8106961842
 10
426614.6332689746
 20
1579553.2278771515
  0
TEXT
  5
1D2
330
17
100
AcDbEntity
  8
C-ZONE-ANNO
100
AcDbText
 10
426766.25806256256
 20
1579374.437649758
 30
0.0
 40
14.0
  1
ZONE A
 72
1
 11
426766.25806256256
 21
1579374.437649758
 31
0.0
100
AcDbText
 73
2
  0
TEXT
  5
1D3
330
17
100
AcDbEntity
  8
C-ZONE-ANNO
100
AcDbText
 10
426766.25806256256
 20
1579356.437649758
 30
0.0
 40
5.0
  1
2.04 AC · 249 FT LAKE FRONTAGE · 4 PADS
 72
1
 11
426766.25806256256
 21
1579356.437649758
 31
0.0
100
AcDbText
 73
2
  0
LWPOLYLINE
  5
1D4
330
17
100
AcDbEntity
  8
C-ZONE-BNDY
100
AcDbPolyline
 90
99
 70
1
 10
426982.79618166806
 20
1579177.5042850825
 10
426984.0
 20
1579153.0
 10
426983.6320087151
 20
1579145.509365314
 10
426983.932033724
 20
1579133.1708904107
 10
426982.2444508185
 20
1579109.42479691
 10
426978.3058869574
 20
1579085.94687947
 10
426972.1520554555
 20
1579062.9500264148
 10
426963.8387567848
 20
1579040.6427639693
 10
426953.441372598
 20
1579019.227365428
 10
426941.05418219813
 20
1578998.8980170223
 10
426926.7895076515
 20
1578979.8390571168
 10
426910.77669529663
 20
1578962.2233047034
 10
426905.77669529663
 20
1578957.2233047034
 10
426887.11951367056
 20
1578940.3554302424
 10
426875.98552619806
 20
1578932.1618006474
 10
426873.0491749708
 20
1578929.5004470253
 10
426869.48932480084
 20
1578924.6905524356
 10
426860.48932480084
 20
1578913.6905524356
 10
426844.01128029183
 20
1578895.4582014098
 10
426843.0810346248
 20
1578894.6129641251
 10
426838.33805434406
 20
1578888.5148466213
 10
426822.5322071039
 20
1578870.110332527
 10
426805.0169046281
 20
1578853.324471655
 10
426785.9570852822
 20
1578838.3153333545
 10
426765.53223186143
 20
1578825.2242559057
 10
426743.9346814347
 20
1578814.1745155652
 10
426721.36781414173
 20
1578805.270165695
 10
426698.0441380002
 20
1578798.5950569117
 10
426674.18328775634
 20
1578794.2120474807
 10
426650.00995662616
 20
1578792.1624113917
 10
426625.7517804
 20
1578792.4654496887
 10
426619.82389956806
 20
1578793.1175791433
 10
426606.62645424175
 20
1579002.2850734417
 10
426608.639320225
 20
1579001.27864045
 10
426613.0326917283
 20
1578999.3397831824
 10
426617.5918000125
 20
1578997.8313361916
 10
426617.75104159955
 20
1578997.7951499629
 10
426619.2812479796
 20
1578996.9633947697
 10
426623.74872591504
 20
1578995.0703340897
 10
426628.3786559093
 20
1578993.6192013982
 10
426633.12743876775
 20
1578992.6236617432
 10
426637.95035607996
 20
1578992.0930899377
 10
426642.8019913252
 20
1578992.0324822783
 10
426647.6366575512
 20
1578992.442409496
 10
426652.4088276
 20
1578993.3190113823
 10
426657.0735628283
 20
1578994.6540331389
 10
426661.5869362869
 20
1578996.434903113
 10
426665.9064463722
 20
1578998.6448511812
 10
426669.99141705636
 20
1579001.2630666709
 10
426673.80338092556
 20
1579004.2648943309
 10
426677.30644142075
 20
1579007.6220665053
 10
426680.4676108688
 20
1579011.3029693242
 10
426687.4676108688
 20
1579020.3029693242
 10
426690.3946345798
 20
1579024.4916058795
 10
426692.8788523697
 20
1579028.9571188367
 10
426693.07041404955
 20
1579029.4034304884
 10
426694.81990178605
 20
1579030.4542052115
 10
426698.7645511489
 20
1579033.3863587535
 10
426702.4022560584
 20
1579036.691640282
 10
426705.6978649602
 20
1579040.3381104872
 10
426714.6978649602
 20
1579051.3381104872
 10
426717.5872417782
 20
1579055.2420944364
 10
426720.08420821856
 20
1579059.4079974198
 10
426722.1652033163
 20
1579063.7965106617
 10
426723.81059114385
 20
1579068.3662248726
 10
426723.9803369613
 20
1579069.0353690113
 10
426726.1341716182
 20
1579069.8060233744
 10
426730.56983684126
 20
1579071.9039367826
 10
426734.778511651
 20
1579074.4265193848
 10
426738.7196642082
 20
1579077.3494773319
 10
426742.3553390593
 20
1579080.6446609406
 10
426747.3553390593
 20
1579085.6446609406
 10
426750.2042974564
 20
1579088.78800214
 10
426752.2417618644
 20
1579089.7301399885
 10
426756.572374014
 20
1579092.2895194078
 10
426760.6239027341
 20
1579095.2710860486
 10
426764.3553390593
 20
1579098.6446609406
 10
426769.3553390593
 20
1579103.6446609406
 10
426772.5579015303
 20
1579107.1678114233
 10
426775.4108364396
 20
1579110.9796034044
 10
426777.8882745196
 20
1579115.0454730855
 10
426779.96775135695
 20
1579119.3285527937
 10
426781.6304110911
 20
1579123.790005283
 10
426782.8611773915
 20
1579128.389375894
 10
426783.6488901637
 20
1579133.084959382
 10
426783.9864067448
 20
1579137.8341780822
 10
426783.87066667
 20
1579142.593967987
 10
426783.4553679117
 20
1579146.0506284798
 10
426783.7592363336
 20
1579148.0991429836
 10
426784.0
 20
1579153.0
 10
426783.7592363336
 20
1579157.9008570164
 10
426783.03926402016
 20
1579162.7545161007
 10
426781.84701678663
 20
1579167.5142338627
 10
426780.19397662557
 20
1579172.1341716184
 10
426780.0
 20
1579172.5443007348
 10
426780.0
 20
1579179.0
 10
426779.74958688894
 20
1579183.856541604
 10
426981.28593586845
 20
1579187.6855352612
 10
426982.79618166806
 20
1579177.5042850825
  0
TEXT
  5
1D5
330
17
100
AcDbEntity
  8
C-ZONE-ANNO
100
AcDbText
 10
426769.50530310365
 20
1578995.9357696977
 30
0.0
 40
14.0
  1
ZONE B
 72
1
 11
426769.50530310365
 21
1578995.9357696977
 31
0.0
100
AcDbText
 73
2
  0
TEXT
  5
1D6
330
17
100
AcDbEntity
  8
C-ZONE-ANNO
100
AcDbText
 10
426769.50530310365
 20
1578977.9357696977
 30
0.0
 40
5.0
  1
2.04 AC · 310 FT LAKE FRONTAGE · 5 PADS
 72
1
 11
426769.50530310365
 21
1578977.9357696977
 31
0.0
100
AcDbText
 73
2
  0
LWPOLYLINE
  5
1D7
330
17
100
AcDbEntity
  8
C-ZONE-BNDY
100
AcDbPolyline
 90
127
 70
1
 10
426601.637193839
 20
1578795.1183087162
 10
426577.8932795469
 20
1578800.096006991
 10
426554.7436295751
 20
1578807.351670449
 10
426545.54825241404
 20
1578811.248143401
 10
426541.1634586417
 20
1578812.6989159116
 10
426521.39048965595
 20
1578821.4250080695
 10
426518.851055931
 20
1578821.589780911
 10
426511.5510326126
 20
1578822.7744116143
 10
426495.5470117108
 20
1578823.9864730954
 10
426470.6733487128
 20
1578828.42802223
 10
426446.3750525169
 20
1578835.3576161307
 10
426422.9003259303
 20
1578844.7044702186
 10
426400.48895914236
 20
1578856.373108029
 10
426383.8447204779
 20
1578867.305215382
 10
426365.0220449991
 20
1578878.2144052759
 10
426344.8262381114
 20
1578892.7827976393
 10
426334.8262381114
 20
1578900.7827976393
 10
426312.2987337454
 20
1578921.169060407
 10
426292.41054175573
 20
1578944.1374731073
 10
426279.41054175573
 20
1578961.1374731073
 10
426265.84122980264
 20
1578980.755316824
 10
426261.28325798135
 20
1578988.9101658275
 10
426261.84701678663
 20
1578990.4857661373
 10
426263.03926402016
 20
1578995.2454838993
 10
426263.5147754445
 20
1578998.451121535
 10
426264.02401345776
 20
1578999.2958602968
 10
426266.11582955666
 20
1579003.6782437572
 10
426267.772663085
 20
1579008.242877592
 10
426268.97888614004
 20
1579012.9467063865
 10
426269.7231211533
 20
1579017.745361785
 10
426269.9983482086
 20
1579022.5935809894
 10
426269.8019712565
 20
1579027.445633697
 10
426269.1358426013
 20
1579032.2557534461
 10
426268.00624542957
 20
1579036.978569303
 10
426266.42383454426
 20
1579041.5695338177
 10
426266.0
 20
1579042.6291201783
 10
426266.0
 20
1579043.0
 10
426265.7592363336
 20
1579047.9008570164
 10
426265.03926402016
 20
1579052.7545161007
 10
426263.84701678663
 20
1579057.5142338627
 10
426262.19397662557
 20
1579062.1341716184
 10
426260.0960632174
 20
1579066.5698368414
 10
426258.5410028242
 20
1579069.164298366
 10
426258.19397662557
 20
1579070.1341716184
 10
426256.0960632174
 20
1579074.5698368414
 10
426253.5734806151
 20
1579078.778511651
 10
426250.6505226681
 20
1579082.7196642081
 10
426247.3553390593
 20
1579086.3553390594
 10
426245.70160244487
 20
1579088.0090756738
 10
426245.43416490254
 20
1579088.8113883007
 10
426243.52496009483
 20
1579093.6755413075
 10
426241.1185308085
 20
1579098.3138756598
 10
426238.2411601099
 20
1579102.6757313812
 10
426234.9242746964
 20
1579106.713468201
 10
426227.43875606556
 20
1579114.911893368
 10
426227.2368434357
 20
1579116.2730777524
 10
426227.05025576864
 20
1579117.0037721323
 10
426224.54273850215
 20
1579133.3002608125
 10
426220.8036798992
 20
1579148.227419496
 10
426217.20381833194
 20
1579172.4957149175
 10
426216.92430478364
 20
1579178.1853439005
 10
426419.27683930163
 20
1579179.3447987873
 10
426419.80602337443
 20
1579177.8658283816
 10
426421.9039367826
 20
1579173.4301631586
 10
426422.3644797789
 20
1579172.6617935894
 10
426422.2054547309
 20
1579171.5280527212
 10
426422.00110798934
 20
1579166.6671371055
 10
426422.27015592146
 20
1579161.80937307
 10
426423.0100511537
 20
1579157.0007544265
 10
426424.2137882816
 20
1579152.2868096728
 10
426425.8699701977
 20
1579147.7121709248
 10
426426.106841221
 20
1579147.215100158
 10
426426.0
 20
1579145.0
 10
426426.0
 20
1579141.0
 10
426426.2407636664
 20
1579136.0991429836
 10
426426.96073597984
 20
1579131.2454838993
 10
426428.1134291897
 20
1579126.6436746512
 10
426428.20215525717
 20
1579124.5083790263
 10
426428.6958466914
 20
1579120.963507771
 10
426428.3063417802
 20
1579118.5263308564
 10
426428.0058543979
 20
1579113.7651179759
 10
426428.16050253366
 20
1579108.9969396328
 10
426428.76887830545
 20
1579104.2652042557
 10
426429.8254431963
 20
1579099.612988505
 10
426431.3205784758
 20
1579095.0826451124
 10
426433.2406727668
 20
1579090.7154173108
 10
426435.5682459605
 20
1579086.5510633648
 10
426438.2821083511
 20
1579082.6274946216
 10
426451.2821083511
 20
1579065.6274946216
 10
426455.259746749
 20
1579061.0338120814
 10
426459.7652476223
 20
1579056.956559528
 10
426469.7652476223
 20
1579048.956559528
 10
426473.8044089998
 20
1579046.0428810553
 10
426478.11339792644
 20
1579043.5454901555
 10
426482.6494617397
 20
1579041.4891652886
 10
426487.36759479955
 20
1579039.8943087729
 10
426488.12421561335
 20
1579039.7200857126
 10
426493.5517634189
 20
1579034.8352926876
 10
426497.47397606185
 20
1579031.6488672972
 10
426501.6977918285
 20
1579028.8746216057
 10
426506.18006518605
 20
1579026.5408940436
 10
426510.8750105034
 20
1579024.6715232262
 10
426515.7346697426
 20
1579023.285604446
 10
426520.70940234215
 20
1579022.3972946191
 10
426525.74839228665
 20
1579022.0156676734
 10
426530.80016718304
 20
1579022.144621861
 10
426532.01644153736
 20
1579022.299470247
 10
426536.63004489156
 20
1579021.0871792773
 10
426541.37021118624
 20
1579020.3179561822
 10
426546.16230863606
 20
1579020.0070177608
 10
426550.9621332461
 20
1579020.1572322182
 10
426553.4562399098
 20
1579020.476625694
 10
426559.18861169915
 20
1579018.5658350976
 10
426563.91410905315
 20
1579017.2444565007
 10
426566.9125545535
 20
1579016.7158873188
 10
426568.4857661373
 20
1579016.1529832133
 10
426573.2454838992
 20
1579014.9607359797
 10
426578.09914298356
 20
1579014.2407636663
 10
426579.6592765797
 20
1579014.1641192175
 10
426583.43016315874
 20
1579011.9039367826
 10
426587.8658283818
 20
1579009.8060233744
 10
426592.4857661373
 20
1579008.1529832133
 10
426597.2454838992
 20
1579006.9607359797
 10
426597.28763388505
 20
1579006.95448362
 10
426606.62645424175
 20
1579002.2850734417
 10
426619.82389956806
 20
1578793.1175791433
 10
426601.637193839
 20
1578795.1183087162
  0
TEXT
  5
1D8
330
17
100
AcDbEntity
  8
C-ZONE-ANNO
100
AcDbText
 10
426435.6449274435
 20
1578994.8327413257
 30
0.0
 40
14.0
  1
ZONE C
 72
1
 11
426435.6449274435
 21
1578994.8327413257
 31
0.0
100
AcDbText
 73
2
  0
TEXT
  5
1D9
330
17
100
AcDbEntity
  8
C-ZONE-ANNO
100
AcDbText
 10
426435.6449274435
 20
1578976.8327413257
 30
0.0
 40
5.0
  1
2.04 AC · 246 FT LAKE FRONTAGE · 8 PADS
 72
1
 11
426435.6449274435
 21
1578976.8327413257
 31
0.0
100
AcDbText
 73
2
  0
LWPOLYLINE
  5
1DA
330
17
100
AcDbEntity
  8
C-ZONE-BNDY
100
AcDbPolyline
 90
98
 70
1
 10
426217.7555491815
 20
1579262.57520309
 10
426221.6941130426
 20
1579286.05312053
 10
426227.8479445445
 20
1579309.0499735852
 10
426236.1612432152
 20
1579331.3572360307
 10
426246.558627402
 20
1579352.772634572
 10
426258.94581780187
 20
1579373.1019829777
 10
426270.40243992035
 20
1579388.4091181594
 10
426277.65750276786
 20
1579400.1480564373
 10
426291.6138547147
 20
1579418.6482730953
 10
426307.22330470337
 20
1579435.7766952966
 10
426326.22330470337
 20
1579454.7766952966
 10
426344.4016789591
 20
1579471.2526133407
 10
426364.1074417451
 20
1579485.8674030756
 10
426385.1508157935
 20
1579498.4803160871
 10
426407.32914190873
 20
1579508.9698831278
 10
426430.4288306864
 20
1579517.235083933
 10
426454.227419496
 20
1579523.196320101
 10
426478.4957149176
 20
1579526.796181668
 10
426482.5785960071
 20
1579526.996760754
 10
426496.55708563415
 20
1579533.8020726868
 10
426519.1968595708
 20
1579542.230736684
 10
426542.5444550227
 20
1579548.4348907196
 10
426566.38186083233
 20
1579552.3566027118
 10
426590.4864921753
 20
1579553.9592531736
 10
426595.391181905
 20
1579553.8106961842
 10
426595.391181905
 20
1579353.9526605038
 10
426594.09729843505
 20
1579353.9918506348
 10
426589.27637216647
 20
1579353.6713205425
 10
426584.5088910045
 20
1579352.8869781438
 10
426579.8393719141
 20
1579351.6461473368
 10
426575.3114171268
 20
1579349.9604145375
 10
426570.96730699926
 20
1579347.845520491
 10
426566.8476052152
 20
1579345.3212132915
 10
426563.13518621534
 20
1579342.5200249976
 10
426559.9855347159
 20
1579341.692408539
 10
426555.4795232571
 20
1579340.032064778
 10
426551.1535755522
 20
1579337.9471050361
 10
426547.0475956668
 20
1579335.4567617162
 10
426543.41584840877
 20
1579332.745548402
 10
426541.4795232571
 20
1579332.032064778
 10
426537.1535755522
 20
1579329.9471050361
 10
426536.5107371922
 20
1579329.5572131565
 10
426536.08262587775
 20
1579329.5191875463
 10
426534.0824818141
 20
1579329.1366021584
 10
426533.3211692341
 20
1579329.3027194238
 10
426528.5939679871
 20
1579329.87066667
 10
426523.8341780822
 20
1579329.9864067447
 10
426519.084959382
 20
1579329.6488901637
 10
426514.38937589404
 20
1579328.8611773914
 10
426509.79000528296
 20
1579327.630411091
 10
426509.499408307
 20
1579327.5221136494
 10
426507.90085701644
 20
1579327.7592363337
 10
426503.0
 20
1579328.0
 10
426498.09914298356
 20
1579327.7592363337
 10
426493.2454838992
 20
1579327.0392640203
 10
426488.4857661373
 20
1579325.8470167867
 10
426483.8658283818
 20
1579324.1939766256
 10
426479.43016315874
 20
1579322.0960632174
 10
426475.221488349
 20
1579319.5734806152
 10
426471.2803357918
 20
1579316.6505226681
 10
426467.6446609407
 20
1579313.3553390594
 10
426448.6446609407
 20
1579294.3553390594
 10
426445.52277094295
 20
1579290.929654619
 10
426442.73150055355
 20
1579287.2296112874
 10
426440.2948340548
 20
1579283.2870020731
 10
426438.23370875797
 20
1579279.1357042575
 10
426436.56583509746
 20
1579274.8113883007
 10
426436.29839755513
 20
1579274.0090756738
 10
426430.6446609407
 20
1579268.3553390594
 10
426427.4420984697
 20
1579264.8321885767
 10
426424.5891635604
 20
1579261.0203965956
 10
426422.1117254804
 20
1579256.9545269145
 10
426420.03224864305
 20
1579252.6714472063
 10
426418.3695889089
 20
1579248.209994717
 10
426417.1388226085
 20
1579243.610624106
 10
426416.3511098363
 20
1579238.915040618
 10
426416.0135932552
 20
1579234.1658219178
 10
426416.12933333
 20
1579229.406032013
 10
426416.6972805762
 20
1579224.678830766
 10
426417.7122850764
 20
1579220.0270825387
 10
426418.18344152975
 20
1579218.556685979
 10
426418.0070177607
 20
1579215.8376913639
 10
426418.0322278014
 20
1579215.0321512348
 10
426416.96073597984
 20
1579210.7545161007
 10
426416.2407636664
 20
1579205.9008570164
 10
426416.0
 20
1579201.0
 10
426416.0
 20
1579197.0
 10
426416.2407636664
 20
1579192.0991429836
 10
426416.96073597984
 20
1579187.2454838993
 10
426418.15298321337
 20
1579182.4857661373
 10
426419.27683930163
 20
1579179.3447987873
 10
426216.92430478364
 20
1579178.1853439005
 10
426216.0
 20
1579197.0
 10
426216.0
 20
1579201.0
 10
426216.6768965993
 20
1579214.778546813
 10
426216.64666665014
 20
1579215.0301600646
 10
426216.067966276
 20
1579238.8291095893
 10
426217.7555491815
 20
1579262.57520309
  0
TEXT
  5
1DB
330
17
100
AcDbEntity
  8
C-ZONE-ANNO
100
AcDbText
 10
426424.257427113
 20
1579373.5469168061
 30
0.0
 40
14.0
  1
ZONE D
 72
1
 11
426424.257427113
 21
1579373.5469168061
 31
0.0
100
AcDbText
 73
2
  0
TEXT
  5
1DC
330
17
100
AcDbEntity
  8
C-ZONE-ANNO
100
AcDbText
 10
426424.257427113
 20
1579355.5469168061
 30
0.0
 40
5.0
  1
2.04 AC · 247 FT LAKE FRONTAGE · 5 PADS
 72
1
 11
426424.257427113
 21
1579355.5469168061
 31
0.0
100
AcDbText
 73
2
  0
LWPOLYLINE
  5
1DD
330
17
100
AcDbEntity
  8
A-UNIT-PAD
100
AcDbPolyline
 90
5
 70
1
 10
426775.5054708364
 20
1578918.2991984983
 10
426792.8287714195
 20
1578871.396072196
 10
426825.6609598309
 20
1578883.5223826042
 10
426808.33765924786
 20
1578930.4255089064
 10
426775.5054708364
 20
1578918.2991984983
  0
TEXT
  5
1DE
330
17
100
AcDbEntity
  8
A-UNIT-ANNO
100
AcDbText
 10
426800.58321533375
 20
1578900.910790551
 30
0.0
 40
4.0
  1
B05
 72
1
 11
426800.58321533375
 21
1578900.910790551
 31
0.0
100
AcDbText
 73
2
  0
LWPOLYLINE
  5
1DF
330
17
100
AcDbEntity
  8
A-UNIT-PAD
100
AcDbPolyline
 90
5
 70
1
 10
426726.88313662715
 20
1578901.8811690554
 10
426742.10927217273
 20
1578854.2559152886
 10
426775.44694980944
 20
1578864.9142101705
 10
426760.22081426386
 20
1578912.5394639373
 10
426726.88313662715
 20
1578901.8811690554
  0
TEXT
  5
1E0
330
17
100
AcDbEntity
  8
A-UNIT-ANNO
100
AcDbText
 10
426751.16504321835
 20
1578883.397689613
 30
0.0
 40
4.0
  1
B04
 72
1
 11
426751.16504321835
 21
1578883.397689613
 31
0.0
100
AcDbText
 73
2
  0
LWPOLYLINE
  5
1E1
330
17
100
AcDbEntity
  8
A-UNIT-PAD
100
AcDbPolyline
 90
5
 70
1
 10
426679.25788286055
 20
1578886.6550335092
 10
426694.4840184062
 20
1578839.0297797425
 10
426727.8216960429
 20
1578849.6880746244
 10
426712.59556049726
 20
1578897.3133283912
 10
426679.25788286055
 20
1578886.6550335092
  0
TEXT
  5
1E2
330
17
100
AcDbEntity
  8
A-UNIT-ANNO
100
AcDbText
 10
426703.5397894517
 20
1578868.1715540672
 30
0.0
 40
4.0
  1
B03
 72
1
 11
426703.5397894517
 21
1578868.1715540672
 31
0.0
100
AcDbText
 73
2
  0
LWPOLYLINE
  5
1E3
330
17
100
AcDbEntity
  8
A-UNIT-PAD
100
AcDbPolyline
 90
5
 70
1
 10
426618.92756983207
 20
1578885.2051807072
 10
426617.1865079282
 20
1578835.235502867
 10
426652.1652824163
 20
1578834.0167595344
 10
426653.90634432016
 20
1578883.9864373745
 10
426618.92756983207
 20
1578885.2051807072
  0
TEXT
  5
1E4
330
17
100
AcDbEntity
  8
A-UNIT-ANNO
100
AcDbText
 10
426635.5464261242
 20
1578859.6109701206
 30
0.0
 40
4.0
  1
B02
 72
1
 11
426635.5464261242
 21
1578859.6109701206
 31
0.0
100
AcDbText
 73
2
  0
LWPOLYLINE
  5
1E5
330
17
100
AcDbEntity
  8
A-UNIT-PAD
100
AcDbPolyline
 90
5
 70
1
 10
426562.8029853469
 20
1578897.3663782207
 10
426548.26810363296
 20
1578849.525629757
 10
426581.75662755757
 20
1578839.3512125572
 10
426596.29150927137
 20
1578887.191961021
 10
426562.8029853469
 20
1578897.3663782207
  0
TEXT
  5
1E6
330
17
100
AcDbEntity
  8
A-UNIT-ANNO
100
AcDbText
 10
426572.27980645205
 20
1578868.3587953886
 30
0.0
 40
4.0
  1
C08
 72
1
 11
426572.27980645205
 21
1578868.3587953886
 31
0.0
100
AcDbText
 73
2
  0
LWPOLYLINE
  5
1E7
330
17
100
AcDbEntity
  8
A-UNIT-PAD
100
AcDbPolyline
 90
5
 70
1
 10
426513.1735842178
 20
1578914.6671707837
 10
426494.54259220196
 20
1578868.2679667333
 10
426527.02203503717
 20
1578855.2262723222
 10
426545.653027053
 20
1578901.6254763727
 10
426513.1735842178
 20
1578914.6671707837
  0
TEXT
  5
1E8
330
17
100
AcDbEntity
  8
A-UNIT-ANNO
100
AcDbText
 10
426520.0978096276
 20
1578884.9467215529
 30
0.0
 40
4.0
  1
C07
 72
1
 11
426520.0978096276
 21
1578884.9467215529
 31
0.0
100
AcDbText
 73
2
  0
LWPOLYLINE
  5
1E9
330
17
100
AcDbEntity
  8
A-UNIT-PAD
100
AcDbPolyline
 90
5
 70
1
 10
426466.774380167
 20
1578933.2981627982
 10
426448.1433881512
 20
1578886.8989587477
 10
426480.6228309864
 20
1578873.8572643367
 10
426499.25382300233
 20
1578920.2564683869
 10
426466.774380167
 20
1578933.2981627982
  0
TEXT
  5
1EA
330
17
100
AcDbEntity
  8
A-UNIT-ANNO
100
AcDbText
 10
426473.6986055767
 20
1578903.5777135673
 30
0.0
 40
4.0
  1
C06
 72
1
 11
426473.6986055767
 21
1578903.5777135673
 31
0.0
100
AcDbText
 73
2
  0
LWPOLYLINE
  5
1EB
330
17
100
AcDbEntity
  8
A-UNIT-PAD
100
AcDbPolyline
 90
5
 70
1
 10
426419.6159523742
 20
1578960.3431258416
 10
426394.4292082577
 20
1578917.1502106725
 10
426424.6642488758
 20
1578899.5194897908
 10
426449.8509929925
 20
1578942.7124049598
 10
426419.6159523742
 20
1578960.3431258416
  0
TEXT
  5
1EC
330
17
100
AcDbEntity
  8
A-UNIT-ANNO
100
AcDbText
 10
426422.14010062505
 20
1578929.9313078162
 30
0.0
 40
4.0
  1
C05
 72
1
 11
426422.14010062505
 21
1578929.9313078162
 31
0.0
100
AcDbText
 73
2
  0
LWPOLYLINE
  5
1ED
330
17
100
AcDbEntity
  8
A-UNIT-PAD
100
AcDbPolyline
 90
5
 70
1
 10
426377.7582497569
 20
1579001.1849223832
 10
426341.4428684397
 20
1578966.8164327482
 10
426365.5008111843
 20
1578941.3956658263
 10
426401.81619250146
 20
1578975.7641554612
 10
426377.7582497569
 20
1579001.1849223832
  0
TEXT
  5
1EE
330
17
100
AcDbEntity
  8
A-UNIT-ANNO
100
AcDbText
 10
426371.6295304708
 20
1578971.2902941045
 30
0.0
 40
4.0
  1
C04
 72
1
 11
426371.6295304708
 21
1578971.2902941045
 31
0.0
100
AcDbText
 73
2
  0
LWPOLYLINE
  5
1EF
330
17
100
AcDbEntity
  8
A-UNIT-PAD
100
AcDbPolyline
 90
5
 70
1
 10
426352.8160576774
 20
1579058.9477163795
 10
426305.6243559951
 20
1579042.4267208788
 10
426317.1890528456
 20
1579009.3925297013
 10
426364.38075452787
 20
1579025.9135252018
 10
426352.8160576774
 20
1579058.9477163795
  0
TEXT
  5
1F0
330
17
100
AcDbEntity
  8
A-UNIT-ANNO
100
AcDbText
 10
426335.0025552616
 20
1579034.1701230402
 30
0.0
 40
4.0
  1
C03
 72
1
 11
426335.0025552616
 21
1579034.1701230402
 31
0.0
100
AcDbText
 73
2
  0
LWPOLYLINE
  5
1F1
330
17
100
AcDbEntity
  8
A-UNIT-PAD
100
AcDbPolyline
 90
5
 70
1
 10
426337.7768048062
 20
1579108.8371444396
 10
426289.5287964796
 20
1579095.717323842
 10
426298.71267089783
 20
1579061.9437180134
 10
426346.96067922446
 20
1579075.063538611
 10
426337.7768048062
 20
1579108.8371444396
  0
TEXT
  5
1F2
330
17
100
AcDbEntity
  8
A-UNIT-ANNO
100
AcDbText
 10
426318.2447378521
 20
1579085.3904312267
 30
0.0
 40
4.0
  1
C02
 72
1
 11
426318.2447378521
 21
1579085.3904312267
 31
0.0
100
AcDbText
 73
2
  0
LWPOLYLINE
  5
1F3
330
17
100
AcDbEntity
  8
A-UNIT-PAD
100
AcDbPolyline
 90
5
 70
1
 10
426330.1461081819
 20
1579163.7586481723
 10
426280.29517775495
 20
1579159.9005740962
 10
426282.9958296083
 20
1579125.0049227974
 10
426332.84676003526
 20
1579128.8629968734
 10
426330.1461081819
 20
1579163.7586481723
  0
TEXT
  5
1F4
330
17
100
AcDbEntity
  8
A-UNIT-ANNO
100
AcDbText
 10
426306.5709688949
 20
1579144.381785485
 30
0.0
 40
4.0
  1
C01
 72
1
 11
426306.5709688949
 21
1579144.381785485
 31
0.0
100
AcDbText
 73
2
  0
LWPOLYLINE
  5
1F5
330
17
100
AcDbEntity
  8
A-UNIT-PAD
100
AcDbPolyline
 90
5
 70
1
 10
426362.66739994916
 20
1579320.5808420049
 10
426314.68307300634
 20
1579334.6344667273
 10
426304.8455357007
 20
1579301.0454378673
 10
426352.8298626435
 20
1579286.9918131449
 10
426362.66739994916
 20
1579320.5808420049
  0
TEXT
  5
1F6
330
17
100
AcDbEntity
  8
A-UNIT-ANNO
100
AcDbText
 10
426333.7564678251
 20
1579310.8131399362
 30
0.0
 40
4.0
  1
D01
 72
1
 11
426333.7564678251
 21
1579310.8131399362
 31
0.0
100
AcDbText
 73
2
  0
LWPOLYLINE
  5
1F7
330
17
100
AcDbEntity
  8
A-UNIT-PAD
100
AcDbPolyline
 90
5
 70
1
 10
426408.7383601577
 20
1579370.1592975091
 10
426377.2638966234
 20
1579409.0097562606
 10
426350.06857549713
 20
1579386.9776317866
 10
426381.54303903144
 20
1579348.127173035
 10
426408.7383601577
 20
1579370.1592975091
  0
TEXT
  5
1F8
330
17
100
AcDbEntity
  8
A-UNIT-ANNO
100
AcDbText
 10
426379.40346782736
 20
1579378.5684646477
 30
0.0
 40
4.0
  1
D02
 72
1
 11
426379.40346782736
 21
1579378.5684646477
 31
0.0
100
AcDbText
 73
2
  0
LWPOLYLINE
  5
1F9
330
17
100
AcDbEntity
  8
A-UNIT-PAD
100
AcDbPolyline
 90
5
 70
1
 10
426463.59811934107
 20
1579392.901702988
 10
426445.9026400163
 20
1579439.6656849768
 10
426413.16785262397
 20
1579427.2788494495
 10
426430.86333194876
 20
1579380.5148674606
 10
426463.59811934107
 20
1579392.901702988
  0
TEXT
  5
1FA
330
17
100
AcDbEntity
  8
A-UNIT-ANNO
100
AcDbText
 10
426438.38298598246
 20
1579410.0902762187
 30
0.0
 40
4.0
  1
D03
 72
1
 11
426438.38298598246
 21
1579410.0902762187
 31
0.0
100
AcDbText
 73
2
  0
LWPOLYLINE
  5
1FB
330
17
100
AcDbEntity
  8
A-UNIT-PAD
100
AcDbPolyline
 90
5
 70
1
 10
426513.85304039455
 20
1579407.1393544693
 10
426499.6386739354
 20
1579455.0763108407
 10
426466.08280447527
 20
1579445.1262543192
 10
426480.29717093444
 20
1579397.1892979478
 10
426513.85304039455
 20
1579407.1393544693
  0
TEXT
  5
1FC
330
17
100
AcDbEntity
  8
A-UNIT-ANNO
100
AcDbText
 10
426489.9679224349
 20
1579426.1328043942
 30
0.0
 40
4.0
  1
D04
 72
1
 11
426489.9679224349
 21
1579426.1328043942
 31
0.0
100
AcDbText
 73
2
  0
LWPOLYLINE
  5
1FD
330
17
100
AcDbEntity
  8
A-UNIT-PAD
100
AcDbPolyline
 90
5
 70
1
 10
426568.9072629447
 20
1579411.7188919035
 10
426562.8697210379
 20
1579461.3530342628
 10
426528.1258213866
 20
1579457.1267549281
 10
426534.16336329334
 20
1579407.492612569
 10
426568.9072629447
 20
1579411.7188919035
  0
TEXT
  5
1FE
330
17
100
AcDbEntity
  8
A-UNIT-ANNO
100
AcDbText
 10
426548.51654216566
 20
1579434.4228234158
 30
0.0
 40
4.0
  1
D05
 72
1
 11
426548.51654216566
 21
1579434.4228234158
 31
0.0
100
AcDbText
 73
2
  0
LWPOLYLINE
  5
1FF
330
17
100
AcDbEntity
  8
A-UNIT-PAD
100
AcDbPolyline
 90
5
 70
1
 10
426672.8690783999
 20
1579416.0950135908
 10
426674.0190849796
 20
1579466.0817866898
 10
426639.02834381023
 20
1579466.8867912956
 10
426637.87833723053
 20
1579416.9000181966
 10
426672.8690783999
 20
1579416.0950135908
  0
TEXT
  5
200
330
17
100
AcDbEntity
  8
A-UNIT-ANNO
100
AcDbText
 10
426655.94871110504
 20
1579441.490902443
 30
0.0
 40
4.0
  1
A01
 72
1
 11
426655.94871110504
 21
1579441.490902443
 31
0.0
100
AcDbText
 73
2
  0
LWPOLYLINE
  5
201
330
17
100
AcDbEntity
  8
A-UNIT-PAD
100
AcDbPolyline
 90
5
 70
1
 10
426724.313549271
 20
1579413.0582721692
 10
426728.0404968609
 20
1579462.9191773122
 10
426693.13786326087
 20
1579465.5280406252
 10
426689.410915671
 20
1579415.6671354822
 10
426724.313549271
 20
1579413.0582721692
  0
TEXT
  5
202
330
17
100
AcDbEntity
  8
A-UNIT-ANNO
100
AcDbText
 10
426708.7257062659
 20
1579439.293156397
 30
0.0
 40
4.0
  1
A02
 72
1
 11
426708.7257062659
 21
1579439.293156397
 31
0.0
100
AcDbText
 73
2
  0
LWPOLYLINE
  5
203
330
17
100
AcDbEntity
  8
A-UNIT-PAD
100
AcDbPolyline
 90
5
 70
1
 10
426782.0690500424
 20
1579390.505879026
 10
426806.5301062674
 20
1579434.113868298
 10
426776.0045137771
 20
1579451.2366076557
 10
426751.5434575521
 20
1579407.6286183835
 10
426782.0690500424
 20
1579390.505879026
  0
TEXT
  5
204
330
17
100
AcDbEntity
  8
A-UNIT-ANNO
100
AcDbText
 10
426779.0367819097
 20
1579420.871243341
 30
0.0
 40
4.0
  1
A03
 72
1
 11
426779.0367819097
 21
1579420.871243341
 31
0.0
100
AcDbText
 73
2
  0
LWPOLYLINE
  5
205
330
17
100
AcDbEntity
  8
A-UNIT-PAD
100
AcDbPolyline
 90
5
 70
1
 10
426837.00003861636
 20
1579281.3785273398
 10
426886.01013893774
 20
1579291.278530698
 10
426879.08013658714
 20
1579325.585600923
 10
426830.07003626577
 20
1579315.6855975648
 10
426837.00003861636
 20
1579281.3785273398
  0
TEXT
  5
206
330
17
100
AcDbEntity
  8
A-UNIT-ANNO
100
AcDbText
 10
426858.04008760175
 20
1579303.4820641314
 30
0.0
 40
4.0
  1
A04
 72
1
 11
426858.04008760175
 21
1579303.4820641314
 31
0.0
100
AcDbText
 73
2
  0
LWPOLYLINE
  5
207
330
17
100
AcDbEntity
  8
A-UNIT-PAD
100
AcDbPolyline
 90
5
 70
1
 10
426737.394209554
 20
1579021.4860763624
 10
426754.71751013695
 20
1578974.5829500603
 10
426787.54969854845
 20
1578986.7092604684
 10
426770.2263979655
 20
1579033.6123867705
 10
426737.394209554
 20
1579021.4860763624
  0
TEXT
  5
208
330
17
100
AcDbEntity
  8
A-UNIT-ANNO
100
AcDbText
 10
426762.4719540512
 20
1579004.0976684154
 30
0.0
 40
4.0
  1
B01
 72
1
 11
426762.4719540512
 21
1579004.0976684154
 31
0.0
100
AcDbText
 73
2
  0
DIMENSION
  5
209
330
17
100
AcDbEntity
  8
G-ANNO-DIMS
100
AcDbDimension
280
0
  2
*D1
  3
EZDXF
 10
426734.0
 20
1579165.0
 30
0.0
 11
426759.0
 21
1579167.1
 31
0.0
 70
32
 71
5
  1
<>
100
AcDbAlignedDimension
 13
426734.0
 23
1579153.0
 33
0.0
 14
426784.0
 24
1579153.0
 34
0.0
 50
0.0
100
AcDbRotatedDimension
1001
ACAD
1000
DSTYLE
1002
{
1070
140
1040
4.0
1070
41
1040
3.0
1002
}
  0
TEXT
  5
218
330
17
100
AcDbEntity
  8
G-ANNO-DIMS
100
AcDbText
 10
426759.0
 20
1579169.0
 30
0.0
 40
4.0
  1
50 FT WATER BUFFER (NO BUILD)
 72
1
 11
426759.0
 21
1579169.0
 31
0.0
100
AcDbText
 73
2
  0
DIMENSION
  5
219
330
17
100
AcDbEntity
  8
G-ANNO-DIMS
100
AcDbDimension
280
0
  2
*D2
  3
EZDXF
 10
426784.0
 20
1579177.0
 30
0.0
 11
426884.0
 21
1579179.1
 31
0.0
 70
32
 71
5
  1
<>
100
AcDbAlignedDimension
 13
426784.0
 23
1579153.0
 33
0.0
 14
426984.0
 24
1579153.0
 34
0.0
 50
0.0
100
AcDbRotatedDimension
1001
ACAD
1000
DSTYLE
1002
{
1070
140
1040
4.0
1070
41
1040
3.0
1002
}
  0
TEXT
  5
228
330
17
100
AcDbEntity
  8
G-ANNO-DIMS
100
AcDbText
 10
426884.0
 20
1579181.0
 30
0.0
 40
4.0
  1
200 FT ZONE DEPTH (LIMIT 250 FT FROM WATER)
 72
1
 11
426884.0
 21
1579181.0
 31
0.0
100
AcDbText
 73
2
  0
DIMENSION
  5
229
330
17
100
AcDbEntity
  8
G-ANNO-DIMS
100
AcDbDimension
280
0
  2
*D3
  3
EZDXF
 10
426639.16634459957
 20
1579472.8852040672
 30
0.0
 11
426656.7100154606
 21
1579474.5821462346
 31
0.0
 70
32
 71
5
  1
<>
100
AcDbAlignedDimension
 13
426638.4533405203
 23
1579441.8934047457
 33
0.0
 14
426673.44408168975
 24
1579441.0884001402
 34
0.0
 50
-1.3179266841544037
100
AcDbRotatedDimension
1001
ACAD
1000
DSTYLE
1002
{
1070
140
1040
4.0
1070
41
1040
3.0
1002
}
  0
TEXT
  5
238
330
17
100
AcDbEntity
  8
G-ANNO-DIMS
100
AcDbText
 10
426655.94871110504
 20
1579476.490902443
 30
0.0
 40
4.0
  1
PAD 35 FT WIDE
 72
1
 11
426655.94871110504
 21
1579476.490902443
 31
0.0
100
AcDbText
 73
2
  0
DIMENSION
  5
239
330
17
100
AcDbEntity
  8
G-ANNO-DIMS
100
AcDbDimension
280
0
  2
*D4
  3
EZDXF
 10
426631.87992445857
 20
1579417.0380189866
 30
0.0
 11
426630.3554832782
 21
1579442.0797058127
 31
0.0
 70
32
 71
5
  1
<>
100
AcDbAlignedDimension
 13
426655.3737078152
 23
1579416.4975158933
 33
0.0
 14
426656.5237143949
 24
1579466.4842889926
 34
0.0
 50
88.68207331546718
100
AcDbRotatedDimension
1001
ACAD
1000
DSTYLE
1002
{
1070
140
1040
4.0
1070
41
1040
3.0
1002
}
  0
TEXT
  5
248
330
17
100
AcDbEntity
  8
G-ANNO-DIMS
100
AcDbText
 10
426655.94871110504
 20
1579468.990902443
 30
0.0
 40
4.0
  1
PAD 50 FT DEEP
 72
1
 11
426655.94871110504
 21
1579468.990902443
 31
0.0
100
AcDbText
 73
2
  0
MTEXT
  5
249
330
17
100
AcDbEntity
  8
G-ANNO-NOTE
100
AcDbMText
 10
426176.0
 20
1579673.9592531736
 30
0.0
 40
4.0
 41
520.0
 71
1
  3
LAKE ZONES CONCEPT - FOUR EQUAL-AREA ZONES AROUND THE ROUND LAKE\PGENERATED 2026-09-28 ON THE LIDAR BASE (USGS 3DEP 2018); CONCEPT GRADE, NOT A SURVEY; NO PARCEL LINES; ZONING NOT YET VERIFIED\PRULES USED: 50 FT NO-BUILD BUFFER FROM THE 2018 WATER ED
  3
GE; ZONES EXTEND TO 250 FT FROM THE WATER; ZONE LINES RADIATE FROM THE LAKE CENTROID AT AZIMUTHS 0, 89, 176, 270 (EQUAL AREAS 2.04 AC EACH)\PEXISTING LOOP TRACK USED AS THE LANE (20 FT); PADS 35 x 50 FT SET 20 FT BACK FROM THE LANE EDGE, 15 FT BETWEE
  3
N PADS, 20 FT FROM EXISTING BUILDINGS, 25 FT FROM OTHER ROADS\PPADS PLACED: 22 (A=4, B=5, C=8, D=5). TREE CIRCLES ARE 2018 CANOPY; PADS OVER TREES NEED CLEARING\PCRS NAD83 / FLORIDA EAST ftUS (EPSG:2236); XREF THE LAKES FOCUS DXF FOR CONTOURS AND ROO
  1
FS
  0
ENDSEC
  0
SECTION
  2
OBJECTS
  0
DICTIONARY
  5
A
330
0
100
AcDbDictionary
281
1
  3
ACAD_COLOR
350
B
  3
ACAD_GROUP
350
C
  3
ACAD_LAYOUT
350
D
  3
ACAD_MATERIAL
350
E
  3
ACAD_MLEADERSTYLE
350
F
  3
ACAD_MLINESTYLE
350
10
  3
ACAD_PLOTSETTINGS
350
11
  3
ACAD_PLOTSTYLENAME
350
12
  3
ACAD_SCALELIST
350
14
  3
ACAD_TABLESTYLE
350
15
  3
ACAD_VISUALSTYLE
350
16
  3
EZDXF_META
350
2D
  0
DICTIONARY
  5
B
330
A
100
AcDbDictionary
281
1
  0
DICTIONARY
  5
C
330
A
100
AcDbDictionary
281
1
  0
DICTIONARY
  5
D
330
A
100
AcDbDictionary
281
1
  3
Model
350
1A
  3
Layout1
350
1E
  0
DICTIONARY
  5
E
330
A
100
AcDbDictionary
281
1
  3
ByBlock
350
1F
  3
ByLayer
350
20
  3
Global
350
21
  0
DICTIONARY
  5
F
330
A
100
AcDbDictionary
281
1
  3
Standard
350
2C
  0
DICTIONARY
  5
10
330
A
100
AcDbDictionary
281
1
  3
Standard
350
22
  0
DICTIONARY
  5
11
330
A
100
AcDbDictionary
281
1
  0
ACDBDICTIONARYWDFLT
  5
12
330
A
100
AcDbDictionary
281
1
  3
Normal
350
13
100
AcDbDictionaryWithDefault
340
13
  0
ACDBPLACEHOLDER
  5
13
330
12
  0
DICTIONARY
  5
14
330
A
100
AcDbDictionary
281
1
  0
DICTIONARY
  5
15
330
A
100
AcDbDictionary
281
1
  0
DICTIONARY
  5
16
330
A
100
AcDbDictionary
281
1
  3
2dWireframe
350
5A
  3
Basic
350
5B
  3
Brighten
350
5C
  3
ColorChange
350
5D
  3
Conceptual
350
5E
  3
Dim
350
5F
  3
EdgeColorOff
350
60
  3
Facepattern
350
61
  3
Flat
350
62
  3
FlatWithEdges
350
63
  3
Gouraud
350
64
  3
GouraudWithEdges
350
65
  3
Hidden
350
66
  3
JitterOff
350
67
  3
Linepattern
350
68
  3
Modeling
350
69
  3
OverhangOff
350
6A
  3
Realistic
350
6B
  3
Shaded
350
6C
  3
Shaded with edges
350
6D
  3
Shades of Gray
350
6E
  3
Sketchy
350
6F
  3
Thicken
350
70
  3
Wireframe
350
71
  3
X-Ray
350
72
  0
LAYOUT
  5
1A
330
D
100
AcDbPlotSettings
  1

  4
A3
  6

 40
7.5
 41
20.0
 42
7.5
 43
20.0
 44
420.0
 45
297.0
 46
0.0
 47
0.0
 48
0.0
 49
0.0
140
0.0
141
0.0
142
1.0
143
1.0
 70
1024
 72
1
 73
0
 74
5
  7

 75
16
 76
0
 77
2
 78
300
147
1.0
148
0.0
149
0.0
100
AcDbLayout
  1
Model
 70
1
 71
0
 10
0.0
 20
0.0
 11
420.0
 21
297.0
 12
0.0
 22
0.0
 32
0.0
 14
1e+20
 24
1e+20
 34
1e+20
 15
-1e+20
 25
-1e+20
 35
-1e+20
146
0.0
 13
0.0
 23
0.0
 33
0.0
 16
1.0
 26
0.0
 36
0.0
 17
0.0
 27
1.0
 37
0.0
 76
1
330
17
  0
LAYOUT
  5
1E
330
D
100
AcDbPlotSettings
  1

  4
A3
  6

 40
7.5
 41
20.0
 42
7.5
 43
20.0
 44
420.0
 45
297.0
 46
0.0
 47
0.0
 48
0.0
 49
0.0
140
0.0
141
0.0
142
1.0
143
1.0
 70
0
 72
1
 73
0
 74
5
  7

 75
16
 76
0
 77
2
 78
300
147
1.0
148
0.0
149
0.0
100
AcDbLayout
  1
Layout1
 70
1
 71
1
 10
0.0
 20
0.0
 11
420.0
 21
297.0
 12
0.0
 22
0.0
 32
0.0
 14
1e+20
 24
1e+20
 34
1e+20
 15
-1e+20
 25
-1e+20
 35
-1e+20
146
0.0
 13
0.0
 23
0.0
 33
0.0
 16
1.0
 26
0.0
 36
0.0
 17
0.0
 27
1.0
 37
0.0
 76
1
330
1B
  0
MATERIAL
  5
1F
102
{ACAD_REACTORS
330
E
102
}
330
E
100
AcDbMaterial
  1
ByBlock
  2

 70
0
 40
1.0
 71
1
 41
1.0
 91
-1023410177
 42
1.0
 72
1
  3

 73
1
 74
1
 75
1
 44
0.5
 73
0
 45
1.0
 46
1.0
 77
1
  4

 78
1
 79
1
170
1
 48
1.0
171
1
  6

172
1
173
1
174
1
140
1.0
141
1.0
175
1
  7

176
1
177
1
178
1
143
1.0
179
1
  8

270
1
271
1
272
1
145
1.0
146
1.0
273
1
  9

274
1
275
1
276
1
 42
1.0
 72
1
  3

 73
1
 74
1
 75
1
 94
63
  0
MATERIAL
  5
20
102
{ACAD_REACTORS
330
E
102
}
330
E
100
AcDbMaterial
  1
ByLayer
  2

 70
0
 40
1.0
 71
1
 41
1.0
 91
-1023410177
 42
1.0
 72
1
  3

 73
1
 74
1
 75
1
 44
0.5
 73
0
 45
1.0
 46
1.0
 77
1
  4

 78
1
 79
1
170
1
 48
1.0
171
1
  6

172
1
173
1
174
1
140
1.0
141
1.0
175
1
  7

176
1
177
1
178
1
143
1.0
179
1
  8

270
1
271
1
272
1
145
1.0
146
1.0
273
1
  9

274
1
275
1
276
1
 42
1.0
 72
1
  3

 73
1
 74
1
 75
1
 94
63
  0
MATERIAL
  5
21
102
{ACAD_REACTORS
330
E
102
}
330
E
100
AcDbMaterial
  1
Global
  2

 70
0
 40
1.0
 71
1
 41
1.0
 91
-1023410177
 42
1.0
 72
1
  3

 73
1
 74
1
 75
1
 44
0.5
 73
0
 45
1.0
 46
1.0
 77
1
  4

 78
1
 79
1
170
1
 48
1.0
171
1
  6

172
1
173
1
174
1
140
1.0
141
1.0
175
1
  7

176
1
177
1
178
1
143
1.0
179
1
  8

270
1
271
1
272
1
145
1.0
146
1.0
273
1
  9

274
1
275
1
276
1
 42
1.0
 72
1
  3

 73
1
 74
1
 75
1
 94
63
  0
MLINESTYLE
  5
22
102
{ACAD_REACTORS
330
10
102
}
330
10
100
AcDbMlineStyle
  2
Standard
 70
0
  3

 62
256
 51
90.0
 52
90.0
 71
2
 49
0.5
 62
256
  6
BYLAYER
 49
-0.5
 62
256
  6
BYLAYER
  0
MLEADERSTYLE
  5
2C
102
{ACAD_REACTORS
330
F
102
}
330
F
100
AcDbMLeaderStyle
179
2
170
2
171
1
172
0
 90
2
 40
0.0
 41
0.0
173
1
 91
-1056964608
 92
-2
290
1
 42
2.0
291
1
 43
8.0
  3
Standard
 44
4.0
300

342
29
174
1
175
1
176
0
178
1
 93
-1056964608
 45
4.0
292
0
297
0
 46
4.0
 94
-1056964608
 47
1.0
 49
1.0
140
1.0
294
1
141
0.0
177
0
142
1.0
295
0
296
0
143
3.75
271
0
272
9
273
9
  0
DICTIONARY
  5
2D
330
A
100
AcDbDictionary
280
1
281
1
  3
CREATED_BY_EZDXF
350
2E
  3
WRITTEN_BY_EZDXF
350
24C
  0
DICTIONARYVAR
  5
2E
330
2D
100
DictionaryVariables
280
0
  1
1.4.4 @ 2026-09-28T21:19:08.119537+00:00
  0
VISUALSTYLE
  5
5A
102
{ACAD_REACTORS
330
16
102
}
330
16
100
AcDbVisualStyle
  2
2dWireframe
 70
4
177
3
291
0
 70
58
 90
2
176
1
 90
2
176
1
 90
0
176
1
 90
0
176
1
 40
0.6
176
1
 40
30.0
176
1
 62
7
420
16777215
176
1
 90
1
176
1
 90
4
176
1
 62
7
176
1
 62
257
176
1
 90
1
176
1
 90
1
176
1
 40
1.0
176
1
 90
8
176
1
 62
7
176
1
 40
1.0
176
1
 90
1
176
1
 90
6
176
1
 90
2
176
1
 62
7
176
1
 90
5
176
1
 90
0
176
1
 90
0
176
1
290
0
176
1
 90
1
176
1
 40
0.0
176
1
 90
0
176
1
290
1
176
1
290
1
176
1
290
0
176
1
290
0
176
1
290
0
176
1
290
0
176
1
290
0
176
1
290
0
176
1
290
0
176
1
 90
50
176
1
 40
0.0
176
1
 40
1.0
176
1
 90
0
176
1
 62
18
420
0
176
1
 90
50
176
1
 90
3
176
1
 62
5
420
255
176
1
290
0
176
1
 90
50
176
1
 90
50
176
1
 90
50
176
1
290
0
176
1
 90
50
176
1
 62
256
176
0
 40
1.0
176
0
 90
2
176
1
  1
strokes_ogs.tif
176
1
290
0
176
1
 40
1.0
176
1
 40
1.0
176
1
  0
VISUALSTYLE
  5
5B
102
{ACAD_REACTORS
330
16
102
}
330
16
100
AcDbVisualStyle
  2
Basic
 70
7
177
3
291
1
 70
58
 90
2
176
1
 90
2
176
1
 90
0
176
1
 90
1
176
1
 40
0.6
176
1
 40
30.0
176
1
 62
7
420
16777215
176
1
 90
1
176
1
 90
4
176
1
 62
7
176
1
 62
257
176
1
 90
1
176
1
 90
1
176
1
 40
1.0
176
1
 90
8
176
1
 62
7
176
1
 40
1.0
176
1
 90
1
176
1
 90
6
176
1
 90
2
176
1
 62
7
176
1
 90
5
176
1
 90
0
176
1
 90
0
176
1
290
0
176
1
 90
1
176
1
 40
0.0
176
1
 90
0
176
1
290
0
176
1
290
1
176
1
290
1
176
1
290
0
176
1
290
0
176
1
290
0
176
1
290
0
176
1
290
0
176
1
290
0
176
1
 90
50
176
1
 40
0.0
176
1
 40
1.0
176
1
 90
0
176
1
 62
18
420
0
176
1
 90
50
176
1
 90
3
176
1
 62
5
420
255
176
1
290
0
176
1
 90
50
176
1
 90
50
176
1
 90
50
176
1
290
0
176
1
 90
50
176
1
 62
256
176
0
 40
1.0
176
0
 90
2
176
1
  1
strokes_ogs.tif
176
1
290
0
176
1
 40
1.0
176
1
 40
1.0
176
1
  0
VISUALSTYLE
  5
5C
102
{ACAD_REACTORS
330
16
102
}
330
16
100
AcDbVisualStyle
  2
Brighten
 70
12
177
3
291
1
 70
58
 90
2
176
1
 90
2
176
1
 90
0
176
1
 90
2
176
1
 40
0.6
176
1
 40
30.0
176
1
 62
7
420
16777215
176
1
 90
1
176
1
 90
4
176
1
 62
7
176
1
 62
257
176
1
 90
1
176
1
 90
1
176
1
 40
1.0
176
1
 90
8
176
1
 62
7
176
1
 40
1.0
176
1
 90
1
176
1
 90
6
176
1
 90
2
176
1
 62
7
176
1
 90
5
176
1
 90
0
176
1
 90
0
176
1
290
0
176
1
 90
1
176
1
 40
0.0
176
1
 90
0
176
1
290
0
176
1
290
1
176
1
290
1
176
1
290
0
176
1
290
0
176
1
290
0
176
1
290
0
176
1
290
0
176
1
290
0
176
1
 90
50
176
1
 40
0.0
176
1
 40
1.0
176
1
 90
0
176
1
 62
18
420
0
176
1
 90
50
176
1
 90
3
176
1
 62
5
420
255
176
1
290
0
176
1
 90
50
176
1
 90
50
176
1
 90
50
176
1
290
0
176
1
 90
50
176
1
 62
256
176
0
 40
1.0
176
0
 90
2
176
1
  1
strokes_ogs.tif
176
1
290
0
176
1
 40
1.0
176
1
 40
1.0
176
1
  0
VISUALSTYLE
  5
5D
102
{ACAD_REACTORS
330
16
102
}
330
16
100
AcDbVisualStyle
  2
ColorChange
 70
16
177
3
291
1
 70
58
 90
2
176
1
 90
2
176
1
 90
0
176
1
 90
2
176
1
 40
0.6
176
1
 40
30.0
176
1
 62
7
420
16777215
176
1
 90
1
176
1
 90
4
176
1
 62
7
176
1
 62
257
176
1
 90
1
176
1
 90
1
176
1
 40
1.0
176
1
 90
8
176
1
 62
7
176
1
 40
1.0
176
1
 90
1
176
1
 90
6
176
1
 90
2
176
1
 62
7
176
1
 90
5
176
1
 90
0
176
1
 90
0
176
1
290
0
176
1
 90
1
176
1
 40
0.0
176
1
 90
0
176
1
290
0
176
1
290
1
176
1
290
1
176
1
290
0
176
1
290
0
176
1
290
0
176
1
290
0
176
1
290
0
176
1
290
0
176
1
 90
50
176
1
 40
0.0
176
1
 40
1.0
176
1
 90
0
176
1
 62
18
420
0
176
1
 90
50
176
1
 90
3
176
1
 62
5
420
255
176
1
290
0
176
1
 90
50
176
1
 90
50
176
1
 90
50
176
1
290
0
176
1
 90
50
176
1
 62
256
176
0
 40
1.0
176
0
 90
2
176
1
  1
strokes_ogs.tif
176
1
290
0
176
1
 40
1.0
176
1
 40
1.0
176
1
  0
VISUALSTYLE
  5
5E
102
{ACAD_REACTORS
330
16
102
}
330
16
100
AcDbVisualStyle
  2
Conceptual
 70
9
177
3
291
0
 70
58
 90
2
176
1
 90
2
176
1
 90
0
176
1
 90
3
176
1
 40
0.6
176
1
 40
30.0
176
1
 62
7
420
16777215
176
1
 90
1
176
1
 90
4
176
1
 62
7
176
1
 62
257
176
1
 90
1
176
1
 90
1
176
1
 40
1.0
176
1
 90
8
176
1
 62
7
176
1
 40
1.0
176
1
 90
1
176
1
 90
6
176
1
 90
2
176
1
 62
7
176
1
 90
5
176
1
 90
0
176
1
 90
0
176
1
290
0
176
1
 90
1
176
1
 40
0.0
176
1
 90
0
176
1
290
0
176
1
290
1
176
1
290
1
176
1
290
0
176
1
290
0
176
1
290
0
176
1
290
0
176
1
290
0
176
1
290
0
176
1
 90
50
176
1
 40
0.0
176
1
 40
1.0
176
1
 90
0
176
1
 62
18
420
0
176
1
 90
50
176
1
 90
3
176
1
 62
5
420
255
176
1
290
0
176
1
 90
50
176
1
 90
50
176
1
 90
50
176
1
290
0
176
1
 90
50
176
1
 62
256
176
0
 40
1.0
176
0
 90
2
176
1
  1
strokes_ogs.tif
176
1
290
0
176
1
 40
1.0
176
1
 40
1.0
176
1
  0
VISUALSTYLE
  5
5F
102
{ACAD_REACTORS
330
16
102
}
330
16
100
AcDbVisualStyle
  2
Dim
 70
11
177
3
291
1
 70
58
 90
2
176
1
 90
2
176
1
 90
0
176
1
 90
2
176
1
 40
0.6
176
1
 40
30.0
176
1
 62
7
420
16777215
176
1
 90
1
176
1
 90
4
176
1
 62
7
176
1
 62
257
176
1
 90
1
176
1
 90
1
176
1
 40
1.0
176
1
 90
8
176
1
 62
7
176
1
 40
1.0
176
1
 90
1
176
1
 90
6
176
1
 90
2
176
1
 62
7
176
1
 90
5
176
1
 90
0
176
1
 90
0
176
1
290
0
176
1
 90
1
176
1
 40
0.0
176
1
 90
0
176
1
290
0
176
1
290
1
176
1
290
1
176
1
290
0
176
1
290
0
176
1
290
0
176
1
290
0
176
1
290
0
176
1
290
0
176
1
 90
50
176
1
 40
0.0
176
1
 40
1.0
176
1
 90
0
176
1
 62
18
420
0
176
1
 90
50
176
1
 90
3
176
1
 62
5
420
255
176
1
290
0
176
1
 90
50
176
1
 90
50
176
1
 90
50
176
1
290
0
176
1
 90
50
176
1
 62
256
176
0
 40
1.0
176
0
 90
2
176
1
  1
strokes_ogs.tif
176
1
290
0
176
1
 40
1.0
176
1
 40
1.0
176
1
  0
VISUALSTYLE
  5
60
102
{ACAD_REACTORS
330
16
102
}
330
16
100
AcDbVisualStyle
  2
EdgeColorOff
 70
22
177
3
291
1
 70
58
 90
2
176
1
 90
2
176
1
 90
0
176
1
 90
2
176
1
 40
0.6
176
1
 40
30.0
176
1
 62
7
420
16777215
176
1
 90
1
176
1
 90
4
176
1
 62
7
176
1
 62
257
176
1
 90
1
176
1
 90
1
176
1
 40
1.0
176
1
 90
8
176
1
 62
7
176
1
 40
1.0
176
1
 90
1
176
1
 90
6
176
1
 90
2
176
1
 62
7
176
1
 90
5
176
1
 90
0
176
1
 90
0
176
1
290
0
176
1
 90
1
176
1
 40
0.0
176
1
 90
0
176
1
290
0
176
1
290
1
176
1
290
1
176
1
290
0
176
1
290
0
176
1
290
0
176
1
290
0
176
1
290
0
176
1
290
0
176
1
 90
50
176
1
 40
0.0
176
1
 40
1.0
176
1
 90
0
176
1
 62
18
420
0
176
1
 90
50
176
1
 90
3
176
1
 62
5
420
255
176
1
290
0
176
1
 90
50
176
1
 90
50
176
1
 90
50
176
1
290
0
176
1
 90
50
176
1
 62
256
176
0
 40
1.0
176
0
 90
2
176
1
  1
strokes_ogs.tif
176
1
290
0
176
1
 40
1.0
176
1
 40
1.0
176
1
  0
VISUALSTYLE
  5
61
102
{ACAD_REACTORS
330
16
102
}
330
16
100
AcDbVisualStyle
  2
Facepattern
 70
15
177
3
291
1
 70
58
 90
2
176
1
 90
2
176
1
 90
0
176
1
 90
2
176
1
 40
0.6
176
1
 40
30.0
176
1
 62
7
420
16777215
176
1
 90
1
176
1
 90
4
176
1
 62
7
176
1
 62
257
176
1
 90
1
176
1
 90
1
176
1
 40
1.0
176
1
 90
8
176
1
 62
7
176
1
 40
1.0
176
1
 90
1
176
1
 90
6
176
1
 90
2
176
1
 62
7
176
1
 90
5
176
1
 90
0
176
1
 90
0
176
1
290
0
176
1
 90
1
176
1
 40
0.0
176
1
 90
0
176
1
290
0
176
1
290
1
176
1
290
1
176
1
290
0
176
1
290
0
176
1
290
0
176
1
290
0
176
1
290
0
176
1
290
0
176
1
 90
50
176
1
 40
0.0
176
1
 40
1.0
176
1
 90
0
176
1
 62
18
420
0
176
1
 90
50
176
1
 90
3
176
1
 62
5
420
255
176
1
290
0
176
1
 90
50
176
1
 90
50
176
1
 90
50
176
1
290
0
176
1
 90
50
176
1
 62
256
176
0
 40
1.0
176
0
 90
2
176
1
  1
strokes_ogs.tif
176
1
290
0
176
1
 40
1.0
176
1
 40
1.0
176
1
  0
VISUALSTYLE
  5
62
102
{ACAD_REACTORS
330
16
102
}
330
16
100
AcDbVisualStyle
  2
Flat
 70
0
177
3
291
1
 70
58
 90
2
176
1
 90
2
176
1
 90
0
176
1
 90
2
176
1
 40
0.6
176
1
 40
30.0
176
1
 62
7
420
16777215
176
1
 90
1
176
1
 90
4
176
1
 62
7
176
1
 62
257
176
1
 90
1
176
1
 90
1
176
1
 40
1.0
176
1
 90
8
176
1
 62
7
176
1
 40
1.0
176
1
 90
1
176
1
 90
6
176
1
 90
2
176
1
 62
7
176
1
 90
5
176
1
 90
0
176
1
 90
0
176
1
290
0
176
1
 90
1
176
1
 40
0.0
176
1
 90
0
176
1
290
0
176
1
290
1
176
1
290
1
176
1
290
0
176
1
290
0
176
1
290
0
176
1
290
0
176
1
290
0
176
1
290
0
176
1
 90
50
176
1
 40
0.0
176
1
 40
1.0
176
1
 90
0
176
1
 62
18
420
0
176
1
 90
50
176
1
 90
3
176
1
 62
5
420
255
176
1
290
0
176
1
 90
50
176
1
 90
50
176
1
 90
50
176
1
290
0
176
1
 90
50
176
1
 62
256
176
0
 40
1.0
176
0
 90
2
176
1
  1
strokes_ogs.tif
176
1
290
0
176
1
 40
1.0
176
1
 40
1.0
176
1
  0
VISUALSTYLE
  5
63
102
{ACAD_REACTORS
330
16
102
}
330
16
100
AcDbVisualStyle
  2
FlatWithEdges
 70
1
177
3
291
1
 70
58
 90
2
176
1
 90
2
176
1
 90
0
176
1
 90
2
176
1
 40
0.6
176
1
 40
30.0
176
1
 62
7
420
16777215
176
1
 90
1
176
1
 90
4
176
1
 62
7
176
1
 62
257
176
1
 90
1
176
1
 90
1
176
1
 40
1.0
176
1
 90
8
176
1
 62
7
176
1
 40
1.0
176
1
 90
1
176
1
 90
6
176
1
 90
2
176
1
 62
7
176
1
 90
5
176
1
 90
0
176
1
 90
0
176
1
290
0
176
1
 90
1
176
1
 40
0.0
176
1
 90
0
176
1
290
0
176
1
290
1
176
1
290
1
176
1
290
0
176
1
290
0
176
1
290
0
176
1
290
0
176
1
290
0
176
1
290
0
176
1
 90
50
176
1
 40
0.0
176
1
 40
1.0
176
1
 90
0
176
1
 62
18
420
0
176
1
 90
50
176
1
 90
3
176
1
 62
5
420
255
176
1
290
0
176
1
 90
50
176
1
 90
50
176
1
 90
50
176
1
290
0
176
1
 90
50
176
1
 62
256
176
0
 40
1.0
176
0
 90
2
176
1
  1
strokes_ogs.tif
176
1
290
0
176
1
 40
1.0
176
1
 40
1.0
176
1
  0
VISUALSTYLE
  5
64
102
{ACAD_REACTORS
330
16
102
}
330
16
100
AcDbVisualStyle
  2
Gouraud
 70
2
177
3
291
1
 70
58
 90
2
176
1
 90
2
176
1
 90
0
176
1
 90
2
176
1
 40
0.6
176
1
 40
30.0
176
1
 62
7
420
16777215
176
1
 90
1
176
1
 90
4
176
1
 62
7
176
1
 62
257
176
1
 90
1
176
1
 90
1
176
1
 40
1.0
176
1
 90
8
176
1
 62
7
176
1
 40
1.0
176
1
 90
1
176
1
 90
6
176
1
 90
2
176
1
 62
7
176
1
 90
5
176
1
 90
0
176
1
 90
0
176
1
290
0
176
1
 90
1
176
1
 40
0.0
176
1
 90
0
176
1
290
0
176
1
290
1
176
1
290
1
176
1
290
0
176
1
290
0
176
1
290
0
176
1
290
0
176
1
290
0
176
1
290
0
176
1
 90
50
176
1
 40
0.0
176
1
 40
1.0
176
1
 90
0
176
1
 62
18
420
0
176
1
 90
50
176
1
 90
3
176
1
 62
5
420
255
176
1
290
0
176
1
 90
50
176
1
 90
50
176
1
 90
50
176
1
290
0
176
1
 90
50
176
1
 62
256
176
0
 40
1.0
176
0
 90
2
176
1
  1
strokes_ogs.tif
176
1
290
0
176
1
 40
1.0
176
1
 40
1.0
176
1
  0
VISUALSTYLE
  5
65
102
{ACAD_REACTORS
330
16
102
}
330
16
100
AcDbVisualStyle
  2
GouraudWithEdges
 70
3
177
3
291
1
 70
58
 90
2
176
1
 90
2
176
1
 90
0
176
1
 90
2
176
1
 40
0.6
176
1
 40
30.0
176
1
 62
7
420
16777215
176
1
 90
1
176
1
 90
4
176
1
 62
7
176
1
 62
257
176
1
 90
1
176
1
 90
1
176
1
 40
1.0
176
1
 90
8
176
1
 62
7
176
1
 40
1.0
176
1
 90
1
176
1
 90
6
176
1
 90
2
176
1
 62
7
176
1
 90
5
176
1
 90
0
176
1
 90
0
176
1
290
0
176
1
 90
1
176
1
 40
0.0
176
1
 90
0
176
1
290
0
176
1
290
1
176
1
290
1
176
1
290
0
176
1
290
0
176
1
290
0
176
1
290
0
176
1
290
0
176
1
290
0
176
1
 90
50
176
1
 40
0.0
176
1
 40
1.0
176
1
 90
0
176
1
 62
18
420
0
176
1
 90
50
176
1
 90
3
176
1
 62
5
420
255
176
1
290
0
176
1
 90
50
176
1
 90
50
176
1
 90
50
176
1
290
0
176
1
 90
50
176
1
 62
256
176
0
 40
1.0
176
0
 90
2
176
1
  1
strokes_ogs.tif
176
1
290
0
176
1
 40
1.0
176
1
 40
1.0
176
1
  0
VISUALSTYLE
  5
66
102
{ACAD_REACTORS
330
16
102
}
330
16
100
AcDbVisualStyle
  2
Hidden
 70
6
177
3
291
0
 70
58
 90
2
176
1
 90
2
176
1
 90
0
176
1
 90
1
176
1
 40
0.6
176
1
 40
30.0
176
1
 62
7
420
16777215
176
1
 90
1
176
1
 90
4
176
1
 62
7
176
1
 62
257
176
1
 90
1
176
1
 90
1
176
1
 40
1.0
176
1
 90
8
176
1
 62
7
176
1
 40
1.0
176
1
 90
1
176
1
 90
6
176
1
 90
2
176
1
 62
7
176
1
 90
5
176
1
 90
0
176
1
 90
0
176
1
290
0
176
1
 90
1
176
1
 40
0.0
176
1
 90
0
176
1
290
0
176
1
290
1
176
1
290
1
176
1
290
0
176
1
290
0
176
1
290
0
176
1
290
0
176
1
290
0
176
1
290
0
176
1
 90
50
176
1
 40
0.0
176
1
 40
1.0
176
1
 90
0
176
1
 62
18
420
0
176
1
 90
50
176
1
 90
3
176
1
 62
5
420
255
176
1
290
0
176
1
 90
50
176
1
 90
50
176
1
 90
50
176
1
290
0
176
1
 90
50
176
1
 62
256
176
0
 40
1.0
176
0
 90
2
176
1
  1
strokes_ogs.tif
176
1
290
0
176
1
 40
1.0
176
1
 40
1.0
176
1
  0
VISUALSTYLE
  5
67
102
{ACAD_REACTORS
330
16
102
}
330
16
100
AcDbVisualStyle
  2
JitterOff
 70
20
177
3
291
1
 70
58
 90
2
176
1
 90
2
176
1
 90
0
176
1
 90
2
176
1
 40
0.6
176
1
 40
30.0
176
1
 62
7
420
16777215
176
1
 90
1
176
1
 90
4
176
1
 62
7
176
1
 62
257
176
1
 90
1
176
1
 90
1
176
1
 40
1.0
176
1
 90
8
176
1
 62
7
176
1
 40
1.0
176
1
 90
1
176
1
 90
6
176
1
 90
2
176
1
 62
7
176
1
 90
5
176
1
 90
0
176
1
 90
0
176
1
290
0
176
1
 90
1
176
1
 40
0.0
176
1
 90
0
176
1
290
0
176
1
290
1
176
1
290
1
176
1
290
0
176
1
290
0
176
1
290
0
176
1
290
0
176
1
290
0
176
1
290
0
176
1
 90
50
176
1
 40
0.0
176
1
 40
1.0
176
1
 90
0
176
1
 62
18
420
0
176
1
 90
50
176
1
 90
3
176
1
 62
5
420
255
176
1
290
0
176
1
 90
50
176
1
 90
50
176
1
 90
50
176
1
290
0
176
1
 90
50
176
1
 62
256
176
0
 40
1.0
176
0
 90
2
176
1
  1
strokes_ogs.tif
176
1
290
0
176
1
 40
1.0
176
1
 40
1.0
176
1
  0
VISUALSTYLE
  5
68
102
{ACAD_REACTORS
330
16
102
}
330
16
100
AcDbVisualStyle
  2
Linepattern
 70
14
177
3
291
1
 70
58
 90
2
176
1
 90
2
176
1
 90
0
176
1
 90
2
176
1
 40
0.6
176
1
 40
30.0
176
1
 62
7
420
16777215
176
1
 90
1
176
1
 90
4
176
1
 62
7
176
1
 62
257
176
1
 90
1
176
1
 90
1
176
1
 40
1.0
176
1
 90
8
176
1
 62
7
176
1
 40
1.0
176
1
 90
1
176
1
 90
6
176
1
 90
2
176
1
 62
7
176
1
 90
5
176
1
 90
0
176
1
 90
0
176
1
290
0
176
1
 90
1
176
1
 40
0.0
176
1
 90
0
176
1
290
0
176
1
290
1
176
1
290
1
176
1
290
0
176
1
290
0
176
1
290
0
176
1
290
0
176
1
290
0
176
1
290
0
176
1
 90
50
176
1
 40
0.0
176
1
 40
1.0
176
1
 90
0
176
1
 62
18
420
0
176
1
 90
50
176
1
 90
3
176
1
 62
5
420
255
176
1
290
0
176
1
 90
50
176
1
 90
50
176
1
 90
50
176
1
290
0
176
1
 90
50
176
1
 62
256
176
0
 40
1.0
176
0
 90
2
176
1
  1
strokes_ogs.tif
176
1
290
0
176
1
 40
1.0
176
1
 40
1.0
176
1
  0
VISUALSTYLE
  5
69
102
{ACAD_REACTORS
330
16
102
}
330
16
100
AcDbVisualStyle
  2
Modeling
 70
10
177
3
291
0
 70
58
 90
2
176
1
 90
2
176
1
 90
0
176
1
 90
2
176
1
 40
0.6
176
1
 40
30.0
176
1
 62
7
420
16777215
176
1
 90
1
176
1
 90
4
176
1
 62
7
176
1
 62
257
176
1
 90
1
176
1
 90
1
176
1
 40
1.0
176
1
 90
8
176
1
 62
7
176
1
 40
1.0
176
1
 90
1
176
1
 90
6
176
1
 90
2
176
1
 62
7
176
1
 90
5
176
1
 90
0
176
1
 90
0
176
1
290
0
176
1
 90
1
176
1
 40
0.0
176
1
 90
0
176
1
290
0
176
1
290
1
176
1
290
1
176
1
290
0
176
1
290
0
176
1
290
0
176
1
290
0
176
1
290
0
176
1
290
0
176
1
 90
50
176
1
 40
0.0
176
1
 40
1.0
176
1
 90
0
176
1
 62
18
420
0
176
1
 90
50
176
1
 90
3
176
1
 62
5
420
255
176
1
290
0
176
1
 90
50
176
1
 90
50
176
1
 90
50
176
1
290
0
176
1
 90
50
176
1
 62
256
176
0
 40
1.0
176
0
 90
2
176
1
  1
strokes_ogs.tif
176
1
290
0
176
1
 40
1.0
176
1
 40
1.0
176
1
  0
VISUALSTYLE
  5
6A
102
{ACAD_REACTORS
330
16
102
}
330
16
100
AcDbVisualStyle
  2
OverhangOff
 70
21
177
3
291
1
 70
58
 90
2
176
1
 90
2
176
1
 90
0
176
1
 90
2
176
1
 40
0.6
176
1
 40
30.0
176
1
 62
7
420
16777215
176
1
 90
1
176
1
 90
4
176
1
 62
7
176
1
 62
257
176
1
 90
1
176
1
 90
1
176
1
 40
1.0
176
1
 90
8
176
1
 62
7
176
1
 40
1.0
176
1
 90
1
176
1
 90
6
176
1
 90
2
176
1
 62
7
176
1
 90
5
176
1
 90
0
176
1
 90
0
176
1
290
0
176
1
 90
1
176
1
 40
0.0
176
1
 90
0
176
1
290
0
176
1
290
1
176
1
290
1
176
1
290
0
176
1
290
0
176
1
290
0
176
1
290
0
176
1
290
0
176
1
290
0
176
1
 90
50
176
1
 40
0.0
176
1
 40
1.0
176
1
 90
0
176
1
 62
18
420
0
176
1
 90
50
176
1
 90
3
176
1
 62
5
420
255
176
1
290
0
176
1
 90
50
176
1
 90
50
176
1
 90
50
176
1
290
0
176
1
 90
50
176
1
 62
256
176
0
 40
1.0
176
0
 90
2
176
1
  1
strokes_ogs.tif
176
1
290
0
176
1
 40
1.0
176
1
 40
1.0
176
1
  0
VISUALSTYLE
  5
6B
102
{ACAD_REACTORS
330
16
102
}
330
16
100
AcDbVisualStyle
  2
Realistic
 70
8
177
3
291
0
 70
58
 90
2
176
1
 90
2
176
1
 90
0
176
1
 90
2
176
1
 40
0.6
176
1
 40
30.0
176
1
 62
7
420
16777215
176
1
 90
1
176
1
 90
4
176
1
 62
7
176
1
 62
257
176
1
 90
1
176
1
 90
1
176
1
 40
1.0
176
1
 90
8
176
1
 62
7
176
1
 40
1.0
176
1
 90
1
176
1
 90
6
176
1
 90
2
176
1
 62
7
176
1
 90
5
176
1
 90
0
176
1
 90
0
176
1
290
0
176
1
 90
1
176
1
 40
0.0
176
1
 90
0
176
1
290
0
176
1
290
1
176
1
290
1
176
1
290
0
176
1
290
0
176
1
290
0
176
1
290
0
176
1
290
0
176
1
290
0
176
1
 90
50
176
1
 40
0.0
176
1
 40
1.0
176
1
 90
0
176
1
 62
18
420
0
176
1
 90
50
176
1
 90
3
176
1
 62
5
420
255
176
1
290
0
176
1
 90
50
176
1
 90
50
176
1
 90
50
176
1
290
0
176
1
 90
50
176
1
 62
256
176
0
 40
1.0
176
0
 90
2
176
1
  1
strokes_ogs.tif
176
1
290
0
176
1
 40
1.0
176
1
 40
1.0
176
1
  0
VISUALSTYLE
  5
6C
102
{ACAD_REACTORS
330
16
102
}
330
16
100
AcDbVisualStyle
  2
Shaded
 70
27
177
3
291
0
 70
58
 90
2
176
1
 90
2
176
1
 90
0
176
1
 90
2
176
1
 40
0.6
176
1
 40
30.0
176
1
 62
7
420
16777215
176
1
 90
1
176
1
 90
4
176
1
 62
7
176
1
 62
257
176
1
 90
1
176
1
 90
1
176
1
 40
1.0
176
1
 90
8
176
1
 62
7
176
1
 40
1.0
176
1
 90
1
176
1
 90
6
176
1
 90
2
176
1
 62
7
176
1
 90
5
176
1
 90
0
176
1
 90
0
176
1
290
0
176
1
 90
1
176
1
 40
0.0
176
1
 90
0
176
1
290
0
176
1
290
1
176
1
290
1
176
1
290
0
176
1
290
0
176
1
290
0
176
1
290
0
176
1
290
0
176
1
290
0
176
1
 90
50
176
1
 40
0.0
176
1
 40
1.0
176
1
 90
0
176
1
 62
18
420
0
176
1
 90
50
176
1
 90
3
176
1
 62
5
420
255
176
1
290
0
176
1
 90
50
176
1
 90
50
176
1
 90
50
176
1
290
0
176
1
 90
50
176
1
 62
256
176
0
 40
1.0
176
0
 90
2
176
1
  1
strokes_ogs.tif
176
1
290
0
176
1
 40
1.0
176
1
 40
1.0
176
1
  0
VISUALSTYLE
  5
6D
102
{ACAD_REACTORS
330
16
102
}
330
16
100
AcDbVisualStyle
  2
Shaded with edges
 70
26
177
3
291
0
 70
58
 90
2
176
1
 90
2
176
1
 90
0
176
1
 90
2
176
1
 40
0.6
176
1
 40
30.0
176
1
 62
7
420
16777215
176
1
 90
1
176
1
 90
4
176
1
 62
7
176
1
 62
257
176
1
 90
1
176
1
 90
1
176
1
 40
1.0
176
1
 90
8
176
1
 62
7
176
1
 40
1.0
176
1
 90
1
176
1
 90
6
176
1
 90
2
176
1
 62
7
176
1
 90
5
176
1
 90
0
176
1
 90
0
176
1
290
0
176
1
 90
1
176
1
 40
0.0
176
1
 90
0
176
1
290
0
176
1
290
1
176
1
290
1
176
1
290
0
176
1
290
0
176
1
290
0
176
1
290
0
176
1
290
0
176
1
290
0
176
1
 90
50
176
1
 40
0.0
176
1
 40
1.0
176
1
 90
0
176
1
 62
18
420
0
176
1
 90
50
176
1
 90
3
176
1
 62
5
420
255
176
1
290
0
176
1
 90
50
176
1
 90
50
176
1
 90
50
176
1
290
0
176
1
 90
50
176
1
 62
256
176
0
 40
1.0
176
0
 90
2
176
1
  1
strokes_ogs.tif
176
1
290
0
176
1
 40
1.0
176
1
 40
1.0
176
1
  0
VISUALSTYLE
  5
6E
102
{ACAD_REACTORS
330
16
102
}
330
16
100
AcDbVisualStyle
  2
Shades of Gray
 70
23
177
3
291
0
 70
58
 90
2
176
1
 90
2
176
1
 90
0
176
1
 90
2
176
1
 40
0.6
176
1
 40
30.0
176
1
 62
7
420
16777215
176
1
 90
1
176
1
 90
4
176
1
 62
7
176
1
 62
257
176
1
 90
1
176
1
 90
1
176
1
 40
1.0
176
1
 90
8
176
1
 62
7
176
1
 40
1.0
176
1
 90
1
176
1
 90
6
176
1
 90
2
176
1
 62
7
176
1
 90
5
176
1
 90
0
176
1
 90
0
176
1
290
0
176
1
 90
1
176
1
 40
0.0
176
1
 90
0
176
1
290
0
176
1
290
1
176
1
290
1
176
1
290
0
176
1
290
0
176
1
290
0
176
1
290
0
176
1
290
0
176
1
290
0
176
1
 90
50
176
1
 40
0.0
176
1
 40
1.0
176
1
 90
0
176
1
 62
18
420
0
176
1
 90
50
176
1
 90
3
176
1
 62
5
420
255
176
1
290
0
176
1
 90
50
176
1
 90
50
176
1
 90
50
176
1
290
0
176
1
 90
50
176
1
 62
256
176
0
 40
1.0
176
0
 90
2
176
1
  1
strokes_ogs.tif
176
1
290
0
176
1
 40
1.0
176
1
 40
1.0
176
1
  0
VISUALSTYLE
  5
6F
102
{ACAD_REACTORS
330
16
102
}
330
16
100
AcDbVisualStyle
  2
Sketchy
 70
24
177
3
291
0
 70
58
 90
2
176
1
 90
2
176
1
 90
0
176
1
 90
1
176
1
 40
0.6
176
1
 40
30.0
176
1
 62
7
420
16777215
176
1
 90
1
176
1
 90
4
176
1
 62
7
176
1
 62
257
176
1
 90
1
176
1
 90
1
176
1
 40
1.0
176
1
 90
8
176
1
 62
7
176
1
 40
1.0
176
1
 90
1
176
1
 90
6
176
1
 90
2
176
1
 62
7
176
1
 90
5
176
1
 90
0
176
1
 90
0
176
1
290
0
176
1
 90
1
176
1
 40
0.0
176
1
 90
0
176
1
290
0
176
1
290
1
176
1
290
1
176
1
290
0
176
1
290
0
176
1
290
0
176
1
290
0
176
1
290
0
176
1
290
0
176
1
 90
50
176
1
 40
0.0
176
1
 40
1.0
176
1
 90
0
176
1
 62
18
420
0
176
1
 90
50
176
1
 90
3
176
1
 62
5
420
255
176
1
290
0
176
1
 90
50
176
1
 90
50
176
1
 90
50
176
1
290
0
176
1
 90
50
176
1
 62
256
176
0
 40
1.0
176
0
 90
2
176
1
  1
strokes_ogs.tif
176
1
290
0
176
1
 40
1.0
176
1
 40
1.0
176
1
  0
VISUALSTYLE
  5
70
102
{ACAD_REACTORS
330
16
102
}
330
16
100
AcDbVisualStyle
  2
Thicken
 70
13
177
3
291
1
 70
58
 90
2
176
1
 90
2
176
1
 90
0
176
1
 90
2
176
1
 40
0.6
176
1
 40
30.0
176
1
 62
7
420
16777215
176
1
 90
1
176
1
 90
4
176
1
 62
7
176
1
 62
257
176
1
 90
1
176
1
 90
1
176
1
 40
1.0
176
1
 90
8
176
1
 62
7
176
1
 40
1.0
176
1
 90
1
176
1
 90
6
176
1
 90
2
176
1
 62
7
176
1
 90
5
176
1
 90
0
176
1
 90
0
176
1
290
0
176
1
 90
1
176
1
 40
0.0
176
1
 90
0
176
1
290
0
176
1
290
1
176
1
290
1
176
1
290
0
176
1
290
0
176
1
290
0
176
1
290
0
176
1
290
0
176
1
290
0
176
1
 90
50
176
1
 40
0.0
176
1
 40
1.0
176
1
 90
0
176
1
 62
18
420
0
176
1
 90
50
176
1
 90
3
176
1
 62
5
420
255
176
1
290
0
176
1
 90
50
176
1
 90
50
176
1
 90
50
176
1
290
0
176
1
 90
50
176
1
 62
256
176
0
 40
1.0
176
0
 90
2
176
1
  1
strokes_ogs.tif
176
1
290
0
176
1
 40
1.0
176
1
 40
1.0
176
1
  0
VISUALSTYLE
  5
71
102
{ACAD_REACTORS
330
16
102
}
330
16
100
AcDbVisualStyle
  2
Wireframe
 70
5
177
3
291
0
 70
58
 90
2
176
1
 90
2
176
1
 90
0
176
1
 90
0
176
1
 40
0.6
176
1
 40
30.0
176
1
 62
7
420
16777215
176
1
 90
1
176
1
 90
4
176
1
 62
7
176
1
 62
257
176
1
 90
1
176
1
 90
1
176
1
 40
1.0
176
1
 90
8
176
1
 62
7
176
1
 40
1.0
176
1
 90
1
176
1
 90
6
176
1
 90
2
176
1
 62
7
176
1
 90
5
176
1
 90
0
176
1
 90
0
176
1
290
0
176
1
 90
1
176
1
 40
0.0
176
1
 90
0
176
1
290
0
176
1
290
1
176
1
290
1
176
1
290
0
176
1
290
0
176
1
290
0
176
1
290
0
176
1
290
0
176
1
290
0
176
1
 90
50
176
1
 40
0.0
176
1
 40
1.0
176
1
 90
0
176
1
 62
18
420
0
176
1
 90
50
176
1
 90
3
176
1
 62
5
420
255
176
1
290
0
176
1
 90
50
176
1
 90
50
176
1
 90
50
176
1
290
0
176
1
 90
50
176
1
 62
256
176
0
 40
1.0
176
0
 90
2
176
1
  1
strokes_ogs.tif
176
1
290
0
176
1
 40
1.0
176
1
 40
1.0
176
1
  0
VISUALSTYLE
  5
72
102
{ACAD_REACTORS
330
16
102
}
330
16
100
AcDbVisualStyle
  2
X-Ray
 70
25
177
3
291
0
 70
58
 90
2
176
1
 90
2
176
1
 90
0
176
1
 90
2
176
1
 40
0.5
176
1
 40
30.0
176
1
 62
7
420
16777215
176
1
 90
1
176
1
 90
4
176
1
 62
7
176
1
 62
257
176
1
 90
1
176
1
 90
1
176
1
 40
1.0
176
1
 90
8
176
1
 62
7
176
1
 40
1.0
176
1
 90
1
176
1
 90
6
176
1
 90
2
176
1
 62
7
176
1
 90
5
176
1
 90
0
176
1
 90
0
176
1
290
0
176
1
 90
1
176
1
 40
0.0
176
1
 90
0
176
1
290
0
176
1
290
1
176
1
290
1
176
1
290
0
176
1
290
0
176
1
290
0
176
1
290
0
176
1
290
0
176
1
290
0
176
1
 90
50
176
1
 40
0.0
176
1
 40
1.0
176
1
 90
0
176
1
 62
18
420
0
176
1
 90
50
176
1
 90
3
176
1
 62
5
420
255
176
1
290
0
176
1
 90
50
176
1
 90
50
176
1
 90
50
176
1
290
0
176
1
 90
50
176
1
 62
256
176
0
 40
1.0
176
0
 90
2
176
1
  1
strokes_ogs.tif
176
1
290
0
176
1
 40
1.0
176
1
 40
1.0
176
1
  0
DICTIONARYVAR
  5
24C
330
2D
100
DictionaryVariables
280
0
  1
1.4.4 @ 2026-09-28T21:19:08.236266+00:00
  0
ENDSEC
  0
EOF
